<?xml version="1.0" standalone="no"?><!DOCTYPE svg PUBLIC "-//W3C//DTD SVG 1.1//EN" "http://www.w3.org/Graphics/SVG/1.1/DTD/svg11.dtd"><svg t="1531984196059" class="icon" style="" viewBox="0 0 1024 1024" version="1.1" xmlns="http://www.w3.org/2000/svg" p-id="3688" xmlns:xlink="http://www.w3.org/1999/xlink" width="200" height="200"><defs><style type="text/css"></style></defs><path d="M925.279 520.116c0 211.48-171.418 382.896-382.897 382.896-211.425 0-382.897-171.416-382.897-382.896 0-211.453 171.473-382.843 382.897-382.843 211.479 0 382.897 171.391 382.897 382.843" fill="#EDE04E" p-id="3689"></path><path d="M246.054 537.174c-15.725 0-28.449-12.724-28.449-28.449 0-163.388 132.939-296.327 296.327-296.327 15.725 0 28.449 12.724 28.449 28.449 0 15.725-12.725 28.449-28.449 28.449-132.022 0-239.429 107.406-239.429 239.429 0 15.725-12.724 28.449-28.449 28.449z" fill="#203846" p-id="3690"></path><path d="M513.933 65.428c-39.729 0-79.125 5.251-117.075 15.614-0.135 0.037-0.266 0.082-0.4 0.12-34.022 9.303-66.936 22.762-97.868 39.97-13.723 7.64-18.669 24.976-11.029 38.701 5.223 9.335 14.892 14.614 24.893 14.614 4.668 0 9.419-1.167 13.807-3.584 27.01-15.029 55.733-26.763 85.397-34.875 0.067-0.018 0.134-0.03 0.201-0.048 33.061-9.029 67.4-13.613 102.073-13.613 213.092 0 386.454 173.335 386.454 386.398 0 213.093-173.362 386.455-386.454 386.455-213.063 0-386.398-173.362-386.398-386.455 0-57.704 12.363-113.184 36.784-164.889 6.694-14.196 0.64-31.172-13.585-37.867-14.225-6.751-31.145-0.583-37.868 13.585-28.032 59.343-42.229 122.994-42.229 189.17 0 244.458 198.867 443.354 443.297 443.354 244.458 0 443.353-198.896 443.353-443.354-0.001-244.429-198.895-443.296-443.353-443.296z" fill="#203846" p-id="3691"></path><path d="M176.932 295.133a28.331 28.331 0 0 1-16.587-5.334c-12.751-9.196-15.669-26.949-6.5-39.729a444.456 444.456 0 0 1 69.399-76.013c11.808-10.28 29.84-9.085 40.118 2.833 10.309 11.836 9.03 29.811-2.832 40.118-22.67 19.725-43.036 42.007-60.455 66.289-5.585 7.725-14.282 11.836-23.143 11.836zM533.629 679.42c-87.596 0-158.858-71.234-158.858-158.805 0-87.598 71.262-158.858 158.858-158.858 87.571 0 158.834 71.261 158.834 158.858 0 87.571-71.263 158.805-158.834 158.805z m0-260.765c-56.231 0-101.959 45.728-101.959 101.96 0 56.205 45.729 101.906 101.959 101.906 56.206 0 101.936-45.701 101.936-101.906-0.001-56.232-45.73-101.96-101.936-101.96z" fill="#203846" p-id="3692"></path></svg>