<?xml version="1.0" standalone="no"?><!DOCTYPE svg PUBLIC "-//W3C//DTD SVG 1.1//EN" "http://www.w3.org/Graphics/SVG/1.1/DTD/svg11.dtd"><svg t="1531984181643" class="icon" style="" viewBox="0 0 1024 1024" version="1.1" xmlns="http://www.w3.org/2000/svg" p-id="2984" xmlns:xlink="http://www.w3.org/1999/xlink" width="200" height="200"><defs><style type="text/css"></style></defs><path d="M874.002 607.63v138.03c0 27.553-22.314 49.892-49.891 49.892H271.147c-27.541 0-49.892-22.339-49.892-49.892V288.327c0-27.577 22.352-49.892 49.892-49.892h153.841l118.493 89.796h280.63c27.576 0 49.891 22.339 49.891 49.892v88.14" fill="#59CE9B" p-id="2985"></path><path d="M514.796 702.613c-13.775 0-24.946-11.157-24.946-24.945V421.973c0-13.789 11.17-24.946 24.946-24.946 13.776 0 24.946 11.158 24.946 24.946v255.695c0 13.788-11.17 24.945-24.946 24.945z" fill="#213847" p-id="2986"></path><path d="M642.645 574.766H386.948c-13.776 0-24.946-11.157-24.946-24.946 0-13.787 11.17-24.944 24.946-24.944h255.696c13.776 0 24.945 11.157 24.945 24.944 0.001 13.788-11.168 24.946-24.944 24.946z" fill="#213847" p-id="2987"></path><path d="M871.518 555.643v51.987" fill="#2AADD8" p-id="2988"></path><path d="M168.879 503.681c-13.776 0-24.946-11.159-24.946-24.946v-35.373c0-13.788 11.17-24.946 24.946-24.946 13.776 0 24.946 11.158 24.946 24.946v35.373c0 13.787-11.17 24.946-24.946 24.946z" fill="#213847" p-id="2989"></path><path d="M809.153 815.504H218.771c-41.268 0-74.838-33.57-74.838-74.838V552.743c0-13.788 11.17-24.946 24.946-24.946 13.776 0 24.946 11.158 24.946 24.946v187.923c0 13.765 11.194 24.946 24.946 24.946h590.382c13.752 0 24.945-11.182 24.945-24.946V358.17c0-13.764-11.193-24.946-24.945-24.946H491.105a25.055 25.055 0 0 1-13.326-3.849l-112.39-70.989H218.771c-13.752 0-24.946 11.182-24.946 24.946v87.311c0 13.789-11.17 24.946-24.946 24.946-13.776 0-24.946-11.157-24.946-24.946v-87.311c0-41.268 33.57-74.837 74.838-74.837h153.841c4.714 0 9.331 1.339 13.326 3.849l112.39 70.989h310.826c41.269 0 74.837 33.57 74.837 74.838v382.496c-0.001 41.267-33.569 74.837-74.838 74.837z" fill="#213847" p-id="2990"></path></svg>