<?xml version="1.0" standalone="no"?><!DOCTYPE svg PUBLIC "-//W3C//DTD SVG 1.1//EN" "http://www.w3.org/Graphics/SVG/1.1/DTD/svg11.dtd"><svg t="1531984189346" class="icon" style="" viewBox="0 0 1024 1024" version="1.1" xmlns="http://www.w3.org/2000/svg" p-id="3338" xmlns:xlink="http://www.w3.org/1999/xlink" width="200" height="200"><defs><style type="text/css"></style></defs><path d="M515.545 796.21H253.551c-74.248 0-134.646-60.398-134.646-134.646v-78.543c0-12.403 10.037-22.441 22.441-22.441 12.403 0 22.44 10.038 22.44 22.441v78.543c0 49.507 40.258 89.765 89.764 89.765h261.994c12.403 0 22.441 10.037 22.441 22.439 0.001 12.404-10.037 22.442-22.44 22.442z" fill="#213847" p-id="3339"></path><path d="M575.438 473.446V220.591c0-24.809-20.074-44.883-44.882-44.883h-34.779c-24.807 0-44.882 20.074-44.882 44.883v252.854H309.456L478.377 680.63l216.059-207.184H575.438z" fill="#FFD815" p-id="3340"></path><path d="M482.87 687.358c-5.479 0-10.98-1.994-15.275-6.006L244.808 474.169a22.431 22.431 0 0 1-5.61-24.654 22.457 22.457 0 0 1 20.885-14.223h118.998v-68.287c0-12.404 10.037-22.442 22.44-22.442 12.404 0 22.441 10.038 22.441 22.442v90.728c0 12.404-10.037 22.441-22.441 22.441H317.17l165.7 154.105 165.7-154.106h-84.351c-12.404 0-22.442-10.037-22.442-22.441V204.878c0-12.382-10.059-22.441-22.44-22.441h-72.933c-10.695 0-22.441 15.274-22.441 29.168 0 12.405-10.037 22.442-22.441 22.442-12.403 0-22.44-10.037-22.44-22.442 0-35.02 27.656-74.05 67.323-74.05h72.933c37.125 0 67.323 30.199 67.323 67.323v230.414H705.66c9.226 0 17.51 5.653 20.884 14.223a22.431 22.431 0 0 1-5.609 24.654L498.144 681.353c-4.295 4.011-9.795 6.005-15.274 6.005z" fill="#213847" p-id="3341"></path><path d="M401.521 330.56c-12.403 0-22.44-10.037-22.44-22.44v-38.176c0-12.405 10.037-22.441 22.44-22.441 12.404 0 22.441 10.036 22.441 22.441v38.176c0 12.403-10.037 22.44-22.441 22.44zM716.527 863.773c-84 0-152.331-68.353-152.331-152.353s68.331-152.354 152.331-152.354S868.88 627.421 868.88 711.421s-68.353 152.352-152.353 152.352z m0-259.824c-59.258 0-107.449 48.213-107.449 107.472 0 59.258 48.191 107.471 107.449 107.471s107.47-48.213 107.47-107.471c0-59.259-48.212-107.472-107.47-107.472z" fill="#213847" p-id="3342"></path><path d="M702.173 781.789c-0.284 0-0.592 0-0.877-0.022a22.467 22.467 0 0 1-15.603-7.188l-39.425-42.689c-8.416-9.116-7.847-23.317 1.248-31.712 9.096-8.415 23.274-7.846 31.711 1.249l24.194 26.211 55.884-51.653c9.072-8.395 23.252-7.847 31.711 1.249 8.415 9.095 7.845 23.295-1.25 31.711l-72.362 66.885a22.453 22.453 0 0 1-15.231 5.959z" fill="#213847" p-id="3343"></path></svg>