<?xml version="1.0" standalone="no"?><!DOCTYPE svg PUBLIC "-//W3C//DTD SVG 1.1//EN" "http://www.w3.org/Graphics/SVG/1.1/DTD/svg11.dtd"><svg t="1531984193972" class="icon" style="" viewBox="0 0 1024 1024" version="1.1" xmlns="http://www.w3.org/2000/svg" p-id="3572" xmlns:xlink="http://www.w3.org/1999/xlink" width="200" height="200"><defs><style type="text/css"></style></defs><path d="M604.61 534.457c0 54.101-6.296 64.416-63.408 97.955-53.081 31.137-111.449-43.854-111.449-97.955 0-54.088 49.892-97.943 111.449-97.943 61.532 0 63.408 43.855 63.408 97.943" fill="#F7E946" p-id="3573"></path><path d="M712.289 248.035c-17.643-70.513-84.416-92.411-117.991-94.075-6.587-0.047-13.046 2.087-17.817 6.682a23.98 23.98 0 0 0-7.375 17.537l0.347 34.751-0.743 228.549c-23.624-18.06-54.186-28.973-87.528-28.973-74.686 0-135.457 54.71-135.457 121.952 0 67.254 60.771 121.965 135.457 121.965 74.674 0 135.434-54.711 135.434-121.965 0-2.985-0.125-5.944-0.361-8.877 0.13-0.994 0.205-2.005 0.209-3.033l0.782-240.575h72.699c0.152-0.011 0.316 0 0.481 0 13.258 0 24.009-10.75 24.009-24.008 0-3.541-0.762-6.905-2.146-9.93zM481.181 608.403c-48.216 0-87.44-33.175-87.44-73.946s39.224-73.935 87.44-73.935c48.204 0 87.417 33.164 87.417 73.935s-39.213 73.946-87.417 73.946z m136.505-374.447l-0.217-21.019 0.017-5.131c12.047 4.494 25.95 12.379 36.201 26.15h-36.001z" fill="#213847" p-id="3574"></path><path d="M756.761 846.962h-484.96c-52.331 0-95.025-42.084-96.021-94.18L130.4 439.058c-1.899-13.118 7.198-25.298 20.327-27.197 12.942-1.958 25.287 7.186 27.197 20.327l45.859 318.742c0 26.482 21.535 48.017 48.017 48.017h484.96c26.48 0 48.016-21.534 48.016-48.017l0.246-3.435 45.625-315.308c1.899-13.141 14.115-22.284 27.197-20.327 13.129 1.899 22.226 14.079 20.326 27.197l-45.39 313.725c-0.995 52.096-43.689 94.18-96.019 94.18z" fill="#213847" p-id="3575"></path></svg>