<?xml version="1.0" standalone="no"?><!DOCTYPE svg PUBLIC "-//W3C//DTD SVG 1.1//EN" "http://www.w3.org/Graphics/SVG/1.1/DTD/svg11.dtd"><svg t="1531984162835" class="icon" style="" viewBox="0 0 1024 1024" version="1.1" xmlns="http://www.w3.org/2000/svg" p-id="2160" xmlns:xlink="http://www.w3.org/1999/xlink" width="200" height="200"><defs><style type="text/css"></style></defs><path d="M355.945 727.76c0 49.415 14.765 0-29.99 69.531-26.737 41.594-89.485-28.237-89.485-77.651 0-49.46 40.071-89.509 89.485-89.509 49.438 0 29.99 48.215 29.99 97.629M808.909 673.433c0 49.413 14.765 0-29.99 69.554-26.737 41.57-89.485-28.261-89.485-77.697 0-49.415 40.071-89.509 89.485-89.509 49.46-0.001 29.99 48.213 29.99 97.652" fill="#FC607B" p-id="2161"></path><path d="M262.168 832.771c-62.379 0-113.108-50.752-113.108-113.131 0-62.38 50.729-113.132 113.108-113.132 62.379 0 113.131 50.752 113.131 113.132 0.001 62.379-50.752 113.131-113.131 113.131z m0-179.017c-36.311 0-65.862 29.551-65.862 65.886 0 36.334 29.551 65.886 65.862 65.886 36.334 0 65.886-29.552 65.886-65.886 0-36.335-29.552-65.886-65.886-65.886zM720.854 777.243c-62.38 0-113.109-50.752-113.109-113.132 0-62.379 50.729-113.131 113.109-113.131 62.379 0 113.13 50.752 113.13 113.131 0 62.38-50.751 113.132-113.13 113.132z m0-179.016c-36.312 0-65.863 29.552-65.863 65.885 0 36.334 29.552 65.886 65.863 65.886 36.333 0 65.885-29.552 65.885-65.886 0-36.334-29.551-65.885-65.885-65.885z" fill="#213847" p-id="2162"></path><path d="M805.355 652.162c-13.056 0-23.623-10.566-23.623-23.623V251.75c0-25.284-19.954-45.977-44.938-47.2L422.66 273.02c-26.045 0-47.246 21.201-47.246 47.246V459.05c0 13.057-10.565 23.622-23.623 23.622-13.057 0-23.623-10.565-23.623-23.622V320.266c0-51.19 40.902-92.992 91.746-94.446l314.573-68.562c52.112 0 94.49 42.378 94.49 94.492v376.789c0.002 13.057-10.564 23.623-23.622 23.623zM351.792 573.611c-13.057 0-23.623-10.565-23.623-23.623V524.89c0-13.058 10.566-23.623 23.623-23.623 13.058 0 23.623 10.565 23.623 23.623v25.099c0 13.057-10.565 23.622-23.623 23.622zM351.792 738.079c-13.057 0-23.623-12.39-23.623-27.701v-94.876c0-15.312 10.566-27.703 23.623-27.703 13.058 0 23.623 12.392 23.623 27.703v94.876c0 15.311-10.565 27.701-23.623 27.701z" fill="#213847" p-id="2163"></path><path d="M358.875 456.097c-10.796 0-20.555-7.452-23.023-18.433-2.86-12.733 5.122-25.375 17.856-28.236l419.307-94.491c12.711-2.837 25.376 5.121 28.236 17.855 2.861 12.734-5.122 25.376-17.855 28.236L364.088 455.52a23.759 23.759 0 0 1-5.213 0.577z" fill="#213847" p-id="2164"></path></svg>