<?xml version="1.0" standalone="no"?><!DOCTYPE svg PUBLIC "-//W3C//DTD SVG 1.1//EN" "http://www.w3.org/Graphics/SVG/1.1/DTD/svg11.dtd"><svg t="1531984167306" class="icon" style="" viewBox="0 0 1024 1024" version="1.1" xmlns="http://www.w3.org/2000/svg" p-id="2394" xmlns:xlink="http://www.w3.org/1999/xlink" width="200" height="200"><defs><style type="text/css"></style></defs><path d="M671.805 903.668H354.092c-15.062 0-27.25-12.188-27.25-27.25s12.188-27.25 27.25-27.25h317.713c15.062 0 27.25 12.188 27.25 27.25s-12.189 27.25-27.25 27.25z" fill="#213847" p-id="2395"></path><path d="M512.962 881.182c-15.063 0-27.25-12.188-27.25-27.25v-64.719c0-15.062 12.188-27.25 27.25-27.25s27.25 12.188 27.25 27.25v64.719c0 15.062-12.189 27.25-27.25 27.25z" fill="#213847" p-id="2396"></path><path d="M699.933 474.694c0 101.602-53.433 195.806-121.561 210.548-99.303 21.488-183.938-82.335-183.938-183.938V295.52c0-101.575 86.041-207.125 183.938-179.938 72.485 20.131 121.561 57.712 121.561 159.314v199.798z" fill="#31D3FF" p-id="2397"></path><path d="M329.024 431.982c-15.063 0-27.25-12.188-27.25-27.25v-38.32c0-15.062 12.188-27.25 27.25-27.25s27.25 12.188 27.25 27.25v38.32c0 15.063-12.188 27.25-27.25 27.25z" fill="#213847" p-id="2398"></path><path d="M512.962 712.492c-116.451 0-211.188-94.736-211.188-211.188v-27.729c0-15.062 12.188-27.25 27.25-27.25s27.25 12.188 27.25 27.25v27.729c0 86.407 70.28 156.688 156.688 156.688 86.38 0 156.66-70.28 156.66-156.688V295.52c0-86.407-70.28-156.688-156.66-156.688-86.407 0-156.688 70.281-156.688 156.688 0 15.063-12.188 27.25-27.25 27.25-15.063 0-27.25-12.188-27.25-27.25 0-116.451 94.736-211.188 211.188-211.188 116.424 0 211.16 94.736 211.16 211.188v205.785c0 116.451-94.736 211.187-211.16 211.187z" fill="#213847" p-id="2399"></path><path d="M512.962 813.137c-171.644 0-311.3-139.656-311.3-311.299 0-15.063 12.188-27.25 27.25-27.25s27.25 12.188 27.25 27.25c0 141.599 115.2 256.799 256.8 256.799 141.599 0 256.799-115.2 256.799-256.799 0-15.063 12.188-27.25 27.25-27.25s27.25 12.188 27.25 27.25c0 171.642-139.657 311.299-311.299 311.299z" fill="#213847" p-id="2400"></path></svg>