<?xml version="1.0" standalone="no"?><!DOCTYPE svg PUBLIC "-//W3C//DTD SVG 1.1//EN" "http://www.w3.org/Graphics/SVG/1.1/DTD/svg11.dtd"><svg t="1531985297320" class="icon" style="" viewBox="0 0 1544 1024" version="1.1" xmlns="http://www.w3.org/2000/svg" p-id="4191" xmlns:xlink="http://www.w3.org/1999/xlink" width="301.5625" height="200"><defs><style type="text/css"></style></defs><path d="M1508.035784 985.81866c0 13.960578-11.437582 25.229961-25.39816 25.22996H103.567979c-14.128778 0-25.39816-11.269382-25.39816-25.22996V84.604468c0-13.960578 11.269382-25.229961 25.39816-25.229961h1379.069645c13.960578 0 25.39816 11.269382 25.39816 25.229961v901.214192z" fill="#96C85C" p-id="4192"></path><path d="M264.535127 369.366623c0 8.746386-7.064389 15.810775-15.810775 15.810775s-15.810775-7.064389-15.810775-15.810775v-82.081472c0-8.746386 7.064389-15.810775 15.810775-15.810775s15.810775 7.064389 15.810775 15.810775v82.081472zM411.037099 369.366623c0 8.746386-7.064389 15.810775-15.810776 15.810775s-15.810775-7.064389-15.810775-15.810775v-82.081472c0-8.746386 7.064389-15.810775 15.810775-15.810775s15.810775 7.064389 15.810776 15.810775v82.081472zM556.193472 369.366623c0 8.746386-7.064389 15.810775-15.810776 15.810775s-15.810775-7.064389-15.810775-15.810775v-82.081472c0-8.746386 7.064389-15.810775 15.810775-15.810775s15.810775 7.064389 15.810776 15.810775v82.081472zM411.037099 701.729304c0 8.746386-7.064389 15.810775-15.810776 15.810775s-15.810775-7.064389-15.810775-15.810775v-82.081472c0-8.746386 7.064389-15.810775 15.810775-15.810775s15.810775 7.064389 15.810776 15.810775v82.081472zM1087.031842 701.729304c0 8.746386-7.064389 15.810775-15.810775 15.810775s-15.810775-7.064389-15.810775-15.810775v-82.081472c0-8.746386 7.064389-15.810775 15.810775-15.810775s15.810775 7.064389 15.810775 15.810775v82.081472zM1232.524615 701.729304c0 8.746386-7.064389 15.810775-15.810775 15.810775s-15.810775-7.064389-15.810776-15.810775v-82.081472c0-8.746386 7.064389-15.810775 15.810776-15.810775s15.810775 7.064389 15.810775 15.810775v82.081472z" fill="#EEBF2F" p-id="4193"></path><path d="M901.675732 997.256242h572.888305c16.819974 0.840999 22.034166-10.932983 22.034165-23.379764V517.214192C1440.25129 790.875164 1195.184273 997.256242 901.675732 997.256242z" fill="#70A02F" p-id="4194"></path><path d="M1483.478623 0H41.334076C19.299911 0 1.302539 17.997372 1.302539 40.031537v943.936926c0 22.034166 17.997372 40.031537 40.031537 40.031537h1442.144547c22.034166 0 40.031537-17.997372 40.031537-40.031537V40.031537c0.1682-22.034166-17.829172-40.031537-40.031537-40.031537zM1236.056809 664.052562V702.570302c0 10.596583-8.578187 19.17477-19.17477 19.17477-10.596583 0-19.17477-8.578187-19.17477-19.17477v-38.51774h-107.311432V702.570302c0 10.596583-8.578187 19.17477-19.17477 19.17477-10.596583 0-19.17477-8.578187-19.17477-19.17477v-38.51774H414.401093V702.570302c0 10.596583-8.578187 19.17477-19.17477 19.17477-10.596583 0-19.17477-8.578187-19.17477-19.17477v-38.51774H34.101488c-2.354796 0-4.204993-0.504599-5.718792-1.009198v-4.541393c1.513798-0.672799 3.363995-1.009198 5.718792-1.009198H376.051553v-38.34954c0-10.596583 8.578187-19.17477 19.17477-19.17477 10.596583 0 19.17477 8.578187 19.17477 19.17477v38.34954H1052.214497v-38.34954c0-10.596583 8.578187-19.17477 19.17477-19.17477 10.596583 0 19.17477 8.578187 19.17477 19.17477v38.34954h107.311432v-38.34954c0-10.596583 8.578187-19.17477 19.17477-19.17477 10.596583 0 19.17477 8.578187 19.17477 19.17477v38.34954h107.311433v-38.34954c0-10.596583 8.578187-19.17477 19.17477-19.17477s19.17477 8.578187 19.17477 19.17477v38.34954h109.161629c2.354796 0 4.204993 0.504599 5.718791 1.009198v4.541393c-1.513798 0.504599-3.363995 1.009198-5.718791 1.009198H1381.885982V702.570302c0 10.596583-8.578187 19.17477-19.17477 19.17477s-19.17477-8.578187-19.17477-19.17477v-38.51774h-107.479633z m-1207.674113-624.021025c0-7.064389 5.886991-12.95138 12.95138-12.951379h1442.144547c7.232589 0 12.95138 5.886991 12.95138 12.951379v268.278581c-2.354796-0.504599-4.877792-0.840999-7.568989-0.840998H580.246034v-21.024968c0-21.697766-17.660972-39.526938-39.526938-39.526938-21.697766 0-39.526938 17.660972-39.526938 39.526938v21.024968h-66.607096v-21.024968c0-21.697766-17.660972-39.526938-39.526938-39.526938-21.697766 0-39.526938 17.660972-39.526939 39.526938v21.024968h-66.607096v-21.024968c0-21.697766-17.660972-39.526938-39.526938-39.526938-21.697766 0-39.526938 17.660972-39.526938 39.526938v21.024968H32.25129c-1.345598 0-2.691196 0.1682-3.868594 0.168199V40.031537z m0 288.12615c1.177398-0.336399 2.522996-0.504599 3.868594-0.504599H230.390581v-41.377135c0-10.596583 8.578187-19.17477 19.17477-19.17477s19.17477 8.578187 19.17477 19.17477v41.377135H376.051553v-41.377135c0-10.596583 8.578187-19.17477 19.17477-19.17477 10.596583 0 19.17477 8.578187 19.17477 19.17477v41.377135h107.311433v-41.377135c0-10.596583 8.578187-19.17477 19.17477-19.17477 10.596583 0 19.17477 8.578187 19.17477 19.17477v41.377135h928.967148c3.532194 0 6.055191 1.009198 7.568988 1.850197v2.859396c-1.513798 1.009198-4.036794 2.018397-7.568988 2.018397H560.062066v35.490144c0 10.596583-8.578187 19.17477-19.17477 19.17477-10.596583 0-19.17477-8.578187-19.17477-19.17477v-35.490144h-107.311433v35.490144c0 10.596583-8.578187 19.17477-19.17477 19.17477-10.596583 0-19.17477-8.578187-19.17477-19.17477v-35.490144h-107.311432v35.490144c0 10.596583-8.578187 19.17477-19.17477 19.17477s-19.17477-8.578187-19.17477-19.17477v-35.490144H32.25129c-1.513798 0-2.691196-0.1682-3.868594-0.5046v-5.718791z m3.868594 26.575559H210.038413v15.306176c0 21.865966 17.660972 39.526938 39.526938 39.526938 21.697766 0 39.526938-17.660972 39.526938-39.526938v-15.306176h66.607096v15.306176c0 21.865966 17.660972 39.526938 39.526938 39.526938 21.697766 0 39.526938-17.660972 39.526938-39.526938v-15.306176h66.607096v15.306176c0 21.865966 17.660972 39.526938 39.526939 39.526938 21.697766 0 39.526938-17.660972 39.526938-39.526938v-15.306176h908.61498c2.691196 0 5.214192-0.336399 7.568988-0.840999v283.584757c-1.850197-0.336399-3.700394-0.504599-5.718791-0.504599H1402.06995v-18.165572c0-21.865966-17.660972-39.526938-39.526938-39.526938S1323.016074 597.109067 1323.016074 618.975033V636.972405h-66.607096v-18.165572c0-21.865966-17.660972-39.526938-39.526939-39.526938-21.697766 0-39.526938 17.660972-39.526938 39.526938V636.972405h-66.607096v-18.165572c0-21.865966-17.660972-39.526938-39.526938-39.526938-21.697766 0-39.526938 17.660972-39.526938 39.526938V636.972405h-597.109067v-18.165572c0-21.865966-17.660972-39.526938-39.526938-39.526938-21.697766 0-39.526938 17.660972-39.526939 39.526938V636.972405H34.101488c-2.018397 0-3.868594 0.1682-5.718792 0.504599V354.565046c1.177398 0.1682 2.522996 0.1682 3.868594 0.1682zM1483.478623 996.919842H41.334076c-7.232589 0-12.95138-5.718791-12.95138-12.951379V683.900131c1.850197 0.336399 3.700394 0.504599 5.718792 0.5046h321.597897V702.570302c0 21.697766 17.660972 39.526938 39.526938 39.526938 21.697766 0 39.526938-17.660972 39.526938-39.526938v-18.165571h597.109068V702.570302c0 21.697766 17.660972 39.526938 39.526938 39.526938 21.697766 0 39.526938-17.660972 39.526938-39.526938v-18.165571h66.607096V702.570302c0 21.697766 17.660972 39.526938 39.526938 39.526938 21.697766 0 39.526938-17.660972 39.526938-39.526938v-18.165571H1323.016074V702.570302c0 21.697766 17.660972 39.526938 39.526938 39.526938S1402.06995 724.268068 1402.06995 702.570302v-18.165571h88.809461c2.018397 0 3.868594-0.1682 5.718791-0.5046v300.068332c0 7.064389-5.886991 12.95138-13.119579 12.951379z" fill="#070606" p-id="4195"></path><path d="M1378.185587 701.729304c0 8.746386-7.064389 15.810775-15.810775 15.810775s-15.810775-7.064389-15.810775-15.810775v-82.081472c0-8.746386 7.064389-15.810775 15.810775-15.810775s15.810775 7.064389 15.810775 15.810775v82.081472z" fill="#EEBF2F" p-id="4196"></path></svg>