<?xml version="1.0" standalone="no"?><!DOCTYPE svg PUBLIC "-//W3C//DTD SVG 1.1//EN" "http://www.w3.org/Graphics/SVG/1.1/DTD/svg11.dtd"><svg t="1531985253381" class="icon" style="" viewBox="0 0 1408 1024" version="1.1" xmlns="http://www.w3.org/2000/svg" p-id="2777" xmlns:xlink="http://www.w3.org/1999/xlink" width="275" height="200"><defs><style type="text/css"></style></defs><path d="M1016.838949 514.978187c0 269.525933-204.502181 487.926321-456.779447 487.926321-252.153175 0-456.655356-218.400388-456.655357-487.926321S307.906327 27.051866 560.183593 27.051866s456.655356 218.400388 456.655356 487.926321z" fill="#BF8E58" p-id="2778"></path><path d="M517.868518 1024C235.561198 1024 5.868518 794.307319 5.868518 512S235.561198 0 517.868518 0 1029.868518 229.692681 1029.868518 512 800.175837 1024 517.868518 1024z m0-1005.758604C245.61258 18.241396 24.109914 239.744062 24.109914 512S245.61258 1005.758604 517.868518 1005.758604c272.255938 0 493.758604-221.502666 493.758604-493.758604S790.124456 18.241396 517.868518 18.241396z" fill="#070606" p-id="2779"></path><path d="M591.826831 689.450315c-8.314106 0-16.007756-3.35046-20.723219-9.803199l-96.791081-132.405235c-7.69365-5.335919-12.533204-13.774115-13.401842-23.329133-0.248182-1.365002-0.248182-2.109549-0.248182-2.854096V293.847794c0-17.62094 14.394571-32.015511 32.015511-32.015511 17.62094 0 32.015511 14.394571 32.015512 32.015511v213.933108l98.031992 134.266602c4.34319 5.956374 5.584101 13.774115 3.474552 21.591856-1.985458 7.321377-6.825012 14.022298-13.525933 18.861852-6.452739 4.715463-13.898206 6.949103-20.84731 6.949103z m-99.148813-413.968008c-10.051381 0-18.365487 8.190015-18.365487 18.365487v227.33495c0.744547 7.321377 3.722734 12.409113 8.438197 15.3873l1.861367 1.737275 97.411537 133.397965c4.219098 5.708192 14.518662 5.584101 22.460494-0.248183 4.095007-2.978187 7.197286-7.197286 8.314106-11.540475 0.992729-3.722734 0.620456-7.321377-1.240912-9.803199l-100.761997-137.865245v-218.400388c0.248182-10.175473-7.941832-18.365487-18.117305-18.365487z" fill="#070606" p-id="2780"></path><path d="M510.298959 513.737276c0 12.533204-7.817741 22.708677-17.496849 22.708676s-17.496849-10.175473-17.49685-22.708676V308.242365c0-12.533204 7.817741-22.708677 17.49685-22.708676s17.496849 10.175473 17.496849 22.708676v205.494911z" fill="#EAC01C" p-id="2781"></path><path d="M605.849128 643.412506c5.708192 7.817741 3.970916 18.861852-3.722733 24.445953-7.817741 5.708192-18.737761 3.970916-24.445953-3.846825l-93.564712-128.062046c-5.708192-7.817741-3.970916-18.737761 3.722734-24.445953 7.817741-5.708192 18.737761-3.970916 24.445953 3.846825l93.564711 128.062046z" fill="#EAC01C" p-id="2782"></path><path d="M727.830709 76.812409c89.966069 95.922443 145.186621 224.729035 145.186621 366.565196 0 268.781386-197.925351 491.400873-455.910809 529.993214 26.431411 19.854581 78.549685 25.066408 126.945225 29.285507C761.459405 1021.518177 1012.992124 782.394571 1012.992124 518.949103c0-200.034901-119.127484-400.566166-285.161415-442.136694z" fill="#B1702D" p-id="2783"></path></svg>