<?xml version="1.0" standalone="no"?><!DOCTYPE svg PUBLIC "-//W3C//DTD SVG 1.1//EN" "http://www.w3.org/Graphics/SVG/1.1/DTD/svg11.dtd"><svg t="1531985278345" class="icon" style="" viewBox="0 0 1370 1024" version="1.1" xmlns="http://www.w3.org/2000/svg" p-id="3837" xmlns:xlink="http://www.w3.org/1999/xlink" width="267.578125" height="200"><defs><style type="text/css"></style></defs><path d="M1018.731474 527.878465c0 263.365288-215.666199 476.863347-481.58224 476.863347S55.694531 791.371291 55.694531 527.878465C55.694531 264.640715 271.233193 51.142657 537.276772 51.142657s481.454703 213.498059 481.454702 476.735808z" fill="#BF8E58" p-id="3838"></path><path d="M179.916221 211.074894C121.631506 267.063931 60.15835 397.662505 55.694531 505.049223c-6.121808 144.882793 47.444013 279.307496 144.627718 362.462056 71.67617-73.079085 115.549129-193.984795 115.549128-310.8093-0.127538-142.587115-70.528331-281.603174-135.955156-345.627085zM890.938729 197.428364C991.183338 350.346029 990.545649 391.158084 1001.513889 494.336058c15.049445 142.204502-59.815167 279.562572-148.32631 364.247585-71.67617-70.528331-115.676666-202.657357-115.676666-311.064377-0.127538-121.670937 52.54552-281.85825 153.427816-350.090902z" fill="#E3B835" p-id="3839"></path><path d="M861.477528 870.572184c77.032752-83.154561 137.230532-177.915049 148.453847-334.913921 9.437788-133.276865-38.771452-250.228908-120.39556-338.867588-22.574168 27.037986-22.829243 24.487233-30.864116 31.501805 77.925516 88.383605 105.218577 180.338265 99.60692 311.191913-5.101507 119.247721-48.846927 228.930117-118.482495 311.191914 8.672562 9.055175 16.707435 16.834972 21.681404 19.895877z" fill="#BF941E" p-id="3840"></path><path d="M519.931648 0.000051h-7.65226C229.910988-0.127487 0.215645 229.567856 0.215645 511.936257S229.910988 1024 512.279388 1024s512.063743-229.695343 512.063744-512.063743c0-279.817647-225.614137-507.855-504.411484-511.936206z m483.495306 537.061127H739.168902C742.357344 408.758282 800.514522 283.898903 889.535815 196.790675c71.548633 85.450239 114.528827 195.38771 114.528827 315.145582 0 8.417486-0.255075 16.834972-0.637688 25.124921zM504.372053 20.27854v516.782638H329.39037C326.074391 396.769741 264.856309 264.258102 160.147883 170.517915 250.06194 76.777728 374.538705 22.446681 504.372053 20.27854zM329.517908 552.875849h174.854145v443.320939c-110.192547-1.785527-216.686501-40.939592-301.754126-111.08531 81.113958-91.95466 126.007218-209.416853 126.899981-332.235629z m190.668816 443.320939V552.875849h198.448614c0.892764 117.079581 42.214969 230.460569 117.07958 320.629701-87.363304 77.415365-198.703689 120.778173-315.528194 122.691238z m0-459.13561V20.27854C655.886804 22.446681 784.444775 81.114009 875.251596 182.251381 778.578042 275.098804 722.078855 403.274162 718.890413 537.061178H520.186724zM145.608588 184.674597c101.137372 90.041595 160.187313 217.324189 163.503293 352.386581H21.131823c-0.382613-8.289949-0.637688-16.707435-0.637689-24.997384 0-125.624605 47.316475-240.408507 125.114454-327.389197zM22.279662 552.875849h286.959756c-0.892764 120.140485-45.658486 234.924387-126.38983 323.818143C92.680455 795.324958 32.865288 680.923669 22.279662 552.875849z m832.565907 311.702064c-73.844311-87.108228-114.91144-197.55585-115.804204-311.702064h263.365287c-10.075476 121.798474-64.789136 231.225795-147.561083 311.702064z" fill="#040000" p-id="3841"></path></svg>