<?xml version="1.0" standalone="no"?><!DOCTYPE svg PUBLIC "-//W3C//DTD SVG 1.1//EN" "http://www.w3.org/Graphics/SVG/1.1/DTD/svg11.dtd"><svg t="1531985224293" class="icon" style="" viewBox="0 0 1270 1024" version="1.1" xmlns="http://www.w3.org/2000/svg" p-id="1596" xmlns:xlink="http://www.w3.org/1999/xlink" width="248.046875" height="200"><defs><style type="text/css"></style></defs><path d="M951.425991 914.817863l-234.420472-715.464125c50.866031-4.624185 90.685399-47.526342 90.685399-99.41997 0-55.104867-44.828901-99.933768-99.933768-99.933768H266.019067c-55.104867 0-99.933768 44.828901-99.933768 99.933768 0 51.636729 39.434019 94.281987 89.657802 99.41997L76.042148 914.946312c-8.349222 26.203713-5.523332 49.966884 8.349222 68.848971 21.707978 29.671851 64.353236 40.204717 97.107877 40.204717h664.854993c45.342699 0 78.739589-12.844957 96.594079-36.993477 14.129453-19.267436 17.083793-44.058204 8.477672-72.18866zM186.76568 99.933768c0-43.672855 35.580532-79.124937 79.124937-79.124937h441.866533c43.672855 0 79.124937 35.580532 79.124937 79.124937 0 43.672855-35.580532 79.253387-79.124937 79.253387H266.019067c-43.672855-0.12845-79.253387-35.580532-79.253387-79.253387z m739.484195 874.741596c-13.615655 18.368289-42.003011 28.515805-80.024085 28.515805H181.370798c-26.332163 0-63.19719-8.349222-80.409433-31.727045-9.890617-13.487205-11.560462-30.314099-5.137983-50.866031L277.06573 199.867536h418.231811l236.347216 721.244356c6.550928 21.322629 4.752634 39.819368-5.394882 53.563472z" fill="#070606" p-id="1597"></path><path d="M696.838936 199.610637l240.329152 713.79428c16.056197 53.563472-17.083793 90.171601-87.34571 90.171601h-607.566482c-48.16859 0-106.870045-26.845961-87.34571-90.171601L313.930758 199.610637" fill="#BF8E58" p-id="1598"></path><path d="M786.753638 107.126944c0 35.323633-31.983944 72.830908-71.289514 72.830908H316.628199c-73.087807-1.412945-97.107878-33.13999-97.107878-68.335173 0-35.323633 41.489212-76.812845 103.273457-68.335173h392.927246c39.17712-0.12845 71.032614 28.515805 71.032614 63.839438z" fill="#EEBF2F" p-id="1599"></path><path d="M937.168088 916.616157l-99.548419-298.902158C796.387356 834.27998 605.896638 1003.448068 377.256397 1003.448068h472.565981c70.133467 0.12845 103.273457-35.195183 87.34571-86.831911z" fill="#B1702D" p-id="1600"></path></svg>