<?xml version="1.0" standalone="no"?><!DOCTYPE svg PUBLIC "-//W3C//DTD SVG 1.1//EN" "http://www.w3.org/Graphics/SVG/1.1/DTD/svg11.dtd"><svg t="1531985265529" class="icon" style="" viewBox="0 0 1384 1024" version="1.1" xmlns="http://www.w3.org/2000/svg" p-id="3250" xmlns:xlink="http://www.w3.org/1999/xlink" width="270.3125" height="200"><defs><style type="text/css"></style></defs><path d="M1077.986938 835.17829h-28.344098V582.026594c0-275.660244-193.406784-503.246676-440.445047-531.035006-0.416825-28.205156-23.897965-50.991588-52.519946-50.991588-28.899864 0-52.381004 23.064315-52.519946 51.408412C258.786938 80.864043 67.325337 307.616825 67.325337 582.026594v253.151696H56.626829c-30.289281 0-54.881954 24.592673-54.881953 54.881954s24.592673 54.881954 54.881953 54.881954h407.654817c8.475441 45.017096 46.684396 79.057802 92.396201 79.057802s83.781818-34.040706 92.396201-79.057802h428.91289c29.316689 0 50.574763-23.064315 50.574763-54.881954s-21.258073-54.881954-50.574763-54.881954zM556.677847 22.230665c15.839349 0 28.760923 11.810041 30.289281 26.954681-9.448033-0.555767-18.896065-0.83365-28.483039-0.83365-10.698507 0-21.397015 0.416825-31.956581 1.111533 1.250475-15.283582 14.310991-27.232564 30.150339-27.232564zM87.193994 582.026594c0-283.440977 211.469199-513.945183 471.290095-513.945183s471.290095 230.504206 471.290095 513.945183v253.151696H87.193994V582.026594z m469.483853 422.104749c-34.735414 0-63.913161-25.14844-71.971777-59.050203h144.082496c-8.197558 33.901764-37.375305 59.050204-72.110719 59.050203z m521.309091-79.057802H56.626829c-19.31289 0-35.013297-15.700407-35.013297-35.013297C21.752474 870.886296 37.452881 855.185889 56.626829 855.185889h1021.360109c20.98019 0 30.567164 18.201357 30.567164 35.013297s-9.586974 34.874355-30.567164 34.874355z" fill="#070606" p-id="3251"></path><path d="M1034.776083 836.150882l2.084125-232.310448c-15.283582-334.849389-194.101493-504.636092-448.781547-504.636092C333.537549 99.204342 124.708241 331.931615 124.708241 605.229851v230.921031" fill="#E35F3D" p-id="3252"></path><path d="M1111.471877 896.173677c0 16.395115-16.395115 29.733514-40.29308 29.733514H86.91611c-23.897965 0-40.154138-13.338399-40.154138-29.733514 0-16.395115 16.395115-29.733514 40.154138-29.733514h984.401629c23.759023 0 40.154138 13.338399 40.154138 29.733514z" fill="#90A632" p-id="3253"></path><path d="M977.948946 341.379647c1.6673 15.700407 3.890366 27.232564 3.890367 43.349797 0 248.844505-201.743284 450.448847-450.448847 450.448846v0.972592H1037.554916l2.084125-232.310448c-4.724016-105.456716-27.232564-189.933243-61.690095-262.460787z" fill="#BD3A1F" p-id="3254"></path></svg>