<?xml version="1.0" standalone="no"?><!DOCTYPE svg PUBLIC "-//W3C//DTD SVG 1.1//EN" "http://www.w3.org/Graphics/SVG/1.1/DTD/svg11.dtd"><svg t="1531985258969" class="icon" style="" viewBox="0 0 1346 1024" version="1.1" xmlns="http://www.w3.org/2000/svg" p-id="3015" xmlns:xlink="http://www.w3.org/1999/xlink" width="262.890625" height="200"><defs><style type="text/css"></style></defs><path d="M858.67247 925.806311H238.171926c-21.727965 0-39.416757-21.31012-39.416757-47.495103s17.688792-47.495103 39.416757-47.495104h620.500544c21.727965 0 39.416757 21.31012 39.416757 47.495104s-17.688792 47.495103-39.416757 47.495103zM238.171926 853.797606c-8.914037 0-16.435256 11.281828-16.435256 24.513602s7.521219 24.513602 16.435256 24.513602h620.500544c8.914037 0 16.435256-11.281828 16.435256-24.513602s-7.521219-24.513602-16.435256-24.513602H238.171926z" fill="#070606" p-id="3016"></path><path d="M1098.376496 184.130577v-1.5321h-0.139282c-0.835691-5.292709-5.571273-9.331882-11.42111-9.331883-6.406964 0-11.560392 4.874864-11.560391 10.863983 0 0.696409 0 1.253536 0.139282 1.810663v707.830251c0 59.194777-53.066376 107.247008-118.250272 107.247007H200.147987c-65.183896 0-118.250272-48.191513-118.250272-107.247007v-36.770403c0-58.080522 56.548422-105.297062 126.050054-105.297062h601.976061v-0.696409h185.523395v-98.890098h-0.139282V135.799782c0-74.933624-66.855277-135.799782-149.031556-135.799782H207.947769c-82.176279 0-149.031556 60.866159-149.031556 135.799782v765.075082h0.278564c4.039173 68.526659 65.741023 123.125136 141.092492 123.125136h756.996735c77.858542 0 141.231774-58.359086 141.231774-130.228509V184.130577h-0.139282zM81.897715 690.420022V135.799782c0-62.258977 56.548422-112.957563 126.050054-112.957562h638.328618c69.501632 0 126.050054 50.698585 126.050055 112.957562v516.178455h-0.139282v76.605006H207.947769c-53.066376 0-99.725789 23.956474-126.050054 60.030468v-98.193689z" fill="#0A0707" p-id="3017"></path><path d="M972.465724 728.722524V139.42111c3.482046-61.562568-51.394995-124.657236-148.613711-116.439608H216.165397c-50.698585 0-91.786725 51.255713-91.786725 114.628944l0.139282 591.112078h847.94777z" fill="#E35F3D" p-id="3018"></path><path d="M886.668118 878.311208c0 18.803047-12.535365 34.124048-27.995648 34.124048H238.171926c-15.460283 0-27.995647-15.181719-27.995647-34.124048 0-18.803047 12.535365-34.124048 27.995647-34.124048h620.500544c15.460283 0 27.995647 15.321001 27.995648 34.124048z" fill="#90A632" p-id="3019"></path><path d="M460.465724 730.67247h512V293.32753c-38.85963 247.782372-253.353645 437.34494-512 437.34494z" fill="#BD3A1F" p-id="3020"></path></svg>