<?xml version="1.0" standalone="no"?><!DOCTYPE svg PUBLIC "-//W3C//DTD SVG 1.1//EN" "http://www.w3.org/Graphics/SVG/1.1/DTD/svg11.dtd"><svg t="1531985239030" class="icon" style="" viewBox="0 0 1259 1024" version="1.1" xmlns="http://www.w3.org/2000/svg" p-id="2186" xmlns:xlink="http://www.w3.org/1999/xlink" width="245.8984375" height="200"><defs><style type="text/css"></style></defs><path d="M874.651696 932.61848c0 43.834386-34.971696 79.404912-78.087485 79.404912H227.316023c-43.115789 0-78.087485-35.570526-78.087485-79.404912V91.38152c0-43.834386 34.971696-79.404912 78.087485-79.404912h569.248188c43.115789 0 78.087485 35.570526 78.087485 79.404912v841.23696z" fill="#E6A72F" p-id="2187"></path><path d="M774.048187 0H184.080468c-60.481871 0-109.705731 49.22386-109.705731 109.705731v804.588538c0 60.481871 49.22386 109.705731 109.705731 109.705731h590.087485c60.481871 0 109.705731-49.22386 109.705731-109.705731V109.705731c-0.119766-60.481871-49.343626-109.705731-109.825497-109.705731z m-524.096374 18.204444h148.509941v342.411229l-74.25497-41.439065-74.254971 41.439065v-342.411229z m615.597661 896.089825c0 50.42152-41.079766 91.501287-91.501287 91.501287H184.080468c-50.42152 0-91.501287-41.079766-91.501287-91.501287V109.705731c0-50.42152 40.96-91.501287 91.501287-91.501287h52.218012v365.765614l87.908304-49.104093 87.908304 49.104093v-365.765614h362.052865c50.42152 0 91.501287 41.079766 91.501287 91.501287v804.588538z" fill="#070606" p-id="2188"></path><path d="M390.676959 339.776374L324.206784 300.014035l-66.589942 39.762339v-319.056842h133.060117z" fill="#E35F3D" p-id="2189"></path><path d="M461.937778 1006.035088l303.008187 2.155789c55.571462 0 100.603509-35.45076 100.603509-100.603509V626.376608c-15.689357 213.542924-186.236257 379.65848-403.611696 379.65848z" fill="#D48F1A" p-id="2190"></path></svg>