<?xml version="1.0" standalone="no"?><!DOCTYPE svg PUBLIC "-//W3C//DTD SVG 1.1//EN" "http://www.w3.org/Graphics/SVG/1.1/DTD/svg11.dtd"><svg t="1531985294872" class="icon" style="" viewBox="0 0 1171 1024" version="1.1" xmlns="http://www.w3.org/2000/svg" p-id="4072" xmlns:xlink="http://www.w3.org/1999/xlink" width="228.7109375" height="200"><defs><style type="text/css"></style></defs><path d="M607.194753 1024H368.566726c-14.532618 0-26.500656-11.845915-26.500656-26.500656 0-14.532618 11.845915-26.378533 26.500656-26.378533h238.628027c14.532618 0 26.500656 11.845915 26.500655 26.378533 0 14.654741-11.968038 26.500656-26.500655 26.500656z m-238.628027-37.369589c-6.106142 0-10.991055 4.884914-10.991055 10.991056s4.884914 10.991055 10.991055 10.991055h238.628027c6.106142 0 10.991055-5.007036 10.991055-10.991055 0-6.106142-4.884914-10.991055-10.991055-10.991056H368.566726z" fill="#070606" p-id="4073"></path><path d="M626.00167 997.621467c0 10.380441-8.304353 18.684794-18.562672 18.684794H370.642815c-10.258318 0-18.562671-8.426476-18.562672-18.684794 0-10.380441 8.304353-18.806917 18.562672-18.806917h236.67406c10.258318 0.122123 18.684794 8.426476 18.684795 18.806917z" fill="#EEBF2F" p-id="4074"></path><path d="M607.194753 885.512701H368.566726c-14.532618 0-26.500656-11.845915-26.500656-26.378533 0-14.654741 11.845915-26.500656 26.500656-26.500656h238.628027c14.532618 0 26.500656 11.845915 26.500655 26.500656 0 14.532618-11.968038 26.378533-26.500655 26.378533z m-238.628027-37.491711c-6.106142 0-10.991055 5.007036-10.991055 10.991055 0 6.106142 4.884914 10.991055 10.991055 10.991056h238.628027c6.106142 0 10.991055-4.884914 10.991055-10.991056s-4.884914-10.991055-10.991055-10.991055H368.566726zM607.194753 953.168754H368.566726c-14.532618 0-26.500656-11.845915-26.500656-26.378533 0-14.654741 11.845915-26.500656 26.500656-26.500656h238.628027c14.532618 0 26.500656 11.845915 26.500655 26.500656 0 14.532618-11.968038 26.378533-26.500655 26.378533z m-238.628027-37.369589c-6.106142 0-10.991055 5.007036-10.991055 10.991056 0 6.106142 4.884914 10.991055 10.991055 10.991055h238.628027c6.106142 0 10.991055-4.884914 10.991055-10.991055s-4.884914-10.991055-10.991055-10.991056H368.566726zM527.93703 813.704472h-78.891353c-49.948241 0-90.493023-40.544782-90.493023-90.493023v-40.911151c0-2.442457 0.122123-4.762791 0.366368-7.449493-132.136911-52.757066-220.431723-182.207275-220.431723-324.84675 0-192.954085 157.04997-350.004055 350.004055-350.004055 192.954085 0 350.004055 157.04997 350.004054 350.004055 0 142.517352-88.294812 271.967561-220.431723 324.84675 0.244246 2.56458 0.366369 5.007036 0.366369 7.449493V723.211449c0 49.948241-40.666905 90.493023-90.493024 90.493023zM488.491354 20.760883c-181.596661 0-329.365295 147.768634-329.365296 329.365295 0 136.777579 86.340847 260.73226 214.814073 308.48229l8.060108 2.930948-1.465475 8.426475c-0.732737 4.030054-1.221228 8.060107-1.221228 12.334407V723.211449c0 38.590817 31.385569 69.854264 69.854264 69.854264h78.891353c38.590817 0 69.854264-31.385569 69.854264-69.854264v-40.911151c0-4.274299-0.488491-8.304353-1.221229-12.334407l-1.465474-8.426475 8.060108-2.930948C731.515802 610.858438 817.856649 486.903757 817.856649 350.126178c0-181.596661-147.768634-329.365295-329.365295-329.365295z" fill="#070606" p-id="4075"></path><path d="M815.414192 342.92093c0-203.334526-138.487299-321.671556-309.215027-321.671556-170.727728 0-309.215027 144.104949-309.215027 321.671556 0 138.243053 84.020513 255.847346 201.624807 301.399165-0.732737 4.274299-1.343351 8.670722-1.343352 13.31139V696.344425c0 42.010256 18.806917 98.919499 59.107454 98.919499H532.455575c40.300537 0 67.411807-31.751938 67.411807-73.640072l0.610614-56.542874c0.976983-7.693739 5.129159-13.433512 5.12916-13.433512 117.726416-45.551819 209.807036-170.483482 209.807036-308.726536z" fill="#EA802E" p-id="4076"></path><path d="M626.00167 859.012045c0 10.380441-7.815862 18.684794-17.341443 18.684795H367.223375c-9.647704 0-17.341443-8.426476-17.341443-18.684795 0-10.380441 7.815862-18.806917 17.341443-18.806917h241.436852c9.525581 0.122123 17.341443 8.548599 17.341443 18.806917zM626.00167 926.790221c0 10.380441-8.304353 18.684794-18.562672 18.684794H370.642815c-10.258318 0-18.562671-8.426476-18.562672-18.684794 0-10.380441 8.304353-18.806917 18.562672-18.806917h236.67406c10.258318 0 18.684794 8.426476 18.684795 18.806917z" fill="#EEBF2F" p-id="4077"></path><path d="M750.078473 134.457245c6.594633 32.240429 10.014073 65.702087 10.014073 99.896482 0 139.83065-69.976386 318.252117-161.568515 406.302683 13.677758 18.684794 13.677758 18.684794 47.383661-1.221228C746.170543 585.212642 819.444246 468.829577 819.444246 345.974001c0.122123-87.317829-25.890042-158.637567-69.365773-211.516756z" fill="#D25E14" p-id="4078"></path></svg>