<?xml version="1.0" standalone="no"?><!DOCTYPE svg PUBLIC "-//W3C//DTD SVG 1.1//EN" "http://www.w3.org/Graphics/SVG/1.1/DTD/svg11.dtd"><svg t="1531985221259" class="icon" style="" viewBox="0 0 1293 1024" version="1.1" xmlns="http://www.w3.org/2000/svg" p-id="1478" xmlns:xlink="http://www.w3.org/1999/xlink" width="252.5390625" height="200"><defs><style type="text/css"></style></defs><path d="M1016.802122 765.28382c0-1.222281 0.135809-2.444562 0.135809-3.666844h-0.135809V254.370292C1016.802122 122.092308 931.106631 14.938992 825.583024 14.938992H312.76817C207.108753 14.938992 121.413263 122.092308 121.413263 254.370292l0.135809 507.246684h-0.271618c0 2.037135 0.271618 4.074271 0.271618 5.975597v1.765517h0.135809c3.802653 112.585676 87.732626 202.491247 191.083289 202.491247H825.718833c94.930504 0 177.774005-67.089655 191.354907-168.131565l-0.135809-7.741114v-30.692838z" fill="#96C85C" p-id="1479"></path><path d="M1029.703979 248.937931C1029.703979 111.635013 933.822812 0 815.940584 0H270.531565C152.649337 0 56.76817 111.635013 56.76817 248.937931v539.840849h0.407427c6.92626 107.153316 99.955438 192.441379 213.355968 192.441379h545.409019c113.400531 0 206.429708-85.152255 213.355968-192.441379h0.407427V248.937931zM815.940584 960.441379H270.531565C164.057294 960.441379 77.411141 877.733687 77.411141 776.012732V248.937931c0-125.89496 86.646154-228.29496 193.120424-228.29496h545.409019c106.474271 0 193.120424 102.4 193.120424 228.29496v527.074801c0 101.720955-86.646154 184.428647-193.120424 184.428647z" fill="#070606" p-id="1480"></path><path d="M288.865782 980.541114h119.783555v43.458886h-119.783555zM681.218037 980.541114h119.783555v43.458886h-119.783555z" fill="#040506" p-id="1481"></path><path d="M398.192042 814.98992c-34.6313 0-62.879576-28.248276-62.879575-62.879575v-11.407958c0-34.6313 28.248276-62.743767 62.879575-62.743766 34.6313 0 62.879576 28.112467 62.879576 62.743766v11.407958c0 34.6313-28.112467 62.879576-62.879576 62.879575z m0-121.549071c-26.075332 0-47.397347 21.186207-47.397347 47.261538v11.407958c0 26.075332 21.186207 47.397347 47.397347 47.397347s47.397347-21.186207 47.397348-47.397347v-11.407958c0-26.075332-21.186207-47.261538-47.397348-47.261538zM715.034483 814.98992c-34.6313 0-62.879576-28.248276-62.879576-62.879575v-11.407958c0-34.6313 28.248276-62.743767 62.879576-62.743766 34.6313 0 62.879576 28.112467 62.879575 62.743766v11.407958c0 34.6313-28.248276 62.879576-62.879575 62.879575z m0-121.549071c-26.075332 0-47.397347 21.186207-47.397348 47.261538v11.407958c0 26.075332 21.186207 47.397347 47.397348 47.397347s47.397347-21.186207 47.397347-47.397347v-11.407958c0-26.075332-21.322016-47.261538-47.397347-47.261538zM841.880106 529.247745H258.037135c-49.84191 0-90.312997-40.471088-90.312997-90.312997V236.171883c0-49.84191 40.471088-90.312997 90.312997-90.312997h583.97878c49.84191 0 90.312997 40.471088 90.312997 90.312997v202.762865c-0.135809 49.706101-40.606897 90.312997-90.448806 90.312997zM258.037135 161.341114c-41.285942 0-74.830769 33.544828-74.830769 74.830769v202.762865c0 41.285942 33.544828 74.830769 74.830769 74.830769h583.97878c41.285942 0 74.830769-33.544828 74.830769-74.830769V236.171883c0-41.285942-33.544828-74.830769-74.830769-74.830769H258.037135z" fill="#070606" p-id="1482"></path><path d="M453.330504 752.110345c0 30.42122-24.717241 55.138462-55.138462 55.138461-30.42122 0-55.138462-24.717241-55.138461-55.138461v-11.407958c0-30.42122 24.717241-55.002653 55.138461-55.002652 30.42122 0 55.138462 24.581432 55.138462 55.002652v11.407958zM770.037135 752.110345c0 30.42122-24.717241 55.138462-55.138461 55.138461-30.42122 0-55.138462-24.717241-55.138462-55.138461v-11.407958c0-30.42122 24.717241-55.002653 55.138462-55.002652 30.42122 0 55.138462 24.581432 55.138461 55.002652v11.407958z" fill="#EEBF2F" p-id="1483"></path></svg>