<?xml version="1.0" standalone="no"?><!DOCTYPE svg PUBLIC "-//W3C//DTD SVG 1.1//EN" "http://www.w3.org/Graphics/SVG/1.1/DTD/svg11.dtd"><svg t="1531985275954" class="icon" style="" viewBox="0 0 1619 1024" version="1.1" xmlns="http://www.w3.org/2000/svg" p-id="3719" xmlns:xlink="http://www.w3.org/1999/xlink" width="316.2109375" height="200"><defs><style type="text/css"></style></defs><path d="M1173.279791 96.644183H630.894431l0.267713 3.480261c-8.700654-3.614118-18.739869-4.417255-30.251503-2.141699 0 0 25.968105 35.204183 37.613594 86.203399l5.220392 59.432157c-2.409412 40.558431-18.070588 85.266405-59.2983 127.966536-4.149542 7.495948-64.117124 56.888889-98.785883 59.967581-31.322353 2.81098 54.479477 13.921046 169.729674 80.046013 0 0 10.708497 18.739869 12.448627 7.228236l16.999739 193.957647 488.307451-4.818824c56.621176 0 102.4-42.967843 102.4-95.974902V192.619085c0.133856-53.007059-45.644967-95.974902-102.266144-95.974902z" fill="#C0435E" p-id="3720"></path><path d="M96.406588 822.144837c0-204.130719 157.14719-386.576732 349.23085-369.576994 211.760523 18.739869 349.23085 165.446275 349.23085 369.576994" fill="#C0435E" p-id="3721"></path><path d="M1126.831686 223.004444c8.968366 9.503791 5.889673 26.771242-6.558954 38.550589L785.498353 574.109281c-12.582484 11.779346-29.983791 13.519477-38.818301 4.015686-8.968366-9.503791-5.889673-26.771242 6.558955-38.550588L1088.013386 227.020131c12.582484-11.779346 29.983791-13.519477 38.8183-4.015687z" fill="#EEBF2F" p-id="3722"></path><path d="M1267.782275 159.556601c0.267712 6.157386 0.535425 12.180915 0.535424 18.338301 0 262.625882-220.461176 482.819346-473.181699 518.69281l7.228235 23.558693 374.128105-8.566797c58.495163 0 105.746405-42.164706 105.746405-94.234771V206.138562c-0.133856-16.999739-5.621961-32.794771-14.45647-46.581961z" fill="#A01E3E" p-id="3723"></path><path d="M1174.082928 75.22719H590.871425C550.44685 29.180654 491.148549 0 425.291294 0 303.749856 0 204.830118 98.919739 204.830118 220.461176c0 100.392157 67.463529 185.39085 159.556601 211.760523C173.909333 459.929935 27.202928 624.305359 27.202928 822.144837h23.023268C50.360052 617.612549 216.74332 451.095425 421.409464 451.095425c165.446275 0 305.995294 108.825098 353.648105 258.744052l6.558954 23.023268c7.094379 28.645229 10.842353 58.495163 10.842353 89.282092H815.482144c0-30.786928-3.614118-60.770719-10.306928-89.549804l368.773856-3.480262c68.13281 0 123.415425-49.660654 123.415425-110.565229V185.926275c0.267712-61.038431-55.148758-110.699085-123.281569-110.699085zM227.853386 220.461176c0-108.825098 88.478954-197.304052 197.304052-197.304052S622.595346 111.636078 622.595346 220.461176s-88.478954 197.304052-197.304052 197.304053S227.853386 329.286275 227.853386 220.461176zM743.467503 546.133333l344.010458-321.121045c5.086536-4.684967 11.377778-6.960523 17.802876-6.960523 6.960523 0 14.054902 2.81098 19.141438 8.299085 9.771503 10.574641 9.236078 27.17281-1.338563 37.07817l-344.010457 321.121045c-5.086536 4.818824-11.779346 6.826667-18.873726 6.960523-6.960523-0.267712-13.519477-3.212549-18.204444-8.299085-9.637647-10.574641-9.102222-27.17281 1.472418-37.07817z m531.007582 72.550066c0 48.322092-44.975686 87.541961-100.526013 87.54196l-374.797386 3.480262c-11.779346-39.487582-29.582222-76.298039-52.337778-109.494379 4.149542 1.740131 8.566797 2.677124 13.117909 2.81098h1.338562c9.637647 0 18.739869-3.614118 25.700392-10.173072L1131.115085 271.728105c15.125752-14.188758 16.062745-38.14902 1.873987-53.274772-14.188758-15.125752-38.14902-16.062745-53.274771-1.873987L735.569987 537.700392c-9.102222 8.566797-12.984052 20.613856-11.64549 32.12549-59.833725-71.613072-144.43085-121.675294-240.539608-136.934902C576.816523 407.324444 645.618614 321.656471 645.618614 220.32732c0-45.109542-13.653333-87.140392-36.944313-122.076862H1174.216784c55.416471 0 100.392157 39.219869 100.392157 87.54196v432.890981z" fill="#070606" p-id="3724"></path></svg>