<?xml version="1.0" standalone="no"?><!DOCTYPE svg PUBLIC "-//W3C//DTD SVG 1.1//EN" "http://www.w3.org/Graphics/SVG/1.1/DTD/svg11.dtd"><svg t="1531985217548" class="icon" style="" viewBox="0 0 1472 1024" version="1.1" xmlns="http://www.w3.org/2000/svg" p-id="1359" xmlns:xlink="http://www.w3.org/1999/xlink" width="287.5" height="200"><defs><style type="text/css"></style></defs><path d="M1049.433924 687.359235c0 48.47627-36.724447 87.771429-82.140347 87.771428H178.574868C133.158969 775.130663 96.434522 735.71309 96.434522 687.359235V109.928512c0-48.47627 36.846862-87.771429 82.140346-87.771429h788.718709c45.4159 0 82.140347 39.295158 82.140347 87.771429v577.430723z" fill="#5ABFC6" p-id="1360"></path><path d="M839.002842 975.646145c0 17.994979-17.138075 32.439928-38.193425 32.439928H284.70852c-21.05535 0-38.193425-14.444949-38.193425-32.439928 0-17.872564 17.138075-32.439928 38.193425-32.439929h516.100897c21.05535 0 38.193425 14.567364 38.193425 32.439929z" fill="#EEBF2F" p-id="1361"></path><path d="M296.582758 471.78673c-43.334848 0-78.590317-35.255469-78.590316-78.590316s35.255469-78.590317 78.590316-78.590317 78.590317 35.255469 78.590317 78.590317-35.255469 78.590317-78.590317 78.590316z m0-140.164973c-33.908906 0-61.574656 27.66575-61.574656 61.574657s27.66575 61.574656 61.574656 61.574656 61.574656-27.66575 61.574657-61.574656-27.66575-61.574656-61.574657-61.574657zM539.576183 471.78673c-43.334848 0-78.590317-35.255469-78.590316-78.590316s35.255469-78.590317 78.590316-78.590317 78.590317 35.255469 78.590317 78.590317-35.255469 78.590317-78.590317 78.590316z m0-140.164973c-33.908906 0-61.574656 27.66575-61.574656 61.574657s27.66575 61.574656 61.574656 61.574656 61.574656-27.66575 61.574657-61.574656-27.543335-61.574656-61.574657-61.574657zM782.569608 471.78673c-43.334848 0-78.590317-35.255469-78.590317-78.590316s35.255469-78.590317 78.590317-78.590317 78.590317 35.255469 78.590317 78.590317-35.255469 78.590317-78.590317 78.590316z m0-140.164973c-33.908906 0-61.574656 27.66575-61.574656 61.574657s27.66575 61.574656 61.574656 61.574656 61.574656-27.66575 61.574657-61.574656-27.543335-61.574656-61.574657-61.574657z" fill="#070606" p-id="1362"></path><path d="M604.700869 393.196414c0 35.989958-29.134728 65.124686-65.124686 65.124686-35.989958 0-65.124686-29.134728-65.124686-65.124686 0-35.989958 29.134728-65.124686 65.124686-65.124687 35.989958 0 65.124686 29.134728 65.124686 65.124687zM847.694294 393.196414c0 35.989958-29.134728 65.124686-65.124686 65.124686-35.989958 0-65.124686-29.134728-65.124686-65.124686 0-35.989958 29.134728-65.124686 65.124686-65.124687 35.989958 0 65.124686 29.134728 65.124686 65.124687zM361.707445 393.196414c0 35.989958-29.134728 65.124686-65.124687 65.124686-35.989958 0-65.124686-29.134728-65.124686-65.124686 0-35.989958 29.134728-65.124686 65.124686-65.124687 35.989958 0 65.124686 29.134728 65.124687 65.124687z" fill="#EEBF2F" p-id="1363"></path><path d="M970.966022 0H115.531234c-55.3315 0-100.380155 45.048655-100.380155 100.380155v585.632517c0 55.3315 45.048655 100.380155 100.380155 100.380155h391.727436c-6.85523 8.201793-11.139749 18.851883-11.139749 30.481291v72.469576c0 12.975971 5.263837 24.727794 13.71046 33.296832H278.09812c-27.91058 0-50.679737 22.769157-50.679737 50.679737s22.769157 50.679737 50.679737 50.679737H810.112944c27.91058 0 50.679737-22.769157 50.679737-50.679737s-22.769157-50.679737-50.679737-50.679737H577.279949c8.446623-8.569038 13.71046-20.320861 13.71046-33.296832v-72.469576c0-11.629408-4.162104-22.157083-11.139749-30.481291h391.115362c55.3315 0 100.380155-45.048655 100.380155-100.380155V100.380155c0-55.3315-45.048655-100.380155-100.380155-100.380155zM838.145938 973.320263c0 15.424268-12.608727 28.032995-28.032994 28.032995H278.09812c-15.424268 0-28.032995-12.608727-28.032995-28.032995s12.608727-28.032995 28.032995-28.032995H810.112944c15.424268-0.122415 28.032995 12.486312 28.032994 28.032995zM518.765663 889.343694v-72.469576c0-13.71046 11.139749-24.727794 24.727795-24.727794s24.727794 11.139749 24.727794 24.727794v72.469576c0 13.71046-11.139749 24.727794-24.727794 24.727794s-24.727794-11.139749-24.727795-24.727794z m529.933772-203.331022c0 42.845188-34.888225 77.733413-77.733413 77.733413H115.531234c-42.845188 0-77.733413-34.888225-77.733413-77.733413V100.380155c0-42.845188 34.888225-77.733413 77.733413-77.733413h855.434788c42.845188 0 77.733413 34.888225 77.733413 77.733413v585.632517z" fill="#070606" p-id="1364"></path><path d="M634.692501 762.889181c-0.367244 0.122415 0 0 0 0l336.151106 1.836222c42.355529-2.570711 82.140347-37.091692 82.140347-82.75242V259.764256c0 253.5211-176.522176 462.360789-418.291453 503.124925z" fill="#2BA5A5" p-id="1365"></path></svg>