<?xml version="1.0" standalone="no"?><!DOCTYPE svg PUBLIC "-//W3C//DTD SVG 1.1//EN" "http://www.w3.org/Graphics/SVG/1.1/DTD/svg11.dtd"><svg t="1531985262866" class="icon" style="" viewBox="0 0 1203 1024" version="1.1" xmlns="http://www.w3.org/2000/svg" p-id="3133" xmlns:xlink="http://www.w3.org/1999/xlink" width="234.9609375" height="200"><defs><style type="text/css"></style></defs><path d="M865.049941 102.683357l-14.032943-4.45276V18.215839h0.269865v-18.215839H239.369614V108.620372l-0.539729-13.763079-26.041902 7.826064c-60.719462 11.469232-100.794308 70.434576-89.460008 131.154039l28.470681 150.719199c9.715114 50.869416 52.758466 87.166162 102.143629 90.944262v-1.21439c34.947424 122.923178 129.399921 215.891422 244.901831 235.726446v154.497299H321.408354c-43.987877 0-79.744894 35.757017-79.744894 79.744894s35.757017 79.744894 79.744894 79.744894h456.610357c43.987877 0 79.744894-35.757017 79.744894-79.744894s-35.757017-79.744894-79.744894-79.744894H600.582949V708.52866c111.453947-23.073396 201.858479-114.557386 235.861378-234.242193 42.233759-7.826064 77.720912-42.503624 86.221637-89.59494l26.851495-150.719199c10.794571-60.719462-27.12136-119.819739-84.467518-131.288971zM209.819476 440.4185c-20.509685-14.032942-34.407695-35.082356-38.995389-59.370141L142.218474 230.329161c-4.587693-24.287785 0.674661-48.980366 14.572671-69.490052 14.032942-20.509685 35.082356-34.407695 59.370141-39.13032l23.073396-4.317828V369.039399c0 29.820003 3.373303 58.69548 9.715114 86.221637-13.763078-1.88905-27.256292-6.746607-39.13032-14.842536z m628.783766 503.971538c0 33.46317-27.256292 60.719462-60.719463 60.719463H321.408354c-33.46317 0-60.719462-27.256292-60.719462-60.719463s27.256292-60.58453 60.719462-60.58453h456.610357c33.46317-0.134932 60.58453 27.12136 60.584531 60.58453zM517.869548 854.795098V714.19581H581.557517V854.795098h-63.687969z m314.122019-485.755699c0 179.864541-128.590328 326.130979-286.865727 326.130979S258.395045 548.90394 258.395045 369.039399V18.215839h573.596522v350.82356z m99.71485-138.710238l-26.986428 150.719198c-4.317828 24.287785-17.406246 45.337199-36.836473 59.370141-8.095928 5.802082-16.866517 9.984978-26.041903 12.548689 5.937014-26.851496 9.175385-55.052313 9.175385-83.92779V119.549875l10.794571 2.158914c22.938464 4.587693 42.773488 18.485703 55.996838 39.13032 13.22335 20.509685 18.215839 45.202266 13.89801 69.490052z" fill="#070606" p-id="3134"></path><path d="M839.817631 18.215839v349.204374c-17.541178 181.888523-120.764264 326.80564-269.864277 326.80564S291.048623 547.01489 291.048623 366.475688L300.089076 18.215839" fill="#C0435E" p-id="3135"></path><path d="M838.603242 944.390038c0 28.470681-15.652128 51.544077-48.305706 60.044802H362.15786c-57.211227 8.095928-75.022269-21.589142-75.022269-50.059824v-6.34181c0-28.470681 7.151403-51.544077 72.998287-50.734484h427.060219c28.335749 0.134932 51.409145 18.620635 51.409145 47.091316z" fill="#F0AF28" p-id="3136"></path><path d="M652.261958 19.160364c76.506523 77.720912 123.732771 184.317301 123.732771 301.978126 0 159.489788-86.761365 298.604823-215.621557 372.952431 3.7781 0.134932 7.421268 0.674661 11.199367 0.674661 149.100013 0 252.188167-144.782185 269.864277-326.670708V19.160364H652.261958z" fill="#AC1F44" p-id="3137"></path></svg>