<?xml version="1.0" standalone="no"?><!DOCTYPE svg PUBLIC "-//W3C//DTD SVG 1.1//EN" "http://www.w3.org/Graphics/SVG/1.1/DTD/svg11.dtd"><svg t="1531985270154" class="icon" style="" viewBox="0 0 1252 1024" version="1.1" xmlns="http://www.w3.org/2000/svg" p-id="3484" xmlns:xlink="http://www.w3.org/1999/xlink" width="244.53125" height="200"><defs><style type="text/css"></style></defs><path d="M898.582298 353.491111c-2.081185-107.609515-44.194579-207.751248-119.117245-284.020563l21.546388-19.220357c11.752575-10.528348 12.854379-28.769324 2.32603-40.644322-5.141752-5.753865-12.242266-9.059277-19.83247-9.548967-7.712627-0.489691-15.057987 2.203608-20.689429 7.222937l-75.779624 67.699729c-5.753865 5.141752-9.181699 12.119843-9.548968 19.83247-0.122423 2.693298 0.122423 5.264174 0.612114 7.83505-55.824731-44.68427-126.585027-71.494831-203.588878-71.494831-179.838882 0-326.133957 146.295074-326.133956 326.133956 0 55.947154 14.201028 108.711319 39.17525 154.864661-7.222937-0.367268-14.323451 2.32603-19.710048 7.100514l-76.51416 66.84277c-11.99742 10.405926-13.221647 28.646902-2.693299 40.644322 5.631442 6.488401 13.588915 9.793813 21.66881 9.793813 6.733246 0 13.466492-2.32603 18.853089-7.100515l19.465203-17.016749C224.033461 712.43434 339.967717 772.911132 464.716404 778.052883c-1.101804 3.305412-1.713917 6.978091-1.713918 10.895617V892.395644c0 8.936854 3.182989 16.771904 8.202318 22.158501h-117.280904c-27.66752 0-50.193289 22.525769-50.19329 50.193289v9.059277c0 27.66752 22.525769 50.193289 50.19329 50.193289h297.976745c27.66752 0 50.193289-22.525769 50.193289-50.193289v-9.059277c0-27.66752-22.525769-50.193289-50.193289-50.193289h-117.403327c5.141752-5.50902 8.324741-13.34407 8.32474-22.158501v-103.569567c0-5.264174-1.224227-10.283503-3.182989-14.568296C745.553977 745.488457 902.622245 566.38411 898.582298 353.491111zM682.751155 964.869857v9.059277c0 17.016749-13.83376 30.728087-30.728087 30.728086H353.9239c-17.016749 0-30.850509-13.83376-30.85051-30.728086v-9.059277c0-17.016749 13.83376-30.728087 30.85051-30.728087h297.976745c17.016749 0 30.850509 13.711338 30.85051 30.728087z m14.078605-868.956015c0.122423-2.448453 1.224227-4.774484 3.060567-6.365978l75.779624-67.699729c1.713917-1.469072 3.917525-2.32603 6.121133-2.326031h0.48969c2.448453 0.122423 4.774484 1.224227 6.488401 3.060567 3.427834 3.917525 3.060566 9.67139-0.734536 13.221647l-22.525769 20.077315-0.367268-0.367268-4.039947 4.284793-48.84664 43.582466c-1.83634 1.713917-4.284793 2.203608-6.733246 2.326031-2.448453-0.122423-4.774484-1.224227-6.365978-3.060567-1.591495-1.83634-2.448453-4.16237-2.326031-6.733246zM167.841462 357.286213c0-169.065688 137.603066-306.668754 306.668754-306.668754 169.188111 0 306.668754 137.603066 306.668754 306.668754 0 169.188111-137.603066 306.791177-306.668754 306.791177S167.841462 526.474324 167.841462 357.286213zM116.301524 614.74106c-3.795102 3.305412-9.793813 2.938144-13.099225-0.856959-3.427834-3.917525-3.060566-9.793813 0.856959-13.221647l76.51416-66.84277c1.713917-1.469072 3.795102-2.32603 5.99871-2.326031h0.612114c2.448453 0.122423 4.774484 1.224227 6.365978 3.182989 1.591495 1.83634 2.448453 4.284793 2.32603 6.733247-0.122423 2.448453-1.224227 4.652061-3.182989 6.365978L116.301524 614.74106z m372.164875 163.679091h29.01417c2.448453 0 5.99871 4.16237 5.99871 10.528349V892.395644c0 6.365978-3.550257 10.528348-5.99871 10.528349H488.466399c-2.815721 0-5.99871-4.529638-5.99871-10.528349v-103.569567c0-5.876288 3.182989-10.405926 5.99871-10.405926z m0.612113-19.587625c-128.298944 2.448453-249.130106-56.926535-325.889111-159.271876l42.358239-36.971642c3.305412-2.938144 5.876288-6.365978 7.467782-10.283503 59.497411 79.697149 154.497392 131.237088 261.372371 131.237088 179.838882 0 326.133957-146.295074 326.133957-326.25638 0-90.837611-37.33891-172.983213-97.326012-232.235779 0.367268 0 0.734536 0.122423 1.224227 0.122423h1.591494c7.100514 0 13.83376-2.570876 19.097935-7.34536l39.66494-35.50257C836.881279 155.28883 877.280756 250.900925 879.117095 353.858379c4.16237 219.136555-170.779606 400.811777-390.038583 404.974147z" fill="#070606" p-id="3485"></path><path d="M784.606805 362.427965c0 167.963885-133.930386 303.975456-299.200972 303.975456-165.148163 0-294.181643-135.03219-294.181644-302.996075 0-167.841462 134.909767-278.021853 300.425199-300.792467C655.32848 40.089111 784.606805 194.586503 784.606805 362.427965z" fill="#5ABFC6" p-id="3486"></path><path d="M683.852959 980.172689c0 15.6701-16.771904 28.524479-37.461333 28.524479H371.185494c-20.689429 0-37.461333-12.854379-37.461333-28.524479v-6.365978c0-15.792523 16.771904-28.524479 37.461333-28.524479H646.391626c20.689429 0 37.461333 12.731956 37.461333 28.524479v6.365978z" fill="#EEBF2F" p-id="3487"></path><path d="M660.102963 106.074922c21.17912 52.51932 29.748705 115.19972 29.748706 175.431667 0 162.454865-84.594056 304.832414-211.423928 384.407141 3.427834 0.122423 6.855669 0.489691 10.405926 0.489691 165.393009 0 299.445818-136.011571 299.445817-303.975456 0-104.426526-49.091485-201.630115-128.176521-256.353043z" fill="#2BA5A5" p-id="3488"></path></svg>