<?xml version="1.0" standalone="no"?><!DOCTYPE svg PUBLIC "-//W3C//DTD SVG 1.1//EN" "http://www.w3.org/Graphics/SVG/1.1/DTD/svg11.dtd"><svg t="1531985229847" class="icon" style="" viewBox="0 0 1374 1024" version="1.1" xmlns="http://www.w3.org/2000/svg" p-id="1831" xmlns:xlink="http://www.w3.org/1999/xlink" width="268.359375" height="200"><defs><style type="text/css"></style></defs><path d="M1040.53306 948.289083c0 39.626858-30.179395 71.774475-67.313173 71.774474H159.425935c-37.264992 0-67.313173-32.147617-67.313172-71.774474v-867.329575c0-39.626858 30.179395-71.774475 67.313172-71.774475h813.793952c37.264992 0 67.313173 32.147617 67.313173 71.774475v867.329575z" fill="#E35F3D" p-id="1832"></path><path d="M976.500256 1024H113.631984c-44.481804 0-80.565864-36.084059-80.565864-80.565864V80.565864c0-44.481804 36.215274-80.565864 80.565864-80.565864h862.868272c44.481804 0 80.565864 36.084059 80.565864 80.565864v862.868272c0 44.481804-36.215274 80.565864-80.565864 80.565864zM113.631984 18.370067c-34.378268 0-62.195797 27.948744-62.195797 62.195797v862.868272c0 34.247053 27.948744 62.195797 62.195797 62.195797h862.868272c34.378268 0 62.195797-27.948744 62.195797-62.195797V80.565864c0-34.378268-27.948744-62.195797-62.195797-62.195797H113.631984z" fill="#070606" p-id="1833"></path><path d="M843.317273 326.987186H647.01999c-19.28857 0-35.034341-15.745771-35.034342-35.034341s15.745771-35.034341 35.034342-35.034342h196.297283c19.28857 0 35.034341 15.745771 35.034342 35.034342 0 19.419785-15.745771 35.034341-35.034342 35.034341z m-196.297283-60.883649c-14.302409 0-25.849308 11.546899-25.849308 25.849308s11.546899 25.849308 25.849308 25.849308h196.297283c14.302409 0 25.849308-11.546899 25.849308-25.849308s-11.546899-25.849308-25.849308-25.849308H647.01999zM843.317273 433.533573H647.01999c-19.28857 0-35.034341-15.745771-35.034342-35.034342s15.745771-35.034341 35.034342-35.034341h196.297283c19.28857 0 35.034341 15.745771 35.034342 35.034341 0 19.419785-15.745771 35.034341-35.034342 35.034342z m-196.297283-60.88365c-14.302409 0-25.849308 11.546899-25.849308 25.849308s11.546899 25.849308 25.849308 25.849308h196.297283c14.302409 0 25.849308-11.546899 25.849308-25.849308s-11.546899-25.849308-25.849308-25.849308H647.01999zM838.199897 728.635572H641.902614c-19.28857 0-35.034341-15.745771-35.034341-35.034342s15.745771-35.034341 35.034341-35.034341h196.297283c19.28857 0 35.034341 15.745771 35.034342 35.034341s-15.745771 35.034341-35.034342 35.034342z m-196.297283-61.014865c-14.302409 0-25.849308 11.546899-25.849308 25.849308s11.546899 25.849308 25.849308 25.849308h196.297283c14.302409 0 25.849308-11.546899 25.849309-25.849308s-11.546899-25.849308-25.849309-25.849308H641.902614z" fill="#070606" p-id="1834"></path><path d="M865.754997 696.094311c0 14.433624-12.859047 26.242952-28.604818 26.242952H653.055869c-15.745771 0-28.604818-11.809329-28.604818-26.242952s12.859047-26.242952 28.604818-26.242953h184.225525c15.745771 0 28.473603 11.809329 28.473603 26.242953z" fill="#EEBF2F" p-id="1835"></path><path d="M427.760123 803.427986c-8.791389 0-17.582778-3.280369-24.405946-9.841107l-48.024602-46.581241-46.974885 42.776012c-6.954382 6.298309-15.876986 9.316248-25.324449 9.185034-9.316248-0.393644-17.976422-4.461302-24.274731-11.415685a34.247053 34.247053 0 0 1-9.053819-25.193234c0.393644-9.316248 4.461302-17.976422 11.415685-24.274731l43.82573-39.889287-42.513583-41.33265c-6.691953-6.560738-10.497181-15.220912-10.628395-24.668375-0.131215-9.316248 3.411584-18.238852 9.841107-24.930805 13.51512-13.908765 35.690415-14.171194 49.59918-0.656074l45.531522 44.219375 49.33675-45.006663c14.302409-12.990261 36.477704-11.940543 49.467965 2.361865 6.298309 6.954382 9.578678 15.876986 9.053819 25.193235-0.393644 9.316248-4.461302 17.976422-11.415684 24.27473l-46.187596 42.119939 44.875448 43.563301c13.908765 13.383906 14.171194 35.690415 0.787289 49.59918-6.560738 6.954382-15.745771 10.497181-24.930805 10.497181z m-72.168119-69.018965l54.191697 52.617119c10.234751 9.972322 26.636597 9.709892 36.608918-0.524859 9.972322-10.234751 9.709892-26.636597-0.524859-36.608918l-51.961045-50.386469 53.404408-48.680676c5.117376-4.723731 8.135315-11.02204 8.397744-17.976423 0.26243-6.954382-2.099436-13.51512-6.691953-18.632496-9.578678-10.628396-25.980523-11.28447-36.608918-1.705792l-55.766274 50.780113-51.698616-50.255254c-10.234751-9.972322-26.636597-9.709892-36.608918 0.52486-4.854946 4.986161-7.348027 11.546899-7.348027 18.370066 0.131215 6.954382 2.886725 13.383906 7.872886 18.107637l49.467965 48.024603-51.042542 46.450026c-5.117376 4.592517-8.135315 11.02204-8.397745 17.976422-0.26243 6.954382 2.099436 13.51512 6.691953 18.632496 4.592517 5.117376 11.02204 8.135315 17.845207 8.397745 7.085597 0.26243 13.51512-2.099436 18.632496-6.691953l53.535623-48.418247zM357.297796 462.269605c-19.28857 0-35.034341-15.745771-35.034341-35.034341v-63.1143h-63.114301c-19.28857 0-35.034341-15.745771-35.034341-35.034342s15.745771-35.034341 35.034341-35.034341h63.114301V230.937981c0-19.28857 15.745771-35.034341 35.034341-35.034342s35.034341 15.745771 35.034341 35.034342v63.1143h63.114301c19.28857 0 35.034341 15.745771 35.034341 35.034341s-15.745771 35.034341-35.034341 35.034342H392.332137v63.1143c0 19.419785-15.614557 35.034341-35.034341 35.034341z m-98.148642-159.032291c-14.302409 0-25.849308 11.546899-25.849308 25.849308s11.546899 25.849308 25.849308 25.849308h72.299334v72.299334c0 14.302409 11.546899 25.849308 25.849308 25.849308 14.302409 0 25.849308-11.546899 25.849308-25.849308v-72.299334h72.299334c14.302409 0 25.849308-11.546899 25.849308-25.849308s-11.546899-25.849308-25.849308-25.849308H383.147104V230.937981c0-14.302409-11.546899-25.849308-25.849308-25.849309-14.302409 0-25.849308 11.546899-25.849308 25.849309v72.299333h-72.299334zM740.051256 650.169144c-16.139416 0-29.260892-13.121476-29.260892-29.260892s13.121476-29.260892 29.260892-29.260892 29.260892 13.121476 29.260892 29.260892c-0.131215 16.139416-13.252691 29.260892-29.260892 29.260892z m0-49.33675c-11.02204 0-20.075859 9.053819-20.075859 20.075858s9.053819 20.075859 20.075859 20.075859 20.075859-9.053819 20.075858-20.075859-9.053819-20.075859-20.075858-20.075858zM740.051256 801.984623c-16.139416 0-29.260892-13.121476-29.260892-29.260892s13.121476-29.260892 29.260892-29.260891 29.260892 13.121476 29.260892 29.260891S756.059457 801.984623 740.051256 801.984623z m0-49.33675c-11.02204 0-20.075859 9.053819-20.075859 20.075858S728.898001 792.79959 740.051256 792.79959c11.02204 0 20.075859-9.053819 20.075858-20.075859s-9.053819-20.075859-20.075858-20.075858z" fill="#070606" p-id="1836"></path><path d="M437.076371 305.205536h-53.273193v-53.273194c0-13.252691-10.75961-23.881087-23.881087-23.881086-13.252691 0-23.881087 10.75961-23.881086 23.881086v53.273194h-53.273194c-13.252691 0-23.881087 10.75961-23.881086 23.881086 0 13.252691 10.75961 23.881087 23.881086 23.881087h53.273194v53.273193c0 13.252691 10.75961 24.012301 23.881086 24.012301 13.252691 0 23.881087-10.75961 23.881087-24.012301v-53.273193h53.273193c13.252691 0 23.881087-10.75961 23.881087-23.881087 0.131215-13.252691-10.628396-23.881087-23.881087-23.881086zM859.325474 291.952845c0 15.483342-12.071758 27.948744-26.767811 27.948744H659.747822c-14.827268 0-26.767811-12.465402-26.767812-27.948744s12.071758-27.948744 26.767812-27.948745h172.809841c14.696053 0 26.767811 12.596617 26.767811 27.948745zM859.325474 398.499231c0 15.483342-12.071758 27.948744-26.767811 27.948744H659.747822c-14.827268 0-26.767811-12.465402-26.767812-27.948744s12.071758-27.948744 26.767812-27.948744h172.809841c14.696053 0 26.767811 12.596617 26.767811 27.948744zM394.300359 699.637109l42.644797-38.839569c10.628396-9.709892 11.415684-26.242952 1.705792-36.871348-9.709892-10.628396-26.242952-11.415684-36.871348-1.705792L356.904152 663.29062l-41.726294-40.414146c-10.365966-9.972322-26.899026-9.709892-36.871349 0.524859-9.972322 10.365966-9.841107 26.899026 0.52486 36.871348l39.364428 38.183495-40.545361 37.002563c-10.628396 9.709892-11.415684 26.242952-1.705792 36.871348 9.709892 10.628396 26.242952 11.415684 36.871348 1.705792l42.907227-39.101999 43.694515 42.382368c10.365966 9.972322 26.899026 9.841107 36.871349-0.524859 9.972322-10.365966 9.709892-26.899026-0.52486-36.871348L394.300359 699.637109zM763.013839 620.908252c0 12.727832-10.234751 22.962583-22.962583 22.962583s-22.962583-10.234751-22.962584-22.962583 10.365966-22.962583 22.962584-22.962583 22.962583 10.234751 22.962583 22.962583z" fill="#EEBF2F" p-id="1837"></path><path d="M717.088672 772.723731a22.962583 22.962583 0 1 0 45.925167 0 22.962583 22.962583 0 1 0-45.925167 0Z" fill="#EEBF2F" p-id="1838"></path><path d="M1039.089698 434.583291c0 0.131215-7.610456 61.933368-7.610457 62.195797 0 280.405946-227.263967 507.801128-507.801127 507.801127h449.541773c37.133778 0 67.313173-30.31061 67.313173-67.706817l-1.574577-490.874423V434.583291z" fill="#BD3A1F" p-id="1839"></path></svg>