<?xml version="1.0" standalone="no"?><!DOCTYPE svg PUBLIC "-//W3C//DTD SVG 1.1//EN" "http://www.w3.org/Graphics/SVG/1.1/DTD/svg11.dtd"><svg t="1531985211796" class="icon" style="" viewBox="0 0 1196 1024" version="1.1" xmlns="http://www.w3.org/2000/svg" p-id="1119" xmlns:xlink="http://www.w3.org/1999/xlink" width="233.59375" height="200"><defs><style type="text/css"></style></defs><path d="M721.172954 514.793832c0 245.857177 311.208541 501.67497-96.083512 491.106998C301.247924 997.519336 176.618743 770.00427 176.618743 524.147094c0-245.857177 220.591222-494.143772 466.205456-504.347331 256.789561-10.689442 78.348754 249.136892 78.348755 494.994069z" fill="#F0AF28" p-id="1120"></path><path d="M573.464294 270.515777c-52.111032 0-94.382918-42.393357-94.382918-94.382918 0-52.111032 42.393357-94.382918 94.382918-94.382918 52.111032 0 94.382918 42.393357 94.382918 94.382918 0 51.989561-42.393357 94.382918-94.382918 94.382918z m0-175.282562c-44.579834 0-80.778173 36.31981-80.778173 80.778173 0 44.579834 36.198339 80.778173 80.778173 80.778173s80.778173-36.198339 80.778173-80.778173c0-44.458363-36.198339-80.778173-80.778173-80.778173zM331.8586 486.005219c-52.111032 0-94.382918-42.393357-94.382918-94.382918 0-51.989561 42.393357-94.382918 94.382918-94.382918s94.382918 42.393357 94.382918 94.382918c0 51.989561-42.393357 94.382918-94.382918 94.382918z m0-175.161091c-44.579834 0-80.778173 36.198339-80.778173 80.778173s36.198339 80.778173 80.778173 80.778173 80.778173-36.31981 80.778173-80.778173c0-44.579834-36.198339-80.778173-80.778173-80.778173zM356.152788 806.20261c-52.111032 0-94.382918-42.393357-94.382918-94.382918 0-52.111032 42.393357-94.382918 94.382918-94.382919 52.111032 0 94.382918 42.393357 94.382918 94.382919 0 51.989561-42.271886 94.382918-94.382918 94.382918z m0-175.282563c-44.579834 0-80.778173 36.31981-80.778174 80.778174 0 44.579834 36.198339 80.778173 80.778174 80.778173s80.778173-36.198339 80.778173-80.778173c0-44.458363-36.198339-80.778173-80.778173-80.778174z" fill="#070606" p-id="1121"></path><path d="M632.256228 1024C349.95777 1024 120.377699 794.298458 120.377699 512s229.701542-512 512-512c71.424911 0 116.247687 14.333571 140.784816 45.065718 37.777461 47.252195 20.164176 124.507711-1.943535 222.291815-16.762989 73.125504-35.590985 155.968683-35.590985 244.642467 0 95.111744 37.291578 183.056702 70.210202 260.798102 35.226572 83.086121 62.921945 148.680427 32.554211 194.596441-25.630368 38.627758-91.103203 56.605457-206.13618 56.605457z m0-1005.779359C360.039858 18.220641 138.476868 239.662159 138.476868 512s221.562989 493.779359 493.77936 493.779359c106.894425 0 169.330486-15.791222 190.952313-48.466903 25.023013-37.777461-1.093238-99.484698-34.133333-177.590511-33.525979-79.07758-71.546382-168.966074-71.546382-267.721945 0-90.617319 19.070937-174.553737 35.833926-248.651008 21.135943-93.046738 37.777461-166.415184 5.466192-206.865006-20.528588-25.751839-61.950178-38.263345-126.572716-38.263345z" fill="#070606" p-id="1122"></path><path d="M425.512693 711.698221c0 38.263345-31.09656 69.359905-69.359905 69.359905-38.384816 0-69.359905-31.09656-69.359905-69.359905 0-38.384816 31.09656-69.359905 69.359905-69.359905s69.359905 31.09656 69.359905 69.359905zM401.218505 391.622301c0 38.263345-31.09656 69.359905-69.359905 69.359905-38.384816 0-69.359905-31.09656-69.359905-69.359905 0-38.384816 31.09656-69.359905 69.359905-69.359905s69.359905 30.975089 69.359905 69.359905zM642.824199 176.011388c0 38.263345-31.09656 69.359905-69.359905 69.359905-38.384816 0.121471-69.359905-30.975089-69.359905-69.359905s31.09656-69.359905 69.359905-69.359905 69.359905 31.09656 69.359905 69.359905z" fill="#EEBF2F" p-id="1123"></path><path d="M726.396204 609.055279c9.839146 32.068327 16.277106 75.433452 17.856228 110.538553 4.980308 111.631791-47.009253 221.68446-112.360617 286.54994 2.186477 0 20.407117 1.943535 20.407117 1.943535 315.945907-1.700593 141.027758-184.271412 77.984342-389.678766l-3.88707-9.353262z" fill="#D78E14" p-id="1124"></path><path d="M661.04484 948.080664c-49.560142 0-89.888493-40.328351-89.888494-89.888493s40.328351-89.888493 89.888494-89.888494 89.888493 40.328351 89.888493 89.888494-40.328351 89.888493-89.888493 89.888493z m0-166.050771c-42.028944 0-76.283749 34.254804-76.283749 76.283749s34.254804 76.283749 76.283749 76.283748c42.028944 0 76.283749-34.254804 76.283748-76.283748s-34.254804-76.283749-76.283748-76.283749z" fill="#070606" p-id="1125"></path><path d="M730.404745 858.192171c0 38.263345-31.09656 69.359905-69.359905 69.359905-38.384816 0-69.359905-31.09656-69.359905-69.359905 0-38.384816 31.09656-69.359905 69.359905-69.359905 38.384816 0 69.359905 31.09656 69.359905 69.359905z" fill="#EEBF2F" p-id="1126"></path></svg>