<?xml version="1.0" standalone="no"?><!DOCTYPE svg PUBLIC "-//W3C//DTD SVG 1.1//EN" "http://www.w3.org/Graphics/SVG/1.1/DTD/svg11.dtd"><svg t="1531985247019" class="icon" style="" viewBox="0 0 1174 1024" version="1.1" xmlns="http://www.w3.org/2000/svg" p-id="2541" xmlns:xlink="http://www.w3.org/1999/xlink" width="229.296875" height="200"><defs><style type="text/css"></style></defs><path d="M777.656757 0H237.134149c-56.5336 0-102.451162 57.428928-102.451161 128.031976V675.717212h0.383712l4.604547 14.197352c17.778666 55.510367 24.429678 76.358731 123.171621 160.135898l244.296777 173.949538 224.599551-163.717212c18.290282-15.348489 35.045716-28.522608 50.138396-40.289783 59.98701-46.940794 96.567574-75.591307 97.846615-144.275793h0.255808V128.031976c0.127904-70.603048-45.917562-128.031976-102.323258-128.031976zM381.282038 19.569323h273.842619v582.475144l-145.043218 102.451161-128.799401-98.486135V19.569323zM158.345241 683.903073l-4.09293-12.534599V128.031976c0-59.859106 37.220085-108.462653 82.881838-108.462653H364.526605v581.196103l-204.646515 88.125906c-0.511616-1.534849-1.023233-3.197602-1.534849-4.988259z m611.509368 120.61354c-15.220585 11.895079-32.103922 25.069198-50.138396 40.289782L507.011741 999.82613 274.865851 834.574069c-78.5331-66.638021-95.288534-90.044467-108.718462-127.008743l202.088434-86.974769 141.461904 108.206845L662.670997 620.718461l188.78641 99.637272c-12.790407 30.441169-40.033975 51.673245-81.602798 84.16088z m90.556083-132.380715h-0.255808c0 10.743942-0.895329 20.336747-2.81389 29.162128l-185.460904-97.846615V19.569323H777.656757c45.661754 0 82.881839 48.603547 82.881839 108.462653v544.103922z" fill="" p-id="2542"></path><path d="M655.252561 602.044467l-146.833875 103.602298-108.590557-85.43992 7.418436-599.998002h248.005996z" fill="#C0435E" p-id="2543"></path><path d="M180.60055 740.436672L370.410192 651.415438l122.660005 85.567825 17.778666-10.871847 152.717462-106.160379L851.841119 719.076692s39.394454 33.255059-344.829378 280.621534c-13.429928 8.825381-281.77267-189.553835-326.411191-259.261554z" fill="#E6A72F" p-id="2544"></path><path d="M364.526605 20.208843h-117.415938c-36.708469 0-66.510117 37.987509-66.510117 84.8004V679.554334L364.526605 601.404946V20.208843z" fill="#C0435E" p-id="2545"></path><path d="M704.23982 19.697227h80.963278c33.127155 0 75.847115 36.708469 75.847114 107.183612l5.116163 356.468649-6.651012 219.355483-155.275543-81.858606v-601.149138z" fill="#A01E3E" p-id="2546"></path></svg>