<?xml version="1.0" standalone="no"?><!DOCTYPE svg PUBLIC "-//W3C//DTD SVG 1.1//EN" "http://www.w3.org/Graphics/SVG/1.1/DTD/svg11.dtd"><svg t="1531985244532" class="icon" style="" viewBox="0 0 1292 1024" version="1.1" xmlns="http://www.w3.org/2000/svg" p-id="2421" xmlns:xlink="http://www.w3.org/1999/xlink" width="252.34375" height="200"><defs><style type="text/css"></style></defs><path d="M886.545539 931.688729c0 48.83564-39.664069 88.499709-88.499709 88.499709H162.70606c-48.954752 0-88.499709-39.664069-88.499709-88.499709v-636.054438c0-48.83564 39.664069-88.499709 88.499709-88.499709h635.220659c48.83564 0 88.499709 39.664069 88.499709 88.499709v636.054438z" fill="#96C85C" p-id="2422"></path><path d="M245.607538 526.94847h-62.29522c-22.63115 0-40.974293-18.343143-40.974293-40.974293v-62.295219c0-22.63115 18.343143-40.974293 40.974293-40.974294h62.29522c22.63115 0 40.974293 18.343143 40.974293 40.974294v62.295219c0 22.63115-18.462254 40.974293-40.974293 40.974293z m-62.29522-130.069559c-14.888915 0-26.919158 12.030243-26.919158 26.919158v62.295219c0 14.888915 12.030243 26.919158 26.919158 26.919158h62.29522c14.888915 0 26.919158-12.030243 26.919157-26.919158v-62.295219c0-14.888915-12.030243-26.919158-26.919157-26.919158h-62.29522zM495.741305 527.067582h-62.295219c-22.63115 0-40.974293-18.343143-40.974294-40.974294v-62.295219c0-22.63115 18.343143-40.974293 40.974294-40.974293h62.295219c22.63115 0 40.974293 18.343143 40.974293 40.974293v62.295219c0 22.63115-18.343143 40.974293-40.974293 40.974294z m-62.295219-130.188671c-14.888915 0-26.919158 12.030243-26.919158 26.919158v62.295219c0 14.888915 12.030243 26.919158 26.919158 26.919158h62.295219c14.888915 0 26.919158-12.030243 26.919158-26.919158v-62.295219c0-14.888915-12.030243-26.919158-26.919158-26.919158h-62.295219zM741.348843 527.067582h-62.29522c-22.63115 0-40.974293-18.343143-40.974293-40.974294v-62.295219c0-22.63115 18.343143-40.974293 40.974293-40.974293h62.29522c22.63115 0 40.974293 18.343143 40.974293 40.974293v62.295219c0 22.63115-18.343143 40.974293-40.974293 40.974294z m-62.176108-130.188671c-14.888915 0-26.919158 12.030243-26.919158 26.919158v62.295219c0 14.888915 12.030243 26.919158 26.919158 26.919158h62.295219c14.888915 0 26.919158-12.030243 26.919158-26.919158v-62.295219c0-14.888915-12.030243-26.919158-26.919158-26.919158h-62.295219zM245.607538 803.644062h-62.29522c-22.63115 0-40.974293-18.343143-40.974293-40.974293v-62.29522c0-22.63115 18.343143-40.974293 40.974293-40.974293h62.29522c22.63115 0 40.974293 18.343143 40.974293 40.974293v62.29522c0 22.63115-18.462254 40.974293-40.974293 40.974293zM183.312318 673.574503c-14.888915 0-26.919158 12.030243-26.919158 26.919158v62.295219c0 14.888915 12.030243 26.919158 26.919158 26.919158h62.29522c14.888915 0 26.919158-12.030243 26.919157-26.919158v-62.295219c0-14.888915-12.030243-26.919158-26.919157-26.919158h-62.29522zM495.741305 803.763173h-62.295219c-22.63115 0-40.974293-18.343143-40.974294-40.974293v-62.295219c0-22.63115 18.343143-40.974293 40.974294-40.974294h62.295219c22.63115 0 40.974293 18.343143 40.974293 40.974294v62.295219c0 22.63115-18.343143 40.974293-40.974293 40.974293zM433.446086 673.574503c-14.888915 0-26.919158 12.030243-26.919158 26.919158v62.295219c0 14.888915 12.030243 26.919158 26.919158 26.919158h62.295219c14.888915 0 26.919158-12.030243 26.919158-26.919158v-62.295219c0-14.888915-12.030243-26.919158-26.919158-26.919158h-62.295219zM292.299174 192.126556c-25.728045 0-46.691637-20.963592-46.691636-46.691637v-98.743282c0-25.728045 20.963592-46.691637 46.691636-46.691637s46.691637 20.963592 46.691637 46.691637v98.743282c0 25.728045-20.963592 46.691637-46.691637 46.691637z m0-173.306968c-15.36536 0-27.872048 12.506688-27.872048 27.872049v98.743282c0 15.36536 12.506688 27.872048 27.872048 27.872049 15.36536 0 27.872048-12.506688 27.872049-27.872049v-98.743282c0.119111-15.36536-12.506688-27.872048-27.872049-27.872049zM642.248226 192.126556c-25.728045 0-46.691637-20.963592-46.691636-46.691637v-98.743282c0-25.728045 20.963592-46.691637 46.691636-46.691637s46.691637 20.963592 46.691637 46.691637v98.743282c-0.119111 25.728045-20.963592 46.691637-46.691637 46.691637z m0-173.306968c-15.36536 0-27.872048 12.506688-27.872048 27.872049v98.743282c0 15.36536 12.506688 27.872048 27.872048 27.872049 15.36536 0 27.872048-12.506688 27.872049-27.872049v-98.743282c0-15.36536-12.506688-27.872048-27.872049-27.872049z" fill="#070606" p-id="2423"></path><path d="M688.582529 106.60463h130.069559c35.733395 0 64.915668 29.063162 64.915668 64.915668v769.220891c0 35.733395-29.063162 64.915668-64.915668 64.915668H106.009073c-35.733395 0-64.915668-29.063162-64.915668-64.915668V171.401186C41.093405 135.667791 70.275678 106.60463 106.009073 106.60463h140.789578v-18.581366H106.009073c-45.976969 0-83.377923 37.400954-83.377923 83.377922v769.220891c0 45.976969 37.400954 83.377923 83.377923 83.377923h712.762126c45.976969 0 83.377923-37.400954 83.377923-83.377923V171.401186c0-45.976969-37.400954-83.377923-83.377923-83.377922H688.582529m-92.19216 0H338.990811V106.60463h257.399558" fill="#070606" p-id="2424"></path><path d="M277.529371 489.547517c0 15.603583-12.744911 28.348494-28.348494 28.348493h-51.932535c-15.603583 0-28.348494-12.6258-28.348493-28.348493v-51.932535c0-15.603583 12.744911-28.348494 28.348493-28.348494h51.932535c15.603583 0 28.348494 12.6258 28.348494 28.348494v51.932535zM524.328021 486.807956c0 15.484471-12.506688 28.110271-27.991159 28.110271h-51.45609c-15.484471 0-28.110271-12.506688-28.110271-28.110271V435.351867c0-15.484471 12.506688-28.110271 28.110271-28.110271h51.45609c15.484471 0 27.99116 12.506688 27.991159 28.110271v51.456089zM768.268 485.855066c0 14.888915-12.030243 27.038269-27.038269 27.038269h-49.550308c-14.888915 0-27.038269-12.149354-27.038269-27.038269v-49.550309c0-14.888915 12.030243-27.038269 27.038269-27.038269h49.550308c14.888915 0 27.038269 12.149354 27.038269 27.038269v49.550309zM273.598697 763.384436c0 15.127137-12.268466 27.276492-27.276492 27.276492h-50.026753c-15.127137 0-27.276492-12.268466-27.276492-27.276492v-50.026753c0-15.127137 12.268466-27.276492 27.276492-27.276492h50.026753c15.127137 0 27.276492 12.268466 27.276492 27.276492v50.026753zM524.685355 765.766663c0 15.484471-12.6258 28.110271-28.110271 28.110271h-51.5752c-15.484471 0-28.110271-12.6258-28.110271-28.110271v-51.575201c0-15.484471 12.6258-28.110271 28.110271-28.110271h51.5752c15.484471 0 28.110271 12.6258 28.110271 28.110271v51.575201z" fill="#EEBF2F" p-id="2425"></path><path d="M268.119577 1006.133302h528.020472c48.716529 0 90.40549-16.913807 88.142375-88.499709V542.194719c-78.017913 268.000465-324.221007 463.938583-616.162847 463.938583z" fill="#70A02F" p-id="2426"></path><path d="M767.434221 764.337327c0 14.650692-11.911132 26.561824-26.561824 26.561824h-48.716529c-14.650692 0-26.561824-11.911132-26.561824-26.561824v-48.716529c0-14.650692 11.911132-26.561824 26.561824-26.561824H740.872397c14.650692 0 26.561824 11.911132 26.561824 26.561824v48.716529z" fill="#EEBF2F" p-id="2427"></path><path d="M741.348843 803.763173h-62.29522c-22.63115 0-40.974293-18.343143-40.974293-40.974293v-62.295219c0-22.63115 18.343143-40.974293 40.974293-40.974294h62.29522c22.63115 0 40.974293 18.343143 40.974293 40.974294v62.295219c0 22.63115-18.343143 40.974293-40.974293 40.974293zM679.172735 673.574503c-14.888915 0-26.919158 12.030243-26.919158 26.919158v62.295219c0 14.888915 12.030243 26.919158 26.919158 26.919158h62.295219c14.888915 0 26.919158-12.030243 26.919158-26.919158v-62.295219c0-14.888915-12.030243-26.919158-26.919158-26.919158h-62.295219z" fill="#070606" p-id="2428"></path></svg>