<?xml version="1.0" standalone="no"?><!DOCTYPE svg PUBLIC "-//W3C//DTD SVG 1.1//EN" "http://www.w3.org/Graphics/SVG/1.1/DTD/svg11.dtd"><svg t="1531985250200" class="icon" style="" viewBox="0 0 1221 1024" version="1.1" xmlns="http://www.w3.org/2000/svg" p-id="2659" xmlns:xlink="http://www.w3.org/1999/xlink" width="238.4765625" height="200"><defs><style type="text/css"></style></defs><path d="M307.682708 796.606505c-38.755519 0-70.148879-28.754095-70.14888-64.036898V494.89687c0-35.282803 31.532268-64.036898 70.14888-64.036898s70.148879 28.754095 70.148879 64.036898v237.811646c0.138909 35.282803-31.39336 63.897989-70.148879 63.897989z m0-352.133483c-31.254451 0-56.535829 22.642113-56.53583 50.423848v237.811646c0 27.781734 25.420287 50.284939 56.53583 50.284939 31.115542 0 56.535829-22.642113 56.535829-50.284939V494.89687c0-27.781734-25.281378-50.423848-56.535829-50.423848zM551.467426 796.606505c-38.755519 0-70.148879-28.754095-70.148879-64.036898V494.89687c0-35.282803 31.532268-64.036898 70.148879-64.036898s70.148879 28.754095 70.148879 64.036898v237.811646c0.138909 35.282803-31.39336 63.897989-70.148879 63.897989z m0-352.133483c-31.254451 0-56.535829 22.642113-56.535829 50.423848v237.811646c0 27.781734 25.420287 50.284939 56.535829 50.284939s56.535829-22.642113 56.53583-50.284939V494.89687c0-27.781734-25.281378-50.423848-56.53583-50.423848zM795.252145 796.606505c-38.755519 0-70.148879-28.754095-70.148879-64.036898V494.89687c0-35.282803 31.532268-64.036898 70.148879-64.036898 38.755519 0 70.148879 28.754095 70.148879 64.036898v237.811646c0 35.282803-31.39336 63.897989-70.148879 63.897989z m0-352.133483c-31.254451 0-56.535829 22.642113-56.535829 50.423848v237.811646c0 27.781734 25.420287 50.284939 56.535829 50.284939 31.115542 0 56.535829-22.642113 56.535829-50.284939V494.89687c0-27.781734-25.281378-50.423848-56.535829-50.423848zM969.443619 280.282972l-304.209991-247.257435c-53.618747-44.034049-144.187201-44.034049-201.695391 0L136.408316 283.61678l0.416726 0.555635c-12.085054 10.41815-19.725031 25.837013-19.725032 43.061688 0 31.39336 25.559196 56.813647 56.813647 56.813647h763.580968c31.39336 0 56.813647-25.559196 56.813646-56.813647 0-19.586123-9.862516-36.810798-24.864652-46.951131zM474.650931 47.472039c51.2573-39.172245 131.546512-39.311154 179.192186-0.416726l274.622444 223.365143H183.498355L474.650931 47.472039z m462.704785 318.378675H173.913657c-21.253027 0-38.616611-17.363584-38.616611-38.616611s17.363584-38.616611 38.616611-38.616611h763.580968c7.778886 0 15.141045 2.361447 21.253027 6.389799l3.611625 2.917082 0.138909-0.138908c8.33452 7.084342 13.61305 17.641401 13.613049 29.448638 0 21.253027-17.363584 38.616611-38.755519 38.616611zM891.654763 1024H202.112117c-45.145318 0-81.817208-36.671889-81.817207-81.817208v-24.725743c0-45.145318 36.671889-81.817208 81.817207-81.817208h689.542646c45.145318 0 81.817208 36.671889 81.817208 81.817208v24.725743c0.138909 45.00641-36.671889 81.817208-81.817208 81.817208zM202.112117 853.697969c-35.143894 0-63.620172 28.615186-63.620171 63.620171v24.725744c0 35.143894 28.615186 63.620172 63.620171 63.620171h689.542646c35.143894 0 63.620172-28.615186 63.620172-63.620171v-24.725744c0-35.143894-28.615186-63.620172-63.620172-63.620171H202.112117z" fill="#070606" p-id="2660"></path><path d="M927.909926 270.559365L666.761624 54.695289c-41.81151-34.449351-104.181504-35.838437-147.659918-3.05599L220.170245 270.559365M955.830569 949.683861c0 32.226812-31.254451 58.202733-69.732153 58.202733H225.170957c-38.477702 0-69.732153-26.11483-69.732153-58.202733v-19.86394c0-32.226812 31.254451-58.202733 69.732153-58.202734h660.927459c38.477702 0 69.732153 26.11483 69.732153 58.202734v19.86394z" fill="#96C85C" p-id="2661"></path><path d="M364.635263 744.79357c0 23.475566-22.503205 42.644962-50.423848 42.644962-27.781734 0-50.423848-19.030488-50.423848-42.644962V508.787737c0-23.475566 22.503205-42.644962 50.423848-42.644962 27.781734 0 50.423848 19.030488 50.423848 42.644962v236.005833zM607.864347 739.931767c0 23.197748-22.503205 41.81151-50.14603 41.81151-27.781734 0-50.14603-18.752671-50.146031-41.81151V508.093194c0-23.197748 22.503205-41.81151 50.146031-41.811511 27.642826 0 50.14603 18.752671 50.14603 41.811511v231.838573zM854.566148 744.654661c0 23.614474-23.058839 42.783871-51.674026 42.783871s-51.674026-19.169397-51.674026-42.783871V507.815376c0-23.614474 23.058839-42.783871 51.674026-42.783871 28.476278 0 51.674026 19.169397 51.674026 42.783871v236.839285z" fill="#EAC01C" p-id="2662"></path><path d="M976.250144 332.234815c0 17.919219-16.252315 32.36572-36.255163 32.365721H197.250314c-20.002849 0-36.255163-14.446502-36.255164-32.365721s16.252315-32.36572 36.255164-32.36572h742.744667c20.002849-0.138909 36.255163 14.446502 36.255163 32.36572z" fill="#E8ECEC" p-id="2663"></path><path d="M758.16353 271.115h170.857666l-261.148303-215.864076c-26.392648-21.808661-61.258724-30.28209-94.180079-25.281378 88.90155 53.202021 155.85553 139.186489 184.470716 241.145454z" fill="#70A02F" p-id="2664"></path></svg>