<?xml version="1.0" standalone="no"?><!DOCTYPE svg PUBLIC "-//W3C//DTD SVG 1.1//EN" "http://www.w3.org/Graphics/SVG/1.1/DTD/svg11.dtd"><svg t="1531985272712" class="icon" style="" viewBox="0 0 1583 1024" version="1.1" xmlns="http://www.w3.org/2000/svg" p-id="3601" xmlns:xlink="http://www.w3.org/1999/xlink" width="309.1796875" height="200"><defs><style type="text/css"></style></defs><path d="M649.480847 926.822742c-152.544036 0-278.831661-113.15942-293.672241-263.134894l-1.855072-19.406912 17.979933 7.277592c80.481605 32.820513 181.654404 51.513935 277.54738 51.513936 96.606466 0 197.921962-18.550725 277.690078-50.800446l18.122631-7.277592-1.99777 19.406912c-15.411371 149.54738-141.698997 262.421405-293.814939 262.421404zM381.779621 680.668896c22.118172 128.285396 133.850613 222.751394 267.701226 222.751394 133.42252 0 245.297659-94.180602 267.843924-222.037904-79.340022 28.96767-175.661093 45.377926-267.843924 45.377926-91.469342-0.142698-187.790412-16.695652-267.701226-46.091416z" fill="#070606" p-id="3602"></path><path d="M1282.345953 477.181717l59.219621-13.128205-17.551839-221.324415 0.713489-0.285396-0.713489-0.285396v-0.285395l-0.428094 0.142698L657.043835 0 17.900022 242.586399l325.351171 123.433668c-57.364548 71.634337-88.90078 161.6767-88.900781 254.715719 0 222.3233 177.373467 403.264214 395.273133 403.264214 218.042363 0 395.415831-180.940914 395.415831-403.264214 0-89.186176-29.253066-176.374582-82.622074-246.58194l313.649944-114.015607 6.278707 217.043478z m16.981048-21.832776l-5.565217-186.220736 14.269788-4.138238 14.697882 185.22185-23.402453 5.137124zM1021.351527 620.735786c0 209.480491-166.813824 379.719064-371.87068 379.719063-205.056856 0-371.727982-170.381271-371.727982-379.719063 0-90.327759 31.393534-177.516165 88.615385-246.011148L652.905596 483.603122l4.138239 1.569676 282.113712-102.457079c52.940914 67.068004 82.19398 151.545151 82.19398 238.020067zM657.186533 460.057971L84.111839 242.586399 657.186533 24.972129 1255.946845 242.443701 657.186533 460.057971z" fill="#070606" p-id="3603"></path><path d="M132.771817 260.851728L687.295786 36.530658l565.654404 206.055741-596.477147 219.183947z" fill="#C0435E" p-id="3604"></path><path d="M623.081739 905.846154c-111.589744-18.265329-201.489409-90.613155-212.19175-199.777035 58.934225 23.973244 159.964326 40.383501 238.733556 40.383501 78.769231 0 207.054627-41.667781 265.988852-65.498328-0.142698 128.142698-173.235229 244.584169-292.530658 224.891862z" fill="#EEBF2F" p-id="3605"></path><path d="M965.556656 136.704571C915.469699 284.96767 801.882185 403.692308 656.901137 460.77146l2.996656 1.141583 596.477146-219.326644-290.818283-105.881828z" fill="#A01E3E" p-id="3606"></path></svg>