<?xml version="1.0" standalone="no"?><!DOCTYPE svg PUBLIC "-//W3C//DTD SVG 1.1//EN" "http://www.w3.org/Graphics/SVG/1.1/DTD/svg11.dtd"><svg t="1531985241818" class="icon" style="" viewBox="0 0 1229 1024" version="1.1" xmlns="http://www.w3.org/2000/svg" p-id="2303" xmlns:xlink="http://www.w3.org/1999/xlink" width="240.0390625" height="200"><defs><style type="text/css"></style></defs><path d="M128.917677 993.669154c-13.506705 17.416541 7.938151 15.402383 16.705662 15.402383l719.291282-0.82936c8.76751 0 15.994782-7.345752 15.994782-16.350221l-1.066319-887.295736c0-9.00447 3.672876-42.652753-16.824141-15.402383L128.917677 993.669154z" fill="#C0435E" p-id="2304"></path><path d="M58.185196 1024c-9.12295 0-19.786138-1.066319-24.169893-9.715349-4.620715-9.35991 2.843517-18.838299 5.331594-22.037256l0.11848-0.11848 810.75774-977.458915c3.909836-5.094634 13.625185-18.00894 24.643813-13.862145 11.255588 4.028316 10.663188 19.786138 10.307749 32.463484l-0.11848 3.909836 1.066318 958.857576c0 7.227272-2.725037 13.980624-7.819671 18.956779-5.094634 5.094634-11.847987 7.938151-19.075259 7.938151l-796.895596 0.947839c-1.303279 0.11848-2.725037 0.11848-4.146795 0.11848z m-5.568554-18.719819c3.080477 0.35544 7.227272 0.23696 9.35991 0.23696h3.080476l794.170559-0.947839c2.251118 0 4.383755-0.829359 5.923994-2.488078 1.540238-1.658718 2.488077-3.672876 2.488077-5.923993l-1.066319-958.976056 0.11848-4.620715c0.11848-2.014158 0.23696-5.687034 0.11848-9.24143-0.592399 0.829359-1.421758 1.658718-2.132638 2.725037L53.801441 1003.858422c-0.473919 0.473919-0.829359 1.066319-1.184799 1.421759z" fill="#070606" p-id="2305"></path><path d="M465.518984 792.253377c-4.739195 0-11.255588-0.592399-14.336064-6.634873-1.184799-2.488077-2.488077-7.582712 2.488077-13.980624l0.11848-0.23696 275.347215-331.980592c1.540238-2.132638 7.108792-9.478389 15.046943-6.634872 8.056631 2.843517 7.701191 12.084947 7.582712 17.061101l0.355439 326.767477c0 4.028316-1.540238 7.819671-4.383755 10.781668-2.843517 2.843517-6.753353 4.502235-10.781668 4.502235l-269.778661 0.35544h-1.658718z m-4.620715-14.928463l6.990312 6.042473s0-0.11848 0.11848-0.11848l-7.108792-5.923993 7.227272 5.687033-7.227272-5.687033z m272.859138-0.5924z m-0.35544-313.379252l-257.456755 310.417256 257.812195-0.35544-0.35544-310.061816z" fill="#070606" p-id="2306"></path><path d="M518.005566 769.979162c-3.909836 4.976154 2.251118 4.383755 4.857674 4.383755l206.984331-0.23696c2.488077 0 4.620715 0.23696 4.620715-4.620715l-0.35544-250.111002c0-2.606557 1.066319-12.084947-4.857674-4.265276L518.005566 769.979162z" fill="#EEBF2F" p-id="2307"></path><path d="M574.875903 1004.924741l276.176573-0.355439c15.994782 0.592399 15.994782-3.435916 15.994783-16.231742l-0.35544-292.171356c-32.463484 148.336795-145.611758 266.935144-291.815916 308.758537z" fill="#A01E3E" p-id="2308"></path></svg>