<?xml version="1.0" standalone="no"?><!DOCTYPE svg PUBLIC "-//W3C//DTD SVG 1.1//EN" "http://www.w3.org/Graphics/SVG/1.1/DTD/svg11.dtd"><svg t="1531986185044" class="icon" style="" viewBox="0 0 1024 1024" version="1.1" xmlns="http://www.w3.org/2000/svg" p-id="3143" xmlns:xlink="http://www.w3.org/1999/xlink" width="200" height="200"><defs><style type="text/css"></style></defs><path d="M761.5 938c-0.3 0-0.4-0.1-0.6-0.3L521.7 698.5c-0.4-0.4-0.4-1 0-1.4l182.5-182.5c0.1-0.1 0.3-0.3 0.7-0.3s0.6 0.2 0.7 0.3l239.2 239.2c0.1 0.1 0.4 0.4 0.3 0.9-0.1 0.5-0.4 0.6-0.6 0.7l-102 34.3C821 797 804 814 796.8 835.3l-34.3 102c-0.2 0.6-0.7 0.7-1 0.7z" fill="#F46070" p-id="3144"></path><path d="M704.8 535.2l213.3 213.3-80.6 27.1c-25.8 8.7-46.3 29.2-55 55l-27.1 80.6-213.2-213.3 162.6-162.7m0-35.8c-4.1 0-8.2 1.6-11.3 4.7L511.1 686.6c-6.2 6.2-6.2 16.4 0 22.6l239.2 239.2c3.2 3.2 7.2 4.7 11.2 4.7 6.5 0 12.9-3.9 15.2-10.9l34.3-102c5.7-17 19.1-30.4 36.1-36.1l102-34.3c11.2-3.8 14.6-18.1 6.2-26.4L716.1 504.1c-3.1-3.1-7.2-4.7-11.3-4.7z" fill="#3A3644" p-id="3145"></path><path d="M918.1 748.5L704.8 535.2 542.2 697.9l31.4 31.4 125.3 67.3c0.5 0 85.5-78.4 86-78.4 4.1 0-28.3 35.3-24.5 36.9l125.3 4.4 32.4-11z" fill="#EF4554" p-id="3146"></path><path d="M262.5 938c-0.5 0-0.8-0.2-1-0.7l-34.3-102C220 814 203 797 181.7 789.8l-102-34.3c-0.2-0.1-0.5-0.2-0.6-0.7-0.1-0.5 0.1-0.8 0.3-0.9l239.2-239.2c0.1-0.1 0.3-0.3 0.7-0.3 0.4 0 0.6 0.2 0.7 0.3l182.5 182.5c0.4 0.4 0.4 1 0 1.4L263.1 937.7c-0.2 0.2-0.3 0.3-0.6 0.3z" fill="#F46070" p-id="3147"></path><path d="M319.2 535.2l162.6 162.6-213.3 213.3-27.1-80.6c-8.7-25.8-29.2-46.3-55-55l-80.6-27.1 213.4-213.2m0-35.8c-4.1 0-8.2 1.6-11.3 4.7L68.7 743.3c-8.4 8.4-5 22.7 6.2 26.4l102 34.3c17 5.7 30.4 19.1 36.1 36.1l34.3 102c2.3 7 8.7 10.9 15.2 10.9 4 0 8.1-1.5 11.2-4.7l239.2-239.2c6.2-6.2 6.2-16.4 0-22.6L330.5 504.1c-3.2-3.1-7.2-4.7-11.3-4.7z" fill="#3A3644" p-id="3148"></path><path d="M105.9 748.5l213.3-213.3 162.6 162.6-31.4 31.4-209.7-11.1h-1.6c-4.1 0-8.2 0.9-12 2.5l-88.8 38.8-32.4-10.9z" fill="#EF4554" p-id="3149"></path><path d="M458.2 787.9c-9.1-11.6-22.7-18.2-37.4-18.2-6.1 0-12.1 1.2-17.7 3.4l-80.9 32.6-12.2-86.4c-3-20.8-19.5-37.4-40.3-40.3l-86.3-12.2 32.6-80.9c7.8-19.5 1.8-42.1-14.8-55.1L132.5 477l68.6-53.8c16.5-13 22.6-35.6 14.8-55.1l-32.6-80.9 86.3-12.2c20.8-3 37.4-19.5 40.3-40.3l12.2-86.3L403 181c5.7 2.3 11.6 3.4 17.7 3.4 14.7 0 28.3-6.6 37.4-18.2L512 97.6l53.8 68.6c9.1 11.6 22.7 18.2 37.4 18.2 6.1 0 12.1-1.2 17.7-3.4l80.9-32.6 12.2 86.3c3 20.8 19.5 37.4 40.3 40.3l86.3 12.2-32.6 80.9c-7.8 19.5-1.8 42.1 14.8 55.1l68.6 53.8-68.6 53.8c-16.5 13-22.6 35.6-14.8 55.1l32.6 80.9-86.3 12.2c-20.8 3-37.4 19.5-40.3 40.3l-12.2 86.3-80.9-32.6c-5.7-2.3-11.6-3.4-17.7-3.4-14.7 0-28.3 6.6-37.4 18.2L512 856.5l-53.8-68.6z" fill="#F8A77B" p-id="3150"></path><path d="M512 138.1l34.1 43.5c13.8 17.7 34.6 27.8 57.1 27.8 9.3 0 18.4-1.8 27.1-5.2l51.3-20.6 7.8 54.7c4.5 31.7 29.8 57.1 61.6 61.6l54.7 7.8-20.6 51.3c-12 29.7-2.7 64.3 22.5 84.1l43.5 34.1-43.5 34.1c-25.2 19.8-34.5 54.4-22.5 84.1l20.6 51.3-54.7 7.8c-31.7 4.5-57.1 29.8-61.6 61.6l-7.8 54.7-51.3-20.6c-8.6-3.5-17.7-5.2-27-5.2-22.4 0-43.2 10.1-57.1 27.8L512 815.9l-34.1-43.5c-13.8-17.7-34.6-27.8-57.1-27.8-9.3 0-18.4 1.8-27.1 5.2l-51.3 20.6-7.8-54.7c-4.5-31.7-29.8-57.1-61.6-61.6l-54.7-7.8 20.6-51.3c12-29.7 2.7-64.3-22.5-84.1L173.1 477l43.5-34.1c25.2-19.8 34.5-54.4 22.5-84.1l-20.6-51.3 54.7-7.8c31.7-4.5 57.1-29.8 61.6-61.6l7.8-54.7 51.3 20.6c8.6 3.5 17.7 5.2 27.1 5.2 22.4 0 43.2-10.1 57.1-27.8l33.9-43.3m0-67.1c-6.6 0-13.2 2.9-17.7 8.6l-55.8 71.2c-4.4 5.6-10.9 8.6-17.7 8.6-2.8 0-5.7-0.5-8.4-1.6L328.6 124c-2.8-1.1-5.6-1.6-8.4-1.6-10.8 0-20.6 7.8-22.2 19.3l-12.7 89.5c-1.4 9.9-9.2 17.7-19.1 19.1L176.7 263c-14.4 2-23.1 17.1-17.7 30.6l33.8 83.9c3.7 9.3 0.9 19.9-7 26.1l-71.2 55.8c-11.5 9-11.5 26.4 0 35.4l71.2 55.8c7.9 6.2 10.7 16.8 7 26.1L159 660.4c-5.4 13.5 3.2 28.6 17.7 30.6l89.5 12.7c9.9 1.4 17.7 9.2 19.1 19.1l12.7 89.5c1.6 11.5 11.5 19.3 22.2 19.3 2.8 0 5.6-0.5 8.4-1.6l83.9-33.8c2.7-1.1 5.6-1.6 8.4-1.6 6.8 0 13.3 3.1 17.7 8.6l55.8 71.2c4.5 5.7 11.1 8.6 17.7 8.6s13.2-2.9 17.7-8.6l55.8-71.2c4.4-5.6 10.9-8.6 17.7-8.6 2.8 0 5.7 0.5 8.4 1.6l83.9 33.8c2.8 1.1 5.6 1.6 8.4 1.6 10.8 0 20.6-7.8 22.2-19.3l12.7-89.5c1.4-9.9 9.2-17.7 19.1-19.1l89.5-12.7c14.4-2 23.1-17.1 17.7-30.6l-33.8-83.9c-3.7-9.3-0.9-19.9 7-26.1l71.2-55.8c11.5-9 11.5-26.4 0-35.4l-71.2-55.8c-7.9-6.2-10.7-16.8-7-26.1l33.8-83.9c5.4-13.5-3.2-28.6-17.7-30.6L758 250.1c-9.9-1.4-17.7-9.2-19.1-19.1L726 141.7c-1.6-11.5-11.5-19.3-22.2-19.3-2.8 0-5.6 0.5-8.4 1.6l-83.9 33.8c-2.7 1.1-5.6 1.6-8.4 1.6-6.8 0-13.3-3.1-17.7-8.6l-55.8-71.2c-4.4-5.7-11-8.6-17.6-8.6z" fill="#3A3644" p-id="3151"></path><path d="M292 501.3a220 221.3 0 1 0 440 0 220 221.3 0 1 0-440 0Z" fill="#F37C4B" p-id="3152"></path><path d="M512 680c-111.9 0-203-91.1-203-203s91.1-203 203-203 203 91.1 203 203c0 112-91.1 203-203 203z" fill="#FFED8B" p-id="3153"></path><path d="M512 289c50.2 0 97.4 19.6 132.9 55.1S700 426.8 700 477s-19.6 97.4-55.1 132.9C609.4 645.5 562.2 665 512 665s-97.4-19.6-132.9-55.1S324 527.2 324 477s19.6-97.4 55.1-132.9S461.8 289 512 289m0-30c-120.4 0-218 97.6-218 218s97.6 218 218 218 218-97.6 218-218-97.6-218-218-218z" fill="#3A3644" p-id="3154"></path><path d="M390.3 337.7C377 349 365.5 362.9 355.9 378l45.6 79c5.5 9.5 17.8 12.8 27.3 7.3l8.7-5c9.5-5.5 12.8-17.8 7.3-27.3l-54.5-94.3zM480.9 294.6c-17.9 3.2-33.9 8.2-49 15.6l98.5 170.1c5.5 9.5 17.8 12.8 27.3 7.3l8.7-5c9.5-5.5 12.8-17.8 7.3-27.3l-92.8-160.7z" fill="#FFFDF5" p-id="3155"></path></svg>