<?xml version="1.0" standalone="no"?><!DOCTYPE svg PUBLIC "-//W3C//DTD SVG 1.1//EN" "http://www.w3.org/Graphics/SVG/1.1/DTD/svg11.dtd"><svg t="1531986130349" class="icon" style="" viewBox="0 0 2560 1024" version="1.1" xmlns="http://www.w3.org/2000/svg" p-id="2372" xmlns:xlink="http://www.w3.org/1999/xlink" width="500" height="200"><defs><style type="text/css"></style></defs><path d="M1262.08 529.92l-5.12-2.56c-20.48-2.56-38.4-10.24-53.76-23.04l-15.36-10.24c-10.24-7.68-17.92-12.8-20.48-17.92-10.24-10.24-17.92-20.48-23.04-30.72l-7.68-17.92-5.12-10.24c0-2.56-2.56-5.12-2.56-5.12H1254.4c2.56 0 7.68-2.56 7.68-5.12v-5.12c0-5.12-2.56-7.68-7.68-12.8l-5.12-5.12v-2.56l-2.56-2.56s-12.8-7.68-15.36-7.68l-7.68-7.68h-2.56c-5.12 0-7.68 5.12-10.24 5.12l-2.56 2.56c-2.56 2.56-5.12 7.68-10.24 12.8-2.56 2.56-5.12 5.12-7.68 10.24h-74.24c2.56-25.6 2.56-46.08 2.56-53.76 2.56-7.68 2.56-17.92 2.56-28.16 7.68-5.12 12.8-10.24 12.8-15.36 0-5.12-5.12-7.68-5.12-10.24L1126.4 281.6c-2.56-2.56-10.24-5.12-28.16-5.12l-23.04-5.12h-10.24v25.6c2.56 15.36 2.56 33.28 2.56 53.76v35.84h-92.16l-20.48-2.56-5.12 10.24 10.24 10.24h102.4v5.12c0 15.36-2.56 33.28-7.68 51.2-2.56 15.36-12.8 30.72-20.48 43.52-7.68 12.8-17.92 23.04-33.28 35.84-12.8 10.24-23.04 17.92-38.4 23.04l-7.68 2.56h-2.56l-2.56 2.56-2.56 2.56-5.12 5.12v2.56c0 5.12 2.56 10.24 12.8 10.24h2.56s12.8-5.12 12.8-7.68c15.36-2.56 35.84-10.24 51.2-17.92 17.92-7.68 33.28-20.48 48.64-35.84 10.24-10.24 20.48-25.6 25.6-38.4 5.12-15.36 10.24-28.16 12.8-40.96 0 0 0-2.56 2.56-7.68 0 2.56 2.56 7.68 2.56 7.68 2.56 12.8 5.12 25.6 12.8 40.96 2.56 12.8 10.24 25.6 17.92 38.4 10.24 10.24 23.04 23.04 33.28 28.16 12.8 10.24 20.48 15.36 28.16 17.92l5.12 2.56 10.24 2.56 7.68-5.12 2.56-7.68V563.2c0-2.56 5.12-7.68 10.24-10.24 2.56 0 5.12-2.56 5.12-2.56 2.56-2.56 7.68-5.12 7.68-5.12l12.8-5.12 5.12-5.12v2.56c0-2.56-2.56-7.68-10.24-7.68zM1367.04 394.24s-2.56 2.56 0 0c-2.56 2.56-5.12 7.68-5.12 7.68h-15.36l-20.48-2.56-7.68 10.24 5.12 12.8h38.4v94.72c-10.24 2.56-17.92 7.68-23.04 10.24l-2.56 2.56-7.68 2.56h2.56c-5.12 0-10.24 5.12-10.24 10.24v5.12l17.92 38.4v-2.56c0 5.12 2.56 7.68 7.68 7.68 2.56 0 5.12-2.56 7.68-5.12l7.68-7.68c7.68-15.36 15.36-25.6 20.48-28.16h2.56l2.56-2.56s2.56 0 5.12-2.56l10.24 5.12h2.56s2.56 0 5.12 5.12v2.56h2.56c5.12 2.56 7.68 5.12 12.8 10.24l10.24 5.12 12.8 7.68c12.8 2.56 38.4 5.12 76.8 10.24h48.64c17.92-2.56 28.16-2.56 33.28-2.56h20.48v-15.36-10.24l2.56-7.68 2.56-5.12 12.8-12.8-5.12-5.12c-5.12-5.12-5.12-5.12-10.24-5.12l-10.24 2.56c-23.04 5.12-48.64 7.68-76.8 7.68h-66.56c-17.92-2.56-35.84-5.12-51.2-15.36 0 0-10.24-5.12-12.8-5.12v-2.56-92.16c2.56-2.56 7.68-2.56 7.68-10.24 0-5.12-5.12-12.8-17.92-20.48l-15.36-5.12-10.24-2.56c-7.68 5.12-10.24 7.68-10.24 10.24zM1336.32 284.16h-7.68v12.8l2.56 2.56 5.12 2.56 5.12 5.12v2.56c2.56 2.56 5.12 7.68 5.12 7.68v2.56c2.56 5.12 2.56 10.24 2.56 15.36 2.56 7.68 2.56 10.24 2.56 12.8 0 7.68 5.12 12.8 12.8 12.8l-5.12-2.56c5.12 5.12 10.24 5.12 12.8 5.12h15.36c7.68-2.56 10.24-7.68 15.36-15.36v2.56c5.12-5.12 5.12-12.8 5.12-20.48-2.56-7.68-7.68-17.92-15.36-23.04h2.56c-5.12-5.12-12.8-12.8-23.04-17.92l-10.24-2.56c-7.68-2.56-12.8-2.56-20.48-2.56h-5.12z" fill="#362D2A" p-id="2373"></path><path d="M1479.68 399.36l20.48-40.96v-2.56-2.56c0 5.12 2.56 40.96 2.56 40.96v7.68c-5.12-2.56-12.8-2.56-23.04-2.56z m2.56-130.56h-7.68v7.68c0 2.56-2.56 7.68-2.56 7.68 0 5.12 0 7.68-2.56 15.36-2.56 5.12-5.12 12.8-7.68 20.48h-17.92l-23.04-2.56-5.12 15.36 7.68 12.8h33.28c-5.12 12.8-10.24 25.6-23.04 43.52l-7.68 5.12-2.56 2.56v5.12c0 5.12 2.56 10.24 10.24 15.36 5.12 5.12 10.24 10.24 15.36 12.8 2.56 5.12 7.68 5.12 10.24 5.12h5.12v-2.56l5.12-10.24-2.56 5.12s5.12-5.12 5.12-7.68h28.16v43.52h-56.32l-25.6-2.56-5.12 12.8 10.24 10.24h79.36v5.12l-2.56 38.4s2.56 5.12 2.56 7.68c0 7.68 10.24 7.68 15.36 7.68 5.12 0 10.24 0 15.36-2.56 2.56 0 5.12-2.56 5.12-2.56H1546.24v-10.24l2.56-7.68-2.56-33.28v-5.12h81.92l7.68-7.68v-2.56l-5.12-10.24-7.68-5.12-5.12-2.56-7.68-7.68c-5.12-5.12-10.24-5.12-12.8-5.12-10.24 0-17.92 17.92-23.04 25.6h-28.16v-43.52h74.24v-7.68c0-2.56 0-10.24-7.68-12.8-2.56-5.12-5.12-7.68-7.68-10.24l-5.12-7.68-5.12-2.56-12.8-5.12v2.56l-5.12 7.68c-2.56 5.12-5.12 7.68-10.24 12.8h-15.36v-30.72c5.12-5.12 10.24-10.24 10.24-15.36v-2.56l-2.56-2.56c-2.56-2.56-5.12-2.56-10.24-5.12h76.8c7.68 0 10.24-2.56 10.24-10.24l-5.12-10.24-10.24-10.24h-2.56l-2.56-2.56s-7.68-7.68-10.24-7.68c-5.12-5.12-10.24-5.12-12.8-5.12-5.12 0-10.24 5.12-23.04 25.6h-56.32c2.56-7.68 5.12-12.8 5.12-15.36h2.56c2.56 0 10.24-2.56 10.24-10.24v-2.56l-2.56-7.68s-2.56 0-5.12-2.56-10.24-7.68-17.92-10.24c-12.8-5.12-17.92-5.12-20.48-5.12h-2.56zM1953.28 437.76z m-17.92-7.68c2.56 7.68 10.24 10.24 17.92 10.24l-2.56 2.56c-5.12 10.24-10.24 17.92-20.48 25.6 0-2.56-7.68-15.36-7.68-15.36l-2.56-10.24s-2.56-5.12-2.56-7.68v-5.12h17.92z m-58.88 0h17.92c0 5.12 2.56 12.8 2.56 12.8v2.56c0 2.56 0 10.24 2.56 17.92 0 7.68 0 12.8 2.56 17.92 0 2.56 0 10.24 5.12 17.92-7.68 2.56-20.48 7.68-30.72 12.8v-81.92z m0-20.48v-38.4h56.32V409.6h-56.32z m0-56.32v-35.84h56.32v35.84h-56.32z m-48.64 128l-15.36 10.24c-7.68 2.56-15.36 7.68-28.16 12.8v-53.76h46.08c0 10.24 0 20.48-2.56 30.72z m2.56-51.2c-2.56-2.56-5.12-5.12-7.68-5.12l-7.68-7.68c-5.12-5.12-5.12-5.12-10.24-5.12h-7.68v5.12c-2.56 2.56-7.68 5.12-12.8 12.8v-23.04c2.56 0 5.12-2.56 5.12-5.12h33.28v-2.56l2.56-5.12c0-5.12-5.12-7.68-12.8-15.36l-12.8-12.8h-5.12c-2.56 0-10.24 0-12.8 7.68l-10.24 10.24h-46.08c2.56-2.56 20.48-28.16 23.04-33.28h81.92v79.36z m179.2 112.64l-23.04-12.8c-10.24-2.56-20.48-12.8-25.6-20.48-7.68-7.68-12.8-12.8-15.36-23.04 5.12-2.56 7.68-2.56 7.68-2.56l30.72-10.24v-2.56l7.68-2.56 7.68-2.56c10.24 0 12.8-5.12 12.8-7.68v-2.56c0-7.68-12.8-12.8-15.36-15.36l-7.68-5.12c-2.56-2.56-5.12-2.56-7.68-5.12v-2.56c2.56-2.56 5.12-5.12 5.12-7.68l-2.56-33.28v-69.12c2.56-2.56 7.68-2.56 7.68-10.24 0-10.24-7.68-15.36-23.04-20.48l-17.92-5.12h-2.56c-5.12 0-7.68 5.12-10.24 5.12-2.56 0-5.12 5.12-7.68 7.68h-56.32c-2.56 0-30.72-12.8-30.72-15.36-2.56-2.56-5.12-5.12-7.68-2.56-2.56 0-2.56 2.56-5.12 5.12h-2.56c0 2.56-2.56 2.56-2.56 5.12s0 5.12 2.56 7.68v28.16c-2.56-2.56-5.12-2.56-7.68-5.12l-7.68-7.68c-2.56-2.56-7.68-2.56-10.24-2.56h-2.56s-15.36 17.92-17.92 20.48h-23.04c5.12-7.68 10.24-17.92 15.36-25.6 2.56 0 5.12-2.56 7.68-5.12 5.12 0 7.68-2.56 7.68-5.12l2.56-2.56v-2.56c0-5.12-5.12-7.68-5.12-10.24l-2.56-2.56-12.8-5.12-10.24-2.56-10.24-2.56v-2.56H1728v12.8s-2.56 15.36-2.56 17.92c-2.56 2.56-2.56 7.68-2.56 10.24l-2.56 10.24-10.24 30.72-5.12 10.24-5.12 10.24-5.12 10.24-2.56 10.24v-2.56l-7.68 12.8v5.12c0 5.12 2.56 7.68 5.12 7.68s5.12 2.56 10.24-2.56l7.68-7.68 7.68 7.68 17.92-2.56h5.12V435.2h-43.52l-5.12 10.24 12.8 12.8 17.92-2.56h17.92v69.12c-2.56 2.56-2.56 2.56-2.56 5.12h-2.56l-5.12 5.12v2.56c0 2.56 2.56 5.12 5.12 7.68 0 2.56 15.36 30.72 17.92 33.28v10.24h15.36v-7.68c2.56-2.56 12.8-15.36 12.8-15.36l15.36-17.92 33.28-35.84v-2.56 25.6s0 2.56-2.56 2.56h-5.12v10.24l15.36 33.28c0 7.68 5.12 10.24 10.24 10.24h5.12c2.56 0 2.56-2.56 5.12-5.12s12.8-10.24 12.8-10.24v-2.56c2.56-5.12 5.12-7.68 7.68-10.24l15.36-17.92 5.12-5.12s10.24-10.24 15.36-17.92c0 2.56 2.56 2.56 2.56 2.56 0 7.68 2.56 12.8 10.24 25.6 7.68 12.8 15.36 23.04 25.6 33.28 7.68 7.68 12.8 10.24 12.8 10.24l5.12 2.56 5.12-5.12 5.12-5.12 2.56-2.56v-2.56c2.56-5.12 5.12-7.68 10.24-10.24h5.12l12.8-5.12 5.12-5.12v-2.56c2.56-10.24 0-15.36-5.12-15.36zM2181.12 353.28l-17.92-10.24-10.24-5.12H2150.4l15.36-10.24c2.56-2.56 7.68-5.12 12.8-7.68h7.68c7.68 0 12.8-5.12 12.8-12.8l-10.24-10.24-7.68-7.68-2.56-2.56s-12.8-7.68-15.36-7.68c-2.56-2.56-7.68-7.68-12.8-7.68H2142.72l-5.12 10.24-5.12 7.68-15.36 23.04-7.68 10.24-12.8 12.8-12.8 12.8s-7.68 10.24-10.24 12.8c-2.56 0-7.68 5.12-7.68 5.12-5.12 5.12-5.12 5.12-5.12 10.24v7.68h12.8l12.8-7.68c15.36-5.12 30.72-12.8 48.64-25.6l5.12-2.56-2.56 7.68-5.12 12.8-23.04 38.4-10.24 15.36-10.24 12.8c-2.56 5.12-7.68 10.24-12.8 17.92l-7.68 10.24v5.12c0 2.56 0 7.68 5.12 7.68 5.12 2.56 7.68 0 10.24-2.56l7.68-5.12c12.8-5.12 23.04-12.8 35.84-23.04v130.56c0 2.56 2.56 5.12 5.12 7.68 2.56 2.56 5.12 5.12 12.8 5.12l10.24-2.56 7.68-2.56 7.68-2.56 5.12-2.56 2.56-5.12v2.56l2.56-7.68-2.56-38.4v-125.44c2.56-5.12 10.24-15.36 15.36-20.48 5.12 0 10.24 0 12.8-5.12l2.56-2.56v-2.56c-5.12-2.56-10.24-7.68-28.16-20.48z" fill="#362D2A" p-id="2374"></path><path d="M2380.8 391.68l-5.12-5.12-17.92-17.92c-2.56-5.12-10.24-7.68-17.92-7.68h-2.56l-7.68 7.68-5.12 7.68s-5.12 10.24-7.68 12.8h-110.08l-12.8-2.56-5.12 10.24 10.24 10.24H2278.4v117.76h-2.56v5.12h-5.12l-20.48-2.56h-10.24c-5.12 0-7.68 0-10.24 5.12l-2.56 7.68v2.56c0 5.12 2.56 10.24 10.24 10.24h-2.56l10.24 2.56c5.12 2.56 7.68 5.12 10.24 7.68l5.12 5.12v12.8l2.56 2.56c5.12 5.12 5.12 5.12 10.24 5.12 2.56 0 10.24 0 20.48-2.56 7.68 0 12.8-2.56 20.48-7.68 2.56-2.56 10.24-5.12 12.8-12.8 2.56-5.12 2.56-7.68 2.56-17.92v-133.12c0-2.56 2.56-2.56 2.56-2.56h43.52c5.12 0 10.24-2.56 10.24-10.24 0-2.56 0-7.68-5.12-10.24zM2232.32 322.56h133.12v-7.68c0-5.12 0-7.68-5.12-10.24l-25.6-25.6H2329.6l-7.68-2.56c-5.12 0-7.68 5.12-10.24 5.12l-2.56 5.12c-2.56 5.12-7.68 10.24-15.36 17.92h-81.92l-5.12 10.24 10.24 12.8 15.36-5.12z" fill="#362D2A" p-id="2375"></path><path d="M983.04 768c0 5.12 0 7.68 2.56 10.24 2.56 2.56 5.12 2.56 7.68 2.56 7.68 0 15.36-2.56 17.92-5.12 5.12-5.12 5.12-10.24 5.12-17.92 0-7.68-2.56-15.36-7.68-17.92-5.12-5.12-10.24-7.68-17.92-7.68-2.56 0-5.12 0-7.68 2.56-2.56 0-2.56 2.56-2.56 5.12V768h2.56z m0-51.2c0 2.56 0 5.12 2.56 7.68 2.56 2.56 5.12 2.56 7.68 2.56 7.68 0 10.24-2.56 15.36-5.12 2.56-2.56 5.12-7.68 5.12-15.36s-2.56-12.8-5.12-17.92c-2.56-5.12-7.68-5.12-12.8-5.12-2.56 0-5.12 0-7.68 2.56-2.56 2.56-2.56 5.12-2.56 7.68v23.04h-2.56z m-38.4 71.68v-7.68c5.12 0 10.24-2.56 12.8-2.56 2.56-2.56 2.56-5.12 2.56-10.24v-71.68c0-5.12 0-10.24-2.56-10.24-2.56-2.56-5.12-2.56-12.8-2.56v-7.68h61.44c5.12 0 10.24 2.56 12.8 2.56 5.12 2.56 10.24 5.12 12.8 10.24 2.56 5.12 5.12 7.68 5.12 15.36 0 5.12-2.56 12.8-7.68 15.36-5.12 5.12-10.24 7.68-17.92 10.24 10.24 2.56 17.92 5.12 23.04 10.24 5.12 5.12 7.68 12.8 7.68 20.48 0 5.12-2.56 10.24-5.12 15.36-2.56 5.12-5.12 7.68-10.24 10.24-2.56 2.56-7.68 2.56-12.8 2.56h-69.12zM1077.76 742.4h28.16l-12.8-35.84-15.36 35.84z m-38.4 46.08v-7.68c2.56 0 7.68-2.56 10.24-5.12 2.56-2.56 5.12-5.12 7.68-10.24l28.16-69.12c0-2.56 2.56-5.12 2.56-7.68v-5.12l10.24-12.8h5.12l38.4 97.28c2.56 2.56 2.56 5.12 5.12 7.68 2.56 2.56 5.12 2.56 10.24 2.56v7.68h-53.76v-7.68c5.12 0 7.68 0 10.24-2.56 2.56 0 2.56-2.56 2.56-5.12V768v-2.56l-7.68-23.04H1075.2l-7.68 15.36c0 2.56 0 2.56-2.56 5.12v5.12c0 2.56 0 5.12 2.56 5.12s5.12 2.56 7.68 2.56v7.68h-35.84v5.12z" fill="#231815" p-id="2376"></path><path d="M1264.64 696.32c0-5.12 0-10.24-2.56-10.24-2.56-2.56-7.68-2.56-15.36-2.56v-7.68h43.52v7.68c-7.68 0-12.8 2.56-15.36 2.56-2.56 2.56-2.56 5.12-2.56 10.24v94.72h-5.12l-84.48-87.04V768c0 5.12 0 7.68 2.56 10.24 2.56 2.56 7.68 2.56 12.8 2.56v7.68h-40.96v-7.68c5.12 0 10.24-2.56 12.8-2.56 2.56-2.56 2.56-5.12 2.56-10.24v-64c0-7.68-2.56-12.8-5.12-17.92-2.56-2.56-7.68-5.12-15.36-5.12v-7.68h30.72l76.8 76.8v-53.76h5.12zM1336.32 732.16l33.28-35.84 5.12-5.12c0-2.56 2.56-2.56 2.56-5.12s0-2.56-2.56-5.12c-2.56 0-5.12-2.56-7.68-2.56v-7.68H1408v7.68c-5.12 0-7.68 2.56-12.8 2.56-2.56 2.56-7.68 5.12-12.8 10.24l-23.04 25.6 43.52 46.08c5.12 5.12 7.68 7.68 12.8 10.24 2.56 2.56 5.12 2.56 7.68 2.56v7.68h-53.76v-7.68h10.24c2.56 0 2.56-2.56 2.56-2.56v-2.56l-5.12-5.12-30.72-33.28-7.68 7.68V768c0 5.12 0 10.24 2.56 10.24 2.56 2.56 5.12 2.56 12.8 2.56v7.68h-53.76v-7.68c5.12 0 10.24 0 12.8-2.56 2.56-2.56 2.56-5.12 2.56-10.24v-71.68c0-5.12 0-7.68-2.56-10.24-2.56-2.56-5.12-2.56-12.8-2.56v-7.68h53.76v7.68c-7.68 0-10.24 0-12.8 2.56-2.56 2.56-2.56 5.12-2.56 10.24v35.84h-2.56zM1528.32 783.36c10.24 0 20.48-5.12 25.6-12.8 5.12-10.24 10.24-23.04 10.24-38.4s-2.56-28.16-10.24-38.4c-5.12-10.24-15.36-12.8-25.6-12.8s-20.48 5.12-25.6 12.8c-5.12 10.24-10.24 23.04-10.24 38.4s2.56 28.16 10.24 38.4c5.12 7.68 15.36 12.8 25.6 12.8z m0 7.68c-7.68 0-15.36 0-20.48-2.56-7.68-2.56-12.8-5.12-17.92-10.24-7.68-5.12-10.24-12.8-15.36-20.48-2.56-7.68-5.12-15.36-5.12-23.04 0-7.68 2.56-17.92 5.12-25.6 2.56-7.68 7.68-15.36 15.36-20.48 5.12-5.12 12.8-7.68 17.92-10.24 7.68-2.56 12.8-2.56 20.48-2.56 7.68 0 15.36 0 20.48 2.56 7.68 2.56 12.8 5.12 17.92 10.24 7.68 5.12 10.24 12.8 15.36 20.48 2.56 7.68 5.12 15.36 5.12 25.6 0 7.68-2.56 17.92-5.12 23.04-2.56 7.68-7.68 12.8-15.36 20.48-5.12 5.12-12.8 7.68-17.92 10.24-5.12 0-12.8 2.56-20.48 2.56zM1638.4 768c0 5.12 0 10.24 2.56 10.24 2.56 2.56 7.68 2.56 15.36 2.56v7.68h-58.88v-7.68c5.12 0 10.24 0 12.8-2.56 2.56-2.56 2.56-5.12 2.56-10.24v-71.68c0-5.12 0-7.68-2.56-10.24-2.56-2.56-5.12-2.56-12.8-2.56v-7.68H1689.6l7.68 25.6-5.12 2.56c-5.12-7.68-10.24-15.36-12.8-17.92-5.12-2.56-10.24-5.12-15.36-5.12h-17.92c-2.56 0-5.12 0-5.12 2.56v43.52h20.48c5.12 0 7.68 0 10.24-2.56 2.56-2.56 5.12-5.12 5.12-10.24h7.68v38.4h-7.68c0-5.12-2.56-10.24-5.12-12.8-2.56-2.56-5.12-5.12-10.24-5.12H1638.4V768zM1786.88 696.32V768c0 5.12 0 10.24 2.56 10.24 2.56 2.56 7.68 2.56 15.36 2.56 12.8 0 23.04-5.12 30.72-12.8 7.68-7.68 10.24-20.48 10.24-35.84 0-15.36-5.12-28.16-12.8-38.4-7.68-10.24-17.92-15.36-33.28-15.36-7.68 0-10.24 0-12.8 2.56 2.56 5.12 0 10.24 0 15.36z m-38.4 92.16v-7.68c5.12 0 10.24 0 12.8-2.56 2.56-2.56 2.56-5.12 2.56-10.24v-71.68c0-5.12 0-7.68-2.56-10.24-2.56-2.56-5.12-2.56-12.8-2.56v-7.68H1792c12.8 0 25.6 0 33.28 2.56 7.68 2.56 15.36 5.12 20.48 7.68 10.24 5.12 15.36 12.8 20.48 20.48 5.12 7.68 7.68 17.92 7.68 25.6 0 7.68-2.56 15.36-5.12 23.04-2.56 7.68-10.24 12.8-17.92 20.48-7.68 5.12-15.36 7.68-23.04 10.24-7.68 2.56-20.48 2.56-35.84 2.56h-43.52zM1909.76 742.4h28.16l-12.8-35.84-15.36 35.84z m-38.4 46.08v-7.68c2.56 0 7.68-2.56 10.24-5.12 2.56-2.56 5.12-5.12 7.68-10.24l28.16-69.12c0-2.56 2.56-5.12 2.56-7.68v-5.12l10.24-12.8h5.12l38.4 97.28c2.56 2.56 2.56 5.12 5.12 7.68 2.56 2.56 5.12 2.56 10.24 2.56v7.68h-53.76v-7.68c5.12 0 7.68 0 10.24-2.56 2.56 0 2.56-2.56 2.56-5.12V768v-2.56l-7.68-23.04h-33.28l-7.68 15.36c0 2.56 0 2.56-2.56 5.12v5.12c0 2.56 0 5.12 2.56 5.12s5.12 2.56 7.68 2.56v7.68h-35.84v5.12zM2030.08 762.88c0 10.24 0 15.36 2.56 15.36 2.56 2.56 5.12 2.56 10.24 2.56h15.36c7.68 0 12.8-2.56 17.92-5.12 5.12-2.56 10.24-10.24 15.36-20.48h5.12l-5.12 33.28h-99.84v-7.68c5.12 0 10.24 0 12.8-2.56 2.56-2.56 2.56-5.12 2.56-10.24v-71.68c0-5.12 0-7.68-2.56-10.24-2.56-2.56-5.12-2.56-12.8-2.56v-7.68h53.76v7.68c-7.68 0-10.24 0-12.8 2.56-2.56 2.56-2.56 5.12-2.56 10.24v66.56zM2155.52 788.48H2099.2v-7.68c5.12 0 10.24 0 12.8-2.56 2.56-2.56 2.56-5.12 2.56-10.24v-71.68c0-5.12 0-7.68-2.56-10.24-2.56-2.56-5.12-2.56-12.8-2.56v-7.68h53.76v7.68c-7.68 0-10.24 0-12.8 2.56-2.56 2.56-2.56 5.12-2.56 10.24V768c0 5.12 0 10.24 2.56 10.24 2.56 2.56 7.68 2.56 12.8 2.56v7.68h2.56z" fill="#231815" p-id="2377"></path><path d="M2191.36 742.4h28.16l-12.8-35.84-15.36 35.84z m-35.84 46.08v-7.68c2.56 0 7.68-2.56 10.24-5.12 2.56-2.56 5.12-5.12 7.68-10.24l28.16-69.12c0-2.56 2.56-5.12 2.56-7.68v-5.12l10.24-12.8h5.12l38.4 97.28c2.56 2.56 2.56 5.12 5.12 7.68 2.56 2.56 5.12 2.56 10.24 2.56v7.68h-53.76v-7.68c5.12 0 7.68 0 10.24-2.56 2.56 0 2.56-2.56 2.56-5.12V768v-2.56l-7.68-23.04h-33.28l-7.68 15.36c0 2.56 0 2.56-2.56 5.12v5.12c0 2.56 0 5.12 2.56 5.12s5.12 2.56 7.68 2.56v7.68h-35.84v5.12z" fill="#231815" p-id="2378"></path><path d="M2380.8 696.32c0-5.12 0-10.24-2.56-10.24-2.56-2.56-7.68-2.56-15.36-2.56v-7.68H2406.4v7.68c-7.68 0-12.8 2.56-15.36 2.56-2.56 2.56-2.56 5.12-2.56 10.24v94.72h-5.12l-84.48-87.04V768c0 5.12 0 7.68 2.56 10.24 2.56 2.56 7.68 2.56 12.8 2.56v7.68h-40.96v-7.68c5.12 0 10.24-2.56 12.8-2.56 2.56-2.56 2.56-5.12 2.56-10.24v-64c0-7.68-2.56-12.8-5.12-17.92-2.56-2.56-7.68-5.12-15.36-5.12v-7.68H2304l76.8 76.8v-53.76z" fill="#231815" p-id="2379"></path><path d="M465.92 199.68C294.4 199.68 153.6 337.92 153.6 512c0 174.08 140.8 312.32 312.32 312.32S780.8 686.08 780.8 512c0-174.08-140.8-312.32-314.88-312.32z m158.72 263.68c7.68 5.12 0 15.36 2.56 23.04 0 5.12-2.56 10.24-7.68 12.8-5.12 2.56-10.24 2.56-15.36 2.56-5.12 7.68-23.04 7.68-17.92 20.48 0 5.12 7.68 12.8 12.8 15.36 7.68 2.56 17.92 0 23.04 2.56 2.56 15.36 2.56 33.28-5.12 46.08-10.24 5.12-15.36 17.92-28.16 15.36-5.12 2.56-12.8 7.68-15.36 12.8 0 12.8 12.8 7.68 20.48 15.36 7.68 0 15.36-5.12 23.04 0 12.8 12.8 2.56 30.72 2.56 46.08l-10.24 12.8c-7.68 2.56-17.92 5.12-28.16 7.68v2.56h-12.8c0-5.12-7.68-2.56-10.24-5.12-7.68 5.12-15.36-2.56-23.04-2.56-38.4 5.12-64-17.92-102.4-12.8-12.8-10.24-33.28-7.68-51.2-7.68-17.92 12.8-38.4 15.36-58.88 17.92-10.24 2.56-15.36-12.8-23.04-15.36 0-10.24-15.36-17.92-7.68-30.72 10.24-10.24 7.68-25.6 17.92-38.4 0-12.8 2.56-25.6-7.68-33.28 2.56-15.36 2.56-33.28 7.68-48.64 5.12-5.12 10.24-17.92 20.48-10.24 10.24 17.92 43.52-2.56 46.08 23.04 0 20.48-2.56 40.96-20.48 51.2-10.24 15.36-35.84-5.12-38.4 17.92-2.56 10.24 7.68 15.36 15.36 20.48 10.24-5.12 23.04-5.12 30.72-15.36 12.8 0 17.92-15.36 30.72-15.36 10.24 5.12 20.48 5.12 28.16 15.36 5.12 2.56 7.68 5.12 12.8 7.68 12.8 10.24 30.72-7.68 43.52 10.24 7.68 2.56 15.36 2.56 23.04 0 5.12-2.56 10.24-10.24 7.68-15.36 0-5.12 0-7.68-5.12-10.24-5.12-2.56-7.68 0-12.8 0-17.92 2.56-30.72-7.68-46.08-10.24-10.24-7.68-25.6-15.36-28.16-30.72-5.12-5.12-2.56-12.8-7.68-17.92 0-7.68 5.12-10.24 10.24-15.36 12.8-5.12 23.04 7.68 35.84 2.56 7.68-5.12 17.92-2.56 23.04-12.8 5.12-5.12 2.56-15.36-2.56-20.48-2.56-2.56-7.68-2.56-10.24 0-7.68 7.68-20.48 7.68-30.72 5.12-5.12-2.56-12.8-5.12-15.36-10.24 2.56-10.24 0-20.48 10.24-28.16 0-7.68-5.12-12.8-10.24-15.36-12.8 5.12-23.04-25.6-33.28-5.12 0 15.36 5.12 25.6 2.56 40.96-12.8 7.68-28.16 0-40.96 0-12.8-7.68-30.72-15.36-38.4-30.72 2.56-12.8-5.12-23.04 0-35.84-7.68-15.36 7.68-25.6 7.68-38.4 7.68-7.68 15.36-15.36 25.6-10.24 7.68 5.12 15.36 5.12 20.48 15.36 10.24 2.56 20.48 10.24 33.28 7.68 10.24-2.56 12.8-15.36 23.04-15.36 15.36 0 38.4 7.68 48.64-10.24 5.12-2.56 12.8-5.12 15.36-10.24H512c2.56 7.68 10.24 12.8 15.36 15.36 28.16 5.12 58.88 10.24 89.6 7.68 5.12 2.56 10.24 2.56 12.8 7.68 0 17.92-2.56 38.4-23.04 48.64-12.8 5.12-38.4-7.68-38.4 12.8 12.8 17.92 40.96 5.12 56.32 15.36z" fill="#C62824" p-id="2380"></path></svg>