<?xml version="1.0" standalone="no"?><!DOCTYPE svg PUBLIC "-//W3C//DTD SVG 1.1//EN" "http://www.w3.org/Graphics/SVG/1.1/DTD/svg11.dtd"><svg t="1531986200219" class="icon" style="" viewBox="0 0 2560 1024" version="1.1" xmlns="http://www.w3.org/2000/svg" p-id="5265" xmlns:xlink="http://www.w3.org/1999/xlink" width="500" height="200"><defs><style type="text/css"></style></defs><path d="M286.72 496.64m-133.12 0a133.12 133.12 0 1 0 266.24 0 133.12 133.12 0 1 0-266.24 0Z" fill="#E59628" p-id="5266"></path><path d="M448 473.6c15.36 5.12 28.16 15.36 28.16 28.16 0 12.8-10.24 23.04-28.16 28.16v-56.32zM307.2 442.88c-15.36-38.4 28.16-51.2 30.72-30.72 2.56-20.48 48.64-7.68 30.72 30.72l-30.72 53.76-30.72-53.76z m0 115.2c-15.36 38.4 28.16 51.2 30.72 30.72 2.56 20.48 48.64 7.68 30.72-30.72l-30.72-53.76-30.72 53.76z m107.52-89.6c5.12 0 10.24 0 17.92 2.56v64c-5.12 0-10.24 2.56-17.92 2.56v-69.12z m-12.8 66.56c-5.12 0-10.24-2.56-15.36-2.56v-61.44c5.12-2.56 10.24-2.56 15.36-2.56v66.56z m-25.6-7.68v-51.2c-12.8 5.12-20.48 15.36-20.48 25.6s7.68 20.48 20.48 25.6z m-76.8-48.64c-7.68 0-15.36 5.12-20.48 15.36-17.92-5.12-46.08-35.84-46.08-35.84H230.4c-2.56 0 10.24 12.8 25.6 25.6 7.68 5.12 17.92 12.8 23.04 15.36V506.88c-5.12 2.56-12.8 7.68-23.04 15.36-15.36 12.8-28.16 25.6-25.6 25.6h2.56s28.16-30.72 46.08-35.84c2.56 7.68 10.24 12.8 17.92 12.8 10.24 0 20.48-10.24 20.48-23.04 2.56-12.8-5.12-23.04-17.92-23.04z" fill="#FFFFFF" p-id="5267"></path><path d="M604.16 545.28c0 12.8-7.68 17.92-23.04 17.92-10.24 0-12.8-5.12-15.36-12.8 0-5.12 2.56-10.24 5.12-10.24 2.56-2.56 5.12-2.56 12.8-2.56 10.24-2.56 17.92-2.56 17.92-7.68v15.36h2.56z m46.08-53.76c0-25.6-23.04-38.4-64-38.4-35.84 2.56-56.32 12.8-58.88 33.28 0 10.24 5.12 17.92 15.36 17.92 5.12 0 10.24-2.56 17.92-7.68 7.68-7.68 15.36-10.24 23.04-10.24 12.8 0 17.92 5.12 17.92 12.8s-7.68 12.8-25.6 12.8c-40.96 2.56-61.44 17.92-61.44 40.96 0 25.6 15.36 38.4 46.08 38.4 20.48 0 35.84-5.12 43.52-17.92 2.56 12.8 10.24 17.92 23.04 17.92 15.36 0 23.04-5.12 23.04-15.36v-10.24-74.24zM742.4 568.32c0 15.36 7.68 23.04 23.04 23.04 15.36 0 23.04-7.68 23.04-23.04v-64c0-33.28-15.36-51.2-43.52-51.2-17.92 0-30.72 7.68-38.4 25.6-2.56-17.92-7.68-25.6-20.48-25.6-15.36 0-20.48 7.68-20.48 25.6v89.6c0 15.36 7.68 23.04 23.04 23.04 15.36 0 23.04-7.68 23.04-23.04v-46.08c0-17.92 5.12-25.6 15.36-25.6 10.24 0 17.92 7.68 17.92 23.04v48.64zM860.16 501.76v-71.68c0-17.92-7.68-28.16-20.48-28.16-15.36 0-23.04 10.24-23.04 28.16v138.24c0 15.36 7.68 23.04 23.04 23.04 15.36 0 20.48-7.68 20.48-23.04v-12.8l10.24-10.24 12.8 25.6c5.12 10.24 10.24 15.36 12.8 17.92 2.56 2.56 7.68 2.56 12.8 2.56 15.36 0 23.04-7.68 23.04-20.48 0-5.12-2.56-12.8-7.68-23.04l-23.04-35.84 15.36-17.92c5.12-5.12 7.68-10.24 7.68-17.92 0-12.8-7.68-20.48-20.48-23.04-7.68 0-12.8 2.56-17.92 10.24l-25.6 38.4zM506.88 550.4c0-25.6-10.24-43.52-28.16-48.64 15.36-5.12 28.16-28.16 28.16-48.64 0-48.64-46.08-46.08-51.2-46.08h-76.8v184.32h76.8c2.56 0 51.2 7.68 51.2-40.96z m-58.88-76.8c15.36 5.12 28.16 15.36 28.16 28.16 0 12.8-10.24 23.04-28.16 28.16v-56.32z m-33.28-5.12c5.12 0 10.24 0 17.92 2.56v64c-5.12 0-10.24 2.56-17.92 2.56v-69.12z m-12.8 66.56c-5.12 0-10.24-2.56-15.36-2.56v-61.44c5.12-2.56 10.24-2.56 15.36-2.56v66.56z" fill="#009844" p-id="5268"></path><path d="M1141.76 355.84l-64 71.68-7.68-35.84 5.12-7.68 7.68-7.68 7.68-7.68 2.56-10.24 5.12 5.12 5.12 5.12 5.12 5.12 7.68 2.56 10.24-7.68 10.24-10.24 10.24-5.12 12.8 5.12c5.12 0 7.68 2.56 10.24 7.68l2.56 10.24c0 7.68-2.56 10.24-2.56 12.8l-7.68 10.24-10.24 2.56 10.24 7.68 2.56 10.24-2.56 10.24-10.24 7.68-17.92 20.48c2.56-2.56 7.68-7.68 12.8-7.68l15.36-2.56 12.8 5.12 10.24 12.8 7.68-5.12 2.56-7.68 2.56-7.68-2.56-10.24-5.12-5.12 2.56-5.12 5.12-7.68 2.56-7.68c10.24 7.68 17.92 17.92 23.04 33.28 12.8-10.24 25.6-23.04 38.4-38.4l10.24 5.12 10.24 10.24 5.12 10.24c0 2.56 0 7.68-2.56 12.8l-23.04 53.76c5.12 2.56 12.8 5.12 17.92 12.8 5.12 7.68 10.24 15.36 12.8 25.6l5.12 23.04c-2.56 10.24-5.12 17.92-7.68 23.04l-5.12 12.8-51.2-17.92-10.24 10.24-2.56 17.92V637.44c0 7.68-2.56 17.92-5.12 25.6-2.56 10.24-5.12 17.92-7.68 23.04l-5.12-2.56-2.56-2.56v-10.24l-5.12-112.64-2.56-5.12-5.12-5.12-5.12-2.56c-5.12 10.24-10.24 17.92-17.92 25.6l-23.04 17.92-25.6 12.8-25.6 12.8c-5.12 2.56-10.24 2.56-12.8 0-5.12-5.12-7.68-7.68-7.68-10.24l2.56-10.24c2.56-2.56 5.12-5.12 12.8-7.68l23.04-7.68H1100.8l-10.24-2.56-7.68-2.56-2.56-7.68c0-5.12 2.56-7.68 5.12-10.24l10.24-7.68 10.24-7.68 5.12-10.24h-7.68l-5.12 5.12-7.68 5.12-10.24 2.56c-7.68 0-10.24-2.56-12.8-7.68l10.24-10.24 12.8-7.68 12.8-5.12 12.8-7.68c5.12-10.24 2.56-15.36-5.12-20.48-15.36 20.48-35.84 38.4-58.88 53.76l-7.68-10.24-2.56-12.8 2.56-10.24c5.12-2.56 7.68-5.12 10.24-5.12 25.6-20.48 46.08-43.52 64-64-20.48 12.8-38.4 25.6-53.76 40.96-15.36-2.56-23.04-10.24-23.04-23.04l23.04-7.68 20.48-10.24 20.48-12.8 15.36-17.92c12.8-12.8 20.48-28.16 28.16-46.08h-7.68v-2.56z m-7.68 135.68l10.24-5.12 10.24-7.68 7.68-7.68c0-2.56 2.56-5.12 2.56-12.8l-20.48 12.8c-7.68 5.12-10.24 10.24-10.24 20.48z m7.68 76.8l-7.68 7.68 20.48-7.68c7.68-5.12 12.8-10.24 15.36-15.36l10.24-20.48 5.12-23.04 2.56 10.24 2.56 10.24 2.56 7.68 5.12 7.68 2.56-71.68-2.56-5.12-5.12-2.56-2.56 5.12c-5.12 12.8-17.92 23.04-33.28 28.16 2.56 0 2.56 2.56 5.12 7.68l-2.56 7.68-7.68 7.68-7.68 5.12 5.12 7.68 5.12 7.68 2.56 7.68-5.12 7.68-10.24 10.24z m71.68-12.8c20.48 0 35.84-2.56 48.64-10.24l-2.56-12.8-10.24-7.68-12.8-2.56-15.36-2.56c-2.56-7.68-2.56-12.8-2.56-17.92 0-10.24 5.12-20.48 15.36-28.16 5.12-7.68 10.24-15.36 12.8-25.6-7.68 2.56-15.36 7.68-17.92 7.68-2.56 2.56-7.68 5.12-15.36 10.24v17.92c0 17.92-2.56 35.84-5.12 53.76v17.92h5.12z m240.64-110.08c0 2.56 2.56 7.68 7.68 15.36-2.56 5.12-5.12 10.24-5.12 17.92v20.48l-2.56 20.48c0 5.12-2.56 12.8-7.68 17.92-2.56 7.68-5.12 12.8-5.12 17.92 0 5.12 2.56 10.24 5.12 17.92 5.12-7.68 10.24-15.36 10.24-23.04l2.56-25.6 2.56-25.6c0-10.24 0-17.92 2.56-23.04l2.56-17.92 2.56-17.92-2.56-17.92-7.68-15.36-5.12-2.56 7.68-5.12 5.12 2.56 12.8 10.24 10.24 12.8 5.12 15.36c-2.56 7.68-5.12 12.8-7.68 15.36l-2.56 7.68v12.8l2.56 5.12c7.68 0 12.8-2.56 17.92-5.12 5.12-5.12 10.24-10.24 12.8-17.92l7.68-20.48 5.12-23.04-2.56-7.68 2.56-7.68s2.56-2.56 7.68-2.56c5.12 0 7.68 2.56 7.68 2.56l12.8 10.24c2.56 2.56 2.56 7.68 2.56 15.36l-2.56 17.92-5.12 15.36h10.24l10.24 2.56 7.68-2.56 5.12-7.68 7.68-25.6 2.56 20.48-2.56 20.48-2.56 20.48v23.04l-5.12 2.56-7.68-2.56-7.68-10.24-5.12-7.68-2.56-5.12-2.56-5.12-2.56-5.12-2.56 2.56c-2.56 38.4-5.12 61.44-7.68 69.12V588.8c2.56 5.12 2.56 10.24-2.56 12.8l-12.8-12.8-10.24-20.48c-2.56-5.12-2.56-12.8-2.56-23.04 2.56-10.24 5.12-15.36 7.68-20.48l2.56-28.16 5.12-28.16 2.56-28.16c0-12.8 0-20.48-2.56-25.6l-2.56 23.04-7.68 23.04-5.12 25.6 2.56 25.6-5.12 5.12-7.68-2.56-7.68-5.12-2.56-7.68c-5.12-5.12-10.24-10.24-20.48-10.24v58.88l-7.68 28.16c-2.56 7.68-7.68 15.36-17.92 23.04-5.12-2.56-10.24-5.12-15.36-12.8l-5.12-17.92 2.56-17.92 5.12-17.92 2.56-5.12 2.56-5.12-5.12-5.12c-2.56 0-7.68-2.56-12.8-5.12l-10.24-12.8-5.12-15.36-5.12-15.36V460.8l5.12 7.68 10.24 5.12h10.24c5.12-2.56 7.68-5.12 7.68-7.68l10.24-28.16v7.68h2.56z m151.04-87.04l-2.56-5.12-2.56-7.68 2.56-5.12h10.24l15.36 5.12c5.12 5.12 10.24 7.68 12.8 12.8l5.12 12.8c0 5.12-2.56 10.24-7.68 17.92l-10.24 35.84-5.12 35.84v76.8l5.12 33.28 5.12 35.84 2.56 35.84c-2.56 15.36-5.12 25.6-7.68 33.28l-12.8-7.68-10.24-12.8-2.56-15.36c0-2.56 0-7.68 2.56-15.36l-2.56-35.84 2.56-35.84v-33.28l-2.56-33.28 5.12-92.16 2.56-7.68 2.56-10.24v-10.24c-2.56-5.12-5.12-7.68-7.68-7.68z m343.04 294.4c-5.12-2.56-10.24-5.12-15.36-12.8-5.12-7.68-7.68-12.8-10.24-23.04l-2.56-20.48v-23.04l12.8-128c-7.68 0-12.8-5.12-12.8-12.8-10.24 5.12-20.48 10.24-28.16 20.48l5.12 5.12 7.68 7.68 2.56 7.68-5.12 10.24-5.12 2.56-10.24 7.68-5.12 7.68 2.56 7.68c12.8 0 20.48 5.12 23.04 17.92l-10.24 5.12-10.24 2.56-7.68 5.12-5.12 10.24-5.12 30.72 12.8-5.12 12.8-10.24 10.24-12.8 7.68-12.8-2.56 17.92-7.68 17.92-10.24 17.92-10.24 17.92-12.8 25.6c-7.68-2.56-12.8-5.12-15.36-10.24-2.56-5.12-5.12-10.24-5.12-15.36l2.56-20.48 2.56-17.92 5.12-17.92c-15.36 10.24-30.72 17.92-46.08 17.92l-2.56-10.24 2.56-10.24 5.12-7.68 10.24-5.12c12.8-7.68 20.48-17.92 28.16-28.16l-7.68-5.12-10.24-5.12-7.68-5.12-2.56-10.24c20.48-5.12 38.4-17.92 48.64-35.84l-7.68-5.12-7.68-2.56h-7.68l-5.12 5.12-12.8 17.92-10.24 15.36-12.8 15.36-15.36 15.36-5.12 2.56-5.12 5.12-5.12 2.56-2.56-5.12v-10.24c2.56-2.56 2.56-7.68 2.56-7.68l12.8-15.36 15.36-12.8 12.8-15.36 12.8-17.92 12.8-20.48c5.12-5.12 7.68-12.8 10.24-23.04l5.12-23.04-5.12-10.24c5.12 0 10.24 2.56 15.36 5.12l12.8 10.24c2.56 2.56 2.56 7.68 5.12 12.8 0 5.12 0 10.24-5.12 15.36l-17.92 15.36 15.36-5.12 12.8-7.68 12.8-2.56c5.12 2.56 7.68 5.12 12.8 10.24l2.56 5.12 2.56 5.12 7.68-2.56 15.36-12.8 17.92-12.8 17.92-10.24c7.68-2.56 12.8-2.56 20.48-2.56l12.8 10.24c5.12 5.12 10.24 7.68 12.8 12.8 2.56 2.56 5.12 7.68 5.12 15.36 0 2.56-2.56 5.12-2.56 7.68 0 2.56-2.56 5.12-5.12 7.68l-23.04 56.32 7.68 5.12-2.56 5.12-5.12 5.12-7.68-2.56c-12.8 2.56-25.6 5.12-33.28 12.8-7.68 7.68-15.36 15.36-20.48 25.6-5.12 10.24-7.68 23.04-7.68 35.84 0 12.8 2.56 25.6 7.68 35.84l48.64-40.96-10.24-2.56h-10.24l-10.24-2.56-10.24-7.68c2.56-7.68 5.12-10.24 7.68-12.8l12.8-7.68 12.8-5.12 12.8-10.24 5.12-7.68 5.12-10.24 5.12-5.12 10.24 5.12 5.12 2.56 5.12 5.12 2.56 7.68-5.12 5.12c-10.24 10.24-23.04 20.48-38.4 25.6l23.04 5.12 25.6 7.68 20.48 15.36c5.12 5.12 10.24 15.36 12.8 25.6l-5.12 5.12h-10.24l-5.12-2.56-2.56-5.12c-15.36-15.36-35.84-25.6-58.88-30.72l-15.36 25.6-7.68 15.36-7.68 12.8-7.68 12.8-7.68 10.24z m46.08-215.04l2.56-7.68 2.56-7.68 2.56-7.68-5.12-7.68-10.24 10.24-12.8 5.12-12.8 5.12-12.8 5.12c0 10.24-2.56 20.48-7.68 28.16l28.16-17.92c10.24-7.68 17.92-7.68 25.6-5.12z m-35.84 38.4c-7.68 0-12.8 5.12-10.24 15.36l-7.68 20.48c23.04-5.12 40.96-20.48 48.64-43.52l-2.56-7.68c-7.68 10.24-17.92 17.92-30.72 23.04 2.56-5.12 2.56-7.68 2.56-7.68z m189.44 69.12c2.56-15.36 7.68-25.6 15.36-35.84v15.36c23.04-20.48 43.52-46.08 58.88-76.8l2.56-10.24-5.12-2.56-7.68-2.56-7.68 5.12-12.8 5.12-2.56-12.8v-12.8l5.12-10.24 12.8-5.12c12.8-7.68 17.92-17.92 20.48-33.28 2.56 0 5.12-2.56 10.24-2.56l10.24 7.68 7.68 10.24 7.68 10.24 2.56 7.68-2.56 7.68h-2.56l-7.68 5.12-7.68 2.56-7.68 5.12-5.12 5.12 2.56 5.12c5.12 7.68 7.68 15.36 7.68 23.04 0 10.24-5.12 20.48-15.36 28.16-10.24 23.04-17.92 46.08-17.92 71.68 0 10.24 0 20.48 2.56 25.6 2.56-17.92 7.68-38.4 15.36-58.88l-12.8 104.96c-5.12-2.56-10.24-7.68-15.36-12.8l-5.12-17.92 2.56-20.48 2.56-20.48 2.56-40.96-40.96 38.4-5.12 5.12H2150.4l-5.12-2.56v-10.24h2.56z m125.44-128l10.24-2.56 7.68-2.56 10.24-2.56 7.68 5.12c7.68 2.56 7.68 10.24 5.12 17.92l-10.24 12.8-10.24 15.36-12.8 10.24-15.36 5.12-10.24 7.68-2.56 10.24 2.56 10.24 7.68 10.24 15.36-7.68 15.36-7.68 15.36-5.12h20.48l2.56 74.24-2.56 7.68v10.24l-2.56 7.68-7.68 5.12H2304l-15.36-5.12-15.36-7.68-15.36-7.68c12.8 17.92 25.6 30.72 35.84 40.96 10.24 10.24 23.04 20.48 35.84 28.16l20.48-28.16 2.56-81.92v-25.6l-2.56-12.8V486.4c7.68-5.12 17.92-7.68 28.16-7.68 10.24 0 15.36 0 20.48 2.56l7.68-10.24-2.56-10.24-7.68-10.24c-2.56-2.56-5.12-2.56-10.24-5.12l-87.04 20.48c23.04-17.92 43.52-40.96 58.88-64 0-10.24-7.68-17.92-17.92-23.04-23.04 5.12-46.08 17.92-66.56 38.4z" fill="#231815" p-id="5269"></path></svg>