<?xml version="1.0" standalone="no"?><!DOCTYPE svg PUBLIC "-//W3C//DTD SVG 1.1//EN" "http://www.w3.org/Graphics/SVG/1.1/DTD/svg11.dtd"><svg t="1531986164857" class="icon" style="" viewBox="0 0 2560 1024" version="1.1" xmlns="http://www.w3.org/2000/svg" p-id="4095" xmlns:xlink="http://www.w3.org/1999/xlink" width="500" height="200"><defs><style type="text/css"></style></defs><path d="M542.72 458.24c97.28 0 181.76 7.68 256 23.04 43.52 10.24 79.36 17.92 110.08 30.72L529.92 133.12 153.6 509.44c33.28-12.8 74.24-23.04 125.44-30.72 79.36-12.8 168.96-20.48 263.68-20.48z" fill="#FDD000" p-id="4096"></path><path d="M529.92 890.88l376.32-376.32c-53.76-5.12-125.44-5.12-215.04 2.56-97.28 7.68-161.28 15.36-199.68 28.16-33.28 10.24-51.2 25.6-46.08 40.96 0 5.12 2.56 12.8 7.68 17.92l10.24 7.68c12.8 10.24 20.48 12.8 23.04 15.36 12.8 10.24 15.36 23.04 12.8 38.4-5.12 20.48-46.08 43.52-125.44 66.56l156.16 158.72z" fill="#293C90" p-id="4097"></path><path d="M1113.6 552.96V286.72c0-2.56 0-5.12-2.56-10.24s-2.56-10.24 0-12.8c2.56-2.56 12.8 0 28.16 5.12 15.36 2.56 20.48 5.12 23.04 7.68 0 2.56-2.56 5.12-7.68 7.68l-2.56 2.56v107.52h64c5.12-12.8 15.36-23.04 23.04-30.72h5.12c15.36 12.8 28.16 23.04 40.96 30.72 2.56 5.12 0 7.68-2.56 7.68H1152v153.6h87.04c7.68-12.8 15.36-20.48 25.6-28.16h5.12c20.48 12.8 35.84 20.48 40.96 28.16 2.56 2.56 2.56 5.12-2.56 7.68H1016.32c-2.56 0-10.24 0-23.04 2.56l-7.68-10.24c2.56 0 7.68 0 10.24 2.56h117.76v-5.12zM1520.64 371.2c20.48 5.12 33.28 17.92 35.84 30.72 0 12.8-5.12 20.48-15.36 23.04-12.8 2.56-17.92-2.56-17.92-15.36 0-2.56 0-5.12 2.56-7.68 2.56-5.12 0-15.36-5.12-28.16-5.12-2.56-5.12-2.56 0-2.56z m-10.24 79.36s0-2.56 2.56-2.56c20.48 5.12 33.28 17.92 35.84 35.84 0 10.24-7.68 15.36-17.92 17.92-12.8 0-17.92-2.56-17.92-12.8 0 0 0-2.56 2.56-7.68 5.12-7.68 2.56-17.92-5.12-30.72z m-7.68-87.04l-12.8 66.56h94.72V363.52h-81.92z m-12.8 76.8l-15.36 71.68v2.56h94.72c5.12-17.92 10.24-40.96 12.8-74.24h-92.16z m38.4-163.84l-10.24 5.12c-5.12 10.24-12.8 17.92-15.36 20.48-2.56 2.56-2.56 5.12-5.12 7.68h104.96V307.2c10.24-15.36 17.92-23.04 23.04-25.6h5.12c23.04 12.8 35.84 23.04 38.4 28.16 0 2.56 0 5.12-2.56 5.12h-174.08c-17.92 23.04-38.4 40.96-56.32 58.88-2.56 2.56-2.56 0-2.56-2.56 20.48-38.4 35.84-79.36 46.08-117.76 0 0 2.56-2.56 5.12-2.56l15.36 7.68c12.8 5.12 23.04 7.68 28.16 10.24v7.68z m-48.64 243.2l-12.8 10.24c-2.56 2.56-2.56 2.56-5.12 2.56-12.8-12.8-20.48-20.48-23.04-25.6 0 0-2.56 0-2.56-2.56l2.56-2.56c7.68-7.68 12.8-28.16 20.48-61.44h-28.16l-7.68-10.24c2.56 0 7.68 2.56 10.24 2.56h25.6c7.68-38.4 10.24-66.56 12.8-84.48 0-2.56 2.56-2.56 5.12-2.56 12.8 5.12 23.04 10.24 28.16 12.8h71.68l5.12-5.12c5.12-2.56 7.68-5.12 10.24-7.68h5.12c7.68 5.12 20.48 10.24 30.72 20.48v5.12c-2.56 0-5.12 2.56-7.68 5.12-2.56 2.56-5.12 2.56-5.12 2.56V435.2h5.12c7.68-10.24 15.36-17.92 20.48-23.04h5.12c12.8 7.68 23.04 17.92 30.72 25.6 0 2.56 0 5.12-2.56 5.12h-58.88c0 15.36 0 28.16-2.56 40.96 0 12.8-2.56 23.04-5.12 35.84h2.56c5.12-10.24 12.8-17.92 20.48-23.04h5.12c12.8 7.68 23.04 15.36 30.72 25.6 0 2.56 0 5.12-2.56 5.12h-56.32c-10.24 35.84-30.72 53.76-61.44 53.76-2.56 0-5.12 0-5.12-2.56-5.12-17.92-15.36-28.16-30.72-30.72-2.56-10.24 0-10.24 2.56-10.24 25.6 7.68 46.08 2.56 56.32-15.36h-89.6v-2.56z m-84.48-209.92c-2.56-2.56-2.56-5.12-2.56-10.24 0-10.24-5.12-20.48-17.92-30.72-2.56 0-2.56 0-2.56-2.56 0 0 2.56-2.56 5.12-2.56 28.16 2.56 46.08 12.8 51.2 28.16 2.56 10.24-2.56 17.92-12.8 23.04-7.68 5.12-15.36 2.56-20.48-5.12z m-28.16 79.36c-2.56-2.56-2.56-5.12-5.12-12.8 0-10.24-5.12-20.48-12.8-30.72-2.56 0-2.56 0-2.56-2.56 0 0 2.56-2.56 5.12-2.56 23.04 5.12 38.4 15.36 43.52 28.16 2.56 10.24 0 17.92-7.68 23.04-7.68 7.68-15.36 5.12-20.48-2.56z m74.24-74.24c-20.48 84.48-33.28 140.8-38.4 168.96-2.56 12.8 0 25.6 7.68 40.96 5.12 10.24 7.68 17.92 7.68 20.48-2.56 15.36-10.24 23.04-25.6 23.04-17.92-2.56-25.6-10.24-23.04-25.6V512c-2.56-20.48-12.8-30.72-23.04-30.72-2.56 0-2.56-2.56-2.56-5.12s2.56-2.56 5.12-2.56c23.04 10.24 51.2-40.96 87.04-158.72 0 0 0-2.56 2.56-2.56 0 0 2.56 0 2.56 2.56zM1935.36 407.04h-35.84v112.64c30.72-17.92 46.08-25.6 46.08-25.6-5.12-23.04-10.24-51.2-10.24-87.04z m-35.84-58.88v51.2h76.8v-51.2h-76.8z m0-58.88v51.2h76.8v-51.2h-76.8zM1868.8 532.48v-235.52l-2.56-28.16c0-2.56 0-2.56 2.56-2.56 20.48 7.68 35.84 12.8 40.96 15.36h64l5.12-5.12c5.12-5.12 7.68-10.24 10.24-10.24 12.8 5.12 23.04 10.24 30.72 17.92 0 2.56-2.56 5.12-7.68 10.24l-2.56 2.56V409.6c-17.92 10.24-28.16 10.24-30.72 0v-7.68h-35.84c5.12 25.6 12.8 48.64 23.04 69.12 12.8-15.36 23.04-33.28 30.72-53.76 2.56 0 5.12-2.56 7.68-2.56 5.12 2.56 10.24 7.68 20.48 15.36 2.56 2.56 7.68 2.56 10.24 5.12v5.12c-2.56 0-5.12 2.56-7.68 2.56-2.56 0-5.12 2.56-5.12 2.56-5.12 2.56-7.68 7.68-12.8 10.24-12.8 10.24-25.6 17.92-35.84 25.6 17.92 28.16 38.4 46.08 64 53.76 2.56 2.56 2.56 5.12 2.56 7.68-17.92 5.12-30.72 12.8-38.4 25.6h-7.68c-20.48-23.04-35.84-46.08-43.52-69.12l-35.84 35.84c-17.92 17.92-28.16 28.16-35.84 38.4-5.12 0-7.68 0-7.68-2.56-2.56-2.56-5.12-7.68-12.8-17.92-5.12-5.12-7.68-7.68-7.68-10.24-2.56-2.56-2.56-5.12 2.56-7.68 0 2.56 5.12 0 15.36-2.56z m-64-17.92l56.32-28.16c2.56 0 2.56 0 5.12 2.56v5.12c-33.28 33.28-58.88 58.88-76.8 79.36-2.56 2.56-5.12 2.56-10.24 0l-20.48-35.84s0-2.56 2.56-5.12l12.8-7.68v-84.48h-38.4l-7.68-10.24c2.56 0 7.68 2.56 12.8 2.56h35.84v-46.08h-25.6l-10.24-10.24c2.56 0 7.68 2.56 12.8 2.56h51.2c5.12-5.12 10.24-12.8 17.92-20.48h5.12c12.8 10.24 20.48 17.92 23.04 23.04 0 2.56-2.56 2.56-2.56 5.12H1817.6s0 2.56-2.56 2.56h-2.56l-7.68 7.68v35.84h10.24c5.12-5.12 10.24-12.8 17.92-20.48h5.12c12.8 10.24 20.48 17.92 23.04 23.04 0 2.56-2.56 2.56-2.56 5.12h-53.76v74.24z m5.12-238.08l-17.92 7.68c-2.56 5.12-5.12 10.24-10.24 17.92-5.12 7.68-7.68 15.36-10.24 17.92h43.52s5.12-5.12 10.24-12.8c2.56-5.12 5.12-7.68 7.68-10.24h5.12c10.24 7.68 17.92 17.92 23.04 23.04 0 2.56-2.56 5.12-2.56 5.12H1766.4c-12.8 20.48-25.6 38.4-43.52 56.32-2.56 2.56-2.56 2.56-5.12 2.56v-5.12c15.36-25.6 28.16-66.56 38.4-122.88 0 0 2.56-2.56 7.68-2.56l46.08 15.36v7.68zM2237.44 291.84h84.48s5.12-5.12 10.24-12.8c5.12-5.12 7.68-10.24 10.24-12.8h5.12c15.36 10.24 28.16 17.92 33.28 25.6 2.56 2.56 2.56 5.12-2.56 7.68h-143.36l-7.68-10.24c2.56 2.56 5.12 2.56 10.24 2.56z m74.24 240.64v-143.36h-79.36c-7.68 0-15.36 2.56-20.48 2.56l-7.68-10.24c2.56 0 7.68 2.56 12.8 2.56h122.88c2.56-2.56 5.12-5.12 10.24-12.8s10.24-12.8 12.8-15.36h5.12s0 2.56 2.56 2.56c20.48 12.8 33.28 23.04 35.84 25.6 0 2.56-2.56 5.12-5.12 5.12h-43.52l-7.68 7.68c-2.56 2.56-5.12 5.12-5.12 7.68v94.72c0 15.36 0 28.16 2.56 38.4 0 5.12 2.56 10.24 2.56 15.36 0 7.68-15.36 15.36-43.52 17.92-2.56 0-5.12-2.56-5.12-5.12-5.12-15.36-17.92-25.6-35.84-28.16-2.56 0-2.56 0-2.56-2.56s0-2.56 2.56-2.56c17.92 2.56 33.28 2.56 46.08 0z m-128-122.88v153.6c-2.56 2.56-7.68 7.68-20.48 10.24-10.24 0-15.36 0-15.36-5.12v-151.04c-17.92 15.36-35.84 28.16-56.32 38.4-2.56 0-2.56 0-2.56-5.12 28.16-28.16 56.32-69.12 79.36-120.32h5.12c10.24 5.12 23.04 15.36 38.4 23.04v5.12c-2.56 0-2.56 2.56-5.12 2.56s-7.68 2.56-10.24 2.56c-7.68 7.68-15.36 15.36-20.48 23.04 7.68 2.56 10.24 5.12 12.8 5.12 2.56 2.56 2.56 5.12 2.56 7.68-7.68 5.12-7.68 7.68-7.68 10.24z m-10.24-148.48c15.36 10.24 25.6 20.48 35.84 28.16 0 2.56 0 5.12-2.56 5.12-7.68 0-12.8 2.56-15.36 5.12-38.4 30.72-74.24 48.64-104.96 58.88-2.56 0-2.56-2.56-2.56-5.12 25.6-17.92 53.76-48.64 81.92-92.16h7.68zM1029.12 737.28h15.36c15.36 0 23.04-7.68 23.04-23.04 0-10.24-2.56-15.36-7.68-20.48-2.56-2.56-5.12-2.56-7.68-5.12h-23.04v48.64z m0-58.88h10.24c7.68 0 15.36-2.56 17.92-5.12 5.12-5.12 7.68-10.24 7.68-20.48 0-15.36-7.68-23.04-23.04-23.04h-12.8v48.64z m-20.48-56.32H1049.6c10.24 0 17.92 2.56 25.6 7.68 7.68 5.12 10.24 12.8 10.24 25.6 0 10.24-5.12 20.48-12.8 25.6-2.56 2.56-7.68 2.56-12.8 5.12 5.12 0 10.24 2.56 12.8 5.12 10.24 5.12 15.36 15.36 15.36 25.6 0 12.8-5.12 20.48-12.8 28.16-5.12 5.12-12.8 7.68-23.04 7.68h-46.08v-120.32c2.56-7.68 2.56-10.24 2.56-10.24zM1159.68 688.64c-2.56 2.56-5.12 2.56-5.12 2.56s-5.12 2.56-15.36 5.12c-7.68 2.56-10.24 5.12-15.36 10.24-2.56 2.56-5.12 7.68-5.12 12.8s2.56 10.24 5.12 12.8c2.56 2.56 7.68 5.12 12.8 5.12 7.68 0 12.8-2.56 17.92-10.24 2.56-5.12 5.12-7.68 5.12-12.8v-25.6z m0 46.08l-10.24 10.24c-5.12 2.56-12.8 5.12-20.48 5.12-7.68 0-12.8-2.56-17.92-7.68-5.12-5.12-7.68-12.8-7.68-20.48 0-10.24 5.12-17.92 12.8-23.04 2.56-2.56 7.68-5.12 10.24-5.12 2.56 0 10.24-2.56 20.48-7.68 5.12-2.56 7.68-2.56 10.24-5.12 2.56-2.56 2.56-5.12 2.56-7.68 0-5.12-2.56-7.68-5.12-10.24-2.56-2.56-7.68-5.12-12.8-5.12s-7.68 0-12.8 2.56c-2.56 2.56-7.68 5.12-12.8 7.68l-2.56-12.8c7.68-2.56 12.8-5.12 17.92-7.68 5.12 0 10.24-2.56 17.92-2.56 10.24 0 17.92 2.56 23.04 5.12 5.12 5.12 7.68 10.24 7.68 17.92v58.88c0 5.12 2.56 7.68 5.12 7.68s2.56 0 7.68-2.56v10.24c-5.12 2.56-10.24 5.12-15.36 5.12-5.12 0-7.68 0-10.24-2.56-5.12 0-5.12-5.12-7.68-10.24zM1203.2 650.24h20.48v12.8c2.56-5.12 5.12-7.68 10.24-10.24 5.12-5.12 12.8-5.12 20.48-5.12 10.24 0 20.48 2.56 25.6 10.24 2.56 5.12 5.12 10.24 5.12 17.92V747.52h-20.48v-69.12c0-5.12-2.56-10.24-5.12-12.8-2.56-2.56-7.68-5.12-12.8-5.12-7.68 0-12.8 2.56-17.92 5.12-5.12 5.12-5.12 10.24-5.12 17.92v64H1203.2v-92.16c2.56-2.56 0-5.12 0-5.12zM1328.64 696.32v51.2h-20.48V616.96v-5.12h23.04v76.8l33.28-35.84c0-2.56 2.56-2.56 2.56-5.12h15.36l-5.12 5.12-30.72 30.72 46.08 56.32 5.12 5.12h-25.6c-2.56-2.56-2.56-5.12-2.56-5.12l-40.96-43.52zM1492.48 655.36c-2.56 0-7.68 0-10.24 2.56l-7.68 7.68c-5.12 7.68-7.68 17.92-7.68 33.28 0 12.8 2.56 25.6 7.68 33.28l7.68 7.68c2.56 2.56 7.68 2.56 10.24 2.56 2.56 0 7.68 0 10.24-2.56l7.68-7.68c5.12-7.68 7.68-17.92 7.68-33.28 0-12.8-2.56-25.6-7.68-33.28-2.56-7.68-10.24-10.24-17.92-10.24z m0-7.68c15.36 0 25.6 5.12 33.28 15.36 7.68 10.24 10.24 20.48 10.24 35.84 0 15.36-5.12 28.16-12.8 38.4-7.68 7.68-17.92 12.8-33.28 12.8-15.36 0-25.6-5.12-33.28-15.36-7.68-10.24-12.8-23.04-12.8-38.4s5.12-25.6 12.8-35.84c10.24-7.68 23.04-12.8 35.84-12.8zM1561.6 657.92h-10.24v-10.24h10.24v-17.92c0-7.68 2.56-12.8 5.12-15.36 5.12-5.12 12.8-7.68 23.04-7.68 5.12 0 15.36 2.56 23.04 5.12l-5.12 10.24c-5.12-2.56-10.24-5.12-15.36-5.12-5.12 0-7.68 0-10.24 2.56-2.56 2.56-2.56 5.12-2.56 10.24v15.36h28.16v10.24h-28.16v92.16h-20.48v-89.6h2.56zM1661.44 739.84l5.12-15.36 7.68 7.68c7.68 5.12 12.8 7.68 20.48 7.68 7.68 0 12.8-2.56 17.92-7.68 5.12-5.12 5.12-10.24 5.12-15.36 0-7.68-2.56-12.8-7.68-17.92-2.56-2.56-10.24-5.12-17.92-10.24-10.24-5.12-17.92-10.24-23.04-15.36-5.12-5.12-7.68-12.8-7.68-20.48 0-7.68 2.56-12.8 5.12-17.92 7.68-10.24 20.48-15.36 35.84-15.36 10.24 0 20.48 2.56 28.16 7.68v12.8c-10.24-7.68-17.92-10.24-25.6-10.24-7.68 0-12.8 2.56-15.36 5.12-2.56 2.56-5.12 7.68-5.12 12.8s2.56 10.24 5.12 12.8c2.56 2.56 10.24 7.68 20.48 12.8 12.8 5.12 20.48 10.24 23.04 15.36 5.12 7.68 7.68 12.8 7.68 23.04 0 7.68-2.56 12.8-5.12 20.48-7.68 12.8-20.48 17.92-38.4 17.92-5.12 0-12.8 0-17.92-2.56-5.12-2.56-10.24-5.12-17.92-7.68zM1758.72 747.52V616.96v-5.12h20.48v48.64c5.12-5.12 7.68-10.24 12.8-12.8 5.12-2.56 10.24-2.56 17.92-2.56 10.24 0 17.92 2.56 23.04 7.68 5.12 5.12 7.68 12.8 7.68 20.48V747.52h-20.48v-64c0-7.68-2.56-12.8-5.12-15.36-2.56-2.56-7.68-5.12-15.36-5.12s-12.8 2.56-17.92 5.12c-5.12 5.12-5.12 10.24-5.12 15.36v64h-17.92zM1912.32 688.64c-2.56 2.56-2.56 2.56-5.12 2.56 0 0-5.12 2.56-15.36 5.12-7.68 2.56-10.24 5.12-12.8 10.24-2.56 2.56-5.12 7.68-5.12 12.8s2.56 10.24 5.12 12.8c2.56 2.56 7.68 5.12 12.8 5.12 7.68 0 12.8-2.56 17.92-10.24 2.56-5.12 5.12-7.68 5.12-12.8v-25.6h-2.56z m0 46.08l-10.24 10.24c-5.12 2.56-12.8 5.12-20.48 5.12-7.68 0-12.8-2.56-17.92-7.68-5.12-5.12-7.68-12.8-7.68-20.48 0-10.24 5.12-17.92 12.8-23.04 2.56-2.56 7.68-5.12 10.24-5.12 2.56 0 10.24-2.56 20.48-7.68 5.12-2.56 7.68-2.56 10.24-5.12 2.56-2.56 2.56-5.12 2.56-7.68 0-5.12-2.56-7.68-5.12-10.24-2.56-2.56-7.68-5.12-12.8-5.12s-7.68 0-12.8 2.56c-2.56 2.56-7.68 5.12-12.8 7.68l-2.56-12.8c7.68-2.56 12.8-5.12 17.92-7.68 5.12 0 10.24-2.56 17.92-2.56 10.24 0 17.92 2.56 23.04 5.12 5.12 5.12 7.68 10.24 7.68 17.92v58.88c0 5.12 2.56 7.68 5.12 7.68s2.56 0 7.68-2.56v10.24c-5.12 2.56-10.24 5.12-15.36 5.12-5.12 0-7.68 0-10.24-2.56-2.56 0-5.12-5.12-7.68-10.24zM1958.4 650.24h20.48v12.8c2.56-5.12 5.12-7.68 10.24-10.24 5.12-5.12 12.8-5.12 20.48-5.12 10.24 0 20.48 2.56 25.6 10.24 2.56 5.12 5.12 10.24 5.12 17.92V747.52h-20.48v-69.12c0-5.12-2.56-10.24-5.12-12.8-2.56-2.56-7.68-5.12-12.8-5.12-7.68 0-12.8 2.56-17.92 5.12-5.12 5.12-5.12 10.24-5.12 17.92v64h-20.48v-92.16-5.12zM2104.32 657.92c-7.68 0-15.36 2.56-17.92 10.24-2.56 5.12-5.12 12.8-5.12 23.04s2.56 17.92 5.12 25.6c5.12 5.12 10.24 7.68 17.92 7.68 7.68 0 12.8-2.56 17.92-10.24 5.12-5.12 5.12-15.36 5.12-23.04 0-10.24-2.56-17.92-5.12-23.04-5.12-7.68-10.24-10.24-17.92-10.24z m-40.96 99.84l-2.56-15.36 20.48-15.36c-5.12-2.56-10.24-7.68-12.8-10.24-5.12-5.12-7.68-15.36-7.68-25.6 0-15.36 5.12-25.6 12.8-33.28 7.68-7.68 17.92-10.24 30.72-10.24h10.24c2.56 0 5.12-2.56 7.68-5.12 2.56-2.56 2.56-5.12 2.56-10.24h17.92c0 5.12-2.56 7.68-5.12 10.24-2.56 2.56-5.12 5.12-10.24 7.68 5.12 2.56 10.24 5.12 12.8 10.24 5.12 7.68 10.24 17.92 10.24 28.16 0 12.8-2.56 23.04-10.24 30.72-5.12 5.12-12.8 10.24-23.04 10.24-2.56 0-5.12 0-12.8 2.56-2.56 0-7.68 2.56-10.24 2.56l-17.92 10.24c17.92-5.12 30.72-5.12 38.4-5.12 10.24 0 17.92 2.56 25.6 5.12 2.56 2.56 7.68 2.56 7.68 7.68 2.56 2.56 2.56 5.12 2.56 10.24 0 7.68-2.56 10.24-10.24 15.36-7.68 2.56-17.92 5.12-30.72 5.12s-28.16-2.56-48.64-7.68V768c15.36 2.56 28.16 5.12 38.4 5.12 7.68 0 12.8 0 17.92-2.56 5.12-2.56 7.68-5.12 7.68-7.68 0-2.56-2.56-5.12-7.68-7.68-5.12-2.56-12.8-2.56-20.48-2.56-7.68-2.56-17.92 0-33.28 5.12zM2168.32 747.52V616.96v-5.12h20.48v48.64c5.12-5.12 7.68-10.24 12.8-12.8 5.12-2.56 10.24-2.56 17.92-2.56 10.24 0 17.92 2.56 23.04 7.68 5.12 5.12 7.68 12.8 7.68 20.48V747.52h-20.48v-64c0-7.68-2.56-12.8-5.12-15.36-2.56-2.56-7.68-5.12-15.36-5.12s-12.8 2.56-17.92 5.12c-5.12 5.12-5.12 10.24-5.12 15.36v64h-17.92zM2321.92 688.64c-2.56 2.56-2.56 2.56-5.12 2.56 0 0-5.12 2.56-15.36 5.12-7.68 2.56-10.24 5.12-15.36 10.24-2.56 2.56-5.12 7.68-5.12 12.8s2.56 10.24 5.12 12.8c2.56 2.56 7.68 5.12 12.8 5.12 7.68 0 12.8-2.56 17.92-10.24 2.56-5.12 5.12-7.68 5.12-12.8v-25.6z m0 46.08l-10.24 10.24c-5.12 2.56-12.8 5.12-20.48 5.12-7.68 0-12.8-2.56-17.92-7.68-5.12-5.12-7.68-12.8-7.68-20.48 0-10.24 5.12-17.92 12.8-23.04 2.56-2.56 7.68-5.12 10.24-5.12 2.56 0 10.24-2.56 20.48-7.68 5.12-2.56 7.68-2.56 10.24-5.12 2.56-2.56 2.56-5.12 2.56-7.68 0-5.12-2.56-7.68-5.12-10.24-2.56-2.56-7.68-5.12-12.8-5.12s-7.68 0-12.8 2.56c-2.56 2.56-7.68 5.12-12.8 7.68l-2.56-12.8c7.68-2.56 12.8-5.12 17.92-7.68 5.12 0 10.24-2.56 17.92-2.56 10.24 0 17.92 2.56 23.04 5.12 5.12 5.12 7.68 10.24 7.68 17.92v58.88c0 5.12 2.56 7.68 5.12 7.68s2.56 0 7.68-2.56v10.24c-5.12 2.56-10.24 5.12-15.36 5.12-5.12 0-7.68 0-10.24-2.56-2.56 0-5.12-5.12-7.68-10.24zM2368 650.24h20.48V747.52h-20.48v-92.16-5.12z m10.24-28.16c2.56 0 7.68 0 7.68 2.56 2.56 2.56 2.56 2.56 2.56 7.68 0 2.56 0 5.12-2.56 7.68h-7.68c-7.68 0-12.8-2.56-12.8-7.68 0-2.56 0-5.12 2.56-7.68 2.56-2.56 5.12-2.56 10.24-2.56z" fill="#231815" p-id="4098"></path></svg>