<?xml version="1.0" standalone="no"?><!DOCTYPE svg PUBLIC "-//W3C//DTD SVG 1.1//EN" "http://www.w3.org/Graphics/SVG/1.1/DTD/svg11.dtd"><svg t="1531986205402" class="icon" style="" viewBox="0 0 2560 1024" version="1.1" xmlns="http://www.w3.org/2000/svg" p-id="5502" xmlns:xlink="http://www.w3.org/1999/xlink" width="500" height="200"><defs><style type="text/css"></style></defs><path d="M591.36 821.76l43.52-186.88h97.28l12.8-64h-138.24L563.2 760.32h-250.88l7.68-33.28h220.16l43.52-189.44h168.96l12.8-58.88h-209.92L514.56 665.6H332.8l7.68-28.16H486.4l33.28-158.72h-145.92l7.68-33.28h220.16l25.6-97.28H793.6l12.8-58.88h-207.36L570.88 384h-176.64l10.24-35.84h143.36l28.16-92.16h238.08l12.8-64h-281.6l-23.04 94.72h-145.92L332.8 476.16H186.88L153.6 632.32h151.04l-38.4 189.44h325.12zM204.8 568.32l7.68-30.72h110.08l-10.24 33.28H204.8v-2.56z m151.04 0l7.68-33.28h110.08l-7.68 33.28h-110.08z" fill="#108C3E" p-id="5503"></path><path d="M2329.6 550.4l28.16 20.48 20.48 12.8 20.48 12.8V560.64h-2.56l-5.12-2.56-25.6-15.36-5.12-2.56-2.56-2.56-2.56-2.56 2.56-2.56 12.8-23.04 7.68-20.48 2.56-10.24 2.56-10.24v-112.64h20.48v-30.72h-97.28l2.56-5.12 2.56-5.12 2.56-5.12 2.56-10.24v-20.48H2278.4l-5.12 20.48-2.56 10.24-2.56-2.56-2.56 2.56-2.56 2.56v35.84h81.92V453.12l-2.56 20.48-10.24 12.8-2.56 7.68v2.56l-2.56-2.56-5.12-5.12V486.4l-2.56-5.12-5.12-7.68-2.56-5.12v-107.52h-40.96v104.96l2.56 7.68 2.56 7.68 2.56 7.68 2.56 7.68 5.12 7.68 7.68 10.24 5.12 5.12 5.12 2.56 2.56 2.56-46.08 33.28-2.56 7.68v28.16l7.68-2.56 7.68-2.56 7.68-2.56 12.8-7.68 7.68-5.12 15.36-12.8 5.12-5.12 2.56-2.56 5.12-2.56zM1103.36 588.8v-81.92h71.68v12.8H1228.8V332.8h-122.88v-61.44h-48.64V332.8h-122.88v186.88h48.64v-12.8h74.24V588.8h46.08z m263.68-2.56v-12.8h192v12.8h48.64V284.16H1323.52v302.08h43.52z m570.88 0v-256h28.16v71.68l-20.48 15.36v17.92l20.48 17.92v64l-2.56 2.56-2.56 2.56-2.56 2.56-2.56 2.56-2.56 2.56-2.56 2.56h-10.24v33.28h17.92l5.12-2.56 10.24-5.12 10.24-5.12 7.68-5.12 5.12-5.12 2.56-2.56V430.08h-17.92 5.12l2.56-2.56 2.56-2.56 2.56-2.56 2.56-2.56 2.56-2.56 2.56-2.56v-115.2H1894.4v291.84h43.52v-5.12z m-61.44-5.12V312.32h-64v-51.2h-38.4v51.2h-64v263.68h43.52V563.2h81.92v15.36h40.96v2.56z m376.32-10.24v-38.4h-35.84v-84.48H2252.8v-35.84h-35.84v-84.48H2252.8v-30.72h-143.36v30.72h64v202.24h-17.92v-158.72h-43.52v197.12H2252.8v2.56z m-885.76-30.72v-217.6h192v217.6h-192z m386.56-7.68v-79.36h20.48v79.36h-20.48z m58.88 0v-79.36h25.6v79.36h-25.6z m-268.8-12.8V486.4h-61.44v-53.76h61.44v-30.72h-61.44v-33.28h61.44v-30.72h-156.16v30.72h51.2v33.28h-51.2v30.72h51.2V486.4h-51.2v35.84h156.16v-2.56z m-5.12-43.52v-30.72h-38.4v30.72h38.4z m-550.4-10.24v-92.16h71.68v92.16h-71.68z m115.2 0v-92.16h71.68v92.16h-71.68z m650.24-48.64v-66.56h20.48v66.56h-20.48z m64 0v-66.56h20.48v66.56H1817.6z" fill="#1E1916" p-id="5504"></path><path d="M1098.24 680.96l-15.36 10.24c-7.68-10.24-17.92-17.92-28.16-23.04-10.24-5.12-23.04-7.68-35.84-7.68-15.36 0-28.16 2.56-40.96 10.24-12.8 7.68-23.04 15.36-28.16 28.16-7.68 12.8-10.24 25.6-10.24 40.96 0 23.04 7.68 40.96 23.04 56.32 15.36 15.36 35.84 23.04 58.88 23.04 25.6 0 48.64-10.24 64-30.72l15.36 10.24c-10.24 12.8-20.48 20.48-33.28 28.16-12.8 7.68-28.16 10.24-46.08 10.24-33.28 0-58.88-10.24-76.8-33.28-15.36-17.92-23.04-40.96-23.04-66.56 0-28.16 10.24-48.64 28.16-69.12 17.92-17.92 43.52-28.16 71.68-28.16 17.92 0 33.28 2.56 46.08 10.24 10.24 7.68 20.48 17.92 30.72 30.72zM1134.08 645.12h17.92v76.8h94.72v-76.8h17.92v184.32h-17.92V742.4H1152v89.6h-17.92v-186.88zM1308.16 645.12h17.92v184.32h-17.92v-184.32zM1369.6 829.44v-184.32h5.12l122.88 140.8v-140.8h17.92v184.32H1510.4L1387.52 691.2v140.8h-17.92zM1633.28 645.12l87.04 184.32h-20.48L1671.68 768h-79.36L1561.6 829.44h-20.48l87.04-184.32h5.12z m-2.56 40.96l-30.72 66.56H1664l-33.28-66.56zM1820.16 645.12h35.84c20.48 0 35.84 0 43.52 2.56 10.24 2.56 17.92 7.68 25.6 15.36 7.68 7.68 10.24 17.92 10.24 30.72s-2.56 23.04-10.24 30.72c-7.68 7.68-15.36 12.8-28.16 15.36-7.68 2.56-23.04 2.56-46.08 2.56h-12.8v87.04h-17.92v-184.32z m17.92 17.92v61.44H1868.8c12.8 0 23.04 0 28.16-2.56 5.12-2.56 10.24-5.12 12.8-10.24 2.56-5.12 5.12-10.24 5.12-17.92 0-5.12-2.56-12.8-5.12-17.92-2.56-5.12-7.68-7.68-12.8-10.24-5.12-2.56-15.36-2.56-28.16-2.56h-30.72zM2060.8 642.56c28.16 0 51.2 10.24 69.12 28.16 17.92 17.92 28.16 40.96 28.16 69.12s-10.24 51.2-28.16 69.12c-17.92 17.92-40.96 28.16-69.12 28.16s-51.2-10.24-69.12-28.16c-17.92-17.92-28.16-40.96-28.16-69.12 0-17.92 5.12-33.28 12.8-48.64 7.68-15.36 20.48-28.16 35.84-35.84 15.36-10.24 30.72-12.8 48.64-12.8z m0 17.92c-12.8 0-25.6 2.56-38.4 10.24-12.8 7.68-23.04 17.92-28.16 28.16-7.68 12.8-10.24 25.6-10.24 40.96 0 23.04 7.68 40.96 23.04 56.32 15.36 15.36 33.28 23.04 53.76 23.04 15.36 0 28.16-2.56 40.96-10.24 12.8-7.68 20.48-15.36 28.16-28.16 7.68-12.8 10.24-25.6 10.24-40.96 0-15.36-2.56-28.16-10.24-40.96-7.68-12.8-15.36-20.48-28.16-28.16s-28.16-10.24-40.96-10.24zM2176 796.16l15.36-10.24c10.24 20.48 23.04 30.72 38.4 30.72 5.12 0 12.8-2.56 17.92-5.12 5.12-2.56 10.24-7.68 12.8-12.8 2.56-5.12 5.12-10.24 5.12-15.36 0-5.12-2.56-12.8-5.12-17.92-5.12-7.68-15.36-17.92-30.72-30.72s-25.6-20.48-28.16-25.6c-7.68-7.68-10.24-17.92-10.24-28.16 0-7.68 2.56-15.36 5.12-23.04 2.56-7.68 10.24-12.8 15.36-15.36 7.68-2.56 15.36-5.12 23.04-5.12 7.68 0 17.92 2.56 25.6 7.68 7.68 5.12 15.36 12.8 23.04 23.04l-15.36 10.24c-7.68-10.24-12.8-15.36-17.92-17.92-5.12-2.56-10.24-5.12-15.36-5.12-7.68 0-12.8 2.56-17.92 7.68-5.12 5.12-7.68 10.24-7.68 17.92 0 5.12 0 7.68 2.56 12.8 2.56 2.56 5.12 7.68 10.24 12.8 2.56 2.56 10.24 7.68 23.04 17.92 15.36 12.8 28.16 23.04 33.28 30.72 5.12 10.24 7.68 17.92 7.68 28.16 0 12.8-5.12 25.6-15.36 35.84-10.24 10.24-23.04 15.36-35.84 15.36-10.24 0-20.48-2.56-30.72-10.24-12.8-5.12-20.48-12.8-28.16-28.16zM2304 663.04v-17.92h102.4v17.92h-40.96v166.4h-17.92v-166.4H2304z" fill="#040000" p-id="5505"></path></svg>