<?xml version="1.0" standalone="no"?><!DOCTYPE svg PUBLIC "-//W3C//DTD SVG 1.1//EN" "http://www.w3.org/Graphics/SVG/1.1/DTD/svg11.dtd"><svg t="1531986198052" class="icon" style="" viewBox="0 0 2560 1024" version="1.1" xmlns="http://www.w3.org/2000/svg" p-id="5151" xmlns:xlink="http://www.w3.org/1999/xlink" width="500" height="200"><defs><style type="text/css"></style></defs><path d="M834.56 506.88c0-87.04-117.76-158.72-263.68-158.72-117.76 0-215.04 46.08-250.88 107.52-2.56 5.12-5.12 12.8-5.12 17.92 0 15.36 10.24 30.72 25.6 38.4l133.12 76.8c7.68 2.56 15.36 5.12 23.04 5.12 7.68 0 17.92-2.56 23.04-5.12l128-74.24c7.68-5.12 12.8-12.8 12.8-20.48 0-7.68-5.12-15.36-12.8-20.48l-46.08-28.16-104.96 61.44-79.36-46.08c30.72-28.16 87.04-46.08 153.6-46.08 97.28 0 176.64 40.96 176.64 92.16-2.56 79.36-117.76 140.8-258.56 135.68-140.8-2.56-253.44-71.68-250.88-151.04 0-104.96 138.24-186.88 304.64-186.88 15.36 0 30.72 0 43.52 2.56-33.28-12.8-76.8-20.48-125.44-20.48-38.4 0-71.68 5.12-102.4 12.8-120.32 40.96-204.8 117.76-204.8 207.36 0 120.32 153.6 217.6 340.48 217.6 189.44 2.56 340.48-94.72 340.48-217.6zM942.08 453.12l23.04 2.56h176.64c5.12-12.8 7.68-25.6 12.8-35.84 2.56-10.24 7.68-23.04 10.24-33.28l7.68-38.4c2.56-12.8 5.12-23.04 5.12-25.6l2.56-15.36v-2.56c0-2.56 2.56-2.56 7.68 0 0 0 5.12 2.56 12.8 5.12s15.36 7.68 25.6 10.24c7.68 5.12 12.8 7.68 15.36 10.24v5.12s-5.12 2.56-12.8 5.12c-5.12 10.24-10.24 20.48-15.36 28.16-5.12 10.24-23.04 38.4-53.76 87.04h38.4c7.68-10.24 12.8-17.92 17.92-23.04 5.12-5.12 7.68-7.68 10.24-7.68 2.56 0 5.12 2.56 10.24 5.12 10.24 7.68 17.92 15.36 20.48 20.48 5.12 5.12 5.12 10.24 5.12 10.24s-2.56 2.56-5.12 2.56h-307.2l-7.68-10.24z m87.04 107.52c-15.36 10.24-38.4 23.04-64 33.28l-12.8 5.12H947.2c0-2.56 0-2.56 2.56-5.12l12.8-7.68c2.56-2.56 7.68-5.12 12.8-10.24s12.8-12.8 23.04-20.48c10.24-10.24 17.92-20.48 23.04-30.72 7.68-10.24 10.24-17.92 12.8-23.04l5.12-10.24c0-2.56 2.56-2.56 2.56-5.12h2.56c7.68 5.12 17.92 10.24 30.72 15.36 10.24 7.68 17.92 10.24 15.36 12.8 0 2.56 0 2.56-2.56 5.12h-10.24c-15.36 15.36-33.28 28.16-48.64 40.96z m99.84-64c10.24 2.56 20.48 5.12 28.16 5.12 10.24 2.56 20.48 7.68 35.84 12.8 15.36 5.12 25.6 12.8 33.28 23.04 7.68 10.24 12.8 17.92 12.8 25.6 0 7.68 0 15.36-5.12 20.48-5.12 5.12-10.24 7.68-17.92 7.68-7.68 0-12.8-2.56-15.36-7.68-2.56-5.12-7.68-10.24-12.8-20.48s-10.24-17.92-17.92-28.16c-7.68-7.68-12.8-15.36-17.92-17.92-5.12-5.12-10.24-10.24-17.92-12.8-7.68-5.12-10.24-5.12-12.8-7.68-2.56 0-2.56-2.56-2.56-2.56v-2.56s2.56-2.56 5.12 0l5.12 5.12z m-56.32-184.32c20.48 17.92 33.28 30.72 40.96 40.96 7.68 10.24 12.8 23.04 12.8 33.28 2.56 12.8 0 20.48-2.56 28.16-2.56 5.12-5.12 7.68-10.24 12.8-5.12 2.56-10.24 5.12-17.92 2.56-7.68 0-12.8-5.12-15.36-10.24-2.56-5.12-2.56-12.8-2.56-15.36 0 0 0-5.12 2.56-10.24 0-5.12 2.56-10.24 2.56-17.92V358.4c-2.56-12.8-5.12-23.04-7.68-28.16l-7.68-15.36c-2.56-2.56-2.56-5.12-5.12-7.68v-2.56-2.56h2.56l7.68 10.24z m-79.36 12.8c5.12 2.56 10.24 7.68 17.92 12.8 7.68 5.12 15.36 15.36 25.6 25.6 10.24 12.8 15.36 25.6 15.36 38.4 0 15.36-2.56 23.04-7.68 28.16-5.12 5.12-12.8 7.68-20.48 7.68-7.68 0-12.8-2.56-15.36-7.68-2.56-5.12-5.12-10.24-5.12-12.8 0-5.12 0-10.24 2.56-17.92v-25.6c0-7.68-2.56-15.36-5.12-20.48-2.56-5.12-5.12-12.8-10.24-17.92-5.12-5.12-7.68-10.24-7.68-10.24l-2.56-2.56v-2.56h2.56l10.24 5.12zM1328.64 583.68l23.04 2.56h74.24v-235.52l-2.56-46.08c0-2.56 5.12-2.56 7.68-2.56 17.92 2.56 28.16 5.12 35.84 7.68 7.68 2.56 10.24 5.12 7.68 7.68 0 2.56-5.12 5.12-12.8 10.24V588.8h33.28V307.2c0-2.56 5.12-2.56 7.68-2.56 17.92 2.56 28.16 5.12 33.28 5.12 5.12 2.56 7.68 2.56 7.68 5.12s2.56 2.56 0 5.12c0 2.56-5.12 5.12-10.24 10.24V512c2.56-7.68 5.12-12.8 7.68-15.36 2.56-5.12 5.12-12.8 7.68-23.04 5.12-10.24 7.68-20.48 10.24-30.72 2.56-7.68 5.12-17.92 7.68-28.16 2.56-10.24 5.12-17.92 5.12-20.48l2.56-12.8 2.56-10.24c2.56-2.56 5.12-2.56 7.68 0l17.92 7.68 15.36 7.68c5.12 2.56 7.68 5.12 7.68 7.68v2.56c-2.56 2.56-5.12 2.56-12.8 5.12-15.36 28.16-30.72 53.76-40.96 71.68-10.24 17.92-17.92 30.72-25.6 38.4l-10.24 25.6v46.08h35.84c7.68-10.24 12.8-15.36 17.92-20.48 2.56-5.12 5.12-7.68 7.68-7.68 2.56 0 5.12 2.56 10.24 5.12l10.24 10.24 10.24 10.24c5.12 5.12 7.68 7.68 5.12 7.68 0 2.56-2.56 2.56-5.12 2.56H1338.88l-10.24-7.68z m30.72-197.12c12.8 15.36 23.04 28.16 30.72 38.4 7.68 12.8 12.8 23.04 17.92 35.84 5.12 12.8 7.68 23.04 7.68 33.28s-2.56 17.92-7.68 23.04c-5.12 5.12-10.24 7.68-20.48 7.68-7.68 0-12.8-2.56-15.36-7.68-2.56-5.12-5.12-10.24-2.56-17.92l2.56-17.92v-30.72c0-7.68-2.56-15.36-5.12-23.04-2.56-7.68-2.56-12.8-5.12-17.92-2.56-5.12-5.12-10.24-5.12-12.8-2.56-2.56-2.56-5.12-5.12-7.68 0-2.56-2.56-2.56-2.56-5.12v-2.56s2.56 0 5.12 2.56l5.12 2.56zM1886.72 448h30.72c0 12.8 2.56 20.48 2.56 20.48 0 2.56 0 7.68 2.56 17.92 2.56 10.24 2.56 15.36 2.56 17.92 0 2.56 2.56 10.24 5.12 20.48-12.8 5.12-28.16 12.8-43.52 17.92v-94.72z m-33.28-135.68h-2.56V558.08c0 2.56-2.56 2.56-2.56 5.12H1843.2v2.56l15.36 33.28c0 2.56 2.56 5.12 2.56 5.12h2.56s2.56 0 2.56-2.56l10.24-10.24c5.12-5.12 7.68-10.24 10.24-12.8l12.8-15.36c2.56-2.56 12.8-15.36 28.16-30.72l5.12 12.8c2.56 5.12 5.12 12.8 12.8 25.6 5.12 12.8 12.8 20.48 20.48 28.16 7.68 7.68 12.8 10.24 12.8 10.24s2.56-2.56 2.56-5.12c2.56-2.56 2.56-5.12 5.12-10.24 2.56-2.56 5.12-7.68 10.24-10.24 5.12-2.56 7.68-5.12 10.24-5.12l10.24-2.56c2.56 0 2.56 0 2.56-2.56 0 0 0-2.56-2.56-2.56l-5.12-2.56c-2.56 0-7.68-2.56-17.92-10.24-10.24-5.12-20.48-12.8-28.16-23.04-7.68-7.68-15.36-17.92-23.04-30.72l15.36-5.12 25.6-12.8c2.56 0 7.68-2.56 12.8-5.12l10.24-2.56c10.24-2.56 10.24-5.12-5.12-12.8-12.8-7.68-23.04-10.24-28.16-12.8H1971.2l-2.56 2.56 2.56 12.8c-7.68 10.24-15.36 20.48-25.6 30.72l-5.12-10.24c0-2.56-2.56-7.68-5.12-12.8-2.56-7.68-5.12-12.8-5.12-15.36 0-2.56-2.56-7.68-2.56-12.8h33.28v2.56c0 5.12 2.56 7.68 10.24 7.68 7.68 0 12.8 0 17.92-2.56 5.12-2.56 7.68-2.56 7.68-5.12 0 0 2.56-2.56 2.56-5.12L1996.8 409.6v-71.68c5.12-2.56 10.24-5.12 10.24-7.68 0-2.56-5.12-7.68-17.92-12.8-12.8-5.12-17.92-7.68-20.48-7.68-2.56 0-2.56 2.56-5.12 5.12l-7.68 7.68H1894.4l-40.96-10.24z m33.28 76.8h69.12v51.2h-69.12v-51.2z m0-56.32h69.12v51.2h-69.12v-51.2z m-92.16-17.92c2.56 0 2.56-2.56 2.56-5.12s-2.56-2.56-5.12-5.12c-5.12-2.56-10.24-5.12-20.48-7.68-10.24-2.56-15.36-5.12-15.36-5.12h-5.12-2.56v5.12l-2.56 15.36c0 5.12-2.56 12.8-5.12 23.04s-5.12 20.48-7.68 28.16l-7.68 23.04c-7.68 12.8-10.24 17.92-10.24 23.04l-5.12 10.24v5.12h2.56l5.12-5.12 5.12-5.12 7.68 7.68h28.16v46.08h-25.6l-20.48-7.68 10.24 10.24h38.4v76.8c0 2.56 0 5.12-2.56 5.12 0 2.56-2.56 2.56-2.56 5.12-2.56 0-2.56 2.56-2.56 2.56s0 2.56 2.56 2.56l17.92 35.84c0 2.56 2.56 2.56 2.56 2.56l2.56-2.56 15.36-17.92c2.56-5.12 17.92-23.04 46.08-53.76l10.24-12.8c0-2.56 2.56-2.56 0-2.56h-5.12l-15.36 7.68c-7.68 5.12-20.48 10.24-35.84 17.92v-69.12h51.2s2.56 0 2.56-2.56-5.12-7.68-12.8-15.36l-10.24-7.68c-2.56-2.56-2.56-2.56-5.12-2.56 0 0-2.56 0-2.56 2.56 0 0-7.68 7.68-17.92 20.48h-5.12v-38.4l5.12-5.12s0-2.56 2.56-5.12h30.72s2.56 0 2.56-2.56-7.68-10.24-23.04-23.04c-2.56-2.56-2.56-2.56-5.12-2.56l-7.68 7.68-12.8 12.8h-43.52l-17.92 2.56c10.24-12.8 23.04-25.6 33.28-43.52H1843.2s2.56 0 2.56-2.56-5.12-5.12-12.8-12.8l-10.24-7.68c-2.56-2.56-2.56-2.56-5.12-2.56l-20.48 20.48h-35.84c5.12-10.24 12.8-23.04 20.48-38.4l12.8-7.68zM2191.36 348.16l-28.16 17.92c-17.92 10.24-33.28 17.92-48.64 25.6l-12.8 5.12h-5.12s0-2.56 2.56-5.12l7.68-7.68 10.24-10.24c7.68-7.68 15.36-15.36 23.04-25.6 10.24-10.24 17.92-20.48 25.6-33.28l5.12-10.24 2.56-5.12h2.56c2.56 0 5.12 2.56 7.68 5.12l15.36 10.24 10.24 10.24c5.12 5.12 7.68 7.68 7.68 10.24 0 2.56-2.56 5.12-5.12 5.12h-7.68c-2.56 2.56-10.24 5.12-12.8 7.68z m0 74.24c7.68 5.12 10.24 7.68 12.8 7.68 0 2.56-2.56 5.12-5.12 7.68v115.2l2.56 33.28c0 2.56-2.56 5.12-2.56 5.12-2.56 2.56-5.12 2.56-10.24 5.12s-10.24 2.56-17.92 2.56h-7.68c-2.56 0-2.56-2.56-2.56-5.12l2.56-38.4v-104.96c-20.48 15.36-35.84 25.6-46.08 33.28l-7.68 5.12c-2.56 2.56-5.12 2.56-5.12 0v-5.12l7.68-7.68c5.12-7.68 10.24-12.8 15.36-17.92 5.12-5.12 12.8-15.36 23.04-30.72s17.92-28.16 25.6-40.96l5.12-10.24c2.56-5.12 5.12-7.68 5.12-7.68h2.56c2.56 0 10.24 5.12 23.04 12.8s17.92 15.36 17.92 17.92c0 2.56-5.12 5.12-12.8 5.12-12.8 5.12-17.92 10.24-25.6 17.92z m153.6-2.56c7.68-10.24 12.8-17.92 15.36-23.04 2.56-5.12 5.12-7.68 7.68-7.68 2.56 0 5.12 2.56 12.8 7.68 12.8 10.24 20.48 17.92 23.04 20.48 2.56 2.56 5.12 5.12 2.56 7.68 0 2.56-2.56 2.56-5.12 2.56H2355.2c-2.56 2.56-2.56 5.12-5.12 7.68v135.68c0 7.68 0 12.8-2.56 15.36-2.56 2.56-5.12 5.12-10.24 7.68-5.12 2.56-10.24 5.12-17.92 5.12-7.68 2.56-12.8 2.56-17.92 2.56-2.56 0-5.12 0-5.12-2.56v-7.68c0-2.56 0-5.12-2.56-7.68 0-2.56-2.56-5.12-5.12-7.68-2.56-2.56-7.68-5.12-12.8-7.68l-10.24-5.12c-2.56 0-5.12-2.56-2.56-5.12 0-2.56 2.56-2.56 5.12-2.56h7.68l20.48 2.56h10.24c2.56 0 2.56-2.56 5.12-5.12V422.4H2219.52l-7.68-10.24 23.04 2.56h110.08v5.12z m-20.48-87.04c7.68-10.24 12.8-17.92 15.36-20.48 2.56-5.12 5.12-5.12 7.68-7.68 2.56 0 5.12 0 7.68 5.12 2.56 2.56 7.68 5.12 12.8 10.24s10.24 7.68 12.8 10.24c2.56 2.56 2.56 5.12 2.56 5.12s-2.56 2.56-5.12 2.56h-140.8l-7.68-10.24 23.04 2.56h71.68v2.56zM944.64 714.24c7.68 0 10.24-2.56 10.24-10.24v-43.52c0-7.68-2.56-7.68-10.24-10.24v-2.56h30.72v2.56c-7.68 0-10.24 0-10.24 10.24v43.52c0 7.68 2.56 7.68 10.24 10.24v2.56l-30.72-2.56zM1054.72 652.8c-5.12 0-10.24 0-10.24 12.8v51.2h-2.56L998.4 663.04v38.4c0 10.24 2.56 12.8 10.24 12.8v2.56h-23.04v-2.56c7.68 0 10.24-2.56 10.24-12.8v-43.52c-5.12-5.12-5.12-5.12-10.24-5.12v-2.56h17.92l38.4 48.64V665.6c0-10.24-2.56-12.8-10.24-12.8v-2.56l23.04 2.56zM1082.88 657.92c0-2.56 0-5.12 5.12-5.12 12.8 0 17.92 2.56 23.04 7.68 7.68 5.12 10.24 15.36 10.24 23.04 0 28.16-25.6 28.16-30.72 28.16-5.12 0-5.12 0-5.12-5.12v-48.64h-2.56z m-20.48 58.88h28.16c30.72 0 38.4-20.48 38.4-33.28 0-23.04-15.36-33.28-40.96-33.28h-28.16v2.56c7.68 0 7.68 2.56 7.68 10.24v43.52c5.12 5.12 2.56 7.68-5.12 10.24zM1210.88 652.8c-7.68 0-10.24 2.56-10.24 12.8v25.6c0 7.68 0 25.6-25.6 25.6s-25.6-20.48-25.6-25.6v-30.72c0-7.68-2.56-7.68-10.24-10.24v-2.56h28.16v2.56c-7.68 0-10.24 2.56-10.24 10.24V691.2c0 5.12 0 20.48 17.92 20.48 7.68 0 12.8-2.56 15.36-7.68 2.56-2.56 2.56-5.12 2.56-12.8v-25.6c0-10.24-2.56-12.8-10.24-12.8v-2.56l28.16 2.56zM1264.64 670.72c-5.12-7.68-10.24-17.92-20.48-17.92-5.12 0-10.24 2.56-10.24 10.24 0 15.36 33.28 17.92 33.28 38.4 0 7.68-7.68 17.92-20.48 17.92-7.68 0-12.8-2.56-15.36-2.56-2.56 0-2.56 2.56-2.56 2.56h-2.56l-2.56-20.48h2.56c2.56 5.12 7.68 17.92 20.48 17.92 7.68 0 12.8-5.12 12.8-10.24s-2.56-10.24-15.36-17.92c-10.24-5.12-15.36-10.24-15.36-20.48s10.24-17.92 17.92-17.92c5.12 0 10.24 2.56 12.8 2.56 2.56 0 2.56-2.56 2.56-2.56h2.56v20.48zM1323.52 716.8h-28.16v-2.56c10.24 0 10.24-2.56 10.24-10.24v-51.2h-5.12c-10.24 0-12.8 2.56-15.36 12.8H1280v-17.92h56.32v17.92h-2.56c-2.56-10.24-5.12-12.8-15.36-12.8h-5.12v51.2c2.56 7.68 2.56 10.24 10.24 12.8zM1413.12 716.8h-15.36l-23.04-30.72h-5.12v20.48c0 7.68 0 7.68 10.24 10.24h-28.16v-2.56c7.68 0 7.68-2.56 7.68-10.24v-43.52c0-7.68-2.56-7.68-7.68-10.24v-2.56h28.16c7.68 0 25.6 2.56 25.6 17.92 0 12.8-12.8 15.36-17.92 17.92l20.48 25.6c-2.56 2.56 0 5.12 5.12 7.68z m-46.08-35.84c7.68 0 23.04 0 23.04-15.36 0-12.8-12.8-12.8-17.92-12.8-5.12 0-5.12 0-5.12 2.56v25.6zM1420.8 714.24c7.68 0 10.24-2.56 10.24-10.24v-43.52c0-7.68-2.56-7.68-10.24-10.24v-2.56h30.72v2.56c-7.68 0-10.24 0-10.24 10.24v43.52c0 7.68 2.56 7.68 10.24 10.24v2.56l-30.72-2.56zM1479.68 691.2l10.24-28.16 12.8 28.16h-23.04z m48.64 23.04c-5.12 0-5.12-2.56-10.24-7.68l-25.6-56.32h-2.56l-20.48 48.64c-2.56 5.12-5.12 12.8-7.68 15.36-2.56 2.56-2.56 2.56-5.12 2.56h20.48v-2.56c-2.56 0-7.68 0-7.68-5.12v-2.56l5.12-12.8h25.6l5.12 10.24c0 2.56 2.56 5.12 2.56 5.12 0 2.56-2.56 2.56-7.68 2.56v5.12l28.16-2.56zM1566.72 652.8c-7.68 0-10.24 0-10.24 10.24v46.08c0 5.12 2.56 5.12 10.24 5.12 15.36 0 20.48 0 28.16-12.8h2.56l-5.12 15.36h-53.76v-2.56c7.68 0 7.68-2.56 7.68-10.24v-43.52c0-7.68-2.56-7.68-7.68-10.24v-2.56l28.16 5.12zM1656.32 683.52c10.24 0 12.8 0 15.36 2.56 5.12 2.56 10.24 5.12 10.24 12.8 0 12.8-12.8 15.36-17.92 15.36-5.12 0-7.68 0-7.68-5.12v-25.6z m-20.48-30.72c7.68 0 10.24 2.56 10.24 10.24v43.52c0 7.68 0 7.68-10.24 10.24h33.28c23.04 0 23.04-12.8 23.04-17.92 0-10.24-7.68-15.36-17.92-17.92 5.12 0 12.8-2.56 12.8-15.36 0-15.36-17.92-17.92-25.6-17.92l-25.6 5.12z m20.48 2.56c0-2.56 0-2.56 2.56-2.56h5.12c7.68 0 17.92 2.56 17.92 12.8 0 12.8-12.8 12.8-15.36 12.8h-10.24v-23.04zM1774.08 716.8h-25.6v-2.56c2.56 0 7.68 0 7.68-2.56s-2.56-5.12-2.56-5.12l-5.12-10.24h-25.6l-5.12 12.8v2.56c0 5.12 5.12 5.12 7.68 5.12h-20.48v-2.56c2.56 0 2.56 0 5.12-2.56s5.12-10.24 7.68-15.36l20.48-48.64h2.56l25.6 56.32c2.56 7.68 2.56 10.24 7.68 12.8z m-25.6-25.6l-12.8-28.16-10.24 28.16h23.04zM1853.44 652.8c-5.12 0-10.24 0-10.24 12.8v51.2h-2.56l-43.52-53.76v38.4c0 10.24 2.56 12.8 10.24 12.8v2.56h-23.04v-2.56c7.68 0 10.24-2.56 10.24-12.8v-43.52c-5.12-5.12-5.12-5.12-10.24-5.12v-2.56h17.92l38.4 48.64V665.6c0-10.24-2.56-12.8-10.24-12.8v-2.56l23.04 2.56zM1902.08 650.24h25.6v2.56c-5.12 0-7.68 0-15.36 7.68l-17.92 17.92 23.04 25.6c7.68 7.68 10.24 10.24 15.36 10.24v2.56h-30.72v-2.56c5.12 0 7.68 0 7.68-2.56s-10.24-12.8-12.8-17.92l-10.24-10.24-2.56 2.56v17.92c0 7.68 0 7.68 10.24 10.24v2.56h-28.16v-2.56c7.68 0 10.24-2.56 10.24-10.24v-43.52c0-7.68-2.56-7.68-10.24-10.24v-2.56H1894.4v2.56c-7.68 0-10.24 2.56-10.24 10.24v20.48c23.04-20.48 25.6-23.04 25.6-25.6-2.56-2.56-2.56-2.56-7.68-5.12zM2027.52 670.72c-2.56-10.24-10.24-17.92-23.04-17.92-5.12 0-10.24 2.56-15.36 5.12-5.12 2.56-7.68 10.24-7.68 25.6 0 20.48 12.8 30.72 25.6 30.72s20.48-7.68 23.04-10.24l2.56 2.56s-7.68 12.8-28.16 12.8c-15.36 0-33.28-10.24-33.28-33.28s17.92-33.28 33.28-33.28c7.68 0 15.36 2.56 17.92 2.56 0 0 2.56 0 5.12-2.56h2.56l-2.56 17.92zM2078.72 714.24c-10.24 0-20.48-7.68-20.48-30.72 0-23.04 10.24-30.72 20.48-30.72s20.48 7.68 20.48 30.72c0 20.48-10.24 30.72-20.48 30.72z m0 2.56c17.92 0 33.28-12.8 33.28-33.28 0-23.04-15.36-35.84-33.28-35.84-15.36 0-33.28 12.8-33.28 35.84 0 20.48 15.36 33.28 33.28 33.28zM2132.48 716.8c2.56 0 5.12-2.56 5.12-5.12s-2.56-5.12-5.12-5.12-5.12 2.56-5.12 5.12c0 5.12 2.56 5.12 5.12 5.12zM2158.08 729.6c2.56 0 10.24-7.68 10.24-15.36s-5.12-10.24-7.68-10.24c-2.56 0-5.12 2.56-5.12 5.12 0 5.12 2.56 5.12 5.12 5.12h2.56s2.56 0 2.56 2.56 0 7.68-7.68 12.8zM2211.84 652.8c-7.68 0-10.24 0-10.24 10.24v46.08c0 5.12 2.56 5.12 10.24 5.12 15.36 0 20.48 0 28.16-12.8h2.56l-5.12 15.36h-53.76v-2.56c7.68 0 7.68-2.56 7.68-10.24v-43.52c0-7.68-2.56-7.68-7.68-10.24v-2.56l28.16 5.12zM2286.08 716.8h-28.16v-2.56c10.24 0 10.24-2.56 10.24-10.24v-51.2h-5.12c-10.24 0-12.8 2.56-15.36 12.8h-2.56v-17.92h56.32v17.92h-2.56c-2.56-10.24-5.12-12.8-15.36-12.8H2278.4v51.2c-2.56 7.68-2.56 10.24 7.68 12.8zM2327.04 657.92c0-2.56 0-5.12 5.12-5.12 12.8 0 17.92 2.56 23.04 7.68 7.68 5.12 10.24 15.36 10.24 23.04 0 28.16-25.6 28.16-30.72 28.16-5.12 0-5.12 0-5.12-5.12v-48.64h-2.56z m-17.92 58.88h28.16c30.72 0 38.4-20.48 38.4-33.28 0-23.04-15.36-33.28-40.96-33.28h-28.16v2.56c7.68 0 7.68 2.56 7.68 10.24v43.52c2.56 5.12 2.56 7.68-5.12 10.24zM2396.16 716.8c2.56 0 5.12-2.56 5.12-5.12s-2.56-5.12-5.12-5.12-5.12 2.56-5.12 5.12c0 5.12 5.12 5.12 5.12 5.12z" fill="#004186" p-id="5152"></path></svg>