<?xml version="1.0" standalone="no"?><!DOCTYPE svg PUBLIC "-//W3C//DTD SVG 1.1//EN" "http://www.w3.org/Graphics/SVG/1.1/DTD/svg11.dtd"><svg t="1531986109824" class="icon" style="" viewBox="0 0 2560 1024" version="1.1" xmlns="http://www.w3.org/2000/svg" p-id="1535" xmlns:xlink="http://www.w3.org/1999/xlink" width="500" height="200"><defs><style type="text/css"></style></defs><path d="M396.8 716.8c-112.64 0-204.8-92.16-204.8-204.8s92.16-204.8 204.8-204.8 204.8 92.16 204.8 204.8-92.16 204.8-204.8 204.8zM358.4 350.72c-71.68 17.92-125.44 81.92-125.44 161.28 0 53.76 25.6 102.4 69.12 133.12-17.92-28.16-23.04-87.04-23.04-87.04-2.56-97.28 64-125.44 64-125.44 35.84-20.48 56.32 2.56 56.32 2.56l15.36 15.36c12.8 15.36 30.72 7.68 30.72 7.68 35.84-17.92 15.36-58.88 15.36-58.88-20.48-48.64-69.12-51.2-102.4-48.64z m66.56 322.56c76.8-12.8 135.68-79.36 135.68-161.28 0-51.2-25.6-99.84-64-130.56 35.84 74.24 15.36 138.24 15.36 138.24-20.48 69.12-71.68 76.8-71.68 76.8-35.84 10.24-48.64-17.92-48.64-17.92-10.24-12.8-23.04-12.8-23.04-12.8-30.72-2.56-35.84 25.6-35.84 25.6 0 2.56-2.56 7.68-2.56 10.24 2.56 30.72 20.48 48.64 20.48 48.64 23.04 23.04 58.88 25.6 74.24 23.04zM353.28 512l46.08 46.08 46.08-46.08-46.08-48.64-46.08 48.64z" fill="#A40000" p-id="1536"></path><path d="M2234.88 440.32h130.56v23.04H2329.6v66.56c0 17.92-7.68 28.16-23.04 28.16h-48.64v-25.6h30.72c5.12 0 7.68 0 7.68-5.12v-64h-64v-23.04z" fill="#231815" p-id="1537"></path><path d="M2209.28 424.96l25.6 12.8c-5.12 10.24-15.36 20.48-23.04 28.16v89.6h-30.72V486.4l-15.36 10.24c-12.8-10.24-17.92-12.8-23.04-17.92 25.6-12.8 51.2-33.28 66.56-53.76zM2242.56 394.24h110.08v23.04h-110.08zM2204.16 381.44c10.24 5.12 17.92 7.68 28.16 10.24-15.36 17.92-25.6 33.28-71.68 61.44-10.24-7.68-15.36-10.24-25.6-17.92 35.84-15.36 58.88-38.4 69.12-53.76zM2073.6 407.04h-48.64v15.36H2073.6v-15.36z m-143.36-25.6l-38.4 74.24h38.4v15.36h-28.16v20.48h28.16v28.16l-23.04 10.24 5.12 28.16 71.68-28.16v-25.6l-25.6 10.24v-20.48h25.6v-20.48h-25.6v-15.36h25.6V435.2h-51.2l7.68-15.36h48.64v-23.04h-35.84l7.68-17.92h-30.72v2.56z m64 5.12H2099.2v84.48h-48.64c2.56 7.68 5.12 15.36 10.24 17.92l23.04-17.92 17.92 20.48-20.48 20.48c10.24 10.24 33.28 20.48 33.28 20.48l-15.36 25.6c-25.6-10.24-51.2-40.96-51.2-40.96l2.56 15.36-56.32 25.6v-171.52z m30.72 92.16v38.4l17.92-7.68c-2.56 0-12.8-15.36-17.92-30.72z m48.64-40.96h-48.64v15.36H2073.6v-15.36zM965.12 450.56h128v43.52h-128v-43.52z m97.28 15.36H998.4v10.24h64v-10.24z m-112.64 38.4h158.72v53.76h-158.72v-53.76z m125.44 15.36h-92.16v17.92H1075.2v-17.92zM842.24 491.52l48.64 46.08-25.6 20.48-48.64-51.2zM729.6 491.52l28.16 12.8-51.2 53.76-23.04-17.92z" fill="#231815" p-id="1538"></path><path d="M683.52 404.48H742.4c5.12-7.68 10.24-17.92 15.36-25.6l35.84 2.56-12.8 23.04h112.64v23.04H768l-17.92 35.84h33.28v-25.6h30.72v25.6h69.12v25.6h-69.12v46.08c0 12.8-5.12 23.04-17.92 23.04h-46.08v-25.6h30.72s2.56 0 2.56-2.56c2.56 0 2.56 0 2.56-2.56V486.4h-84.48v-25.6h10.24c2.56 0 5.12-2.56 5.12-5.12l17.92-28.16h-48.64v-23.04zM683.52 622.08h25.6c5.12 0 10.24 0 15.36 2.56 2.56 2.56 7.68 2.56 10.24 5.12 2.56 2.56 5.12 5.12 5.12 10.24 2.56 5.12 2.56 10.24 2.56 15.36 0 5.12 0 10.24-2.56 15.36-2.56 5.12-5.12 10.24-7.68 12.8-2.56 2.56-5.12 5.12-10.24 5.12-2.56 2.56-7.68 2.56-12.8 2.56h-25.6v-69.12z m12.8 12.8v43.52h17.92c2.56-2.56 5.12-2.56 5.12-2.56 2.56-2.56 2.56-2.56 2.56-5.12 2.56-2.56 2.56-7.68 2.56-12.8s0-10.24-2.56-12.8c-2.56-2.56-2.56-5.12-2.56-5.12-2.56-2.56-5.12-2.56-7.68-2.56H696.32v-2.56z m51.2 23.04c0-5.12 2.56-12.8 2.56-17.92 2.56-2.56 5.12-5.12 5.12-10.24 2.56-2.56 5.12-5.12 10.24-5.12 5.12-2.56 10.24-2.56 15.36-2.56 10.24 0 17.92 2.56 23.04 10.24 5.12 5.12 10.24 15.36 10.24 25.6s-2.56 17.92-10.24 25.6c-5.12 5.12-15.36 10.24-23.04 10.24-10.24 0-17.92-2.56-25.6-10.24-5.12-7.68-7.68-15.36-7.68-25.6z m15.36 0c0 7.68 2.56 12.8 5.12 17.92 2.56 2.56 7.68 5.12 15.36 5.12 5.12 0 10.24-2.56 12.8-5.12 5.12-5.12 5.12-10.24 5.12-17.92s-2.56-15.36-5.12-17.92c-5.12-5.12-10.24-5.12-15.36-5.12-5.12 0-10.24 2.56-15.36 5.12 0 5.12-2.56 10.24-2.56 17.92z m61.44 33.28v-69.12h15.36l28.16 46.08v-46.08h12.8V691.2h-15.36l-25.6-43.52V691.2h-15.36z m99.84-23.04v-12.8h30.72v25.6c-2.56 2.56-7.68 5.12-12.8 7.68-5.12 2.56-10.24 2.56-17.92 2.56-7.68 0-15.36-2.56-17.92-5.12-5.12-2.56-10.24-5.12-12.8-12.8-2.56-5.12-2.56-10.24-2.56-17.92 0-7.68 2.56-15.36 5.12-17.92 2.56-5.12 5.12-10.24 12.8-12.8 5.12-2.56 10.24-5.12 17.92-5.12 7.68 0 15.36 2.56 17.92 5.12 5.12 2.56 7.68 7.68 10.24 15.36l-15.36 2.56c0-2.56-2.56-5.12-5.12-7.68-2.56-2.56-5.12-2.56-10.24-2.56s-10.24 2.56-15.36 5.12c-2.56 2.56-5.12 10.24-5.12 15.36 0 7.68 2.56 15.36 5.12 17.92 5.12 2.56 10.24 5.12 15.36 5.12 2.56 0 5.12-2.56 10.24-2.56 2.56-2.56 5.12-2.56 7.68-5.12v-7.68h-17.92v7.68z m58.88 23.04v-28.16l-25.6-38.4h15.36l17.92 25.6 15.36-25.6h15.36l-25.6 38.4V691.2h-12.8z m43.52 0v-69.12h15.36V691.2h-15.36z m25.6 0v-69.12h15.36l28.16 46.08v-46.08h12.8V691.2h-15.36l-25.6-43.52V691.2h-15.36z m99.84-23.04v-12.8h30.72v25.6c-2.56 2.56-7.68 5.12-12.8 7.68-5.12 2.56-10.24 2.56-17.92 2.56-7.68 0-15.36-2.56-17.92-5.12-5.12-2.56-10.24-5.12-12.8-12.8-2.56-5.12-2.56-10.24-2.56-17.92 0-7.68 2.56-15.36 2.56-17.92 2.56-5.12 7.68-10.24 15.36-12.8 5.12-2.56 10.24-5.12 17.92-5.12s15.36 2.56 17.92 5.12c5.12 2.56 7.68 7.68 10.24 15.36l-15.36 2.56c0-2.56-2.56-5.12-5.12-7.68-2.56-2.56-5.12-2.56-10.24-2.56s-10.24 2.56-15.36 5.12c-2.56 2.56-5.12 10.24-5.12 15.36 0 7.68 2.56 15.36 5.12 17.92 5.12 2.56 10.24 5.12 15.36 5.12 2.56 0 5.12-2.56 10.24-2.56 2.56-2.56 5.12-2.56 7.68-5.12v-7.68H1152zM1256.96 668.16l15.36 2.56c-2.56 7.68-5.12 12.8-10.24 17.92-5.12 2.56-10.24 5.12-17.92 5.12s-15.36-2.56-23.04-10.24c-5.12-5.12-10.24-15.36-10.24-25.6s2.56-20.48 10.24-25.6c5.12-5.12 15.36-10.24 23.04-10.24 7.68 0 15.36 2.56 20.48 7.68 2.56 2.56 5.12 7.68 7.68 12.8l-15.36 2.56c-2.56-2.56-2.56-5.12-5.12-7.68-2.56-2.56-5.12-2.56-10.24-2.56s-10.24 2.56-12.8 5.12c-2.56 5.12-5.12 10.24-5.12 17.92 0 7.68 2.56 15.36 5.12 17.92 2.56 5.12 5.12 5.12 10.24 5.12s7.68-2.56 10.24-5.12c5.12 0 5.12-2.56 7.68-7.68z m20.48 23.04v-69.12h15.36V691.2h-15.36z m40.96 0v-56.32h-20.48v-12.8h56.32v12.8h-20.48V691.2h-15.36z m61.44 0h15.36v-28.16l25.6-38.4h-15.36l-17.92 25.6-15.36-25.6H1356.8l25.6 38.4V691.2zM1484.8 668.16l15.36 2.56c-2.56 7.68-5.12 12.8-10.24 17.92-5.12 2.56-10.24 5.12-17.92 5.12-10.24 0-15.36-2.56-23.04-10.24-5.12-5.12-10.24-15.36-10.24-25.6s2.56-20.48 10.24-25.6c5.12-5.12 15.36-10.24 23.04-10.24 7.68 0 15.36 2.56 20.48 7.68 2.56 2.56 5.12 7.68 5.12 12.8l-12.8 2.56c-2.56-2.56-2.56-5.12-5.12-7.68-2.56-2.56-5.12-2.56-10.24-2.56s-10.24 0-12.8 5.12c-2.56 5.12-5.12 10.24-5.12 17.92 0 7.68 2.56 15.36 5.12 17.92 2.56 5.12 7.68 5.12 12.8 5.12s7.68-2.56 10.24-5.12c2.56 0 5.12-2.56 5.12-7.68z m20.48-10.24c0-5.12 0-12.8 2.56-17.92 2.56-2.56 2.56-5.12 5.12-10.24 2.56-2.56 5.12-5.12 10.24-5.12 2.56-2.56 7.68-2.56 15.36-2.56 10.24 0 17.92 2.56 25.6 10.24 5.12 5.12 10.24 15.36 10.24 25.6s-2.56 17.92-10.24 25.6c-5.12 5.12-15.36 10.24-25.6 10.24s-17.92-2.56-23.04-10.24c-7.68-7.68-10.24-15.36-10.24-25.6z m15.36 0c0 7.68 2.56 12.8 5.12 17.92 5.12 2.56 10.24 5.12 15.36 5.12 5.12 0 10.24-2.56 15.36-5.12 2.56-5.12 5.12-10.24 5.12-17.92s-2.56-15.36-5.12-17.92c-2.56-5.12-7.68-5.12-15.36-5.12-5.12 0-10.24 2.56-15.36 5.12-5.12 5.12-5.12 10.24-5.12 17.92z m61.44 33.28v-69.12h20.48l12.8 48.64 12.8-48.64h20.48V691.2h-12.8v-53.76l-15.36 53.76h-12.8l-15.36-53.76V691.2h-10.24z m76.8 0v-69.12h23.04l12.8 48.64 12.8-48.64h20.48V691.2H1715.2v-53.76l-15.36 53.76h-15.36l-12.8-53.76V691.2h-12.8z m79.36 0v-69.12h51.2v12.8h-38.4v15.36h35.84v10.24h-35.84v17.92H1792v12.8h-53.76z m64 0v-69.12h28.16c7.68 0 15.36 2.56 17.92 2.56l7.68 7.68c2.56 2.56 2.56 5.12 2.56 10.24s-2.56 10.24-5.12 12.8c-2.56 2.56-7.68 5.12-15.36 5.12 2.56 2.56 5.12 5.12 7.68 5.12 2.56 2.56 5.12 5.12 7.68 10.24l7.68 12.8h-15.36l-10.24-15.36c-2.56-5.12-5.12-7.68-5.12-10.24-2.56 2.56-5.12 2.56-5.12 2.56-2.56 0-5.12-2.56-7.68-2.56h-2.56V691.2h-12.8z m12.8-38.4h23.04c2.56 0 2.56-2.56 5.12-2.56 0-2.56 2.56-2.56 2.56-5.12S1843.2 640 1843.2 640c0-2.56-2.56-2.56-5.12-2.56H1817.6v15.36h-2.56z m97.28 15.36l12.8 2.56c-2.56 7.68-5.12 12.8-10.24 17.92-5.12 2.56-10.24 5.12-17.92 5.12-10.24 0-17.92-2.56-23.04-10.24-5.12-5.12-10.24-15.36-10.24-25.6s2.56-20.48 10.24-25.6c5.12-5.12 12.8-10.24 23.04-10.24 7.68 0 15.36 2.56 20.48 7.68 2.56 2.56 5.12 7.68 5.12 12.8l-15.36 2.56c0-2.56-2.56-5.12-5.12-7.68-2.56-2.56-5.12-2.56-10.24-2.56s-10.24 2.56-12.8 5.12c-2.56 5.12-5.12 10.24-5.12 17.92 0 7.68 2.56 15.36 5.12 17.92 2.56 5.12 7.68 5.12 12.8 5.12 2.56 0 5.12-2.56 10.24-5.12 7.68 0 10.24-2.56 10.24-7.68z m23.04 23.04v-69.12h15.36V691.2h-15.36z m89.6 0h-15.36l-5.12-15.36h-28.16l-7.68 15.36h-15.36l25.6-69.12h15.36l30.72 69.12zM1996.8 665.6l-10.24-25.6-10.24 25.6h20.48z m30.72 25.6v-66.56h15.36v56.32h35.84v10.24h-51.2zM2101.76 622.08h25.6c5.12 0 10.24 0 12.8 2.56 2.56 0 5.12 2.56 7.68 2.56 2.56 2.56 2.56 5.12 5.12 5.12 2.56 2.56 2.56 5.12 2.56 7.68 0 2.56-2.56 5.12-2.56 10.24-2.56 2.56-5.12 5.12-7.68 5.12 5.12 2.56 7.68 5.12 10.24 5.12 2.56 2.56 2.56 5.12 2.56 10.24 0 2.56-2.56 5.12-2.56 10.24-2.56 2.56-2.56 5.12-5.12 5.12 0 2.56-2.56 5.12-7.68 5.12h-40.96v-69.12z m15.36 12.8v15.36h20.48c2.56 0 5.12 0 5.12-2.56s2.56-2.56 2.56-5.12 0-2.56-2.56-5.12-2.56-2.56-5.12-2.56c0-2.56-5.12-2.56-10.24-2.56h-10.24v2.56z m0 28.16v17.92h23.04c2.56 0 2.56-2.56 5.12-2.56 2.56-2.56 2.56-2.56 2.56-5.12s-2.56-2.56-2.56-5.12c-2.56-2.56-2.56-2.56-5.12-2.56h-23.04v-2.56z m115.2 28.16h-15.36l-5.12-15.36h-28.16l-5.12 15.36h-15.36l25.6-69.12h15.36l28.16 69.12z m-25.6-25.6l-10.24-25.6-10.24 25.6h20.48z m30.72 25.6v-69.12h12.8l28.16 46.08v-46.08h15.36V691.2H2278.4l-28.16-43.52V691.2h-12.8z m66.56 0v-69.12h15.36v30.72l28.16-30.72h17.92l-25.6 25.6 25.6 40.96h-17.92l-17.92-30.72-12.8 10.24v23.04H2304zM1052.16 422.4v-10.24h-38.4v10.24h38.4z m-69.12 0v-10.24h-53.76v-17.92h53.76v-15.36h30.72v15.36h38.4v-15.36h28.16v15.36h51.2v17.92h-51.2v10.24h53.76v43.52h-30.72v-20.48h-143.36v20.48h-33.28v-43.52h56.32zM1221.12 540.16h-33.28v-97.28h69.12V422.4h-89.6v-23.04h89.6v-23.04h30.72v23.04h84.48v23.04h-84.48v20.48h71.68v71.68c0 12.8-5.12 23.04-17.92 23.04h-40.96v-23.04h25.6v-43.52h-38.4v84.48h-30.72v-84.48h-35.84v69.12zM1408 394.24h84.48v-15.36h38.4v15.36h84.48v17.92h-38.4c-5.12 5.12-12.8 17.92-17.92 20.48h40.96v107.52c0 7.68-10.24 15.36-17.92 15.36h-38.4v-23.04h25.6l2.56-2.56c2.56 0 2.56-2.56 2.56-2.56v-33.28l-23.04-7.68v43.52h-84.48V486.4l-15.36 10.24v58.88h-30.72v-122.88h46.08l-15.36-20.48H1408v-17.92z m130.56 17.92h-46.08l10.24 20.48h23.04c2.56-5.12 7.68-15.36 12.8-20.48z m-12.8 97.28v-15.36h-30.72v15.36h30.72z m-71.68-56.32v17.92l30.72-17.92h-30.72z m38.4 0l15.36 12.8-17.92 10.24h51.2l-20.48-12.8 12.8-10.24h-40.96z m76.8 0h-28.16l28.16 15.36v-15.36zM1710.08 384h33.28v148.48h20.48V384h33.28v92.16l20.48-56.32 33.28 10.24-33.28 79.36-20.48-7.68v30.72h58.88v25.6h-204.8v-25.6h58.88v-28.16l-23.04 7.68-30.72-81.92 33.28-10.24 20.48 61.44zM686.08 591.36h1679.36v10.24H686.08z" fill="#231815" p-id="1539"></path></svg>