<?xml version="1.0" standalone="no"?><!DOCTYPE svg PUBLIC "-//W3C//DTD SVG 1.1//EN" "http://www.w3.org/Graphics/SVG/1.1/DTD/svg11.dtd"><svg t="1531986118733" class="icon" style="" viewBox="0 0 2560 1024" version="1.1" xmlns="http://www.w3.org/2000/svg" p-id="1902" xmlns:xlink="http://www.w3.org/1999/xlink" width="500" height="200"><defs><style type="text/css"></style></defs><path d="M366.08 340.48a171.52 171.52 0 1 1 0 343.04 171.52 171.52 0 0 1 0-343.04z m0-40.96C248.32 299.52 153.6 394.24 153.6 512s94.72 212.48 212.48 212.48c117.76 0 212.48-94.72 212.48-212.48s-94.72-212.48-212.48-212.48zM271.36 409.6v43.52h20.48V409.6h-20.48z m87.04 207.36h20.48v-74.24h10.24v28.16h15.36v-28.16h10.24v40.96h-25.6v33.28h43.52v-125.44h33.28v-17.92h-33.28V409.6h-17.92v30.72h-38.4v23.04h43.52v64h-94.72v-64h43.52v-23.04h-40.96V409.6h-15.36v64h-33.28v17.92h33.28v125.44h43.52v-33.28h-25.6v-40.96h2.56v28.16h15.36v-28.16h10.24v74.24z m-87.04-115.2v115.2h20.48v-115.2h-20.48z m171.52-92.16v43.52h23.04V409.6h-23.04z m0 92.16v115.2h23.04v-115.2h-23.04zM335.36 409.6v20.48h28.16V409.6h-28.16z m38.4 0v20.48h23.04V409.6h-23.04z m-43.52 66.56v43.52h17.92v-43.52h-17.92z m28.16 0v43.52h17.92v-43.52H358.4z m28.16 0v43.52h17.92v-43.52h-17.92z" fill="#E60012" p-id="1903"></path><path d="M747.52 560.64c0-2.56 2.56-5.12 2.56-7.68l5.12-38.4h-25.6l-2.56 23.04c0 5.12-2.56 5.12-2.56 7.68h-5.12v23.04h7.68c7.68 0 12.8 0 15.36-2.56 2.56 0 2.56-2.56 5.12-5.12zM855.04 473.6c2.56 0 5.12-2.56 10.24-7.68 2.56-2.56 5.12-10.24 5.12-17.92V409.6h-66.56l2.56-10.24H870.4v-23.04h-58.88l2.56-10.24h-28.16l-2.56 10.24h-56.32v23.04h51.2l-5.12 10.24h-46.08v66.56h110.08c7.68 0 15.36 0 17.92-2.56z m-89.6-20.48h-12.8v-20.48h12.8v20.48z m38.4 0h-12.8v-20.48h12.8v20.48z m25.6 0v-20.48h12.8v15.36c0 2.56 0 5.12-2.56 5.12 0 0-2.56 2.56-5.12 2.56h-5.12zM727.04 483.84H870.4v23.04h-143.36zM832 547.84h-33.28c-2.56 0-5.12 0-7.68-2.56 0 0-2.56-2.56-2.56-7.68v-23.04h-25.6v25.6c0 7.68 0 12.8 2.56 15.36 0 2.56 2.56 7.68 7.68 7.68 2.56 2.56 10.24 2.56 17.92 2.56h40.96v-17.92z" fill="#231815" p-id="1904"></path><path d="M796.16 514.56V529.92c0 2.56 2.56 2.56 5.12 5.12s10.24 2.56 20.48 2.56h5.12v-17.92h-5.12c-5.12 0-7.68 0-7.68-2.56v-2.56h-17.92zM870.4 560.64v-12.8h-5.12s-2.56-2.56-2.56-7.68l-2.56-23.04h-25.6l5.12 35.84c0 7.68 2.56 12.8 7.68 15.36 5.12 2.56 10.24 2.56 17.92 2.56h5.12v-10.24zM698.88 412.16c2.56-2.56 5.12-7.68 5.12-10.24l15.36-35.84H691.2l-7.68 17.92c-2.56 2.56-2.56 7.68-5.12 7.68-2.56 2.56-2.56 2.56-7.68 2.56H665.6v23.04h12.8c12.8 0 17.92 0 20.48-5.12zM680.96 570.88h25.6v-120.32l12.8-33.28H691.2l-5.12 17.92c-2.56 5.12-2.56 7.68-5.12 7.68-2.56 2.56-5.12 2.56-7.68 2.56H665.6v23.04h15.36v102.4zM1126.4 570.88v-204.8h-25.6v92.16H1093.12s-2.56 0-2.56-2.56c0 0 0-2.56-2.56-7.68l-2.56-15.36h-23.04l5.12 28.16c0 5.12 2.56 10.24 5.12 15.36 2.56 5.12 7.68 5.12 15.36 5.12h15.36v89.6h23.04zM977.92 560.64c2.56-5.12 2.56-12.8 2.56-20.48v-174.08h-25.6v87.04h-2.56v-5.12l-5.12-15.36h-23.04l5.12 28.16c0 5.12 2.56 10.24 5.12 15.36 2.56 5.12 7.68 5.12 15.36 5.12h2.56v51.2c0 7.68-2.56 12.8-5.12 12.8h-25.6v25.6h35.84c10.24 0 17.92-2.56 20.48-10.24zM1026.56 570.88h25.6v-204.8h-25.6v92.16H1018.88s-2.56 0-2.56-2.56c0 0 0-2.56-2.56-7.68l-2.56-15.36h-25.6l5.12 28.16c0 5.12 2.56 10.24 5.12 15.36 2.56 5.12 7.68 5.12 15.36 5.12h15.36v89.6zM1292.8 366.08h-30.72l-5.12 12.8H1177.6v25.6h84.48v15.36h-81.92V563.2h30.72v-117.76h51.2v125.44h30.72v-125.44h48.64v79.36c0 5.12 0 7.68-2.56 10.24 0 0-2.56 2.56-5.12 2.56h-20.48v25.6h33.28c5.12 0 10.24 0 15.36-2.56 5.12-2.56 7.68-2.56 10.24-5.12 2.56-2.56 2.56-5.12 5.12-7.68v-125.44h-81.92v-15.36h84.48v-25.6h-76.8l-10.24-15.36zM1630.72 560.64c2.56-2.56 2.56-7.68 2.56-10.24v-130.56h-28.16v-20.48H1638.4v-23.04h-81.92l-5.12-7.68h-28.16l-5.12 7.68H1433.6v23.04h35.84v20.48h-30.72v151.04h28.16v-128h33.28l-2.56 12.8c0 5.12-2.56 7.68-5.12 7.68h-12.8v20.48h20.48c10.24 0 15.36-2.56 17.92-5.12 2.56-2.56 5.12-7.68 7.68-15.36l5.12-20.48h15.36l5.12 20.48c0 5.12 2.56 7.68 5.12 12.8 2.56 2.56 10.24 5.12 20.48 5.12h20.48V460.8H1587.2c-2.56 0-5.12 0-7.68-2.56 0 0-2.56-2.56-2.56-7.68l-2.56-7.68h35.84V537.6c0 2.56 0 5.12-2.56 5.12 0 2.56-2.56 2.56-5.12 2.56h-7.68v25.6h17.92c2.56 0 7.68 0 10.24-2.56l7.68-7.68z m-61.44-140.8h-69.12l-7.68-20.48h87.04l-10.24 20.48z" fill="#231815" p-id="1905"></path><path d="M1584.64 555.52c2.56-5.12 2.56-10.24 2.56-12.8v-51.2h-104.96V563.2h84.48c10.24-2.56 15.36-5.12 17.92-7.68z m-23.04-20.48c0 2.56 0 2.56-2.56 2.56 0 0-2.56 2.56-5.12 2.56h-46.08v-25.6H1561.6v20.48zM1891.84 542.72h-64v-179.2h-28.16v179.2h-23.04v-179.2h-28.16v179.2h-61.44v25.6h204.8z" fill="#231815" p-id="1906"></path><path d="M1697.28 504.32c0 2.56 2.56 5.12 5.12 7.68 2.56 2.56 5.12 2.56 7.68 2.56h25.6v-25.6h-5.12c-2.56 0-5.12 0-5.12-2.56 0 0-2.56-5.12-2.56-10.24l-5.12-102.4H1689.6l7.68 120.32c-2.56 2.56-2.56 7.68 0 10.24zM1879.04 506.88c2.56-5.12 2.56-10.24 2.56-12.8l7.68-120.32h-28.16l-5.12 102.4c0 5.12 0 10.24-2.56 10.24 0 0-2.56 2.56-5.12 2.56H1843.2v25.6h17.92c10.24 0 15.36-2.56 17.92-7.68zM1989.12 453.12h35.84v-25.6h-84.48v25.6h17.92v25.6h-20.48v23.04h20.48v46.08c0 5.12 0 10.24 2.56 12.8 2.56 2.56 5.12 5.12 7.68 5.12 2.56 0 7.68 2.56 10.24 2.56h35.84v-23.04H1996.8c-2.56 0-5.12 0-5.12-2.56 0 0-2.56-2.56-2.56-7.68v-35.84h35.84v-23.04h-35.84v-23.04zM1971.2 417.28c2.56-2.56 5.12-5.12 5.12-7.68l2.56-5.12h46.08v-23.04h-40.96l2.56-15.36h-28.16l-5.12 20.48c0 5.12-2.56 7.68-2.56 7.68s-2.56 2.56-7.68 2.56h-5.12v23.04h15.36c10.24 0 15.36 0 17.92-2.56zM2065.92 542.72c0-2.56-2.56-5.12-2.56-10.24v-58.88h64c2.56 0 7.68-2.56 10.24-5.12 2.56-2.56 5.12-5.12 7.68-10.24 0-2.56 2.56-10.24 2.56-23.04v-66.56h-110.08v186.88c0 2.56 2.56 5.12 5.12 7.68 2.56 2.56 5.12 2.56 10.24 5.12H2086.4v-23.04H2073.6c-5.12-2.56-5.12-2.56-7.68-2.56z m-2.56-151.04h53.76v20.48h-53.76v-20.48z m0 43.52h53.76v10.24c0 2.56 0 2.56-2.56 5.12 0 2.56-2.56 2.56-5.12 2.56h-48.64V435.2z" fill="#231815" p-id="1907"></path><path d="M2147.84 568.32v-23.04h-20.48s-2.56 0-2.56-2.56c0 0-2.56-5.12-2.56-10.24l-5.12-20.48h15.36c10.24 0 15.36-2.56 15.36-5.12v-28.16h-20.48v12.8H2112l-2.56-15.36h-28.16l15.36 71.68c0 5.12 2.56 7.68 7.68 12.8 2.56 2.56 12.8 5.12 25.6 5.12h17.92zM2255.36 394.24l12.8-30.72h-35.84l-5.12 17.92c-2.56 2.56-2.56 5.12-5.12 7.68-2.56 0-2.56 2.56-5.12 2.56h-17.92v28.16H2229.76l-7.68 12.8c-2.56 5.12-5.12 7.68-5.12 7.68-2.56 0-2.56 2.56-5.12 2.56H2201.6v28.16h17.92v102.4H2252.8v-125.44l12.8-30.72h-23.04c2.56-5.12 7.68-12.8 12.8-23.04zM2355.2 529.92c0 5.12 0 10.24-2.56 10.24 0 2.56-2.56 2.56-5.12 2.56h-51.2v28.16h64c7.68 0 12.8 0 17.92-2.56 2.56-2.56 5.12-5.12 7.68-10.24 2.56-5.12 2.56-10.24 2.56-17.92v-92.16h12.8v-28.16h-133.12v28.16H2355.2v81.92zM2273.28 368.64h128v28.16h-128zM1889.28 655.36c-2.56 2.56-5.12 2.56-7.68 2.56-5.12 0-7.68-2.56-10.24-5.12-2.56-2.56-5.12-10.24-5.12-17.92 0-7.68 2.56-12.8 5.12-15.36 2.56-2.56 7.68-5.12 12.8-5.12 2.56 0 5.12 0 7.68 2.56 2.56 2.56 5.12 5.12 5.12 7.68l12.8-2.56c-2.56-5.12-2.56-10.24-7.68-12.8-5.12-5.12-10.24-7.68-17.92-7.68-10.24 0-15.36 2.56-20.48 7.68-5.12 5.12-7.68 15.36-7.68 25.6s2.56 17.92 7.68 23.04c5.12 5.12 12.8 7.68 20.48 7.68 7.68 0 12.8-2.56 17.92-5.12 5.12-2.56 7.68-7.68 10.24-15.36H1894.4c-2.56 5.12-2.56 7.68-5.12 10.24zM1820.16 647.68c-2.56-2.56-5.12-2.56-7.68-5.12 5.12 0 10.24-2.56 12.8-5.12 2.56-2.56 5.12-7.68 5.12-12.8 0-2.56 0-7.68-2.56-10.24-2.56-2.56-5.12-5.12-7.68-5.12-2.56 0-7.68-2.56-15.36-2.56h-28.16v64h15.36v-25.6h10.24c2.56 0 2.56 2.56 5.12 2.56 0 2.56 2.56 5.12 7.68 10.24l10.24 12.8h15.36l-7.68-12.8c-7.68-5.12-10.24-10.24-12.8-10.24z m-17.92-15.36H1792v-15.36h20.48c2.56 0 2.56 0 5.12 2.56 0 2.56 2.56 2.56 2.56 5.12s0 2.56-2.56 5.12c0 2.56-2.56 2.56-2.56 2.56h-12.8zM2050.56 606.72h-12.8v61.44h43.52v-10.24h-30.72zM1315.84 629.76l-15.36-25.6h-12.8l23.04 38.4v25.6h12.8v-25.6l23.04-38.4H1331.2zM701.44 611.84c-2.56-2.56-5.12-5.12-10.24-5.12h-35.84v64h23.04c5.12 0 7.68 0 10.24-2.56 2.56 0 7.68-2.56 10.24-5.12 2.56-2.56 5.12-7.68 7.68-10.24 2.56-2.56 2.56-7.68 2.56-12.8s0-10.24-2.56-15.36c0-5.12-2.56-10.24-5.12-12.8z m-5.12 38.4c0 2.56-2.56 5.12-2.56 5.12-2.56 0-2.56 2.56-5.12 2.56h-17.92V614.4H686.08c2.56 0 5.12 2.56 5.12 2.56 2.56 2.56 2.56 2.56 2.56 5.12s2.56 7.68 2.56 10.24v17.92zM2311.68 647.68l-25.6-43.52h-12.8v64h12.8v-40.96l25.6 40.96h12.8v-64h-12.8zM1927.68 604.16h12.8v64h-12.8zM2380.8 629.76l23.04-25.6h-15.36l-25.6 30.72v-30.72h-15.36v64h15.36v-17.92l10.24-10.24 15.36 28.16h17.92zM1981.44 604.16l-25.6 64h12.8l5.12-15.36h25.6l5.12 15.36h12.8l-25.6-64h-10.24z m-2.56 40.96l7.68-23.04 7.68 23.04h-15.36zM1722.88 640h30.72v-10.24h-30.72v-12.8h33.28v-12.8h-46.08v64h48.64v-10.24h-35.84zM1057.28 640v10.24c0 2.56-2.56 5.12-2.56 5.12-2.56 2.56-5.12 2.56-7.68 2.56-2.56 0-7.68 0-7.68-2.56l-5.12-5.12V604.16h-12.8v51.2c0 2.56 2.56 5.12 2.56 7.68 2.56 2.56 5.12 5.12 7.68 5.12 2.56 2.56 7.68 2.56 12.8 2.56s10.24 0 12.8-2.56c2.56-2.56 5.12-2.56 7.68-5.12 2.56-2.56 2.56-5.12 5.12-7.68v-48.64h-12.8V640zM967.68 604.16c-5.12 0-10.24 0-12.8 2.56-2.56 0-5.12 2.56-7.68 5.12-2.56 2.56-5.12 5.12-5.12 7.68-2.56 5.12-2.56 10.24-2.56 15.36 0 10.24 2.56 17.92 7.68 23.04 5.12 5.12 12.8 7.68 23.04 7.68s17.92-2.56 23.04-7.68c5.12-5.12 7.68-12.8 7.68-23.04s-2.56-17.92-7.68-25.6c-7.68-2.56-15.36-5.12-25.6-5.12z m12.8 48.64c-2.56 2.56-7.68 5.12-12.8 5.12s-10.24-2.56-12.8-5.12c-2.56-2.56-5.12-10.24-5.12-15.36 0-7.68 2.56-12.8 5.12-15.36 2.56-2.56 7.68-5.12 12.8-5.12s10.24 2.56 12.8 5.12c2.56 2.56 5.12 10.24 5.12 15.36 0 7.68 0 12.8-5.12 15.36zM1420.8 655.36c-2.56 2.56-5.12 2.56-7.68 2.56-5.12 0-7.68-2.56-10.24-5.12-2.56-2.56-5.12-10.24-5.12-17.92 0-7.68 2.56-12.8 5.12-15.36 2.56-2.56 7.68-5.12 12.8-5.12 2.56 0 5.12 0 7.68 2.56 2.56 2.56 5.12 5.12 5.12 7.68l12.8-2.56c-2.56-5.12-2.56-10.24-7.68-12.8-5.12-5.12-10.24-7.68-17.92-7.68-10.24 0-15.36 2.56-20.48 7.68-5.12 5.12-7.68 15.36-7.68 25.6s2.56 17.92 7.68 23.04c5.12 5.12 12.8 7.68 20.48 7.68 7.68 0 12.8-2.56 17.92-5.12 5.12-2.56 7.68-7.68 10.24-15.36l-12.8-5.12c-5.12 10.24-7.68 12.8-10.24 15.36zM2216.96 604.16l-25.6 64h12.8l5.12-15.36h25.6l5.12 15.36h12.8l-25.6-64h-10.24z m0 40.96l7.68-23.04 7.68 23.04h-15.36zM1154.56 655.36c-2.56 2.56-5.12 2.56-7.68 2.56-5.12 0-7.68-2.56-10.24-5.12-2.56-2.56-5.12-10.24-5.12-17.92 0-7.68 2.56-12.8 5.12-15.36 2.56-2.56 7.68-5.12 12.8-5.12 2.56 0 5.12 0 7.68 2.56 2.56 2.56 5.12 5.12 5.12 7.68l12.8-2.56c-2.56-5.12-2.56-10.24-7.68-12.8-5.12-5.12-10.24-7.68-17.92-7.68-10.24 0-15.36 2.56-20.48 7.68-5.12 5.12-7.68 15.36-7.68 25.6s2.56 17.92 7.68 23.04c5.12 5.12 12.8 7.68 20.48 7.68 7.68 0 12.8-2.56 17.92-5.12 5.12-2.56 7.68-7.68 10.24-15.36l-12.8-5.12c-5.12 10.24-7.68 12.8-10.24 15.36zM1223.68 616.96h17.92v51.2h15.36v-51.2h17.92v-12.8h-51.2zM1192.96 604.16h12.8v64h-12.8zM744.96 640h30.72v-10.24h-30.72v-12.8h33.28v-12.8h-46.08v64h48.64v-10.24h-35.84zM2165.76 634.88c2.56 0 5.12-2.56 7.68-5.12 2.56-2.56 2.56-5.12 2.56-7.68 0-2.56 0-5.12-2.56-7.68-2.56-2.56-2.56-5.12-5.12-5.12-2.56-2.56-5.12-2.56-7.68-2.56H2124.8v64h38.4c2.56 0 5.12-2.56 7.68-2.56 2.56-2.56 5.12-5.12 5.12-7.68 2.56-2.56 2.56-5.12 2.56-7.68 0-2.56 0-7.68-2.56-10.24-2.56-5.12-5.12-5.12-10.24-7.68z m-28.16-17.92h17.92c2.56 0 2.56 0 5.12 2.56 0 0 2.56 2.56 2.56 5.12s0 2.56-2.56 5.12c0 0-2.56 2.56-5.12 2.56h-17.92v-15.36z m25.6 38.4c0 2.56-2.56 2.56-5.12 2.56h-20.48V640h20.48c2.56 0 2.56 2.56 5.12 2.56 0 2.56 2.56 2.56 2.56 5.12 0 5.12 0 7.68-2.56 7.68zM1656.32 650.24l-12.8-46.08h-20.48v64h12.8v-48.64l12.8 48.64h12.8l12.8-48.64v48.64h12.8v-64h-20.48zM1489.92 604.16c-5.12 0-10.24 0-12.8 2.56-2.56 0-5.12 2.56-7.68 5.12-2.56 2.56-5.12 5.12-5.12 7.68-2.56 5.12-2.56 10.24-2.56 15.36 0 10.24 2.56 17.92 7.68 23.04 5.12 5.12 12.8 7.68 23.04 7.68s17.92-2.56 23.04-7.68c5.12-5.12 7.68-12.8 7.68-23.04s-2.56-17.92-7.68-25.6c-10.24-2.56-17.92-5.12-25.6-5.12z m12.8 48.64c-2.56 2.56-7.68 5.12-12.8 5.12s-10.24-2.56-12.8-5.12c-2.56-2.56-5.12-10.24-5.12-15.36 0-7.68 2.56-12.8 5.12-15.36 2.56-2.56 7.68-5.12 12.8-5.12s10.24 2.56 12.8 5.12c2.56 2.56 5.12 10.24 5.12 15.36 0 7.68-2.56 12.8-5.12 15.36zM847.36 614.4v-10.24h-48.64v12.8h30.72l-33.28 40.96v10.24h51.2v-10.24h-35.84zM903.68 629.76h-25.6v-25.6h-12.8v64h12.8v-25.6h25.6v25.6h12.8v-64h-12.8zM1571.84 650.24l-12.8-46.08h-20.48v64h12.8v-48.64l12.8 48.64h12.8l12.8-48.64v48.64h12.8v-64h-20.48z" fill="#231815" p-id="1908"></path></svg>