<?xml version="1.0" standalone="no"?><!DOCTYPE svg PUBLIC "-//W3C//DTD SVG 1.1//EN" "http://www.w3.org/Graphics/SVG/1.1/DTD/svg11.dtd"><svg t="1531986124126" class="icon" style="" viewBox="0 0 2560 1024" version="1.1" xmlns="http://www.w3.org/2000/svg" p-id="2142" xmlns:xlink="http://www.w3.org/1999/xlink" width="500" height="200"><defs><style type="text/css"></style></defs><path d="M156.16 499.2s17.92-261.12 289.28-253.44c0 0 222.72 12.8 240.64 256h-128s-76.8 2.56-138.24-117.76c0 0-69.12 107.52-145.92 117.76l-117.76-2.56z m-2.56 15.36l130.56 2.56s20.48 0 38.4 15.36H156.16l-2.56-17.92z m5.12 33.28h192s15.36 5.12 23.04 20.48l-209.92 2.56-5.12-23.04z m10.24 40.96h220.16s30.72 30.72 23.04 102.4c0 0 15.36 12.8 17.92-2.56 0 0-10.24-102.4 23.04-102.4l220.16-2.56-12.8 30.72h-76.8s-28.16-5.12-25.6 38.4c0 0 0 138.24-135.68 122.88 0 0-143.36 7.68-140.8-115.2 0 0 5.12-53.76-30.72-40.96H181.76L168.96 588.8z m299.52-17.92s5.12-23.04 38.4-17.92l174.08-2.56-2.56 17.92-209.92 2.56z m46.08-35.84s10.24-20.48 23.04-20.48l145.92 2.56-2.56 20.48-166.4-2.56z" fill="#004EA2" p-id="2143"></path><path d="M947.2 476.16l-17.92 5.12c-2.56-7.68-7.68-15.36-15.36-25.6l20.48-5.12c5.12 7.68 7.68 17.92 12.8 25.6z m71.68 5.12v20.48h-151.04V563.2c2.56 30.72-7.68 56.32-25.6 81.92-2.56 0-5.12-2.56-7.68-2.56-5.12-2.56-10.24-2.56-12.8-2.56 20.48-23.04 30.72-48.64 30.72-76.8v-56.32c0-7.68 0-15.36-2.56-20.48v-5.12c10.24 0 17.92 2.56 28.16 2.56h102.4c17.92-2.56 30.72-2.56 38.4-2.56z m84.48 38.4v-43.52c0-10.24 0-20.48-2.56-23.04 15.36 0 23.04 2.56 23.04 2.56s0 2.56-2.56 5.12c-2.56 5.12-2.56 10.24-2.56 12.8 0 30.72 0 53.76-2.56 71.68 0 17.92-2.56 33.28-5.12 40.96-5.12 15.36-15.36 35.84-35.84 56.32-5.12-5.12-12.8-10.24-20.48-10.24 17.92-12.8 30.72-28.16 35.84-40.96 7.68-17.92 12.8-40.96 12.8-71.68z m128-46.08v130.56c0 15.36 0 28.16 2.56 38.4h-20.48v-7.68-10.24-148.48-10.24c0-5.12 0-7.68-2.56-10.24h17.92c5.12 0 7.68 0 7.68 2.56v2.56c-5.12 0-5.12 5.12-5.12 12.8z m-58.88 0v128c0 15.36 0 28.16 2.56 35.84H1152c0-5.12 0-7.68 2.56-12.8v-140.8c0-7.68 0-15.36-2.56-23.04h15.36c5.12 0 5.12 0 7.68 2.56 0 0 0 2.56-2.56 5.12v5.12z m-99.84 23.04l20.48 2.56c-2.56 5.12-2.56 10.24-2.56 15.36-2.56 23.04-5.12 40.96-7.68 56.32h-2.56c-7.68 0-12.8-2.56-17.92-2.56 7.68-23.04 10.24-46.08 10.24-71.68z m76.8 66.56l-17.92 2.56c0-20.48-2.56-38.4-7.68-58.88l15.36-2.56c2.56 15.36 7.68 35.84 10.24 58.88z m58.88 0l-17.92 5.12c0-20.48-5.12-40.96-10.24-61.44l15.36-2.56c5.12 25.6 10.24 46.08 12.8 58.88z m186.88-89.6l-20.48 5.12c0-5.12-5.12-15.36-10.24-25.6l20.48-5.12c5.12 10.24 7.68 17.92 10.24 25.6z m84.48 5.12v20.48c-5.12 0-17.92 0-30.72-2.56h-58.88v28.16h33.28c12.8 0 23.04 0 30.72-2.56v84.48c0 10.24-10.24 17.92-35.84 20.48-2.56-7.68-5.12-12.8-10.24-17.92 17.92 2.56 25.6 0 28.16-5.12v-61.44h-46.08v74.24c0 7.68 0 17.92 2.56 28.16h-23.04c0-10.24 0-20.48 2.56-28.16v-74.24H1331.2v61.44c0 10.24 0 17.92 2.56 23.04h-20.48c0-5.12 0-12.8 2.56-28.16v-48.64c0-15.36 0-23.04-2.56-25.6h58.88v-28.16h-71.68c-5.12 0-10.24 0-12.8 2.56v-20.48c5.12 0 15.36 2.56 30.72 2.56h130.56c12.8 0 23.04 0 30.72-2.56z m148.48-7.68h64c7.68 0 15.36 0 20.48-2.56v20.48c-5.12 0-10.24 0-17.92-2.56h-138.24c-15.36 0-28.16 2.56-35.84 2.56v-20.48c5.12 0 10.24 0 17.92 2.56h69.12c-2.56-5.12-5.12-12.8-7.68-17.92l23.04-5.12c0 5.12 2.56 12.8 5.12 23.04z m40.96 89.6l-12.8 12.8c-12.8-12.8-23.04-23.04-35.84-28.16l12.8-10.24c10.24 7.68 23.04 15.36 35.84 25.6z m-71.68 20.48v23.04h33.28v-23.04h-33.28z m0-74.24l-15.36 5.12h43.52s0-2.56 2.56-2.56c5.12-5.12 7.68-12.8 10.24-20.48 2.56 0 7.68 2.56 10.24 2.56l10.24 2.56s0 2.56-2.56 2.56l-2.56 2.56c-5.12 5.12-7.68 7.68-10.24 12.8h53.76c-2.56 7.68-2.56 15.36-2.56 20.48v97.28c0 7.68-12.8 12.8-35.84 15.36 0-5.12-2.56-12.8-7.68-20.48 15.36 2.56 23.04 2.56 25.6-2.56v-97.28h-117.76v104.96c0 5.12 0 7.68 2.56 12.8h-25.6c0-2.56 0-5.12 2.56-7.68v-99.84c0-10.24 0-17.92-2.56-23.04 2.56 0 10.24 0 25.6 2.56h17.92c-2.56-5.12-5.12-10.24-10.24-17.92l17.92-5.12c2.56 2.56 7.68 7.68 10.24 15.36z m-7.68 28.16l15.36 7.68c-15.36 15.36-28.16 25.6-35.84 33.28-2.56-5.12-5.12-7.68-10.24-10.24 7.68-10.24 20.48-20.48 30.72-30.72z m5.12 30.72h51.2v51.2h-66.56v-35.84-15.36h15.36z m276.48-92.16v143.36h30.72c5.12 0 15.36 0 30.72-2.56h5.12v17.92c-5.12 0-10.24 0-17.92-2.56h-140.8c-10.24 0-20.48 0-30.72 2.56V614.4c2.56 0 7.68 0 12.8 2.56h48.64v-140.8-17.92-5.12c15.36 0 23.04 2.56 23.04 5.12 0 0 0 2.56-2.56 5.12s-5.12 7.68-2.56 10.24V614.4h25.6v-140.8-12.8-5.12c12.8 0 20.48 2.56 23.04 2.56 0 0 0 2.56-2.56 5.12 0 5.12-2.56 7.68-2.56 10.24z m38.4 20.48c17.92 5.12 25.6 10.24 25.6 10.24s-2.56 2.56-2.56 5.12c-2.56 2.56-2.56 5.12-5.12 7.68-2.56 5.12-2.56 7.68-5.12 10.24-10.24 30.72-17.92 51.2-23.04 58.88-7.68-2.56-12.8-5.12-20.48-5.12 12.8-25.6 23.04-53.76 30.72-87.04z m-104.96 84.48l-23.04 5.12c-2.56-17.92-10.24-46.08-23.04-79.36l20.48-7.68c7.68 25.6 17.92 53.76 25.6 81.92z m207.36-94.72h20.48c5.12 0 12.8 0 20.48-2.56h2.56v17.92c-10.24 0-15.36 0-23.04-2.56h-28.16c-7.68 12.8-15.36 25.6-23.04 33.28-2.56-10.24-5.12-15.36-7.68-17.92 15.36-15.36 25.6-35.84 35.84-64l23.04 7.68s0 2.56-2.56 2.56c-7.68 7.68-12.8 15.36-17.92 25.6z m140.8-5.12v69.12H2109.44c0 10.24 5.12 17.92 10.24 30.72 5.12-2.56 10.24-10.24 17.92-20.48l5.12-5.12s2.56 2.56 5.12 2.56c10.24 5.12 15.36 10.24 12.8 10.24l-2.56 2.56c-10.24 5.12-20.48 10.24-33.28 20.48 12.8 15.36 28.16 28.16 46.08 33.28-10.24 5.12-15.36 10.24-17.92 15.36-33.28-20.48-51.2-51.2-56.32-89.6h-15.36v71.68l2.56-2.56c10.24-5.12 17.92-12.8 25.6-17.92l5.12 17.92c-25.6 12.8-40.96 23.04-43.52 30.72l-12.8-12.8c5.12-2.56 5.12-10.24 7.68-23.04V486.4c0-7.68 0-15.36-2.56-23.04h66.56c7.68 0 15.36 0 23.04-2.56v17.92z m-17.92-2.56h-53.76v20.48h53.76v-20.48z m-51.2 33.28v20.48h53.76v-20.48h-53.76z m-74.24 7.68h40.96v15.36c-10.24 0-15.36 0-17.92-2.56h-7.68v23.04h10.24c7.68 0 12.8 0 20.48-2.56v17.92c-7.68 0-12.8 0-20.48-2.56H2022.4v40.96l2.56-2.56c5.12-5.12 12.8-10.24 23.04-20.48l5.12 17.92c-25.6 15.36-40.96 28.16-46.08 35.84l-10.24-15.36c5.12-2.56 7.68-5.12 10.24-10.24v-46.08h-5.12c-5.12 0-12.8 0-23.04 2.56v-17.92c7.68 0 15.36 2.56 20.48 2.56h5.12v-23.04c-5.12 0-10.24 0-15.36 2.56v-17.92h5.12c7.68 2.56 12.8 2.56 15.36 2.56z m245.76-69.12l15.36 15.36c-23.04 25.6-40.96 43.52-53.76 53.76-2.56-5.12-7.68-10.24-12.8-15.36 23.04-15.36 38.4-35.84 51.2-53.76z m133.12 15.36v20.48c-7.68 0-17.92 0-33.28-2.56h-23.04c-15.36 0-28.16 0-35.84 2.56v-20.48c5.12 0 10.24 0 17.92 2.56H2375.68c5.12-2.56 10.24-2.56 12.8-2.56zM2255.36 537.6v107.52h-20.48c0-10.24 0-20.48 2.56-33.28v-53.76c-10.24 12.8-17.92 20.48-23.04 25.6-2.56-5.12-7.68-10.24-12.8-15.36 23.04-20.48 43.52-43.52 61.44-71.68 12.8 7.68 17.92 12.8 17.92 15.36-12.8 7.68-20.48 17.92-25.6 25.6z m148.48-17.92v20.48c-12.8 0-23.04 0-35.84-2.56h-7.68v89.6c2.56 10.24-7.68 15.36-30.72 17.92-2.56-7.68-5.12-15.36-10.24-20.48 15.36 0 23.04 0 20.48-5.12V537.6h-20.48c-12.8 0-25.6 0-35.84 2.56v-17.92c7.68 0 20.48 2.56 35.84 0h46.08c17.92 0 30.72-2.56 38.4-2.56zM847.36 727.04v-7.68h28.16v33.28H870.4l-2.56-7.68c-5.12 5.12-12.8 7.68-20.48 7.68-7.68 0-15.36-2.56-20.48-7.68-7.68-5.12-10.24-15.36-10.24-25.6 2.56-20.48 10.24-30.72 30.72-33.28 15.36 0 23.04 7.68 25.6 20.48h-7.68c-2.56-7.68-7.68-12.8-17.92-12.8-12.8 0-20.48 10.24-20.48 25.6 0 17.92 7.68 25.6 20.48 25.6 5.12 0 10.24 0 12.8-5.12 5.12-2.56 7.68-10.24 7.68-15.36h-20.48v2.56z m87.04-35.84h7.68v40.96c0 15.36-10.24 23.04-25.6 23.04s-23.04-7.68-23.04-20.48V691.2h7.68v38.4c0 10.24 5.12 17.92 15.36 17.92 10.24 0 15.36-5.12 15.36-17.92V691.2h2.56z m58.88 43.52h-25.6l-7.68 17.92h-7.68l23.04-61.44h10.24l23.04 61.44H998.4l-5.12-17.92z m-20.48-5.12h20.48l-10.24-28.16-10.24 28.16z m89.6 12.8v-51.2h7.68v61.44h-10.24l-30.72-51.2v51.2h-7.68V691.2h10.24l30.72 51.2z m53.76-15.36v-7.68h28.16v33.28h-5.12l-2.56-7.68c-5.12 5.12-12.8 7.68-20.48 7.68-7.68 0-15.36-2.56-20.48-7.68-7.68-5.12-10.24-15.36-10.24-25.6 2.56-20.48 10.24-30.72 30.72-33.28 15.36 0 23.04 7.68 25.6 20.48h-7.68c-2.56-7.68-7.68-12.8-17.92-12.8-12.8 0-20.48 10.24-20.48 25.6 0 17.92 7.68 25.6 20.48 25.6 5.12 0 10.24 0 12.8-5.12 5.12-2.56 7.68-10.24 7.68-15.36h-20.48v2.56z m89.6 20.48v7.68h-48.64v-7.68l38.4-48.64h-35.84V691.2h46.08v7.68l-38.4 48.64h38.4z m53.76-30.72v-25.6h7.68v61.44h-7.68v-28.16h-33.28v28.16h-7.68V691.2h7.68v25.6h33.28z m74.24 5.12c0-15.36-7.68-25.6-20.48-25.6s-20.48 10.24-20.48 25.6 7.68 25.6 20.48 25.6 20.48-7.68 20.48-25.6z m10.24 0c-2.56 20.48-12.8 30.72-30.72 30.72s-28.16-10.24-30.72-30.72c0-20.48 10.24-33.28 30.72-33.28 17.92 2.56 28.16 12.8 30.72 33.28z m53.76-30.72h10.24v40.96c0 15.36-10.24 23.04-25.6 23.04s-23.04-7.68-23.04-20.48V691.2h7.68v38.4c0 10.24 5.12 17.92 15.36 17.92 10.24 0 15.36-5.12 15.36-17.92V691.2z m69.12 51.2v-51.2h7.68v61.44h-10.24l-30.72-51.2v51.2h-7.68V691.2h10.24l30.72 51.2z m97.28-33.28h-7.68c-2.56-7.68-7.68-12.8-17.92-12.8-12.8 0-20.48 10.24-20.48 25.6 0 17.92 7.68 25.6 20.48 25.6 10.24 0 15.36-5.12 17.92-17.92h7.68c-2.56 15.36-12.8 23.04-28.16 23.04-17.92 0-28.16-10.24-28.16-33.28 0-20.48 10.24-30.72 28.16-33.28 15.36 5.12 25.6 12.8 28.16 23.04z m64 12.8c0-15.36-7.68-25.6-20.48-25.6s-20.48 10.24-20.48 25.6 7.68 25.6 20.48 25.6 17.92-7.68 20.48-25.6z m7.68 0c-2.56 20.48-12.8 30.72-30.72 30.72-20.48 0-28.16-10.24-30.72-30.72 0-20.48 10.24-33.28 30.72-33.28 20.48 2.56 28.16 12.8 30.72 33.28z m74.24 33.28h-7.68V716.8v-15.36l-17.92 51.2h-7.68l-17.92-51.2v51.2h-7.68V691.2h12.8l17.92 51.2 17.92-51.2h12.8v64h-2.56z m76.8 0h-7.68V716.8v-15.36l-17.92 51.2h-7.68l-17.92-51.2v51.2h-7.68V691.2h12.8l17.92 51.2 17.92-51.2h12.8v64h-2.56z m64-7.68v7.68h-46.08V691.2h46.08v7.68h-35.84v20.48h33.28v7.68h-33.28v20.48h35.84z m25.6-20.48v25.6H1868.8V691.2h28.16c12.8 0 20.48 5.12 20.48 15.36 0 7.68-2.56 12.8-7.68 15.36 5.12 2.56 7.68 5.12 7.68 12.8v10.24c0 2.56 0 5.12 2.56 5.12v2.56h-10.24v-5.12-10.24c0-7.68-2.56-10.24-10.24-10.24h-23.04z m0-28.16v20.48h17.92c7.68 0 12.8-2.56 12.8-10.24 0-7.68-5.12-10.24-10.24-10.24h-20.48z m107.52 10.24h-7.68c-2.56-7.68-7.68-12.8-17.92-12.8-12.8 0-20.48 10.24-20.48 25.6 0 17.92 7.68 25.6 20.48 25.6 10.24 0 15.36-5.12 17.92-17.92h7.68c-2.56 15.36-12.8 23.04-28.16 23.04-17.92 0-28.16-10.24-28.16-33.28 0-20.48 10.24-30.72 28.16-33.28 17.92 5.12 25.6 12.8 28.16 23.04z m25.6-17.92v61.44h-7.68V691.2h7.68z m53.76 43.52h-25.6l-7.68 17.92H2022.4l25.6-61.44h10.24l23.04 61.44h-10.24l-7.68-17.92z m-23.04-5.12h20.48l-10.24-28.16-10.24 28.16zM2099.2 691.2v53.76h30.72v7.68h-40.96V691.2h10.24z m71.68 7.68v17.92h15.36c7.68 0 12.8-2.56 12.8-10.24 0-5.12-5.12-7.68-12.8-10.24h-15.36v2.56z m-7.68 56.32V691.2h28.16c10.24 0 15.36 5.12 17.92 15.36 0 5.12-2.56 10.24-7.68 12.8 7.68 2.56 10.24 7.68 10.24 15.36 0 12.8-7.68 17.92-20.48 17.92h-28.16v2.56z m7.68-30.72v20.48h17.92c7.68 0 12.8-5.12 12.8-10.24 0-7.68-5.12-10.24-15.36-10.24h-15.36z m89.6 10.24h-25.6l-7.68 17.92h-7.68l23.04-61.44h10.24l23.04 61.44h-10.24l-5.12-17.92z m-23.04-5.12h20.48l-10.24-28.16-10.24 28.16z m92.16 12.8v-51.2h7.68v61.44h-10.24l-30.72-51.2v51.2h-7.68V691.2h10.24l30.72 51.2z m33.28-10.24v23.04H2355.2V691.2h7.68v30.72l30.72-30.72h12.8l-25.6 25.6 25.6 35.84h-10.24l-20.48-30.72-12.8 10.24z" fill="#231815" p-id="2144"></path></svg>