<?xml version="1.0" standalone="no"?><!DOCTYPE svg PUBLIC "-//W3C//DTD SVG 1.1//EN" "http://www.w3.org/Graphics/SVG/1.1/DTD/svg11.dtd"><svg t="1531986132410" class="icon" style="" viewBox="0 0 2560 1024" version="1.1" xmlns="http://www.w3.org/2000/svg" p-id="2493" xmlns:xlink="http://www.w3.org/1999/xlink" width="500" height="200"><defs><style type="text/css"></style></defs><path d="M309.76 532.48l-23.04-20.48 23.04-20.48 207.36-199.68c-53.76-48.64-140.8-48.64-192 2.56l-130.56 125.44c-53.76 51.2-53.76 135.68 0 186.88l110.08 107.52 94.72-92.16-89.6-89.6z" fill="#C7161E" p-id="2494"></path><path d="M647.68 417.28L537.6 312.32l-94.72 92.16 89.6 87.04 23.04 20.48-23.04 20.48-207.36 199.68c53.76 48.64 138.24 48.64 192-2.56l130.56-125.44c53.76-51.2 53.76-133.12 0-186.88z" fill="#C7161E" p-id="2495"></path><path d="M509.44 512l-89.6-87.04-89.6 87.04 92.16 87.04z" fill="#BB864F" p-id="2496"></path><path d="M1292.8 396.8v43.52l17.92-2.56c10.24-5.12 10.24-20.48 12.8-30.72 5.12-12.8 5.12-25.6 7.68-38.4 2.56-10.24 0-25.6 5.12-33.28 2.56-2.56 7.68-15.36 12.8-10.24 2.56 2.56 0 7.68 2.56 10.24v10.24c0 7.68 2.56 17.92 0 25.6-2.56 15.36-2.56 28.16-5.12 43.52 0 5.12-2.56 7.68 0 12.8 0 7.68 2.56 17.92 5.12 25.6h2.56c2.56-2.56 7.68-5.12 10.24-5.12 2.56-2.56 5.12-17.92 5.12-23.04 2.56-17.92 5.12-35.84 12.8-53.76 0-2.56 7.68-23.04 12.8-17.92 2.56 2.56 0 5.12 0 7.68v12.8c0 7.68 0 15.36-2.56 25.6 0 10.24-2.56 30.72 2.56 38.4 2.56 2.56 17.92-2.56 20.48-5.12 10.24-12.8 5.12-33.28 7.68-48.64 0-7.68 2.56-15.36 2.56-25.6 0-2.56 0-23.04 5.12-25.6 2.56 0 2.56 0 5.12-2.56 2.56 0 5.12 0 5.12 2.56 2.56 2.56 7.68 15.36 10.24 17.92 0 30.72-5.12 43.52-7.68 69.12v35.84c5.12 0 15.36-5.12 20.48-10.24 2.56-5.12 2.56-12.8 0-17.92v-20.48c2.56-10.24 2.56-20.48 5.12-30.72 0-7.68 2.56-17.92 7.68-23.04 2.56 0 5.12 2.56 5.12 5.12 5.12 5.12 2.56 12.8 2.56 17.92 0 7.68 0 17.92 2.56 25.6 0 5.12 2.56 15.36 5.12 20.48 5.12 5.12 10.24 2.56 15.36 0 12.8-5.12 10.24-25.6 10.24-38.4 0-15.36-2.56-28.16 0-43.52 0-7.68 2.56-15.36 7.68-20.48l7.68 2.56c2.56 0 7.68 23.04 7.68 25.6 0 23.04 0 28.16-2.56 51.2-2.56 20.48-2.56 43.52 0 64 2.56 23.04 2.56 38.4 0 61.44 0 2.56-2.56 7.68-2.56 10.24-2.56 7.68-7.68 10.24-10.24 15.36-2.56 5.12-10.24 7.68-17.92 5.12l-2.56-2.56c-2.56-2.56-5.12-5.12-7.68-5.12-7.68-5.12-20.48-12.8-20.48-23.04 2.56 0 5.12 0 10.24-2.56 2.56 0 5.12-2.56 7.68-2.56 5.12-2.56 7.68-7.68 12.8-10.24l10.24-10.24c2.56-5.12 0-10.24 0-15.36v-15.36c0-5.12 0-10.24-5.12-10.24s-10.24 5.12-12.8 7.68c-5.12 5.12-12.8 7.68-17.92 12.8-7.68 5.12-10.24 5.12-17.92 2.56-7.68-2.56-10.24-5.12-17.92-2.56-2.56 30.72-15.36 61.44-25.6 69.12-5.12 5.12-15.36 2.56-20.48 0-7.68-2.56-12.8-10.24-17.92-12.8-2.56 0-5.12 0-5.12-2.56-2.56-2.56 0-5.12 2.56-7.68 2.56-5.12 10.24-5.12 15.36-7.68 7.68-2.56 12.8-7.68 17.92-12.8 2.56-2.56 5.12-5.12 7.68-10.24 2.56-7.68 5.12-15.36 0-25.6s-12.8-2.56-17.92 0c-7.68 5.12-25.6 20.48-33.28 10.24-5.12-7.68-10.24-12.8-17.92-15.36v5.12c-5.12 12.8-5.12 28.16-10.24 43.52-2.56 12.8-10.24 30.72-25.6 35.84-10.24 2.56-20.48-5.12-30.72-7.68-5.12-2.56-12.8-2.56-10.24-10.24 2.56-5.12 10.24-7.68 15.36-10.24 10.24-5.12 33.28-15.36 33.28-28.16 0-7.68-2.56-17.92-10.24-17.92-5.12 0-15.36 5.12-20.48 7.68-5.12 2.56-12.8 10.24-17.92 7.68-7.68-2.56-2.56-17.92-2.56-23.04 0-7.68 2.56-15.36 5.12-25.6 2.56-15.36 2.56-30.72 5.12-46.08 0-7.68 2.56-15.36 2.56-23.04 2.56-5.12 5.12-17.92 10.24-23.04 10.24-7.68 10.24 10.24 10.24 15.36-12.8 15.36-12.8 25.6-12.8 33.28zM1968.64 506.88c-17.92-10.24-28.16-23.04-33.28-35.84-2.56-5.12-2.56-7.68-2.56-12.8 0-2.56 0-5.12 2.56-7.68 2.56-2.56 5.12-2.56 7.68-2.56 7.68-2.56 7.68 0 10.24-7.68 5.12-10.24 0-33.28 5.12-43.52 2.56-7.68 5.12-23.04 7.68-30.72 5.12-12.8 5.12-23.04 2.56-28.16-7.68-5.12-17.92-2.56-30.72-2.56h-48.64c-12.8 0-30.72 2.56-40.96 2.56-10.24 0-15.36-5.12-23.04-5.12-5.12 0-7.68 10.24-7.68 12.8-5.12 7.68-10.24 7.68-17.92 5.12l-28.16-5.12c-15.36-7.68-12.8-23.04-43.52-23.04-2.56 20.48-10.24 30.72-23.04 38.4-7.68 5.12-17.92 17.92-25.6 20.48-7.68 2.56-25.6 10.24-25.6 15.36-2.56 5.12 0 10.24 5.12 15.36l7.68 7.68c0 2.56 7.68 5.12 7.68 7.68 5.12 7.68 17.92-2.56 25.6-10.24 0 2.56 0 7.68-2.56 10.24 0 2.56-2.56 5.12-2.56 7.68 0 2.56 7.68 5.12 10.24 2.56 2.56 0 7.68-2.56 12.8-2.56s5.12-2.56 7.68 0c5.12 2.56 2.56 10.24 2.56 15.36-7.68 5.12-15.36 2.56-23.04 2.56-12.8 0-15.36-2.56-17.92-2.56-5.12 2.56-2.56 10.24-2.56 15.36 0 12.8 7.68 15.36 12.8 20.48 2.56 2.56 5.12 2.56 10.24 2.56 7.68-2.56 2.56-2.56 10.24-5.12 2.56 0 7.68-2.56 10.24 0 2.56 2.56 2.56 5.12 2.56 7.68v15.36c0 7.68-5.12 10.24-12.8 12.8-5.12 2.56-10.24 2.56-17.92 5.12-2.56 0-5.12 0-5.12 2.56-10.24 7.68 20.48 30.72 28.16 33.28 5.12 2.56 38.4-23.04 61.44-30.72h7.68l7.68 15.36c2.56 5.12 7.68 10.24 12.8 12.8 2.56 2.56 7.68 7.68 12.8 7.68 7.68 0 12.8-5.12 17.92-7.68 5.12-5.12 12.8-7.68 20.48-10.24 7.68-2.56 12.8-5.12 20.48-7.68l25.6-5.12c5.12-2.56 10.24-10.24 15.36-15.36 0 0 20.48 25.6 23.04 25.6 7.68 7.68 17.92 15.36 30.72 15.36 7.68 0 12.8-2.56 17.92-7.68 7.68-5.12 10.24-5.12 12.8-10.24 7.68-15.36 2.56-20.48 2.56-20.48-12.8 2.56-33.28-10.24-43.52-15.36zM1820.16 435.2v48.64c0 15.36-2.56 15.36-10.24 30.72-2.56 2.56-5.12 5.12-5.12 7.68-5.12 2.56-7.68 0-10.24-5.12-2.56-2.56-2.56-7.68-5.12-12.8 0-2.56 0-5.12-2.56-7.68 0-2.56-2.56-2.56-5.12-2.56-7.68 0-15.36 0-23.04 2.56-2.56 0-2.56 0-2.56 2.56-2.56 0-5.12 2.56-5.12 0v-7.68-2.56c0-7.68-2.56-15.36 5.12-17.92 7.68-5.12 15.36-2.56 23.04-5.12h10.24c2.56 0 5.12 0 7.68-2.56 2.56-2.56 5.12-7.68 5.12-10.24 0-5.12-5.12-5.12-7.68-7.68h-35.84-2.56v-5.12-7.68c0-2.56 0-5.12 2.56-7.68 0 0 2.56 0 5.12-2.56 2.56 0 5.12 0 5.12-2.56 5.12 0 10.24-2.56 15.36-2.56 5.12-2.56 12.8 0 17.92 2.56 2.56 0 5.12-2.56 5.12-5.12 0-5.12-2.56-10.24-5.12-12.8 0-2.56-10.24-5.12-12.8-5.12-10.24-2.56-12.8-2.56-23.04-2.56h-17.92c-5.12 0-5.12-2.56-7.68-5.12 0 0 2.56-2.56 2.56-5.12l38.4-15.36h10.24c10.24 0 12.8-2.56 20.48 5.12 2.56 15.36 7.68 46.08 7.68 61.44z m23.04-64c2.56-2.56 7.68-2.56 10.24-2.56 10.24 2.56 17.92 0 20.48 0h17.92l23.04-2.56c5.12 0 7.68 2.56 10.24 5.12 2.56 2.56 7.68 2.56 7.68 5.12 2.56 7.68-35.84 12.8-40.96 12.8-12.8 0-25.6 2.56-33.28 0-5.12 0-7.68-2.56-12.8-2.56h-5.12c2.56-2.56 0-12.8 2.56-15.36z m12.8 128c-2.56 5.12-2.56 5.12-7.68 7.68h-2.56v-17.92-23.04c0-2.56 0-5.12 2.56-5.12 2.56-2.56 7.68 0 10.24 0 5.12 0 7.68-2.56 12.8-2.56s7.68 2.56 7.68 7.68c0 5.12-5.12 12.8-7.68 17.92-7.68 2.56-10.24 10.24-15.36 15.36z m46.08 7.68c-5.12 0-10.24 2.56-15.36 2.56-5.12 0-5.12-7.68-5.12-12.8 0-7.68 5.12-12.8 7.68-20.48 2.56-2.56 2.56-7.68 5.12-2.56l7.68 7.68c2.56 5.12 5.12 7.68 7.68 12.8 0 0 5.12 5.12 2.56 5.12 0 5.12-7.68 7.68-10.24 7.68z m20.48-79.36c-2.56 2.56-7.68 2.56-12.8 2.56s-10.24 2.56-15.36 2.56c-10.24 0-17.92 2.56-28.16 5.12-7.68 0-15.36 2.56-23.04 0 0 0-2.56-15.36 0-17.92 2.56-2.56 10.24-2.56 12.8-2.56 10.24-2.56 20.48 0 33.28-2.56 7.68 0 15.36-2.56 23.04-5.12 2.56 0 7.68-2.56 10.24 0 2.56 2.56 2.56 12.8 0 17.92zM2096.64 327.68c23.04 0 38.4 12.8 51.2 17.92 20.48 7.68 43.52 0 53.76 17.92 0-2.56 12.8-12.8 12.8-15.36 15.36-15.36 28.16-10.24 46.08-7.68 10.24 0 20.48 2.56 33.28 2.56 10.24 0 23.04 0 33.28-2.56s23.04-5.12 33.28 2.56c7.68 5.12 17.92 23.04 15.36 28.16-5.12 7.68-17.92 5.12-25.6 2.56-15.36-5.12-28.16-5.12-43.52-5.12-25.6 0-51.2 5.12-76.8 5.12-12.8 0-5.12-5.12-17.92-5.12-2.56 5.12-12.8 5.12-17.92 7.68-7.68 2.56-20.48 10.24-30.72 10.24-10.24 2.56-20.48 0-30.72-2.56-15.36-2.56-28.16-7.68-35.84-23.04-2.56-5.12-7.68-12.8-7.68-17.92-5.12-5.12 2.56-10.24 7.68-15.36z m176.64 81.92c15.36-2.56 30.72 0 43.52 0h40.96c23.04 2.56 38.4-7.68 46.08 0 2.56 10.24-5.12 35.84-17.92 40.96-10.24 5.12-23.04-2.56-33.28-5.12-7.68-2.56-25.6-7.68-33.28-2.56-5.12 5.12-2.56 15.36-2.56 23.04 0 7.68-2.56 17.92-2.56 25.6 2.56 17.92 0 35.84 0 48.64 0 5.12-2.56 20.48-10.24 12.8-5.12-5.12-12.8-10.24-12.8-17.92-2.56-7.68 0-17.92 0-25.6 0-12.8-5.12-30.72-2.56-43.52 0-35.84-38.4-25.6-58.88-20.48-5.12 0-10.24 2.56-15.36 2.56h-17.92c0 2.56-2.56 5.12-2.56 5.12-2.56 10.24-5.12 20.48-10.24 30.72-2.56 7.68-5.12 17.92-7.68 25.6-7.68 15.36-17.92 30.72-35.84 33.28-10.24 2.56-23.04 2.56-33.28 0s-20.48-17.92-12.8-30.72c15.36-2.56 33.28-5.12 48.64-15.36 7.68-5.12 15.36-12.8 20.48-20.48 2.56-5.12 7.68-10.24 7.68-15.36 2.56-7.68-5.12-10.24-10.24-15.36-12.8 0-23.04 5.12-35.84 10.24-7.68 2.56-20.48 10.24-30.72 7.68-5.12-2.56-10.24-12.8-15.36-17.92-2.56-5.12-10.24-15.36-7.68-23.04 5.12-10.24 12.8-15.36 35.84-15.36 12.8 5.12 28.16 7.68 43.52 7.68 10.24 0 33.28-7.68 38.4 2.56 0 2.56 5.12 20.48 5.12 20.48 12.8 0 15.36-7.68 25.6-15.36 7.68-7.68 15.36-17.92 28.16-17.92 10.24 5.12 17.92 7.68 25.6 5.12zM839.68 381.44h-15.36s0 2.56-2.56 2.56c2.56 7.68 5.12 23.04 12.8 28.16 5.12 5.12 12.8-2.56 20.48 2.56 5.12 2.56 10.24 33.28 12.8 51.2 0 5.12-5.12 10.24-2.56 12.8 7.68 7.68 7.68 5.12 15.36 15.36 0 0 17.92 2.56 20.48 2.56 7.68 0 12.8-2.56 20.48 0 0 10.24 0 12.8-5.12 12.8-7.68 0-15.36 0-23.04 2.56-7.68 2.56-20.48 2.56-28.16 2.56-2.56 0-12.8-2.56-12.8 0-5.12 7.68-12.8 15.36-10.24 23.04 0 10.24 17.92 2.56 25.6 0 23.04-7.68 28.16-7.68 53.76-10.24 0 0 2.56 23.04 2.56 25.6 0 2.56 5.12 7.68 7.68 10.24 5.12 0 5.12-10.24 5.12-15.36 2.56-7.68 0-15.36 2.56-20.48 5.12-2.56 10.24 0 17.92 0 7.68 0 15.36 0 20.48 2.56 5.12 5.12 5.12 7.68 7.68 15.36 5.12 7.68 10.24 12.8 20.48 12.8 7.68 0 15.36-5.12 25.6-7.68 7.68-5.12 12.8-7.68 17.92-12.8 2.56-2.56 5.12-2.56 7.68-5.12 2.56-2.56 2.56-2.56 5.12-2.56 5.12 0 10.24 7.68 15.36 10.24 2.56 2.56 5.12 2.56 7.68 5.12 5.12 2.56 7.68 7.68 12.8 10.24 2.56 2.56 5.12 5.12 10.24 7.68 2.56 0 5.12 0 7.68 2.56 7.68 2.56 15.36-2.56 20.48-7.68 2.56-5.12 20.48-12.8 12.8-20.48 0 0-2.56-2.56-5.12-2.56H1126.4c-5.12-2.56-15.36-5.12-17.92-12.8 0-7.68 2.56-17.92 5.12-25.6 2.56-7.68 10.24-15.36 7.68-23.04-5.12-12.8-28.16-10.24-38.4-10.24h-48.64l-7.68-2.56-5.12-10.24h12.8l23.04-5.12h40.96l25.6 5.12c5.12 0-2.56-10.24-2.56-12.8-2.56-2.56-5.12-2.56-7.68-5.12-10.24-2.56-20.48-2.56-30.72-5.12-5.12 0-12.8-2.56-15.36-5.12 0-2.56 2.56-2.56 2.56-5.12 5.12 0 7.68-2.56 12.8-2.56 10.24-2.56 23.04 0 33.28 0s15.36 5.12 28.16 2.56c5.12-2.56 7.68-7.68 10.24-12.8 2.56-5.12 7.68-12.8 7.68-20.48-2.56 0-5.12 0-7.68-2.56-20.48 2.56-35.84 0-56.32-5.12-5.12-2.56-5.12-2.56-7.68-7.68 7.68-10.24 23.04-12.8 35.84-17.92 7.68-5.12 10.24-5.12 5.12-10.24-2.56-2.56-2.56-5.12-5.12-5.12-12.8-7.68-30.72-2.56-46.08-5.12-12.8 0-20.48-12.8-33.28-15.36h-2.56c-7.68 0-7.68 10.24-10.24 15.36l-2.56 2.56c-5.12 2.56-10.24 7.68-17.92 10.24 0 0-2.56 0-2.56 2.56-10.24-5.12-17.92-7.68-28.16-7.68-5.12-2.56-12.8-2.56-20.48-5.12-7.68-2.56-10.24-15.36-15.36-15.36-2.56-2.56-10.24-5.12-12.8-2.56-2.56 0-12.8 2.56-12.8 5.12-2.56 25.6-20.48 20.48-43.52 23.04-5.12 0-10.24 2.56-15.36 2.56-2.56 0-5.12-2.56-7.68-2.56-2.56 2.56-5.12 5.12-5.12 7.68 0 2.56 2.56 7.68 5.12 10.24 2.56 2.56 2.56 5.12 5.12 5.12s7.68 2.56 10.24 2.56c7.68 2.56 15.36 2.56 25.6 2.56l2.56 12.8c-2.56 5.12-17.92 5.12-25.6 5.12l-33.28-7.68z m227.84 107.52c0-2.56 2.56-2.56 2.56-5.12 2.56-2.56 2.56-5.12 5.12-7.68h12.8l5.12 2.56 2.56 2.56V512c-5.12 0-10.24-2.56-15.36-5.12-5.12-2.56-7.68-7.68-12.8-12.8-2.56 2.56 0-2.56 0-5.12z m-40.96 5.12l5.12-7.68 2.56-2.56s10.24 2.56 12.8 2.56c2.56 2.56 5.12 2.56 5.12 5.12v10.24c-5.12 7.68-15.36 15.36-23.04 15.36h-2.56c-5.12-7.68-5.12-12.8 0-23.04z m17.92-153.6h12.8l10.24 2.56c0 2.56-10.24 5.12-10.24 7.68h-15.36c-2.56-2.56-2.56-5.12-5.12-5.12 2.56 0 5.12-2.56 7.68-5.12z m-56.32 28.16c2.56-2.56 10.24-5.12 17.92-5.12h2.56s5.12 0 5.12 2.56c0 0 2.56 0 2.56 2.56 10.24 7.68 0 12.8-5.12 15.36-2.56 2.56-5.12 5.12-7.68 5.12h-7.68c-2.56-12.8-10.24-17.92-7.68-20.48z m-20.48-12.8l5.12 2.56c2.56 2.56 2.56 2.56 2.56 5.12 0 5.12-10.24 2.56-12.8 2.56 0-2.56 2.56-2.56 2.56-5.12l2.56-5.12z m-51.2 0c5.12 0 23.04-2.56 25.6 2.56-2.56 2.56-2.56 7.68-7.68 10.24-2.56 0-5.12 0-7.68 2.56l-7.68 2.56-7.68-7.68c2.56-5.12 5.12-7.68 5.12-10.24z m-12.8 43.52c7.68-2.56 15.36-2.56 23.04-5.12l20.48-2.56h25.6l5.12 5.12-2.56 5.12c-5.12 2.56-10.24 2.56-17.92 5.12-10.24 2.56-17.92 2.56-28.16 2.56h-23.04c-5.12 0-15.36 2.56-20.48 0-12.8-5.12 15.36-7.68 17.92-10.24z m0 35.84c5.12 0 7.68-2.56 12.8-2.56 2.56 0 5.12 0 5.12-2.56 2.56 0 5.12-2.56 5.12-2.56 10.24 0 20.48 0 28.16 2.56 2.56 0 5.12-2.56 7.68 0 2.56 2.56 0 10.24-2.56 10.24-5.12 2.56-7.68 2.56-12.8 2.56h-20.48c-12.8 0-25.6 5.12-40.96 5.12l-5.12-5.12c7.68-7.68 17.92-7.68 23.04-7.68z m25.6 38.4c-10.24 2.56-43.52 7.68-43.52 2.56 0 0-5.12-15.36 0-15.36 15.36-2.56 28.16 2.56 40.96-2.56 2.56 0 5.12-2.56 7.68-2.56h23.04c2.56 0 2.56 10.24 2.56 12.8-2.56 2.56-10.24 0-12.8 2.56-5.12 2.56-10.24 2.56-17.92 2.56z m99.84-46.08h-25.6c-2.56 0-7.68 5.12-10.24 7.68 0 5.12 7.68 15.36 7.68 17.92 2.56 10.24 2.56 17.92 2.56 28.16 2.56 10.24 5.12 28.16 5.12 40.96l-7.68 2.56-7.68-2.56c-15.36-10.24-12.8-23.04-33.28-20.48h-20.48c-2.56-2.56-2.56-10.24-2.56-12.8 5.12-5.12 12.8-2.56 23.04-2.56 5.12 0 10.24 2.56 15.36 2.56 5.12 0 5.12 0 7.68-5.12l2.56-5.12c-2.56-2.56-7.68-7.68-7.68-10.24 2.56-20.48 7.68-33.28 10.24-48.64 2.56-5.12 0-10.24 7.68-12.8 7.68-2.56 7.68 5.12 15.36 7.68 2.56 0 30.72-2.56 25.6 5.12 0 5.12-2.56 5.12-7.68 7.68z m17.92-28.16c-5.12 0-7.68 0-10.24-2.56-2.56 0-7.68-2.56-7.68-2.56l2.56-5.12c2.56 0 15.36-7.68 17.92-10.24l7.68 5.12c7.68 5.12 12.8 5.12 15.36 12.8-5.12 2.56-17.92 2.56-25.6 2.56zM885.76 634.88h10.24c5.12 0 7.68 2.56 7.68 2.56 2.56 2.56 2.56 5.12 2.56 7.68 0 2.56 0 5.12-2.56 7.68-2.56 2.56-5.12 2.56-10.24 2.56h-10.24v15.36c7.68 0 15.36 0 17.92 2.56 2.56 0 5.12 2.56 7.68 5.12 2.56 2.56 2.56 5.12 2.56 7.68 0 2.56-2.56 7.68-2.56 7.68-2.56 2.56-5.12 2.56-7.68 2.56h-15.36v20.48h20.48c5.12 0 10.24-2.56 15.36-5.12 5.12-2.56 7.68-5.12 10.24-10.24 2.56-5.12 2.56-7.68 2.56-12.8s-2.56-10.24-5.12-15.36c-2.56-5.12-7.68-7.68-15.36-7.68 5.12-2.56 7.68-5.12 12.8-7.68 2.56-5.12 5.12-7.68 5.12-12.8s0-7.68-2.56-12.8l-7.68-7.68c-2.56-2.56-7.68-2.56-12.8-5.12h-20.48v15.36h-2.56z m-10.24 0h-12.8v23.04H885.76v15.36H865.28v25.6h20.48v17.92h-46.08v-97.28h46.08v15.36h-10.24zM1000.96 642.56l15.36 35.84h-15.36v15.36h23.04l10.24 23.04h25.6l-46.08-97.28h-12.8v23.04z m-15.36 35.84h15.36v15.36h-23.04l-10.24 23.04h-25.6l43.52-97.28h12.8v23.04l-12.8 35.84zM1070.08 716.8v-97.28h23.04l48.64 64v-64h20.48V716.8h-23.04l-46.08-64V716.8zM1187.84 716.8v-97.28h23.04v43.52l46.08-43.52h30.72l-43.52 35.84 46.08 61.44h-30.72L1228.8 670.72l-17.92 15.36V716.8zM1397.76 634.88c10.24 0 17.92 2.56 23.04 7.68 5.12 5.12 7.68 12.8 7.68 25.6s-2.56 20.48-7.68 25.6c-5.12 5.12-12.8 7.68-23.04 7.68v15.36c17.92 0 30.72-5.12 40.96-12.8 10.24-7.68 15.36-20.48 15.36-35.84 0-15.36-5.12-28.16-15.36-38.4-10.24-7.68-23.04-12.8-40.96-12.8v17.92z m-23.04 7.68c-5.12 5.12-7.68 12.8-7.68 25.6 0 10.24 2.56 20.48 7.68 25.6 5.12 5.12 12.8 7.68 23.04 7.68v15.36c-17.92 0-30.72-5.12-40.96-12.8-10.24-7.68-15.36-20.48-15.36-35.84 0-10.24 2.56-17.92 5.12-25.6 2.56-5.12 5.12-10.24 10.24-12.8 5.12-5.12 10.24-7.68 15.36-7.68 7.68-2.56 15.36-2.56 25.6-2.56v15.36c-10.24 0-17.92 2.56-23.04 7.68zM1469.44 716.8v-97.28h79.36v15.36h-53.76v23.04h46.08v15.36h-46.08V716.8zM1666.56 680.96V665.6H1715.2v38.4c-5.12 2.56-12.8 7.68-20.48 10.24-10.24 2.56-17.92 2.56-28.16 2.56-12.8 0-23.04-2.56-30.72-7.68-7.68-5.12-15.36-10.24-20.48-17.92-5.12-7.68-7.68-15.36-7.68-25.6s2.56-17.92 7.68-25.6c5.12-7.68 12.8-12.8 23.04-17.92 7.68-2.56 15.36-5.12 28.16-5.12 15.36 0 25.6 2.56 33.28 7.68 7.68 5.12 12.8 12.8 15.36 20.48l-23.04 2.56c-2.56-5.12-5.12-7.68-7.68-10.24-5.12-2.56-10.24-5.12-17.92-5.12-10.24 0-17.92 2.56-23.04 7.68-5.12 5.12-7.68 12.8-7.68 23.04 0 12.8 2.56 20.48 10.24 25.6 5.12 5.12 12.8 7.68 23.04 7.68 5.12 0 10.24 0 15.36-2.56 5.12-2.56 10.24-2.56 12.8-5.12v-12.8h-30.72zM1781.76 642.56l15.36 35.84h-15.36v15.36h23.04l10.24 23.04h25.6l-46.08-97.28h-12.8v23.04z m-15.36 35.84h15.36v15.36h-23.04l-7.68 23.04h-25.6l43.52-97.28h12.8v23.04l-15.36 35.84zM1853.44 716.8v-97.28h23.04l46.08 64v-64h20.48V716.8H1920l-46.08-64V716.8zM1958.4 716.8v-17.92l61.44-64h-53.76v-15.36h84.48v15.36l-64 64h66.56v17.92zM2065.92 716.8v-97.28h23.04v38.4h46.08v-38.4h23.04V716.8h-23.04v-43.52h-46.08V716.8zM2232.32 634.88c10.24 0 17.92 2.56 23.04 7.68 5.12 5.12 7.68 12.8 7.68 25.6s-2.56 20.48-7.68 25.6c-5.12 5.12-12.8 7.68-23.04 7.68v15.36c17.92 0 30.72-5.12 40.96-12.8 10.24-7.68 15.36-20.48 15.36-35.84 0-15.36-5.12-28.16-15.36-38.4-10.24-7.68-23.04-12.8-40.96-12.8v17.92z m-23.04 7.68c-5.12 5.12-10.24 12.8-10.24 25.6 0 10.24 2.56 20.48 10.24 25.6 5.12 5.12 12.8 7.68 23.04 7.68v15.36c-17.92 0-30.72-5.12-40.96-12.8-10.24-7.68-15.36-20.48-15.36-35.84 0-10.24 2.56-17.92 5.12-25.6 2.56-5.12 5.12-10.24 10.24-12.8 5.12-5.12 10.24-7.68 15.36-7.68 7.68-2.56 15.36-2.56 25.6-2.56v15.36c-7.68 0-15.36 2.56-23.04 7.68zM2306.56 619.52h23.04v69.12c0 5.12 2.56 7.68 7.68 10.24 2.56 2.56 7.68 2.56 15.36 2.56s12.8-2.56 15.36-2.56c2.56-2.56 5.12-5.12 5.12-7.68v-71.68h23.04v51.2c0 10.24 0 20.48-2.56 25.6 0 5.12-2.56 7.68-7.68 12.8-2.56 2.56-7.68 5.12-12.8 7.68h-20.48c-10.24 0-17.92 0-25.6-2.56-5.12-2.56-10.24-5.12-12.8-7.68-2.56-2.56-5.12-7.68-7.68-10.24-2.56-5.12-2.56-12.8-2.56-25.6v-51.2z" fill="#15120F" p-id="2497"></path></svg>