<?xml version="1.0" standalone="no"?><!DOCTYPE svg PUBLIC "-//W3C//DTD SVG 1.1//EN" "http://www.w3.org/Graphics/SVG/1.1/DTD/svg11.dtd"><svg t="1531986137123" class="icon" style="" viewBox="0 0 2560 1024" version="1.1" xmlns="http://www.w3.org/2000/svg" p-id="2728" xmlns:xlink="http://www.w3.org/1999/xlink" width="500" height="200"><defs><style type="text/css"></style></defs><path d="M1054.72 565.76V537.6c12.8-5.12 25.6-7.68 38.4-12.8-2.56-25.6 0-51.2 0-76.8 0-5.12 10.24-2.56 12.8-5.12 12.8 2.56 25.6-2.56 38.4 0v48.64c2.56 5.12 5.12 7.68 7.68 12.8 25.6-12.8 40.96-30.72 61.44-46.08h46.08c-5.12 5.12-7.68 17.92-12.8 23.04-23.04 25.6-43.52 43.52-71.68 56.32-10.24 5.12-20.48 0-30.72 7.68 5.12 15.36-7.68 25.6 7.68 30.72 15.36-2.56 46.08 2.56 71.68 2.56 20.48 0 38.4-5.12 46.08 2.56 0 5.12 2.56 20.48 2.56 25.6-48.64 0-122.88 5.12-163.84-2.56-5.12 0-7.68-7.68-10.24-10.24-2.56-12.8-5.12-23.04-5.12-35.84-15.36 5.12-28.16 5.12-38.4 7.68z m688.64-120.32c15.36 0 40.96-2.56 48.64 2.56-5.12 10.24-7.68 20.48-12.8 30.72 10.24 0 23.04-2.56 35.84 0v28.16c-25.6-2.56-53.76 0-71.68 0-7.68 0-10.24 7.68-17.92 10.24-7.68 5.12-23.04 7.68-35.84 7.68l-2.56-2.56v-28.16c15.36-7.68 35.84-15.36 43.52-25.6 5.12-7.68 0-15.36 12.8-23.04z m399.36-2.56c12.8 0 33.28 2.56 46.08 5.12v2.56l-5.12 5.12c-10.24 25.6-30.72 48.64-58.88 58.88-17.92 5.12-38.4 5.12-58.88 7.68v-30.72c23.04-2.56 40.96-7.68 56.32-17.92 10.24-7.68 7.68-23.04 20.48-30.72z m-1177.6 87.04c-15.36 0-30.72 2.56-43.52 2.56 0-10.24 0-23.04 2.56-30.72 38.4 0 69.12-15.36 87.04-33.28 7.68-7.68 5.12-12.8 12.8-20.48h46.08c-2.56 2.56-2.56 7.68-5.12 10.24-7.68 25.6-30.72 35.84-46.08 53.76 0 33.28-2.56 66.56-2.56 99.84-15.36 0-33.28-2.56-48.64-2.56-2.56-28.16-2.56-53.76-2.56-79.36zM1331.2 716.8v-33.28c-15.36-5.12-15.36-10.24-23.04-17.92 2.56-5.12 5.12-7.68 10.24-12.8 20.48-7.68 35.84-23.04 46.08-43.52-15.36-12.8-25.6-2.56-35.84-20.48 5.12-23.04-5.12-76.8 5.12-97.28 38.4-2.56 81.92-2.56 120.32-2.56v-10.24l-5.12-5.12c-43.52 0-87.04 2.56-130.56 0V460.8c0-2.56 2.56-5.12 2.56-10.24 46.08 0 176.64-5.12 258.56-5.12 38.4 0 64-5.12 71.68 2.56v25.6c-48.64 2.56-94.72 0-143.36 0v12.8c5.12 0 7.68 2.56 12.8 2.56 30.72-7.68 81.92-7.68 117.76 0 5.12 17.92 2.56 38.4 2.56 58.88 0 20.48 5.12 35.84-2.56 46.08-5.12 0-10.24 7.68-15.36 7.68-66.56 2.56-138.24 0-202.24 2.56 0 10.24-2.56 5.12 2.56 12.8H1638.4c-10.24 38.4-46.08 38.4-69.12 61.44v2.56c28.16 2.56 53.76 5.12 81.92 5.12 0 10.24-2.56 17.92-2.56 28.16-28.16 0-79.36 0-115.2-7.68-20.48-2.56-28.16-12.8-40.96-12.8-23.04 5.12-38.4 12.8-64 15.36-28.16 10.24-66.56 7.68-97.28 7.68z m532.48-266.24c58.88-2.56 174.08-15.36 166.4 28.16-5.12 35.84 10.24 112.64-12.8 110.08-20.48 10.24-56.32 5.12-140.8 5.12 0 30.72-5.12 76.8 5.12 97.28 15.36 0 30.72 2.56 46.08 2.56v25.6c-23.04 0-51.2-2.56-76.8-2.56-7.68-5.12-17.92 2.56-23.04-12.8-7.68-28.16-2.56-89.6-2.56-133.12 0-40.96-2.56-81.92 2.56-110.08 2.56-2.56 15.36-15.36 35.84-10.24z m340.48 5.12c40.96 2.56 156.16-5.12 192 2.56 2.56 0 2.56 28.16-2.56 25.6-61.44 0-125.44 5.12-186.88 5.12 0-7.68-2.56-25.6-2.56-33.28z m-243.2 79.36c-20.48 0-64 0-81.92 2.56 2.56 12.8-5.12 15.36 0 23.04 30.72 0 76.8 10.24 97.28 0 0-25.6 5.12-61.44 0-84.48-23.04 2.56-81.92-2.56-97.28 2.56 0 5.12 0 15.36-2.56 20.48l5.12 5.12h79.36c0 2.56 2.56 5.12 2.56 5.12 0 10.24-2.56 17.92-2.56 25.6z m-396.8-12.8c0 12.8 5.12 15.36 0 20.48-58.88 0-122.88 2.56-184.32 2.56 0 2.56 2.56 5.12 2.56 5.12 61.44 0 120.32 2.56 181.76 2.56v2.56c0 5.12 2.56 10.24 0 15.36-30.72 0-74.24 2.56-110.08 0-28.16 0-51.2 0-74.24 2.56 2.56 0-2.56 5.12 0 7.68 23.04 2.56 43.52 2.56 76.8 2.56 51.2 0 110.08 0 130.56-5.12 0-25.6 2.56-53.76-5.12-69.12-25.6 0-53.76 2.56-81.92 0-35.84-2.56-64-2.56-97.28 0-7.68 0-15.36-2.56-23.04 0 0 2.56 0 7.68 2.56 10.24 58.88 2.56 120.32 2.56 181.76 2.56zM2099.2 716.8c0-43.52-2.56-84.48-2.56-128-10.24 0-23.04 5.12-33.28 5.12v-35.84c35.84-2.56 61.44-20.48 76.8-43.52h46.08c-5.12 15.36-7.68 25.6-15.36 35.84-5.12 5.12-20.48 10.24-23.04 20.48 0 48.64-2.56 99.84-2.56 148.48-15.36-2.56-30.72-2.56-46.08-2.56z m125.44 5.12c0-7.68-2.56-20.48-2.56-28.16 28.16 0 61.44-2.56 89.6-2.56 20.48-12.8 10.24-102.4 7.68-130.56-30.72 0-99.84 0-125.44-2.56-2.56-10.24-7.68-17.92-2.56-25.6 69.12 2.56 143.36-5.12 209.92-2.56 0 7.68 2.56 23.04 2.56 33.28-15.36 0-25.6-2.56-33.28 2.56-2.56 43.52 2.56 92.16-2.56 128-2.56 10.24-10.24 15.36-15.36 23.04-10.24 10.24-84.48 5.12-128 5.12z m-409.6-163.84h-38.4v5.12c-10.24 25.6 17.92 20.48 35.84 23.04 2.56 5.12 5.12 10.24 2.56 15.36v10.24c-12.8 0-30.72 2.56-43.52 2.56 0 20.48 0 43.52 2.56 58.88 12.8-7.68 25.6-20.48 38.4-20.48-2.56 10.24 2.56 23.04 0 33.28-23.04 15.36-56.32 38.4-94.72 28.16v-104.96c-10.24 0-23.04 2.56-33.28 0 0-7.68-2.56-20.48-2.56-25.6 10.24 0 25.6 0 35.84-2.56 0-5.12-2.56-15.36 0-23.04-7.68-7.68-20.48 0-33.28-2.56v-25.6c10.24 2.56 25.6 0 38.4-2.56h61.44c10.24 0 20.48-2.56 28.16 0 2.56 12.8 2.56 25.6 2.56 30.72z m99.84 46.08c15.36 7.68 25.6 33.28 35.84 46.08 5.12-5.12 12.8-10.24 17.92-15.36 2.56-10.24 5.12-17.92 10.24-28.16 15.36 0 30.72 2.56 46.08 2.56-5.12 7.68-7.68 20.48-12.8 28.16-7.68 12.8-20.48 20.48-28.16 33.28 2.56 2.56 5.12 5.12 5.12 10.24 15.36 2.56 33.28 2.56 48.64 5.12 0 10.24-2.56 25.6-2.56 33.28-76.8-2.56-120.32-48.64-145.92-99.84 7.68-10.24 17.92-10.24 25.6-15.36z m-793.6 15.36c5.12 5.12-2.56 10.24 0 17.92h145.92c0 5.12 2.56 7.68 2.56 12.8s-2.56 10.24-2.56 15.36h-143.36c-2.56 0-5.12 2.56-5.12 2.56 0 17.92 2.56 35.84 0 53.76-17.92 0-38.4-2.56-56.32-2.56v-56.32h-143.36c0-10.24 2.56-30.72 0-28.16 43.52 0 92.16 2.56 140.8 0 5.12 0-2.56-15.36 2.56-15.36 17.92-2.56 40.96 0 58.88 0z m327.68 20.48l-2.56 2.56c23.04 25.6 87.04 35.84 102.4-2.56h-99.84z m-74.24 12.8c-12.8 10.24-25.6 23.04-38.4 33.28h61.44c12.8 0 25.6 2.56 33.28-5.12-17.92-7.68-38.4-20.48-56.32-28.16z" fill="#231815" p-id="2729"></path><path d="M670.72 358.4l-20.48-25.6s-74.24 12.8-71.68-30.72c0 0 5.12-30.72-48.64-17.92 0 0-12.8-12.8-12.8-17.92 0 0 2.56-17.92-53.76-7.68 0 0-87.04 10.24-181.76 117.76 0 0-94.72 79.36-94.72-2.56 0 0-51.2 53.76-23.04 94.72 0 0 30.72 43.52 92.16 7.68 0 0-17.92 145.92 79.36 222.72 0 0 102.4 94.72 217.6 61.44 0 0 97.28-20.48 135.68-117.76 0 0-17.92 17.92-25.6 15.36 0 0 25.6-30.72 28.16-46.08 0 0 0-17.92-15.36 10.24 0 0 2.56-17.92-7.68-10.24 0 0-51.2 58.88-74.24 64 0 0-163.84 97.28-238.08-97.28 0 0-30.72-92.16 43.52-161.28 74.24-69.12 148.48-61.44 215.04-12.8 0 0 33.28-38.4 48.64-30.72 0 2.56 12.8-5.12 7.68-15.36z" fill="#E60012" p-id="2730"></path><path d="M442.88 473.6h161.28v122.88h-161.28v-122.88z" fill="#E60012" p-id="2731"></path><path d="M1313.28 394.24h-15.36v-89.6h15.36v38.4h46.08v-38.4h15.36v89.6h-15.36v-38.4h-46.08v38.4z m89.6-89.6h15.36v56.32c0 7.68 2.56 12.8 5.12 17.92 2.56 2.56 7.68 5.12 15.36 5.12s12.8-2.56 15.36-5.12c2.56-2.56 5.12-7.68 5.12-17.92v-56.32h15.36v69.12c0 2.56-2.56 5.12-5.12 7.68-2.56 5.12-7.68 7.68-12.8 10.24-5.12 2.56-10.24 2.56-17.92 2.56-7.68 0-12.8 0-17.92-2.56-5.12-2.56-10.24-5.12-12.8-10.24-2.56-2.56-2.56-5.12-5.12-7.68 0-2.56-2.56-7.68-2.56-15.36v-53.76h2.56z m151.04 51.2l-15.36-33.28-15.36 33.28h30.72z m-35.84 12.8l-12.8 25.6h-17.92l43.52-89.6h15.36l43.52 89.6h-17.92l-12.8-25.6h-40.96z m125.44-7.68l-28.16 35.84h-17.92l38.4-46.08-35.84-43.52h17.92l25.6 35.84 25.6-35.84h20.48l-35.84 43.52 38.4 46.08h-17.92l-30.72-35.84z m81.92 33.28h-15.36v-89.6h15.36v89.6z m79.36-38.4l-15.36-33.28-15.36 33.28h30.72z m-35.84 12.8l-12.8 25.6h-17.92l43.52-89.6h15.36l43.52 89.6h-17.92l-12.8-25.6h-40.96z m230.4-25.6h5.12c7.68 0 15.36 0 17.92-2.56 2.56-2.56 5.12-5.12 5.12-10.24s-2.56-7.68-5.12-10.24c-2.56-2.56-7.68-2.56-15.36-2.56h-7.68v25.6z m0 40.96h12.8c7.68 0 12.8 0 15.36-2.56 2.56-2.56 5.12-5.12 5.12-10.24s-2.56-7.68-5.12-12.8c-2.56-2.56-10.24-5.12-15.36-5.12h-12.8V384z m7.68-79.36c12.8 0 20.48 2.56 28.16 5.12 5.12 5.12 10.24 10.24 10.24 17.92 0 2.56 0 7.68-2.56 10.24l-7.68 7.68c5.12 2.56 10.24 2.56 12.8 7.68 2.56 2.56 5.12 7.68 5.12 12.8s0 7.68-2.56 12.8c-2.56 2.56-5.12 7.68-7.68 10.24-2.56 2.56-7.68 5.12-12.8 5.12s-10.24 2.56-17.92 2.56h-25.6V307.2h20.48v-2.56z m120.32 51.2l-15.36-33.28-15.36 33.28h30.72z m-38.4 12.8l-12.8 25.6h-17.92l43.52-89.6h15.36l43.52 89.6h-17.92l-12.8-25.6h-40.96z m104.96 25.6h-15.36v-89.6h17.92l56.32 66.56v-66.56h15.36v89.6H2252.8l-56.32-69.12-2.56 69.12z m117.76-43.52l43.52-46.08h20.48L2329.6 350.72l43.52 46.08h-20.48l-40.96-46.08z m0 43.52h-15.36v-89.6h15.36v89.6z" fill="#231815" p-id="2732"></path></svg>