<?xml version="1.0" standalone="no"?><!DOCTYPE svg PUBLIC "-//W3C//DTD SVG 1.1//EN" "http://www.w3.org/Graphics/SVG/1.1/DTD/svg11.dtd"><svg t="1531986243029" class="icon" style="" viewBox="0 0 3413 1024" version="1.1" xmlns="http://www.w3.org/2000/svg" p-id="7390" xmlns:xlink="http://www.w3.org/1999/xlink" width="666.6015625" height="200"><defs><style type="text/css"></style></defs><path d="M259.413333 109.226667s6.826667-6.826667 18.773334-11.946667c0 0-3.413333 11.946667-15.36 15.36 0 0 11.946667 0 15.36 11.946667 0 0-6.826667 6.826667-18.773334-3.413334 0 0 6.826667 11.946667-6.826666 18.773334 0 0-6.826667-3.413333 0-18.773334 0 0-11.946667 11.946667-18.773334 11.946667 0 0 0-6.826667 18.773334-15.36 0 0-15.36 0-15.36-6.826667 0 0 6.826667-6.826667 18.773333 3.413334 0 0-6.826667-15.36 3.413333-22.186667 0-6.826667 6.826667 1.706667 0 17.066667z m221.866667 215.04c18.773333 6.826667 15.36 15.36 6.826667 18.773333-6.826667-3.413333-11.946667-3.413333-15.36-6.826667 0 3.413333 6.826667 11.946667 3.413333 15.36s-6.826667 0-11.946667-3.413333c0 0-3.413333-6.826667-3.413333-11.946667 0 0-15.36 11.946667-22.186667 3.413334 0-6.826667 11.946667-11.946667 15.36-11.946667-3.413333 0-18.773333-3.413333-18.773333-6.826667-3.413333-3.413333 0-3.413333 3.413333-3.413333 6.826667-3.413333 15.36 0 22.186667 3.413333 0-3.413333-6.826667-11.946667-3.413333-15.36h3.413333c3.413333 0 6.826667 3.413333 6.826667 3.413334 3.413333 3.413333 3.413333 6.826667 3.413333 11.946666 0-3.413333 11.946667-6.826667 11.946667-6.826666 6.826667-3.413333 15.36 3.413333 6.826666 6.826666l-8.533333 3.413334z m-271.36 90.453333c-6.826667 3.413333 3.413333 15.36 3.413333 18.773333h-15.36s6.826667-15.36 0-18.773333c-15.36-6.826667-34.133333 11.946667-40.96 3.413333 11.946667-3.413333 15.36-18.773333 27.306667-15.36 3.413333 0 15.36 6.826667 18.773333 6.826667v-11.946667c3.413333 0 3.413333 6.826667 6.826667 6.826667 0 0 11.946667-3.413333 22.186667-3.413333 6.826667 3.413333 18.773333 15.36 18.773333 22.186666-22.186667-8.533333-40.96-8.533333-40.96-8.533333z m551.253333-78.506667c27.306667 22.186667 37.546667 11.946667 56.32 27.306667 0-11.946667-11.946667-22.186667-15.36-27.306667 30.72 15.36 34.133333 15.36 27.306667 34.133334-3.413333 11.946667 15.36-3.413333 27.306667 6.826666-6.826667 0-11.946667 3.413333-22.186667 6.826667-18.773333 11.946667-30.72 0-40.96 11.946667l-3.413333-6.826667s18.773333-3.413333 18.773333-11.946667c1.706667-6.826667-39.253333 0-47.786667-40.96z m238.933334 71.68c0-3.413333 0-11.946667 3.413333-18.773333 0 0-15.36 0-15.36 6.826667 0 3.413333 8.533333 3.413333 11.946667 11.946666z m-354.986667-136.533333c-6.826667 0-15.36 0-27.306667-3.413333 6.826667 3.413333 15.36 15.36 11.946667 18.773333 6.826667-3.413333 15.36-11.946667 15.36-15.36z m-23.893333 22.186667c-6.826667 3.413333-15.36 0-18.773334-3.413334 6.826667-3.413333 6.826667-6.826667 6.826667-11.946666 1.706667 8.533333 5.12 11.946667 11.946667 15.36z m-29.013334-18.773334l3.413334-3.413333-3.413334 3.413333z m-370.346666 87.04c-11.946667-15.36-3.413333-18.773333 3.413333-15.36 3.413333 3.413333 3.413333 6.826667 6.826667 11.946667 0-3.413333 0-11.946667 6.826666-15.36 3.413333 0 6.826667 3.413333 6.826667 6.826667v11.946666s15.36 0 18.773333 6.826667c-3.413333 3.413333-3.413333 0-18.773333 3.413333 6.826667 0 15.36 11.946667 6.826667 15.36-6.826667 3.413333-11.946667-3.413333-15.36-11.946666 0 3.413333 3.413333 11.946667-3.413334 15.36-3.413333 0-6.826667-3.413333-6.826666-6.826667s0-6.826667 3.413333-11.946667c-8.533333 5.12-20.48-10.24-8.533333-10.24z m395.946666 3.413334c-18.773333-3.413333-37.546667 18.773333-37.546666 18.773333 3.413333-18.773333 3.413333-18.773333 6.826666-22.186667 3.413333-6.826667 27.306667-3.413333 27.306667-6.826666v-11.946667l6.826667 3.413333c6.826667 0 6.826667-15.36 18.773333-18.773333s18.773333 0 30.72 3.413333c-22.186667 3.413333-37.546667 15.36-34.133333 27.306667 0 3.413333 6.826667 6.826667 6.826666 6.826667l-18.773333 11.946666c1.706667 3.413333 1.706667-6.826667-6.826667-11.946666z m-40.96-25.6h3.413334v-3.413334s-3.413333 0-3.413334-3.413333l-3.413333-6.826667 3.413333-3.413333 6.826667 3.413333s0 3.413333 3.413333 3.413334h3.413334s0-3.413333-3.413334-3.413334h-3.413333l-11.946667-3.413333v-6.826667l6.826667-3.413333h3.413333s3.413333 0 3.413334-3.413333c0 0-3.413333-3.413333-3.413334 0 0 0 0 3.413333-3.413333 3.413333l-6.826667 3.413333c0-3.413333-3.413333-3.413333-3.413333-3.413333l3.413333-6.826667s3.413333 0 3.413334-3.413333v-3.413333h-3.413334v3.413333l-3.413333 6.826667s-3.413333-3.413333-6.826667-3.413334v-6.826666l3.413334-3.413334s0-3.413333-3.413334-3.413333c0 0-3.413333 0-3.413333 3.413333l3.413333 3.413334v6.826666c-3.413333 0-3.413333 0-6.826666 3.413334l-3.413334-6.826667v-3.413333h-3.413333v3.413333s3.413333 0 3.413333 3.413333l3.413334 6.826667-3.413334 3.413333-6.826666-3.413333s0-3.413333-3.413334-3.413333h-3.413333s0 3.413333 3.413333 3.413333h3.413334l6.826666 3.413333v6.826667l-6.826666 3.413333h-3.413334s-3.413333 0-3.413333 3.413334c0 0 3.413333 3.413333 3.413333 0 0 0 0-3.413333 3.413334-3.413334l6.826666-3.413333c0 3.413333 3.413333 3.413333 3.413334 3.413333l-3.413334 6.826667h-3.413333v3.413333h3.413333v-3.413333l3.413334-6.826667s3.413333 3.413333 6.826666 3.413334v6.826666l-3.413333 3.413334s0 3.413333 3.413333 3.413333c0 0 3.413333 0 3.413334-3.413333l-3.413334-3.413334v-6.826666h6.826667l3.413333 6.826666c5.12 0 1.706667 0 5.12 3.413334z m-192.853333 25.6v-3.413334l-6.826667-6.826666h-6.826666v6.826666l3.413333 3.413334s0 3.413333-3.413333 3.413333-3.413333 0-3.413334-3.413333 3.413333-3.413333 3.413334-3.413334v-6.826666c-3.413333 0-3.413333 0-6.826667-3.413334l-6.826667 6.826667v3.413333s-3.413333 3.413333-3.413333 0v-3.413333h3.413333l6.826667-6.826667-3.413333-3.413333-11.946667 3.413333s0 3.413333-3.413333 3.413334h-3.413334s0-3.413333 3.413334-3.413334h3.413333l11.946667-3.413333v-6.826667l-11.946667-3.413333h-3.413333s-3.413333 0-3.413334-3.413333c0 0 3.413333-3.413333 3.413334 0 3.413333 0 3.413333 3.413333 3.413333 3.413333l11.946667 3.413333c0-3.413333 3.413333-3.413333 3.413333-3.413333l-6.826667-6.826667s-3.413333 0-3.413333-3.413333v-3.413333h3.413333v3.413333l6.826667 6.826667c3.413333 0 3.413333-3.413333 6.826667-3.413334v-6.826666l-3.413334-3.413334s0-3.413333 3.413334-3.413333 3.413333 0 3.413333 3.413333-3.413333 3.413333-3.413333 3.413334v6.826666c3.413333 0 3.413333 0 6.826666 3.413334l6.826667-6.826667v-3.413333s3.413333-3.413333 3.413333 0v3.413333h-3.413333l-6.826667 6.826667c3.413333 0 3.413333 3.413333 3.413334 3.413333l11.946666-3.413333s0-3.413333 3.413334-3.413334h3.413333s0 3.413333-3.413333 3.413334h-3.413334l-11.946666 3.413333v6.826667l11.946666 3.413333h3.413334s3.413333 0 3.413333 3.413333c0 0-3.413333 3.413333-3.413333 0-3.413333 0-3.413333-3.413333-3.413334-3.413333l-11.946666-3.413333c0 3.413333-3.413333 3.413333-3.413334 3.413333l6.826667 6.826667s3.413333 0 3.413333 3.413333v3.413333c-3.413333 8.533333-3.413333 8.533333-3.413333 3.413334z m-64.853333 23.893333c15.36 6.826667 11.946667 11.946667 6.826666 15.36-6.826667 0-6.826667-3.413333-11.946666-6.826667 0 3.413333 3.413333 6.826667 0 11.946667-3.413333 3.413333-6.826667 0-6.826667-3.413333 0 0-3.413333-3.413333-3.413333-6.826667 0 0-11.946667 6.826667-15.36 3.413333 0-3.413333 6.826667-6.826667 11.946666-11.946666-3.413333 0-15.36-3.413333-15.36-3.413334-3.413333-3.413333 0-3.413333 0-3.413333 6.826667-3.413333 11.946667 0 18.773334 3.413333 0-3.413333-6.826667-6.826667 0-11.946666h3.413333c3.413333 0 3.413333 0 6.826667 3.413333s3.413333 6.826667 3.413333 6.826667c0-3.413333 6.826667-3.413333 6.826667-3.413334 6.826667-3.413333 11.946667 3.413333 6.826666 6.826667h-11.946666z m593.92-189.44c3.413333-6.826667 6.826667-11.946667 11.946666-11.946667 3.413333 5.12 0 11.946667-11.946666 11.946667 11.946667 0 18.773333 0 18.773333 3.413333s-6.826667 6.826667-15.36 0c6.826667 6.826667 6.826667 15.36 3.413333 15.36s-6.826667-3.413333-6.826666-15.36c-3.413333 11.946667-6.826667 11.946667-11.946667 11.946667-3.413333-3.413333-3.413333-6.826667 6.826667-15.36-11.946667 3.413333-15.36 0-15.36-3.413333s6.826667-3.413333 15.36 0c-3.413333-3.413333-6.826667-11.946667 0-15.36 1.706667 3.413333 5.12 11.946667 5.12 18.773333z m162.133333 165.546667c6.826667-6.826667 18.773333-11.946667 22.186667-3.413334 6.826667 6.826667-6.826667 11.946667-18.773334 11.946667 11.946667 0 22.186667 6.826667 18.773334 15.36s-15.36 3.413333-22.186667-11.946667c6.826667 11.946667 3.413333 22.186667-3.413333 18.773334-6.826667 0-11.946667-11.946667-3.413334-22.186667-6.826667 11.946667-18.773333 11.946667-22.186666 6.826667-3.413333-6.826667 0-11.946667 18.773333-11.946667-15.36-3.413333-22.186667-11.946667-18.773333-15.36s15.36 0 22.186666 6.826667c-3.413333-6.826667-3.413333-18.773333 6.826667-18.773334 8.533333 5.12 11.946667 13.653333 0 23.893334z m-49.493333-75.093334c3.413333-11.946667 11.946667-15.36 15.36-15.36 6.826667 3.413333 0 11.946667-11.946667 15.36 11.946667-3.413333 18.773333-3.413333 18.773333 3.413334s-11.946667 6.826667-18.773333 0c6.826667 6.826667 11.946667 18.773333 3.413333 18.773333-6.826667 3.413333-11.946667-3.413333-6.826666-18.773333-3.413333 11.946667-11.946667 18.773333-15.36 15.36-6.826667-3.413333-3.413333-11.946667 11.946666-18.773334-11.946667 3.413333-18.773333 0-18.773333-3.413333 0-6.826667 11.946667-6.826667 22.186667-3.413333-3.413333-3.413333-11.946667-15.36 0-18.773334 0 6.826667 5.12 10.24 0 25.6z m-221.866667-90.453333c11.946667-11.946667 27.306667-15.36 34.133333-6.826667 6.826667 11.946667-11.946667 15.36-27.306666 15.36 15.36 3.413333 30.72 11.946667 22.186666 18.773334s-18.773333 3.413333-30.72-11.946667c6.826667 15.36 0 30.72-6.826666 30.72-11.946667 0-11.946667-15.36 0-30.72-11.946667 15.36-27.306667 15.36-30.72 11.946667-6.826667-6.826667 0-18.773333 27.306666-18.773334-18.773333-3.413333-30.72-11.946667-27.306666-18.773333 6.826667-6.826667 18.773333 0 30.72 11.946667-3.413333-6.826667-3.413333-30.72 11.946666-27.306667 3.413333-1.706667 6.826667 10.24-3.413333 25.6z m-204.8-143.36c3.413333-6.826667 11.946667-15.36 15.36-11.946667 6.826667 3.413333 0 11.946667-11.946667 15.36 11.946667-3.413333 18.773333 0 18.773334 3.413334s-6.826667 6.826667-18.773334 0c6.826667 6.826667 11.946667 15.36 3.413334 15.36s-11.946667-3.413333-11.946667-15.36c0 11.946667-11.946667 15.36-15.36 11.946666-6.826667-3.413333-6.826667-6.826667 6.826667-15.36-11.946667 3.413333-18.773333 0-18.773334-3.413333s11.946667-3.413333 22.186667 0c-6.826667-3.413333-11.946667-11.946667-3.413333-15.36 10.24 0 13.653333 6.826667 13.653333 15.36z m-170.666667 78.506667c0-6.826667-22.186667-22.186667-37.546666-22.186667 18.773333-6.826667 27.306667-3.413333 27.306666-3.413333 11.946667 3.413333 15.36 22.186667 22.186667 18.773333 3.413333 0 6.826667-6.826667 6.826667-6.826667v11.946667c0 6.826667 22.186667 0 30.72 6.826667 0 0 6.826667 6.826667 11.946666 27.306666-11.946667-18.773333-34.133333-27.306667-46.08-22.186666-3.413333 3.413333 0 11.946667 0 11.946666-3.413333-6.826667-11.946667-11.946667-18.773333-11.946666-3.413333-1.706667 3.413333-5.12 3.413333-10.24z m92.16 83.626666c3.413333-15.36 18.773333-27.306667 27.306667-22.186666 11.946667 6.826667-3.413333 18.773333-18.773333 27.306666 15.36-3.413333 34.133333-3.413333 34.133333 6.826667s-15.36 11.946667-34.133333 3.413333c15.36 11.946667 15.36 27.306667 6.826666 30.72-11.946667 3.413333-18.773333-6.826667-15.36-27.306666-3.413333 18.773333-18.773333 27.306667-27.306666 22.186666-11.946667-3.413333-6.826667-15.36 18.773333-27.306666-22.186667 6.826667-34.133333 3.413333-34.133333-3.413334s18.773333-11.946667 34.133333-3.413333c-11.946667-3.413333-15.36-22.186667-3.413333-27.306667 6.826667-10.24 18.773333 1.706667 11.946666 20.48z m-163.84-11.946666c-3.413333-6.826667-3.413333-15.36 0-15.36 6.826667 0 6.826667 6.826667 3.413334 15.36 3.413333-6.826667 11.946667-11.946667 15.36-6.826667 3.413333 3.413333 0 11.946667-15.36 11.946667 11.946667 0 18.773333 3.413333 15.36 11.946666-3.413333 3.413333-11.946667 3.413333-18.773334-6.826666 6.826667 6.826667 3.413333 15.36 0 15.36-6.826667 0-11.946667-3.413333-3.413333-15.36-6.826667 6.826667-15.36 11.946667-15.36 6.826666 0-8.533333 3.413333-11.946667 18.773333-17.066666-11.946667 3.413333-18.773333 0-15.36-6.826667 0-3.413333 8.533333-3.413333 15.36 6.826667z m-168.96 34.133333c0-6.826667 6.826667-15.36 11.946667-11.946667s-1.706667 8.533333-11.946667 11.946667c11.946667 0 18.773333 0 18.773334 6.826667 0 3.413333-6.826667 6.826667-15.36 0 6.826667 6.826667 6.826667 15.36 3.413333 15.36s-6.826667-3.413333-6.826667-15.36c0 11.946667-6.826667 15.36-11.946666 11.946666-3.413333-3.413333-3.413333-6.826667 6.826666-15.36-6.826667 3.413333-15.36 0-15.36-3.413333s6.826667-3.413333 15.36 0c-3.413333-3.413333-6.826667-15.36-3.413333-15.36s8.533333 5.12 8.533333 15.36z m-95.573333 18.773333c0-11.946667 6.826667-15.36 11.946667-15.36 6.826667 3.413333 0 11.946667-6.826667 15.36 6.826667-3.413333 18.773333-3.413333 18.773333 3.413334s-6.826667 6.826667-18.773333 3.413333c11.946667 6.826667 11.946667 15.36 6.826667 15.36-3.413333 3.413333-11.946667-3.413333-11.946667-15.36 0 11.946667-6.826667 15.36-11.946667 15.36-6.826667-3.413333-6.826667-6.826667 6.826667-18.773333-11.946667 3.413333-18.773333 3.413333-18.773333 0s6.826667-6.826667 18.773333-3.413334c-6.826667 0-15.36-11.946667-6.826667-11.946666 5.12-1.706667 11.946667 1.706667 11.946667 11.946666z m98.986667 39.253334c6.826667-15.36 18.773333-22.186667 27.306666-15.36 11.946667 6.826667-3.413333 18.773333-18.773333 22.186666 15.36-3.413333 30.72 0 30.72 11.946667-3.413333 6.826667-15.36 11.946667-30.72-3.413333 11.946667 11.946667 11.946667 27.306667 3.413333 27.306666-11.946667 0-15.36-6.826667-11.946666-27.306666-3.413333 15.36-18.773333 22.186667-22.186667 18.773333-6.826667-6.826667-6.826667-15.36 18.773333-22.186667-18.773333 3.413333-30.72-3.413333-30.72-11.946666 3.413333-6.826667 18.773333-6.826667 30.72 3.413333-6.826667-6.826667-11.946667-22.186667 0-27.306667 0-3.413333 6.826667 3.413333 3.413334 23.893334z m-114.346667 93.866666c-6.826667 0-27.306667 18.773333-30.72 34.133334-6.826667-15.36-3.413333-22.186667-3.413333-22.186667 3.413333-11.946667 27.306667-15.36 27.306666-18.773333s-3.413333-11.946667-3.413333-11.946667l11.946667 3.413333c6.826667 0 0-22.186667 11.946666-27.306666 0 0 6.826667-6.826667 30.72-6.826667-18.773333 6.826667-30.72 30.72-27.306666 40.96 3.413333 3.413333 11.946667 3.413333 11.946666 3.413333-6.826667 3.413333-11.946667 11.946667-15.36 18.773334-5.12 1.706667-8.533333-13.653333-13.653333-13.653334z m597.333333-223.573333c-3.413333-3.413333-34.133333 11.946667-34.133333 11.946667 3.413333-6.826667 6.826667-18.773333 6.826667-18.773334 6.826667-3.413333 18.773333 0 22.186666-3.413333v-6.826667l6.826667 3.413334c3.413333 0 11.946667-11.946667 18.773333-11.946667 0 0 11.946667 6.826667 22.186667 6.826667-15.36 0-34.133333 6.826667-34.133333 15.36 0 3.413333 6.826667 6.826667 6.826666 6.826666l-18.773333 6.826667c3.413333 1.706667 8.533333-6.826667 3.413333-10.24z m285.013334 18.773333c22.186667 27.306667 34.133333 15.36 49.493333 30.72 0-11.946667-11.946667-27.306667-11.946667-30.72 27.306667 15.36 30.72 18.773333 22.186667 34.133334-3.413333 11.946667 15.36-3.413333 27.306667 11.946666-6.826667 0-11.946667 3.413333-18.773334 6.826667-18.773333 6.826667-27.306667-3.413333-37.546666 3.413333l-11.946667-3.413333s18.773333-3.413333 18.773333-6.826667c3.413333-3.413333-37.546667-3.413333-37.546666-46.08z m-564.906667 18.773334c-6.826667-15.36-15.36-15.36-18.773333-11.946667-6.826667 6.826667 6.826667 15.36 15.36 18.773333-15.36 0-22.186667 6.826667-18.773334 15.36s15.36 3.413333 22.186667-6.826666c-11.946667 18.773333-3.413333 27.306667 3.413333 27.306666 3.413333 0 11.946667-11.946667 3.413334-22.186666 6.826667 15.36 18.773333 18.773333 22.186666 11.946666s-3.413333-15.36-18.773333-18.773333c15.36 0 22.186667-6.826667 18.773333-15.36s-15.36-3.413333-22.186666 6.826667c6.826667-11.946667 6.826667-22.186667 0-22.186667-10.24-5.12-13.653333 3.413333-6.826667 17.066667z m298.666667 68.266666c-6.826667-11.946667-18.773333-22.186667-34.133334-18.773333-3.413333 0-6.826667 3.413333-11.946666 6.826667 0-3.413333-11.946667-11.946667-30.72-3.413334 6.826667-6.826667 15.36-27.306667 3.413333-30.72-6.826667-3.413333-15.36 11.946667-18.773333 27.306667-3.413333-15.36-15.36-27.306667-22.186667-22.186667s-3.413333 18.773333 6.826667 27.306667c-15.36 0-22.186667 0-30.72 6.826667 0 3.413333-3.413333 6.826667 3.413333 11.946666-6.826667 0-11.946667 0-15.36 3.413334-3.413333 0-11.946667 0-11.946667 11.946666s-6.826667 6.826667-6.826666 3.413334c3.413333-11.946667 3.413333-27.306667 3.413333-27.306667-11.946667 3.413333-18.773333 22.186667-18.773333 37.546667 0 3.413333-3.413333 3.413333-3.413334 0 3.413333-18.773333-3.413333-30.72-11.946666-37.546667 0 3.413333 0 3.413333-3.413334 6.826667 0-3.413333-3.413333-6.826667-6.826666-6.826667 3.413333 18.773333-3.413333 22.186667 3.413333 40.96-15.36-3.413333-6.826667-22.186667-22.186667-30.72 0 6.826667-11.946667 11.946667-15.36 6.826667 3.413333 0 11.946667-3.413333 11.946667-6.826667-3.413333-3.413333-6.826667-3.413333-15.36-3.413333 3.413333 0 6.826667-3.413333 11.946667-6.826667-6.826667 0-6.826667-6.826667-3.413334-11.946667h-6.826666v-6.826666s-3.413333 0-3.413334 3.413333v-6.826667c-3.413333 0-3.413333 3.413333-6.826666 6.826667v-6.826667c-6.826667 3.413333-6.826667 11.946667-11.946667 15.36 0-3.413333-3.413333-6.826667-3.413333-6.826666s-3.413333 3.413333-3.413334 11.946666c0 0 0-6.826667-3.413333-6.826666-3.413333 6.826667-3.413333 15.36 3.413333 27.306666 3.413333 3.413333 6.826667 3.413333 6.826667 6.826667 3.413333 15.36-22.186667 18.773333-22.186667 18.773333 6.826667-6.826667 15.36-18.773333 11.946667-27.306666-6.826667 0-11.946667 6.826667-15.36 11.946666 0-3.413333 3.413333-15.36 3.413333-22.186666-6.826667 3.413333-11.946667 11.946667-11.946666 15.36 0-6.826667 0-6.826667-3.413334-11.946667-6.826667-6.826667-27.306667-11.946667-34.133333 11.946667 0-3.413333-11.946667-6.826667-11.946667-6.826667 0 6.826667 3.413333 15.36 6.826667 18.773333-6.826667-11.946667-15.36-15.36-18.773333-15.36 0 6.826667 6.826667 15.36 11.946666 22.186667-15.36-15.36-27.306667-3.413333-27.306666 3.413333 0-15.36-11.946667-22.186667-11.946667-22.186666-15.36 18.773333-6.826667 34.133333-3.413333 37.546666-3.413333 15.36-22.186667 6.826667-15.36-3.413333 3.413333-3.413333-3.413333-15.36-18.773334-3.413333 18.773333-15.36-11.946667-27.306667-11.946666-3.413334-3.413333-22.186667-34.133333-3.413333-11.946667 6.826667-22.186667-6.826667-27.306667 18.773333 0 11.946667-3.413333 3.413333-6.826667 11.946667 0 15.36s11.946667-6.826667 11.946667-11.946667c3.413333 6.826667 11.946667 11.946667 18.773333 6.826667 3.413333-3.413333 6.826667 0 6.826667 3.413333s-3.413333 6.826667-15.36 3.413333c3.413333 18.773333-11.946667 22.186667-18.773334 11.946667-3.413333-6.826667-27.306667-11.946667-27.306666-11.946667 3.413333 11.946667-15.36 34.133333-27.306667 22.186667-3.413333-3.413333 3.413333-11.946667 3.413333-11.946667 11.946667-11.946667-27.306667-18.773333-27.306666-3.413333-3.413333 0-11.946667-3.413333-15.36 0 6.826667-3.413333 11.946667-18.773333 6.826666-18.773333-6.826667-3.413333-15.36 6.826667-15.36 15.36 0-11.946667-6.826667-22.186667-15.36-18.773334-6.826667 3.413333-3.413333 15.36 3.413334 22.186667-11.946667-3.413333-22.186667-6.826667-22.186667 0-3.413333 6.826667 15.36 11.946667 22.186667 6.826667-6.826667 6.826667-11.946667 22.186667-3.413334 22.186666 6.826667 3.413333 15.36-3.413333 15.36-15.36 0 3.413333 0 6.826667 3.413334 11.946667-3.413333 3.413333-6.826667 11.946667-15.36 15.36-15.36 6.826667-22.186667 3.413333-22.186667 15.36 0 6.826667 15.36 6.826667 27.306667-3.413333 15.36-15.36 27.306667 11.946667 11.946666 18.773333-3.413333 3.413333-11.946667 0-15.36-3.413333-18.773333-3.413333-18.773333 11.946667 0 22.186666l426.666667 295.253334 397.653333-283.306667c3.413333-3.413333 6.826667-6.826667 15.36-11.946667l27.306667 3.413334s-6.826667-6.826667-3.413333-15.36 18.773333-15.36 52.906666-6.826667c-11.946667-15.36-15.36-18.773333-15.36-18.773333-11.946667-3.413333-18.773333 3.413333-30.72 3.413333 0-3.413333-3.413333-3.413333-6.826666-3.413333l-6.826667-6.826667s0 3.413333-6.826667 11.946667c-15.36 3.413333-34.133333 6.826667-30.72-3.413334 0-11.946667 3.413333-11.946667 15.36-11.946666 3.413333 0 11.946667 0 18.773334-3.413334 0 0 3.413333 0 3.413333-3.413333 0 3.413333 3.413333 6.826667 11.946667 3.413333s6.826667-11.946667 3.413333-22.186666c3.413333 6.826667 18.773333 18.773333 22.186667 15.36s-3.413333-15.36-15.36-22.186667c0 0 22.186667 0 22.186666-11.946667s-22.186667-3.413333-27.306666 0c3.413333-6.826667 3.413333-22.186667-3.413334-22.186666s-11.946667 15.36-6.826666 22.186666c-3.413333-15.36-18.773333-22.186667-22.186667-15.36s6.826667 18.773333 15.36 22.186667c-18.773333 3.413333-22.186667 18.773333-40.96 15.36 11.946667-6.826667 15.36-18.773333 6.826667-22.186667-3.413333-6.826667-18.773333-3.413333-22.186667 11.946667 0-11.946667-6.826667-15.36-11.946667-11.946667-3.413333 3.413333 0 11.946667-3.413333 15.36h3.413333c11.946667 0 3.413333 15.36-6.826666 27.306667 11.946667-11.946667 30.72-15.36 30.72-6.826667 3.413333 6.826667-11.946667 18.773333-30.72 15.36 15.36 3.413333 22.186667 15.36 15.36 22.186667s-18.773333 0-22.186667-15.36c3.413333 15.36-6.826667 27.306667-15.36 27.306667-11.946667 0-15.36-6.826667 6.826667-30.72-15.36 15.36-30.72 15.36-30.72 6.826666 0-6.826667 11.946667-15.36 30.72-15.36-11.946667 0-22.186667-11.946667-11.946667-22.186666 6.826667-3.413333 18.773333-3.413333 18.773333 15.36 0-6.826667 0-15.36 3.413334-18.773334 6.826667-11.946667 6.826667-27.306667 3.413333-30.72-3.413333 6.826667-18.773333 6.826667-18.773333 6.826667-15.36 6.826667-15.36 18.773333-18.773334 3.413333-3.413333-11.946667 11.946667-11.946667 18.773334-11.946666l3.413333 6.826666c18.773333-11.946667 27.306667 6.826667 56.32-3.413333 15.36-3.413333 18.773333-11.946667 30.72-6.826667-11.946667-18.773333-40.96-3.413333-34.133333-18.773333 11.946667-18.773333 6.826667-27.306667-27.306667-52.906667 3.413333 3.413333 15.36 27.306667 11.946667 40.96-15.36-27.306667-34.133333-11.946667-64.853334-52.906666 0 59.733333 52.906667 59.733333 49.493334 68.266666 0 3.413333-11.946667 6.826667-18.773334 6.826667v-3.413333c0-3.413333-6.826667-18.773333-22.186666-22.186667-11.946667-3.413333-22.186667 3.413333-30.72 11.946667-11.946667 15.36-49.493333 11.946667-40.96-3.413334 3.413333-3.413333 11.946667 0 15.36-3.413333-3.413333 0 0-3.413333-6.826667-6.826667 3.413333 0 6.826667-3.413333 6.826667-3.413333-3.413333 0-6.826667 0-6.826667-3.413333 0 0 6.826667 0 6.826667-3.413334 0-6.826667-15.36-3.413333-11.946667-6.826666 6.826667-3.413333 0-11.946667-3.413333-11.946667-6.826667 3.413333-15.36 6.826667-22.186667 6.826667 0 0 15.36-6.826667 22.186667-22.186667-11.946667 0-6.826667-11.946667-3.413334-11.946667-15.36 0-27.306667 27.306667-34.133333 27.306667 6.826667-15.36 6.826667-27.306667 6.826667-34.133333-6.826667 3.413333-15.36 18.773333-18.773334 27.306666 0 6.826667-6.826667 6.826667-6.826666 0-3.413333-15.36-11.946667-22.186667-15.36-22.186666-3.413333 3.413333-3.413333 11.946667-3.413334 22.186666-3.413333-11.946667-6.826667-15.36-11.946666-18.773333-15.36 15.36-15.36 34.133333-15.36 34.133333 3.413333-6.826667 11.946667-6.826667 15.36-6.826666 6.826667 3.413333 0 15.36-15.36 18.773333 11.946667-3.413333 27.306667-3.413333 27.306666 3.413333s-11.946667 11.946667-27.306666 0c11.946667 6.826667 11.946667 18.773333 3.413333 22.186667s-15.36-3.413333-11.946667-18.773333c-3.413333 15.36-15.36 18.773333-18.773333 18.773333-6.826667-3.413333-6.826667-11.946667 15.36-22.186667-15.36 3.413333-27.306667 0-27.306667-3.413333 0-6.826667 15.36-6.826667 27.306667-3.413333-1.706667-8.533333-5.12-20.48 1.706667-23.893334z m-93.866667-97.28c3.413333 6.826667-11.946667 15.36-11.946667 15.36l27.306667 11.946667s0-11.946667 3.413333-15.36c6.826667-11.946667 34.133333 3.413333 56.32 18.773333-6.826667-18.773333-15.36-34.133333-15.36-34.133333-11.946667-11.946667-34.133333 0-37.546666-3.413333v-11.946667s-6.826667 6.826667-11.946667 6.826667c-6.826667-3.413333-18.773333-22.186667-34.133333-22.186667 0 0-15.36 6.826667-30.72 11.946667 1.706667-5.12 47.786667 6.826667 54.613333 22.186666z m196.266667-49.493333c6.826667-3.413333 18.773333-3.413333 18.773333 0 0 6.826667-6.826667 6.826667-18.773333 3.413333 6.826667 3.413333 15.36 11.946667 6.826666 15.36-3.413333 3.413333-11.946667 0-15.36-11.946666 0 11.946667-3.413333 15.36-11.946666 15.36-3.413333-3.413333-3.413333-11.946667 3.413333-15.36-11.946667 3.413333-18.773333 3.413333-18.773333 0 0-6.826667 3.413333-11.946667 18.773333-3.413334-11.946667-3.413333-15.36-11.946667-11.946667-15.36s11.946667 3.413333 15.36 11.946667c0-6.826667 3.413333-15.36 11.946667-11.946667 13.653333 0 13.653333 8.533333 1.706667 11.946667zM221.866667 221.866667c18.773333 46.08 56.32 30.72 56.32 34.133333 0 6.826667-18.773333 15.36-18.773334 15.36l6.826667 6.826667c6.826667-15.36 22.186667-3.413333 40.96-18.773334 6.826667-6.826667 11.946667-15.36 18.773333-15.36-15.36-11.946667-34.133333 6.826667-30.72-3.413333 3.413333-18.773333 0-22.186667-34.133333-30.72 3.413333 3.413333 18.773333 15.36 22.186667 27.306667-20.48-11.946667-29.013333 8.533333-61.44-15.36z" fill="#0065C1" p-id="7391"></path><path d="M2443.946667 930.133333h-40.96l-11.946667 37.546667h-27.306667l46.08-136.533333h30.72l46.08 136.533333h-27.306666l-15.36-37.546667z m-34.133334-20.48h30.72l-15.36-52.906666-15.36 52.906666z m832.853334-78.506666h27.306666v80.213333c0 27.306667 11.946667 37.546667 27.306667 37.546667 18.773333 0 30.72-11.946667 30.72-37.546667v-80.213333h27.306667v80.213333c0 40.96-22.186667 59.733333-52.906667 59.733333s-52.906667-18.773333-52.906667-59.733333v-80.213333H3242.666667z m-98.986667 117.76c22.186667 0 37.546667-22.186667 37.546667-52.906667 0-27.306667-11.946667-49.493333-37.546667-49.493333s-37.546667 22.186667-37.546667 52.906666c0 25.6 10.24 49.493333 37.546667 49.493334z m0 18.773333c-37.546667 0-64.853333-30.72-64.853333-68.266667 0-40.96 27.306667-71.68 64.853333-71.68 40.96 0 64.853333 30.72 64.853333 68.266667 0 44.373333-27.306667 71.68-64.853333 71.68z m-204.8-136.533333h27.306667v52.906666h56.32v-56.32h27.306666v136.533334h-27.306666V904.533333h-56.32v59.733334h-27.306667v-133.12z m-134.826667 136.533333v-15.36l71.68-102.4h-64.853333v-22.186667h98.986667v15.36l-68.266667 102.4h71.68v22.186667h-109.226667z m-30.72-76.8v68.266667c-6.826667 3.413333-27.306667 6.826667-46.08 6.826666-22.186667 0-40.96-6.826667-52.906666-18.773333-11.946667-11.946667-18.773333-30.72-18.773334-49.493333 0-46.08 30.72-71.68 75.093334-71.68 15.36 0 30.72 3.413333 37.546666 6.826666l-3.413333 20.48c-6.826667-3.413333-15.36-6.826667-30.72-6.826666-30.72 0-49.493333 18.773333-49.493333 49.493333s18.773333 49.493333 49.493333 49.493333c6.826667 0 15.36 0 18.773333-3.413333v-34.133333h-27.306666V887.466667h46.08v3.413333z m-547.84-59.733333h27.306667v52.906666h56.32v-56.32h27.306667v136.533334h-27.306667V904.533333H2252.8v59.733334h-27.306667v-133.12z m-167.253333 136.533333v-136.533333h80.213333v18.773333h-52.906666v37.546667h49.493333v18.773333h-49.493333v56.32h-27.306667v5.12z m-97.28-18.773333c22.186667 0 37.546667-22.186667 37.546667-52.906667 0-27.306667-11.946667-49.493333-37.546667-49.493333s-37.546667 22.186667-37.546667 52.906666c-1.706667 25.6 13.653333 49.493333 37.546667 49.493334z m0 18.773333c-37.546667 0-64.853333-30.72-64.853333-68.266667 0-40.96 27.306667-71.68 64.853333-71.68 40.96 0 64.853333 30.72 64.853333 68.266667-1.706667 44.373333-27.306667 71.68-64.853333 71.68z m-238.933333 0v-136.533333h22.186666v64.853333l46.08-64.853333h30.72l-46.08 59.733333 49.493334 75.093333h-30.72l-34.133334-56.32-15.36 22.186667v34.133333h-22.186666v1.706667z m-218.453334-37.546667h-40.96l-11.946666 37.546667h-27.306667l46.08-136.533333h30.72l46.08 136.533333h-27.306667l-15.36-37.546667z m-39.253333-20.48h30.72l-15.36-52.906666-15.36 52.906666z m-134.826667-6.826666v46.08h15.36c15.36 0 30.72-6.826667 30.72-22.186667s-15.36-22.186667-30.72-22.186667h-15.36v-1.706666z m0-56.32v37.546666h11.946667c18.773333 0 27.306667-6.826667 27.306667-18.773333s-11.946667-18.773333-27.306667-18.773333h-11.946667z m56.32 109.226666c-11.946667 6.826667-27.306667 11.946667-52.906666 11.946667h-30.72v-139.946667h37.546666c18.773333 0 30.72 3.413333 37.546667 6.826667 6.826667 3.413333 15.36 15.36 15.36 27.306667 0 11.946667-6.826667 22.186667-22.186667 30.72 15.36 3.413333 27.306667 15.36 27.306667 34.133333-1.706667 13.653333-5.12 22.186667-11.946667 29.013333z m271.36-124.586666h22.186667v136.533333h-27.306667l-59.733333-102.4v98.986667h-22.186667v-136.533334h30.72l56.32 93.866667v-90.453333z m942.08 0h22.186667v136.533333H2594.133333l-56.32-102.4v98.986667h-22.186666v-136.533334h30.72l56.32 93.866667v-90.453333h-3.413334zM1902.933333 619.52h-56.32l22.186667-180.906667h58.026667z" fill="#717071" p-id="7392"></path><path d="M1933.653333 346.453333h56.32v93.866667h49.493334l27.306666 128v-223.573333h56.32v93.866666h49.493334l34.133333 128v-223.573333h59.733333V750.933333h-59.733333v-133.12h-49.493333l-34.133334-128V750.933333h-56.32v-133.12h-49.493333l-27.306667-128v87.04c0 52.906667-11.946667 128-52.906666 170.666667H1877.333333l3.413334-3.413333c34.133333-46.08 52.906667-98.986667 52.906666-155.306667v-242.346667zM1450.666667 616.106667l-20.48-58.026667V750.933333h-59.733334v-199.68l-40.96 136.533334h-49.493333l75.093333-242.346667h-59.733333v-37.546667h75.093333v-61.44h59.733334v61.44h42.666666v37.546667h-34.133333l59.733333 170.666667zM1517.226667 505.173333c0-30.72 6.826667-46.08 30.72-46.08h128c27.306667 0 34.133333 15.36 34.133333 37.546667v211.626667h27.306667v37.546666h-52.906667c-22.186667 0-34.133333-6.826667-34.133333-37.546666V494.933333h-75.093334v136.533334c0 34.133333-6.826667 87.04-30.72 117.76h-59.733333l3.413333-3.413334c18.773333-30.72 30.72-68.266667 30.72-105.813333V505.173333zM1570.133333 346.453333h64.853334l6.826666 39.253334h95.573334v37.546666h-249.173334v-37.546666h90.453334zM2648.746667 471.04v52.906667h109.226666v-52.906667h-109.226666z m0-81.92v46.08h109.226666v-46.08h-109.226666z m105.813333-37.546667h37.546667c18.773333 0 27.306667 11.946667 27.306666 30.72V563.2h-90.453333l30.72 59.733333 15.36-37.546666h56.32l-40.96 98.986666 30.72 64.853334h-59.733333l-98.986667-189.44h-17.066667v151.893333h52.906667v37.546667h-80.213333c-27.306667 0-30.72-11.946667-30.72-34.133334v-332.8c0-22.186667 11.946667-30.72 30.72-30.72h136.533333zM2571.946667 554.666667v37.546666h-68.266667v128h56.32v30.72h-80.213333c-18.773333 0-34.133333-11.946667-34.133334-34.133333v-124.586667h-46.08v-37.546666h46.08v-52.906667H2406.4v-15.36h-22.186667l46.08-143.36h52.906667l-11.946667 37.546667h105.813334v37.546666h-117.76l-15.36 40.96h133.12v37.546667h-68.266667v52.906667h64.853333v5.12zM2988.373333 750.933333v-143.36h-59.733333l109.226667-150.186666h68.266666l-56.32 78.506666V750.933333zM3128.32 358.4h226.986667v46.08h-226.986667zM3370.666667 513.706667h-49.493334v196.266666c0 18.773333-6.826667 40.96-37.546666 40.96h-105.813334v-40.96h75.093334v-196.266666H3106.133333v-40.96h264.533334v40.96zM2991.786667 486.4h-68.266667l98.986667-134.826667h64.853333z" fill="#717071" p-id="7393"></path><path d="M588.8 919.893333c0 29.013333-13.653333 58.026667-44.373333 58.026667-35.84 0-47.786667-30.72-47.786667-58.026667 0-29.013333 11.946667-58.026667 47.786667-58.026666 30.72 0 44.373333 30.72 44.373333 58.026666z m-109.226667 69.973334h15.36v-25.6c8.533333 18.773333 27.306667 30.72 49.493334 30.72 42.666667 0 61.44-34.133333 61.44-73.386667s-20.48-73.386667-61.44-73.386667c-20.48 0-40.96 10.24-47.786667 30.72v-78.506666h-17.066667V989.866667zM720.213333 935.253333c0 22.186667-18.773333 42.666667-47.786666 42.666667-15.36 0-30.72-10.24-30.72-25.6 0-32.426667 25.6-34.133333 52.906666-39.253333 10.24-1.706667 22.186667-6.826667 23.893334-8.533334l1.706666 30.72z m-87.04-63.146666s22.186667-8.533333 49.493334-8.533334c20.48 0 34.133333 5.12 34.133333 18.773334 0 10.24-10.24 13.653333-42.666667 18.773333-30.72 5.12-51.2 17.066667-51.2 47.786667 0 27.306667 22.186667 44.373333 47.786667 44.373333 25.6 0 40.96-11.946667 49.493333-27.306667v23.893334h15.36v-97.28c0-37.546667-25.6-44.373333-51.2-44.373334-32.426667 0-52.906667 10.24-52.906666 10.24l1.706666 13.653334zM177.493333 989.866667h30.72v-81.92c0-20.48 13.653333-35.84 34.133334-35.84 17.066667 0 25.6 8.533333 27.306666 30.72v87.04h30.72v-93.866667c0-30.72-18.773333-46.08-49.493333-46.08-18.773333 0-32.426667 6.826667-40.96 17.066667V802.133333h-30.72v187.733334zM329.386667 875.52h75.093333l-76.8 92.16v22.186667h121.173333v-23.893334h-80.213333l76.8-92.16v-22.186666h-116.053333zM762.88 989.866667h17.066667v-80.213334c0-27.306667 17.066667-47.786667 42.666666-47.786666 27.306667 0 34.133333 17.066667 34.133334 40.96v85.333333h17.066666v-88.746667c0-32.426667-11.946667-52.906667-49.493333-52.906666-18.773333 0-37.546667 11.946667-44.373333 27.306666v-23.893333h-17.066667v139.946667zM901.12 989.866667h17.066667v-52.906667l25.6-22.186667 54.613333 75.093334h22.186667l-63.146667-87.04 58.026667-51.2h-22.186667l-75.093333 66.56v-119.466667h-17.066667z" fill="#717071" p-id="7394"></path></svg>