<?xml version="1.0" standalone="no"?><!DOCTYPE svg PUBLIC "-//W3C//DTD SVG 1.1//EN" "http://www.w3.org/Graphics/SVG/1.1/DTD/svg11.dtd"><svg t="1531986144023" class="icon" style="" viewBox="0 0 2560 1024" version="1.1" xmlns="http://www.w3.org/2000/svg" p-id="3081" xmlns:xlink="http://www.w3.org/1999/xlink" width="500" height="200"><defs><style type="text/css"></style></defs><path d="M506.88 455.68h115.2v115.2h-115.2z" fill="#0095DA" p-id="3082"></path><path d="M153.6 565.76v-168.96c48.64 2.56 125.44 5.12 153.6-38.4 133.12-209.92 281.6-217.6 424.96-110.08V512c-5.12-112.64-94.72-161.28-158.72-166.4-74.24-5.12-138.24 46.08-163.84 102.4-48.64 107.52-128 110.08-256 117.76z" fill="#0095DA" p-id="3083"></path><path d="M2403.84 394.24l-33.28-25.6-23.04 28.16H2227.2v7.68h89.6v112.64c0 10.24-5.12 15.36-20.48 15.36l-43.52-2.56v7.68c28.16 5.12 46.08 12.8 43.52 30.72 38.4-5.12 56.32-15.36 56.32-33.28-2.56-25.6-2.56-56.32-2.56-92.16v-38.4h46.08c5.12 0 7.68-2.56 7.68-5.12 2.56-2.56 2.56-2.56 0-5.12zM1292.8 335.36v17.92h-104.96v5.12H1423.36c5.12 0 7.68-2.56 7.68-5.12s0-2.56-2.56-2.56l-30.72-23.04h40.96c5.12 0 7.68-2.56 7.68-5.12s0-2.56-2.56-5.12l-35.84-25.6-20.48 28.16h-64V307.2c7.68-2.56 12.8-5.12 12.8-10.24 0-2.56 0-5.12-2.56-5.12l-20.48-2.56-20.48-2.56v30.72h-120.32v7.68h120.32v10.24z m30.72-7.68h74.24l-15.36 23.04h-56.32v-23.04zM1543.68 409.6c2.56 5.12 5.12 7.68 12.8 7.68 15.36 0 25.6-10.24 25.6-28.16 0-15.36-12.8-30.72-35.84-51.2-10.24-7.68-20.48-15.36-35.84-23.04l-2.56 5.12c17.92 25.6 28.16 53.76 35.84 81.92-2.56 5.12-2.56 7.68 0 7.68zM2163.2 360.96c10.24-7.68 17.92-17.92 28.16-28.16 5.12-5.12 10.24-10.24 12.8-15.36 10.24 0 12.8-2.56 12.8-7.68 0-2.56-2.56-5.12-5.12-5.12l-20.48-7.68-15.36-5.12c-2.56 7.68-7.68 17.92-12.8 25.6-12.8 23.04-30.72 48.64-53.76 71.68l5.12 5.12c17.92-10.24 33.28-20.48 48.64-33.28zM2391.04 320c0-2.56 0-5.12-2.56-5.12l-30.72-23.04-20.48 23.04h-102.4v7.68h148.48c5.12 2.56 7.68 0 7.68-2.56zM1382.4 424.96c5.12 0 10.24 0 15.36-2.56 5.12 0 7.68-5.12 5.12-7.68v-20.48c7.68-5.12 10.24-10.24 10.24-12.8 0-2.56-2.56-5.12-5.12-5.12l-25.6-12.8-2.56-2.56-10.24 17.92H1254.4l-40.96-7.68v28.16c0 12.8 0 23.04-2.56 30.72 10.24 0 17.92-2.56 25.6-5.12 5.12 0 7.68-5.12 5.12-7.68v-2.56H1374.72v7.68c2.56 2.56 5.12 2.56 7.68 2.56z m-33.28-15.36h-104.96v-25.6H1377.28v25.6h-28.16zM1615.36 399.36c2.56 2.56 5.12 2.56 7.68 2.56 5.12 0 7.68 0 10.24-2.56 10.24-5.12 15.36-12.8 15.36-28.16 0-12.8-5.12-25.6-15.36-38.4-5.12-5.12-10.24-12.8-15.36-17.92-7.68-7.68-17.92-15.36-28.16-23.04l-2.56 2.56c15.36 28.16 23.04 61.44 25.6 92.16-2.56 7.68 0 12.8 2.56 12.8zM1635.84 458.24l-2.56 5.12c33.28 25.6 58.88 51.2 76.8 81.92 5.12 10.24 12.8 12.8 17.92 12.8 12.8 0 20.48-10.24 20.48-28.16-2.56-23.04-38.4-48.64-112.64-71.68zM2227.2 376.32c0-2.56-2.56-5.12-5.12-5.12l-30.72-12.8-7.68-2.56c-5.12 12.8-12.8 28.16-20.48 40.96-12.8 23.04-33.28 48.64-56.32 74.24l5.12 5.12c15.36-7.68 28.16-17.92 40.96-28.16v25.6c0 25.6 0 58.88-2.56 97.28h10.24c5.12 0 12.8-2.56 17.92-2.56 5.12 0 5.12-5.12 5.12-10.24V435.2s2.56 0 5.12-2.56c5.12-2.56 7.68-5.12 7.68-7.68 0-2.56-2.56-5.12-5.12-5.12h-12.8c2.56-2.56 5.12-5.12 7.68-10.24 7.68-7.68 12.8-17.92 23.04-28.16 12.8 2.56 17.92 0 17.92-5.12z" fill="" p-id="3084"></path><path d="M1733.12 409.6l-20.48 28.16H1664c28.16-33.28 51.2-71.68 66.56-112.64 12.8 0 17.92-2.56 17.92-7.68 0-2.56-2.56-5.12-5.12-7.68l-51.2-17.92c-5.12 43.52-20.48 92.16-40.96 143.36H1484.8v7.68H1763.84c5.12-2.56 7.68-2.56 7.68-5.12v-5.12l-38.4-23.04zM2027.52 483.84c23.04-7.68 38.4-17.92 48.64-25.6 10.24 0 15.36-2.56 15.36-7.68 0-2.56 0-5.12-5.12-7.68l-25.6-15.36c0-2.56 2.56-5.12 2.56-7.68v-94.72c7.68-5.12 10.24-10.24 10.24-12.8 0-2.56-2.56-5.12-5.12-5.12l-33.28-12.8-10.24 17.92h-56.32l-46.08-10.24V512c0 5.12-2.56 10.24-7.68 12.8l-2.56 2.56h-2.56l-2.56 2.56 2.56 5.12 2.56 5.12 2.56 2.56 12.8 23.04c0 2.56 2.56 5.12 5.12 5.12 5.12 0 7.68-5.12 5.12-15.36 20.48-10.24 38.4-20.48 53.76-30.72 5.12-5.12 10.24-7.68 12.8-10.24 10.24 17.92 28.16 35.84 53.76 51.2 5.12-15.36 15.36-25.6 30.72-28.16l2.56-5.12c-25.6-15.36-48.64-28.16-64-48.64z m-69.12-166.4h71.68v46.08h-71.68v-46.08z m0 53.76h71.68v46.08h-71.68v-46.08z m35.84 135.68l-35.84 10.24v-92.16h25.6c2.56 20.48 5.12 38.4 12.8 56.32 2.56 7.68 5.12 15.36 10.24 23.04l-12.8 2.56z m0-76.8c-2.56-2.56-2.56-5.12-2.56-5.12h38.4v10.24c7.68 0 12.8 0 17.92-2.56h2.56c-7.68 12.8-17.92 28.16-30.72 43.52-10.24-10.24-17.92-28.16-25.6-46.08z" fill="" p-id="3085"></path><path d="M1917.44 506.88c2.56-2.56 2.56-2.56 2.56-5.12l-2.56-2.56-2.56-2.56h-2.56l-43.52 17.92v-56.32h51.2c2.56 0 2.56-2.56 2.56-2.56 0-2.56 0-5.12-2.56-5.12l-2.56-2.56-2.56-2.56-23.04-15.36-15.36 20.48H1868.8v-51.2h35.84c5.12 0 7.68 0 7.68-2.56s0-5.12-2.56-5.12l-23.04-17.92-12.8 20.48h-46.08c7.68-12.8 12.8-28.16 17.92-43.52H1917.44s2.56 0 2.56-2.56c2.56 0 2.56-2.56 2.56-2.56 0-2.56 0-5.12-2.56-5.12l-2.56-2.56-23.04-15.36-15.36 20.48h-25.6c5.12-12.8 7.68-23.04 10.24-33.28 7.68 0 10.24-5.12 10.24-7.68 0-2.56 0-5.12-2.56-5.12l-40.96-5.12c-2.56 48.64-12.8 94.72-30.72 140.8l5.12 2.56c10.24-10.24 17.92-20.48 25.6-30.72h15.36v51.2h-40.96v7.68h40.96v56.32c0 7.68-2.56 12.8-10.24 15.36l20.48 30.72c2.56 2.56 2.56 2.56 5.12 2.56 5.12 0 7.68-5.12 5.12-12.8 12.8-17.92 33.28-33.28 51.2-48.64zM1436.16 478.72l-30.72-12.8-12.8 17.92h-28.16l-15.36-5.12-23.04-5.12c0 5.12 2.56 15.36 2.56 28.16v12.8c0 23.04 0 38.4-2.56 48.64 7.68 0 15.36 0 23.04-2.56h2.56c5.12 0 5.12-5.12 5.12-7.68v-12.8h40.96v17.92c7.68 0 15.36 0 25.6-2.56 5.12 0 5.12-2.56 5.12-7.68 0-7.68-2.56-17.92-2.56-33.28v-20.48c7.68-2.56 12.8-7.68 12.8-12.8 2.56 0 0 0-2.56-2.56zM1400.32 537.6H1356.8v-48.64h40.96V537.6z" fill="" p-id="3086"></path><path d="M1423.36 424.96l-20.48 25.6H1344l2.56-2.56c5.12-2.56 10.24-5.12 12.8-7.68 2.56-2.56 5.12-2.56 5.12-5.12 7.68 0 10.24-2.56 10.24-7.68 0-2.56-2.56-5.12-5.12-5.12l-25.6-5.12-10.24-2.56c0 7.68-2.56 20.48-7.68 33.28h-56.32c7.68-2.56 12.8-7.68 12.8-15.36 0-12.8-12.8-17.92-38.4-15.36l-2.56 2.56c5.12 7.68 10.24 12.8 10.24 20.48 0 2.56 2.56 5.12 5.12 7.68h-94.72v7.68h53.76c0 10.24 0 17.92-2.56 28.16h-43.52v7.68h40.96c-5.12 25.6-20.48 51.2-53.76 71.68l2.56 5.12c46.08-15.36 74.24-40.96 81.92-76.8h30.72v12.8c0 12.8-2.56 20.48-2.56 25.6 0 5.12-5.12 10.24-17.92 10.24L1228.8 537.6v2.56c20.48 5.12 30.72 12.8 30.72 25.6 25.6-2.56 40.96-12.8 43.52-33.28 0-10.24 0-17.92 2.56-28.16v-5.12c5.12-2.56 7.68-5.12 10.24-5.12 2.56-2.56 2.56-5.12 2.56-7.68 0-2.56 0-2.56-2.56-5.12h-2.56l-28.16-12.8-12.8 17.92h-23.04c0-5.12 2.56-10.24 2.56-17.92v-10.24H1448.96c5.12 0 7.68-2.56 7.68-5.12s0-5.12-2.56-5.12l-30.72-23.04zM1610.24 478.72c0-2.56 0-2.56 0 0l-43.52-20.48c-5.12 12.8-15.36 28.16-25.6 43.52-15.36 20.48-35.84 40.96-61.44 64l5.12 5.12c20.48-7.68 40.96-17.92 58.88-28.16 20.48-12.8 40.96-28.16 56.32-46.08 10.24 0 15.36 0 17.92-5.12v-2.56-2.56c-2.56-7.68-5.12-7.68-7.68-7.68z" fill="" p-id="3087"></path><path d="M1543.68 716.8L1510.4 675.84l28.16-23.04c7.68-5.12 12.8-7.68 12.8-10.24 2.56-2.56 5.12-2.56 7.68-2.56v-2.56h-35.84v2.56c5.12 0 5.12 0 7.68 2.56 2.56 0 2.56 2.56 2.56 5.12s-2.56 5.12-7.68 10.24l-35.84 28.16v-28.16-10.24c0-2.56 2.56-2.56 2.56-2.56 2.56 0 5.12-2.56 7.68-2.56V640h-46.08 2.56c2.56 0 5.12 0 5.12 2.56 2.56 0 2.56 2.56 2.56 2.56V724.48c0 2.56-2.56 2.56-2.56 5.12-2.56 0-5.12 2.56-7.68 2.56h-2.56v2.56h48.64v-2.56c-5.12 0-5.12 0-7.68-2.56-2.56 0-2.56-2.56-2.56-2.56V691.2l2.56-2.56 20.48 28.16c5.12 5.12 5.12 10.24 5.12 10.24v2.56c-2.56 0-2.56 0-5.12 2.56v2.56H1561.6v-2.56c-2.56 0-5.12 0-7.68-2.56-2.56-2.56-5.12-7.68-10.24-12.8zM1336.32 714.24l-33.28-76.8h-2.56l-7.68 20.48-23.04 56.32c-5.12 7.68-5.12 12.8-7.68 12.8-2.56 2.56-5.12 5.12-7.68 5.12v2.56h30.72v-2.56c-5.12 0-5.12-2.56-7.68-2.56-2.56 0-2.56-2.56-2.56-5.12s0-5.12 2.56-7.68l5.12-10.24H1315.84l5.12 12.8c2.56 2.56 2.56 5.12 2.56 5.12v2.56c0 2.56 0 2.56-2.56 5.12-2.56 0-5.12 2.56-7.68 2.56H1305.6v2.56h46.08v-2.56c-2.56 0-5.12-2.56-7.68-2.56-2.56-5.12-5.12-10.24-7.68-17.92z m-43.52-12.8H1280l12.8-33.28 15.36 33.28h-15.36zM1221.12 683.52c7.68-2.56 12.8-5.12 17.92-7.68 2.56-2.56 5.12-7.68 5.12-12.8s0-7.68-5.12-12.8c-2.56-5.12-5.12-7.68-10.24-7.68-5.12-2.56-10.24-2.56-20.48-2.56h-51.2c5.12 0 7.68 0 10.24 2.56 2.56 0 2.56 2.56 2.56 2.56V727.04c0 2.56-2.56 2.56-2.56 2.56-2.56 0-5.12 2.56-10.24 2.56v2.56h51.2c12.8 0 23.04-2.56 28.16-7.68 5.12-5.12 7.68-10.24 7.68-17.92 0-5.12-2.56-12.8-7.68-15.36 0-7.68-7.68-7.68-15.36-10.24z m-25.6-38.4c5.12 0 10.24 0 12.8 2.56 2.56 2.56 5.12 5.12 7.68 5.12 2.56 2.56 2.56 5.12 2.56 10.24s0 7.68-2.56 10.24c-2.56 2.56-5.12 5.12-7.68 5.12-5.12 2.56-7.68 2.56-12.8 2.56v-35.84z m25.6 74.24l-7.68 7.68c-2.56 0-2.56 2.56-5.12 2.56h-7.68c-2.56 0-5.12 0-5.12-2.56-2.56-2.56-2.56-2.56-2.56-5.12v-35.84h15.36c5.12 2.56 7.68 5.12 7.68 7.68 2.56 2.56 2.56 7.68 2.56 12.8 5.12 5.12 2.56 7.68 2.56 12.8zM1418.24 640c5.12 0 10.24 2.56 10.24 5.12 2.56 2.56 2.56 5.12 2.56 12.8v40.96L1384.96 640h-33.28c2.56 0 5.12 0 7.68 2.56 2.56 0 2.56 2.56 5.12 5.12l2.56 2.56V716.8c0 5.12 0 7.68-2.56 10.24-2.56 2.56-5.12 5.12-10.24 5.12v2.56h33.28v-2.56H1382.4c-2.56 0-5.12-2.56-7.68-2.56-2.56-2.56-2.56-5.12-2.56-10.24v-61.44l64 79.36h2.56v-79.36c0-5.12 2.56-7.68 2.56-10.24 0-2.56 0-2.56 2.56-5.12 2.56 0 5.12-2.56 7.68-2.56v-2.56l-33.28 2.56zM1640.96 637.44c-15.36 0-25.6 5.12-35.84 12.8-10.24 10.24-15.36 20.48-15.36 35.84 0 12.8 5.12 23.04 12.8 33.28 7.68 12.8 20.48 17.92 38.4 17.92s30.72-5.12 38.4-17.92c7.68-10.24 10.24-20.48 10.24-30.72 0-12.8-5.12-25.6-12.8-35.84s-20.48-15.36-35.84-15.36z m23.04 74.24c-2.56 5.12-5.12 10.24-10.24 12.8-2.56 2.56-7.68 5.12-12.8 5.12-7.68 0-12.8-2.56-15.36-7.68-5.12-7.68-7.68-20.48-7.68-35.84 0-12.8 2.56-23.04 5.12-30.72 5.12-10.24 10.24-12.8 20.48-12.8 5.12 0 10.24 0 12.8 5.12 5.12 2.56 7.68 5.12 10.24 12.8 2.56 5.12 2.56 15.36 2.56 28.16-2.56 7.68-2.56 15.36-5.12 23.04zM2145.28 640h2.56c2.56 0 5.12 0 5.12 2.56 2.56 0 2.56 2.56 2.56 2.56V724.48c0 2.56-2.56 2.56-2.56 5.12-2.56 0-2.56 2.56-5.12 2.56h-2.56v2.56h48.64v-2.56h-2.56c-2.56 0-5.12 0-7.68-2.56-2.56 0-2.56-2.56-2.56-2.56v-71.68-7.68c0-2.56 2.56-2.56 2.56-5.12 2.56 0 5.12-2.56 7.68-2.56h2.56v-2.56l-48.64 2.56zM2127.36 716.8l-25.6-38.4 17.92-20.48c5.12-5.12 7.68-10.24 10.24-10.24 2.56-2.56 5.12-2.56 5.12-2.56 2.56 0 5.12-2.56 5.12-2.56V640h-33.28c2.56 0 5.12 0 5.12 2.56 0 0 2.56 0 2.56 2.56v2.56c0 2.56-2.56 7.68-7.68 12.8l-10.24 12.8-12.8-17.92-5.12-7.68v-2.56s0-2.56 2.56-2.56 2.56-2.56 7.68-2.56h2.56v-2.56h-46.08v2.56c2.56 0 5.12 0 5.12 2.56l2.56 2.56s2.56 5.12 7.68 10.24l23.04 35.84-17.92 23.04c-5.12 7.68-10.24 12.8-12.8 12.8-2.56 2.56-5.12 2.56-10.24 5.12v2.56h35.84v-2.56H2073.6c-2.56 0-5.12-2.56-5.12-2.56 0-2.56-2.56-2.56-2.56-5.12s2.56-5.12 7.68-10.24l12.8-17.92 12.8 20.48c2.56 5.12 5.12 5.12 5.12 7.68v2.56l-2.56 2.56c-2.56 0-5.12 0-7.68 2.56v2.56h46.08v-2.56c-2.56 0-5.12-2.56-5.12-2.56 0-2.56-5.12-7.68-7.68-12.8zM2263.04 640c5.12 0 7.68 2.56 10.24 5.12 2.56 2.56 2.56 5.12 2.56 12.8v40.96L2229.76 640h-33.28c2.56 0 5.12 0 5.12 2.56 2.56 0 5.12 2.56 5.12 5.12l2.56 2.56V716.8c0 5.12-2.56 7.68-2.56 10.24-2.56 2.56-5.12 2.56-10.24 2.56v2.56h33.28v-2.56H2227.2c-2.56 0-5.12-2.56-7.68-2.56-2.56-2.56-5.12-5.12-5.12-10.24v-61.44l64 79.36h2.56v-79.36-10.24c0-2.56 2.56-2.56 2.56-5.12 2.56 0 5.12-2.56 7.68-2.56v-2.56l-28.16 5.12zM1697.28 640h2.56c2.56 0 5.12 0 5.12 2.56 2.56 0 2.56 2.56 2.56 2.56V724.48c0 2.56-2.56 2.56-2.56 2.56-2.56 2.56-5.12 2.56-7.68 2.56h-2.56v2.56h48.64v-2.56H1740.8c-2.56 0-5.12 0-5.12-2.56-2.56 0-2.56-2.56-2.56-2.56V688.64h2.56c5.12 0 10.24 2.56 12.8 5.12 5.12 2.56 5.12 7.68 7.68 17.92h2.56v-48.64h-2.56c0 5.12-2.56 10.24-5.12 12.8s-5.12 5.12-7.68 5.12c-2.56 2.56-5.12 2.56-10.24 2.56h-2.56v-38.4H1753.6c5.12 2.56 7.68 2.56 12.8 5.12 2.56 2.56 5.12 7.68 5.12 15.36h2.56v-28.16l-76.8 2.56zM2360.32 693.76c5.12 2.56 5.12 2.56 7.68 5.12 2.56 0 2.56 2.56 2.56 2.56s2.56 2.56 2.56 7.68v20.48c-2.56 2.56-5.12 2.56-7.68 2.56h-7.68c-7.68 0-12.8-2.56-17.92-5.12-5.12-2.56-7.68-7.68-10.24-15.36-2.56-5.12-2.56-15.36-2.56-23.04 0-7.68 0-15.36 2.56-23.04 2.56-7.68 5.12-12.8 10.24-15.36 5.12-5.12 10.24-5.12 17.92-5.12 7.68 0 12.8 2.56 20.48 7.68 5.12 5.12 10.24 12.8 12.8 20.48h2.56V640h-2.56c0 2.56-2.56 5.12-2.56 5.12l-2.56 2.56s-5.12 0-7.68-2.56c-5.12-2.56-7.68-2.56-10.24-2.56-2.56 0-7.68-2.56-12.8-2.56-15.36 0-28.16 5.12-38.4 15.36-10.24 10.24-15.36 20.48-15.36 35.84 0 7.68 2.56 15.36 5.12 20.48 5.12 5.12 7.68 10.24 12.8 12.8 5.12 5.12 10.24 7.68 15.36 10.24 5.12 2.56 12.8 5.12 23.04 5.12 7.68 0 12.8 0 20.48-2.56 7.68-2.56 12.8-2.56 20.48-5.12v-20.48-5.12c0-2.56 2.56-2.56 2.56-5.12 0 0 5.12-2.56 7.68-2.56v-2.56h-48.64z" fill="" p-id="3088"></path><path d="M2024.96 714.24l-33.28-76.8h-2.56l-7.68 17.92-25.6 56.32c-5.12 7.68-5.12 12.8-7.68 12.8-2.56 2.56-5.12 5.12-7.68 5.12v2.56H1971.2v-2.56c-5.12 0-7.68 0-10.24-2.56-2.56-2.56-2.56-5.12-2.56-5.12 0-2.56 0-5.12 2.56-7.68l5.12-10.24h35.84l5.12 12.8c2.56 2.56 2.56 5.12 2.56 5.12v2.56s0 2.56-2.56 2.56-2.56 2.56-7.68 2.56H1996.8v2.56h46.08v-2.56c-2.56 0-5.12-2.56-7.68-2.56-2.56 0-5.12-5.12-10.24-12.8z m-43.52-12.8h-12.8l12.8-33.28 12.8 33.28h-12.8zM1835.52 640h5.12c2.56 0 5.12 0 7.68 2.56 2.56 0 2.56 2.56 2.56 2.56V724.48c0 2.56-2.56 5.12-2.56 5.12-2.56 0-2.56 2.56-5.12 2.56s-5.12 0-7.68-2.56c-2.56 0-2.56-2.56-2.56-2.56s0-2.56 2.56-5.12 2.56-2.56 2.56-5.12v-2.56c0-2.56 0-5.12-2.56-7.68-2.56-2.56-5.12-2.56-7.68-2.56-2.56 0-5.12 0-7.68 2.56-2.56 2.56-2.56 5.12-2.56 7.68 0 5.12 2.56 10.24 7.68 12.8 5.12 5.12 10.24 5.12 17.92 5.12 7.68 0 12.8-2.56 17.92-5.12 5.12-2.56 7.68-5.12 10.24-10.24 2.56-5.12 2.56-10.24 2.56-20.48v-46.08-7.68c0-2.56 2.56-2.56 2.56-5.12 2.56 0 5.12-2.56 5.12-2.56h2.56v-2.56l-48.64 7.68zM1889.28 640h2.56c2.56 0 5.12 0 7.68 2.56 2.56 0 2.56 2.56 2.56 2.56V724.48c0 2.56-2.56 2.56-2.56 5.12-2.56 0-5.12 2.56-7.68 2.56h-2.56v2.56h48.64v-2.56h-2.56c-2.56 0-5.12 0-5.12-2.56-2.56 0-2.56-2.56-5.12-2.56v-71.68-7.68c0-2.56 2.56-2.56 5.12-5.12l5.12-2.56h2.56v-2.56l-48.64 2.56z" fill="" p-id="3089"></path><path d="M972.8 458.24v168.96c-46.08-2.56-125.44-5.12-153.6 38.4-133.12 209.92-281.6 217.6-424.96 110.08V514.56c5.12 112.64 94.72 161.28 158.72 166.4 74.24 5.12 138.24-46.08 163.84-102.4 48.64-110.08 128-112.64 256-120.32z" fill="#51A283" p-id="3090"></path></svg>