<?xml version="1.0" standalone="no"?><!DOCTYPE svg PUBLIC "-//W3C//DTD SVG 1.1//EN" "http://www.w3.org/Graphics/SVG/1.1/DTD/svg11.dtd"><svg t="1531986157296" class="icon" style="" viewBox="0 0 2560 1024" version="1.1" xmlns="http://www.w3.org/2000/svg" p-id="3750" xmlns:xlink="http://www.w3.org/1999/xlink" width="500" height="200"><defs><style type="text/css"></style></defs><path d="M391.68 273.92C261.12 273.92 153.6 378.88 153.6 512s107.52 238.08 238.08 238.08c133.12 0 238.08-107.52 238.08-238.08s-104.96-238.08-238.08-238.08z m0 437.76c-110.08 0-199.68-89.6-199.68-199.68s89.6-199.68 199.68-199.68 199.68 89.6 199.68 199.68c0 28.16-5.12 53.76-15.36 79.36 0 2.56-2.56 5.12-2.56 5.12l2.56 12.8s-2.56-2.56-7.68-5.12c-92.16-69.12-240.64-69.12-240.64-69.12 20.48-35.84 20.48-84.48 20.48-84.48 48.64-38.4 122.88-28.16 122.88-28.16l-17.92 79.36 56.32-104.96c-99.84-12.8-212.48 30.72-212.48 30.72 23.04 84.48-66.56 168.96-66.56 168.96 194.56-46.08 299.52 0 332.8 17.92-35.84 58.88-97.28 97.28-171.52 97.28z" fill="#A40000" p-id="3751"></path><path d="M757.76 540.16v-92.16h25.6v17.92h51.2v15.36h-51.2v33.28c12.8-2.56 28.16-5.12 51.2-10.24v15.36c-23.04 10.24-48.64 17.92-76.8 20.48z m5.12-99.84v-79.36h151.04v51.2c0 20.48-10.24 30.72-30.72 30.72h-120.32z m23.04-64v17.92h102.4v-17.92h-102.4z m0 48.64h89.6c7.68 0 12.8-5.12 10.24-12.8v-5.12h-102.4v17.92zM870.4 537.6c-17.92 0-28.16-10.24-28.16-28.16v-58.88h23.04v25.6c15.36-2.56 28.16-10.24 38.4-20.48h23.04c-10.24 23.04-30.72 33.28-61.44 35.84v20.48c0 7.68 2.56 12.8 12.8 12.8h17.92c10.24 0 15.36-5.12 12.8-12.8v-7.68h17.92v10.24c0 15.36-10.24 25.6-28.16 25.6H870.4zM965.12 532.48V384h25.6v130.56h43.52v-161.28h28.16v161.28h28.16c10.24 0 15.36-5.12 15.36-15.36V384h25.6v117.76c0 20.48-10.24 30.72-30.72 30.72h-135.68zM1164.8 494.08v-17.92c35.84-25.6 58.88-56.32 71.68-89.6h-35.84v17.92h-25.6v-35.84h69.12s0-2.56 2.56-5.12c0-2.56 2.56-5.12 5.12-12.8H1280s0 2.56-2.56 5.12c-2.56 5.12-2.56 10.24-2.56 10.24h76.8v35.84h-25.6V384h-56.32c-2.56 10.24-7.68 17.92-12.8 25.6h23.04c5.12 15.36 10.24 30.72 15.36 40.96 12.8-7.68 20.48-20.48 28.16-40.96h25.6c-7.68 28.16-23.04 46.08-43.52 56.32 10.24 15.36 28.16 30.72 53.76 46.08v15.36c-53.76-17.92-89.6-56.32-102.4-112.64-5.12 10.24-12.8 17.92-20.48 28.16h7.68V512c12.8-2.56 25.6-7.68 40.96-12.8v17.92c-20.48 10.24-43.52 20.48-66.56 25.6v-76.8c-23.04 10.24-35.84 17.92-53.76 28.16zM1377.28 396.8v-15.36h25.6v-28.16h25.6v28.16h23.04v15.36h-23.04c5.12 20.48 12.8 38.4 23.04 58.88v25.6c-10.24-10.24-17.92-23.04-23.04-35.84v97.28h-25.6v-84.48c-7.68 15.36-17.92 33.28-30.72 48.64v-25.6c12.8-23.04 23.04-51.2 28.16-84.48h-23.04z m81.92 2.56V384h56.32v-30.72h28.16V384h23.04v17.92h-23.04V512c0 17.92-7.68 28.16-25.6 28.16h-28.16v-17.92h17.92c7.68 0 10.24-2.56 10.24-10.24v-110.08H1459.2z m15.36 79.36c-2.56-17.92-7.68-38.4-15.36-56.32h23.04c7.68 17.92 12.8 38.4 17.92 56.32h-25.6zM1584.64 381.44v-15.36H1664v-12.8h30.72v12.8h79.36v15.36h-189.44z m10.24 161.28V409.6h38.4c-2.56-5.12-5.12-12.8-7.68-20.48h25.6c2.56 7.68 2.56 15.36 7.68 20.48h38.4c2.56-5.12 5.12-12.8 7.68-20.48h25.6c0 7.68-2.56 15.36-7.68 20.48h38.4v102.4c0 17.92-7.68 28.16-25.6 28.16H1715.2v-17.92h10.24c7.68 0 10.24-2.56 10.24-10.24v-89.6h-117.76v117.76h-23.04z m46.08-25.6v-53.76c-5.12 2.56-10.24 5.12-17.92 7.68v-15.36c12.8-5.12 23.04-15.36 28.16-28.16h23.04c-7.68 15.36-15.36 25.6-25.6 33.28h61.44c-10.24-7.68-20.48-17.92-25.6-33.28h23.04c5.12 12.8 12.8 23.04 28.16 28.16v15.36c-7.68-2.56-12.8-2.56-17.92-5.12v28.16c0 17.92-7.68 25.6-25.6 25.6h-51.2z m20.48-15.36h25.6c7.68 0 10.24-2.56 10.24-10.24v-15.36h-35.84v25.6zM1794.56 532.48v-15.36h56.32v-161.28h25.6v161.28h25.6v-161.28h25.6v161.28h56.32v15.36h-189.44z m23.04-56.32c-7.68-20.48-12.8-51.2-17.92-89.6h25.6c2.56 28.16 7.68 56.32 15.36 89.6H1817.6z m122.88 0c7.68-28.16 12.8-56.32 15.36-89.6h25.6c-5.12 38.4-10.24 69.12-17.92 89.6h-23.04zM2004.48 407.04v-12.8c12.8-7.68 20.48-20.48 20.48-38.4h23.04c-2.56 7.68-2.56 12.8-5.12 17.92H2073.6v15.36h-35.84c-10.24 7.68-20.48 12.8-33.28 17.92z m5.12 20.48V409.6h56.32v15.36h-15.36v28.16h20.48v15.36h-20.48V512c7.68-2.56 12.8-5.12 20.48-10.24v17.92c-15.36 7.68-28.16 15.36-46.08 20.48v-69.12h-20.48v-15.36h20.48v-28.16h-15.36z m71.68 115.2v-181.76h102.4v66.56c0 17.92-7.68 28.16-28.16 28.16h-51.2V512c7.68-2.56 15.36-5.12 25.6-10.24v17.92c-15.36 10.24-30.72 17.92-48.64 23.04z m23.04-166.4v20.48h56.32v-20.48h-56.32z m43.52 61.44c7.68 0 12.8-5.12 12.8-12.8v-10.24h-56.32v23.04h43.52z m48.64 102.4c-43.52-12.8-69.12-38.4-79.36-79.36h23.04c2.56 10.24 7.68 20.48 10.24 28.16 10.24-7.68 15.36-15.36 20.48-28.16h23.04c-7.68 17.92-17.92 33.28-33.28 38.4 7.68 7.68 20.48 15.36 35.84 23.04v17.92zM2216.96 414.72v-15.36c20.48-7.68 33.28-23.04 40.96-46.08h25.6c-10.24 33.28-30.72 53.76-66.56 61.44z m23.04 128v-84.48l-23.04 7.68v-15.36c20.48-7.68 33.28-23.04 38.4-46.08h28.16c-5.12 15.36-10.24 25.6-17.92 33.28v102.4h-25.6z m48.64-110.08v-17.92H2406.4v17.92h-30.72V512c0 17.92-7.68 28.16-25.6 28.16h-30.72v-17.92h17.92c7.68 0 10.24-2.56 10.24-10.24v-79.36h-58.88z m10.24-51.2v-17.92h99.84v17.92h-99.84z" fill="" p-id="3752"></path><path d="M757.76 704v-76.8h10.24V665.6l30.72-38.4h10.24l-25.6 30.72 28.16 46.08h-10.24l-23.04-38.4-10.24 10.24v25.6h-10.24zM860.16 627.2h7.68v43.52c0 7.68 0 12.8-2.56 17.92-2.56 5.12-5.12 7.68-7.68 10.24-5.12 2.56-7.68 5.12-15.36 5.12s-15.36-2.56-17.92-7.68-5.12-12.8-5.12-25.6v-43.52h7.68v43.52c0 7.68 0 12.8 2.56 15.36 0 2.56 2.56 5.12 5.12 7.68 2.56 2.56 5.12 2.56 10.24 2.56s10.24-2.56 12.8-5.12c2.56-2.56 5.12-10.24 5.12-20.48v-43.52zM883.2 704v-76.8h7.68l33.28 61.44v-61.44h7.68v76.8h-7.68l-33.28-61.44v61.44h-7.68zM944.64 678.4h7.68c0 5.12 2.56 7.68 2.56 10.24 2.56 2.56 2.56 5.12 7.68 5.12 2.56 2.56 5.12 2.56 10.24 2.56s7.68 0 12.8-2.56 5.12-5.12 5.12-10.24c0-2.56 0-5.12-2.56-5.12 0-2.56-2.56-2.56-5.12-5.12-2.56 0-7.68-2.56-12.8-5.12s-10.24-2.56-12.8-5.12c-2.56-2.56-5.12-5.12-5.12-7.68-5.12-2.56-5.12-5.12-5.12-10.24s2.56-10.24 5.12-15.36c5.12-5.12 10.24-5.12 15.36-5.12 5.12 0 7.68 0 12.8 2.56s5.12 5.12 7.68 7.68c2.56 2.56 2.56 7.68 2.56 12.8h-7.68c0-5.12-2.56-7.68-5.12-10.24-2.56-2.56-5.12-2.56-10.24-2.56s-7.68 0-10.24 2.56c-2.56 2.56-2.56 5.12-2.56 7.68 0 2.56 0 5.12 2.56 7.68 2.56 2.56 5.12 2.56 12.8 5.12 5.12 2.56 10.24 2.56 12.8 5.12 5.12 2.56 7.68 5.12 7.68 7.68 2.56 2.56 2.56 7.68 2.56 10.24 0 5.12 0 7.68-2.56 12.8-2.56 2.56-5.12 7.68-7.68 7.68s-7.68 2.56-12.8 2.56c-7.68 0-15.36-2.56-17.92-7.68-5.12-2.56-7.68-10.24-7.68-17.92zM1006.08 704v-76.8h7.68v30.72h33.28v-30.72h7.68v76.8h-7.68v-35.84h-33.28v35.84h-7.68zM1062.4 704l25.6-76.8h10.24l25.6 76.8h-10.24l-7.68-23.04h-25.6l-7.68 23.04h-10.24z m17.92-33.28h20.48l-7.68-20.48c-2.56-7.68-2.56-12.8-5.12-15.36 0 5.12-2.56 10.24-2.56 15.36l-5.12 20.48zM1128.96 704v-76.8h7.68l33.28 61.44v-61.44h7.68v76.8h-7.68l-33.28-61.44v61.44h-7.68zM1218.56 704v-76.8h28.16c5.12 0 10.24 0 12.8 2.56l7.68 7.68c2.56 2.56 2.56 7.68 2.56 12.8s-2.56 10.24-5.12 15.36c-2.56 2.56-7.68 5.12-12.8 7.68 2.56 2.56 5.12 2.56 5.12 5.12 2.56 2.56 5.12 5.12 7.68 10.24l10.24 20.48h-10.24l-10.24-20.48c-2.56-5.12-5.12-10.24-7.68-12.8l-5.12-5.12h-17.92v33.28h-5.12z m7.68-43.52h17.92c5.12 0 7.68 0 10.24-2.56 2.56 0 2.56-2.56 5.12-5.12s2.56-5.12 2.56-7.68c0-5.12 0-7.68-2.56-10.24s-5.12-2.56-10.24-2.56H1228.8v28.16zM1323.52 627.2h7.68v43.52c0 7.68 0 12.8-2.56 17.92-2.56 5.12-5.12 7.68-7.68 10.24-5.12 2.56-7.68 5.12-15.36 5.12s-15.36-2.56-17.92-7.68-5.12-12.8-5.12-25.6v-43.52h7.68v43.52c0 7.68 0 12.8 2.56 15.36 0 2.56 2.56 5.12 5.12 7.68 2.56 2.56 5.12 2.56 10.24 2.56s10.24-2.56 12.8-5.12c2.56-2.56 5.12-10.24 5.12-20.48v-43.52zM1346.56 704v-76.8h28.16c5.12 0 10.24 0 12.8 2.56l7.68 7.68c2.56 2.56 2.56 7.68 2.56 12.8s-2.56 10.24-5.12 15.36c-2.56 2.56-7.68 5.12-12.8 7.68 2.56 2.56 5.12 2.56 5.12 5.12 2.56 2.56 5.12 5.12 7.68 10.24l10.24 20.48h-10.24l-10.24-20.48c-2.56-5.12-5.12-10.24-7.68-12.8l-5.12-5.12h-17.92v33.28h-5.12z m7.68-43.52h17.92c5.12 0 7.68 0 10.24-2.56 2.56 0 2.56-2.56 5.12-5.12s2.56-5.12 2.56-7.68c0-5.12 0-7.68-2.56-10.24-2.56-2.56-5.12-2.56-10.24-2.56H1356.8v28.16zM1402.88 704l25.6-76.8h10.24l25.6 76.8h-10.24l-7.68-23.04h-25.6l-7.68 23.04h-10.24z m17.92-33.28h20.48l-7.68-20.48c-2.56-7.68-2.56-12.8-5.12-15.36 0 5.12-2.56 10.24-2.56 15.36l-5.12 20.48zM1466.88 704v-76.8h7.68v69.12h30.72v10.24h-38.4zM1584.64 675.84l7.68 2.56c-2.56 7.68-5.12 15.36-10.24 20.48-5.12 5.12-10.24 7.68-17.92 7.68-5.12 0-10.24-2.56-15.36-5.12-5.12-2.56-7.68-7.68-10.24-12.8-2.56-5.12-5.12-12.8-5.12-23.04 0-7.68 2.56-15.36 5.12-20.48 2.56-5.12 5.12-10.24 10.24-12.8 5.12-2.56 10.24-5.12 15.36-5.12 5.12 0 10.24 2.56 15.36 5.12 5.12 2.56 7.68 10.24 10.24 17.92l-7.68 2.56c-2.56-10.24-7.68-15.36-17.92-15.36-5.12 0-7.68 0-10.24 2.56-2.56 2.56-5.12 5.12-7.68 10.24-2.56 5.12-2.56 10.24-2.56 17.92 0 10.24 2.56 17.92 5.12 23.04 2.56 5.12 7.68 7.68 15.36 7.68 5.12 0 7.68-2.56 12.8-5.12 5.12-5.12 5.12-10.24 7.68-17.92zM1600 665.6c0-12.8 2.56-23.04 7.68-30.72 5.12-7.68 12.8-10.24 20.48-10.24 5.12 0 10.24 2.56 15.36 5.12 5.12 2.56 7.68 7.68 10.24 12.8 2.56 5.12 5.12 12.8 5.12 20.48 0 10.24-2.56 20.48-7.68 28.16-5.12 7.68-12.8 12.8-23.04 12.8s-17.92-5.12-23.04-12.8c-2.56-5.12-5.12-15.36-5.12-25.6z m10.24 0c0 10.24 2.56 17.92 5.12 23.04 5.12 5.12 10.24 7.68 15.36 7.68 5.12 0 10.24-2.56 15.36-7.68 5.12-5.12 5.12-12.8 5.12-23.04 0-7.68 0-12.8-2.56-17.92-2.56-5.12-5.12-7.68-7.68-10.24-2.56-2.56-7.68-2.56-10.24-2.56-5.12 0-12.8 2.56-15.36 7.68-2.56 5.12-5.12 12.8-5.12 23.04zM1671.68 704v-76.8h12.8l15.36 53.76 2.56 10.24c0-2.56 2.56-7.68 2.56-12.8l15.36-53.76h10.24v76.8h-7.68V640l-17.92 64h-7.68l-17.92-66.56v66.56h-7.68zM1745.92 704v-76.8h12.8l15.36 53.76 2.56 10.24c0-2.56 2.56-7.68 2.56-12.8l15.36-53.76h10.24v76.8h-7.68V640l-17.92 64h-7.68l-17.92-66.56v66.56h-7.68zM1820.16 704v-76.8h46.08v10.24h-38.4v23.04h35.84v10.24h-35.84v25.6H1868.8v10.24h-48.64zM1879.04 704v-76.8h28.16c5.12 0 10.24 0 12.8 2.56l7.68 7.68c2.56 2.56 2.56 7.68 2.56 12.8s-2.56 10.24-5.12 15.36c-2.56 2.56-7.68 5.12-12.8 7.68 2.56 2.56 5.12 2.56 5.12 5.12 2.56 2.56 5.12 5.12 7.68 10.24l10.24 20.48h-10.24l-7.68-15.36c-2.56-5.12-5.12-10.24-7.68-12.8l-5.12-5.12h-17.92v33.28h-7.68z m7.68-43.52h17.92c5.12 0 7.68 0 10.24-2.56 2.56 0 2.56-2.56 5.12-5.12 0-2.56 2.56-5.12 2.56-7.68 0-5.12 0-7.68-2.56-10.24-2.56-2.56-5.12-2.56-10.24-2.56h-20.48v28.16zM1989.12 675.84l7.68 2.56c-2.56 7.68-5.12 15.36-10.24 20.48-5.12 5.12-10.24 7.68-17.92 7.68-5.12 0-10.24-2.56-15.36-5.12-5.12-2.56-7.68-7.68-10.24-12.8-2.56-5.12-5.12-12.8-5.12-23.04 0-7.68 2.56-15.36 5.12-20.48 2.56-5.12 5.12-10.24 10.24-12.8 5.12-2.56 10.24-5.12 15.36-5.12 5.12 0 10.24 2.56 15.36 5.12 5.12 2.56 7.68 10.24 10.24 17.92l-7.68 2.56c-2.56-10.24-7.68-15.36-17.92-15.36-5.12 0-7.68 0-10.24 2.56-2.56 2.56-5.12 5.12-7.68 10.24-2.56 5.12-2.56 10.24-2.56 17.92 0 10.24 2.56 17.92 5.12 23.04 2.56 5.12 7.68 7.68 15.36 7.68 5.12 0 7.68-2.56 12.8-5.12 2.56-5.12 5.12-10.24 7.68-17.92zM2009.6 704v-76.8h7.68v76.8h-7.68zM2024.96 704l25.6-76.8h10.24l25.6 76.8h-10.24l-7.68-23.04h-25.6l-7.68 23.04h-10.24z m17.92-33.28h20.48l-7.68-20.48c-2.56-7.68-2.56-12.8-5.12-15.36 0 5.12-2.56 10.24-2.56 15.36l-5.12 20.48zM2091.52 704v-76.8h7.68v69.12h30.72v10.24h-38.4zM2160.64 704v-76.8h23.04c5.12 0 7.68 0 10.24 2.56 2.56 2.56 5.12 2.56 7.68 7.68 2.56 2.56 2.56 7.68 2.56 10.24 0 2.56 0 7.68-2.56 10.24-2.56 2.56-2.56 5.12-7.68 7.68 2.56 2.56 7.68 2.56 7.68 7.68 2.56 2.56 2.56 7.68 2.56 12.8s0 7.68-2.56 12.8l-7.68 7.68c-2.56 2.56-7.68 2.56-12.8 2.56h-20.48z m10.24-46.08h20.48c2.56 0 5.12-2.56 5.12-2.56 0-2.56 2.56-5.12 2.56-7.68 0-2.56 0-5.12-2.56-7.68 0-2.56-2.56-2.56-5.12-2.56h-23.04v20.48z m0 35.84H2193.92c2.56 0 5.12-2.56 5.12-5.12s2.56-5.12 2.56-7.68c0-2.56 0-5.12-2.56-7.68 0-2.56-2.56-2.56-5.12-5.12-2.56 0-5.12-2.56-10.24-2.56h-15.36v28.16zM2214.4 704l25.6-76.8h10.24l25.6 76.8h-10.24l-7.68-23.04h-25.6l-7.68 23.04h-10.24z m17.92-33.28h20.48l-7.68-20.48c-2.56-7.68-2.56-12.8-5.12-15.36 0 5.12-2.56 10.24-2.56 15.36l-5.12 20.48zM2280.96 704v-76.8h7.68l33.28 61.44v-61.44h7.68v76.8h-7.68l-33.28-61.44v61.44h-7.68zM2344.96 704v-76.8h7.68V665.6l30.72-38.4h10.24l-25.6 30.72 28.16 46.08h-10.24l-23.04-38.4-10.24 12.8v25.6h-7.68z" fill="" p-id="3753"></path></svg>