<?xml version="1.0" standalone="no"?><!DOCTYPE svg PUBLIC "-//W3C//DTD SVG 1.1//EN" "http://www.w3.org/Graphics/SVG/1.1/DTD/svg11.dtd"><svg t="1531986202710" class="icon" style="" viewBox="0 0 2560 1024" version="1.1" xmlns="http://www.w3.org/2000/svg" p-id="5382" xmlns:xlink="http://www.w3.org/1999/xlink" width="500" height="200"><defs><style type="text/css"></style></defs><path d="M371.2 650.24c-10.24 0-17.92 0-28.16-2.56-10.24 0-17.92-2.56-28.16-5.12-10.24-2.56-17.92-7.68-28.16-10.24-87.04-40.96-125.44-130.56-102.4-227.84C166.4 435.2 153.6 471.04 153.6 504.32v12.8c2.56 64 38.4 122.88 97.28 156.16 20.48 12.8 43.52 20.48 66.56 23.04 10.24 0 17.92 2.56 28.16 2.56 10.24 0 17.92 0 28.16-2.56 64-10.24 122.88-48.64 151.04-120.32-43.52 46.08-97.28 74.24-153.6 74.24z" fill="#ED1C24" p-id="5383"></path><path d="M314.88 376.32c10.24-2.56 17.92-2.56 28.16-2.56 10.24 0 17.92 0 28.16 2.56 71.68 15.36 128 87.04 104.96 176.64 35.84-38.4 53.76-153.6-40.96-209.92-20.48-12.8-43.52-17.92-64-17.92-10.24 0-17.92 0-28.16 2.56-10.24 2.56-17.92 5.12-28.16 10.24-43.52 20.48-76.8 61.44-84.48 89.6 25.6-28.16 56.32-46.08 84.48-51.2z" fill="#ED1C24" p-id="5384"></path><path d="M343.04 463.36l-28.16 7.68-28.16 10.24 28.16 81.92 28.16-7.68 28.16-10.24 28.16-7.68-28.16-84.48z" fill="#ED1C24" p-id="5385"></path><path d="M2291.2 389.12h104.96v25.6h-104.96zM793.6 409.6c25.6-2.56 46.08-5.12 61.44-10.24l-12.8-23.04c-15.36 5.12-40.96 7.68-74.24 10.24v76.8c0 25.6-2.56 48.64-10.24 66.56 0 2.56-2.56 5.12-2.56 10.24 0 2.56-2.56 5.12-2.56 7.68 0 2.56-2.56 2.56-2.56 5.12 2.56 0 2.56 2.56 2.56 2.56l2.56 2.56c2.56 0 2.56 2.56 2.56 2.56 2.56 2.56 7.68 7.68 10.24 12.8 15.36-25.6 25.6-61.44 25.6-107.52h17.92v107.52h25.6v-107.52h17.92v-25.6H793.6V409.6z" fill="#6D6E71" p-id="5386"></path><path d="M760.32 488.96V460.8s-12.8 2.56-15.36 5.12V435.2h15.36v-25.6h-15.36v-33.28h-25.6V409.6h-20.48v25.6h20.48v38.4c-7.68 0-20.48 5.12-20.48 5.12l2.56 30.72c5.12-2.56 12.8-2.56 17.92-5.12V537.6c0 7.68-2.56 10.24-7.68 10.24h-12.8s2.56 20.48 5.12 25.6h23.04c12.8 0 17.92-10.24 17.92-25.6v-53.76c2.56 0 15.36-5.12 15.36-5.12zM929.28 460.8l-38.4-30.72-17.92 20.48c15.36 10.24 25.6 23.04 38.4 33.28l17.92-23.04z" fill="#6D6E71" p-id="5387"></path><path d="M701.44 455.68s-23.04-17.92-33.28-25.6l-17.92 20.48c10.24 10.24 20.48 17.92 30.72 28.16l20.48-23.04zM929.28 409.6l5.12-5.12-5.12-5.12-30.72-23.04-17.92 17.92c12.8 10.24 25.6 20.48 35.84 30.72l12.8-15.36zM704 401.92c-2.56-2.56-23.04-17.92-33.28-25.6l-17.92 17.92c12.8 10.24 23.04 20.48 30.72 28.16l20.48-20.48zM2242.56 427.52c7.68-5.12 12.8-12.8 17.92-17.92 7.68-7.68 12.8-12.8 17.92-20.48-5.12-5.12-12.8-10.24-17.92-12.8-2.56 0-2.56-2.56-5.12-2.56-2.56 5.12-7.68 10.24-12.8 15.36-10.24 10.24-23.04 20.48-38.4 33.28 7.68 7.68 12.8 15.36 17.92 23.04 7.68-5.12 12.8-12.8 20.48-17.92zM878.08 568.32l28.16 7.68c7.68-30.72 15.36-56.32 20.48-76.8-10.24-2.56-17.92-5.12-28.16-10.24-5.12 23.04-12.8 48.64-20.48 79.36zM698.88 499.2c-7.68-2.56-15.36-7.68-25.6-10.24-5.12 28.16-12.8 53.76-20.48 79.36 7.68 2.56 17.92 5.12 25.6 7.68 7.68-23.04 12.8-48.64 20.48-76.8zM2283.52 445.44v25.6h61.44v58.88c0 10.24-5.12 15.36-15.36 15.36-7.68 0-20.48 0-33.28-2.56 2.56 10.24 5.12 20.48 7.68 28.16h40.96c10.24 0 15.36-2.56 20.48-10.24 5.12-5.12 7.68-15.36 7.68-25.6v-66.56H2406.4v-25.6h-122.88zM2183.68 512l-15.36-23.04h7.68v-107.52H2065.92v153.6c0 7.68-2.56 15.36-5.12 20.48l12.8 23.04c7.68-5.12 17.92-10.24 33.28-15.36 5.12-2.56 10.24-2.56 15.36-5.12 2.56 0 5.12 0 5.12-2.56v-12.8c5.12 7.68 12.8 12.8 20.48 17.92 7.68 5.12 15.36 7.68 25.6 12.8 5.12-7.68 10.24-17.92 15.36-25.6-15.36-2.56-28.16-10.24-38.4-17.92l33.28-17.92z m-94.72-104.96h56.32v15.36h-56.32v-15.36z m12.8 130.56c-5.12 2.56-7.68 2.56-12.8 5.12v-53.76h7.68c2.56 7.68 2.56 12.8 5.12 17.92 2.56 10.24 7.68 17.92 12.8 25.6-5.12 2.56-7.68 2.56-12.8 5.12z m0-74.24h-12.8v-15.36h56.32v15.36H2101.76z m30.72 48.64c-2.56-7.68-7.68-12.8-10.24-23.04h40.96c-7.68 5.12-15.36 10.24-20.48 15.36-2.56 2.56-5.12 5.12-10.24 7.68zM2032.64 378.88s-7.68-2.56-25.6-5.12c-5.12 23.04-12.8 46.08-25.6 66.56 2.56 10.24 5.12 20.48 7.68 33.28 2.56-5.12 5.12-7.68 7.68-12.8h7.68v20.48h-23.04v23.04h23.04V537.6c0 7.68-2.56 12.8-7.68 17.92l15.36 20.48c2.56-2.56 15.36-12.8 38.4-25.6 0-10.24-2.56-17.92-2.56-25.6-5.12 2.56-12.8 7.68-17.92 10.24v-30.72h23.04v-23.04h-23.04V460.8h15.36v-23.04h-38.4l7.68-15.36h38.4v-23.04h-28.16c2.56-7.68 5.12-12.8 7.68-20.48zM2257.92 427.52l-15.36 23.04c-12.8 15.36-25.6 28.16-38.4 38.4 5.12 10.24 7.68 20.48 10.24 28.16 7.68-5.12 12.8-12.8 20.48-17.92v74.24h28.16v-104.96c7.68-7.68 12.8-17.92 20.48-25.6l-20.48-12.8-5.12-2.56zM1925.12 506.88c15.36-30.72 25.6-58.88 35.84-84.48l-25.6-10.24c-10.24 28.16-20.48 53.76-33.28 76.8v-110.08h-28.16V537.6h-25.6v-161.28H1817.6V486.4c-10.24-25.6-20.48-48.64-30.72-76.8l-25.6 10.24c10.24 25.6 23.04 56.32 33.28 87.04l23.04-10.24V537.6h-58.88v28.16h202.24V537.6h-58.88v-40.96l23.04 10.24zM1505.28 524.8c5.12-7.68 7.68-17.92 12.8-25.6-20.48-5.12-35.84-15.36-48.64-25.6h48.64v-20.48h-104.96c2.56-2.56 2.56-7.68 5.12-10.24h84.48v-20.48h-76.8c0-2.56 2.56-7.68 2.56-10.24H1510.4v-20.48h-79.36c0-5.12 0-10.24 2.56-15.36h-28.16v15.36H1331.2v17.92h71.68c0 2.56-2.56 7.68-2.56 10.24h-61.44v20.48h53.76c-2.56 2.56-2.56 7.68-5.12 10.24h-64v20.48h46.08c-12.8 10.24-28.16 20.48-48.64 28.16 5.12 7.68 12.8 12.8 17.92 20.48 10.24-5.12 20.48-12.8 30.72-17.92l23.04 15.36c-20.48 5.12-38.4 10.24-58.88 15.36 5.12 7.68 7.68 15.36 10.24 23.04 28.16-7.68 51.2-15.36 66.56-20.48l-10.24-20.48c-2.56 0-5.12 2.56-7.68 2.56 5.12-7.68 10.24-12.8 12.8-17.92l-23.04-10.24 15.36-15.36h43.52c5.12 5.12 10.24 12.8 12.8 17.92-7.68 5.12-12.8 7.68-20.48 10.24l12.8 17.92-5.12-2.56-7.68 20.48v-58.88h-28.16v64c0 7.68-2.56 10.24-10.24 10.24h-23.04c2.56 7.68 5.12 15.36 5.12 23.04H1408c7.68 0 12.8-2.56 17.92-7.68 2.56-5.12 5.12-10.24 5.12-17.92V537.6c25.6 10.24 48.64 17.92 66.56 25.6l10.24-25.6c-17.92-7.68-38.4-12.8-61.44-20.48l25.6-12.8c12.8 7.68 23.04 15.36 33.28 20.48zM1267.2 535.04c-2.56 5.12-5.12 7.68-10.24 7.68s-7.68-2.56-12.8-10.24c-5.12-7.68-7.68-15.36-12.8-28.16h61.44v-25.6H1228.8c-2.56-7.68-2.56-15.36-2.56-23.04h58.88V384H1116.16v145.92c0 10.24-2.56 17.92-7.68 25.6l17.92 23.04c10.24-5.12 25.6-12.8 48.64-20.48 5.12-2.56 12.8-2.56 17.92-5.12v-30.72c-7.68 2.56-12.8 5.12-20.48 7.68-10.24 2.56-20.48 7.68-28.16 10.24v-35.84H1203.2c12.8 48.64 30.72 71.68 58.88 71.68 20.48 0 30.72-15.36 35.84-51.2-10.24-5.12-17.92-10.24-28.16-15.36 0 12.8 0 20.48-2.56 25.6z m-97.28-56.32h-28.16v-23.04h51.2c0 7.68 2.56 15.36 2.56 23.04h-25.6z m30.72-48.64h-56.32V409.6h112.64v20.48h-56.32zM1653.76 373.76h-33.28l2.56 17.92h-79.36v23.04h194.56v-23.04h-81.92zM1018.88 417.28h48.64v-28.16h-125.44v28.16h46.08v122.88H929.28v25.6h148.48v-25.6h-58.88zM1702.4 419.84h-33.28c-2.56 2.56-7.68 7.68-10.24 15.36H1625.6l-12.8-15.36h-33.28l12.8 15.36h-40.96v140.8h25.6v-79.36c5.12 7.68 7.68 10.24 7.68 10.24l12.8-10.24v58.88h25.6v-10.24h56.32v-51.2l15.36 10.24 7.68-7.68v35.84c0 12.8-5.12 17.92-17.92 17.92-7.68 0-15.36 0-23.04-2.56 2.56 7.68 2.56 15.36 5.12 25.6 20.48 0 35.84 0 43.52-2.56 7.68-2.56 12.8-5.12 15.36-10.24 2.56-5.12 5.12-12.8 5.12-23.04v-104.96h-43.52c5.12-2.56 10.24-7.68 15.36-12.8z m-46.08 102.4h-30.72v-15.36h30.72v15.36z m46.08-66.56v25.6c-12.8-7.68-25.6-15.36-40.96-23.04l-12.8 15.36 20.48 12.8h-53.76c5.12-5.12 10.24-7.68 15.36-12.8l-15.36-15.36c-12.8 7.68-25.6 17.92-38.4 28.16v-28.16h125.44z" fill="#6D6E71" p-id="5388"></path><path d="M1093.12 652.8l-10.24-40.96h-17.92v58.88h12.8v-46.08l10.24 46.08h10.24l12.8-46.08v46.08h10.24v-58.88h-17.92zM770.56 645.12h30.72v-10.24h-30.72v-12.8h33.28v-10.24h-43.52v58.88h43.52v-10.24h-33.28zM1185.28 650.24l-23.04-38.4H1152v58.88h10.24v-38.4l23.04 38.4h12.8v-58.88h-12.8zM1233.92 647.68h12.8v7.68c-2.56 0-5.12 2.56-7.68 2.56-2.56 0-5.12 2.56-7.68 2.56-5.12 0-7.68-2.56-12.8-5.12-2.56-2.56-5.12-7.68-5.12-15.36s2.56-10.24 5.12-15.36c2.56-2.56 7.68-5.12 12.8-5.12 2.56 0 5.12 0 7.68 2.56s2.56 2.56 5.12 7.68l12.8-2.56c0-5.12-2.56-10.24-7.68-12.8-5.12-2.56-10.24-5.12-15.36-5.12-5.12 0-10.24 0-12.8 2.56-5.12 2.56-7.68 5.12-10.24 10.24-2.56 5.12-2.56 10.24-2.56 15.36 0 5.12 0 10.24 2.56 15.36 2.56 5.12 5.12 7.68 10.24 10.24 5.12 2.56 10.24 2.56 15.36 2.56 5.12 0 10.24 0 15.36-2.56 5.12-2.56 7.68-2.56 10.24-7.68V640h-25.6v7.68zM1013.76 647.68h12.8v7.68c-2.56 0-5.12 2.56-7.68 2.56-2.56 0-5.12 2.56-7.68 2.56-5.12 0-7.68-2.56-12.8-5.12V640c0-7.68 2.56-10.24 5.12-15.36 2.56-2.56 7.68-5.12 12.8-5.12 2.56 0 5.12 0 7.68 2.56s2.56 2.56 5.12 7.68l12.8-2.56c0-5.12-2.56-10.24-7.68-12.8-2.56-2.56-10.24-5.12-15.36-5.12-5.12 0-10.24 0-12.8 2.56-5.12 2.56-7.68 5.12-10.24 10.24-2.56 5.12-2.56 10.24-2.56 15.36 0 5.12 0 10.24 2.56 15.36 2.56 5.12 5.12 7.68 10.24 10.24s10.24 2.56 15.36 2.56c5.12 0 10.24 0 15.36-2.56 5.12-2.56 7.68-2.56 10.24-7.68V640h-25.6v7.68zM1310.72 622.08v-10.24h-46.08v10.24h15.36v48.64h12.8v-48.64h15.36zM1131.52 611.84h12.8v56.32h-12.8zM855.04 611.84h12.8v56.32h-12.8zM832 650.24c0 5.12 0 7.68-2.56 10.24 0 2.56-2.56 2.56-5.12 2.56s-5.12 0-5.12-2.56c0 0-2.56-2.56-2.56-7.68h-10.24c0 7.68 2.56 10.24 5.12 12.8 2.56 2.56 7.68 5.12 12.8 5.12s7.68 0 12.8-2.56c2.56-2.56 5.12-5.12 5.12-7.68V614.4h-10.24v35.84zM737.28 634.88h-23.04v-23.04h-10.24v58.88h10.24v-25.6h23.04v25.6h12.8v-58.88h-12.8zM696.32 622.08v-10.24h-40.96v10.24h25.6l-30.72 38.4v10.24h48.64v-10.24H665.6zM898.56 611.84h-5.12l-23.04 56.32h12.8l5.12-12.8h23.04l5.12 12.8h12.8l-23.04-56.32h-7.68z m0 35.84h-7.68l7.68-20.48 7.68 20.48h-7.68zM965.12 650.24l-23.04-38.4h-10.24v58.88h10.24v-38.4l23.04 38.4h12.8v-58.88h-12.8zM2160.64 634.88l23.04-23.04h-17.92l-23.04 25.6v-25.6h-10.24v58.88h10.24v-17.92l10.24-10.24 15.36 28.16h15.36zM1909.76 611.84h-12.8v58.88h40.96v-10.24h-28.16zM1863.68 611.84h-5.12l-23.04 56.32h12.8l5.12-12.8h23.04l5.12 12.8h12.8l-23.04-56.32h-7.68z m0 35.84h-7.68l7.68-20.48 7.68 20.48h-7.68zM1820.16 611.84h12.8v56.32h-12.8zM1999.36 640c2.56 0 5.12-2.56 5.12-5.12 2.56-2.56 2.56-5.12 2.56-7.68 0-2.56 0-5.12-2.56-7.68 0-2.56-2.56-2.56-5.12-5.12-2.56 0-2.56-2.56-5.12-2.56h-33.28v56.32h33.28c2.56 0 5.12 0 7.68-2.56l5.12-5.12c0-2.56 2.56-5.12 2.56-7.68 0-2.56 0-5.12-2.56-7.68 0-2.56-2.56-5.12-7.68-5.12z m-25.6-17.92h17.92c2.56 0 2.56 0 5.12 2.56 0 0 2.56 2.56 2.56 5.12s0 2.56-2.56 5.12c-2.56 0-2.56 2.56-5.12 2.56H1976.32v-15.36z m23.04 35.84s-2.56 2.56-5.12 2.56h-17.92v-15.36h20.48l2.56 2.56s2.56 2.56 2.56 5.12 0 2.56-2.56 5.12zM1338.88 611.84H1331.2l-23.04 56.32h12.8l5.12-12.8h23.04l5.12 12.8h12.8l-23.04-56.32h-5.12z m0 35.84H1331.2l7.68-20.48 7.68 20.48h-7.68zM1789.44 622.08c2.56 0 5.12 0 7.68 2.56 2.56 2.56 2.56 5.12 5.12 7.68l12.8-2.56c0-5.12-2.56-7.68-5.12-10.24-5.12-5.12-10.24-5.12-17.92-5.12-7.68 0-15.36 2.56-20.48 7.68-5.12 5.12-7.68 12.8-7.68 23.04s2.56 15.36 7.68 20.48c5.12 5.12 10.24 7.68 17.92 7.68 5.12 0 10.24-2.56 15.36-5.12 2.56-2.56 7.68-7.68 7.68-12.8l-10.24-2.56c0 5.12-2.56 7.68-5.12 10.24-2.56 2.56-5.12 2.56-7.68 2.56-5.12 0-7.68-2.56-10.24-5.12-2.56-2.56-5.12-7.68-5.12-15.36s2.56-12.8 5.12-15.36c2.56-7.68 5.12-7.68 10.24-7.68zM2042.88 611.84h-7.68l-23.04 56.32h12.8l5.12-12.8h23.04l5.12 12.8h12.8l-23.04-56.32h-5.12z m0 35.84h-7.68l7.68-20.48 7.68 20.48h-7.68zM2109.44 650.24l-23.04-38.4h-10.24v58.88h10.24v-38.4l23.04 38.4h12.8v-58.88h-12.8zM1433.6 622.08c2.56 0 5.12 0 7.68 2.56 2.56 2.56 2.56 5.12 5.12 7.68l12.8-2.56c-2.56-5.12-2.56-7.68-5.12-10.24-5.12-5.12-10.24-5.12-17.92-5.12-7.68 0-15.36 2.56-20.48 7.68s-7.68 10.24-7.68 20.48 2.56 15.36 7.68 20.48c5.12 5.12 10.24 7.68 17.92 7.68 5.12 0 10.24-2.56 15.36-5.12 2.56-2.56 7.68-7.68 7.68-12.8l-10.24-2.56c0 5.12-2.56 7.68-5.12 10.24-2.56 2.56-5.12 2.56-7.68 2.56-5.12 0-7.68-2.56-10.24-5.12-2.56-2.56-2.56-7.68-2.56-15.36s2.56-12.8 5.12-15.36c0-5.12 5.12-5.12 7.68-5.12zM1372.16 611.84h12.8v56.32h-12.8zM1492.48 611.84c-5.12 0-7.68 0-12.8 2.56-2.56 0-5.12 2.56-7.68 5.12s-5.12 5.12-5.12 7.68c-2.56 2.56-2.56 7.68-2.56 15.36 0 10.24 2.56 15.36 7.68 20.48 5.12 5.12 12.8 7.68 20.48 7.68 7.68 0 15.36-2.56 20.48-7.68 5.12-5.12 7.68-12.8 7.68-23.04s-2.56-15.36-7.68-23.04c-5.12-2.56-12.8-5.12-20.48-5.12z m10.24 43.52c-2.56 2.56-7.68 5.12-10.24 5.12-5.12 0-7.68-2.56-10.24-5.12-2.56-2.56-5.12-7.68-5.12-15.36s2.56-12.8 5.12-15.36c2.56-2.56 7.68-5.12 10.24-5.12 5.12 0 7.68 2.56 10.24 5.12 2.56 2.56 5.12 7.68 5.12 15.36s-2.56 12.8-5.12 15.36zM1553.92 652.8l-10.24-40.96h-17.92v58.88h12.8v-46.08l10.24 46.08h10.24l12.8-46.08v46.08h10.24v-58.88h-17.92zM1669.12 645.12h28.16v-10.24h-28.16v-12.8h30.72v-10.24h-43.52v58.88h43.52v-10.24h-30.72zM1620.48 652.8l-10.24-40.96h-17.92v58.88h10.24v-46.08l10.24 46.08h12.8l10.24-46.08v46.08h10.24v-58.88h-15.36zM1745.92 650.24l-5.12-5.12c5.12 0 7.68-2.56 10.24-5.12 2.56-2.56 2.56-7.68 2.56-10.24 0-2.56 0-7.68-2.56-10.24-2.56-2.56-2.56-5.12-7.68-5.12-2.56 0-7.68-2.56-12.8-2.56h-23.04v56.32h12.8v-23.04H1728s2.56 0 2.56 2.56c0 0 2.56 2.56 5.12 7.68l7.68 12.8h12.8l-7.68-10.24c2.56-2.56 0-7.68-2.56-7.68z m-12.8-12.8h-10.24v-15.36h17.92c2.56 0 2.56 0 5.12 2.56 0 0 2.56 2.56 2.56 5.12v5.12l-2.56 2.56c-7.68-2.56-10.24 0-12.8 0z" fill="#6D6E71" p-id="5389"></path></svg>