<?xml version="1.0" standalone="no"?><!DOCTYPE svg PUBLIC "-//W3C//DTD SVG 1.1//EN" "http://www.w3.org/Graphics/SVG/1.1/DTD/svg11.dtd"><svg t="1531986223313" class="icon" style="" viewBox="0 0 2560 1024" version="1.1" xmlns="http://www.w3.org/2000/svg" p-id="6446" xmlns:xlink="http://www.w3.org/1999/xlink" width="500" height="200"><defs><style type="text/css"></style></defs><path d="M471.04 366.08c25.6 0 48.64 5.12 69.12 15.36 2.56 0 5.12 2.56 5.12 5.12v122.88c0 10.24-7.68 12.8-12.8 5.12L478.72 460.8c-2.56-2.56-2.56-2.56-7.68 0-46.08 46.08-92.16 89.6-138.24 133.12-2.56 2.56-10.24 2.56-12.8-2.56-7.68-20.48-12.8-40.96-12.8-64-5.12-89.6 71.68-161.28 163.84-161.28z m130.56-81.92c-20.48-48.64-74.24-79.36-133.12-79.36-81.92 0-148.48 64-148.48 143.36 0 7.68 0 17.92 2.56 25.6 2.56 10.24 5.12 10.24 12.8 5.12 35.84-33.28 84.48-53.76 135.68-53.76 15.36 0 33.28 2.56 48.64 5.12 7.68 2.56 7.68 2.56 12.8-2.56 20.48-12.8 40.96-23.04 64-30.72 5.12 0 7.68-5.12 5.12-12.8z m-322.56 43.52c-53.76 5.12-99.84 46.08-117.76 102.4-25.6 79.36 15.36 161.28 92.16 186.88 7.68 2.56 15.36 5.12 23.04 5.12 10.24 0 12.8-2.56 7.68-10.24-17.92-46.08-25.6-97.28-7.68-145.92 5.12-15.36 12.8-30.72 20.48-43.52 5.12-7.68 5.12-5.12 2.56-12.8-5.12-23.04-7.68-46.08-10.24-71.68 0-7.68-2.56-10.24-10.24-10.24zM220.16 647.68c-12.8 51.2 12.8 107.52 61.44 143.36 66.56 48.64 158.72 35.84 204.8-28.16 5.12-7.68 10.24-12.8 12.8-20.48 2.56-10.24 2.56-12.8-7.68-10.24-48.64 5.12-99.84-7.68-140.8-38.4-12.8-10.24-25.6-20.48-35.84-33.28-5.12-5.12-5.12-5.12-12.8-7.68-23.04-2.56-46.08-7.68-69.12-12.8-5.12-2.56-10.24 0-12.8 7.68z m286.72 153.6c46.08 28.16 107.52 20.48 153.6-12.8 66.56-48.64 81.92-140.8 35.84-204.8-5.12-7.68-10.24-12.8-15.36-17.92-7.68-5.12-10.24-5.12-12.8 2.56-10.24 48.64-35.84 92.16-79.36 122.88-12.8 10.24-28.16 17.92-43.52 23.04-7.68 2.56-7.68 2.56-10.24 10.24-7.68 20.48-20.48 40.96-33.28 64-2.56 5.12-2.56 10.24 5.12 12.8z m235.52-225.28c40.96-35.84 53.76-94.72 35.84-151.04-25.6-79.36-107.52-122.88-184.32-97.28-7.68 2.56-15.36 5.12-23.04 10.24s-10.24 7.68-2.56 12.8c40.96 25.6 76.8 64 92.16 112.64 5.12 15.36 7.68 30.72 10.24 48.64 0 7.68 0 7.68 5.12 12.8 17.92 15.36 33.28 33.28 48.64 51.2 7.68 5.12 12.8 7.68 17.92 0z" fill="#CA1A1D" p-id="6447"></path><path d="M465.92 693.76c-25.6 0-48.64-5.12-69.12-15.36-2.56 0-5.12-2.56-5.12-5.12v-122.88c0-10.24 7.68-12.8 12.8-5.12l53.76 53.76c2.56 2.56 2.56 2.56 7.68 0 46.08-43.52 92.16-89.6 138.24-133.12 2.56-2.56 10.24-2.56 12.8 2.56 7.68 20.48 12.8 40.96 12.8 64 2.56 89.6-74.24 161.28-163.84 161.28z" fill="#CA1A1D" p-id="6448"></path><path d="M949.76 716.8v-17.92s0-2.56-2.56-2.56c0 0-2.56 0-2.56-2.56h-5.12v-2.56h46.08c5.12 0 7.68 2.56 10.24 2.56 2.56 2.56 5.12 2.56 7.68 7.68 2.56 2.56 2.56 7.68 2.56 10.24s0 5.12-2.56 7.68c0 2.56-2.56 5.12-5.12 5.12-2.56 2.56-5.12 2.56-7.68 5.12-2.56 0-5.12 2.56-7.68 2.56 2.56 0 7.68 0 10.24 2.56 2.56 0 5.12 2.56 7.68 2.56l7.68 7.68c2.56 2.56 2.56 7.68 2.56 10.24 0 5.12 0 7.68-2.56 12.8-2.56 2.56-5.12 5.12-10.24 7.68-2.56 2.56-7.68 2.56-12.8 2.56H936.96v-2.56h5.12s2.56 0 2.56-2.56l2.56-2.56V716.8h2.56z m12.8 15.36h12.8c2.56 0 5.12 0 7.68-2.56s5.12-5.12 5.12-7.68v-10.24c0-5.12-2.56-10.24-5.12-12.8s-7.68-5.12-12.8-5.12h-10.24v38.4h2.56z m0 23.04v17.92c0 2.56 2.56 2.56 2.56 2.56l2.56 2.56h10.24c7.68 0 10.24-2.56 15.36-5.12 2.56-2.56 5.12-7.68 5.12-15.36 0-5.12 0-7.68-2.56-10.24l-7.68-7.68c-2.56-2.56-7.68-2.56-10.24-2.56h-15.36v17.92z m94.72-5.12s0 2.56-2.56 5.12c0 2.56-2.56 2.56-2.56 5.12s0 2.56-2.56 5.12v7.68l2.56 2.56h5.12v2.56h-30.72v-2.56h5.12c2.56 0 2.56 0 2.56-2.56l2.56-2.56s2.56-2.56 2.56-5.12c2.56-5.12 2.56-7.68 5.12-12.8s2.56-7.68 5.12-12.8l20.48-53.76h5.12l28.16 69.12s0 2.56 2.56 2.56c0 2.56 0 2.56 2.56 5.12 0 2.56 0 2.56 2.56 5.12 0 2.56 0 2.56 2.56 2.56 2.56 2.56 2.56 2.56 5.12 2.56h5.12v2.56h-40.96v-2.56h5.12s2.56 0 2.56-2.56V762.88c0-2.56 0-2.56-2.56-5.12l-5.12-12.8H1049.6l7.68 5.12z m33.28-7.68l-15.36-35.84-15.36 35.84h30.72z m69.12-40.96l-5.12-5.12c-2.56 0-5.12-2.56-7.68-2.56v-2.56h20.48l56.32 69.12V701.44c0-2.56 0-2.56-2.56-5.12l-2.56-2.56h-7.68v-2.56h30.72v2.56h-5.12s-2.56 0-2.56 2.56c0 0 0 2.56-2.56 2.56V783.36h-5.12l-5.12-5.12-5.12-5.12-53.76-64v66.56c0 2.56 0 2.56 2.56 2.56 0 0 2.56 0 2.56 2.56h5.12v2.56h-30.72v-2.56h5.12s2.56 0 2.56-2.56l2.56-2.56V701.44h7.68z m130.56 46.08v23.04c0 2.56 0 2.56 2.56 5.12 0 0 2.56 2.56 5.12 2.56h7.68v2.56h-40.96v-2.56h5.12s2.56 0 2.56-2.56l2.56-2.56v-74.24s0-2.56-2.56-2.56c0 0-2.56 0-2.56-2.56h-5.12v-2.56h40.96v2.56h-7.68c-2.56 0-2.56 0-5.12 2.56 0 0-2.56 2.56-2.56 5.12v40.96l5.12-5.12 7.68-7.68 7.68-7.68 7.68-7.68c2.56-2.56 2.56-5.12 5.12-7.68s2.56-5.12 2.56-5.12v-2.56s-2.56 0-2.56-2.56h-5.12v-5.12h30.72v2.56H1341.44l-2.56 2.56-2.56 2.56-20.48 25.6 17.92 20.48s2.56 2.56 2.56 5.12c2.56 2.56 2.56 5.12 5.12 7.68l7.68 7.68 5.12 5.12c2.56 0 2.56 2.56 2.56 2.56h5.12v2.56h-40.96v-2.56h7.68l2.56-2.56s0-2.56-2.56-2.56c0-2.56-2.56-2.56-2.56-5.12s-2.56-2.56-2.56-5.12-2.56-2.56-2.56-2.56l-15.36-20.48-15.36 12.8z m194.56 33.28c-7.68 0-12.8 0-17.92-2.56s-10.24-5.12-15.36-10.24-7.68-7.68-10.24-15.36c-2.56-5.12-5.12-12.8-5.12-17.92 0-7.68 2.56-12.8 5.12-17.92s5.12-10.24 10.24-15.36 10.24-7.68 15.36-10.24 12.8-2.56 17.92-2.56c7.68 0 12.8 0 17.92 2.56s10.24 5.12 15.36 10.24 7.68 7.68 10.24 15.36c2.56 5.12 5.12 12.8 5.12 17.92 0 7.68 0 12.8-2.56 17.92s-5.12 10.24-10.24 15.36-10.24 7.68-15.36 10.24c-7.68 2.56-12.8 2.56-20.48 2.56z m0-87.04c-5.12 0-10.24 2.56-15.36 5.12s-7.68 5.12-10.24 10.24-5.12 7.68-5.12 12.8-2.56 10.24-2.56 15.36 0 10.24 2.56 15.36c0 5.12 2.56 10.24 5.12 12.8 2.56 5.12 5.12 7.68 10.24 10.24s10.24 2.56 15.36 2.56 10.24-2.56 15.36-2.56c5.12-2.56 7.68-5.12 10.24-10.24s5.12-7.68 5.12-12.8 2.56-10.24 2.56-15.36 0-10.24-2.56-15.36c0-5.12-2.56-10.24-5.12-12.8-2.56-5.12-5.12-7.68-10.24-10.24-2.56-5.12-7.68-5.12-15.36-5.12z m143.36 17.92h-2.56v-5.12c0-2.56 0-2.56-2.56-5.12l-2.56-2.56-2.56-2.56c-2.56 0-5.12-2.56-10.24-2.56h-17.92v38.4h10.24c2.56 0 5.12-2.56 7.68-2.56 2.56-2.56 2.56-2.56 2.56-5.12V716.8h2.56v35.84h-2.56c0-2.56 0-5.12-2.56-7.68 0-2.56-2.56-2.56-5.12-5.12-2.56 0-5.12-2.56-7.68-2.56H1587.2v35.84c0 2.56 2.56 2.56 2.56 2.56h10.24v2.56h-40.96v-2.56h5.12s2.56 0 2.56-2.56l2.56-2.56v-71.68s0-2.56-2.56-2.56c0 0-2.56 0-2.56-2.56h-5.12v-2.56h66.56l2.56 20.48z m102.4-10.24l-5.12-5.12c-2.56 0-5.12-2.56-7.68-2.56v-2.56h20.48l56.32 69.12V701.44c0-2.56 0-2.56-2.56-5.12l-2.56-2.56H1781.76v-2.56h30.72v2.56h-5.12s-2.56 0-2.56 2.56c0 0 0 2.56-2.56 2.56V783.36h-5.12l-5.12-5.12-5.12-5.12-53.76-64v66.56c0 2.56 0 2.56 2.56 2.56 0 0 2.56 0 2.56 2.56h5.12v2.56h-30.72v-2.56h5.12s2.56 0 2.56-2.56l2.56-2.56V701.44h7.68z m120.32 48.64s0 2.56-2.56 5.12c0 2.56-2.56 2.56-2.56 5.12s0 2.56-2.56 5.12v7.68l2.56 2.56h5.12v2.56h-30.72v-2.56h5.12c2.56 0 2.56 0 2.56-2.56l2.56-2.56s2.56-2.56 2.56-5.12c2.56-5.12 2.56-7.68 5.12-12.8s2.56-7.68 5.12-12.8l20.48-53.76h5.12l28.16 69.12s0 2.56 2.56 2.56c0 2.56 0 2.56 2.56 5.12 0 2.56 0 2.56 2.56 5.12 0 2.56 0 2.56 2.56 2.56 2.56 2.56 2.56 2.56 5.12 2.56h5.12v2.56h-40.96v-2.56h5.12s2.56 0 2.56-2.56V762.88c0-2.56 0-2.56-2.56-5.12l-5.12-12.8H1843.2l7.68 5.12z m33.28-7.68l-15.36-35.84-12.8 35.84h28.16z m69.12-40.96l-5.12-5.12c-2.56 0-5.12-2.56-7.68-2.56v-2.56h20.48l56.32 69.12V701.44c0-2.56 0-2.56-2.56-5.12l-2.56-2.56h-7.68v-2.56h30.72v2.56h-5.12s-2.56 0-2.56 2.56c0 0 0 2.56-2.56 2.56V783.36h-5.12l-5.12-5.12-5.12-5.12-53.76-64v66.56c0 2.56 0 2.56 2.56 2.56 0 0 2.56 0 2.56 2.56h5.12v2.56h-30.72v-2.56h5.12s2.56 0 2.56-2.56l2.56-2.56V701.44h7.68z m130.56 84.48v10.24c0 2.56-2.56 5.12-2.56 10.24-2.56 5.12-5.12 7.68-10.24 7.68-5.12 2.56-7.68 2.56-12.8 2.56h-5.12c-2.56 0-5.12 0-7.68-2.56-2.56 0-5.12-2.56-5.12-2.56-2.56-2.56-2.56-2.56-2.56-5.12s0-2.56 2.56-2.56c0 0 2.56-2.56 5.12-2.56s2.56 0 5.12 2.56c0 0 2.56 2.56 2.56 5.12s2.56 5.12 2.56 5.12 2.56 2.56 5.12 2.56c5.12 0 7.68 0 10.24-2.56s2.56-5.12 5.12-7.68V706.56s0-2.56-2.56-2.56c0 0-2.56 0-2.56-2.56h-5.12v-10.24h40.96v2.56h-5.12s-2.56 0-2.56 2.56l-2.56 2.56v87.04H2083.84z m51.2-69.12v-17.92s0-2.56-2.56-2.56c0 0-2.56 0-2.56-2.56h-5.12v-2.56h40.96v2.56h-5.12s-2.56 0-2.56 2.56l-2.56 2.56V773.12s0 2.56 2.56 2.56c0 0 2.56 0 2.56 2.56h5.12v2.56h-40.96v-2.56h5.12s2.56 0 2.56-2.56l2.56-2.56v-56.32z m64-15.36l-5.12-5.12c-2.56 0-5.12-2.56-7.68-2.56v-2.56h20.48l56.32 69.12V701.44c0-2.56 0-2.56-2.56-5.12l-2.56-2.56h-7.68v-2.56h30.72v2.56h-5.12s-2.56 0-2.56 2.56c0 0 0 2.56-2.56 2.56V783.36h-5.12l-5.12-5.12-5.12-5.12-53.76-64v66.56c0 2.56 0 2.56 2.56 2.56 0 0 2.56 0 2.56 2.56h5.12v2.56h-30.72v-2.56h5.12s2.56 0 2.56-2.56l2.56-2.56V701.44h7.68z m186.88 17.92h-2.56c0-2.56 0-7.68-2.56-10.24s-2.56-5.12-5.12-7.68-5.12-5.12-7.68-5.12c-2.56-2.56-7.68-2.56-10.24-2.56-7.68 0-12.8 2.56-15.36 5.12-5.12 2.56-7.68 5.12-10.24 10.24s-5.12 10.24-5.12 15.36v15.36c0 5.12 0 10.24 2.56 15.36 0 5.12 2.56 10.24 5.12 12.8s5.12 7.68 10.24 10.24 7.68 2.56 15.36 2.56 12.8-2.56 15.36-5.12c5.12-2.56 5.12-7.68 5.12-15.36v-5.12c0-2.56 0-2.56-2.56-2.56l-2.56-2.56h-5.12V742.4h35.84v2.56h-5.12s-2.56 0-2.56 2.56v23.04h-10.24s-2.56 0-2.56 2.56c-2.56 0-2.56 2.56-5.12 2.56-2.56 2.56-7.68 2.56-10.24 5.12h-10.24c-7.68 0-12.8 0-17.92-2.56l-15.36-7.68c-5.12-2.56-7.68-7.68-10.24-12.8s-2.56-10.24-2.56-17.92 0-12.8 2.56-17.92 5.12-10.24 10.24-15.36 10.24-7.68 15.36-10.24 12.8-2.56 17.92-2.56 10.24 0 15.36 2.56 10.24 2.56 12.8 7.68l2.56-5.12h2.56l-7.68 20.48z" fill="#231815" p-id="6449"></path><path d="M2309.12 634.88c-15.36-12.8-56.32-33.28-56.32-58.88 25.6 0 38.4 5.12 48.64-17.92 0-38.4 5.12-79.36-2.56-115.2-15.36-15.36-43.52 2.56-58.88 10.24-23.04 0-28.16-23.04-48.64-28.16-12.8 12.8-17.92 23.04-28.16 40.96-2.56 25.6-2.56 117.76-5.12 130.56L2150.4 604.16c-7.68-2.56-15.36-2.56-23.04-2.56-12.8-28.16-7.68-99.84-7.68-107.52v-10.24c-2.56 0-2.56 5.12-7.68 7.68-5.12 5.12-20.48 15.36-30.72 7.68 0-28.16 46.08-56.32 58.88-79.36 12.8-10.24 12.8-10.24 25.6-30.72h12.8c17.92 17.92 28.16 20.48 53.76 20.48 25.6-7.68 48.64-15.36 74.24-20.48 20.48-2.56 81.92-25.6 102.4-5.12 5.12 46.08-23.04 23.04-56.32 43.52-2.56 56.32-2.56 110.08-2.56 166.4-10.24 20.48-15.36 38.4-40.96 40.96zM1559.04 596.48c-7.68-2.56-15.36-7.68-20.48-10.24-10.24-23.04-46.08-40.96-40.96-74.24 17.92-5.12 40.96-2.56 53.76 2.56s15.36 7.68 20.48 15.36c5.12 5.12 10.24 12.8 10.24 20.48 2.56 12.8 5.12 25.6 0 35.84-7.68 10.24-12.8 7.68-23.04 10.24z" fill="#040000" p-id="6450"></path><path d="M1374.72 384c33.28-5.12 66.56-12.8 99.84-17.92 35.84-15.36 84.48-10.24 120.32-28.16 5.12-46.08-43.52-28.16-71.68-23.04H1479.68c-5.12-15.36-10.24-30.72-15.36-43.52-10.24-5.12-10.24-5.12-25.6-17.92-38.4 0-25.6 17.92-12.8 46.08v23.04c-20.48 23.04-79.36 23.04-104.96 25.6-15.36 5.12-15.36 5.12-46.08 10.24-5.12 40.96 43.52 33.28 69.12 38.4 0 15.36 0 33.28 2.56 48.64 12.8 20.48 23.04 40.96 33.28 64h10.24c30.72-12.8 38.4-2.56 40.96 28.16-2.56 25.6-2.56 56.32-38.4 40.96-2.56-5.12-5.12-7.68-7.68-10.24 0-20.48 2.56-35.84-5.12-53.76-33.28 5.12-35.84 17.92-48.64 48.64 0 58.88 23.04 46.08 61.44 40.96l30.72 15.36c2.56 7.68 10.24 12.8 17.92 17.92 2.56 0 7.68-2.56 10.24-5.12 30.72-23.04 20.48-97.28 20.48-130.56 12.8-10.24 28.16-17.92 40.96-25.6 7.68-17.92 33.28-53.76 33.28-74.24-23.04-35.84-61.44-25.6-94.72-10.24-23.04 2.56-23.04 2.56-43.52 7.68-12.8-2.56-33.28 0-46.08 0 0-2.56-5.12-7.68-2.56-10.24l15.36-5.12z m28.16 56.32c15.36-15.36 94.72-38.4 69.12 12.8-20.48 15.36-30.72 17.92-56.32 17.92-15.36-7.68-12.8-15.36-12.8-30.72zM1159.68 386.56c-17.92 10.24-43.52 5.12-64 5.12 0-5.12-2.56-7.68-2.56-10.24 5.12-12.8 5.12-12.8 12.8-17.92 25.6-5.12 51.2-7.68 71.68-20.48 7.68-51.2-46.08-28.16-71.68-38.4-5.12-15.36-40.96-81.92-64-40.96 0 20.48-5.12 43.52-10.24 64-28.16 7.68-64-2.56-87.04 17.92 0 38.4 46.08 38.4 71.68 40.96l2.56 2.56c0 12.8 0 12.8-2.56 15.36-20.48 5.12-43.52 10.24-64 15.36-15.36 2.56-30.72-2.56-40.96 7.68 10.24 53.76 12.8 110.08 15.36 166.4l12.8 12.8h15.36c2.56-2.56 5.12-7.68 7.68-10.24V455.68l15.36-7.68c23.04 0 25.6 0 33.28 20.48-7.68 7.68-15.36 12.8-15.36 25.6 5.12 2.56 12.8 5.12 17.92 7.68-2.56 5.12-2.56 12.8-7.68 17.92-30.72 7.68-35.84 20.48-15.36 40.96h20.48c7.68-10.24 10.24-10.24 20.48-12.8 5.12 2.56 7.68 7.68 10.24 10.24-2.56 28.16-2.56 58.88 17.92 79.36 5.12-2.56 10.24-7.68 20.48-7.68 2.56-10.24 7.68-20.48 12.8-30.72v-43.52c10.24-15.36 61.44-20.48 35.84-53.76-5.12 0-12.8-2.56-17.92-2.56 2.56-12.8 10.24-15.36 20.48-25.6 0-10.24-5.12-20.48-5.12-33.28 15.36-7.68 23.04-5.12 35.84 2.56 2.56 28.16 7.68 99.84-12.8 120.32-10.24 2.56-28.16 0-35.84 7.68 0 20.48 12.8 30.72 28.16 46.08 20.48 12.8 35.84 17.92 53.76 0l7.68-23.04c5.12-58.88 12.8-117.76 15.36-176.64-12.8-30.72-25.6-30.72-58.88-30.72z m-107.52 76.8c0-5.12-2.56-12.8-2.56-17.92 2.56-2.56 5.12-2.56 10.24-5.12 5.12 5.12 5.12 10.24 5.12 17.92-5.12 2.56-7.68 5.12-12.8 5.12zM2094.08 384c0-12.8-2.56-15.36 2.56-25.6 25.6-28.16 43.52-53.76 58.88-87.04h15.36c51.2 35.84 30.72 40.96-12.8 79.36-17.92 12.8-38.4 25.6-64 33.28zM2040.32 535.04c-35.84-15.36-81.92-23.04-110.08-51.2 0-17.92 30.72-25.6 46.08-28.16v-23.04c-12.8-2.56-25.6-10.24-38.4-12.8 2.56-43.52 28.16-87.04 28.16-130.56-25.6-43.52-58.88-12.8-89.6 0-17.92 0-35.84 2.56-53.76 2.56 0 15.36 7.68 43.52 2.56 53.76-7.68 0-12.8-7.68-17.92-7.68-40.96-61.44-40.96-61.44-46.08-64h-12.8c-2.56 2.56-5.12 7.68-7.68 10.24-12.8 53.76-56.32 89.6-89.6 128v15.36c5.12 2.56 10.24 7.68 15.36 10.24 28.16 0 30.72-12.8 58.88 7.68 2.56 35.84-58.88 5.12-40.96 53.76 17.92 0 25.6 2.56 40.96 10.24 0 20.48-7.68 30.72-20.48 46.08-5.12 25.6 2.56 33.28 20.48 51.2h12.8c23.04-23.04 35.84-58.88 61.44-84.48h15.36c5.12 35.84-17.92 74.24 12.8 104.96 5.12 0 12.8-2.56 17.92-7.68 25.6-23.04 48.64-51.2 74.24-79.36 20.48 0 33.28 12.8 51.2 23.04 23.04 0 53.76 0 71.68-12.8 0-10.24 0-10.24-2.56-15.36z m-220.16-40.96c-7.68 0-15.36 2.56-23.04 2.56-20.48 12.8-20.48 12.8-33.28 17.92-2.56 0-2.56-2.56-5.12-2.56 0-28.16 40.96-33.28 28.16-58.88-7.68-2.56-15.36-5.12-20.48-10.24V430.08c7.68-5.12 15.36-12.8 25.6-17.92 10.24-38.4-38.4-10.24-56.32-12.8v-10.24c15.36-17.92 46.08-58.88 61.44-17.92 7.68 2.56 17.92 7.68 25.6 12.8 10.24 28.16 0 79.36-2.56 110.08z m40.96-168.96c17.92-2.56 17.92-2.56 38.4 0 7.68 12.8 7.68 15.36-2.56 28.16-7.68 0-17.92 2.56-25.6 2.56-12.8-12.8-17.92-12.8-10.24-30.72z m30.72 71.68c-5.12 2.56-12.8 5.12-17.92 7.68-7.68-5.12-12.8-10.24-15.36-15.36 2.56-2.56 2.56-5.12 5.12-5.12 17.92 0 28.16-5.12 28.16 12.8z m-15.36 145.92c-5.12 0-10.24 0-15.36 2.56-5.12-15.36-5.12-23.04 0-40.96 25.6 0 38.4 23.04 15.36 38.4z m38.4-104.96c-12.8 15.36-17.92 23.04-38.4 25.6-7.68-7.68-5.12-10.24-7.68-20.48 7.68-7.68 33.28-20.48 46.08-17.92v12.8zM2250.24 343.04c-12.8-10.24-20.48-12.8-20.48-28.16 2.56-2.56 2.56-5.12 5.12-5.12 35.84-12.8 143.36-74.24 133.12 5.12-20.48 15.36-69.12 20.48-94.72 28.16-5.12-2.56-15.36-2.56-23.04 0z" fill="#040000" p-id="6451"></path></svg>