<?xml version="1.0" standalone="no"?><!DOCTYPE svg PUBLIC "-//W3C//DTD SVG 1.1//EN" "http://www.w3.org/Graphics/SVG/1.1/DTD/svg11.dtd"><svg t="1531986162406" class="icon" style="" viewBox="0 0 2560 1024" version="1.1" xmlns="http://www.w3.org/2000/svg" p-id="3980" xmlns:xlink="http://www.w3.org/1999/xlink" width="500" height="200"><defs><style type="text/css"></style></defs><path d="M156.16 399.36l148.48-145.92h204.8l153.6 143.36V588.8s-51.2 25.6-97.28 12.8c-48.64-12.8-69.12-33.28-69.12-33.28v-171.52h-174.08v204.8s84.48-40.96 135.68-20.48c53.76 20.48 110.08 66.56 171.52 51.2 64-15.36 64-40.96 64-40.96v143.36s-61.44 35.84-122.88 30.72c-61.44-5.12-81.92-33.28-128-43.52-46.08-10.24-58.88-7.68-87.04 0s-61.44 25.6-61.44 25.6L153.6 609.28l2.56-209.92z" fill="#D9353A" p-id="3981"></path><path d="M1722.88 762.88c-28.16-12.8-58.88-12.8-74.24-20.48-40.96-35.84-30.72-66.56-10.24-97.28 28.16-12.8 53.76-25.6 92.16 0 10.24 20.48 17.92 46.08 10.24 71.68-10.24 15.36-17.92 20.48-20.48 28.16 20.48 7.68 20.48 7.68 40.96 10.24v5.12c-12.8 0-25.6 2.56-38.4 2.56z m-814.08-12.8c2.56-10.24 5.12-20.48 5.12-28.16 0-25.6 2.56-71.68-5.12-84.48h-7.68v-2.56h61.44c15.36 7.68 20.48 28.16 2.56 46.08 12.8 10.24 38.4 25.6 17.92 56.32-15.36 15.36-58.88 12.8-74.24 12.8z m97.28 0h25.6c-7.68-17.92-5.12-28.16-5.12-38.4 28.16 0 43.52-2.56 58.88 38.4H1126.4v-5.12c-2.56 0-5.12-2.56-10.24-2.56-2.56-12.8-2.56-12.8-2.56-66.56 17.92 7.68 56.32 51.2 81.92 74.24 0 0 2.56-2.56 5.12-2.56 2.56-35.84 5.12-71.68 5.12-107.52h7.68v-2.56h-33.28c0 2.56 0 2.56 7.68 5.12 0 23.04 2.56 46.08 2.56 69.12-28.16-12.8-69.12-76.8-87.04-76.8 0 30.72-2.56 61.44-2.56 92.16h-5.12c-23.04-30.72-46.08-61.44-69.12-89.6h-12.8c0 35.84-2.56 71.68-2.56 110.08h-5.12v2.56z m227.84 0c0-2.56-2.56-2.56-2.56-5.12 12.8-7.68 5.12-97.28 5.12-104.96-7.68-2.56-7.68-2.56-7.68-5.12h43.52c0 2.56-5.12 5.12-10.24 10.24v35.84c12.8-12.8 33.28-30.72 38.4-43.52 10.24 0 23.04-2.56 33.28-2.56v2.56c-20.48 0-38.4 25.6-51.2 38.4 10.24 23.04 30.72 46.08 61.44 69.12-12.8 0-23.04-2.56-35.84-2.56-12.8-15.36-28.16-30.72-40.96-46.08h-7.68c0 15.36-5.12 33.28 7.68 51.2-12.8 0-23.04 2.56-33.28 2.56z m179.2 0c-66.56-33.28-53.76-97.28 0-117.76 53.76 0 76.8 2.56 76.8 74.24-17.92 38.4-38.4 40.96-76.8 43.52z m92.16 0c10.24-40.96 5.12-69.12 5.12-104.96-2.56-2.56-5.12-5.12-7.68-10.24 25.6 0 51.2 0 76.8 2.56 0 5.12-2.56 10.24-2.56 15.36-2.56-2.56-5.12-7.68-5.12-7.68h-33.28v38.4h40.96v17.92c-17.92-12.8-25.6-7.68-40.96-7.68 0 5.12-5.12 43.52 5.12 56.32-15.36-2.56-28.16 0-38.4 0z m256 0c12.8 0 23.04-2.56 35.84-2.56L1792 742.4v-102.4c7.68-2.56 7.68-2.56 7.68-5.12h-43.52c0 2.56 0 2.56 5.12 2.56 5.12 17.92 7.68 71.68 2.56 102.4-2.56 0-5.12 2.56-5.12 5.12s0 2.56 2.56 5.12z m48.64 0v-5.12h5.12c0-38.4 2.56-74.24 5.12-110.08 25.6 0 51.2 58.88 87.04 76.8v-66.56c-5.12-5.12-10.24-5.12-10.24-7.68h35.84c0 2.56 0 2.56-10.24 7.68-2.56 33.28-2.56 69.12-5.12 102.4-2.56 0-5.12 2.56-5.12 2.56-64-64-64-64-79.36-76.8 0 23.04 0 46.08 2.56 69.12 2.56 0 5.12 2.56 5.12 2.56v5.12h-30.72z m174.08 0c-51.2-23.04-48.64-33.28-48.64-74.24 17.92-43.52 53.76-56.32 104.96-38.4 5.12 5.12 0 17.92 0 25.6-5.12-17.92-15.36-17.92-25.6-23.04-53.76 0-58.88 12.8-58.88 58.88 12.8 28.16 20.48 35.84 64 38.4v-48.64h-7.68v-2.56h43.52c0 2.56 0 2.56-10.24 5.12 0 15.36-2.56 33.28-2.56 48.64-23.04 7.68-40.96 10.24-58.88 10.24z m81.92 0c0-2.56-2.56-2.56-2.56-5.12 17.92-15.36 7.68-99.84 5.12-107.52-5.12 0-5.12 0-5.12-2.56 56.32 0 117.76-15.36 117.76 66.56-12.8 53.76-81.92 48.64-115.2 48.64z m94.72 0h23.04c0-20.48 10.24-25.6 20.48-38.4h33.28c0 2.56 2.56 30.72-7.68 33.28v5.12c12.8 0 23.04-2.56 35.84-2.56-17.92-25.6-7.68-89.6-7.68-112.64h-7.68c-28.16 33.28-61.44 87.04-94.72 112.64 2.56 0 5.12 0 5.12 2.56z m156.16 0c-46.08-25.6-38.4-33.28-40.96-69.12 12.8-61.44 97.28-71.68 122.88-5.12 0 40.96-10.24 51.2-43.52 71.68-12.8 0-25.6 2.56-38.4 2.56zM944.64 742.4c17.92-2.56 17.92-2.56 25.6-7.68 0-7.68 2.56-12.8 2.56-17.92-17.92-30.72-17.92-25.6-38.4-25.6 2.56 7.68-7.68 43.52 10.24 51.2z m481.28 0c48.64-5.12 43.52-25.6 43.52-71.68-23.04-38.4-38.4-38.4-66.56-17.92-15.36 30.72-12.8 61.44 23.04 89.6z m250.88 0c7.68 0 15.36-2.56 25.6-2.56 20.48-20.48 17.92-38.4 17.92-58.88-20.48-43.52-20.48-38.4-56.32-38.4-28.16 20.48-28.16 74.24 12.8 99.84z m424.96 0c33.28-5.12 33.28-5.12 43.52-10.24 15.36-23.04 10.24-38.4 10.24-56.32-15.36-33.28-38.4-35.84-64-33.28v92.16c5.12 2.56 7.68 5.12 10.24 7.68z m227.84 0c28.16-5.12 43.52-2.56 48.64-38.4-5.12-51.2-28.16-74.24-71.68-53.76-12.8 33.28-17.92 61.44 23.04 92.16z m-1303.04-40.96c0-10.24-2.56-20.48-2.56-33.28 10.24 5.12 17.92 15.36 25.6 33.28h-23.04z m1187.84 0c0-15.36 12.8-23.04 20.48-33.28h5.12c0 10.24-2.56 20.48-2.56 30.72-7.68 0-15.36 2.56-23.04 2.56z m-1274.88-17.92c12.8-2.56 12.8-2.56 20.48-7.68 5.12-33.28-5.12-33.28-23.04-33.28 0 12.8 2.56 25.6 2.56 40.96z m0-104.96c-2.56 0-5.12-2.56-5.12-2.56v-158.72c10.24-10.24 189.44-5.12 225.28-5.12 2.56 0 5.12 2.56 7.68 5.12v128c-15.36 35.84-51.2 30.72-79.36 30.72v-35.84c10.24-2.56 20.48-2.56 33.28-5.12 0-5.12 2.56-7.68 2.56-12.8h-145.92c0 15.36-2.56 33.28-2.56 51.2-10.24 2.56-23.04 5.12-35.84 5.12z m591.36 0c0-12.8-2.56-28.16-2.56-40.96 5.12 0 12.8-2.56 17.92-2.56 12.8-20.48 7.68-61.44 7.68-79.36-69.12-2.56-138.24-2.56-207.36-5.12-5.12-2.56-7.68-5.12-12.8-5.12 0-38.4-5.12-148.48 2.56-166.4 20.48 0 40.96-2.56 61.44-2.56 2.56-7.68 5.12-15.36 5.12-23.04 12.8 0 25.6 2.56 38.4 2.56 5.12 2.56 5.12 10.24 7.68 20.48 30.72 0 58.88 0 89.6 2.56 5.12 5.12 2.56 71.68 2.56 92.16-12.8 35.84-46.08 33.28-74.24 33.28v-35.84c25.6-5.12 25.6-5.12 28.16-10.24v-40.96c-40.96 0-84.48 0-122.88 2.56v92.16c71.68 0 145.92 2.56 217.6 2.56V537.6c2.56 38.4-30.72 38.4-58.88 40.96z m440.32 0c-61.44-35.84-74.24-89.6-89.6-143.36H1868.8v81.92c33.28-7.68 33.28-12.8 33.28 28.16-20.48 15.36-53.76 25.6-76.8 28.16-17.92-43.52-12.8-25.6 2.56-51.2 0-81.92 2.56-161.28 2.56-243.2 0-2.56 2.56-2.56 2.56-5.12h148.48c0 51.2 0 99.84 2.56 151.04-23.04 10.24-35.84 10.24-56.32 10.24 2.56 12.8 5.12 23.04 7.68 35.84 10.24-5.12 33.28-30.72 46.08-30.72 10.24 10.24 17.92 12.8 15.36 35.84-12.8 0-28.16 20.48-38.4 30.72 12.8 15.36 25.6 28.16 53.76 46.08 0 15.36-33.28 23.04-40.96 25.6z m174.08 0l-7.68-7.68v-122.88c-12.8 7.68-28.16 12.8-40.96 12.8-10.24-10.24-15.36-25.6-12.8-33.28 66.56-48.64 66.56-48.64 104.96-81.92 5.12 0 17.92 23.04 17.92 43.52-10.24 7.68-17.92 15.36-25.6 23.04 0 53.76-2.56 107.52-2.56 161.28-7.68 2.56-7.68 2.56-33.28 5.12z m-419.84-2.56c25.6-7.68 58.88-25.6 87.04-40.96 0-12.8 0-28.16 2.56-40.96-10.24 0-10.24 0-38.4 12.8v-40.96c28.16-5.12 28.16-5.12 33.28-7.68v-30.72c-10.24 0-20.48-2.56-33.28-2.56v-25.6c25.6-2.56 25.6-2.56 33.28-5.12 0-10.24 0-20.48 2.56-30.72-25.6 0-51.2-2.56-74.24-2.56-2.56-2.56-2.56-2.56 10.24-23.04 20.48-2.56 43.52-5.12 66.56-5.12v-30.72c-15.36-2.56-33.28-2.56-48.64-5.12v-20.48c-17.92-12.8-28.16-12.8-38.4-10.24-12.8 38.4-25.6 69.12-53.76 99.84v10.24c12.8 10.24 17.92 12.8 46.08 12.8 0 2.56 0 7.68 2.56 12.8h15.36v25.6h-40.96c-7.68 2.56-7.68 2.56-7.68 33.28 48.64 2.56 43.52-10.24 43.52 58.88-7.68 5.12-15.36 10.24-20.48 15.36-2.56 10.24 5.12 20.48 12.8 40.96z m532.48 0v-43.52c2.56 0 38.4 2.56 46.08-5.12 0-38.4 0-76.8 2.56-115.2-28.16 0-56.32-2.56-87.04-2.56 0-12.8 2.56-23.04 2.56-33.28h181.76v28.16c-23.04 10.24-38.4 7.68-56.32 10.24v133.12c-15.36 40.96-56.32 28.16-89.6 28.16z m-947.2-2.56c12.8 0 25.6-2.56 38.4-2.56 0-5.12 0-7.68 2.56-12.8 7.68 0 156.16 0 163.84-7.68v-84.48h-38.4c0 17.92-2.56 33.28-2.56 51.2h-38.4V460.8c-12.8 0-25.6-2.56-38.4-2.56-2.56 5.12-2.56 5.12-5.12 58.88H1356.8c-2.56-17.92-2.56-35.84-5.12-51.2h-40.96c-2.56 35.84-2.56 71.68 0 107.52z m-332.8-74.24c48.64 0 97.28-2.56 145.92-2.56 0-5.12 0-7.68 2.56-12.8-51.2 0-99.84 0-148.48 2.56v12.8z m5.12-40.96c46.08 0 94.72-2.56 140.8-2.56 0-5.12 0-7.68 2.56-10.24h-148.48c0 5.12 0 7.68 5.12 12.8z m-92.16-53.76c0-10.24-2.56-20.48-2.56-33.28 46.08 0 89.6-2.56 135.68-2.56V358.4c-33.28 0-66.56-2.56-99.84-2.56v-28.16H1024v-12.8h-128c-5.12-15.36-2.56-20.48 0-30.72 40.96 0 84.48-2.56 125.44-2.56 0-5.12 0-10.24 2.56-15.36 15.36 0 30.72-2.56 46.08-2.56v15.36c43.52 0 87.04 2.56 130.56 2.56 0 2.56-2.56 25.6-7.68 30.72-40.96 0-81.92 2.56-122.88 5.12v7.68c33.28 0 69.12 2.56 102.4 2.56 0 5.12-2.56 23.04-7.68 28.16-33.28 0-64 2.56-97.28 5.12v7.68c46.08 0 94.72 2.56 140.8 2.56-2.56 23.04-2.56 23.04-5.12 28.16-97.28 2.56-204.8 5.12-312.32 5.12z m977.92-5.12h74.24v-25.6H1868.8v25.6z m-437.76-2.56c12.8-5.12 15.36-7.68 30.72-20.48-5.12-30.72-15.36-33.28-25.6-48.64-20.48 0-23.04 5.12-35.84 12.8 0 17.92 17.92 30.72 30.72 56.32z m668.16-23.04c30.72-12.8 66.56-40.96 94.72-61.44-10.24-79.36-38.4-28.16-76.8 5.12-12.8 7.68-23.04 12.8-33.28 20.48 0 7.68 2.56 17.92 15.36 35.84z m-225.28-33.28c23.04 0 46.08-2.56 69.12-2.56 0-7.68 0-17.92 2.56-25.6h-74.24c0 7.68 0 17.92 2.56 28.16z m360.96-17.92c-2.56 0-5.12-2.56-7.68-2.56 0-12.8 0-23.04 2.56-35.84 53.76 0 107.52-2.56 161.28-2.56 0 7.68 0 25.6-10.24 35.84-48.64 2.56-97.28 2.56-145.92 5.12z" fill="#231815" p-id="3982"></path></svg>