<?xml version="1.0" standalone="no"?><!DOCTYPE svg PUBLIC "-//W3C//DTD SVG 1.1//EN" "http://www.w3.org/Graphics/SVG/1.1/DTD/svg11.dtd"><svg t="1531986238375" class="icon" style="" viewBox="0 0 2560 1024" version="1.1" xmlns="http://www.w3.org/2000/svg" p-id="7156" xmlns:xlink="http://www.w3.org/1999/xlink" width="500" height="200"><defs><style type="text/css"></style></defs><path d="M2278.4 288.256c6.144 1.024 12.288 1.536 18.432 2.56-1.536 1.536-3.584 6.656-5.12 8.192-11.776 35.84-39.424 43.52-62.464 67.072-1.536-1.024-3.584-1.536-5.12-2.56v-26.112c23.04-12.8 35.84-32.256 54.272-49.152z m-239.616 130.048c-12.8 1.024-26.112 1.536-38.912 2.56 1.024 25.088 1.536 50.176 2.56 75.264 1.536-1.024 3.584-1.536 5.12-2.56 0-16.896-2.56-49.152 5.12-65.024h20.992c1.024 2.56 1.536 5.12 2.56 7.68-4.608 20.48 4.608 69.632-10.24 80.896-18.432 10.752-65.024 19.456-88.576 12.8-1.024-27.136-7.168-84.48 5.12-101.376 6.656 2.048 13.824 4.096 18.432 7.68v65.024l2.56 2.56c1.536-1.024 3.584-1.536 5.12-2.56v-5.12-70.144c-1.536-2.56-3.584-5.12-5.12-7.68h-28.672c-3.072-10.752-1.536-17.408 2.56-26.112 21.504 1.024 26.112 3.584 33.792-7.68-3.584-5.12-2.56-4.096-7.68-7.68-7.68-1.536-15.36-3.584-23.552-5.12-2.56-4.096-5.12-8.704-7.68-12.8 0-13.824 1.536-20.992 5.12-28.672 14.848-7.68 20.992-21.504 28.672-36.352h38.912c8.192 20.48 23.552 31.232 36.352 46.592-2.048 6.144-3.584 11.776-5.12 17.92-1.536 6.144-2.56 12.288-5.12 18.432h-31.744v10.24c1.024 1.536 1.536 3.584 2.56 5.12 12.288 1.024 24.064 1.536 36.352 2.56 0.512 7.68 0.512 15.36 0.512 23.552z m-905.728-122.368c-0.512 16.384-2.048 29.696 2.56 38.912 11.264 0.512 8.192-4.096 14.336-0.512-1.536 7.68 3.584 22.016 1.536 29.696-6.144 1.536-15.36 3.072-21.504 4.608 1.024 25.088 1.536 50.176 2.56 75.264h2.56c6.144-5.12 12.288-10.24 18.432-15.872v2.56c-1.024 11.264-1.536 22.528-2.56 33.792-19.968 23.04-39.424 44.032-67.584 59.904-1.024-8.704-1.536-17.408-2.56-26.112 8.192-9.728 11.264-12.8 18.432-21.504 4.096-5.12 1.536-13.824 1.536-24.064 0-16.384 0.512-36.352 0-48.64-0.512-13.824 1.536-28.16-2.048-40.96-5.12-1.024-10.24-1.536-15.872-2.56 1.024-8.704 1.536-17.408 2.56-26.112 5.12-1.024 10.24-1.536 15.36-2.56 1.024-12.288 1.536-24.064 2.56-36.352 9.728 0.512 20.992 0.512 29.696 0.512z m44.544 1.024c7.68 1.536 20.48-2.048 28.672-0.512 2.048 93.696 11.776 189.952-47.104 236.032h-2.56c0-11.776-5.632-28.16-2.048-35.84 8.192-16.384 17.92-28.16 22.528-52.736 2.048-49.152-1.024-97.28 0.512-146.944z m1144.832-1.024c40.96 1.024 81.408 1.536 122.368 2.56 0.512 12.288 5.632 18.944 0 24.576-38.912 1.024-87.04 0.512-125.952 1.536-4.096-7.168-1.536-12.8-1.536-26.112 1.536-1.024 3.584-1.536 5.12-2.56z m-1041.92 1.024c7.68 1.024 21.504 0.512 29.184 1.536-1.024 79.872-1.024 162.816-2.048 242.688-7.68-1.024-20.48-1.536-28.672-2.56 1.024-79.872 0.512-161.792 1.536-241.664z m105.472 1.536c12.288 0 22.528 0.512 28.672 5.12-5.632 12.8-6.144 29.184 0 41.472 22.016 1.024 39.936-0.512 52.224-7.68 1.024-18.432-4.096-28.672 1.536-40.448 7.68 1.024 19.456-1.024 27.136 0v48.128c36.352 1.024 72.704 1.536 109.056 2.56-1.024 7.68 1.024 15.36 0 23.552-34.304 0-87.04-2.048-117.248-2.048-5.632 0-5.632 5.12-10.24 7.168v10.24c40.96 1.536 81.408 3.584 122.368 5.12-5.632 31.744-23.552 49.152-40.448 66.56-8.704 9.216-20.48 16.384-24.576 29.696 19.456 10.752 43.52 18.944 70.144 23.552-1.536 7.68-0.512 17.408-2.048 25.088-1.024 0-5.12-2.048-5.632-2.048-33.28-5.12-72.704-16.896-96.256-33.792-24.576 16.384-92.16 48.64-126.976 34.304 0.512-13.824-6.144-15.872 2.048-21.504 29.696-13.312 75.264-10.24 96.256-31.232-9.216-13.824-34.304-45.056-46.592-38.912-16.384 7.68-32.768 15.872-49.664 23.552v-20.992c1.024-1.024-1.024-5.12 0-5.632 7.68-9.728 15.36-9.728 25.6-15.36 18.432-10.752 39.936-26.112 47.104-51.712l-5.12-5.12c-21.504-1.024-44.032 0-65.536-0.512 0-1.024 0.512-3.584 0.512-4.608 4.096-20.992 3.072-43.008 7.68-64.512z m167.424 0.512c7.168 0 17.92-0.512 24.576-0.512 5.12 12.288 15.872 23.552 21.504 35.84-7.168-1.024-19.456-1.024-26.624-2.048-5.12-11.264-13.824-22.016-19.456-33.28z m612.864 108.544c-12.8 1.024-26.112 1.536-38.912 2.56 0.512 19.456 5.632 27.136 12.8 38.912l18.432-15.36c4.608-9.728 7.168-11.264 12.8-12.8 0 33.28-11.264 35.328-15.872 59.904 10.752 14.848 16.384 20.992 15.872 49.664h-2.56l-12.8-12.8c-8.704-7.168-17.408-13.824-26.112-20.992-24.576 13.312-44.032 33.792-77.824 36.352v-231.424h117.248v2.56l-3.072 103.424z m-1202.176 135.68h-28.672c0.512-18.944 0.512-40.448-5.12-52.224-7.68 7.68-15.872 15.36-23.552 23.552-17.408 7.168-24.064 17.408-46.592 20.992V512v-2.56c24.576-11.264 50.688-30.208 57.344-59.904l-2.56-2.56c-18.432-1.024-36.352-1.536-54.784-2.56v-23.552h5.12c22.528-1.536 45.056-3.584 67.584-5.12 0.512-13.824 1.024-14.336 7.68-20.992h15.872c-1.024-20.992-1.536-41.472-2.56-62.464h-2.56c-4.096 1.024-8.704 1.536-12.8 2.56-6.656 36.864-37.888 71.68-78.336 75.264v-18.432c1.024-1.024 0.512-5.12 1.536-5.632 4.608-6.656 10.24-7.168 16.384-11.264 12.8-8.704 26.112-18.432 29.184-43.008h-15.36c-1.536 1.024-3.584 1.536-5.12 2.56 0 13.824-1.536 20.992-5.12 28.672-7.168-1.024-13.824-1.536-20.992-2.56 1.024-18.944 1.536-41.984 2.56-60.928l177.152 2.56c-1.024 18.432-1.536 39.936-2.56 58.368-2.56 1.024-5.12 1.536-7.68 2.56-5.12-2.56-10.24-5.12-15.872-7.68v-23.552c-14.336-1.536-20.48-2.56-31.232 2.56-1.024 18.944-3.072 30.72 1.024 35.328 7.168 8.192 26.624-2.048 53.76 4.096v23.552c-26.112 4.096-58.368-7.168-72.704 12.8 1.536 2.56 3.584 5.12 5.12 7.68h67.584c1.024 1.536 1.536 3.584 2.56 5.12v2.56c-3.584 9.728 2.048 10.752-7.68 18.432-18.432 1.536-36.352 3.584-54.784 5.12 1.536 9.216 1.024 7.68 5.12 12.8 11.264 23.04 42.496 29.696 56.32 44.544 5.12 5.632-1.024 11.264 1.024 20.48l-5.12 5.12c-28.16-9.728-43.52-24.576-65.024-38.912-1.536 1.024-3.584 1.536-5.12 2.56-1.024 16.384-1.024 31.744-1.024 47.616z m921.088-177.152c-10.24 1.024-20.992 1.536-31.232 2.56-3.584 11.264-3.072 12.288 5.12 18.432 9.728 1.536 18.944 3.584 28.672 5.12-1.024 6.144-1.536 12.288-2.56 18.432-11.264 1.536-22.528 3.584-33.792 5.12v10.24c2.56 3.584 5.12 7.168 7.68 10.24 15.872-1.024 18.944-2.048 28.672 2.56-3.584 28.16-19.456 40.448-31.232 59.904 1.536 2.56 3.584 5.12 5.12 7.68l26.112 7.68c-1.024 6.144-1.536 12.288-2.56 18.432-12.288-0.512-29.696-2.048-39.936-5.632-11.264-4.096-15.36-10.24-25.088-9.728-12.8 0.512-18.432 9.216-31.744 14.336-21.504 8.192-51.2 12.288-74.752 1.536 2.048-17.92 2.56-58.88-5.12-75.264h-2.56c-5.12 1.536-10.24 3.584-15.872 5.12-5.12 31.232-14.336 64.512-41.472 72.704v-7.68c2.048-8.704-1.536-19.968 0-29.184 2.56-15.872 8.704-4.096 10.752-20.992 5.12-47.104 4.096-125.952 5.12-176.128 73.728 1.024 147.456 1.536 221.184 2.56-1.024 19.456 0.512 41.984-0.512 61.952z m-1084.928-64.512c14.848 10.24 32.256 22.528 46.592 33.28v28.672h-2.56l-7.68-7.68c-12.288-7.68-24.064-15.36-36.352-23.552 0.512-9.728-1.024-20.992 0-30.72zM1228.8 307.2c8.704 1.024 19.968 0.512 28.672 1.536 0 1.024 0.512 8.192 0.512 8.704-9.216 54.272 2.048 171.008-4.096 212.992-1.536-1.024-9.728-1.536-11.776-2.56-4.096 0-9.216 2.048-13.824 2.048 1.536-73.216 0-150.016 0.512-222.72z m752.64 9.728l-15.36 26.112c1.024 1.536 1.536 3.584 2.56 5.12h38.912v-7.68c-6.656-10.24-12.8-19.456-26.112-23.552z m122.368 2.56c-6.656 3.072-15.872 3.072-20.992 7.68-1.024 4.096-1.536 8.704-2.56 12.8l5.12 5.12c18.944-1.024 38.4-1.536 57.344-2.56 1.024-4.096 1.536-8.704 2.56-12.8-1.024-1.536-1.536-3.584-2.56-5.12-12.8-2.048-25.6-3.584-38.912-5.12z m-406.016 5.12c-4.608 10.752-4.608 7.68 0 18.432 26.112 1.536 54.272 0.512 84.992 1.024 26.112 0.512 55.808 2.56 78.848-3.584-1.024-6.144-1.536-9.728-2.56-15.872h-161.28zM2267.648 532.48c-7.68-1.024-15.872-1.536-23.552-2.56-1.024-30.208-1.536-60.928-2.56-91.136-7.68 3.584-15.872 7.168-23.552 10.24v-26.112c7.168-9.216 20.992-17.408 29.696-27.648 10.24-11.776 15.36-25.088 25.088-34.816 11.776 0 14.848 0.512 20.992 5.12-4.096 9.216-5.632 18.432-10.24 26.624-3.584 5.632-11.264 9.728-12.8 16.384-3.584 15.36-1.024 31.744-1.024 49.152 0 23.552-2.048 48.128-2.048 74.752z m-163.84-168.96c-7.168 1.024-13.824 1.536-20.992 2.56v5.12c-1.024 2.56-1.536 5.12-2.56 7.68 2.56 1.024 5.12 1.536 7.68 2.56h54.784c-1.024-5.12-1.536-10.24-2.56-15.36-11.776-1.024-24.064-1.536-36.352-2.56z m-1303.552 2.56c15.872 10.24 31.232 20.992 46.592 31.232v26.112h-2.56c-14.848-10.24-29.696-20.992-44.032-31.232v-26.112z m973.312 0c-7.68 2.56-15.872 5.12-23.552 7.68 1.536 5.12 3.584 10.24 5.12 15.872 23.552-1.024 46.592-1.536 70.144-2.56l2.56-2.56c-1.024-4.096-1.536-8.704-2.56-12.8-17.408-2.048-34.304-4.096-51.712-5.632z m-78.336 2.56c-1.536 4.096-3.584 8.704-5.12 12.8 11.776 9.728 25.088 11.264 33.792-2.56-1.024-2.56-1.536-5.12-2.56-7.68-8.704-0.512-17.408-1.536-26.112-2.56z m650.752 140.8c24.064 1.024 43.52 0 52.224-15.872-5.632-35.328 5.12-74.752-7.68-98.816-27.648-1.024-55.296-1.536-83.456-2.56 1.024-7.68 1.536-15.872 2.56-23.552 49.664 1.024 98.816 1.536 148.48 2.56v2.56c-2.56 7.68 1.536 16.384-1.024 24.064-7.168-2.048-14.848 0-21.504 0-5.12 0-9.216-3.072-11.776 1.536-3.072 8.192 2.048 18.432 1.536 28.16-1.024 27.136 3.584 66.56-3.072 90.624-2.048 7.68-7.68 6.144-11.776 11.776-22.528 2.048-50.688 3.584-65.024-2.56 0.512-6.144 0.512-12.288 0.512-17.92z m-262.656-99.328c-3.584 12.8-2.56 27.648-2.56 41.472 0 15.36-1.536 29.696 2.56 41.984 10.24-6.144 20.992-12.288 31.232-18.432v-10.24c-2.048-5.632-8.192-12.288-11.264-20.48-4.096-12.288-5.12-26.624-12.288-31.232l-7.68-3.072z m-624.64 3.072c-1.536 4.096-3.584 8.704-5.12 12.8 12.8 11.776 35.328 49.152 54.784 36.352 18.432-8.192 35.328-26.112 46.592-41.472-1.024-1.536-1.536-3.584-2.56-5.12-31.232-1.024-62.464-2.048-93.696-2.56z m239.104 0c-4.608 10.752-4.608 10.24 0 20.992 6.144-1.024 12.288-1.536 18.432-2.56 5.12-3.584 4.096-3.072 7.68-7.68-1.024-2.56-1.536-5.12-2.56-7.68-7.68-1.536-15.36-2.56-23.552-3.072z m57.344 0c-1.536 4.096-3.584 8.704-5.12 12.8 3.584 2.56 7.168 5.12 10.24 7.68 12.288-1.536 30.208 4.608 44.032 5.12 9.216 0 16.896-2.048 20.992-9.728-1.536-2.56-1.024-13.312-2.56-15.872h-67.584z m-918.528 17.92c4.096 3.072 9.216-0.512 11.264 3.584 3.584 7.168-5.12 42.496-7.68 52.736-7.68 30.72-28.16 42.496-34.816 53.248-1.536-1.024-3.584-1.536-5.12-2.56 0-8.192-5.632-22.528-2.048-33.792 3.072-10.24 15.36-16.896 17.92-27.648 3.072-13.824-1.024-27.136 2.56-36.864 1.536-3.584 4.096-3.072 5.12-5.632 4.096-1.024 8.192-2.048 12.8-3.072z m910.848 26.112l-7.68 7.68c-0.512 17.92 0 35.84 5.12 46.592 11.264-1.536 22.528-3.584 33.792-5.12l10.24-10.24v-7.68c-10.24-7.68-14.848-16.384-20.992-28.672-6.656-1.024-13.824-1.536-20.48-2.56z m62.464 0c-1.536 1.024-3.584 1.536-5.12 2.56 1.536 3.584 3.584 7.168 5.12 10.24 4.096 6.656 7.168 8.704 12.8 12.8 7.168-4.096 13.824-8.704 20.992-12.8-1.024-4.096-1.536-8.704-2.56-12.8h-31.232z" fill="#231815" p-id="7157"></path><path d="M663.552 636.928v-320.512c-3.584-64.512-69.12-52.736-69.12-52.736l-309.248 1.536c-64.512-1.536-61.44 69.632-61.44 69.632l-0.512 309.248c0.512 75.264 71.168 67.584 71.168 67.584l308.224 1.024c72.192-1.024 60.928-75.776 60.928-75.776z m-78.336-16.896s-162.816-112.64-281.088 14.848c0 0 125.44-148.992 0.512-292.864 0 0 152.064 132.096 281.088-2.56 0 0-124.416 145.92-0.512 280.576z" fill="#0081CC" p-id="7158"></path><path d="M804.864 674.816h6.144c0 4.608 1.024 8.192 3.072 10.752 2.048 2.56 4.608 4.096 8.192 4.096 3.584 0 6.656-1.536 8.704-4.096 2.048-2.56 3.072-6.144 3.072-10.752 0-6.656-4.608-11.776-13.312-14.848-0.512-0.512-1.024-0.512-1.536-0.512-4.608-2.048-7.68-4.096-9.728-7.168-2.048-2.56-3.072-6.656-3.072-11.264 0-5.632 1.536-10.752 4.608-14.336 3.072-3.584 7.168-5.632 12.288-5.632 4.608 0 8.192 1.536 11.264 5.12 2.56 3.584 4.096 8.192 4.608 14.336h-5.632c-0.512-4.096-1.536-7.168-3.072-9.216-1.536-2.048-4.096-3.072-6.656-3.072-3.072 0-5.632 1.024-7.68 3.584-2.048 2.56-3.072 5.12-3.072 9.216 0 2.048 0.512 3.584 1.024 5.12 0.512 1.536 1.536 2.56 3.072 3.584 1.536 1.024 4.096 2.56 7.68 3.584 2.048 1.024 3.584 1.536 5.12 2.048 4.096 2.048 7.168 4.096 8.704 7.168 1.536 3.072 2.56 6.656 2.56 11.264 0 7.168-1.536 12.8-5.12 16.896-3.072 4.096-7.68 6.656-13.312 6.656-5.12 0-9.216-2.048-12.288-6.144-4.096-4.608-5.632-9.728-5.632-16.384z m55.296 20.48h-6.144v-72.704h6.144v32.768h29.696v-32.768h6.144v72.704h-6.144v-33.28H860.16v33.28z m58.88-39.936h26.112v7.168h-26.112v26.112h26.112v7.168h-32.768v-72.704h32.768v7.168h-26.112v25.088z m84.992 31.232l-0.512-64h6.144v72.704h-7.168l-34.304-64 0.512 64H962.56v-72.704h7.68l33.792 64z m47.104-56.832h-27.648v-7.168h34.816v6.656l-29.184 58.88h30.208v7.168h-36.864v-6.656l28.672-58.88z m26.624 65.536h-6.144v-72.704h6.144v32.768h29.696v-32.768h6.144v72.704h-6.144v-33.28h-29.696v33.28z m58.368-39.936h26.112v7.168h-26.112v26.112h26.112v7.168h-32.768v-72.704h32.768v7.168h-26.112v25.088z m84.992 31.232l-0.512-64h6.144v72.704h-7.168l-34.304-64 0.512 64h-6.144v-72.704h7.68l33.792 64z m48.128-56.832v58.88h12.8c8.192 0 14.336-2.56 18.432-7.68 4.096-5.12 6.656-12.8 6.656-22.016 0-4.608-0.512-9.216-2.048-13.312-1.536-4.096-3.584-7.168-6.144-10.24-2.048-2.048-4.096-3.584-6.656-4.608-2.56-1.024-6.144-1.536-11.264-1.536h-11.776v0.512z m-6.144-7.168h17.92c5.12 0 9.216 0.512 12.288 1.536 3.584 1.024 6.144 3.072 8.704 5.632 3.584 3.584 6.144 7.68 8.192 12.8 2.048 5.12 3.072 10.24 3.072 16.384 0 6.656-1.024 12.288-3.072 17.408-2.048 5.12-5.12 9.728-9.216 12.8-2.56 2.048-5.632 3.584-8.704 4.608-3.072 1.024-7.68 1.536-14.336 1.536h-14.848v-72.704z m70.144 32.768h26.112v7.168h-26.112v26.112h26.112v7.168h-32.768v-72.704h32.768v7.168h-26.112v25.088z m35.328-32.768h6.144l19.968 61.952 19.968-61.952h6.144l-23.552 72.704h-5.12l-23.552-72.704z m67.584 32.768h26.112v7.168h-26.112v26.112h26.112v7.168h-32.768v-72.704h32.768v7.168h-26.112v25.088z m71.68 39.936H1479.68v-72.704h6.144v65.536h22.016v7.168z m12.8-36.352c0 8.704 2.56 16.384 7.68 22.528 5.12 6.144 11.264 9.216 18.432 9.216s13.312-3.072 17.92-9.216c5.12-6.144 7.168-13.312 7.168-22.528 0-8.192-2.56-15.36-7.68-21.504-5.12-6.144-11.264-9.216-18.432-9.216-3.072 0-5.632 0.512-8.192 1.536-2.56 1.024-5.12 3.072-7.68 5.12-3.072 3.072-5.12 6.656-7.168 10.752-1.024 4.608-2.048 8.704-2.048 13.312z m-6.144 0c0-5.12 1.024-9.728 2.56-14.336 1.536-4.608 4.096-8.704 7.168-12.288 3.072-3.584 6.656-6.144 10.24-7.68 3.584-1.536 7.68-2.56 11.776-2.56 4.608 0 8.704 1.024 12.288 2.56s7.168 4.608 10.24 8.192c3.072 3.584 5.632 7.68 7.168 12.288 1.536 4.608 2.56 9.216 2.56 14.336 0 5.12-0.512 9.728-2.048 14.336-1.536 4.096-3.584 8.192-6.144 11.776-3.072 4.096-6.656 7.168-10.752 9.216-4.096 2.048-8.192 3.072-13.312 3.072-9.216 0-16.384-3.584-22.528-11.264-6.144-8.192-9.216-16.896-9.216-27.648zM1597.44 629.76v27.648h9.216c5.12 0 8.704-1.024 11.264-3.584 2.56-2.048 3.584-5.632 3.584-10.24 0-4.608-1.024-8.192-3.584-10.752-2.56-2.048-6.144-3.584-11.776-3.584H1597.44v0.512z m-6.144-7.168h13.312c3.584 0 6.656 0 9.216 0.512 2.048 0.512 4.096 1.024 5.632 2.048 2.56 2.048 5.12 4.608 6.144 7.68 1.536 3.072 2.048 6.656 2.048 10.24s-0.512 7.168-2.048 10.24c-1.536 3.072-3.072 5.632-5.632 7.168-1.536 1.536-3.584 2.048-6.144 3.072-2.048 0.512-5.12 1.024-8.704 1.024H1597.44v30.72h-6.144v-72.704z m50.176 72.704v-72.704h9.216l21.504 63.488 21.504-63.488h9.216v72.704h-5.632v-64l-22.016 64h-5.632l-22.016-64v64h-6.144zM1725.44 655.36h26.112v7.168H1725.44v26.112h26.112v7.168h-32.768v-72.704h32.768v7.168H1725.44v25.088z m84.48 31.232l-0.512-64h6.144v72.704h-7.168l-34.304-64 0.512 64h-6.144v-72.704h7.168l34.304 64z m35.84 8.704h-6.144V629.76h-12.288v-7.168h31.232v7.168h-12.288v65.536h-0.512z m49.664-34.304v27.648h8.704c5.12 0 8.704-1.024 11.264-3.584 2.56-2.048 3.584-5.632 3.584-10.24 0-4.608-1.024-8.192-3.584-10.24-2.56-2.048-6.144-3.584-11.264-3.584h-8.704z m0-31.232v24.576h3.584c6.144 0 10.24-1.024 12.8-3.072 2.56-2.048 3.584-5.12 3.584-9.728 0-4.096-1.024-7.168-3.584-9.216-2.56-2.048-6.144-3.072-11.264-3.072h-5.12v0.512z m-6.144-7.168h11.776c7.168 0 12.288 1.536 15.872 4.608 3.072 3.072 5.12 8.192 5.12 14.336 0 3.584-0.512 6.144-1.536 8.704-1.024 2.56-3.072 4.096-5.12 5.632 3.584 1.536 6.144 4.096 7.68 6.656 1.536 3.072 2.56 6.656 2.56 10.752 0 7.168-1.536 12.8-5.12 16.384-3.584 3.584-9.216 5.12-16.384 5.12H1889.28v-72.192z m48.64 72.704h-6.656l24.064-72.704h7.168l24.064 72.704h-6.656l-7.68-23.04h-27.648l-6.656 23.04z m32.768-29.184l-11.776-36.352-11.776 36.352h23.552z m67.584 20.48l-0.512-64h6.144v72.704h-7.168l-34.304-64 0.512 64H1996.8v-72.704h7.68l33.792 64z m28.16-13.312v22.528h-6.144v-72.704h6.144v40.448l29.184-40.448h7.168l-25.088 35.328 25.088 37.376h-7.68l-21.504-32.256-7.168 9.728z m116.224-31.744c-2.56-4.608-6.144-7.68-9.216-10.24-3.584-2.048-7.68-3.072-11.776-3.072-7.168 0-12.8 3.072-17.92 9.216-5.12 6.144-7.68 13.312-7.68 21.504 0 8.704 2.56 16.384 7.168 22.016 5.12 6.144 10.752 9.216 17.92 9.216 4.096 0 8.192-1.024 11.776-3.072s6.656-5.12 9.216-9.216h7.168c-3.072 6.144-6.656 10.752-11.264 14.336-4.608 3.584-10.24 5.12-16.384 5.12-9.216 0-16.896-3.584-23.04-10.752-6.144-7.168-9.216-16.384-9.216-27.136 0-5.12 1.024-9.728 2.56-14.336 1.536-4.608 4.096-8.704 7.168-12.288 3.072-3.584 6.144-6.144 10.24-7.68 3.584-2.048 7.68-2.56 12.288-2.56 6.144 0 11.776 1.536 16.896 5.12s8.704 8.704 11.776 14.848h-7.68v-1.024z m24.576 17.408c0 8.704 2.56 16.384 7.68 22.528 5.12 6.144 11.264 9.216 18.432 9.216s13.312-3.072 17.92-9.216c5.12-6.144 7.168-13.312 7.168-22.528 0-8.192-2.56-15.36-7.68-21.504-5.12-6.144-11.264-9.216-18.432-9.216-3.072 0-5.632 0.512-8.192 1.536-2.56 1.024-5.12 3.072-7.68 5.12-3.072 3.072-5.12 6.656-7.168 10.752-1.024 4.608-2.048 8.704-2.048 13.312z m-6.144 0c0-5.12 1.024-9.728 2.56-14.336 1.536-4.608 4.096-8.704 7.168-12.288 3.072-3.584 6.656-6.144 10.24-7.68 3.584-1.536 7.68-2.56 11.776-2.56 4.608 0 8.704 1.024 12.288 2.56s7.168 4.608 10.24 8.192c3.072 3.584 5.632 7.68 7.168 12.288 1.536 4.608 2.56 9.216 2.56 14.336 0 5.12-0.512 9.728-2.048 14.336-1.536 4.096-3.584 8.192-6.144 11.776-3.072 4.096-6.656 7.168-10.752 9.216-4.096 2.048-8.192 3.072-13.312 3.072-9.216 0-16.384-3.584-22.528-11.264-6.144-8.192-9.216-16.896-9.216-27.648z m82.432 36.352h-6.144v-13.312h6.144v13.312z m25.088 8.192h-6.144l6.656-21.504h6.144l-6.656 21.504z m53.248-8.192h-28.16v-72.704h6.144v65.536h22.016v7.168z m22.528 0h-6.144V629.76h-12.288v-7.168h31.232v7.168h-12.288v65.536h-0.512z m30.208-65.536v58.88h12.8c8.192 0 14.336-2.56 18.432-7.68 4.096-5.12 6.656-12.8 6.656-22.016 0-4.608-0.512-9.216-2.048-13.312-1.536-4.096-3.584-7.168-6.144-10.24-2.048-2.048-4.096-3.584-6.656-4.608-2.56-1.024-6.144-1.536-11.264-1.536h-11.776v0.512z m-6.144-7.168h17.92c5.12 0 9.216 0.512 12.288 1.536 3.584 1.024 6.144 3.072 8.704 5.632 3.584 3.584 6.144 7.68 8.192 12.8 2.048 5.12 3.072 10.24 3.072 16.384 0 6.656-1.024 12.288-3.072 17.408-2.048 5.12-5.12 9.728-9.216 12.8-2.56 2.048-5.632 3.584-8.704 4.608-3.072 1.024-7.68 1.536-14.336 1.536h-14.848v-72.704z m68.608 72.704h-6.144v-13.312h6.144v13.312z" fill="#231815" p-id="7159"></path></svg>