<?xml version="1.0" standalone="no"?><!DOCTYPE svg PUBLIC "-//W3C//DTD SVG 1.1//EN" "http://www.w3.org/Graphics/SVG/1.1/DTD/svg11.dtd"><svg t="1531986176407" class="icon" style="" viewBox="0 0 2560 1024" version="1.1" xmlns="http://www.w3.org/2000/svg" p-id="4564" xmlns:xlink="http://www.w3.org/1999/xlink" width="500" height="200"><defs><style type="text/css"></style></defs><path d="M501.76 601.6c0 10.24-7.68 17.92-17.92 17.92h-61.44v163.84H614.4c28.16 0 51.2-23.04 51.2-51.2V537.6h-163.84v64zM483.84 432.64c10.24 0 17.92 7.68 17.92 17.92V512H665.6v-192c0-28.16-23.04-51.2-51.2-51.2h-192v163.84h61.44zM317.44 450.56c0-10.24 7.68-17.92 17.92-17.92h61.44v-163.84H204.8c-28.16 0-51.2 23.04-51.2 51.2V512h163.84v-61.44zM332.8 616.96c-10.24 0-17.92-7.68-17.92-17.92V537.6H153.6v192c0 28.16 23.04 51.2 51.2 51.2h192v-163.84H332.8z" fill="#E61F1F" p-id="4565"></path><path d="M1830.4 442.88c-2.56-2.56-5.12-2.56-7.68-2.56-5.12 0-10.24 2.56-12.8 7.68-2.56 0-5.12 2.56-7.68 5.12-5.12 5.12-7.68 7.68-10.24 5.12v-10.24c2.56-7.68 5.12-12.8 12.8-15.36 5.12-2.56 7.68-2.56 10.24-5.12 7.68-5.12 10.24-12.8 10.24-20.48-2.56 0-7.68 0-15.36 2.56-2.56 0-5.12 2.56-7.68 2.56-2.56 0-5.12 0-7.68-2.56 0-7.68 2.56-12.8 7.68-17.92 5.12-2.56 12.8-5.12 17.92-7.68 0-5.12 0-7.68-2.56-10.24-2.56-2.56-5.12-2.56-7.68-2.56-2.56 0-5.12 0-10.24 2.56-5.12 0-10.24 2.56-15.36 5.12L1740.8 384c12.8-15.36 23.04-25.6 25.6-28.16 5.12-5.12 12.8-7.68 17.92-7.68h5.12c2.56 0 5.12 2.56 7.68 2.56l33.28 12.8v-2.56-5.12-12.8c0-5.12-2.56-10.24-2.56-12.8h-33.28l23.04-23.04-23.04-17.92c-5.12 7.68-10.24 12.8-15.36 20.48-12.8 17.92-25.6 33.28-38.4 46.08-17.92 20.48-35.84 38.4-53.76 56.32-2.56 0-5.12 2.56-5.12 5.12-2.56 2.56-2.56 2.56 0 5.12l48.64-10.24V409.6v-5.12c0-2.56 0-7.68 2.56-10.24 0-2.56 5.12-5.12 7.68-5.12v2.56c2.56 5.12 5.12 7.68 7.68 10.24 2.56 0 5.12 0 10.24-2.56 5.12 0 7.68-2.56 7.68-2.56 2.56 0 2.56 0 2.56 2.56v20.48l-46.08 12.8 7.68 23.04 38.4-12.8v5.12c0 2.56-2.56 5.12-5.12 7.68-5.12 2.56-10.24 7.68-15.36 10.24 0 0-7.68 5.12-17.92 10.24-5.12 2.56-7.68 5.12-10.24 5.12 0 2.56 2.56 5.12 2.56 5.12 2.56 7.68 7.68 10.24 12.8 12.8l30.72-30.72c2.56 5.12 2.56 10.24 2.56 15.36 0 5.12 0 7.68-2.56 10.24-2.56 2.56-5.12 5.12-7.68 5.12l-43.52 15.36 12.8 30.72c2.56 0 2.56 0 5.12-2.56 5.12-2.56 10.24-7.68 15.36-12.8 10.24-5.12 15.36-10.24 23.04-12.8 17.92-10.24 35.84-20.48 51.2-28.16 0-2.56 0-5.12 2.56-7.68 0-5.12 2.56-5.12 2.56-7.68 0-2.56 0-2.56-2.56-2.56l-33.28 17.92c0-5.12 2.56-12.8 10.24-15.36 12.8-7.68 17.92-10.24 17.92-10.24 5.12 0 7.68 0 12.8-2.56 2.56-2.56 5.12-5.12 5.12-7.68 0-2.56 0-5.12-2.56-7.68-2.56-2.56-2.56-2.56-5.12-2.56zM1907.2 496.64c-2.56 5.12-7.68 7.68-10.24 12.8-7.68 7.68-15.36 12.8-25.6 15.36-2.56 0-5.12-2.56-5.12-2.56-2.56-2.56-5.12-5.12-5.12-10.24v-2.56-2.56-15.36c2.56-12.8 5.12-23.04 7.68-33.28 5.12 0 7.68 2.56 10.24 2.56 5.12 0 10.24 2.56 15.36 5.12 7.68 2.56 15.36 10.24 23.04 15.36-5.12 5.12-7.68 12.8-10.24 15.36zM1868.8 348.16c2.56-10.24 10.24-15.36 20.48-17.92h5.12c5.12 0 12.8-2.56 23.04-5.12 2.56 2.56 2.56 5.12 2.56 7.68 0 5.12-2.56 10.24-10.24 12.8-5.12 2.56-10.24 2.56-15.36 5.12h-2.56c-2.56 0-5.12 2.56-7.68 2.56-2.56 0-5.12 2.56-7.68 2.56-5.12 2.56-7.68 0-7.68-7.68z m35.84 43.52c-2.56 2.56-5.12 2.56-10.24 2.56-5.12 2.56-12.8 2.56-20.48 2.56 0-2.56-2.56-5.12-2.56-7.68 0-5.12 2.56-12.8 7.68-15.36 5.12-5.12 10.24-5.12 15.36-5.12h2.56s2.56 0 5.12-2.56c5.12-2.56 7.68-2.56 10.24-2.56 2.56 0 5.12 0 5.12 5.12 2.56 7.68-2.56 15.36-12.8 23.04z m12.8 56.32c7.68-5.12 15.36-10.24 20.48-15.36 15.36-10.24 33.28-20.48 48.64-25.6-2.56-2.56-2.56-5.12-5.12-5.12-5.12-5.12-10.24-7.68-17.92-10.24-7.68 7.68-12.8 12.8-17.92 15.36-15.36 12.8-28.16 23.04-43.52 30.72H1894.4c-2.56 0-5.12-2.56-10.24-5.12-7.68-5.12-10.24-7.68-10.24-12.8 0-2.56 0-5.12 2.56-5.12 2.56-2.56 5.12-2.56 7.68-2.56h10.24l46.08-5.12v-7.68-7.68c0-25.6 7.68-48.64 23.04-69.12-5.12-5.12-10.24-7.68-17.92-10.24-7.68-2.56-15.36-2.56-25.6-2.56l-25.6 7.68-46.08 15.36v35.84c0 10.24-2.56 35.84-5.12 76.8 0 17.92-2.56 33.28-2.56 46.08s0 25.6 2.56 40.96l7.68 38.4c12.8-7.68 23.04-15.36 30.72-20.48 5.12-2.56 7.68-7.68 10.24-10.24 15.36-15.36 25.6-33.28 28.16-56.32 2.56 2.56 7.68 5.12 15.36 10.24 5.12 5.12 10.24 10.24 10.24 15.36l7.68 17.92h20.48c7.68 0 17.92 0 30.72-2.56 10.24-2.56 23.04-2.56 30.72-5.12-10.24-10.24-25.6-17.92-46.08-28.16-35.84-17.92-61.44-33.28-71.68-43.52zM1592.32 522.24c-5.12-2.56-7.68-5.12-10.24-7.68l-7.68-7.68c-5.12-7.68-10.24-15.36-12.8-23.04h-10.24l-7.68 7.68c-2.56 7.68-5.12 12.8-7.68 15.36v12.8c2.56 7.68 10.24 12.8 15.36 17.92 5.12 2.56 12.8 5.12 23.04 7.68 10.24 2.56 17.92 2.56 28.16 5.12 2.56-2.56 2.56-5.12 2.56-7.68 0-7.68-5.12-15.36-12.8-20.48zM1615.36 330.24h-7.68c-12.8 2.56-33.28 5.12-56.32 7.68-7.68 0-12.8 2.56-20.48 2.56-10.24 0-23.04 2.56-40.96 5.12-10.24 2.56-23.04 2.56-38.4 5.12-12.8 2.56-25.6 2.56-38.4 5.12-15.36 2.56-30.72 5.12-46.08 5.12l-30.72 2.56v5.12c0 2.56 0 7.68 2.56 12.8s5.12 7.68 7.68 12.8c17.92-7.68 33.28-12.8 51.2-15.36 5.12 0 12.8-2.56 17.92-2.56 12.8 0 25.6-2.56 40.96-2.56 12.8-2.56 20.48-5.12 30.72-7.68h5.12c20.48-2.56 40.96-5.12 61.44-5.12h7.68c20.48 0 38.4 2.56 53.76 5.12l2.56 2.56c2.56 0 5.12 2.56 7.68 2.56 2.56 0 2.56 0 5.12-2.56 2.56 0 2.56-2.56 2.56-7.68 0-5.12-2.56-10.24-2.56-12.8-5.12-5.12-10.24-12.8-15.36-17.92zM2219.52 302.08c0-2.56 0-5.12-2.56-5.12l-7.68-7.68c-5.12-5.12-10.24-7.68-15.36-10.24-2.56 0-5.12 2.56-7.68 2.56-5.12 2.56-7.68 7.68-7.68 12.8l-2.56 5.12-15.36 28.16-17.92 35.84 2.56 2.56c2.56 0 2.56 2.56 5.12 2.56s5.12-2.56 7.68-5.12c7.68-5.12 12.8-10.24 17.92-12.8 12.8-12.8 25.6-23.04 33.28-35.84 2.56 0 5.12-2.56 7.68-5.12 2.56-2.56 2.56-5.12 2.56-7.68zM2403.84 371.2l-12.8-25.6c-12.8 0-23.04 0-33.28 2.56-25.6 2.56-48.64 7.68-69.12 15.36l-23.04 7.68c-17.92 5.12-33.28 7.68-51.2 7.68h-2.56c0 2.56 0 7.68 2.56 10.24 0 2.56 2.56 7.68 2.56 10.24 2.56 7.68 5.12 12.8 10.24 15.36 10.24-7.68 20.48-12.8 35.84-15.36 2.56 0 15.36-2.56 38.4-5.12l5.12 5.12c2.56 5.12 5.12 10.24 5.12 15.36 0 7.68 0 20.48 2.56 38.4 0 15.36 2.56 28.16 2.56 35.84 0 10.24 0 17.92-2.56 25.6-2.56 2.56-5.12 5.12-7.68 5.12h-10.24c-12.8-2.56-28.16-7.68-40.96-10.24-2.56 0-5.12 0-7.68-2.56-7.68-2.56-12.8-5.12-12.8-5.12-2.56 0-2.56 0-5.12 2.56 5.12 5.12 10.24 7.68 15.36 12.8 12.8 7.68 28.16 17.92 43.52 25.6 20.48 10.24 40.96 15.36 61.44 20.48 0-2.56 2.56-5.12 2.56-7.68 0-2.56 0-7.68-2.56-12.8 0-5.12-2.56-7.68-2.56-10.24 0-7.68 0-30.72-2.56-61.44V435.2c0-12.8 0-23.04 2.56-33.28 2.56-5.12 5.12-10.24 10.24-10.24 5.12-2.56 12.8-2.56 20.48-2.56H2401.28c2.56 0 5.12 0 5.12-2.56 2.56 0 2.56-2.56 2.56-5.12-2.56-5.12-2.56-7.68-5.12-10.24z" fill="#231815" p-id="4566"></path><path d="M2191.36 353.28c-5.12 5.12-7.68 12.8-12.8 17.92v2.56c-7.68 12.8-20.48 25.6-33.28 43.52-15.36 23.04-33.28 40.96-46.08 56.32 0 2.56-2.56 2.56-2.56 2.56-2.56 2.56 0 5.12 0 5.12 7.68 0 12.8 0 15.36-2.56 12.8-2.56 23.04-7.68 30.72-15.36 0-5.12 2.56-10.24 2.56-15.36 2.56-12.8 10.24-23.04 17.92-30.72 2.56 5.12 5.12 10.24 5.12 15.36 0 5.12 2.56 12.8 2.56 20.48 0 5.12 0 15.36-2.56 33.28v20.48c0 7.68 0 12.8 2.56 20.48H2186.24c2.56 0 5.12-2.56 7.68-2.56v-23.04c0-10.24 0-25.6 2.56-43.52 2.56-35.84 5.12-61.44 5.12-74.24 5.12-2.56 7.68-5.12 10.24-7.68 2.56-2.56 2.56-5.12 2.56-10.24s-2.56-7.68-5.12-12.8c-7.68 2.56-12.8 0-17.92 0zM1510.4 424.96c-5.12 5.12-12.8 10.24-20.48 15.36-5.12 2.56-12.8 5.12-25.6 7.68-5.12 0-7.68 0-10.24-2.56-2.56-2.56-2.56-5.12-2.56-7.68 0-5.12 2.56-7.68 5.12-12.8 2.56-2.56 7.68-5.12 12.8-5.12 2.56-2.56 7.68-5.12 12.8-7.68 2.56 0 5.12-2.56 7.68-2.56h7.68c10.24 0 12.8 5.12 12.8 12.8v2.56z m33.28 33.28c2.56-2.56 2.56-7.68 5.12-17.92 0-5.12 2.56-7.68 2.56-10.24 2.56-5.12 5.12-7.68 7.68-10.24 5.12-2.56 7.68-7.68 7.68-10.24 0-5.12-2.56-7.68-7.68-12.8-2.56-2.56-5.12-5.12-10.24-5.12h-5.12c-2.56 0-7.68-2.56-12.8-2.56h-12.8c-10.24 0-17.92 0-30.72 2.56-2.56 0-5.12 0-7.68 2.56-33.28 7.68-56.32 12.8-64 12.8h-2.56l-2.56 2.56c0 2.56 2.56 7.68 2.56 10.24 2.56 5.12 2.56 10.24 5.12 15.36 7.68 20.48 20.48 33.28 35.84 46.08 2.56-2.56 7.68-2.56 7.68-2.56 2.56 0 5.12 2.56 7.68 5.12 2.56 2.56 2.56 7.68 2.56 12.8v23.04c0 7.68 0 12.8-2.56 15.36 0 5.12-2.56 7.68-7.68 10.24l-38.4-5.12c2.56 7.68 5.12 12.8 12.8 17.92 12.8 5.12 23.04 10.24 35.84 15.36 2.56 0 7.68 0 12.8 2.56 2.56 0 2.56 0 2.56 2.56h2.56c2.56 0 2.56 0 5.12-2.56 0-12.8 0-28.16 2.56-46.08v-56.32c2.56 0 5.12-2.56 10.24-2.56h12.8c5.12 0 7.68 0 12.8-2.56l10.24-10.24zM2275.84 340.48c28.16-5.12 53.76-15.36 76.8-28.16 0-2.56 2.56-5.12 2.56-7.68 0-5.12-2.56-10.24-5.12-12.8-2.56-2.56-7.68-5.12-12.8-5.12-2.56 0-5.12 0-7.68 2.56l-53.76 17.92-23.04 7.68 10.24 30.72c2.56-5.12 7.68-5.12 12.8-5.12zM1159.68 307.2c5.12 2.56 10.24 5.12 15.36 5.12 10.24 0 17.92-2.56 23.04-10.24-2.56-7.68-7.68-12.8-15.36-17.92-2.56-2.56-5.12-2.56-7.68-5.12-2.56-2.56-7.68-5.12-12.8-7.68-2.56 2.56-5.12 2.56-5.12 5.12-5.12 5.12-5.12 10.24-5.12 15.36v7.68l7.68 7.68zM1477.12 320c2.56 0 7.68 2.56 12.8 2.56h15.36c2.56-5.12 5.12-10.24 5.12-15.36 0-5.12-5.12-15.36-15.36-25.6l-7.68-7.68c-7.68-7.68-10.24-12.8-12.8-17.92-5.12 0-10.24 5.12-15.36 12.8-2.56 5.12-5.12 12.8-5.12 20.48v10.24c7.68 10.24 12.8 17.92 23.04 20.48zM1100.8 460.8s0-2.56 0 0v-7.68c0-5.12 0-7.68-2.56-10.24-2.56-2.56-7.68-5.12-12.8-7.68l-15.36 5.12-7.68 2.56h-2.56s0-2.56 2.56-5.12 5.12-10.24 7.68-17.92c2.56-2.56 5.12-7.68 5.12-12.8 2.56-7.68 5.12-15.36 7.68-20.48 2.56-2.56 2.56-5.12 2.56-7.68 0-2.56-2.56-5.12-5.12-5.12-2.56-2.56-7.68-2.56-12.8-2.56-2.56 0-5.12 0-5.12 2.56h-2.56c-5.12 2.56-10.24 2.56-15.36 5.12h-2.56c-7.68 2.56-17.92 5.12-25.6 7.68-2.56 2.56-7.68 2.56-10.24 5.12v-5.12c0-7.68 2.56-12.8 10.24-17.92 0 0 2.56 0 5.12-2.56 7.68-2.56 12.8-2.56 20.48-5.12l5.12-2.56c5.12-2.56 10.24-2.56 12.8-5.12 2.56 0 5.12-2.56 7.68-2.56 7.68-2.56 15.36-2.56 25.6-5.12 2.56 12.8 5.12 20.48 5.12 30.72 5.12 25.6 10.24 48.64 15.36 64l-12.8 20.48z m-25.6 20.48v12.8c0 2.56-2.56 2.56-5.12 2.56h-2.56c-2.56 0-5.12-2.56-2.56-5.12l2.56-35.84h5.12c2.56 0 2.56 2.56 5.12 2.56 2.56 2.56 2.56 5.12 2.56 10.24-2.56 5.12-2.56 7.68-5.12 12.8z m-25.6-2.56v10.24c0 5.12-2.56 7.68-2.56 12.8h-2.56-2.56c-2.56 0-5.12-2.56-5.12-7.68V486.4v-10.24c0-2.56 0-5.12 2.56-7.68 0-2.56 2.56-2.56 2.56-2.56l2.56-2.56c2.56 0 2.56 2.56 2.56 5.12 2.56 5.12 2.56 7.68 2.56 10.24z m-30.72 30.72h-2.56v-2.56-7.68-5.12c0-2.56 0-5.12 2.56-7.68 0-2.56 2.56-2.56 2.56-5.12 0 0 2.56 0 2.56 2.56v17.92c0 5.12-2.56 7.68-5.12 7.68z m-25.6-43.52c2.56-2.56 5.12-5.12 5.12-7.68 0-5.12-2.56-7.68-2.56-12.8l10.24-38.4s2.56 0 5.12 2.56 5.12 2.56 5.12 2.56c2.56 0 2.56-2.56 5.12-5.12s7.68-2.56 10.24-2.56c5.12 0 7.68 2.56 7.68 7.68v5.12c0 2.56-2.56 5.12-2.56 7.68-2.56 5.12-7.68 7.68-15.36 7.68h-10.24c-2.56 0-5.12 2.56-2.56 5.12s7.68 5.12 10.24 7.68h2.56c7.68 5.12 12.8 7.68 20.48 10.24l-20.48 7.68-28.16 2.56z m258.56 10.24c-2.56 5.12-5.12 15.36-7.68 33.28-2.56 17.92-7.68 30.72-12.8 40.96-5.12 2.56-7.68 5.12-12.8 5.12-7.68 0-15.36-5.12-23.04-12.8-5.12-7.68-12.8-12.8-17.92-20.48 0-2.56-2.56-2.56-2.56-5.12-2.56-5.12-7.68-10.24-10.24-12.8-10.24-15.36-15.36-30.72-20.48-46.08 10.24-12.8 17.92-23.04 28.16-35.84 0-2.56 2.56-2.56 2.56-2.56 5.12-5.12 10.24-10.24 17.92-12.8 0-5.12-2.56-10.24-5.12-15.36-5.12-5.12-10.24-7.68-12.8-7.68h-5.12c-5.12 0-7.68 2.56-10.24 10.24-2.56 2.56-5.12 7.68-10.24 15.36-7.68 10.24-12.8 17.92-17.92 20.48 0-2.56-2.56-10.24-5.12-20.48-5.12-15.36-5.12-28.16-5.12-35.84v-12.8c0-5.12 2.56-7.68 2.56-12.8l30.72 5.12s0-2.56 2.56-5.12v-7.68c0-5.12 0-7.68-2.56-12.8s-2.56-7.68-7.68-12.8l-30.72 7.68c0-5.12-2.56-12.8-2.56-17.92 0-5.12-2.56-12.8-2.56-17.92 0-5.12 0-10.24 2.56-15.36 0-5.12 2.56-10.24 5.12-15.36-2.56 0-2.56-2.56-2.56-2.56-5.12-2.56-12.8-5.12-17.92-5.12-2.56 0-5.12 0-10.24 2.56v35.84c0 15.36 2.56 28.16 2.56 43.52-7.68 2.56-15.36 5.12-20.48 7.68-2.56 0-2.56 0-5.12 2.56h-5.12c-5.12 2.56-12.8 2.56-20.48 5.12-7.68 2.56-15.36 2.56-25.6 5.12-2.56 0-5.12 0-7.68 2.56h-10.24c-5.12 0-10.24 2.56-12.8 5.12v40.96c0 12.8 0 23.04-5.12 33.28-2.56 10.24-7.68 17.92-15.36 25.6-5.12 5.12-7.68 10.24-12.8 15.36-10.24 10.24-20.48 20.48-30.72 25.6h20.48c15.36-2.56 28.16-7.68 38.4-15.36v2.56c0 2.56 0 7.68 2.56 15.36s2.56 12.8 2.56 15.36c2.56 2.56 2.56 5.12 2.56 7.68 0 2.56-5.12 7.68-15.36 10.24-5.12 2.56-10.24 2.56-12.8 5.12 0 0-2.56 0-7.68 2.56-5.12 0-7.68 2.56-7.68 5.12s0 5.12 2.56 5.12l7.68 7.68c2.56 2.56 5.12 5.12 7.68 5.12 2.56 0 2.56 0 5.12-2.56 12.8-7.68 25.6-12.8 46.08-17.92 7.68-2.56 12.8-2.56 20.48-5.12h2.56c7.68-2.56 12.8-2.56 20.48-5.12 2.56 0 5.12-2.56 7.68-2.56 17.92-5.12 30.72-7.68 35.84-10.24 2.56-2.56 2.56-5.12 2.56-5.12 0-2.56-2.56-5.12-5.12-7.68-5.12-2.56-7.68-2.56-12.8-2.56 0-5.12 5.12-10.24 12.8-10.24 7.68-2.56 12.8-2.56 15.36-5.12 2.56-2.56 2.56-5.12 5.12-5.12s2.56 2.56 5.12 5.12c0 2.56 2.56 5.12 2.56 7.68 2.56 5.12 5.12 10.24 10.24 15.36 7.68 12.8 15.36 23.04 25.6 35.84l5.12 5.12c12.8 12.8 23.04 25.6 35.84 35.84l35.84 20.48c5.12-5.12 7.68-15.36 10.24-25.6 0-5.12 2.56-12.8 5.12-25.6v-2.56-5.12c0-10.24 0-20.48-2.56-30.72 7.68-23.04 5.12-35.84 2.56-46.08z" fill="#231815" p-id="4567"></path><path d="M1413.12 486.4c-7.68 5.12-15.36 10.24-20.48 12.8-15.36 12.8-30.72 23.04-40.96 35.84 5.12 2.56 7.68 7.68 10.24 7.68 10.24 5.12 17.92 7.68 28.16 10.24 2.56-7.68 5.12-12.8 7.68-15.36 5.12-12.8 12.8-25.6 17.92-35.84l-2.56-2.56s0-2.56 2.56-5.12c0 0 0-2.56 2.56-2.56V486.4h-2.56c0-2.56-2.56-2.56-2.56 0zM936.96 737.28h10.24c0 7.68 2.56 15.36 10.24 20.48 5.12 5.12 15.36 7.68 25.6 7.68s17.92-2.56 23.04-5.12c5.12-5.12 10.24-10.24 10.24-15.36 0-5.12-2.56-10.24-5.12-12.8-2.56-2.56-10.24-5.12-20.48-7.68l-23.04-5.12c-7.68-2.56-15.36-5.12-17.92-7.68-5.12-5.12-5.12-10.24-5.12-17.92 0-10.24 2.56-17.92 10.24-23.04 7.68-5.12 17.92-7.68 30.72-7.68s23.04 2.56 30.72 7.68c7.68 5.12 10.24 12.8 12.8 23.04h-10.24c0-7.68-2.56-12.8-7.68-17.92-5.12-5.12-12.8-5.12-23.04-5.12s-15.36 2.56-23.04 5.12c-5.12 2.56-7.68 7.68-7.68 15.36 0 5.12 2.56 7.68 5.12 12.8 2.56 2.56 10.24 5.12 20.48 7.68l20.48 2.56c10.24 2.56 17.92 5.12 20.48 10.24 5.12 5.12 7.68 10.24 7.68 17.92 0 10.24-2.56 17.92-10.24 23.04-7.68 5.12-17.92 7.68-30.72 7.68-15.36 0-25.6-2.56-33.28-10.24-15.36-5.12-20.48-12.8-20.48-25.6zM1047.04 770.56v-107.52h12.8v46.08h69.12v-46.08h10.24v107.52h-10.24v-51.2h-69.12v51.2h-12.8zM1164.8 770.56v-107.52h81.92v10.24h-71.68v38.4h66.56v10.24h-66.56v38.4h71.68v10.24h-81.92zM1267.2 770.56v-107.52h12.8l74.24 97.28v-97.28h10.24v107.52h-12.8l-74.24-94.72v94.72h-10.24zM1482.24 752.64c-2.56 7.68-10.24 12.8-15.36 15.36-7.68 5.12-15.36 5.12-25.6 5.12-15.36 0-30.72-5.12-40.96-15.36-10.24-10.24-15.36-23.04-15.36-40.96 0-17.92 5.12-30.72 15.36-40.96 10.24-10.24 23.04-15.36 40.96-15.36 12.8 0 25.6 2.56 33.28 10.24 7.68 7.68 12.8 15.36 15.36 25.6h-10.24c-2.56-7.68-5.12-15.36-12.8-20.48-5.12-5.12-15.36-7.68-25.6-7.68-12.8 0-25.6 5.12-33.28 12.8-7.68 7.68-12.8 20.48-12.8 33.28s5.12 25.6 12.8 33.28c7.68 7.68 17.92 12.8 33.28 12.8 10.24 0 20.48-2.56 28.16-10.24 7.68-7.68 12.8-15.36 12.8-23.04v-5.12h-33.28V716.8h43.52v56.32H1484.8l-2.56-20.48zM1507.84 734.72h10.24v5.12c0 7.68 2.56 12.8 5.12 17.92 5.12 5.12 10.24 5.12 17.92 5.12 7.68 0 15.36-2.56 17.92-7.68 2.56-5.12 5.12-12.8 5.12-23.04v-71.68h10.24v69.12c0 7.68 0 15.36-2.56 17.92 0 2.56-2.56 7.68-5.12 10.24-2.56 5.12-7.68 7.68-10.24 10.24-5.12 2.56-10.24 2.56-15.36 2.56-10.24 0-20.48-2.56-25.6-7.68-5.12-5.12-7.68-15.36-7.68-25.6v-2.56c0 2.56 0 2.56 0 0zM1602.56 770.56v-107.52h10.24v107.52h-10.24zM1638.4 770.56v-107.52h12.8l76.8 97.28v-97.28h10.24v107.52h-15.36l-74.24-94.72v94.72H1638.4zM1853.44 752.64c-2.56 7.68-10.24 12.8-15.36 15.36-7.68 5.12-15.36 5.12-25.6 5.12-15.36 0-30.72-5.12-40.96-15.36-10.24-10.24-15.36-23.04-15.36-40.96 0-17.92 5.12-30.72 15.36-40.96 10.24-10.24 23.04-15.36 40.96-15.36 12.8 0 25.6 2.56 33.28 10.24 7.68 7.68 12.8 15.36 15.36 25.6h-10.24c-2.56-7.68-5.12-15.36-12.8-20.48-5.12-5.12-15.36-7.68-25.6-7.68-12.8 0-25.6 5.12-33.28 12.8-7.68 7.68-12.8 20.48-12.8 33.28s5.12 25.6 12.8 33.28c7.68 7.68 17.92 12.8 33.28 12.8 10.24 0 20.48-2.56 28.16-10.24 7.68-7.68 12.8-15.36 12.8-23.04v-5.12H1817.6V716.8h43.52v56.32h-7.68v-20.48zM1945.6 760.32h40.96c10.24 0 17.92-2.56 20.48-5.12 5.12-2.56 7.68-7.68 7.68-15.36s-2.56-12.8-5.12-15.36c-5.12-2.56-10.24-5.12-17.92-5.12H1945.6v40.96z m0-51.2h38.4c10.24 0 15.36-2.56 20.48-5.12 5.12-2.56 5.12-7.68 5.12-12.8s-2.56-10.24-5.12-12.8c-5.12-2.56-10.24-5.12-17.92-5.12H1945.6v35.84z m-12.8 61.44v-107.52h51.2c10.24 0 20.48 2.56 25.6 7.68 5.12 5.12 7.68 10.24 7.68 20.48 0 5.12-2.56 10.24-5.12 15.36-2.56 5.12-7.68 7.68-12.8 10.24 7.68 2.56 12.8 5.12 15.36 7.68 2.56 5.12 5.12 10.24 5.12 17.92 0 10.24-2.56 17.92-10.24 23.04-5.12 5.12-15.36 7.68-28.16 7.68h-48.64v-2.56zM2063.36 727.04h48.64l-25.6-53.76-23.04 53.76z m-30.72 43.52l48.64-107.52h12.8l48.64 107.52h-10.24l-15.36-33.28h-58.88l-15.36 33.28h-10.24zM2158.08 770.56v-107.52h12.8l74.24 97.28v-97.28h10.24v107.52h-12.8l-74.24-94.72v94.72h-10.24zM2280.96 770.56v-107.52h10.24v58.88l66.56-58.88h15.36l-51.2 46.08 51.2 61.44h-12.8L2314.24 716.8l-23.04 17.92v35.84h-10.24z" fill="#231815" p-id="4568"></path></svg>