<?xml version="1.0" standalone="no"?><!DOCTYPE svg PUBLIC "-//W3C//DTD SVG 1.1//EN" "http://www.w3.org/Graphics/SVG/1.1/DTD/svg11.dtd"><svg t="1531986240417" class="icon" style="" viewBox="0 0 4096 1024" version="1.1" xmlns="http://www.w3.org/2000/svg" p-id="7272" xmlns:xlink="http://www.w3.org/1999/xlink" width="800" height="200"><defs><style type="text/css"></style></defs><path d="M608.256 190.464c16.384 32.768 32.768 63.488 51.2 92.16 32.768 55.296 69.632 104.448 110.592 151.552-43.008-14.336-79.872-28.672-110.592-47.104-83.968-47.104-120.832-108.544-110.592-182.272-155.648 45.056-305.152 126.976-430.08 249.856l151.552 122.88c96.256-61.44 229.376-98.304 391.168-104.448 36.864 0 77.824-2.048 116.736 0-38.912 10.24-79.872 18.432-116.736 28.672-129.024 32.768-245.76 69.632-352.256 108.544l237.568 194.56c-16.384-102.4 14.336-102.4 45.056-153.6 14.336-24.576 36.864-45.056 67.584-67.584 32.768-22.528 73.728-45.056 122.88-71.68-43.008 59.392-83.968 124.928-122.88 192.512-16.384 28.672-32.768 59.392-47.104 90.112 151.552-65.536 290.816-53.248 415.744 22.528L1474.56 450.56c-241.664-241.664-565.248-325.632-866.304-260.096z m471.04 126.976c-18.432 40.96-81.92 81.92-184.32 102.4v-2.048c59.392-71.68 143.36-151.552 137.216-200.704 30.72 4.096 63.488 65.536 47.104 100.352z m-194.56-83.968c6.144 8.192 8.192 18.432 10.24 26.624 2.048 10.24 2.048 20.48 0 30.72-6.144 43.008-36.864 86.016-28.672 126.976 0 6.144-178.176-131.072 18.432-184.32z m114.688 522.24c-63.488-59.392-59.392-147.456-104.448-196.608-16.384-18.432-36.864-28.672-69.632-34.816 22.528-8.192 47.104-12.288 69.632-12.288 110.592 0 192.512 94.208 104.448 243.712z m303.104-188.416c-8.192-14.336-34.816-51.2-110.592-73.728-59.392-18.432-153.6-26.624-294.912-22.528 0 0-8.192-2.048 0-6.144h6.144c83.968-18.432 372.736-71.68 405.504 43.008v45.056c-4.096 6.144-4.096 10.24-6.144 14.336z" fill="#04017C" p-id="7273"></path><path d="M776.192 473.088c-40.96-2.048-79.872 0-116.736 0-229.376 10.24-399.36 79.872-493.568 194.56 139.264-61.44 305.152-116.736 493.568-165.888 36.864-10.24 77.824-18.432 116.736-28.672zM589.824 653.312c-38.912 63.488-75.776 47.104-24.576 247.808 28.672-69.632 59.392-133.12 94.208-192.512 38.912-69.632 79.872-133.12 122.88-192.512-49.152 24.576-90.112 47.104-122.88 71.68-30.72 18.432-53.248 40.96-69.632 65.536zM657.408 387.072c30.72 16.384 67.584 32.768 110.592 47.104-40.96-47.104-75.776-96.256-110.592-151.552-30.72-51.2-59.392-104.448-83.968-159.744-57.344 112.64-28.672 200.704 83.968 264.192zM894.976 417.792c102.4-18.432 165.888-59.392 184.32-100.352 16.384-34.816-16.384-96.256-47.104-100.352 6.144 51.2-77.824 131.072-137.216 200.704zM901.12 464.896h-6.144c-8.192 4.096 0 6.144 0 6.144 143.36-2.048 235.52 6.144 294.912 22.528 77.824 22.528 102.4 59.392 110.592 73.728 2.048-4.096 2.048-8.192 4.096-14.336v-45.056c-30.72-112.64-319.488-61.44-403.456-43.008zM894.976 512c-22.528 0-47.104 4.096-69.632 12.288 32.768 4.096 53.248 16.384 69.632 34.816 45.056 49.152 40.96 139.264 104.448 196.608 88.064-149.504 6.144-243.712-104.448-243.712zM866.304 417.792c-8.192-40.96 22.528-83.968 28.672-126.976 2.048-10.24 2.048-22.528 0-30.72-2.048-8.192-4.096-18.432-10.24-26.624-196.608 53.248-18.432 190.464-18.432 184.32z" fill="#FFF100" p-id="7274"></path><path d="M2316.288 612.352c-2.048-28.672-2.048-83.968-2.048-165.888l16.384-12.288-32.768-24.576-14.336 22.528H2129.92l-28.672-16.384c0 22.528 2.048 55.296 2.048 102.4 0 45.056 0 86.016-2.048 120.832l28.672-14.336v-28.672h157.696v38.912l28.672-22.528z m-100.352-34.816H2129.92v-135.168h157.696v135.168h-71.68zM1929.216 788.48c22.528-8.192 34.816-18.432 34.816-36.864 0-10.24-4.096-18.432-12.288-22.528-8.192-6.144-18.432-8.192-30.72-8.192h-47.104v139.264h51.2c14.336 0 26.624-2.048 32.768-8.192 8.192-6.144 12.288-14.336 12.288-24.576-2.048-20.48-14.336-32.768-40.96-38.912z m-28.672-47.104h20.48c4.096 0 6.144 2.048 8.192 2.048 4.096 2.048 6.144 8.192 6.144 14.336 0 8.192-2.048 12.288-8.192 16.384-2.048 2.048-4.096 4.096-8.192 4.096s-8.192 2.048-12.288 2.048h-6.144v-38.912z m30.72 96.256c-2.048 2.048-6.144 2.048-12.288 2.048h-20.48v-40.96h4.096c6.144 0 10.24 0 14.336 2.048 4.096 2.048 6.144 4.096 10.24 6.144 6.144 4.096 8.192 10.24 8.192 18.432 2.048 6.144 0 10.24-4.096 12.288zM2064.384 720.896h-24.576l-55.296 139.264h22.528l14.336-36.864H2080.768l14.336 36.864h28.672l-53.248-139.264h-6.144z m0 83.968h-36.864l22.528-55.296 14.336 32.768 8.192 22.528h-8.192zM2244.608 817.152l-28.672-43.008-36.864-53.248h-24.576v141.312h22.528v-96.256l38.912 55.296 26.624 40.96h24.576v-141.312h-22.528zM2418.688 720.896h-24.576l-53.248 69.632v-69.632h-28.672v141.312h28.672v-69.632l51.2 69.632h36.864l-59.392-77.824zM3598.336 256c8.192-8.192 14.336-16.384 22.528-24.576 24.576-26.624 40.96-43.008 51.2-45.056l-36.864-28.672c-6.144 18.432-18.432 38.912-34.816 63.488-2.048 2.048-4.096 6.144-6.144 8.192-20.48 28.672-43.008 55.296-65.536 77.824l4.096 6.144c22.528-18.432 47.104-36.864 65.536-57.344zM2646.016 327.68c8.192 36.864 20.48 47.104 32.768 30.72 12.288-16.384 16.384-36.864 10.24-55.296-4.096-16.384-32.768-55.296-83.968-112.64-6.144-8.192-12.288-14.336-18.432-22.528l-6.144 6.144c10.24 16.384 18.432 32.768 24.576 47.104 20.48 43.008 34.816 77.824 40.96 106.496zM3788.8 223.232h176.128l-36.864-40.96-28.672 28.672h-180.224l18.432 18.432c14.336-4.096 32.768-6.144 51.2-6.144zM2052.096 528.384c-30.72 8.192-55.296 16.384-75.776 22.528-16.384 4.096-34.816 8.192-57.344 14.336-10.24 2.048-20.48 6.144-32.768 8.192l24.576 38.912 8.192-8.192 6.144-8.192c45.056-22.528 88.064-40.96 126.976-57.344 4.096-2.048 8.192-2.048 14.336-4.096l6.144-2.048-2.048-8.192h-2.048l-16.384 4.096zM1918.976 356.352c4.096-2.048 10.24-4.096 14.336-6.144 12.288-4.096 30.72-8.192 57.344-10.24-28.672 43.008-49.152 73.728-61.44 88.064-4.096 4.096-6.144 8.192-8.192 10.24-10.24 10.24-20.48 14.336-28.672 18.432l26.624 43.008c12.288-12.288 30.72-22.528 59.392-32.768s51.2-18.432 73.728-22.528h4.096l-2.048-8.192h-2.048c-32.768 6.144-73.728 14.336-122.88 20.48 43.008-55.296 71.68-94.208 88.064-116.736 10.24-14.336 22.528-28.672 34.816-43.008 4.096-4.096 8.192-8.192 14.336-12.288 2.048 0 4.096-2.048 6.144-4.096l-6.144-4.096-14.336-10.24-16.384-14.336c-12.288 24.576-24.576 51.2-38.912 73.728l-77.824 6.144h-14.336c4.096-6.144 8.192-14.336 14.336-20.48 22.528-32.768 38.912-59.392 51.2-79.872 14.336-24.576 28.672-38.912 40.96-43.008l-40.96-26.624c-8.192 26.624-22.528 61.44-45.056 102.4-2.048 4.096-6.144 8.192-8.192 12.288-18.432 34.816-34.816 51.2-47.104 53.248l22.528 43.008c10.24-6.144 18.432-12.288 26.624-16.384z" fill="#080059" p-id="7275"></path><path d="M2082.816 210.944c14.336-4.096 32.768-6.144 51.2-6.144h22.528c-4.096 53.248-12.288 94.208-26.624 126.976-12.288 28.672-34.816 59.392-65.536 88.064l-6.144 6.144 4.096 6.144c47.104-34.816 77.824-67.584 94.208-100.352 14.336-34.816 24.576-75.776 28.672-124.928h104.448c-6.144 92.16-10.24 143.36-14.336 149.504-4.096 6.144-10.24 8.192-20.48 8.192-8.192 0-22.528-2.048-40.96-4.096l-12.288-2.048-2.048 8.192c4.096 0 8.192 2.048 14.336 4.096 28.672 10.24 40.96 22.528 40.96 38.912 14.336-4.096 28.672-10.24 36.864-20.48 10.24-8.192 16.384-28.672 18.432-61.44 4.096-32.768 6.144-71.68 8.192-114.688l16.384-14.336-36.864-24.576-14.336 22.528h-223.232l22.528 14.336zM2521.088 317.44c6.144 16.384 10.24 34.816 14.336 49.152 6.144 24.576 14.336 30.72 28.672 16.384 12.288-14.336 16.384-32.768 12.288-53.248-4.096-14.336-22.528-43.008-53.248-79.872-14.336-16.384-28.672-34.816-49.152-55.296l-6.144 6.144c16.384 24.576 28.672 53.248 43.008 83.968 2.048 10.24 6.144 22.528 10.24 32.768zM2603.008 491.52c8.192-4.096 14.336-8.192 20.48-10.24l-20.48-14.336-26.624-22.528c-8.192 20.48-22.528 47.104-45.056 79.872-2.048 4.096-6.144 8.192-10.24 14.336-22.528 28.672-51.2 63.488-92.16 102.4l6.144 6.144c34.816-26.624 61.44-51.2 86.016-71.68l36.864-36.864c16.384-22.528 32.768-36.864 45.056-47.104zM3575.808 788.48l22.528-36.864 20.48-30.72h-24.576l-30.72 47.104-28.672-47.104H3502.08l43.008 71.68-45.056 69.632h22.528l32.768-51.2 30.72 51.2H3620.864l-22.528-34.816zM3649.536 720.896h28.672v139.264h-28.672zM3627.008 366.592c12.288-14.336 28.672-36.864 45.056-63.488l14.336-8.192 4.096-2.048-4.096-6.144-30.72-26.624c-14.336 32.768-32.768 65.536-59.392 100.352-2.048 2.048-2.048 4.096-4.096 6.144-26.624 36.864-55.296 69.632-86.016 100.352l4.096 6.144c28.672-20.48 57.344-43.008 86.016-73.728 2.048-4.096 6.144-6.144 8.192-10.24 0 141.312 0 227.328-2.048 258.048l30.72-18.432v-231.424l12.288-12.288-18.432-18.432zM3405.824 716.8c-22.528 0-38.912 8.192-51.2 20.48-12.288 14.336-18.432 30.72-18.432 53.248s6.144 40.96 18.432 53.248c12.288 14.336 28.672 20.48 51.2 20.48s38.912-6.144 51.2-20.48c12.288-12.288 18.432-30.72 18.432-53.248s-6.144-40.96-18.432-53.248c-12.288-12.288-28.672-20.48-51.2-20.48z m30.72 114.688c-8.192 10.24-16.384 14.336-28.672 14.336-12.288 0-22.528-6.144-28.672-14.336-8.192-10.24-10.24-22.528-10.24-38.912 0-16.384 4.096-28.672 10.24-38.912 8.192-10.24 16.384-14.336 28.672-14.336 12.288 0 22.528 4.096 28.672 14.336 8.192 10.24 12.288 22.528 12.288 38.912-2.048 16.384-6.144 28.672-12.288 38.912zM3813.376 817.152l-63.488-96.256h-26.624v141.312h22.528v-96.256l65.536 96.256h26.624v-141.312h-24.576zM2603.008 716.8c-22.528 0-38.912 8.192-51.2 20.48-14.336 14.336-20.48 30.72-20.48 53.248s6.144 40.96 18.432 53.248c14.336 14.336 30.72 20.48 51.2 20.48 22.528 0 38.912-6.144 51.2-20.48 14.336-12.288 20.48-30.72 20.48-53.248s-6.144-40.96-20.48-53.248c-10.24-12.288-26.624-20.48-49.152-20.48z m30.72 114.688c-8.192 10.24-16.384 14.336-28.672 14.336-12.288 0-22.528-6.144-28.672-14.336-8.192-10.24-10.24-22.528-10.24-38.912 0-16.384 4.096-28.672 10.24-38.912 8.192-10.24 16.384-14.336 28.672-14.336 12.288 0 22.528 4.096 28.672 14.336 8.192 10.24 10.24 22.528 10.24 38.912 0 16.384-4.096 28.672-10.24 38.912z" fill="#080059" p-id="7276"></path><path d="M3956.736 307.2l-32.768 28.672h-243.712l6.144 6.144 14.336 14.336c14.336-4.096 32.768-6.144 51.2-6.144h79.872v215.04c0 16.384-6.144 24.576-18.432 24.576-12.288 0-38.912 0-75.776-4.096v10.24c47.104 12.288 71.68 26.624 71.68 47.104 36.864-8.192 53.248-28.672 53.248-67.584V348.16H3993.6l-36.864-40.96zM3414.016 630.784c8.192-16.384 20.48-26.624 40.96-26.624v-8.192c-16.384-2.048-32.768-8.192-47.104-14.336-36.864-14.336-67.584-38.912-94.208-71.68 36.864-22.528 69.632-38.912 94.208-51.2 14.336-6.144 24.576-8.192 34.816-10.24l-30.72-38.912-4.096 4.096c-12.288 14.336-26.624 28.672-43.008 43.008l-55.296 43.008c-18.432-28.672-32.768-63.488-40.96-106.496h94.208v20.48l30.72-12.288c0-32.768-2.048-96.256-2.048-190.464l14.336-14.336 4.096-2.048-4.096-2.048-32.768-22.528-14.336 22.528H3209.216l-28.672-18.432c2.048 26.624 2.048 47.104 2.048 59.392v342.016c2.048 12.288 0 22.528-8.192 28.672l28.672 32.768c6.144-14.336 18.432-28.672 40.96-49.152 12.288-12.288 26.624-22.528 45.056-36.864l-4.096-6.144-40.96 22.528-32.768 16.384v-190.464h47.104c6.144 53.248 20.48 98.304 43.008 137.216 22.528 34.816 57.344 65.536 106.496 94.208 0 4.096 2.048 6.144 6.144 6.144z m-204.8-421.888h153.6v81.92h-153.6v-81.92z m32.768 176.128h-32.768v-79.872h153.6v79.872h-120.832zM3891.2 737.28c-14.336 14.336-20.48 30.72-20.48 55.296 0 24.576 6.144 43.008 20.48 55.296 12.288 12.288 30.72 18.432 55.296 18.432 12.288 0 28.672-2.048 45.056-6.144v-61.44h-28.672v47.104h-12.288c-14.336 0-26.624-4.096-36.864-14.336-8.192-8.192-12.288-22.528-12.288-38.912 0-16.384 4.096-30.72 12.288-40.96 8.192-8.192 20.48-14.336 34.816-14.336 10.24 0 24.576 2.048 43.008 8.192v-22.528c-14.336-4.096-30.72-6.144-45.056-6.144-22.528 0-40.96 8.192-55.296 20.48zM2816 419.84H2723.84c43.008-73.728 71.68-124.928 88.064-155.648 16.384-30.72 32.768-51.2 47.104-57.344l-55.296-36.864c-10.24 38.912-20.48 73.728-30.72 104.448-12.288 30.72-32.768 79.872-63.488 145.408h-290.816l18.432 18.432c14.336-4.096 32.768-6.144 51.2-6.144h413.696l-49.152-49.152-36.864 36.864zM2701.312 460.8l-6.144 8.192c65.536 65.536 104.448 110.592 116.736 139.264 14.336 28.672 24.576 36.864 34.816 22.528s12.288-30.72 8.192-51.2c-4.096-18.432-55.296-59.392-153.6-118.784zM2709.504 862.208h28.672v-59.392h49.152v-20.48h-49.152v-40.96h59.392v-20.48h-88.064zM3168.256 266.24l-36.864-36.864-24.576 24.576h-57.344c6.144-14.336 12.288-28.672 16.384-40.96 6.144-12.288 14.336-22.528 26.624-26.624l-45.056-26.624c-24.576 96.256-53.248 172.032-90.112 227.328l6.144 4.096c14.336-16.384 28.672-30.72 36.864-43.008h43.008v83.968h-79.872l18.432 18.432c14.336-4.096 32.768-6.144 51.2-6.144h10.24v114.688c2.048 14.336-2.048 24.576-10.24 30.72l26.624 34.816c4.096-14.336 36.864-47.104 94.208-94.208l-4.096-6.144-77.824 40.96v-118.784h94.208L3133.44 409.6l-28.672 22.528H3072V348.16h83.968l-34.816-38.912-28.672 26.624h-88.064c12.288-18.432 24.576-43.008 38.912-69.632h124.928zM3241.984 720.896h-10.24l-55.296 139.264h22.528l14.336-36.864h57.344l14.336 36.864h30.72l-55.296-139.264h-18.432z m0 83.968h-22.528l22.528-55.296 22.528 55.296h-22.528zM2961.408 778.24l-10.24-6.144c-8.192-4.096-12.288-8.192-14.336-10.24-2.048-2.048-4.096-6.144-4.096-10.24s2.048-8.192 6.144-12.288c4.096-2.048 8.192-4.096 14.336-4.096 8.192 0 20.48 2.048 34.816 8.192v-22.528c-14.336-4.096-26.624-6.144-36.864-6.144-14.336 0-24.576 4.096-34.816 10.24-8.192 8.192-12.288 16.384-12.288 28.672 0 8.192 2.048 16.384 8.192 22.528 4.096 6.144 14.336 14.336 26.624 20.48l10.24 6.144c8.192 4.096 12.288 8.192 14.336 10.24 2.048 4.096 4.096 8.192 4.096 12.288 0 6.144-2.048 10.24-8.192 14.336-4.096 4.096-10.24 6.144-16.384 6.144-10.24 0-24.576-4.096-38.912-10.24v24.576c14.336 4.096 28.672 4.096 38.912 4.096 16.384 0 30.72-4.096 40.96-10.24 8.192-8.192 14.336-18.432 14.336-30.72 0-8.192-2.048-16.384-8.192-22.528-4.096-6.144-14.336-14.336-28.672-22.528zM3119.104 778.24h-57.344v-57.344H3031.04v141.312h30.72v-65.536h57.344v65.536h28.672v-141.312h-28.672z" fill="#080059" p-id="7277"></path></svg>