<?xml version="1.0" standalone="no"?><!DOCTYPE svg PUBLIC "-//W3C//DTD SVG 1.1//EN" "http://www.w3.org/Graphics/SVG/1.1/DTD/svg11.dtd"><svg t="1531986173192" class="icon" style="" viewBox="0 0 2560 1024" version="1.1" xmlns="http://www.w3.org/2000/svg" p-id="4447" xmlns:xlink="http://www.w3.org/1999/xlink" width="500" height="200"><defs><style type="text/css"></style></defs><path d="M186.88 583.68v-102.4H148.48V460.8h104.96v20.48H212.48v102.4h-25.6zM268.8 583.68v-125.44h56.32c12.8 0 23.04 0 30.72 2.56 5.12 2.56 10.24 5.12 15.36 12.8 2.56 5.12 5.12 12.8 5.12 20.48 0 10.24-2.56 17.92-7.68 23.04-5.12 5.12-15.36 10.24-25.6 10.24 5.12 2.56 10.24 7.68 15.36 10.24 2.56 2.56 7.68 10.24 15.36 20.48l15.36 23.04H358.4l-17.92-28.16c-7.68-10.24-10.24-15.36-12.8-17.92-2.56-2.56-5.12-5.12-7.68-5.12-2.56 0-7.68-2.56-12.8-2.56h-5.12v51.2h-33.28z m25.6-71.68h20.48c12.8 0 20.48 0 23.04-2.56 2.56 0 5.12-2.56 7.68-5.12 2.56-2.56 2.56-5.12 2.56-10.24s0-7.68-2.56-10.24c-2.56-2.56-5.12-5.12-10.24-5.12h-40.96V512zM483.84 537.6l25.6 7.68c-5.12 12.8-10.24 23.04-20.48 30.72-10.24 7.68-20.48 10.24-35.84 10.24-17.92 0-30.72-5.12-43.52-17.92-10.24-10.24-17.92-25.6-17.92-46.08s5.12-35.84 17.92-48.64a62.8736 62.8736 0 0 1 81.92-5.12c5.12 5.12 10.24 12.8 12.8 23.04l-25.6 5.12c-2.56-7.68-5.12-12.8-10.24-15.36-5.12-2.56-10.24-5.12-17.92-5.12-10.24 0-17.92 2.56-23.04 10.24-5.12 7.68-10.24 17.92-10.24 33.28 0 15.36 2.56 28.16 7.68 33.28 5.12 7.68 12.8 10.24 23.04 10.24 7.68 0 12.8-2.56 17.92-5.12 12.8-5.12 15.36-10.24 17.92-20.48zM788.48 458.24h74.24c5.12 0 10.24 2.56 12.8 5.12 5.12 2.56 7.68 5.12 10.24 10.24 2.56 5.12 5.12 10.24 5.12 15.36 0 5.12-2.56 10.24-5.12 15.36-2.56 5.12-7.68 7.68-12.8 10.24 7.68 2.56 15.36 5.12 17.92 10.24 5.12 5.12 7.68 12.8 7.68 17.92 0 5.12-2.56 10.24-5.12 15.36-2.56 5.12-7.68 10.24-10.24 12.8-5.12 2.56-10.24 5.12-17.92 5.12h-74.24v-117.76z m25.6 23.04v28.16h38.4c5.12 0 7.68-2.56 10.24-5.12 2.56-2.56 5.12-5.12 5.12-10.24s0-7.68-2.56-10.24c-2.56-2.56-5.12-5.12-10.24-5.12h-40.96z m0 48.64V563.2h43.52c5.12 0 7.68-2.56 10.24-5.12 2.56-2.56 2.56-5.12 2.56-10.24 0-2.56 0-7.68-2.56-10.24-2.56-2.56-5.12-5.12-7.68-5.12-2.56 0-10.24-2.56-23.04-2.56h-23.04zM1036.8 583.68h-28.16l-10.24-28.16h-51.2l-10.24 28.16h-28.16l51.2-125.44h28.16l48.64 125.44z m-48.64-48.64l-17.92-46.08-17.92 46.08h35.84zM1052.16 583.68v-125.44h25.6l53.76 81.92v-81.92h25.6v125.44h-25.6L1075.2 501.76v81.92h-23.04zM1185.28 583.68v-125.44h25.6v56.32l53.76-56.32h35.84l-48.64 48.64 51.2 76.8h-33.28l-35.84-58.88-20.48 20.48v38.4h-28.16z" fill="" p-id="4448"></path><path d="M1382.4 499.2h58.88c0-7.68 2.56-17.92 2.56-28.16h-53.76v-20.48h130.56v20.48h-53.76c0 7.68 0 17.92-2.56 28.16h64v20.48h-58.88c10.24 25.6 30.72 43.52 58.88 51.2-5.12 5.12-10.24 12.8-17.92 20.48-25.6-10.24-46.08-30.72-58.88-58.88-10.24 23.04-28.16 43.52-56.32 58.88-5.12-5.12-10.24-10.24-17.92-20.48 33.28-15.36 51.2-30.72 56.32-51.2h-51.2v-20.48zM1569.28 483.84c7.68 5.12 15.36 12.8 25.6 20.48l-12.8 15.36c-7.68-7.68-15.36-15.36-23.04-20.48l10.24-15.36z m2.56 43.52l20.48 7.68c-5.12 17.92-10.24 38.4-12.8 56.32-7.68-2.56-15.36-5.12-20.48-5.12 2.56-15.36 7.68-33.28 12.8-58.88z m2.56-81.92c10.24 7.68 17.92 12.8 25.6 17.92l-12.8 15.36c-7.68-7.68-15.36-12.8-23.04-20.48l10.24-12.8z m61.44-2.56h20.48v12.8h40.96v25.6h10.24v15.36h-10.24v25.6h-40.96v10.24h40.96v15.36h-40.96v10.24h48.64v15.36h-48.64v20.48h-20.48v-20.48h-43.52v-15.36h43.52v-10.24h-38.4v-15.36h38.4v-10.24h-33.28v-15.36h33.28v-10.24h-43.52v-15.36h43.52v-10.24h-33.28v-15.36h33.28v-12.8z m40.96 25.6h-20.48v10.24h20.48v-10.24z m0 35.84v-10.24h-20.48v10.24h20.48zM1802.24 442.88l23.04 2.56c0 5.12-2.56 10.24-2.56 15.36h56.32v33.28h-20.48v-15.36H1817.6v2.56c2.56 15.36 7.68 28.16 15.36 38.4 12.8-10.24 23.04-17.92 30.72-23.04l15.36 17.92c-5.12 2.56-15.36 10.24-33.28 20.48 10.24 10.24 25.6 20.48 43.52 25.6-2.56 5.12-7.68 10.24-12.8 20.48-33.28-15.36-56.32-43.52-69.12-79.36-2.56 5.12-7.68 10.24-10.24 15.36V563.2c15.36-5.12 25.6-7.68 33.28-10.24v23.04c-25.6 7.68-43.52 12.8-51.2 17.92l-10.24-17.92c5.12-5.12 7.68-12.8 7.68-23.04v-10.24c-7.68 7.68-15.36 15.36-25.6 20.48-2.56-7.68-7.68-15.36-12.8-20.48 25.6-15.36 46.08-35.84 56.32-61.44h-25.6v20.48h-20.48V460.8h53.76c-2.56-7.68-2.56-12.8 0-17.92zM1912.32 455.68H1971.2l-2.56-12.8h25.6l2.56 12.8h61.44v15.36h-143.36v-15.36zM1920 486.4h30.72l-7.68-10.24h25.6l7.68 10.24h20.48c2.56-5.12 7.68-7.68 7.68-10.24h25.6l-10.24 10.24h30.72v76.8c0 7.68-2.56 12.8-5.12 17.92-2.56 5.12-7.68 7.68-10.24 7.68-5.12 0-15.36 2.56-30.72 2.56-2.56-7.68-2.56-15.36-5.12-17.92h17.92c10.24 0 12.8-5.12 12.8-12.8v-28.16l-2.56 5.12-10.24-7.68v38.4h-43.52v7.68h-17.92v-43.52l-10.24 7.68s-2.56-2.56-5.12-7.68v58.88H1920V486.4z m48.64 17.92l10.24 12.8c-5.12 2.56-7.68 5.12-12.8 10.24h38.4l-12.8-10.24 10.24-10.24c10.24 5.12 20.48 12.8 30.72 17.92v-20.48h-92.16v20.48c10.24-7.68 17.92-15.36 28.16-20.48z m28.16 48.64v-12.8h-23.04v12.8h23.04zM2140.16 478.72h-28.16c-2.56 2.56-2.56 7.68-5.12 10.24h28.16v17.92H2124.8v15.36h15.36v15.36H2124.8v23.04c5.12-2.56 7.68-5.12 12.8-7.68 0 5.12 0 12.8 2.56 20.48-17.92 10.24-25.6 17.92-28.16 20.48l-12.8-17.92c2.56-2.56 5.12-7.68 5.12-12.8v-25.6h-17.92v-17.92h17.92v-15.36H2099.2c-2.56 2.56-5.12 7.68-7.68 10.24-2.56-10.24-5.12-17.92-5.12-23.04 7.68-15.36 15.36-33.28 17.92-48.64 12.8 2.56 17.92 5.12 17.92 5.12-2.56 5.12-2.56 10.24-5.12 15.36h23.04v15.36z m81.92 48.64l12.8 15.36-25.6 12.8c7.68 5.12 17.92 10.24 28.16 12.8-5.12 7.68-7.68 12.8-12.8 20.48-15.36-5.12-25.6-12.8-35.84-20.48v10.24c-20.48 5.12-33.28 12.8-40.96 15.36l-10.24-15.36c2.56-5.12 5.12-10.24 5.12-15.36v-112.64H2227.2v79.36h-5.12z m-12.8-58.88h-43.52v12.8h43.52v-12.8z m0 40.96v-12.8h-43.52v12.8h43.52z m-38.4 17.92h-5.12v38.4c5.12-2.56 12.8-5.12 17.92-7.68-5.12-7.68-10.24-17.92-12.8-30.72z m51.2 0h-30.72c2.56 5.12 5.12 12.8 7.68 15.36l23.04-15.36zM2304 481.28l17.92 10.24c-5.12 7.68-10.24 12.8-15.36 17.92V588.8h-20.48v-56.32c-5.12 5.12-10.24 7.68-15.36 12.8-2.56-5.12-5.12-12.8-7.68-20.48 15.36-12.8 28.16-25.6 40.96-43.52z m-2.56-38.4c7.68 5.12 12.8 7.68 17.92 12.8-10.24 12.8-25.6 25.6-40.96 38.4-2.56-5.12-7.68-12.8-12.8-17.92 15.36-12.8 25.6-23.04 35.84-33.28z m20.48 53.76h89.6v20.48h-23.04V563.2c0 7.68-2.56 15.36-5.12 17.92-2.56 5.12-7.68 7.68-15.36 7.68h-30.72c-2.56-7.68-2.56-12.8-5.12-20.48h25.6c7.68 0 10.24-5.12 10.24-12.8V512h-43.52v-15.36z m5.12-43.52H2406.4v20.48h-79.36v-20.48z" fill="" p-id="4449"></path><path d="M765.44 512c0-64-51.2-115.2-112.64-115.2-43.52 0-76.8 35.84-76.8 76.8 0 35.84 28.16 64 64 64 7.68 0 15.36-2.56 20.48-5.12-23.04 0-40.96-17.92-40.96-40.96 0-23.04 17.92-40.96 40.96-40.96 46.08 0 81.92 35.84 81.92 81.92 0 38.4-23.04 74.24-53.76 92.16 43.52-17.92 76.8-61.44 76.8-112.64zM650.24 396.8z" fill="#EA5603" p-id="4450"></path><path d="M532.48 512c0 64 51.2 115.2 112.64 115.2 43.52 0 76.8-35.84 76.8-76.8 0-35.84-28.16-64-64-64-7.68 0-15.36 2.56-20.48 5.12 23.04 0 40.96 17.92 40.96 40.96 0 23.04-17.92 40.96-40.96 40.96-46.08 0-81.92-35.84-81.92-81.92 0-38.4 23.04-74.24 53.76-92.16-46.08 17.92-76.8 61.44-76.8 112.64zM645.12 627.2z" fill="#EA5603" p-id="4451"></path></svg>