<?xml version="1.0" standalone="no"?><!DOCTYPE svg PUBLIC "-//W3C//DTD SVG 1.1//EN" "http://www.w3.org/Graphics/SVG/1.1/DTD/svg11.dtd"><svg t="1531986166933" class="icon" style="" viewBox="0 0 2560 1024" version="1.1" xmlns="http://www.w3.org/2000/svg" p-id="4211" xmlns:xlink="http://www.w3.org/1999/xlink" width="500" height="200"><defs><style type="text/css"></style></defs><path d="M2112 693.76V460.8l40.96-40.96 33.28 35.84-35.84 35.84v202.24h-38.4zM2112 427.52l66.56-64-35.84-35.84-30.72 33.28v66.56zM2188.8 463.36H2406.4V512h-56.32v120.32c0 17.92-5.12 35.84-12.8 46.08-7.68 10.24-20.48 17.92-38.4 17.92h-87.04v-48.64h61.44c17.92 0 25.6-7.68 25.6-28.16V512h-107.52v-48.64h-2.56zM2201.6 360.96h189.44V409.6H2201.6z" fill="#080059" p-id="4212"></path><path d="M2112 360.96v66.56l-30.72 30.72-33.28-35.84 64-61.44zM2112 460.8v232.96h-15.36v-151.04l-35.84 35.84-33.28-33.28 84.48-84.48zM1891.84 693.76v-46.08h10.24v46.08h-10.24zM1891.84 606.72l58.88 87.04h66.56L1971.2 627.2l40.96-40.96-33.28-33.28-35.84 35.84-33.28-48.64h79.36v-186.88h-97.28v43.52h48.64v30.72h-48.64v38.4h48.64v30.72h-48.64z" fill="#080059" p-id="4213"></path><path d="M1891.84 353.28v43.52h-51.2v30.72h51.2v40.96h-51.2v30.72h51.2v112.64L1843.2 540.16v79.36c0 20.48 10.24 28.16 25.6 28.16h20.48v46.08h-35.84c-46.08 0-64-20.48-64-61.44v-281.6l102.4 2.56zM1433.6 529.92v-2.56 2.56zM1433.6 494.08v199.68h48.64l-2.56-243.2 25.6 92.16 40.96-12.8v163.84h48.64V340.48h-48.64v184.32l-25.6-92.16-40.96 10.24v-99.84H1433.6v151.04zM1633.28 501.76l61.44-166.4 43.52 15.36-10.24 28.16h53.76v40.96H1715.2l-10.24 25.6h66.56V486.4H1740.8v35.84h38.4V563.2H1740.8v58.88c0 12.8 12.8 20.48 20.48 20.48h20.48v46.08h-43.52c-20.48 0-43.52-25.6-43.52-46.08v-81.92h-40.96v-40.96h40.96v-35.84H1689.6l-10.24 28.16-46.08-10.24zM1433.6 343.04v151.04-151.04zM1433.6 527.36v-2.56l-25.6-92.16-40.96 10.24v-99.84h-48.64v204.8c0 25.6 0 51.2-25.6 102.4v46.08h23.04c20.48-20.48 48.64-76.8 48.64-148.48v-99.84l25.6 94.72 40.96-12.8v-2.56h2.56z" fill="#080059" p-id="4214"></path><path d="M1295.36 532.48V435.2l23.04 7.68zM1295.36 435.2v97.28l-2.56 10.24-43.52-12.8 25.6-99.84 20.48 5.12zM1295.36 647.68v46.08h-23.04c7.68-17.92 15.36-33.28 23.04-46.08zM1036.8 693.76v-46.08H1126.4c5.12 0 10.24-5.12 10.24-10.24v-58.88c0-5.12-5.12-10.24-10.24-10.24h-87.04v-46.08h99.84c23.04 0 48.64 25.6 48.64 48.64v71.68c0 23.04-25.6 48.64-48.64 48.64h-102.4v2.56zM1036.8 499.2v-48.64h92.16l-30.72-38.4 38.4-33.28 89.6 107.52-38.4 33.28-17.92-20.48zM1036.8 450.56v48.64h-145.92l-33.28-33.28 135.68-135.68 33.28 33.28-87.04 87.04h97.28zM1036.8 522.24v46.08h-87.04c-5.12 0-10.24 5.12-10.24 10.24v58.88c0 5.12 5.12 10.24 10.24 10.24h87.04v46.08h-97.28c-23.04 0-48.64-25.6-48.64-48.64v-71.68c0-23.04 25.6-48.64 48.64-48.64h97.28z" fill="#080059" p-id="4215"></path><path d="M348.16 785.92c-107.52 5.12-194.56-76.8-194.56-181.76h128l53.76 53.76 56.32-53.76h128c0 104.96-87.04 176.64-171.52 181.76zM153.6 432.64c5.12 87.04 76.8 171.52 184.32 171.52v-128L281.6 419.84l56.32-56.32v-128C230.4 238.08 148.48 325.12 153.6 432.64z m355.84-194.56c107.52-5.12 194.56 76.8 194.56 181.76h-128l-56.32-53.76-53.76 53.76h-128c0-104.96 84.48-176.64 171.52-181.76z m192 353.28c-5.12-87.04-76.8-171.52-184.32-171.52v128l53.76 56.32-53.76 53.76v128c107.52 0 189.44-87.04 184.32-194.56z" fill="#7ECEF4" p-id="4216"></path><path d="M399.36 458.24h58.88c15.36 0 25.6 12.8 25.6 25.6v58.88c0 12.8-10.24 25.6-25.6 25.6h-58.88c-12.8 0-25.6-12.8-25.6-25.6v-58.88c0-15.36 10.24-25.6 25.6-25.6z" fill="#FDD000" p-id="4217"></path></svg>