<?xml version="1.0" standalone="no"?><!DOCTYPE svg PUBLIC "-//W3C//DTD SVG 1.1//EN" "http://www.w3.org/Graphics/SVG/1.1/DTD/svg11.dtd"><svg t="1531986139351" class="icon" style="" viewBox="0 0 2560 1024" version="1.1" xmlns="http://www.w3.org/2000/svg" p-id="2845" xmlns:xlink="http://www.w3.org/1999/xlink" width="500" height="200"><defs><style type="text/css"></style></defs><path d="M294.4 540.16c0-30.72 107.52-30.72 107.52-46.08 0-17.92-168.96-20.48-168.96-48.64s99.84-25.6 99.84-40.96c0-15.36-76.8-17.92-99.84-20.48-25.6 35.84-40.96 81.92-40.96 128 0 122.88 99.84 220.16 220.16 220.16 76.8 0 145.92-38.4 184.32-99.84-61.44-7.68-302.08-43.52-302.08-92.16z" fill="#00A242" p-id="2846"></path><path d="M396.8 401.92c0 25.6-97.28 23.04-97.28 35.84 0 17.92 192 20.48 192 56.32 0 28.16-97.28 30.72-97.28 43.52 0 15.36 194.56 33.28 230.4 35.84 5.12-20.48 7.68-40.96 7.68-61.44 0-122.88-99.84-220.16-220.16-220.16-71.68 0-133.12 33.28-174.08 84.48 35.84 0 158.72 5.12 158.72 25.6z" fill="#00549D" p-id="2847"></path><path d="M829.44 509.44c2.56 0 2.56-2.56 5.12-2.56l7.68-7.68c2.56-2.56 7.68-7.68 10.24-15.36l2.56-2.56 2.56-5.12c2.56-5.12 2.56-10.24 2.56-20.48v-17.92-5.12s2.56-2.56 5.12-2.56 7.68-2.56 15.36-7.68c7.68-2.56 12.8-5.12 15.36-5.12 2.56 0 7.68 0 12.8 2.56s7.68 2.56 10.24 5.12V432.64l-2.56 2.56s-2.56 2.56-2.56 5.12c-2.56 2.56-2.56 7.68-2.56 15.36V478.72c0 7.68 2.56 12.8 5.12 17.92 2.56 5.12 10.24 7.68 23.04 7.68 5.12 0 10.24 0 15.36-2.56s5.12-5.12 7.68-7.68c2.56-2.56 2.56-10.24 5.12-17.92 0-7.68 0-12.8 2.56-15.36V445.44v-2.56c0-2.56 0-2.56 2.56-2.56h2.56s0 2.56 2.56 5.12l2.56 5.12c0 2.56 2.56 2.56 2.56 5.12v5.12l2.56 7.68v7.68l2.56 7.68v20.48l2.56 10.24v2.56c0 2.56-2.56 2.56-7.68 2.56h-7.68l-7.68 2.56h-25.6l-10.24-2.56c-5.12 0-7.68-2.56-10.24-2.56-2.56 0-5.12-2.56-7.68-5.12l-7.68-7.68c-2.56-2.56-2.56-7.68-5.12-12.8s-2.56-12.8-5.12-17.92v-10.24-15.36-7.68c0-2.56 0-5.12-2.56-5.12s-2.56 0-5.12 2.56l-2.56 2.56-2.56 5.12-2.56 2.56v2.56l-10.24 10.24v7.68l-2.56 12.8v15.36s0 2.56-2.56 5.12-2.56 2.56-2.56 5.12l-2.56 2.56c-2.56 2.56-2.56 5.12-5.12 5.12-2.56 2.56-5.12 2.56-7.68 2.56l-5.12 2.56-10.24 2.56h-2.56v10.24s0 2.56-2.56 2.56c0 2.56-2.56 2.56-5.12 2.56s-5.12 0-10.24-5.12c-5.12-2.56-5.12-5.12-5.12-7.68v-2.56s0-2.56 2.56-2.56l2.56-2.56 2.56-2.56V512v-5.12-5.12-17.92-7.68-7.68c0-2.56 0-5.12-2.56-5.12l-2.56 2.56-5.12 5.12-7.68 7.68-7.68 7.68c-2.56 0-2.56 2.56-5.12 2.56 0 0-2.56 2.56-7.68 5.12-5.12 2.56-7.68 2.56-7.68 2.56s-2.56 0-7.68-2.56c-5.12 0-5.12-2.56-7.68-2.56l-2.56-2.56s0-2.56 2.56-2.56l7.68-5.12 2.56-2.56 12.8-12.8s2.56-2.56 7.68-10.24l5.12-7.68c7.68-7.68 12.8-12.8 12.8-17.92 2.56-2.56 2.56-5.12 2.56-7.68v-2.56h-5.12s-2.56 0-5.12 2.56-5.12 2.56-5.12 2.56l-2.56 5.12c0 2.56-2.56 2.56-5.12 2.56s-2.56 0-5.12-2.56c0 0-2.56-2.56-2.56-5.12l-2.56-5.12v-2.56l-2.56-5.12c-2.56-2.56-2.56-5.12-2.56-7.68v-2.56l2.56-2.56s2.56 0 7.68-2.56l7.68-2.56 7.68-2.56 7.68-2.56 7.68-2.56c2.56 0 2.56 0 5.12-2.56 2.56 0 2.56-2.56 5.12-2.56s2.56 0 2.56-2.56c0 0 0-2.56 2.56-2.56v-10.24-2.56-35.84-10.24-2.56H829.44c2.56 0 5.12 0 7.68 2.56l5.12 5.12-2.56 5.12v38.4c0 2.56 0 5.12 2.56 5.12s2.56 2.56 2.56 2.56h5.12l2.56 2.56s0 2.56 2.56 2.56v2.56c0 2.56 0 2.56 2.56 2.56h5.12c2.56 0 5.12-2.56 7.68-2.56 2.56 0 5.12-2.56 7.68-2.56l20.48-7.68h2.56l25.6-10.24 2.56-2.56 7.68-2.56h2.56l7.68 7.68c5.12 5.12 5.12 7.68 7.68 10.24v2.56c0 2.56 0 2.56-2.56 5.12 0 2.56-2.56 2.56-5.12 2.56h-2.56-10.24-2.56s-5.12 0-10.24 2.56c-5.12 0-7.68 2.56-10.24 2.56-2.56 0-2.56 0-5.12 2.56-2.56 0-5.12 2.56-5.12 2.56s-2.56 2.56-5.12 2.56-2.56 2.56-2.56 2.56-5.12 0-10.24 2.56c-7.68 0-10.24 2.56-12.8 2.56s-2.56 0-2.56 2.56l-2.56 2.56c-2.56 0-2.56 2.56-5.12 2.56h-2.56l-2.56-2.56-10.24 7.68-5.12-7.68-2.56-2.56-2.56-2.56s-2.56 0-2.56 2.56l-5.12 5.12v12.8l2.56 2.56 12.8 7.68s2.56 0 2.56 2.56v2.56c0 2.56 0 2.56-2.56 5.12 0 2.56-2.56 2.56-2.56 2.56l-2.56 2.56h-10.24l-2.56 2.56v46.08l5.12 10.24c-2.56 0-2.56 0 0 0z m40.96-168.96V332.8l2.56-5.12c2.56-2.56 2.56-5.12 2.56-5.12h2.56c2.56 0 2.56 0 5.12 2.56l2.56 5.12 10.24 10.24c5.12 5.12 7.68 7.68 7.68 12.8 2.56 2.56 2.56 5.12 2.56 7.68v2.56l-2.56 2.56-5.12 2.56H890.88l-5.12-2.56-5.12-2.56c-2.56 0-5.12-2.56-5.12-5.12-5.12-2.56-5.12-5.12-5.12-10.24v-7.68zM1029.12 509.44l5.12-5.12c2.56-2.56 5.12-2.56 5.12-5.12l7.68-7.68 2.56-2.56s5.12-2.56 10.24-7.68l10.24-10.24 2.56-5.12 12.8-17.92 2.56-5.12 5.12-12.8v-5.12-58.88l2.56-7.68V350.72c2.56-2.56 5.12-2.56 5.12-2.56h5.12c2.56 0 5.12 0 5.12 2.56h2.56l5.12 2.56v2.56c-5.12 2.56-7.68 5.12-7.68 5.12s-2.56 2.56-2.56 5.12v35.84c2.56 0 2.56 2.56 5.12 2.56 0 0 2.56 0 7.68-2.56 5.12-2.56 7.68-2.56 10.24-5.12l5.12-5.12c2.56-2.56 2.56-2.56 2.56-5.12v-20.48-5.12c0-2.56 0-5.12 2.56-5.12 0 0 2.56-2.56 5.12-2.56h5.12l10.24 5.12 2.56 2.56v2.56l-2.56 2.56-2.56 5.12s0 2.56-2.56 2.56c0 2.56-2.56 5.12-2.56 7.68v115.2H1152 1136.64c-2.56 0-5.12 0-7.68-2.56-2.56 0-2.56-2.56-2.56-2.56v-2.56-43.52V437.76v-5.12-5.12-5.12h-2.56l-2.56 2.56h-2.56c-2.56 0-5.12-2.56-7.68-5.12-2.56-2.56-5.12-2.56-7.68-2.56h-5.12l-2.56 10.24-5.12 12.8-2.56 2.56 7.68 17.92s-2.56 2.56-2.56 7.68l-2.56 5.12V488.96c0 2.56-2.56 2.56-5.12 5.12l-12.8 7.68-12.8 7.68-7.68 2.56H1049.6s-2.56 0-5.12 2.56h-7.68c-2.56-2.56-5.12-2.56-7.68-5.12zM1075.2 435.2l-5.12 5.12c-2.56 0-7.68 0-10.24-5.12-5.12-2.56-7.68-5.12-7.68-7.68-2.56-2.56-2.56-5.12-2.56-5.12s0-2.56 2.56-2.56l12.8-10.24c10.24-7.68 15.36-10.24 17.92-10.24 0 0 2.56 0 2.56 2.56 2.56 0 2.56 2.56 2.56 2.56v5.12l-5.12 12.8v2.56l-2.56 5.12c-5.12 2.56-5.12 5.12-5.12 5.12z m125.44-115.2c2.56-2.56 2.56-2.56 5.12-2.56h5.12l10.24 2.56c2.56 0 5.12 2.56 5.12 2.56v2.56s0 2.56-2.56 2.56c0 2.56-2.56 2.56-2.56 5.12v20.48c0 2.56 0 2.56-2.56 7.68V509.44l2.56 10.24v12.8c0 5.12-2.56 5.12-5.12 5.12h-5.12c-2.56 0-5.12 0-5.12-2.56H1203.2l-5.12-2.56v-2.56l2.56-2.56s2.56 0 2.56-2.56v-2.56-5.12-12.8-15.36-10.24l-2.56-12.8-2.56-12.8v-28.16c-5.12 5.12-10.24 7.68-10.24 7.68-2.56 0-2.56 0-5.12-2.56l-5.12-5.12-7.68-7.68s-2.56-2.56-2.56-5.12V409.6s2.56-2.56 7.68-2.56c5.12 0 10.24-2.56 15.36-5.12 5.12-2.56 7.68-5.12 7.68-7.68v-25.6l2.56-15.36v-2.56-2.56-28.16zM1359.36 483.84l-17.92 15.36c-7.68 7.68-12.8 10.24-12.8 10.24s-2.56 0-5.12-2.56l-5.12-5.12c-2.56-2.56-2.56-2.56-2.56-5.12v-2.56c0-2.56 5.12-5.12 15.36-15.36l7.68-7.68c2.56-2.56 2.56-2.56 2.56-5.12V460.8v-2.56-20.48-7.68-12.8-7.68-7.68-10.24c0-5.12 0-7.68 2.56-7.68 0 0 2.56-2.56 5.12-2.56s2.56 0 5.12 2.56c2.56 0 5.12 2.56 5.12 2.56h7.68c2.56 0 5.12 2.56 7.68 2.56 0 0 2.56 2.56 0 7.68v5.12c0 2.56-2.56 2.56-5.12 5.12s-5.12 2.56-5.12 2.56h-5.12v5.12s0 2.56 2.56 2.56h15.36c2.56 2.56 2.56 2.56 2.56 7.68v5.12l-2.56 2.56-7.68 5.12-2.56 2.56-2.56 2.56c-7.68 5.12-7.68 5.12-7.68 7.68v5.12c0 2.56 0 2.56 2.56 2.56 0 0 5.12-2.56 12.8-7.68 7.68-5.12 10.24-7.68 12.8-7.68v-10.24-38.4-5.12s0-2.56-2.56-5.12c0-2.56-2.56-2.56-2.56-5.12h-10.24-2.56H1359.36 1356.8l-2.56 2.56h-2.56-2.56s-2.56-2.56-7.68-10.24c-2.56-5.12-5.12-10.24-5.12-12.8 0 0 0-2.56 2.56-2.56s5.12-2.56 7.68-2.56h10.24c2.56 0 5.12 0 7.68-2.56 2.56 0 5.12-2.56 10.24-2.56 5.12-2.56 10.24-5.12 17.92-5.12 7.68-2.56 12.8-2.56 15.36-2.56h5.12v20.48c0 2.56-2.56 2.56-2.56 5.12l-2.56 2.56s-2.56 0-2.56 2.56V378.88l-2.56 5.12v17.92s0 5.12-2.56 12.8l-2.56 7.68v28.16c0 2.56 0 5.12 2.56 5.12h2.56l10.24-2.56c15.36-2.56 23.04-5.12 25.6-5.12 2.56-2.56 2.56-2.56 2.56-7.68 0-2.56 0-5.12-2.56-5.12H1431.04h-2.56s-2.56-2.56-2.56-7.68l-2.56-2.56-2.56-15.36v-2.56c0-2.56 2.56-5.12 7.68-5.12 5.12 0 10.24-2.56 15.36-5.12l5.12-2.56c2.56-2.56 5.12-2.56 7.68-5.12 2.56-2.56 5.12-5.12 7.68-10.24 2.56-5.12 5.12-10.24 7.68-12.8 2.56-2.56 5.12-5.12 5.12-7.68 2.56-2.56 5.12-7.68 10.24-12.8l5.12-5.12 5.12-5.12c2.56 0 5.12 2.56 7.68 5.12 2.56 2.56 2.56 5.12 2.56 5.12l-5.12 5.12-7.68 7.68c-2.56 2.56-2.56 5.12-5.12 5.12l-5.12 5.12-5.12 5.12-5.12 5.12v5.12c0 2.56 2.56 0 7.68 2.56 5.12 0 5.12 2.56 5.12 7.68v7.68c0 2.56-2.56 5.12-5.12 7.68-2.56 2.56-7.68 5.12-10.24 5.12-2.56 2.56-5.12 2.56-5.12 2.56l-2.56 2.56c-2.56 2.56-2.56 2.56-2.56 5.12v10.24c0 2.56 2.56 2.56 5.12 2.56h10.24c2.56 0 5.12 0 10.24-2.56H1502.72c5.12 0 7.68-2.56 10.24-2.56 2.56 0 5.12 2.56 7.68 5.12 2.56 2.56 2.56 7.68 5.12 10.24 0 2.56 2.56 5.12 2.56 7.68 0 2.56-2.56 2.56-7.68 2.56h-2.56l-12.8-2.56h-28.16l-7.68 2.56c-2.56 0-5.12 0-5.12 2.56 0 0-2.56 2.56-2.56 5.12-2.56 2.56-2.56 5.12-2.56 7.68l-2.56 12.8 2.56 5.12v2.56c0 2.56-2.56 2.56-5.12 5.12l-2.56 2.56-2.56 2.56-2.56 2.56-15.36 5.12c-2.56 2.56-2.56 2.56-5.12 2.56 0 0-2.56 0-5.12 2.56-2.56 0-5.12 2.56-10.24 2.56-5.12 2.56-7.68 2.56-7.68 2.56v5.12c0 2.56-2.56 2.56-2.56 2.56H1392.64h-2.56s-2.56-2.56-5.12-2.56-5.12-2.56-5.12-2.56v-2.56-2.56l2.56-2.56s2.56-2.56 2.56-7.68v-2.56-7.68-30.72-2.56-2.56L1382.4 460.8h-2.56l-5.12 5.12-15.36 17.92z m38.4 12.8v12.8c0 5.12 2.56 5.12 5.12 2.56l5.12-5.12 2.56-2.56 2.56-2.56 2.56-5.12s2.56-2.56 5.12-7.68c2.56-5.12 5.12-7.68 5.12-10.24v-2.56l2.56-5.12 2.56-5.12V460.8s0-2.56-2.56-2.56h-5.12-2.56-2.56l-15.36 5.12c-2.56 0-5.12 2.56-5.12 2.56-2.56 0-2.56 0-2.56 2.56l-2.56 2.56v20.48c5.12 0 5.12 2.56 5.12 5.12z m25.6-130.56v-2.56s2.56 0 5.12-2.56c2.56 0 7.68-2.56 15.36-5.12s12.8-5.12 17.92-2.56c2.56 0 2.56 0 2.56 2.56 0 0 0 2.56-2.56 5.12 0 0-2.56 5.12-7.68 10.24-5.12 5.12-7.68 10.24-10.24 10.24-2.56 2.56-5.12 2.56-7.68 2.56-2.56 0-5.12-2.56-10.24-7.68 0-5.12-2.56-7.68-2.56-10.24z m74.24 148.48l-10.24-12.8-10.24-10.24c-2.56-2.56-5.12-5.12-7.68-10.24-2.56-5.12-2.56-7.68-2.56-7.68 0-2.56 2.56-2.56 5.12-2.56s5.12 0 12.8 2.56 12.8 2.56 15.36 5.12c2.56 0 5.12 2.56 10.24 2.56l5.12 2.56c2.56 0 2.56 2.56 2.56 2.56v17.92c0 2.56 0 0 0 0 0 2.56-2.56 5.12-2.56 7.68-2.56 5.12-5.12 5.12-7.68 5.12-2.56 5.12-5.12 2.56-10.24-2.56zM1717.76 366.08l12.8 12.8 7.68 7.68 7.68 7.68c2.56 2.56 5.12 5.12 7.68 5.12l10.24 7.68 2.56 2.56c2.56 2.56 10.24 7.68 17.92 10.24l17.92 7.68 20.48 10.24c5.12 2.56 5.12 5.12 5.12 7.68 0 0 0 2.56-2.56 2.56 0 0-2.56 2.56-7.68 2.56H1802.24h-12.8l-7.68-2.56h-5.12l-5.12-2.56h-10.24s-2.56 0-2.56-2.56v-2.56l-2.56-7.68c0-2.56 0-2.56-2.56-5.12 0 0-2.56-2.56-2.56-5.12-2.56-2.56-2.56-5.12-5.12-7.68 0-2.56-5.12-5.12-10.24-7.68-5.12-5.12-10.24-7.68-10.24-7.68l-5.12-2.56c-2.56 0-2.56-2.56-5.12-5.12s-2.56-5.12-5.12-5.12l-7.68-5.12c-2.56-2.56-5.12-2.56-5.12-5.12 0 0-2.56 0-5.12-2.56h-5.12c-2.56 0-2.56 0-5.12 2.56-2.56 0-5.12 5.12-10.24 10.24l-7.68 7.68-5.12 7.68-5.12 5.12-7.68 7.68-15.36 15.36c-2.56 2.56-2.56 5.12-5.12 7.68 0 2.56-2.56 5.12-2.56 5.12v7.68c0 2.56 0 2.56-2.56 5.12 0 0-2.56 2.56-7.68 5.12-2.56 2.56-5.12 2.56-5.12 2.56l-5.12 2.56-5.12 2.56H1582.08c-2.56 0-2.56-2.56-2.56-2.56s0-2.56 2.56-5.12l15.36-10.24s2.56-2.56 5.12-2.56l5.12-5.12c10.24-10.24 15.36-15.36 15.36-17.92l5.12-7.68 5.12-5.12 7.68-12.8 2.56-2.56 2.56-2.56 2.56-2.56v-2.56l2.56-2.56 2.56-2.56c2.56-2.56 2.56-5.12 2.56-5.12s0-2.56 2.56-5.12c0-2.56 2.56-5.12 5.12-7.68 0-7.68 0-7.68 2.56-10.24l2.56-2.56 7.68-12.8 2.56-7.68s0-2.56 2.56-2.56c0-2.56 2.56-2.56 2.56-5.12s2.56-2.56 2.56-5.12c0 0 2.56-2.56 5.12-2.56h2.56s2.56 2.56 10.24 5.12c5.12 2.56 7.68 7.68 7.68 7.68 0 2.56 0 2.56-2.56 2.56l-2.56 2.56-2.56 2.56c0 2.56-2.56 2.56-2.56 2.56v5.12c0 2.56 2.56 5.12 5.12 7.68 5.12 7.68 7.68 10.24 10.24 12.8z m17.92 138.24c0 2.56-2.56 2.56-2.56 5.12v12.8s0 2.56-2.56 2.56c0 0-10.24 2.56-25.6 2.56H1689.6c-10.24 0-17.92 2.56-20.48 2.56-2.56 0-5.12 2.56-5.12 2.56s-2.56 0-2.56-2.56l-5.12-5.12-2.56-2.56-2.56-5.12-2.56-5.12-5.12-7.68v-2.56l-2.56-5.12c0-2.56-2.56-5.12-2.56-5.12v-15.36c0-2.56 0-5.12 2.56-5.12 2.56-2.56 5.12-2.56 12.8-5.12l10.24-2.56 10.24-2.56c7.68-2.56 12.8-2.56 20.48-5.12 5.12-2.56 12.8-2.56 20.48-2.56 10.24 0 20.48 2.56 25.6 5.12l5.12 2.56 7.68 2.56c2.56 2.56 5.12 2.56 5.12 5.12v2.56s0 2.56-2.56 5.12-2.56 5.12-5.12 5.12l-5.12 5.12-10.24 17.92z m-15.36-94.72c2.56 0 2.56 0 0 0 2.56 0 2.56 2.56 5.12 5.12s2.56 5.12 2.56 5.12v12.8c0 2.56-2.56 2.56-2.56 2.56l-5.12-2.56h-2.56c-2.56 0-7.68 0-12.8 2.56s-10.24 2.56-12.8 5.12c-5.12 0-10.24 2.56-15.36 2.56h-10.24c-2.56 0-2.56 0-5.12 2.56-2.56 0-5.12 2.56-5.12 2.56s-2.56 0-2.56-2.56c0 0 0-2.56-2.56-2.56v-2.56l-2.56-2.56V435.2l-2.56-7.68v-2.56-2.56s2.56-2.56 5.12-2.56h7.68l12.8-5.12 7.68-2.56 17.92-5.12H1712.64l2.56 2.56h5.12z m-35.84 97.28l17.92-2.56c5.12 0 10.24-2.56 10.24-2.56s2.56-2.56 2.56-5.12l2.56-5.12V486.4v-5.12-2.56-2.56s0-2.56-2.56-2.56c0 0-2.56 0-5.12-2.56h-12.8l-12.8 2.56c-10.24 2.56-15.36 2.56-17.92 5.12s-2.56 5.12-2.56 5.12V491.52c0 5.12 0 7.68 2.56 10.24 2.56 2.56 2.56 5.12 2.56 5.12h15.36zM1891.84 407.04l20.48-30.72 10.24-15.36c2.56-2.56 2.56-5.12 2.56-7.68l2.56-5.12c0-2.56 2.56-5.12 2.56-7.68 2.56-2.56 2.56-5.12 2.56-7.68 0-2.56 0-5.12 2.56-5.12 0-2.56 5.12 0 10.24 2.56 5.12 5.12 10.24 7.68 10.24 10.24 0 2.56 2.56 2.56 2.56 5.12v2.56c0 2.56-2.56 5.12-7.68 10.24-5.12-2.56-5.12 0-7.68 0v5.12c0 2.56 0 2.56 2.56 2.56 0 0 2.56 0 5.12-2.56 2.56 0 5.12-2.56 5.12-2.56 2.56 0 5.12 2.56 5.12 2.56 0 2.56 2.56 5.12 2.56 5.12s0 2.56-2.56 5.12-5.12 7.68-7.68 10.24c-2.56 2.56-5.12 2.56-7.68 2.56l-5.12-5.12c-2.56-2.56-7.68-5.12-10.24-5.12h-2.56s-2.56 2.56-5.12 2.56l-2.56 10.24s-2.56 2.56-5.12 7.68c-2.56 2.56-5.12 7.68-5.12 7.68V412.16s2.56 0 2.56 2.56c2.56 0 7.68-2.56 15.36-7.68 7.68-5.12 12.8-7.68 17.92-5.12 5.12 0 5.12 5.12 5.12 10.24v5.12c0 2.56-2.56 5.12-2.56 5.12l-5.12 5.12s0 2.56-2.56 2.56v5.12l7.68-2.56c2.56 0 2.56 0 2.56 2.56v10.24c-2.56 5.12-5.12 7.68-7.68 10.24l-5.12 5.12-2.56 2.56-7.68 5.12s-2.56 2.56-2.56 5.12-2.56 5.12-2.56 5.12v5.12c0 2.56 2.56 2.56 5.12 2.56s7.68-2.56 12.8-7.68c5.12-5.12 10.24-10.24 12.8-15.36 2.56-5.12 5.12-5.12 5.12-5.12v2.56s0 5.12-2.56 10.24l-2.56 5.12c0 2.56-2.56 2.56-2.56 5.12l-5.12 7.68c-5.12 5.12-7.68 10.24-10.24 15.36l-7.68 7.68-5.12 2.56-5.12 5.12h-2.56-2.56l-2.56-2.56c0-2.56-2.56-5.12-2.56-12.8v-10.24-7.68-5.12c0-2.56 0-5.12-2.56-5.12H1896.96s-2.56 0-5.12 2.56c-2.56 0-5.12 2.56-5.12 2.56s-2.56 0-2.56-2.56-2.56-5.12-2.56-7.68c0-5.12-2.56-7.68-2.56-7.68 0-2.56 0-5.12 2.56-5.12h10.24c2.56 0 5.12-2.56 10.24-5.12l5.12-5.12v-2.56l-2.56-2.56c-2.56-2.56-2.56-5.12-5.12-7.68-2.56-2.56-2.56-5.12-2.56-5.12l-7.68 7.68c-2.56 2.56-5.12 2.56-10.24 5.12s-7.68 5.12-10.24 5.12c-2.56 0-5.12 0-5.12-2.56v-2.56s2.56-5.12 5.12-7.68c2.56-5.12 5.12-7.68 5.12-7.68l17.92-20.48z m115.2 28.16c2.56 0 5.12-2.56 10.24-5.12s7.68-5.12 12.8-7.68l12.8-12.8 7.68-7.68 5.12-5.12h2.56c2.56 0 2.56 2.56 5.12 5.12s2.56 5.12 2.56 5.12v2.56l-2.56 2.56-5.12 5.12-7.68 7.68-2.56 2.56-2.56 7.68-5.12 5.12-5.12 5.12-10.24 7.68-2.56 2.56s0 2.56 2.56 2.56c0 2.56 5.12 5.12 15.36 7.68l17.92 7.68 10.24 5.12 17.92 2.56s5.12 2.56 12.8 5.12 12.8 5.12 15.36 7.68c2.56 2.56 2.56 2.56 2.56 5.12l-5.12 5.12-2.56 2.56c-2.56 2.56-10.24 2.56-20.48 5.12H2058.24l-2.56-2.56s0-2.56-2.56-5.12c0-2.56-2.56-7.68-5.12-10.24l-7.68-7.68-5.12-2.56c-2.56-2.56-5.12-2.56-7.68-2.56h-2.56s-2.56 2.56-2.56 5.12-2.56 5.12-5.12 10.24c-2.56 2.56-2.56 5.12-2.56 5.12l-2.56 5.12s0 2.56-2.56 2.56l-2.56 2.56-2.56 5.12s0 2.56-2.56 2.56l-5.12 5.12-7.68 7.68c-2.56 0-5.12 2.56-5.12 2.56-2.56 0-2.56 0-2.56-2.56s-2.56-2.56-2.56-7.68v-5.12l-5.12-7.68v-5.12l-2.56-17.92V465.92v-10.24-15.36l2.56-12.8v-25.6-15.36c0-7.68 0-12.8-2.56-15.36 0-2.56-2.56-5.12 0-5.12 0-2.56 0-2.56 2.56-2.56 0 0 2.56-2.56 7.68-5.12l12.8-7.68s2.56 0 2.56-2.56l10.24-2.56 7.68-2.56c5.12-2.56 12.8-2.56 17.92-5.12 2.56 0 7.68 0 10.24 2.56 2.56 0 5.12 2.56 7.68 5.12 2.56 2.56 2.56 2.56 5.12 2.56v2.56s0 2.56-2.56 2.56c0 2.56-2.56 2.56-2.56 2.56l-2.56 7.68V371.2c0 2.56 0 2.56-2.56 5.12 0 2.56 0 2.56-2.56 5.12l-2.56 10.24c0 2.56-2.56 7.68-2.56 12.8-2.56 5.12-2.56 7.68-5.12 10.24l-10.24 10.24c-5.12 5.12-10.24 5.12-10.24 7.68l-5.12 2.56h-5.12c2.56 2.56 5.12 0 5.12 0z m-23.04 46.08v15.36h2.56c5.12 0 7.68 0 12.8-5.12 5.12-2.56 7.68-5.12 10.24-7.68l5.12-7.68c2.56-2.56 2.56-5.12 2.56-5.12s0-2.56-2.56-2.56l-2.56-2.56s-2.56 0-5.12-2.56c-2.56 0-5.12-2.56-7.68-2.56-2.56-2.56-5.12-2.56-5.12-2.56-5.12 0-7.68 0-7.68 2.56s-2.56 5.12-2.56 7.68v12.8z m5.12-71.68v7.68c2.56 0 2.56 0 5.12-2.56l10.24-7.68c2.56-2.56 5.12-5.12 7.68-5.12 0 0 0-2.56 2.56-5.12l2.56-7.68 2.56-10.24v-10.24-10.24c0-2.56-2.56-2.56-5.12-2.56s-2.56 0-5.12 2.56c-2.56 0-2.56 2.56-5.12 5.12s-2.56 2.56-2.56 5.12l-5.12 5.12s0 2.56-2.56 2.56c0 2.56-2.56 2.56-2.56 5.12v2.56s2.56 0 7.68-2.56c2.56-2.56 5.12-2.56 7.68-2.56 2.56 0 5.12 2.56 5.12 5.12s0 5.12-2.56 7.68l-5.12 5.12-5.12 7.68-7.68 5.12c0-2.56-2.56 0-2.56 0zM2222.08 394.24s2.56 0 5.12 2.56 5.12 2.56 5.12 5.12 2.56 2.56 2.56 5.12c0 0 0 2.56-2.56 5.12l-2.56 2.56-2.56 2.56-2.56 2.56v10.24c0 2.56 0 5.12-2.56 7.68V496.64l2.56 5.12V509.44c0 2.56 0 2.56-2.56 5.12 0 2.56-2.56 2.56-7.68 2.56-5.12 0-7.68 0-7.68-2.56s-2.56-2.56-2.56-2.56v-5.12-5.12-5.12V481.28v-5.12V468.48v-2.56-2.56-10.24c0-5.12-2.56-7.68-2.56-7.68h-2.56l-2.56 2.56-5.12 5.12c-2.56 2.56-2.56 5.12-2.56 7.68V468.48s0 2.56-2.56 2.56l-2.56 2.56-2.56 2.56c-2.56 2.56-2.56 2.56-5.12 2.56 0 0-2.56 2.56-7.68 5.12-2.56 2.56-7.68 2.56-10.24 2.56H2150.4c-2.56 0-2.56 0-2.56-2.56l2.56-2.56 2.56-2.56 5.12-5.12c2.56-2.56 10.24-10.24 20.48-23.04s17.92-23.04 20.48-28.16c2.56-5.12 5.12-10.24 7.68-10.24s2.56-2.56 5.12-7.68c2.56-2.56 2.56-5.12 5.12-5.12l5.12-5.12z m-33.28 5.12c0-2.56 2.56-5.12 2.56-10.24 2.56-5.12 5.12-10.24 7.68-12.8l7.68-12.8c2.56-2.56 2.56-5.12 5.12-7.68l5.12-7.68c0-2.56 2.56-2.56 2.56-5.12l2.56-2.56c2.56 0 5.12 2.56 10.24 5.12l7.68 7.68c0 2.56 0 2.56-2.56 5.12l-5.12 5.12-2.56 2.56-2.56 2.56s-2.56 2.56-5.12 2.56l-2.56 12.8s-2.56 2.56-7.68 5.12c-5.12 2.56-7.68 7.68-12.8 10.24-2.56 2.56-7.68 5.12-7.68 5.12h-2.56v-5.12z m92.16 5.12l17.92-5.12h25.6l10.24-2.56H2355.2l7.68 7.68c2.56 5.12 5.12 7.68 5.12 12.8v7.68c0 2.56-2.56 2.56-5.12 2.56h-2.56l-12.8-2.56h-12.8s-2.56 2.56-5.12 2.56c0 2.56-2.56 2.56-2.56 5.12V517.12c0 2.56 0 5.12 2.56 7.68 0 2.56 0 7.68 2.56 10.24v5.12c0 2.56-2.56 5.12-5.12 5.12h-2.56l-5.12-2.56h-5.12s-2.56 0-7.68-2.56l-15.36-5.12c-2.56 0-7.68-2.56-10.24-5.12-2.56-2.56-5.12-2.56-7.68-2.56l-7.68-15.36-5.12-5.12c-5.12-5.12-10.24-7.68-10.24-7.68v-2.56s2.56 0 5.12 2.56c2.56 0 5.12 2.56 5.12 2.56h5.12c2.56 0 5.12 2.56 12.8 2.56 7.68 2.56 12.8 2.56 20.48 2.56 2.56 0 5.12 0 7.68-2.56 0-2.56 2.56-2.56 2.56-5.12v-15.36-12.8-2.56-28.16l-5.12-7.68c0-5.12-2.56-7.68-2.56-7.68 0-2.56-2.56-2.56-5.12-2.56H2280.96c-2.56 0-5.12 0-7.68 2.56-2.56 0-5.12 2.56-7.68 2.56h-2.56s-2.56 0-5.12 2.56-5.12 2.56-5.12 2.56c-2.56 0-2.56-2.56-5.12-5.12l-2.56-2.56-2.56-5.12c0-2.56-2.56-2.56-2.56-5.12v-2.56h2.56c2.56 0 5.12 0 7.68-2.56 5.12 0 10.24-2.56 15.36-2.56 5.12 0 12.8-2.56 15.36-2.56z m-20.48-38.4v-2.56s2.56 0 5.12-2.56h7.68c2.56 0 2.56 0 5.12-2.56l30.72-10.24c2.56 0 5.12 0 7.68-2.56 2.56 0 5.12-2.56 7.68-2.56 2.56 0 5.12 0 5.12 2.56s2.56 5.12 2.56 7.68c0 2.56 2.56 5.12 2.56 5.12v2.56l-5.12 5.12-2.56 2.56c-2.56 2.56-5.12 2.56-10.24 5.12s-7.68 2.56-7.68 2.56l-5.12 2.56c-2.56 0-2.56 0-5.12 2.56h-15.36l-5.12 2.56H2270.72s-2.56 0-2.56-2.56-2.56-2.56-2.56-5.12-2.56-5.12-2.56-7.68c-2.56 2.56-2.56 0-2.56-2.56 0 2.56 0 2.56 0 0z" fill="" p-id="2848"></path><path d="M768 683.52v-97.28h20.48v38.4h38.4v-38.4h17.92v97.28h-20.48V640h-38.4v40.96H768zM883.2 634.88l-17.92-2.56c2.56-7.68 5.12-12.8 10.24-15.36 5.12-2.56 10.24-5.12 20.48-5.12 7.68 0 15.36 0 17.92 2.56 5.12 2.56 7.68 5.12 7.68 7.68 2.56 2.56 2.56 7.68 2.56 15.36v33.28c0 2.56 2.56 5.12 2.56 10.24h-17.92s0-2.56-2.56-5.12v-2.56c-2.56 2.56-7.68 5.12-10.24 7.68-2.56 2.56-7.68 2.56-10.24 2.56-7.68 0-12.8-2.56-17.92-5.12-5.12-5.12-5.12-7.68-5.12-15.36 0-5.12 0-7.68 2.56-10.24l7.68-7.68c2.56-2.56 7.68-2.56 15.36-5.12s15.36-2.56 17.92-5.12v-2.56c0-2.56 0-5.12-2.56-7.68-2.56-2.56-5.12-2.56-10.24-2.56-2.56 0-5.12 0-7.68 2.56s0 7.68-2.56 10.24z m25.6 15.36c-2.56 0-5.12 2.56-10.24 2.56s-7.68 2.56-10.24 2.56c-2.56 2.56-2.56 5.12-2.56 7.68 0 2.56 0 5.12 2.56 7.68 2.56 2.56 5.12 2.56 7.68 2.56 2.56 0 7.68 0 10.24-2.56l5.12-5.12V650.24zM1013.76 683.52h-17.92v-35.84-15.36c0-2.56-2.56-5.12-2.56-5.12-2.56 0-5.12-2.56-5.12-2.56-2.56 0-5.12 0-7.68 2.56s-5.12 5.12-5.12 7.68c0 2.56-2.56 7.68-2.56 15.36v30.72h-17.92V614.4h17.92v10.24c5.12-7.68 12.8-12.8 23.04-12.8 5.12 0 7.68 0 10.24 2.56 2.56 2.56 5.12 2.56 7.68 5.12 2.56 2.56 2.56 5.12 2.56 7.68v56.32zM1036.8 688.64l20.48 2.56c0 2.56 0 5.12 2.56 5.12 2.56 2.56 5.12 2.56 7.68 2.56 5.12 0 7.68 0 10.24-2.56 2.56 0 2.56-2.56 2.56-5.12v-17.92c-5.12 7.68-12.8 10.24-20.48 10.24-10.24 0-17.92-5.12-23.04-12.8-5.12-5.12-7.68-12.8-7.68-23.04 0-12.8 2.56-20.48 7.68-25.6 5.12-5.12 12.8-10.24 20.48-10.24 7.68 0 15.36 2.56 20.48 10.24V614.4h23.04v61.44c0 7.68 0 15.36-2.56 17.92-2.56 5.12-2.56 7.68-5.12 10.24-2.56 2.56-5.12 5.12-10.24 5.12-5.12 2.56-10.24 2.56-15.36 2.56-12.8 0-20.48-2.56-25.6-5.12-2.56-5.12-5.12-10.24-5.12-17.92z m15.36-40.96c0 7.68 2.56 12.8 5.12 15.36 2.56 2.56 5.12 5.12 10.24 5.12s7.68-2.56 10.24-5.12c2.56-2.56 5.12-7.68 5.12-15.36s-2.56-12.8-5.12-15.36c-2.56-2.56-7.68-5.12-10.24-5.12-5.12 0-7.68 2.56-10.24 5.12-2.56 2.56-5.12 7.68-5.12 15.36zM1118.72 683.52v-15.36l25.6-30.72 10.24-10.24h-33.28V614.4H1177.6v12.8l-25.6 30.72-10.24 10.24h38.4v15.36h-61.44zM1216 586.24v35.84c5.12-7.68 12.8-10.24 20.48-10.24 5.12 0 7.68 0 10.24 2.56s5.12 2.56 7.68 5.12 2.56 5.12 2.56 7.68v53.76h-17.92v-35.84-12.8s-2.56-2.56-2.56-5.12-5.12-2.56-7.68-2.56c-2.56 0-5.12 0-7.68 2.56-2.56 2.56-5.12 2.56-5.12 7.68s-2.56 7.68-2.56 12.8v35.84h-17.92v-97.28h20.48zM1280 647.68c0-5.12 2.56-12.8 5.12-17.92 2.56-5.12 7.68-10.24 12.8-12.8 5.12-2.56 12.8-5.12 17.92-5.12 10.24 0 17.92 2.56 25.6 10.24 7.68 7.68 10.24 15.36 10.24 25.6s-2.56 20.48-10.24 25.6-15.36 10.24-25.6 10.24c-5.12 0-12.8-2.56-17.92-5.12-5.12-2.56-10.24-7.68-12.8-12.8-2.56-2.56-5.12-10.24-5.12-17.92z m20.48 0c0 7.68 2.56 12.8 5.12 15.36 2.56 2.56 7.68 5.12 12.8 5.12s7.68-2.56 12.8-5.12c2.56-2.56 5.12-10.24 5.12-15.36 0-7.68-2.56-12.8-5.12-15.36-2.56-2.56-7.68-5.12-12.8-5.12s-7.68 2.56-12.8 5.12-5.12 7.68-5.12 15.36zM1418.24 683.52v-10.24c-2.56 2.56-5.12 7.68-10.24 7.68-5.12 2.56-7.68 2.56-12.8 2.56s-7.68 0-12.8-2.56c-2.56-2.56-7.68-5.12-7.68-7.68-2.56-2.56-2.56-7.68-2.56-15.36V614.4h17.92v51.2c0 2.56 2.56 5.12 2.56 5.12s5.12 2.56 7.68 2.56c2.56 0 5.12 0 7.68-2.56s5.12-5.12 5.12-7.68c0-2.56 2.56-7.68 2.56-17.92V614.4h17.92v69.12h-15.36zM1502.72 586.24h20.48v66.56c0 5.12 2.56 7.68 5.12 10.24 2.56 2.56 7.68 2.56 12.8 2.56s10.24 0 12.8-2.56c2.56-2.56 5.12-5.12 5.12-7.68v-69.12h20.48v51.2c0 12.8 0 20.48-2.56 25.6s-2.56 7.68-5.12 12.8c-2.56 2.56-7.68 5.12-10.24 7.68-5.12 2.56-10.24 2.56-17.92 2.56-10.24 0-15.36 0-20.48-2.56-5.12-2.56-7.68-5.12-10.24-7.68-2.56-2.56-5.12-7.68-5.12-10.24 0-5.12-2.56-12.8-2.56-25.6v-53.76zM1669.12 683.52h-17.92v-35.84-15.36c0-2.56-2.56-5.12-2.56-5.12-2.56 0-5.12-2.56-5.12-2.56-2.56 0-5.12 0-7.68 2.56s-5.12 5.12-5.12 7.68c0 2.56-2.56 7.68-2.56 15.36v30.72h-17.92V614.4h17.92v10.24c5.12-7.68 12.8-12.8 23.04-12.8 5.12 0 7.68 0 10.24 2.56 2.56 2.56 5.12 2.56 7.68 5.12 2.56 2.56 2.56 5.12 2.56 7.68v56.32zM1692.16 604.16v-17.92h17.92v17.92h-17.92z m0 79.36V614.4h17.92v69.12h-17.92zM1766.4 614.4v15.36h-12.8v38.4s0 2.56 2.56 2.56h2.56c2.56 0 5.12 0 7.68-2.56l2.56 15.36c-5.12 2.56-10.24 2.56-15.36 2.56-2.56 0-5.12 0-10.24-2.56-2.56 0-5.12-2.56-5.12-5.12s-2.56-5.12-2.56-7.68v-43.52h-7.68V614.4h7.68v-12.8l17.92-10.24v25.6h12.8zM1825.28 660.48l17.92 2.56c-2.56 7.68-5.12 12.8-10.24 15.36-5.12 2.56-10.24 5.12-17.92 5.12-12.8 0-20.48-5.12-28.16-12.8-5.12-5.12-7.68-15.36-7.68-23.04 0-12.8 2.56-20.48 10.24-28.16 5.12-7.68 12.8-10.24 23.04-10.24s17.92 2.56 25.6 10.24c5.12 7.68 7.68 17.92 7.68 30.72h-46.08c0 5.12 2.56 10.24 5.12 12.8 2.56 2.56 5.12 5.12 10.24 5.12 2.56 0 5.12 0 7.68-2.56 0 0 2.56-2.56 2.56-5.12z m2.56-17.92c0-5.12-2.56-10.24-5.12-12.8-2.56-2.56-5.12-5.12-10.24-5.12s-7.68 2.56-10.24 5.12c-2.56 2.56-5.12 7.68-5.12 12.8h30.72zM1930.24 683.52h-17.92v-10.24c-2.56 5.12-5.12 7.68-10.24 7.68-5.12 2.56-7.68 2.56-12.8 2.56-7.68 0-15.36-2.56-20.48-10.24-5.12-7.68-7.68-15.36-7.68-28.16 0-12.8 2.56-20.48 7.68-28.16 5.12-5.12 12.8-10.24 20.48-10.24 7.68 0 15.36 2.56 20.48 10.24v-35.84h17.92v102.4z m-51.2-35.84c0 7.68 0 12.8 2.56 15.36 2.56 5.12 7.68 7.68 12.8 7.68s7.68-2.56 10.24-5.12c2.56-2.56 5.12-10.24 5.12-15.36 0-7.68-2.56-12.8-5.12-17.92s-7.68-5.12-10.24-5.12c-5.12 0-7.68 2.56-10.24 5.12s-5.12 7.68-5.12 15.36zM1996.8 586.24h56.32c2.56 0 7.68 2.56 10.24 5.12l7.68 7.68c2.56 2.56 2.56 7.68 2.56 10.24 0 5.12 0 7.68-2.56 12.8-2.56 2.56-5.12 7.68-10.24 7.68 5.12 2.56 10.24 5.12 12.8 7.68 2.56 5.12 5.12 7.68 5.12 15.36 0 5.12 0 7.68-2.56 12.8s-5.12 7.68-7.68 10.24-7.68 5.12-12.8 5.12H1996.8v-94.72z m17.92 15.36v23.04h28.16c2.56 0 5.12-2.56 7.68-2.56 2.56-2.56 2.56-5.12 2.56-7.68 0-2.56 0-5.12-2.56-7.68-2.56-2.56-5.12-2.56-7.68-2.56h-28.16z m0 38.4v25.6h30.72c2.56 0 5.12-2.56 7.68-2.56 2.56-2.56 2.56-5.12 2.56-7.68 0-2.56 0-5.12-2.56-7.68l-5.12-5.12c-2.56 0-7.68-2.56-17.92-2.56h-15.36zM2112 634.88l-17.92-2.56c2.56-7.68 5.12-12.8 10.24-15.36 5.12-2.56 10.24-5.12 20.48-5.12 7.68 0 15.36 0 17.92 2.56 5.12 2.56 7.68 5.12 7.68 7.68 2.56 2.56 2.56 7.68 2.56 15.36v33.28c0 2.56 2.56 5.12 2.56 10.24h-17.92s0-2.56-2.56-5.12v-2.56c-2.56 2.56-7.68 5.12-10.24 7.68-2.56 2.56-7.68 2.56-10.24 2.56-7.68 0-12.8-2.56-17.92-5.12-5.12-5.12-5.12-7.68-5.12-15.36 0-5.12 0-7.68 2.56-10.24l7.68-7.68c2.56-2.56 7.68-2.56 15.36-5.12s15.36-2.56 17.92-5.12v-2.56c0-2.56 0-5.12-2.56-7.68-2.56-2.56-5.12-2.56-10.24-2.56-2.56 0-5.12 0-7.68 2.56s-2.56 7.68-2.56 10.24z m25.6 15.36c-2.56 0-5.12 2.56-10.24 2.56s-7.68 2.56-10.24 2.56c-2.56 2.56-2.56 5.12-2.56 7.68 0 2.56 0 5.12 2.56 7.68 2.56 2.56 5.12 2.56 7.68 2.56 2.56 0 7.68 0 10.24-2.56l5.12-5.12V650.24zM2242.56 683.52h-17.92v-35.84-15.36c0-2.56-2.56-5.12-2.56-5.12-2.56 0-5.12-2.56-5.12-2.56-2.56 0-5.12 0-7.68 2.56s-5.12 5.12-5.12 7.68c0 2.56-2.56 7.68-2.56 15.36v30.72h-17.92V614.4h17.92v10.24c5.12-7.68 12.8-12.8 23.04-12.8 5.12 0 7.68 0 10.24 2.56 2.56 2.56 5.12 2.56 7.68 5.12 2.56 2.56 2.56 5.12 2.56 7.68v56.32zM2265.6 683.52v-97.28h17.92v51.2l20.48-25.6h23.04l-23.04 25.6 25.6 43.52h-20.48l-17.92-30.72-7.68 10.24v23.04h-17.92z" fill="" p-id="2849"></path></svg>