<?xml version="1.0" standalone="no"?><!DOCTYPE svg PUBLIC "-//W3C//DTD SVG 1.1//EN" "http://www.w3.org/Graphics/SVG/1.1/DTD/svg11.dtd"><svg t="1531986190976" class="icon" style="" viewBox="0 0 2560 1024" version="1.1" xmlns="http://www.w3.org/2000/svg" p-id="4796" xmlns:xlink="http://www.w3.org/1999/xlink" width="500" height="200"><defs><style type="text/css"></style></defs><path d="M2145.28 698.88h-53.76v-43.52H2073.6v107.52h17.92v-48.64h53.76v48.64h17.92v-107.52h-17.92zM1963.52 655.36v15.36H2022.4l-61.44 92.16h89.6v-17.92h-58.88l61.44-89.6zM1920 721.92l-69.12-69.12h-2.56v110.08h17.92v-66.56l71.68 69.12h2.56v-110.08H1920zM1758.72 714.24H1817.6v-15.36h-58.88v-25.6h64v-17.92H1740.8v107.52h81.92v-17.92h-64zM1684.48 719.36l-28.16-66.56-25.6 66.56-25.6-64H1587.2l40.96 110.08h2.56l25.6-66.56 25.6 66.56h2.56l40.96-110.08h-17.92zM2388.48 716.8c0 10.24-2.56 17.92-7.68 23.04-5.12 5.12-10.24 7.68-17.92 7.68-10.24 0-15.36-2.56-20.48-7.68-5.12-5.12-7.68-12.8-7.68-23.04v-61.44h-17.92V716.8c0 15.36 2.56 25.6 12.8 35.84 7.68 7.68 20.48 12.8 33.28 12.8s25.6-5.12 30.72-12.8c7.68-10.24 12.8-20.48 12.8-35.84v-61.44h-17.92V716.8zM2278.4 668.16c-5.12-5.12-10.24-10.24-17.92-12.8-7.68-2.56-12.8-2.56-20.48-2.56-7.68 0-15.36 2.56-23.04 5.12-7.68 5.12-12.8 10.24-20.48 15.36-2.56 5.12-7.68 10.24-7.68 15.36 0 5.12-2.56 12.8-2.56 17.92 0 7.68 0 15.36 5.12 23.04 2.56 7.68 5.12 12.8 12.8 17.92 5.12 5.12 10.24 10.24 17.92 12.8 7.68 2.56 12.8 5.12 20.48 5.12 7.68 0 12.8 0 20.48-5.12 7.68-2.56 12.8-7.68 17.92-12.8 5.12-5.12 10.24-12.8 12.8-17.92 2.56-7.68 5.12-12.8 5.12-23.04s-2.56-15.36-5.12-23.04c-5.12-2.56-10.24-10.24-15.36-15.36z m-12.8 69.12c-7.68 7.68-15.36 10.24-25.6 10.24s-17.92-2.56-25.6-10.24c-7.68-7.68-10.24-17.92-10.24-28.16 0-10.24 2.56-20.48 10.24-28.16 7.68-7.68 15.36-10.24 25.6-10.24s17.92 2.56 25.6 10.24c7.68 7.68 10.24 15.36 10.24 28.16 0 10.24-5.12 20.48-10.24 28.16zM1451.52 762.88h20.48v-48.64h58.88v-15.36h-58.88v-25.6h58.88v-17.92h-79.36zM1413.12 668.16c-5.12-5.12-12.8-10.24-17.92-12.8-7.68-2.56-12.8-2.56-20.48-2.56-10.24 0-17.92 2.56-25.6 5.12-7.68 5.12-15.36 10.24-20.48 15.36-5.12 5.12-7.68 10.24-10.24 15.36-2.56 5.12-2.56 12.8-2.56 17.92 0 7.68 2.56 15.36 5.12 23.04 2.56 7.68 7.68 12.8 12.8 17.92 5.12 5.12 10.24 10.24 17.92 12.8 7.68 2.56 12.8 5.12 23.04 5.12 7.68 0 15.36 0 20.48-5.12 7.68-2.56 12.8-7.68 17.92-12.8 5.12-5.12 10.24-12.8 12.8-17.92 2.56-7.68 5.12-12.8 5.12-23.04s0-15.36-5.12-23.04c-5.12-2.56-7.68-10.24-12.8-15.36z m-15.36 69.12c-5.12 7.68-15.36 10.24-25.6 10.24s-17.92-2.56-25.6-10.24c-7.68-7.68-10.24-17.92-10.24-28.16 0-10.24 2.56-20.48 10.24-28.16 7.68-7.68 15.36-10.24 25.6-10.24s17.92 2.56 25.6 10.24c7.68 7.68 10.24 15.36 10.24 28.16 0 10.24-2.56 20.48-10.24 28.16zM908.8 706.56c5.12-2.56 10.24-5.12 12.8-7.68 2.56-5.12 2.56-7.68 2.56-12.8 0-10.24-2.56-15.36-10.24-20.48-5.12-5.12-15.36-5.12-28.16-5.12H844.8v104.96h40.96c12.8 0 23.04-2.56 30.72-7.68 7.68-5.12 10.24-12.8 10.24-23.04 0-7.68 0-12.8-5.12-17.92-2.56-7.68-7.68-10.24-12.8-10.24z m-43.52-35.84h23.04c5.12 0 10.24 0 12.8 2.56 2.56 2.56 5.12 5.12 5.12 10.24s-2.56 7.68-5.12 12.8c-2.56 2.56-7.68 5.12-12.8 5.12h-23.04v-30.72z m38.4 71.68c-2.56 2.56-7.68 5.12-15.36 5.12h-23.04v-33.28h23.04c5.12 0 12.8 2.56 15.36 5.12 2.56 2.56 5.12 7.68 5.12 12.8 0 2.56-2.56 7.68-5.12 10.24zM1267.2 655.36h-23.04l-46.08 48.64v-48.64H1177.6v107.52h20.48v-51.2l48.64 51.2h25.6l-56.32-56.32zM1128.96 721.92l-71.68-69.12v110.08h17.92v-66.56l71.68 69.12h2.56v-110.08h-20.48zM988.16 652.8l-53.76 110.08h20.48l10.24-17.92h51.2l7.68 17.92h20.48l-56.32-110.08z m0 74.24h-17.92l17.92-38.4 17.92 38.4h-17.92zM1694.72 460.8h-38.4v33.28h38.4V588.8H1792v-30.72h-51.2v-64h51.2V460.8h-51.2v-43.52h51.2V384h-81.92l10.24-30.72H1792v-33.28h-64l5.12-20.48H1689.6c-10.24 43.52-25.6 87.04-38.4 122.88h43.52V460.8zM1963.52 542.72c15.36-7.68 25.6-17.92 38.4-25.6v-46.08c-20.48 20.48-40.96 35.84-56.32 43.52-10.24-20.48-23.04-40.96-30.72-64H1996.8v-153.6h-192V588.8c33.28 0 53.76-2.56 76.8-7.68 7.68 0 12.8-2.56 20.48-5.12 5.12-2.56 12.8-2.56 17.92-5.12l-17.92-25.6v-2.56c-7.68 2.56-12.8 2.56-17.92 5.12-12.8 2.56-17.92 5.12-30.72 5.12v-104.96h12.8c7.68 15.36 12.8 28.16 20.48 43.52 20.48 40.96 40.96 71.68 64 97.28h53.76c-17.92-12.8-30.72-28.16-40.96-46.08zM1850.88 332.8h102.4v25.6h-102.4v-25.6z m30.72 84.48h-30.72v-28.16h102.4v28.16h-71.68zM2050.56 481.28H2099.2V588.8h46.08v-163.84c10.24-15.36 20.48-33.28 25.6-48.64H2124.8c-20.48 40.96-43.52 74.24-74.24 104.96zM1295.36 471.04l17.92-94.72h-43.52l-15.36 94.72h40.96zM1594.88 294.4h-46.08v171.52l-25.6-89.6h-40.96v-81.92H1433.6v171.52l-23.04-89.6h-46.08l28.16 94.72H1433.6V588.8H1482.24v-202.24l23.04 84.48h43.52V588.8h46.08z" fill="" p-id="4797"></path><path d="M1318.4 294.4v156.16c0 40.96-10.24 74.24-23.04 104.96-5.12 12.8-12.8 23.04-17.92 35.84h48.64c17.92-20.48 40.96-79.36 40.96-138.24v-158.72h-48.64zM2201.6 302.08h192v33.28H2201.6zM2191.36 389.12v33.28h135.68v133.12h-61.44V588.8h94.72c7.68 0 12.8-2.56 12.8-12.8v-151.04H2406.4v-33.28h-215.04zM2160.64 294.4h-48.64c-17.92 43.52-40.96 74.24-61.44 99.84H2099.2c17.92-17.92 46.08-64 61.44-99.84zM872.96 450.56l-25.6 138.24h46.08l28.16-138.24zM921.6 588.8h281.6v-30.72h-15.36v-107.52h-245.76v107.52H921.6V588.8z m192-104.96h28.16v74.24h-28.16v-74.24z m-66.56 0h25.6v74.24h-25.6v-74.24z m-64 0h25.6v74.24h-25.6v-74.24zM921.6 432.64l-25.6-64h-51.2l28.16 64zM1062.4 432.64h117.76v-138.24h-235.52v138.24h117.76z m-71.68-104.96h143.36v20.48h-143.36v-20.48z m0 51.2h143.36v20.48h-143.36v-20.48zM921.6 358.4l-25.6-64h-48.64l25.6 64z" fill="" p-id="4798"></path><path d="M540.16 450.56l61.44 48.64 143.36-186.88h-99.84z" fill="#FAA61A" p-id="4799"></path><path d="M501.76 506.88l-74.24 94.72-104.96-81.92 174.08-225.28 35.84-48.64h-217.6L204.8 391.68c-71.68 92.16-69.12 215.04 7.68 304.64 71.68 81.92 189.44 102.4 281.6 58.88 12.8-7.68 25.6-12.8 38.4-23.04 7.68-5.12 15.36-12.8 23.04-17.92 5.12-5.12 23.04-25.6 25.6-28.16l48.64-61.44 89.6-117.76h-217.6z" fill="#FAA61A" p-id="4800"></path><path d="M455.68 386.56l64 48.64 92.16-122.88h-97.28z" fill="#FAA61A" p-id="4801"></path></svg>