<?xml version="1.0" standalone="no"?><!DOCTYPE svg PUBLIC "-//W3C//DTD SVG 1.1//EN" "http://www.w3.org/Graphics/SVG/1.1/DTD/svg11.dtd"><svg t="1531986231995" class="icon" style="" viewBox="0 0 2560 1024" version="1.1" xmlns="http://www.w3.org/2000/svg" p-id="6800" xmlns:xlink="http://www.w3.org/1999/xlink" width="500" height="200"><defs><style type="text/css"></style></defs><path d="M376.32 486.4l2.56-10.24c17.92-2.56 81.92-15.36 104.96-53.76 0 0-15.36-58.88-84.48-84.48 0 0-43.52 43.52-48.64 110.08h-15.36c-2.56-15.36-15.36-81.92-53.76-107.52 0 0-58.88 15.36-84.48 84.48 0 0 43.52 43.52 110.08 48.64l2.56 12.8c-15.36 2.56-81.92 15.36-107.52 53.76 0 0 15.36 58.88 84.48 84.48 0 0 43.52-43.52 48.64-110.08h12.8c2.56 17.92 15.36 81.92 53.76 104.96 0 0 58.88-15.36 84.48-84.48 0 0-43.52-43.52-110.08-48.64z m30.72-112.64c20.48 10.24 38.4 38.4 38.4 38.4-17.92 25.6-66.56 33.28-69.12 33.28 0-30.72 23.04-69.12 30.72-71.68zM235.52 414.72c10.24-20.48 38.4-38.4 38.4-38.4 25.6 20.48 33.28 69.12 33.28 69.12-30.72 0-69.12-23.04-71.68-30.72z m43.52 174.08c-20.48-10.24-38.4-38.4-38.4-38.4 17.92-25.6 66.56-35.84 69.12-33.28 0 30.72-23.04 69.12-30.72 71.68z m133.12-7.68c-25.6-20.48-35.84-66.56-33.28-69.12 30.72 0 69.12 23.04 71.68 30.72-10.24 20.48-38.4 38.4-38.4 38.4z" fill="#0085D0" p-id="6801"></path><path d="M186.88 309.76H501.76c17.92 0 33.28 15.36 33.28 33.28v337.92c0 17.92-15.36 33.28-33.28 33.28H186.88c-17.92 0-33.28-15.36-33.28-33.28v-337.92c0-17.92 15.36-33.28 33.28-33.28z m5.12 15.36c-12.8 0-25.6 10.24-25.6 25.6V675.84c0 12.8 10.24 25.6 25.6 25.6H496.64c12.8 0 25.6-10.24 25.6-25.6v-327.68c0-12.8-10.24-25.6-25.6-25.6H192v2.56z" fill="#0085D0" p-id="6802"></path><path d="M916.48 350.72c-7.68 0-20.48 2.56-35.84 2.56h-151.04c-5.12 0-15.36 0-25.6-2.56 2.56 7.68 2.56 15.36 2.56 20.48V430.08c0 28.16-2.56 48.64-5.12 64-5.12 15.36-10.24 30.72-20.48 43.52 7.68 2.56 12.8 10.24 17.92 17.92 17.92-28.16 28.16-61.44 30.72-104.96v-81.92H880.64c12.8 0 25.6 0 38.4 2.56v-20.48h-2.56zM903.68 378.88z" fill="#231815" p-id="6803"></path><path d="M875.52 535.04c-15.36-2.56-28.16-2.56-35.84-2.56 20.48-12.8 38.4-25.6 48.64-38.4-7.68 2.56-17.92 2.56-33.28 2.56h-61.44l15.36-15.36h58.88c7.68 0 15.36 2.56 20.48 2.56h2.56c-2.56-7.68-2.56-12.8-2.56-17.92v-64c-7.68 2.56-15.36 2.56-23.04 2.56h-46.08l2.56-10.24h51.2c15.36 0 25.6 2.56 30.72 2.56V378.88c-5.12 2.56-15.36 2.56-30.72 0h-102.4c-17.92 0-28.16-2.56-33.28-2.56v17.92c5.12-2.56 7.68-2.56 12.8-2.56H803.84l-2.56 12.8H752.64v64c0 7.68 0 12.8-2.56 17.92 10.24-2.56 17.92-2.56 23.04-2.56h10.24c-23.04 17.92-46.08 30.72-64 35.84 10.24 2.56 15.36 5.12 20.48 10.24 12.8-5.12 23.04-10.24 35.84-20.48l2.56 2.56c10.24 10.24 17.92 15.36 23.04 20.48-20.48 2.56-48.64 5.12-81.92 5.12 0 2.56 2.56 2.56 2.56 2.56 7.68 5.12 10.24 10.24 10.24 15.36 38.4-2.56 66.56-7.68 87.04-15.36 20.48 5.12 48.64 10.24 84.48 12.8 0-5.12 5.12-12.8 10.24-17.92H875.52z m-102.4-117.76h94.72v10.24H773.12v-10.24z m0 33.28v-10.24h94.72v10.24H773.12z m2.56 23.04v-10.24H870.4v10.24h-94.72z m17.92 33.28h58.88c-10.24 10.24-23.04 15.36-33.28 20.48-7.68-5.12-15.36-10.24-25.6-20.48zM1013.76 445.44h69.12c-2.56-5.12-2.56-15.36-2.56-28.16V353.28c-5.12 0-17.92 2.56-33.28 0h-20.48v2.56h-30.72v143.36c0 25.6 0 40.96-2.56 51.2h23.04c0-7.68-2.56-23.04-2.56-48.64v-56.32z m2.56-74.24h48.64v20.48h-48.64v-20.48z m-2.56 33.28h48.64v23.04H1013.76V404.48zM1162.24 355.84h-25.6c-15.36 0-25.6 0-30.72-2.56 2.56 5.12 2.56 12.8 2.56 25.6v33.28c0 15.36 0 25.6-2.56 33.28h66.56v79.36c0 5.12-2.56 7.68-5.12 10.24h-25.6c5.12 5.12 7.68 12.8 10.24 20.48 17.92 0 28.16-2.56 33.28-5.12s7.68-7.68 7.68-17.92v-151.04c0-15.36 0-25.6 2.56-28.16-2.56 0-15.36 2.56-33.28 2.56z m12.8 74.24H1126.4v-23.04h48.64v23.04z m0-35.84H1126.4v-23.04h48.64v23.04zM1451.52 353.28h-107.52c-20.48 0-38.4 0-53.76-2.56 0 5.12 2.56 20.48 2.56 46.08v122.88c0 15.36-2.56 25.6-2.56 35.84h23.04v-15.36H1479.68v15.36h23.04v-204.8c-15.36 0-33.28 2.56-51.2 2.56z m28.16 171.52h-168.96V368.64h168.96v156.16z" fill="#231815" p-id="6804"></path><path d="M1420.8 396.8h23.04c-2.56-7.68-7.68-12.8-12.8-17.92l15.36-5.12 15.36 15.36-12.8 7.68c10.24 0 17.92 0 23.04-2.56v15.36h-51.2c0 17.92 2.56 35.84 5.12 53.76 7.68-15.36 12.8-30.72 15.36-43.52 15.36 5.12 20.48 7.68 20.48 7.68-2.56 2.56-7.68 12.8-17.92 30.72-5.12 7.68-7.68 15.36-12.8 20.48 7.68 10.24 12.8 17.92 17.92 17.92 2.56 0 5.12-5.12 7.68-17.92 5.12 5.12 10.24 10.24 15.36 12.8-5.12 20.48-12.8 30.72-17.92 30.72-10.24-2.56-20.48-10.24-33.28-28.16-15.36 15.36-25.6 25.6-30.72 28.16-2.56-2.56-10.24-7.68-17.92-10.24 15.36-7.68 28.16-17.92 40.96-33.28-5.12-20.48-10.24-40.96-10.24-69.12h-53.76c-2.56 0-2.56 0 0 0h-30.72v-15.36c5.12 0 15.36 2.56 30.72 2.56H1402.88v-25.6c12.8 0 20.48 0 23.04 2.56v2.56c-5.12 5.12-5.12 12.8-5.12 20.48z" fill="#231815" p-id="6805"></path><path d="M1367.04 422.4h-15.36c-10.24 0-20.48 0-25.6-2.56v51.2h64v-51.2c-2.56 2.56-10.24 2.56-23.04 2.56z m5.12 35.84h-25.6v-20.48h25.6v20.48zM1395.2 481.28v15.36c-5.12 0-10.24 2.56-20.48 2.56-25.6 2.56-43.52 5.12-53.76 5.12-2.56-7.68-2.56-12.8-5.12-17.92 33.28 0 58.88-2.56 79.36-5.12zM1766.4 427.52c15.36-23.04 28.16-43.52 33.28-58.88-23.04 2.56-46.08 2.56-71.68 0v2.56H1694.72c2.56-2.56 2.56-5.12 5.12-7.68s5.12-5.12 10.24-7.68c0 0-7.68-2.56-25.6-5.12-12.8 33.28-30.72 58.88-51.2 74.24 10.24 2.56 17.92 5.12 20.48 7.68 10.24-10.24 20.48-25.6 33.28-46.08h25.6s-2.56 2.56-2.56 5.12c-2.56 5.12-2.56 7.68-5.12 12.8l-15.36-7.68-10.24 10.24h2.56c10.24 2.56 15.36 5.12 17.92 7.68 0 0-2.56 2.56-10.24 12.8-5.12-5.12-10.24-7.68-17.92-10.24L1658.88 430.08c10.24 2.56 15.36 5.12 20.48 10.24-15.36 10.24-25.6 17.92-33.28 20.48-5.12-10.24-10.24-20.48-20.48-33.28 12.8-35.84 20.48-56.32 23.04-64-5.12 0-15.36 2.56-30.72 2.56h-5.12c-15.36 0-25.6 0-28.16-2.56v156.16c0 20.48 0 33.28-2.56 38.4h23.04c-2.56-12.8-2.56-25.6-2.56-38.4v-138.24h28.16l-17.92 51.2c15.36 17.92 20.48 33.28 20.48 46.08-2.56 12.8-10.24 17.92-28.16 17.92 5.12 5.12 7.68 10.24 10.24 17.92 15.36-2.56 25.6-10.24 30.72-15.36 5.12-7.68 7.68-17.92 5.12-33.28 7.68 2.56 12.8 5.12 15.36 7.68 7.68-5.12 15.36-12.8 25.6-20.48v7.68c5.12 0 15.36 0 25.6-2.56h17.92c15.36 0 23.04 0 25.6 2.56v-15.36c10.24 10.24 23.04 17.92 33.28 25.6 5.12-7.68 12.8-12.8 17.92-15.36-15.36-2.56-30.72-12.8-46.08-28.16z m-30.72 17.92h-38.4c15.36-17.92 28.16-38.4 33.28-61.44 5.12 25.6 15.36 46.08 28.16 58.88-7.68 0-15.36 2.56-23.04 2.56z m20.48-33.28c-2.56-5.12-5.12-15.36-10.24-30.72h28.16c-5.12 12.8-12.8 23.04-17.92 30.72z" fill="#231815" p-id="6806"></path><path d="M1699.84 476.16h87.04v17.92h-53.76v43.52c0 7.68-2.56 12.8-5.12 15.36-5.12 2.56-15.36 5.12-30.72 5.12-2.56-10.24-5.12-15.36-7.68-20.48h20.48c2.56 0 5.12-2.56 5.12-5.12v-40.96h-51.2v-17.92c7.68 2.56 20.48 2.56 35.84 2.56z" fill="#231815" p-id="6807"></path><path d="M1681.92 499.2c15.36 5.12 20.48 10.24 20.48 10.24s-2.56 0-2.56 2.56c-2.56 0-7.68 2.56-10.24 5.12-10.24 12.8-23.04 20.48-33.28 28.16-2.56-2.56-10.24-7.68-20.48-10.24 20.48-7.68 35.84-20.48 46.08-35.84zM1804.8 535.04l-17.92 10.24c-7.68-12.8-20.48-25.6-38.4-35.84l15.36-10.24c17.92 15.36 33.28 25.6 40.96 35.84zM2060.8 506.88c7.68-5.12 17.92-12.8 28.16-20.48 2.56 0 2.56-2.56 5.12-2.56s5.12-2.56 5.12-2.56-7.68-5.12-23.04-12.8c-7.68 12.8-15.36 23.04-25.6 30.72-5.12-10.24-10.24-23.04-10.24-33.28h23.04c15.36 0 25.6 0 28.16 2.56-2.56-2.56-2.56-10.24 0-25.6v-81.92h-102.4c2.56 2.56 2.56 12.8 2.56 25.6V527.36c0 5.12-5.12 10.24-12.8 12.8 5.12 7.68 10.24 15.36 15.36 17.92 5.12-5.12 20.48-15.36 51.2-33.28l-5.12-12.8-28.16 20.48v-71.68h15.36c7.68 40.96 28.16 71.68 64 94.72 7.68-7.68 12.8-12.8 20.48-15.36-20.48-7.68-38.4-17.92-51.2-33.28z m12.8-130.56v28.16h-61.44v-28.16h61.44zM2012.16 445.44v-28.16h61.44v28.16h-61.44zM1971.2 407.04v15.36c-5.12 0-12.8-2.56-25.6-2.56h-7.68v25.6h15.36c12.8 0 23.04 0 28.16-2.56v17.92c-5.12 0-15.36 0-28.16-2.56h-15.36v61.44c15.36-2.56 28.16-5.12 40.96-7.68v17.92c-46.08 7.68-79.36 12.8-99.84 17.92-2.56-7.68-5.12-12.8-7.68-17.92 25.6-2.56 43.52-5.12 51.2-7.68v-61.44H1909.76c-15.36 0-25.6 0-33.28 2.56v-15.36c5.12 0 15.36 2.56 30.72 2.56h12.8v-23.04h-25.6v-10.24s-2.56 5.12-10.24 12.8c-5.12-5.12-10.24-7.68-15.36-12.8 23.04-17.92 40.96-40.96 53.76-66.56 2.56 0 5.12 2.56 10.24 2.56 10.24 2.56 15.36 5.12 15.36 5.12s-2.56 2.56-10.24 7.68c17.92 10.24 33.28 20.48 46.08 33.28-5.12 2.56-10.24 7.68-17.92 10.24-7.68-10.24-20.48-20.48-38.4-33.28-15.36 17.92-23.04 30.72-28.16 33.28 2.56 0 12.8 2.56 28.16 2.56 25.6-2.56 40.96-2.56 43.52-5.12z" fill="#231815" p-id="6808"></path><path d="M1960.96 512l-15.36-2.56c5.12-10.24 10.24-25.6 15.36-40.96 12.8 2.56 20.48 5.12 20.48 5.12s0 2.56-2.56 2.56l-5.12 5.12c-2.56 2.56-5.12 7.68-7.68 17.92-2.56 7.68-5.12 10.24-5.12 12.8zM1912.32 514.56c-5.12-15.36-7.68-28.16-12.8-40.96l-17.92 2.56c5.12 15.36 10.24 28.16 10.24 40.96l20.48-2.56zM2229.76 350.72c-12.8 17.92-33.28 38.4-61.44 58.88l15.36 15.36c17.92-12.8 38.4-30.72 64-58.88l-17.92-15.36zM2388.48 366.08c-10.24 0-23.04 0-40.96 2.56H2319.36c-12.8 0-25.6 0-40.96-2.56v20.48c7.68 0 23.04-2.56 43.52-2.56h28.16c17.92 0 30.72 0 38.4 2.56v-20.48zM2229.76 445.44v112.64H2206.72c2.56-10.24 2.56-20.48 2.56-35.84v-56.32l-25.6 25.6c-2.56-5.12-7.68-10.24-15.36-15.36 25.6-20.48 51.2-46.08 71.68-74.24 15.36 7.68 23.04 12.8 23.04 15.36-15.36 7.68-25.6 17.92-33.28 28.16zM2406.4 424.96c-7.68 0-23.04 2.56-43.52 2.56h-97.28v20.48c15.36 0 28.16-2.56 43.52-2.56h25.6v87.04c2.56 5.12-7.68 7.68-25.6 5.12 5.12 7.68 10.24 12.8 10.24 20.48 15.36 0 23.04-2.56 28.16-5.12s7.68-7.68 7.68-12.8V445.44h48.64v-20.48h2.56zM724.48 650.24l15.36 28.16h20.48l-25.6-38.4 25.6-35.84H742.4l-15.36 25.6-15.36-25.6h-20.48l25.6 35.84-25.6 38.4h17.92zM775.68 604.16h15.36v74.24h-15.36zM847.36 604.16H829.44l-25.6 74.24h15.36l5.12-15.36h28.16l5.12 15.36h15.36l-25.6-74.24z m-20.48 46.08l10.24-30.72 10.24 30.72h-20.48zM954.88 614.4v64h15.36V604.16h-25.6l-17.92 53.76-15.36-53.76h-25.6v74.24h15.36V614.4l20.48 64h12.8l20.48-64zM988.16 678.4h51.2V665.6h-35.84v-20.48h30.72v-12.8h-30.72V614.4h33.28v-12.8H988.16v76.8zM1123.84 678.4V604.16h-15.36v58.88L1080.32 604.16h-23.04v74.24h15.36v-61.44l28.16 61.44zM1164.8 604.16h15.36v74.24h-15.36zM1267.2 678.4V604.16h-15.36v58.88L1223.68 604.16h-23.04v74.24h15.36v-61.44l28.16 61.44zM1280 616.96h23.04v61.44h15.36v-61.44h23.04V604.16h-61.44v12.8zM1351.68 678.4h51.2V665.6h-35.84v-20.48h30.72v-12.8h-30.72V614.4h33.28v-12.8H1351.68v76.8zM1477.12 660.48v-2.56c0-10.24-5.12-15.36-12.8-15.36 10.24-2.56 15.36-7.68 15.36-17.92 0-12.8-7.68-17.92-25.6-17.92h-30.72V680.96h15.36v-33.28h15.36c5.12 0 5.12 2.56 7.68 10.24 0 7.68 0 12.8 2.56 20.48h17.92c-2.56-2.56-2.56-7.68-5.12-17.92z m-28.16-23.04h-12.8v-20.48h12.8c7.68 0 10.24 2.56 10.24 10.24s-2.56 10.24-10.24 10.24zM1561.6 678.4V604.16h-15.36v58.88l-28.16-58.88H1495.04v74.24h15.36v-61.44l28.16 61.44zM1617.92 604.16h-17.92l-25.6 74.24h15.36l5.12-15.36h28.16l5.12 15.36h15.36l-25.6-74.24z m-20.48 46.08l10.24-30.72 10.24 30.72h-20.48zM1651.2 616.96h23.04v61.44h15.36v-61.44h23.04V604.16H1653.76v12.8zM1725.44 604.16h15.36v74.24h-15.36zM1792 601.6c-23.04 0-35.84 12.8-35.84 38.4 2.56 25.6 12.8 38.4 35.84 38.4s33.28-12.8 35.84-38.4c0-25.6-12.8-38.4-35.84-38.4z m0 66.56c-12.8 0-17.92-7.68-17.92-25.6 0-20.48 7.68-28.16 17.92-28.16 12.8 0 17.92 10.24 17.92 28.16s-5.12 25.6-17.92 25.6zM1912.32 678.4V604.16h-15.36v58.88L1868.8 604.16h-23.04v74.24h15.36v-61.44l28.16 61.44h23.04zM1971.2 604.16h-17.92l-25.6 74.24h12.8l5.12-15.36h28.16l5.12 15.36h17.92l-25.6-74.24z m-23.04 46.08l10.24-30.72 10.24 30.72h-20.48zM2058.24 678.4V665.6h-30.72v-61.44h-15.36v74.24zM2137.6 642.56c7.68-2.56 12.8-7.68 12.8-15.36 0-12.8-10.24-17.92-25.6-17.92h-28.16v74.24h25.6v-5.12c17.92 0 28.16-7.68 30.72-17.92 0-10.24-5.12-15.36-15.36-17.92z m-28.16-25.6h12.8c7.68 0 10.24 2.56 10.24 7.68s-2.56 7.68-10.24 7.68H2109.44v-15.36z m12.8 48.64H2109.44v-20.48h12.8c7.68 0 12.8 2.56 12.8 10.24s-5.12 10.24-12.8 10.24zM2206.72 604.16h-17.92l-25.6 74.24h15.36l5.12-15.36h28.16l5.12 15.36h15.36l-25.6-74.24z m-20.48 46.08l10.24-30.72 10.24 30.72h-20.48zM2314.24 678.4V604.16h-15.36v58.88l-28.16-58.88H2247.68v74.24h15.36v-61.44l28.16 61.44zM2347.52 604.16h-15.36v74.24h15.36V640l25.6 38.4h20.48l-30.72-40.96 28.16-33.28h-17.92l-25.6 30.72z" fill="#231815" p-id="6809"></path><path d="M203.264 675.328l13.824-18.432L204.8 640h5.632l6.144 9.216c1.536 2.048 2.048 3.072 3.072 4.096 1.024-1.024 1.536-2.56 2.56-4.096l7.168-9.216h5.12l-12.288 16.384 13.312 18.432h-5.632l-8.704-12.8c-0.512-0.512-1.024-1.536-1.536-2.56-1.024 1.536-1.536 2.048-1.536 2.56l-8.704 12.288h-6.144v1.024z m39.936 0V640h4.608v35.328h-4.608z m15.36 0V640h13.312c2.56 0 4.608 0.512 6.656 1.024 1.536 0.512 3.072 2.048 3.584 3.072 1.024 1.536 1.536 3.072 1.536 4.608 0 1.536-0.512 3.072-1.024 4.096-1.024 1.536-2.048 2.56-3.584 3.072 2.048 0.512 3.584 1.536 5.12 3.072 1.024 1.536 1.536 3.072 1.536 5.12 0 1.536-0.512 3.072-1.024 4.608-0.512 1.536-1.536 2.56-2.56 3.072-1.024 1.024-2.56 1.536-4.096 1.536s-3.584 0.512-5.632 0.512h-13.824v1.536z m4.608-20.48h7.68c2.048 0 3.584 0 4.608-0.512 1.024-0.512 2.048-1.024 2.56-1.536 0.512-1.024 1.024-2.048 1.024-3.072 0-1.024-0.512-2.048-1.024-3.072-0.512-1.024-1.536-1.536-2.56-2.048-1.024-0.512-3.072-0.512-5.12-0.512h-7.168v10.752z m0 16.384h11.776c1.024 0 2.048-0.512 2.56-1.024 0.512-0.512 1.536-1.024 1.536-2.048 0.512-1.024 0.512-2.048 0.512-3.072 0-1.536-0.512-2.56-1.024-3.584-0.512-1.024-1.536-1.536-2.56-2.048-1.024-0.512-3.072-0.512-5.12-0.512h-8.192v12.288h0.512z m58.368-9.728v-4.096h14.848v13.312c-2.048 2.048-4.608 3.072-7.168 4.096-2.56 1.024-5.12 1.536-7.68 1.536-3.584 0-6.656-0.512-9.216-2.048-3.072-1.536-5.12-3.584-6.656-6.656-1.536-2.56-2.048-6.144-2.048-9.216 0-3.584 0.512-6.656 2.048-9.728 1.536-3.072 3.584-5.12 6.144-6.656 2.56-1.536 5.632-2.048 9.216-2.048 2.56 0 4.608 0.512 6.656 1.024 2.048 1.024 3.584 2.048 4.608 3.584 1.024 1.536 2.048 3.584 2.56 5.632l-4.096 1.024c-0.512-2.048-1.024-3.072-2.048-4.096-1.024-1.024-2.048-2.048-3.584-2.56-1.536-0.512-3.072-1.024-4.608-1.024-2.048 0-4.096 0.512-5.632 1.024-1.536 0.512-2.56 1.536-3.584 2.56-1.024 1.024-1.536 2.048-2.048 3.584-1.024 2.048-1.536 4.608-1.536 7.168 0 3.072 0.512 5.632 1.536 7.68 1.024 2.048 2.56 3.584 4.608 4.608 2.048 1.024 4.096 1.536 6.656 1.536 2.048 0 4.096-0.512 6.144-1.024 2.048-1.024 3.584-1.536 4.608-2.56v-6.656h-9.728z m25.088 13.824V640h15.872c3.072 0 5.632 0.512 7.168 1.024 1.536 0.512 3.072 1.536 4.096 3.584 1.024 1.536 1.536 3.584 1.536 5.12 0 2.56-1.024 4.608-2.56 6.144-1.536 1.536-4.096 2.56-7.68 3.072 1.024 0.512 2.048 1.024 2.56 1.536 1.536 1.024 2.56 2.56 4.096 4.608l6.144 9.728h-5.632l-4.608-7.168c-1.536-2.048-2.56-3.584-3.584-4.608-1.024-1.024-1.536-2.048-2.56-2.56-0.512-0.512-1.536-0.512-2.048-1.024h-8.192v15.872h-4.608z m4.608-19.456h10.24c2.048 0 3.584 0 5.12-0.512 1.024-0.512 2.048-1.024 2.56-2.048 0.512-1.024 1.024-2.048 1.024-3.072 0-1.536-0.512-3.072-2.048-4.096-1.024-1.024-3.072-1.536-5.632-1.536h-11.264v11.264z m31.744 2.048c0-5.632 1.536-10.24 4.608-13.824 3.072-3.072 7.168-5.12 12.288-5.12 3.072 0 6.144 1.024 8.704 2.56s4.608 3.584 6.144 6.656c1.536 2.56 2.048 6.144 2.048 9.216 0 3.584-0.512 6.656-2.048 9.728-1.536 3.072-3.584 5.12-6.144 6.656-2.56 1.536-5.632 2.048-8.704 2.048-3.072 0-6.144-1.024-8.704-2.56s-4.608-3.584-6.144-6.656c-1.024-2.56-2.048-5.12-2.048-8.704z m5.12 0.512c0 4.096 1.024 7.68 3.584 10.24 2.048 2.56 5.12 3.584 8.704 3.584s6.656-1.024 8.704-3.584c2.048-2.56 3.584-6.144 3.584-10.752 0-3.072-0.512-5.12-1.536-7.68s-2.56-3.584-4.096-5.12c-2.048-1.024-4.096-1.536-6.144-1.536-3.072 0-6.144 1.024-8.704 3.584-3.072 2.048-4.096 5.632-4.096 11.264z m60.416-18.432h4.608v20.48c0 3.584-0.512 6.144-1.024 8.192-1.024 2.048-2.048 3.584-4.096 5.12-2.048 1.536-4.608 2.048-8.192 2.048-3.072 0-6.144-0.512-8.192-1.536-2.048-1.024-3.584-2.56-4.608-5.12-1.024-2.048-1.536-5.12-1.536-8.704v-20.48h4.608v20.48c0 3.072 0.512 5.12 1.024 6.656 0.512 1.536 1.536 2.56 3.072 3.584 1.536 1.024 3.072 1.024 5.12 1.024 3.584 0 5.632-1.024 7.168-2.56 1.536-1.536 2.048-4.608 2.048-8.704v-20.48z m15.36 35.328V640h13.312c2.56 0 4.096 0 5.12 0.512l4.608 1.536c1.024 1.024 2.048 2.048 3.072 3.584 0.512 1.536 1.024 3.072 1.024 4.608 0 3.072-1.024 5.632-3.072 7.68-2.048 2.048-5.12 3.072-10.24 3.072h-9.216v14.336h-4.608z m4.608-18.432h9.216c3.072 0 5.12-0.512 6.656-1.536 1.024-1.024 2.048-2.56 2.048-4.608 0-1.536-0.512-2.56-1.024-3.584-0.512-1.024-1.536-1.536-3.072-2.048-1.024 0-2.048-0.512-4.096-0.512h-9.216v12.288z" fill="#0085D0" p-id="6810"></path></svg>