<?xml version="1.0" standalone="no"?><!DOCTYPE svg PUBLIC "-//W3C//DTD SVG 1.1//EN" "http://www.w3.org/Graphics/SVG/1.1/DTD/svg11.dtd"><svg t="1531986212465" class="icon" style="" viewBox="0 0 2560 1024" version="1.1" xmlns="http://www.w3.org/2000/svg" p-id="5849" xmlns:xlink="http://www.w3.org/1999/xlink" width="500" height="200"><defs><style type="text/css"></style></defs><path d="M284.16 381.44H222.72L153.6 504.32h61.44z" fill="#05348B" p-id="5850"></path><path d="M294.4 381.44h58.88l71.68 122.88h-61.44z" fill="#25B7AB" p-id="5851"></path><path d="M424.96 514.56h-61.44l-69.12 122.88h58.88z" fill="#05348B" p-id="5852"></path><path d="M153.6 514.56h61.44l69.12 122.88H222.72z" fill="#25B7AB" p-id="5853"></path><path d="M563.2 381.44h-58.88l-71.68 122.88h61.44z" fill="#05348B" p-id="5854"></path><path d="M573.44 381.44h61.44l69.12 122.88h-61.44z" fill="#25B7AB" p-id="5855"></path><path d="M704 514.56h-61.44l-69.12 122.88h61.44z" fill="#05348B" p-id="5856"></path><path d="M432.64 514.56h61.44l69.12 122.88h-58.88z" fill="#25B7AB" p-id="5857"></path><path d="M424.96 248.32h-61.44l-69.12 122.88h58.88z" fill="#05348B" p-id="5858"></path><path d="M432.64 248.32h61.44l69.12 122.88h-58.88z" fill="#25B7AB" p-id="5859"></path><path d="M432.64 773.12h61.44l69.12-120.32h-58.88z" fill="#05348B" p-id="5860"></path><path d="M424.96 773.12h-61.44l-69.12-120.32h58.88z" fill="#25B7AB" p-id="5861"></path><path d="M1016.32 488.96c-33.28-28.16-71.68-71.68-71.68-107.52v-12.8h-35.84v12.8c2.56 53.76-51.2 112.64-84.48 138.24l17.92 15.36c43.52-25.6 69.12-53.76 84.48-89.6 10.24 12.8 46.08 46.08 74.24 61.44l15.36-17.92zM967.68 291.84h79.36s51.2 51.2 128 69.12l20.48-12.8c-69.12-23.04-97.28-53.76-125.44-94.72h-117.76c-30.72 40.96-48.64 71.68-117.76 94.72l20.48 10.24c66.56-17.92 112.64-66.56 112.64-66.56z" fill="#05348B" p-id="5862"></path><path d="M1113.6 381.44v-12.8h-35.84v12.8c0 74.24-81.92 133.12-89.6 138.24l17.92 12.8c51.2-20.48 69.12-51.2 89.6-84.48 20.48 30.72 28.16 53.76 81.92 81.92l20.48-12.8c-56.32-33.28-87.04-84.48-84.48-135.68zM1249.28 312.32v-25.6h71.68V256h40.96v33.28h61.44v25.6h-61.44v38.4h61.44v25.6h-61.44v43.52h61.44v25.6H1356.8c-7.68 40.96-30.72 64-81.92 87.04l-15.36-17.92c30.72-17.92 53.76-43.52 58.88-71.68h-71.68v-25.6h71.68v-43.52h-71.68v-25.6h71.68v-38.4h-69.12z m192 225.28V268.8h130.56c15.36 7.68 23.04 25.6 17.92 40.96-5.12 15.36-15.36 25.6-25.6 35.84-7.68 7.68-7.68 20.48 0 28.16 15.36 15.36 28.16 33.28 28.16 53.76 0 43.52-17.92 61.44-76.8 58.88l-10.24-25.6c30.72 0 48.64-12.8 48.64-38.4 0-15.36-12.8-33.28-30.72-48.64-7.68-7.68-7.68-17.92-2.56-25.6 7.68-12.8 15.36-23.04 20.48-38.4 5.12-12.8-5.12-25.6-17.92-25.6h-33.28v256h-48.64zM1640.96 343.04l-10.24-15.36c43.52-17.92 53.76-46.08 56.32-71.68h43.52c-2.56 10.24-5.12 17.92-10.24 28.16h56.32v25.6h-71.68c-12.8 10.24-38.4 28.16-64 33.28z m33.28 23.04v-25.6h104.96v25.6h-43.52V409.6h43.52v25.6h-43.52v76.8h40.96l-7.68 23.04h-40.96c-15.36 0-28.16-12.8-28.16-28.16V435.2h-48.64v-25.6h48.64v-43.52h-25.6z m133.12 138.24v-238.08h192v89.6c0 28.16-15.36 40.96-51.2 40.96h-102.4V512H1894.4l-7.68 23.04h-51.2c-15.36-2.56-28.16-15.36-28.16-30.72z m40.96-212.48v25.6h112.64v-25.6h-112.64z m87.04 81.92c15.36 0 23.04-5.12 23.04-17.92v-12.8h-112.64v30.72h89.6z m53.76 158.72c-66.56-25.6-104.96-79.36-120.32-125.44h38.4c5.12 23.04 12.8 35.84 28.16 56.32 17.92-17.92 30.72-38.4 38.4-56.32h33.28c-10.24 28.16-28.16 53.76-56.32 74.24 10.24 15.36 25.6 25.6 53.76 43.52l-15.36 7.68zM2068.48 340.48l-15.36-12.8c35.84-15.36 51.2-40.96 64-74.24h46.08c-15.36 51.2-48.64 76.8-94.72 87.04z m40.96 197.12v-138.24c-15.36 10.24-30.72 17.92-46.08 20.48l-7.68-10.24c35.84-17.92 53.76-46.08 66.56-79.36h46.08c-5.12 23.04-10.24 30.72-20.48 43.52V537.6h-38.4z m76.8-176.64V332.8H2406.4v28.16h-56.32v135.68c0 28.16-15.36 40.96-48.64 40.96h-56.32v-25.6H2278.4c15.36 0 20.48-5.12 20.48-15.36v-135.68h-112.64z m10.24-71.68v-28.16h189.44v28.16h-189.44z" fill="#05348B" p-id="5863"></path><path d="M929.28 775.68l135.68-143.36h-130.56l12.8-17.92h192l-133.12 143.36h133.12l-20.48 20.48h-189.44zM1187.84 711.68v-17.92h99.84v17.92h-99.84zM1512.96 770.56c-15.36 2.56-25.6 2.56-53.76 2.56h-97.28v-161.28h117.76c20.48 0 38.4 2.56 53.76 12.8 12.8 7.68 20.48 17.92 20.48 30.72 0 10.24-5.12 20.48-17.92 28.16-5.12 2.56-10.24 5.12-12.8 5.12-2.56 0-5.12 0-7.68 2.56 7.68 2.56 12.8 2.56 20.48 5.12 10.24 5.12 25.6 15.36 25.6 35.84-2.56 25.6-33.28 35.84-48.64 38.4z m-10.24-138.24c-10.24-5.12-17.92-5.12-38.4-5.12h-71.68v48.64h53.76c20.48 0 38.4 0 46.08-2.56 10.24-2.56 28.16-7.68 28.16-23.04-2.56-2.56-2.56-10.24-17.92-17.92z m20.48 81.92c-2.56-5.12-10.24-12.8-30.72-15.36-10.24-2.56-17.92-2.56-38.4-2.56h-61.44v56.32h74.24c12.8 0 25.6 0 30.72-2.56 2.56 0 7.68 0 12.8-2.56 7.68-2.56 17.92-7.68 17.92-23.04-2.56 0-2.56-5.12-5.12-10.24zM1768.96 773.12l-28.16-51.2h-94.72l-28.16 48.64h-35.84l94.72-161.28h35.84l92.16 161.28h-35.84z m-74.24-135.68l-38.4 66.56h74.24l-35.84-66.56zM2001.92 773.12L1863.68 640l2.56 133.12h-30.72v-161.28h30.72l135.68 130.56-2.56-130.56h30.72v161.28h-28.16zM2240 773.12l-87.04-79.36-35.84 23.04v56.32h-33.28v-161.28h33.28V691.2l120.32-79.36H2278.4l-102.4 66.56 104.96 94.72h-40.96z" fill="#05348B" p-id="5864"></path></svg>