<?xml version="1.0" standalone="no"?><!DOCTYPE svg PUBLIC "-//W3C//DTD SVG 1.1//EN" "http://www.w3.org/Graphics/SVG/1.1/DTD/svg11.dtd"><svg t="1531986170679" class="icon" style="" viewBox="0 0 2560 1024" version="1.1" xmlns="http://www.w3.org/2000/svg" p-id="4330" xmlns:xlink="http://www.w3.org/1999/xlink" width="500" height="200"><defs><style type="text/css"></style></defs><path d="M670.72 302.08c174.08-79.36 302.08 12.8 343.04 168.96 0 0-64-30.72-125.44-17.92-61.44 10.24-92.16-17.92-104.96-28.16-2.56 17.92 7.68 28.16 12.8 43.52-10.24-2.56-25.6-10.24-46.08-58.88-38.4-17.92-71.68-46.08-79.36-107.52z" fill="#E60012" p-id="4331"></path><path d="M965.12 335.36c53.76 48.64 102.4 117.76 122.88 179.2 12.8 53.76 25.6 79.36 46.08 97.28 20.48 17.92 35.84 17.92 58.88 25.6 25.6 10.24 51.2 25.6 71.68 48.64-125.44-43.52-194.56 0-199.68 58.88-51.2-64-7.68-156.16-28.16-243.2-15.36-81.92-61.44-153.6-71.68-166.4z" fill="#F08300" p-id="4332"></path><path d="M711.68 588.8c-25.6-2.56-43.52 7.68-53.76 23.04l-2.56-25.6h-58.88V742.4h58.88v-87.04c0-25.6 46.08-28.16 46.08 0V742.4h58.88v-92.16c0-5.12 0-15.36-5.12-23.04-5.12-17.92-17.92-35.84-43.52-38.4zM975.36 570.88h-66.56l-61.44 64V537.6h-58.88v204.8h58.88v-38.4l25.6-25.6 38.4 64H972.8l-61.44-104.96zM309.76 634.88c23.04-10.24 35.84-25.6 35.84-40.96 0-35.84-17.92-53.76-64-53.76H153.6v207.36h117.76c69.12 0 87.04-20.48 87.04-53.76 0-38.4-23.04-53.76-48.64-58.88z m-99.84-53.76h43.52c12.8 0 28.16 0 28.16 17.92 0 15.36-12.8 20.48-28.16 20.48H209.92v-38.4z m43.52 120.32H209.92v-43.52h43.52c23.04 0 35.84 2.56 35.84 23.04 0 17.92-10.24 20.48-35.84 20.48zM560.64 645.12c0-35.84-10.24-56.32-79.36-56.32h-5.12c-23.04 0-43.52-2.56-56.32 2.56-17.92 7.68-28.16 25.6-30.72 43.52h58.88c2.56-10.24 12.8-15.36 25.6-17.92 15.36 0 30.72 5.12 30.72 20.48-7.68 2.56-17.92 5.12-30.72 7.68-40.96 7.68-87.04 15.36-87.04 53.76 0 25.6 17.92 40.96 58.88 40.96 10.24 0 20.48-2.56 28.16-5.12 10.24-2.56 23.04-10.24 30.72-15.36 0 7.68 5.12 12.8 7.68 20.48h51.2c0-5.12-2.56-10.24-2.56-15.36v-79.36z m-87.04 66.56c-12.8 2.56-25.6 0-28.16-12.8-2.56-7.68 10.24-15.36 28.16-23.04 7.68-2.56 17.92-2.56 25.6-2.56 0 23.04-12.8 33.28-25.6 38.4zM1423.36 665.6H1459.2v87.04h-35.84zM1402.88 696.32c0-10.24-7.68-15.36-20.48-17.92h-61.44v15.36h43.52v40.96h-43.52v15.36h66.56c7.68 0 15.36-10.24 12.8-15.36v-38.4zM2232.32 550.4h-35.84l-38.4 46.08h35.84zM1482.24 696.32v40.96c0 7.68 5.12 15.36 12.8 15.36H1561.6v-15.36h-43.52v-40.96H1561.6v-15.36h-61.44c-12.8 0-17.92 5.12-17.92 15.36zM1656.32 550.4h-56.32v202.24h30.72V742.4H1664c10.24 0 15.36-7.68 15.36-23.04v-69.12c0-10.24-7.68-12.8-17.92-12.8 12.8-10.24 17.92-12.8 17.92-28.16v-40.96c0-15.36-5.12-20.48-23.04-17.92z m-5.12 174.08h-15.36v-158.72h15.36v158.72zM2155.52 652.8h30.72l-2.56 99.84h35.84v-128l17.92-20.48h-40.96zM1978.88 547.84V716.8c0 28.16 5.12 33.28 20.48 35.84h40.96v-12.8h-25.6v-84.48h81.92c12.8 0 23.04-7.68 23.04-25.6v-81.92h-140.8z m104.96 92.16h-66.56v-28.16h66.56V640z m0-46.08h-66.56v-28.16h66.56v28.16z" fill="" p-id="4333"></path><path d="M2035.2 670.72c-7.68 0-7.68 7.68-2.56 15.36l17.92 23.04 33.28 43.52h35.84l-51.2-64h51.2v-15.36H2035.2zM2250.24 547.84H2406.4v15.36h-156.16zM1920 550.4h-30.72v17.92c0 12.8-5.12 17.92-10.24 17.92v15.36h20.48c10.24 0 17.92-7.68 23.04-17.92H1971.2v-15.36h-51.2v-17.92zM2250.24 614.4h94.72v122.88h-51.2v15.36h66.56c15.36-2.56 20.48-10.24 20.48-25.6V614.4h25.6v-15.36h-156.16v15.36zM1694.72 652.8v12.8h58.88v23.04h-17.92v-12.8h-40.96v23.04h58.88v12.8h-58.88v12.8h58.88v15.36h-58.88v12.8h153.6v-12.8h-58.88v-15.36h58.88v-12.8h-58.88v-12.8h58.88v-10.24h-58.88V665.6h58.88v-12.8H1766.4zM1876.48 624.64h25.6V665.6h-25.6v12.8h25.6v51.2c0 15.36 5.12 20.48 12.8 23.04h51.2v-12.8h-28.16v-61.44h28.16V665.6h-28.16v-40.96h28.16v-12.8h-89.6v12.8zM1725.44 599.04l2.56-10.24 15.36 17.92-25.6 23.04h-25.6v10.24h53.76l17.92-12.8 7.68-5.12 28.16 17.92H1843.2v-7.68h-20.48l-33.28-25.6 53.76-40.96v-7.68h-104.96v-10.24h-30.72l-7.68 35.84h-5.12l-2.56 15.36h33.28z m10.24-30.72h64l-28.16 23.04-5.12-5.12-5.12-5.12h-30.72l5.12-12.8zM1466.88 545.28h-48.64v7.68h-94.72v15.36h94.72v15.36h-94.72v17.92h94.72v12.8h-94.72v17.92h69.12l-28.16 15.36h-40.96v17.92h71.68l38.4-28.16h15.36l40.96 28.16H1561.6v-17.92h-40.96l-28.16-15.36h71.68V614.4h-97.28v-12.8h97.28v-17.92h-97.28v-15.36h97.28v-15.36h-97.28z" fill="" p-id="4334"></path></svg>