<?xml version="1.0" standalone="no"?><!DOCTYPE svg PUBLIC "-//W3C//DTD SVG 1.1//EN" "http://www.w3.org/Graphics/SVG/1.1/DTD/svg11.dtd"><svg t="1531987138191" class="icon" style="" viewBox="0 0 1024 1024" version="1.1" xmlns="http://www.w3.org/2000/svg" p-id="1652" xmlns:xlink="http://www.w3.org/1999/xlink" width="200" height="200"><defs><style type="text/css"></style></defs><path d="M811 833.5H364.3c-24.2 0-44-19.8-44-44V108.7c0-24.2 19.8-44 44-44H671l184 184v540.8c0 24.2-19.8 44-44 44z" fill="#00B5FC" p-id="1653"></path><path d="M321.7 831.5l-1.4-660h235.9l186.2 184v476z" fill="#079FDB" p-id="1654"></path><path d="M658.4 960.2H211.7c-24.2 0-44-19.3-44-42.8v-663c0-23.6 19.8-42.8 44-42.8h306.7l184 179.2v526.6c0 23.5-19.8 42.8-44 42.8z" fill="#FF5F5F" p-id="1655"></path><path d="M702.4 425.4H491.1V214z" fill="#F34D4B" p-id="1656"></path><path d="M688.7 411.7h-184v-184z" fill="#FFFFFF" p-id="1657"></path><path d="M855 276.3H643.6V65z" fill="#079FDB" p-id="1658"></path><path d="M841.3 262.7h-184V78.6zM575.3 547.8H244.9c-11 0-20-9-20-20s9-20 20-20h330.4c11 0 20 9 20 20s-9 20-20 20zM478.9 838.1h-234c-11 0-20-9-20-20s9-20 20-20h234c11 0 20 9 20 20s-9 20-20 20zM654.8 644.5H244.5c-11 0-20-9-20-20s9-20 20-20h410.3c11 0 20 9 20 20s-9 20-20 20zM654.3 741.4H244.5c-11 0-20-9-20-20s9-20 20-20h409.8c11 0 20 9 20 20s-9 20-20 20z" fill="#FFFFFF" p-id="1659"></path></svg>