<?xml version="1.0" standalone="no"?><!DOCTYPE svg PUBLIC "-//W3C//DTD SVG 1.1//EN" "http://www.w3.org/Graphics/SVG/1.1/DTD/svg11.dtd"><svg t="1531987187699" class="icon" style="" viewBox="0 0 1024 1024" version="1.1" xmlns="http://www.w3.org/2000/svg" p-id="3876" xmlns:xlink="http://www.w3.org/1999/xlink" width="200" height="200"><defs><style type="text/css"></style></defs><path d="M900.4 908.6H124.2c-33 0-60-27-60-60V329c0-33 27-60 60-60h776.2c33 0 60 27 60 60v519.7c0 32.9-27 59.9-60 59.9z" fill="#00B5FC" p-id="3877"></path><path d="M673 417.9H351.6c-17.2 0-31.3-14.1-31.3-31.3v-21.8c0-17.2 14.1-31.3 31.3-31.3H673c17.2 0 31.3 14.1 31.3 31.3v21.8c0 17.1-14.1 31.3-31.3 31.3z" fill="#079FDB" p-id="3878"></path><path d="M672.6 396.8H352c-17.4 0-31.7-14.3-31.7-31.7s14.3-31.7 31.7-31.7h320.7c17.4 0 31.7 14.3 31.7 31.7-0.1 17.4-14.3 31.7-31.8 31.7z" fill="#694B4B" p-id="3879"></path><path d="M384.3 365.1v-126c0-70.4 57.6-128 128-128s128 57.6 128 128V365" fill="#E5E4DD" p-id="3880"></path><path d="M512.3 206.9m-45.8 0a45.8 45.8 0 1 0 91.6 0 45.8 45.8 0 1 0-91.6 0Z" fill="#FFFFFF" p-id="3881"></path><path d="M856.2 766H520.5c-16 0-29-13.1-29-29 0-16 13.1-29 29-29h335.7c16 0 29 13.1 29 29 0 16-13.1 29-29 29zM669.4 627.2h-149c-16 0-29-13.1-29-29 0-16 13.1-29 29-29h149c16 0 29 13.1 29 29 0.1 16-13 29-29 29z" fill="#FFFFFF" p-id="3882"></path><path d="M277.8 704.7h-18.7c-14.4 0-26.2-11.8-26.2-26.2v-37.6c0-14.4 11.8-26.2 26.2-26.2h18.7c14.4 0 26.2 11.8 26.2 26.2v37.6c0 14.5-11.8 26.2-26.2 26.2z" fill="#F7C9A4" p-id="3883"></path><path d="M393.7 823.9v-68.7c0-32-56.4-53.2-125.2-53.2-68.9 0-125.2 21.2-125.2 53.2v68.7h250.4z" fill="#E8E8DD" p-id="3884"></path><path d="M218.6 618.5h-20.5c-10.1 0-18.4-8.3-18.4-18.4 0-10.1 8.3-18.4 18.4-18.4h20.5c10.1 0 18.4 8.3 18.4 18.4 0 10.2-8.3 18.4-18.4 18.4zM335.1 616.8h-20.5c-10.1 0-18.4-8.3-18.4-18.4 0-10.1 8.3-18.4 18.4-18.4h20.5c10.1 0 18.4 8.3 18.4 18.4 0 10.1-8.3 18.4-18.4 18.4z" fill="#F7C9A4" p-id="3885"></path><path d="M382.6 823.9v-68.7c0-32-32.1-53.2-114.1-53.2-80.2 0-114.1 21.2-114.1 53.2v68.7h228.2z" fill="#F2F2F1" p-id="3886"></path><path d="M268.4 667.6c-36.4 0-66.2-21-66.2-59.6v-51.2c0-38.5 29.8-70.1 66.2-70.1 36.4 0 66.2 31.5 66.2 70.1V608c0 38.6-29.8 59.6-66.2 59.6z" fill="#FFD9B6" p-id="3887"></path><path d="M229.1 592.9a7.3 9.1 0 1 0 14.6 0 7.3 9.1 0 1 0-14.6 0Z" fill="#694B4B" p-id="3888"></path><path d="M292.8 592.9a7.3 9.1 0 1 0 14.6 0 7.3 9.1 0 1 0-14.6 0Z" fill="#694B4B" p-id="3889"></path><path d="M202.6 823.9v-42.7c0-2.9-2.4-5.3-5.3-5.3s-5.3 2.4-5.3 5.3v42.7h10.6zM344.4 823.9v-42.7c0-2.9-2.4-5.3-5.3-5.3s-5.3 2.4-5.3 5.3v42.7h10.6z" fill="#E5E5DB" p-id="3890"></path><path d="M293.5 705.9h-49.8c-3.3 4.7-3.3 12.3 0 17l18.9 26.8c3.3 4.7 8.7 4.7 12 0l18.9-26.8c3.3-4.7 3.3-12.4 0-17z" fill="#0AC2FD" p-id="3891"></path><path d="M340.2 485.9h-92.7c-11 0-20.6 7.5-25.1 18.3-14.3 1.3-24.2 15.3-24.2 32.1l4 45.5h19.2c1 0 1.8-0.8 1.8-1.9v-24.8c0-1.2 0.8-2.2 1.9-2.2l85.4 8.7c1 0 1.9 1 1.9 2.2v15.5c0 1.4 1.1 2.5 2.5 2.5h18.5c7.4 0 13.8-87.8 13.8-87.8 0.6-4.7-3.1-8.1-7-8.1z" fill="#F7CCA5" p-id="3892"></path><path d="M344.7 482.1h-96.9c-11.2 0-20.9 7.4-25.4 18-14.5 1.2-26 14.9-26 31.4l5.3 44.7h15.9c1 0 1.8-0.8 1.8-1.8v-24.3c0-1.2 0.9-2.1 1.9-2.1l94.1 8.5c1 0 1.9 1 1.9 2.1v15.2c0 1.4 1.1 2.5 2.5 2.5h16.9c4.7 0 15.1-86.2 15.1-86.2 0.5-4.7-3.2-8-7.1-8z" fill="#694B4B" p-id="3893"></path><path d="M268.1 705.5l-13.9 30.3c-2.5 3.9-5.2 8.1-9.2 4.5l-39.4-28.9c-3-3-6.1-5.3-4.9-9l12.3-20.7c1.2-3.7 5.3-5.7 9.2-4.5l41 19.3c3.9 1.3 6.1 5.3 4.9 9z" fill="#E8E8DD" p-id="3894"></path><path d="M268.8 705.3l13.7 30.4c2.5 4 5.1 8.1 9.2 4.5l39.6-28.6c3-3 6.1-5.3 4.9-9l-8-19.6c-1.2-3.7-5.3-5.7-9.2-4.5l-45.3 17.8c-3.8 1.2-6 5.3-4.9 9z" fill="#E8E8DD" p-id="3895"></path><path d="M282.6 824.2h-28.2c-2.9 0-5.3-1.1-5.3-2.6l11.4-78.5c0-1.4 2.4-2.6 5.3-2.6h5.3c2.9 0 5.3 1.1 5.3 2.6l11.4 78.5c0.1 1.5-2.3 2.6-5.2 2.6z" fill="#0AC2FD" p-id="3896"></path><path d="M274.6 748.9H262c-1.2 0-2.1-0.9-2.1-2.1 0-1.2 0.9-2.1 2.1-2.1h12.6c1.2 0 2.1 0.9 2.1 2.1 0 1.1-1 2.1-2.1 2.1z" fill="#079FDB" p-id="3897"></path></svg>