<?xml version="1.0" standalone="no"?><!DOCTYPE svg PUBLIC "-//W3C//DTD SVG 1.1//EN" "http://www.w3.org/Graphics/SVG/1.1/DTD/svg11.dtd"><svg t="1531987160865" class="icon" style="" viewBox="0 0 1024 1024" version="1.1" xmlns="http://www.w3.org/2000/svg" p-id="2345" xmlns:xlink="http://www.w3.org/1999/xlink" width="200" height="200"><defs><style type="text/css"></style></defs><path d="M111.8 845.1h55.6l68.9 68.9 68.9-68.9h435.4c26.1 0 47.4-21.3 47.4-47.4v-319c0-26.1-21.3-47.4-47.4-47.4H111.8c-26.1 0-47.4 21.3-47.4 47.4v319c0 26.1 21.3 47.4 47.4 47.4z" fill="#FFDD60" p-id="2346"></path><path d="M151 845.1h54.9l30.6 68.9 69-68.9H742c25.3 0 46-21.3 46-47.4v-319c0-26.1-20.7-47.4-46-47.4H151c-25.3 0-46 21.3-46 47.4v319c0.1 26.1 20.7 47.4 46 47.4z" fill="#FFF082" p-id="2347"></path><path d="M663.5 540.9m-16.3 0a16.3 16.3 0 1 0 32.6 0 16.3 16.3 0 1 0-32.6 0Z" fill="#FFFFFF" p-id="2348"></path><path d="M213.2 561h367.3c11 0 20-9 20-20v-0.2c0-11-9-20-20-20H213.2c-11 0-20 9-20 20v0.2c0 11 9 20 20 20zM213.7 658.2h446.6c11 0 20-9 20-20v-0.2c0-11-9-20-20-20H213.7c-11 0-20 9-20 20v0.2c0 11 9 20 20 20zM213.7 755.6h446.6c11 0 20-9 20-20v-0.2c0-11-9-20-20-20H213.7c-11 0-20 9-20 20v0.2c0 11 9 20 20 20z" fill="#FFFFFF" p-id="2349"></path><path d="M788.2 659.6l-70-75.6H281.7c-25.3 0-46-23.4-46-52V181.7c0-28.6 20.7-52 46-52h506.6l-0.1 529.9z" fill="#FFDD60" p-id="2350"></path><path d="M911.9 543.5h-55.6l-68.9 68.9-68.9-68.9H283.1c-26.1 0-47.4-21.3-47.4-47.4V177c0-26.1 21.3-47.4 47.4-47.4H912c26.1 0 47.4 21.3 47.4 47.4v319c-0.1 26.2-21.4 47.5-47.5 47.5z" fill="#9ED756" p-id="2351"></path><path d="M873.7 543.5h-55.9l-30.6 68.9-69-68.9H281.7c-25.3 0-46-21.3-46-47.4V177c0-26.1 20.7-47.4 46-47.4h592c25.3 0 46 21.3 46 47.4v319c0 26.2-20.7 47.5-46 47.5z" fill="#B5E66E" p-id="2352"></path><path d="M363.6 242.8m-20.1 0a20.1 20.1 0 1 0 40.2 0 20.1 20.1 0 1 0-40.2 0Z" fill="#FFFFFF" p-id="2353"></path><path d="M810.8 262.9H443c-10.9 0-19.8-8.9-19.8-19.8v-0.7c0-10.9 8.9-19.8 19.8-19.8h367.8c10.9 0 19.8 8.9 19.8 19.8v0.7c-0.1 10.9-9 19.8-19.8 19.8zM810.1 358.4H363.4c-11 0-20-9-20-20v-0.2c0-11 9-20 20-20H810c11 0 20 9 20 20v0.2c0.1 11-8.9 20-19.9 20zM810.1 453.9H363.4c-11 0-20-9-20-20v-0.2c0-11 9-20 20-20H810c11 0 20 9 20 20v0.2c0.1 11-8.9 20-19.9 20z" fill="#FFFFFF" p-id="2354"></path></svg>