<?xml version="1.0" standalone="no"?><!DOCTYPE svg PUBLIC "-//W3C//DTD SVG 1.1//EN" "http://www.w3.org/Graphics/SVG/1.1/DTD/svg11.dtd"><svg t="1531987146760" class="icon" style="" viewBox="0 0 1024 1024" version="1.1" xmlns="http://www.w3.org/2000/svg" p-id="1920" xmlns:xlink="http://www.w3.org/1999/xlink" width="200" height="200"><defs><style type="text/css"></style></defs><path d="M800.3 959.8H222.5c-33 0-60-27-60-60V379.7c0-33 27-60 60-60h577.8c33 0 60 27 60 60v520.1c0 33-27 60-60 60z" fill="#FF5F5F" p-id="1921"></path><path d="M162.5 252h697.8v257H162.5z" fill="#F44D4C" p-id="1922"></path><path d="M867.3 468.4h-710c-33 0-60-27-60-60v-137c0-33 27-60 60-60h710c33 0 60 27 60 60v137c0 33-27 60-60 60z" fill="#FF5F5F" p-id="1923"></path><path d="M489.4 508.9h126v448h-126z" fill="#F44D4C" p-id="1924"></path><path d="M449.4 203.8h126v756.1h-126z" fill="#FFF082" p-id="1925"></path><path d="M444.1 73.9c35.1 20.1 92.8 90.7 72.8 125.9s-110.2 21.4-145.4 1.4-47.4-64.8-27.3-99.9 64.8-47.5 99.9-27.4z" fill="#FFF082" p-id="1926"></path><path d="M581.5 73.9c-35.1 20.1-92.8 90.7-72.8 125.9 20.1 35.1 110.2 21.4 145.4 1.4 35.1-20.1 47.4-64.8 27.3-99.9s-64.8-47.5-99.9-27.4z" fill="#FFF082" p-id="1927"></path></svg>