<?xml version="1.0" standalone="no"?><!DOCTYPE svg PUBLIC "-//W3C//DTD SVG 1.1//EN" "http://www.w3.org/Graphics/SVG/1.1/DTD/svg11.dtd"><svg t="1531987167694" class="icon" style="" viewBox="0 0 1024 1024" version="1.1" xmlns="http://www.w3.org/2000/svg" p-id="2764" xmlns:xlink="http://www.w3.org/1999/xlink" width="200" height="200"><defs><style type="text/css"></style></defs><path d="M796.6 959.6v-182c0-124.8-128.4-227-285.3-227S226 652.7 226 777.6v182h570.6z" fill="#F44D4C" p-id="2765"></path><path d="M508.9 571.3c-110 0-246.7-40.3-246.7-106.8 0 0 97.9-352.2 135-352.2H621c37.1 0 135 355.2 135 355.2 0 61-137.1 103.8-247.1 103.8z" fill="#694B4B" p-id="2766"></path><path d="M381.4 421h-53.7c-26.5 0-48.1-21.7-48.1-48.1 0-26.5 21.7-48.1 48.1-48.1h53.7c26.5 0 48.1 21.7 48.1 48.1 0 26.4-21.7 48.1-48.1 48.1zM686.9 416.4h-53.7c-26.5 0-48.1-21.7-48.1-48.1 0-26.5 21.7-48.1 48.1-48.1h53.7c26.5 0 48.1 21.7 48.1 48.1 0.1 26.4-21.6 48.1-48.1 48.1z" fill="#F7C9A4" p-id="2767"></path><path d="M756.6 959.6V775.1c0-126.5-110.4-230-245.3-230S266 648.6 266 775.1v184.5h490.6z" fill="#FF5F5F" p-id="2768"></path><path d="M639.5 584.2c0 207.3-127.2 375.3-127.2 375.3s-127.2-168-127.2-375.3S442 208.9 512.3 208.9 639.5 377 639.5 584.2z" fill="#EFF2F4" p-id="2769"></path><path d="M512 608.5c-28.4 0-51.6-23.2-51.6-51.6v-84.3c0-28.4 23.2-51.6 51.6-51.6 28.4 0 51.6 23.2 51.6 51.6v84.3c0 28.4-23.2 51.6-51.6 51.6z" fill="#F7C9A4" p-id="2770"></path><path d="M512 523.1c-95.4 0-173.5-52.1-173.5-147.5V249c0-95.4 78.1-173.5 173.5-173.5S685.5 153.6 685.5 249v126.7c0 95.3-78.1 147.4-173.5 147.4z" fill="#FFD9B6" p-id="2771"></path><path d="M573.3 246.3C536.2 324.8 355 341 290.8 364.7v-88.5C290.8 172.1 392.2 87 489.2 87h38.5c97 0 198.4 85.1 198.4 189.2v88.5c-141-35.6-152.8-118.4-152.8-118.4z" fill="#F7CCA5" p-id="2772"></path><path d="M568.2 197.4C559 287 353 318.7 290.8 341.7v-88.5C290.8 149.1 392.2 64 489.2 64h38.5c97 0 198.4 85.1 198.4 189.2v88.5c-116.9-26.6-157.9-144.3-157.9-144.3z" fill="#694B4B" p-id="2773"></path><path d="M512.3 959.6l-10.9-15.4V618c0-6 4.9-10.9 10.9-10.9s10.9 4.9 10.9 10.9v326.2l-10.9 15.4z" fill="#E5E5DB" p-id="2774"></path><path d="M408.9 353.8a19.2 23.8 0 1 0 38.4 0 19.2 23.8 0 1 0-38.4 0Z" fill="#694B4B" p-id="2775"></path><path d="M575.9 353.8a19.2 23.8 0 1 0 38.4 0 19.2 23.8 0 1 0-38.4 0Z" fill="#694B4B" p-id="2776"></path><path d="M339.4 959.6v-112c0-7.7-6.3-14-14-14s-14 6.3-14 14v111.9h28zM711.2 959.6v-112c0-7.7-6.3-14-14-14s-14 6.3-14 14v111.9h28z" fill="#F44D4C" p-id="2777"></path></svg>