<?xml version="1.0" standalone="no"?><!DOCTYPE svg PUBLIC "-//W3C//DTD SVG 1.1//EN" "http://www.w3.org/Graphics/SVG/1.1/DTD/svg11.dtd"><svg t="1531987156425" class="icon" style="" viewBox="0 0 1024 1024" version="1.1" xmlns="http://www.w3.org/2000/svg" p-id="2056" xmlns:xlink="http://www.w3.org/1999/xlink" width="200" height="200"><defs><style type="text/css"></style></defs><path d="M623 890l-65.2 55.2-0.1 0.1c-20.1 20-73.8 20-93.8 0L399.7 890M637.8 890H386.3c-5.1 0-9.1-4.1-9.1-9.1V772c0-5.1 4.1-9.1 9.1-9.1h251.5c5.1 0 9.1 4.1 9.1 9.1v108.8c0 5.1-4.1 9.2-9.1 9.2z" fill="#F2F2F1" p-id="2057"></path><path d="M822 365.1c0 82.3-33 156.8-86.5 211.1-58 60-59.5 151-59.5 151 0 39.5-18 42.3-49.5 42.3H521.4V64.2c166 0 300.6 134.7 300.6 300.9zM521.4 64.2v705.3H416.2c-31.5 0-49.5-5.5-49.5-42.3 0 0-1.6-91-59.5-151-53.5-54.3-86.5-128.9-86.5-211.1 0.1-166.2 134.6-300.9 300.7-300.9z" fill="#FFDD60" p-id="2058"></path><path d="M511.3 64.5s-4-0.2-6-0.2-6 0.2-6 0.2C338.9 70.8 210.7 203 210.7 365.1c0 82.3 33 156.8 86.5 211.1 58 60 59.5 151 59.5 151 0 36.8 18 42.3 49.5 42.3h180.2c31.5 0 49.5-2.8 49.5-42.3 0 0 1.6-91 59.5-151 53.5-54.3 86.5-128.9 86.5-211.1C781.9 203 671 70.8 511.3 64.5z" fill="#FFF082" p-id="2059"></path><path d="M653.4 890h-281c-7 0-12.7-5.7-12.7-12.7v-0.1c0-7 5.7-12.7 12.7-12.7h281c7 0 12.7 5.7 12.7 12.7v0.1c-0.1 7-5.8 12.7-12.7 12.7zM653.4 849.5h-281c-7 0-12.7-5.7-12.7-12.7v-0.1c0-7 5.7-12.7 12.7-12.7h281c7 0 12.7 5.7 12.7 12.7v0.1c-0.1 7-5.8 12.7-12.7 12.7zM653.4 809.1h-281c-7 0-12.7-5.7-12.7-12.7v-0.1c0-7 5.7-12.7 12.7-12.7h281c7 0 12.7 5.7 12.7 12.7v0.1c-0.1 7-5.8 12.7-12.7 12.7z" fill="#E5E4DD" p-id="2060"></path><path d="M614.8 267.7H491l-63 177.1h68.7l-18.6 121.3 114-178.7-45.7 0.9zM567.7 769.4h-40v-95.9c0-6.4-7.6-12.1-16.4-12.1-8.7 0-16.4 5.6-16.4 12.1v95.9h-40v-95.9c0-28.7 25.3-52.1 56.4-52.1 31.1 0 56.4 23.4 56.4 52.1v95.9z" fill="#FFDD60" p-id="2061"></path><path d="M561.2 939c0 9.5-24.8 21.2-49.9 21.2-26.7 0-49.9-11-49.9-21.2 0-11.7 22.3-21.2 49.9-21.2 27.6 0 49.9 9.5 49.9 21.2z" fill="#E5E4DD" p-id="2062"></path><path d="M386.9 160.7m-20 0a20 20 0 1 0 40 0 20 20 0 1 0-40 0Z" fill="#FFFFFF" p-id="2063"></path><path d="M274.4 345.4h-1.2c-11-0.7-19.4-10.2-18.7-21.2 0.8-12.5 2.7-25.1 5.8-37.3 10.5-41.3 33.2-77.5 65.8-104.7 8.5-7.1 21.1-6 28.2 2.5 7.1 8.5 6 21.1-2.5 28.2-26.1 21.8-44.3 50.8-52.7 83.9-2.5 9.8-4.1 19.9-4.7 29.9-0.7 10.5-9.5 18.7-20 18.7z" fill="#FFFFFF" p-id="2064"></path></svg>