<?xml version="1.0" standalone="no"?><!DOCTYPE svg PUBLIC "-//W3C//DTD SVG 1.1//EN" "http://www.w3.org/Graphics/SVG/1.1/DTD/svg11.dtd"><svg t="1531987144368" class="icon" style="" viewBox="0 0 1024 1024" version="1.1" xmlns="http://www.w3.org/2000/svg" p-id="1786" xmlns:xlink="http://www.w3.org/1999/xlink" width="200" height="200"><defs><style type="text/css"></style></defs><path d="M426.7 589.3l394.1-394.1-27.6-131.3H626.5L263.9 426.5z" fill="#F44D4C" p-id="1787"></path><path d="M597.5 589.3L203.4 195.2l27.5-131.3h166.7l362.6 362.6z" fill="#FF5F5F" p-id="1788"></path><path d="M512.1 628.4m-331.2 0a331.2 331.2 0 1 0 662.4 0 331.2 331.2 0 1 0-662.4 0Z" fill="#FFF082" p-id="1789"></path><path d="M512.1 833.8c-113.3 0-205.4-92.1-205.4-205.4S398.8 423 512.1 423s205.4 92.1 205.4 205.4-92.2 205.4-205.4 205.4z" fill="#FFDD60" p-id="1790"></path><path d="M512.1 443c49.5 0 96.1 19.3 131.1 54.3s54.3 81.6 54.3 131.1-19.3 96.1-54.3 131.1-81.6 54.3-131.1 54.3S416 794.5 381 759.5s-54.3-81.6-54.3-131.1S346 532.3 381 497.3 462.6 443 512.1 443m0-40c-124.5 0-225.4 100.9-225.4 225.4s100.9 225.4 225.4 225.4 225.4-100.9 225.4-225.4S636.6 403 512.1 403z" fill="#694B4B" p-id="1791"></path></svg>