<?xml version="1.0" standalone="no"?><!DOCTYPE svg PUBLIC "-//W3C//DTD SVG 1.1//EN" "http://www.w3.org/Graphics/SVG/1.1/DTD/svg11.dtd"><svg t="1531987185615" class="icon" style="" viewBox="0 0 1024 1024" version="1.1" xmlns="http://www.w3.org/2000/svg" p-id="3740" xmlns:xlink="http://www.w3.org/1999/xlink" width="200" height="200"><defs><style type="text/css"></style></defs><path d="M985.2 500.9c0-27.4-12.9-51.8-32.9-67.4 2 7.5 3.1 15.5 3.1 23.6 0 25.4-10.4 48.3-27.1 64.9-34.1-141.6-199.7-249-398.9-249-54.5 0-106.4 8-153.8 22.6-16.4-36.5-50.2-61.5-89.1-61.5-11 0-16.9 54.4-17.2 109.6-64.6 40.5-112.1 95.8-133.2 158.9h-25.8c-25.3 0-46.1 20.7-46.1 46.1v54.9c0 25.3 20.7 46.1 46.1 46.1h25.8c14.4 43.2 41.2 82.8 77.5 116.5v109.5c0 29.4 24.1 53.5 53.5 53.5h72.4C369 929 393 905 393 875.5v-14c42.6 11.4 88.5 17.6 136.4 17.6 51.4 0 100.6-7.2 145.9-20.2v16.6c0 29.4 24.1 53.5 53.5 53.5h72.4c29.4 0 53.5-24.1 53.5-53.5V756.8c49.5-49.7 79.1-111.2 79.9-177.9 29.9-13.4 50.6-43.3 50.6-78z" fill="#FFDD60" p-id="3741"></path><path d="M985.2 500.9c0-27.4-12.9-51.8-32.9-67.4 2 7.5 3.1 15.5 3.1 23.6 0 25.4-10.4 48.3-27.1 64.9-34.1-141.6-199.7-249-398.9-249-54.5 0-106.4 8-153.8 22.6-16.4-36.5-50.2-61.5-89.1-61.5-11 0-16.9 54.4-17.2 109.6-64.6 40.5-112.1 95.8-133.2 158.9h-25.8c-25.3 0-46.1 20.7-46.1 46.1v54.9c0 25.3 20.7 46.1 46.1 46.1h25.8c14.4 43.2 41.2 82.8 77.5 116.5v0.9c73 24.7 154.6 38.5 240.8 38.5 201.3 0 377.8-75.4 476.7-188.6 2.2-12.4 3.5-25 3.6-37.9 29.8-13.6 50.5-43.5 50.5-78.2z" fill="#FFF082" p-id="3742"></path><path d="M236.7 501.4a22.3 35 0 1 0 44.6 0 22.3 35 0 1 0-44.6 0Z" fill="#694B4B" p-id="3743"></path><path d="M531.6 311c-55.2 0-100-44.9-100-100s44.9-100 100-100 100 44.9 100 100-44.8 100-100 100z" fill="#FFFFFF" p-id="3744"></path><path d="M531.6 126c46.9 0 85 38.1 85 85s-38.1 85-85 85-85-38.1-85-85 38.2-85 85-85m0-30c-63.5 0-115 51.5-115 115s51.5 115 115 115 115-51.5 115-115c0.1-63.5-51.4-115-115-115z" fill="#F2F2F1" p-id="3745"></path></svg>