<?xml version="1.0" standalone="no"?><!DOCTYPE svg PUBLIC "-//W3C//DTD SVG 1.1//EN" "http://www.w3.org/Graphics/SVG/1.1/DTD/svg11.dtd"><svg t="1531987189908" class="icon" style="" viewBox="0 0 1024 1024" version="1.1" xmlns="http://www.w3.org/2000/svg" p-id="4024" xmlns:xlink="http://www.w3.org/1999/xlink" width="200" height="200"><defs><style type="text/css"></style></defs><path d="M171.716515 693.597084a368.5 368.5 0 1 0 521.128602-521.146794 368.5 368.5 0 1 0-521.128602 521.146794Z" fill="#F2F2F1" p-id="4025"></path><path d="M247.517039 617.793914a261.3 261.3 0 1 0 369.527554-369.540454 261.3 261.3 0 1 0-369.527554 369.540454Z" fill="#00B5FC" p-id="4026"></path><path d="M678.6 707.68l28.991-28.991 45.608 45.608-28.991 28.99z" fill="#E5E4DD" p-id="4027"></path><path d="M945.3 944.3l-0.5 0.5c-19.9 19.9-52.5 19.9-72.4 0L717.1 789.6c-19.9-19.9-19.9-52.5 0-72.4l0.5-0.5c19.9-19.9 52.5-19.9 72.4 0l155.2 155.2c20 19.9 20 52.5 0.1 72.4z" fill="#694B4B" p-id="4028"></path><path d="M218.727679 439.415955a20 20 0 1 0 15.068373-37.053261 20 20 0 1 0-15.068373 37.053261Z" fill="#FFFFFF" p-id="4029"></path><path d="M336.5 607.2c-2.9 0-5.9-0.6-8.6-2-11.3-5.4-22.2-12-32.4-19.5-34.3-25.3-59.3-60-72.3-100.4-3.4-10.5 2.4-21.8 12.9-25.1 10.5-3.4 21.8 2.4 25.1 12.9 10.4 32.4 30.4 60.2 57.9 80.4 8.2 6 16.9 11.3 26 15.6 10 4.8 14.2 16.7 9.4 26.7-3.4 7.2-10.6 11.4-18 11.4z" fill="#FFFFFF" p-id="4030"></path><path d="M608.646 298.24l33.159-22.552 22.552 33.159-33.159 22.552z" fill="#FFF082" p-id="4031"></path><path d="M359.7 184.4c176.7 0 319.9 143.2 319.9 319.9 0 4.9-0.1 9.7-0.3 14.5 31.7-91.6 11-197.4-62.1-270.5-71.9-71.9-175.2-93.1-265.7-63.8 2.7-0.1 5.4-0.1 8.2-0.1z" fill="#079FDB" p-id="4032"></path></svg>