<?xml version="1.0" standalone="no"?><!DOCTYPE svg PUBLIC "-//W3C//DTD SVG 1.1//EN" "http://www.w3.org/Graphics/SVG/1.1/DTD/svg11.dtd"><svg t="1531987178763" class="icon" style="" viewBox="0 0 1024 1024" version="1.1" xmlns="http://www.w3.org/2000/svg" p-id="3329" xmlns:xlink="http://www.w3.org/1999/xlink" width="200" height="200"><defs><style type="text/css"></style></defs><path d="M757.5 448.1h-480c-96.2 0-175-78.7-175-175 0-96.2 78.7-175 175-175h480.1c96.2 0 175 78.7 175 175-0.1 96.2-78.8 175-175.1 175z" fill="#F2F2F1" p-id="3330"></path><path d="M755.5 273.1m-154.9 0a154.9 154.9 0 1 0 309.8 0 154.9 154.9 0 1 0-309.8 0Z" fill="#E5E4DD" p-id="3331"></path><path d="M755.5 273.1m-124 0a124 124 0 1 0 248 0 124 124 0 1 0-248 0Z" fill="#9ED756" p-id="3332"></path><path d="M753.7 271.3m-122.5 0a122.5 122.5 0 1 0 245 0 122.5 122.5 0 1 0-245 0Z" fill="#B5E66E" p-id="3333"></path><path d="M273 924.9h480c96.2 0 175-78.7 175-175 0-96.2-78.7-175-175-175H273c-96.2 0-175 78.7-175 175s78.7 175 175 175z" fill="#F2F2F1" p-id="3334"></path><path d="M275 750m-154.9 0a154.9 154.9 0 1 0 309.8 0 154.9 154.9 0 1 0-309.8 0Z" fill="#E5E4DD" p-id="3335"></path><path d="M275 750m-124 0a124 124 0 1 0 248 0 124 124 0 1 0-248 0Z" fill="#F44D4C" p-id="3336"></path><path d="M306.5 729.4m-120.8 0a120.8 120.8 0 1 0 241.6 0 120.8 120.8 0 1 0-241.6 0Z" fill="#FF5F5F" p-id="3337"></path></svg>