<?xml version="1.0" standalone="no"?><!DOCTYPE svg PUBLIC "-//W3C//DTD SVG 1.1//EN" "http://www.w3.org/Graphics/SVG/1.1/DTD/svg11.dtd"><svg t="1531987136033" class="icon" style="" viewBox="0 0 1024 1024" version="1.1" xmlns="http://www.w3.org/2000/svg" p-id="1518" xmlns:xlink="http://www.w3.org/1999/xlink" width="200" height="200"><defs><style type="text/css"></style></defs><path d="M257.7 78.5L79 257.3c-10.1 10.1-15.4 24.1-14.6 38.4l12.5 209.1c0.7 12.2 5.9 23.8 14.6 32.5l394.2 394.2c36.9 36.9 97.4 36.9 134.3 0l311.2-311.2c36.9-36.9 36.9-97.2 0-134.1L535.9 91c-8.7-8.7-20.2-13.9-32.4-14.6L296.2 64c-14.3-0.9-28.3 4.4-38.5 14.5z" fill="#00B5FC" p-id="1519"></path><path d="M274 333.3m-134.1 0a134.1 134.1 0 1 0 268.2 0 134.1 134.1 0 1 0-268.2 0Z" fill="#02AAEF" p-id="1520"></path><path d="M113.164 223.105l52.538-52.538 80.255 80.256-52.537 52.538z" fill="#02AAEF" p-id="1521"></path><path d="M303.6 422.8c-65.7 0-119.1-53.4-119.1-119.1S238 184.6 303.6 184.6 422.7 238 422.7 303.7s-53.4 119.1-119.1 119.1z" fill="#FFFFFF" p-id="1522"></path><path d="M303.6 199.6c57.4 0 104.1 46.7 104.1 104.1S361 407.8 303.6 407.8s-104.1-46.7-104.1-104.1 46.7-104.1 104.1-104.1m0-30c-74.1 0-134.1 60-134.1 134.1s60 134.1 134.1 134.1 134.1-60 134.1-134.1-60-134.1-134.1-134.1z" fill="#B5E66E" p-id="1523"></path><path d="M302.5 303.2c-14.5 14.5-38 14.5-52.5 0L82.5 135.7c-14.5-14.5-14.5-38 0-52.5s38-14.5 52.5 0l167.5 167.5c14.5 14.4 14.5 37.9 0 52.5z" fill="#694B4B" p-id="1524"></path><path d="M354.882 685.781L685.24 355.424l197.847 197.847-330.357 330.357z" fill="#FFFFFF" p-id="1525"></path></svg>