<?xml version="1.0" standalone="no"?><!DOCTYPE svg PUBLIC "-//W3C//DTD SVG 1.1//EN" "http://www.w3.org/Graphics/SVG/1.1/DTD/svg11.dtd"><svg t="1531984609305" class="icon" style="" viewBox="0 0 1254 1024" version="1.1" xmlns="http://www.w3.org/2000/svg" p-id="2193" xmlns:xlink="http://www.w3.org/1999/xlink" width="244.921875" height="200"><defs><style type="text/css"></style></defs><path d="M24.005157 975.989685h42.009026a24.005157 24.005157 0 1 1 0 48.010315H24.005157a24.005157 24.005157 0 0 1 0-48.010315z m1107.237883 0h99.021275a24.005157 24.005157 0 0 1 0 48.010315h-99.021275a24.005157 24.005157 0 0 1 0-48.010315z m-960.206294 0h867.18631a24.005157 24.005157 0 0 1 0 48.010315H171.036746a24.005157 24.005157 0 0 1 0-48.010315z" fill="#261D50" p-id="2194"></path><path d="M404.426889 86.868663h-20.284358c-47.80027 0-63.268593-74.836078-154.533201-74.836078C102.922112 12.017582 53.516498 116.064936 53.516498 242.392076l-15.003224 372.079939c0 78.016761 85.128289 141.255348 141.255348 141.255348s109.703569-35.167556 131.128172-88.804079l36.517846-203.818789a236.075719 236.075719 0 0 0 64.51386-26.630721h433.75819a234.050284 234.050284 0 0 0 64.513861 26.630721l36.532849 203.803786c21.424603 53.636523 61.213151 88.804079 131.128172 88.804079s141.255348-63.25359 141.255348-141.255348l-15.003224-372.079939c0-126.327141-49.405614-230.374495-176.137842-230.374494-96.920823 0-106.882963 62.683467-154.5332 74.836078h-33.682237" fill="#FFFFFF" p-id="2195"></path><path d="M1203.093477 242.392076C1203.093477 116.064936 1153.687863 12.017582 1026.955635 12.017582c-96.920823 0-106.882963 62.683467-154.5332 74.836078H383.137315C335.337045 86.85366 319.868722 12.017582 228.604114 12.017582 101.901893 12.017582 52.496278 116.064936 52.496278 242.392076l-15.003223 372.079939c0 78.016761 85.128289 141.255348 141.255348 141.255348s109.703569-35.152552 131.128172-88.804079l36.547852-203.818789a236.075719 236.075719 0 0 0 64.513861-26.630721h433.71318a234.050284 234.050284 0 0 0 64.51386 26.630721l36.532849 203.803786c21.424603 53.636523 61.213151 88.804079 131.128172 88.804079s141.255348-63.25359 141.255348-141.255348zM216.046416 340.078064a120.025787 120.025787 0 1 1 120.025787-120.025787 120.025787 120.025787 0 0 1-120.025787 120.025787z m822.17664 0a120.025787 120.025787 0 1 1 120.025787-120.025787 120.025787 120.025787 0 0 1-120.025787 120.025787z" fill="#00B7D6" p-id="2196"></path><path d="M1215.081053 242.152025c0-69.314892-14.763172-127.752447-42.594152-169.026314C1139.764871 24.62029 1090.809354 0.015003 1026.955635 0.015003c-65.414054 0-94.880384 27.245854-118.525464 49.15056-12.527691 11.582488-23.390025 21.634648-37.508059 25.700522h-1.230264v24.005157h4.245912l1.500322-0.375081c20.749458-5.296138 34.627439-18.123894 49.300592-31.701811 22.729883-21.004513 46.239934-42.759187 102.246967-42.759186 55.391901 0 97.655981 21.004513 125.636993 62.518431 25.175409 37.343023 38.498271 91.234601 38.498271 155.853485v0.240051l15.003223 372.079939c0 33.472191-14.52312 65.789134-40.718748 90.99455-25.115396 24.170193-57.387329 38.018168-88.519018 38.018168-58.512571 0-97.610971-26.210631-119.53068-80.132216l-37.733107-210.330188-7.501612-1.8604a222.047706 222.047706 0 0 1-61.228154-25.265428l-2.850612-1.710367H407.592569l-2.850613 1.710367a224.223173 224.223173 0 0 1-61.258161 25.280431l-7.501611 1.875403-37.688097 210.210163a130.242982 130.242982 0 0 1-119.530681 80.147219c-25.055383 0-57.882436-15.003223-83.627967-38.273223-17.013655-15.363301-45.51978-47.560218-45.624802-90.739495l15.003223-371.779874v-0.480104c0-64.618883 13.307859-118.525464 38.483268-155.853484C130.97814 45.05468 173.227217 24.020161 228.604114 24.020161c48.26537 0 73.245736 22.939929 95.300475 43.179276 16.863623 15.483326 32.857059 30.156479 55.676962 31.506769V74.641036c-13.757956-1.500322-25.220418-12.002579-39.443474-25.115396-24.005157-22.054738-53.921585-49.510637-111.533963-49.510637-63.838715 0-112.809236 24.590283-145.531266 73.110708C55.241868 114.399578 40.508703 172.837133 40.478697 242.152025l-15.003224 371.779874v0.480104c0 39.008381 19.009084 77.596671 53.531501 108.788372 30.411534 27.425892 68.60974 44.469554 99.756432 44.469554a154.413175 154.413175 0 0 0 142.275567-96.3507l0.450097-1.125242 35.392604-197.487429a248.108305 248.108305 0 0 0 57.342319-24.275215h427.141769a246.052863 246.052863 0 0 0 57.357323 24.275215l35.392604 197.442419 0.450097 1.125242c25.50548 63.928735 73.395769 96.3507 142.275567 96.3507 37.28301 0 75.616246-16.308504 105.157592-44.724608 31.011663-29.826408 48.085331-68.369689 48.085331-108.518315v-0.240051z" fill="#261D50" p-id="2197"></path><path d="M1203.093477 242.392076C1203.093477 116.064936 1153.687863 12.017582 1026.955635 12.017582c-96.920823 0-106.882963 62.683467-154.5332 74.836078H383.137315C335.337045 86.85366 319.868722 12.017582 228.604114 12.017582 101.901893 12.017582 52.496278 116.064936 52.496278 242.392076l-15.003223 267.057376c0 78.016761 85.128289 141.255348 141.255348 141.255348s109.703569-35.152552 131.128172-88.804079l36.547852-98.796226a236.075719 236.075719 0 0 0 64.513861-26.630721h433.71318a234.050284 234.050284 0 0 0 64.51386 26.630721l36.532849 98.781223c21.424603 53.636523 61.213151 88.804079 131.128172 88.804079s141.255348-63.25359 141.255348-141.255348zM216.046416 340.078064a120.025787 120.025787 0 1 1 120.025787-120.025787 120.025787 120.025787 0 0 1-120.025787 120.025787z m822.17664 0a120.025787 120.025787 0 1 1 120.025787-120.025787 120.025787 120.025787 0 0 1-120.025787 120.025787z" fill="#72C69C" p-id="2198"></path><path d="M1215.081053 242.062006c0-69.269882-14.778175-127.677431-42.594152-168.936295C1139.764871 24.62029 1090.809354 0.015003 1026.955635 0.015003c-65.414054 0-94.880384 27.245854-118.525464 49.15056-12.527691 11.582488-23.390025 21.634648-37.508059 25.700522h-1.230264v24.005157h4.245912l1.500322-0.375081c20.749458-5.296138 34.627439-18.123894 49.300592-31.701811 22.729883-21.004513 46.239934-42.759187 102.246967-42.759186 55.391901 0 97.655981 21.004513 125.636993 62.518431 25.175409 37.343023 38.498271 91.234601 38.498271 155.853485v0.330071l15.003223 267.057375c-0.090019 33.442185-14.553127 65.714118-40.718748 90.889527-25.115396 24.170193-57.387329 38.018168-88.519018 38.018168-58.857645 0-98.076071-26.525699-119.920764-81.092422l-38.67831-104.602473-6.181328-1.500323a222.047706 222.047706 0 0 1-61.228154-25.265428l-2.850613-1.710367H407.592569l-2.850613 1.710367a224.223173 224.223173 0 0 1-61.258161 25.280432l-6.166324 1.500322-38.67831 104.58747a130.212975 130.212975 0 0 1-119.875755 81.032409c-25.055383 0-57.882436-15.003223-83.627967-38.273222C78.136787 585.020688 49.660669 552.853777 49.510637 509.71951L64.51386 243.067221v-0.675145c0-64.618883 13.307859-118.525464 38.483268-155.853484C130.97814 45.05468 173.227217 24.020161 228.604114 24.020161c48.26537 0 73.245736 22.939929 95.300475 43.179276 17.73381 16.278497 34.507414 31.656801 59.232726 31.656802v-24.005158c-15.393307 0-27.575925-11.177401-42.999238-25.340444-24.005157-22.054738-53.921585-49.510637-111.533963-49.510637-63.838715 0-112.809236 24.590283-145.531266 73.110707-27.815976 41.258864-42.549141 99.666413-42.594151 168.936295l-15.003224 266.667292v0.675145c0 39.008381 19.009084 77.596671 53.531501 108.788373 30.411534 27.425892 68.60974 44.469554 99.756432 44.469554a154.413175 154.413175 0 0 0 142.275567-96.350701l34.507414-93.200023a248.168317 248.168317 0 0 0 58.722616-24.650296h427.141769a246.052863 246.052863 0 0 0 58.737619 24.665299l34.357382 92.914962 0.105022 0.285062c25.50548 63.928735 73.395769 96.3507 142.275567 96.3507 37.28301 0 75.616246-16.308504 105.157593-44.724609 31.011663-29.826408 48.085331-68.369689 48.085331-108.518314v-0.330071z" fill="#261D50" p-id="2199"></path><path d="M567.121843 304.070328m-9.001934 0a9.001934 9.001934 0 1 0 18.003868 0 9.001934 9.001934 0 1 0-18.003868 0Z" fill="#261F4F" p-id="2200"></path><path d="M582.125066 328.075485m-9.001934 0a9.001934 9.001934 0 1 0 18.003868 0 9.001934 9.001934 0 1 0-18.003868 0Z" fill="#261F4F" p-id="2201"></path><path d="M597.128289 304.070328m-9.001934 0a9.001934 9.001934 0 1 0 18.003868 0 9.001934 9.001934 0 1 0-18.003868 0Z" fill="#261F4F" p-id="2202"></path><path d="M597.128289 352.080642m-9.001934 0a9.001934 9.001934 0 1 0 18.003868 0 9.001934 9.001934 0 1 0-18.003868 0Z" fill="#261F4F" p-id="2203"></path><path d="M612.131513 328.075485m-9.001934 0a9.001934 9.001934 0 1 0 18.003868 0 9.001934 9.001934 0 1 0-18.003868 0Z" fill="#261F4F" p-id="2204"></path><path d="M627.134736 304.070328m-9.001934 0a9.001934 9.001934 0 1 0 18.003868 0 9.001934 9.001934 0 1 0-18.003868 0Z" fill="#261F4F" p-id="2205"></path><path d="M627.134736 352.080642m-9.001934 0a9.001934 9.001934 0 1 0 18.003868 0 9.001934 9.001934 0 1 0-18.003868 0Z" fill="#261F4F" p-id="2206"></path><path d="M642.137959 328.075485m-9.001934 0a9.001934 9.001934 0 1 0 18.003868 0 9.001934 9.001934 0 1 0-18.003868 0Z" fill="#261F4F" p-id="2207"></path><path d="M657.141183 304.070328m-9.001934 0a9.001934 9.001934 0 1 0 18.003868 0 9.001934 9.001934 0 1 0-18.003868 0Z" fill="#261F4F" p-id="2208"></path><path d="M657.141183 352.080642m-9.001934 0a9.001934 9.001934 0 1 0 18.003868 0 9.001934 9.001934 0 1 0-18.003868 0Z" fill="#261F4F" p-id="2209"></path><path d="M672.144406 328.075485m-9.001934 0a9.001934 9.001934 0 1 0 18.003868 0 9.001934 9.001934 0 1 0-18.003868 0Z" fill="#261F4F" p-id="2210"></path><path d="M687.147629 304.070328m-9.001934 0a9.001934 9.001934 0 1 0 18.003868 0 9.001934 9.001934 0 1 0-18.003868 0Z" fill="#261F4F" p-id="2211"></path><path d="M379.581551 86.523589h495.10637v147.031589a27.005802 27.005802 0 0 1-27.005802 27.005802H406.587353a27.005802 27.005802 0 0 1-27.005802-27.005802z" fill="#FF6660" p-id="2212"></path><path d="M216.046416 352.080642a132.028365 132.028365 0 1 1 132.028366-132.028365 132.178398 132.178398 0 0 1-132.028366 132.028365z m0-240.051573a108.023208 108.023208 0 1 0 108.023208 108.023208 108.143234 108.143234 0 0 0-108.023208-108.023208zM1038.223056 352.080642a132.028365 132.028365 0 1 1 132.028365-132.028365 132.178398 132.178398 0 0 1-132.028365 132.028365z m0-240.051573a108.023208 108.023208 0 1 0 108.023208 108.023208 108.143234 108.143234 0 0 0-108.023208-108.023208zM847.682119 272.563559H406.587353a39.008381 39.008381 0 0 1-39.008381-39.008381v-159.034168h58.632597a12.002579 12.002579 0 0 1 0 24.005158H391.584129v135.02901a15.003223 15.003223 0 0 0 15.003224 15.003223h441.094766a15.003223 15.003223 0 0 0 15.003224-15.003223v-135.02901H582.845221a12.002579 12.002579 0 0 1 0-24.005158H886.6905v159.034168a39.008381 39.008381 0 0 1-39.008381 39.008381z m-313.192287-174.037391h-71.880443a12.002579 12.002579 0 0 1 0-24.005158h71.880443a12.002579 12.002579 0 0 1 0 24.005158z" fill="#261D50" p-id="2213"></path></svg>