<?xml version="1.0" standalone="no"?><!DOCTYPE svg PUBLIC "-//W3C//DTD SVG 1.1//EN" "http://www.w3.org/Graphics/SVG/1.1/DTD/svg11.dtd"><svg t="1531984611212" class="icon" style="" viewBox="0 0 1080 1024" version="1.1" xmlns="http://www.w3.org/2000/svg" p-id="2326" xmlns:xlink="http://www.w3.org/1999/xlink" width="210.9375" height="200"><defs><style type="text/css"></style></defs><path d="M20.676426 982.647148h36.183746a20.676426 20.676426 0 1 1 0 41.352852H20.676426a20.676426 20.676426 0 0 1 0-41.352852z m953.700151 0h85.290258a20.676426 20.676426 0 0 1 0 41.352852h-85.290258a20.676426 20.676426 0 0 1 0-41.352852z m-827.057041 0h746.935891a20.676426 20.676426 0 0 1 0 41.352852H147.319536a20.676426 20.676426 0 0 1 0-41.352852z" fill="#261D50" p-id="2327"></path><path d="M46.521959 445.253912l209.348813 0 0 284.300858-209.348813 0 0-284.300858Z" fill="#00B7D6" p-id="2328"></path><path d="M217.102473 739.892983H85.290257a49.106512 49.106512 0 0 1-49.106511-49.106512v-206.76426a49.106512 49.106512 0 0 1 49.106511-49.106512h131.812216a49.106512 49.106512 0 0 1 49.106512 49.106512v206.76426a49.106512 49.106512 0 0 1-49.106512 49.106512z m-131.812216-284.300858a28.430086 28.430086 0 0 0-28.430085 28.430086v206.76426a28.430086 28.430086 0 0 0 28.430085 28.430086h131.812216a28.430086 28.430086 0 0 0 28.430086-28.430086v-206.76426a28.430086 28.430086 0 0 0-28.430086-28.430086z" fill="#261D50" p-id="2329"></path><path d="M824.472489 445.253912l209.348813 0 0 284.300858-209.348813 0 0-284.300858Z" fill="#00B7D6" p-id="2330"></path><path d="M995.053004 739.892983H863.240787a49.106512 49.106512 0 0 1-49.106511-49.106512v-206.76426a49.106512 49.106512 0 0 1 49.106511-49.106512h131.812217a49.106512 49.106512 0 0 1 49.106511 49.106512v206.76426a49.106512 49.106512 0 0 1-49.106511 49.106512z m-131.812217-284.300858a28.430086 28.430086 0 0 0-28.430085 28.430086v206.76426a28.430086 28.430086 0 0 0 28.430085 28.430086h131.812217a28.430086 28.430086 0 0 0 28.430085-28.430086v-206.76426a28.430086 28.430086 0 0 0-28.430085-28.430086z" fill="#261D50" p-id="2331"></path><path d="M974.376577 456.884402a10.338213 10.338213 0 0 1-10.338213-10.338213 420.287128 420.287128 0 0 0-42.735588-185.842302c-5.078647-10.338213-10.648359-20.676426-16.579909-30.717416a10.338213 10.338213 0 1 1 17.768804-10.570822c6.228773 10.467441 12.082786 21.309642 17.394043 32.216456A440.795558 440.795558 0 0 1 984.714791 446.546189a10.338213 10.338213 0 0 1-10.338214 10.338213z m-867.117617 0a10.338213 10.338213 0 0 1-10.338213-10.338213 443.819485 443.819485 0 0 1 696.356184-365.714286c10.273599 7.120444 20.36628 14.783645 30.019586 22.756991a10.369228 10.369228 0 1 1-13.181222 16.011308 422.540858 422.540858 0 0 0-28.623927-21.697325A423.298132 423.298132 0 0 0 117.597173 446.546189a10.338213 10.338213 0 0 1-10.338213 10.338213zM883.813831 191.256941a10.338213 10.338213 0 0 1-8.180111-4.01898 427.743564 427.743564 0 0 0-35.072387-39.931348 10.338213 10.338213 0 1 1 14.654417-14.589803 448.213226 448.213226 0 0 1 36.778192 41.869762 10.338213 10.338213 0 0 1-8.167188 16.657446z" fill="#261D50" p-id="2332"></path><path d="M391.766583 39.272287Q465.503887 10.351136 540.17163 10.351136t149.606866 28.972842A20.676426 20.676426 0 0 1 702.998486 58.604745v33.521656a20.676426 20.676426 0 0 1-27.486724 19.5263Q607.460475 87.900656 540.17163 87.900656q-67.056234 0-133.98324 23.596971A20.676426 20.676426 0 0 1 378.637052 91.997173V58.514286a20.676426 20.676426 0 0 1 13.129531-19.241999z" fill="#72C69C" p-id="2333"></path><path d="M682.32206 123.128117a31.014639 31.014639 0 0 1-10.221909-1.731651C628.046441 106.018375 583.656739 98.213024 540.17163 98.213024s-87.241595 7.75366-130.519939 23.002524a31.014639 31.014639 0 0 1-41.352852-29.257143V58.514286a30.83372 30.83372 0 0 1 19.694296-28.86946C438.133468 9.976376 489.333468 0.012923 540.17163 0.012923s102.451691 9.976376 153.341545 29.722362A31.208481 31.208481 0 0 1 713.336699 58.656436v33.521656a31.014639 31.014639 0 0 1-31.014639 30.950025zM540.17163 77.54952c45.811206 0 92.488238 8.180111 138.738819 24.333569A10.338213 10.338213 0 0 0 692.660273 92.126401V58.591822a10.338213 10.338213 0 0 0-6.603534-9.640383C637.557597 30.187582 588.476931 20.676426 540.17163 20.676426s-96.920747 9.48531-144.6316 28.210399a10.338213 10.338213 0 0 0-6.564765 9.627461v33.457042a10.338213 10.338213 0 0 0 13.788592 9.756688C448.264917 85.67794 494.515497 77.536598 540.17163 77.536598z" fill="#261D50" p-id="2334"></path></svg>