<?xml version="1.0" standalone="no"?><!DOCTYPE svg PUBLIC "-//W3C//DTD SVG 1.1//EN" "http://www.w3.org/Graphics/SVG/1.1/DTD/svg11.dtd"><svg t="1531984603229" class="icon" style="" viewBox="0 0 1027 1024" version="1.1" xmlns="http://www.w3.org/2000/svg" p-id="1801" xmlns:xlink="http://www.w3.org/1999/xlink" width="200.5859375" height="200"><defs><style type="text/css"></style></defs><path d="M19.662766 984.674467h34.409841a19.662766 19.662766 0 1 1 0 39.325533H19.662766a19.662766 19.662766 0 0 1 0-39.325533z m906.945095 0h81.108911a19.662766 19.662766 0 0 1 0 39.325533h-81.108911a19.662766 19.662766 0 0 1 0-39.325533z m-786.510651 0h710.317431a19.662766 19.662766 0 0 1 0 39.325533H140.09721a19.662766 19.662766 0 0 1 0-39.325533z" fill="#261D50" p-id="1802"></path><path d="M675.588071 597.244236h-56.985155a18.999148 18.999148 0 1 1 0-37.998295h57.009733V9.450417H542.618614a19.005293 19.005293 0 0 1-38.010585 0h-18.97457a19.005293 19.005293 0 0 1-38.010585 0h-94.98345v966.609301h94.98345a18.999148 18.999148 0 0 1 37.998296 0h18.986859a18.999148 18.999148 0 0 1 37.998296 0h132.981746z" fill="#72C69C" p-id="1803"></path><path d="M407.596856 645.540906h116.747674v115.518752h-116.747674z" fill="#00B7D6" p-id="1804"></path><path d="M534.175914 770.891041h-136.410441v-135.181518h136.410441z m-116.747675-19.662766h97.084908v-95.855986h-97.084908z" fill="#261D50" p-id="1805"></path><path d="M407.596856 801.614113h116.747674v115.518752h-116.747674z" fill="#00B7D6" p-id="1806"></path><path d="M534.175914 926.964248h-136.410441v-135.181518h136.410441z m-116.747675-19.662766h97.084908v-95.855985h-97.084908z" fill="#261D50" p-id="1807"></path><path d="M407.596856 393.611713h116.747674v115.518752h-116.747674z" fill="#00B7D6" p-id="1808"></path><path d="M534.175914 518.961848h-136.410441v-135.181518h136.410441z m-116.747675-19.662766h97.084908v-95.855986h-97.084908z" fill="#261D50" p-id="1809"></path><path d="M407.596856 236.309583h116.747674v115.518752h-116.747674z" fill="#00B7D6" p-id="1810"></path><path d="M534.175914 361.659718h-136.410441v-135.181518h136.410441z m-116.747675-19.662766h97.084908v-95.855986h-97.084908z" fill="#261D50" p-id="1811"></path><path d="M407.596856 79.007453h116.747674v115.518752h-116.747674z" fill="#00B7D6" p-id="1812"></path><path d="M534.175914 204.357588h-136.410441v-135.181518h136.410441z m-116.747675-19.662767h97.084908v-95.855985h-97.084908z" fill="#261D50" p-id="1813"></path><path d="M596.850981 77.77853h78.651065v39.325532h-78.651065z" fill="#FDD838" p-id="1814"></path><path d="M685.333429 126.935446h-98.313831v-58.988299h98.313831z m-78.651065-19.662767h58.988299v-19.662766h-58.988299z" fill="#261D50" p-id="1815"></path><path d="M596.850981 643.08306h78.651065v39.325533h-78.651065z" fill="#FDD838" p-id="1816"></path><path d="M685.333429 692.239976h-98.313831v-58.988299h98.313831z m-78.651065-19.662766h58.988299v-19.662767h-58.988299z" fill="#261D50" p-id="1817"></path><path d="M596.850981 721.734125h78.651065v39.325533h-78.651065z" fill="#FDD838" p-id="1818"></path><path d="M685.333429 770.891041h-98.313831v-58.988299h98.313831z m-78.651065-19.662766h58.988299v-19.662766h-58.988299z" fill="#261D50" p-id="1819"></path><path d="M596.850981 800.385191h78.651065v39.325532h-78.651065z" fill="#FDD838" p-id="1820"></path><path d="M685.333429 849.542106h-98.313831v-58.988299h98.313831z m-78.651065-19.662766h58.988299v-19.662766h-58.988299z" fill="#261D50" p-id="1821"></path><path d="M596.850981 879.036256h78.651065v39.325532h-78.651065z" fill="#FDD838" p-id="1822"></path><path d="M685.333429 928.193171h-98.313831v-58.988299h98.313831z m-78.651065-19.662766h58.988299v-19.662766h-58.988299z" fill="#261D50" p-id="1823"></path><path d="M596.850981 156.429595h78.651065v39.325533h-78.651065z" fill="#FDD838" p-id="1824"></path><path d="M685.333429 205.586511h-98.313831v-58.988299h98.313831z m-78.651065-19.662767h58.988299v-19.662766h-58.988299z" fill="#261D50" p-id="1825"></path><path d="M596.850981 235.08066h78.651065v39.325533h-78.651065z" fill="#FDD838" p-id="1826"></path><path d="M685.333429 284.237576h-98.313831v-58.988299h98.313831z m-78.651065-19.662767h58.988299v-19.662766h-58.988299z" fill="#261D50" p-id="1827"></path><path d="M596.850981 313.731725h78.651065v39.325533h-78.651065z" fill="#FDD838" p-id="1828"></path><path d="M685.333429 362.888641h-98.313831v-58.988299h98.313831z m-78.651065-19.662766h58.988299v-19.662767h-58.988299z" fill="#261D50" p-id="1829"></path><path d="M596.850981 392.38279h78.651065v39.325533h-78.651065z" fill="#FDD838" p-id="1830"></path><path d="M685.333429 441.539706h-98.313831v-58.988299h98.313831z m-78.651065-19.662766h58.988299v-19.662767h-58.988299z" fill="#261D50" p-id="1831"></path><path d="M596.850981 471.033855h78.651065v39.325533h-78.651065z" fill="#FDD838" p-id="1832"></path><path d="M685.333429 520.190771h-98.313831v-58.988299h98.313831z m-78.651065-19.662766h58.988299v-19.662766h-58.988299z" fill="#261D50" p-id="1833"></path><path d="M514.021578 986.321224h-38.637336v-9.831383a9.167765 9.167765 0 1 0-18.335529 0v9.831383h-114.646217V483.962124a9.831383 9.831383 0 0 1 19.662767 0v482.659466h77.041176a28.818242 28.818242 0 0 1 54.195499 0h2.777366a28.830531 28.830531 0 0 1 54.207789 0h115.039472V607.456586h-47.215218a28.830531 28.830531 0 0 1 0-57.661062h47.17835V19.675056h-115.002604a28.830531 28.830531 0 0 1-54.207789 0h-2.777366a28.830531 28.830531 0 0 1-54.195499 0h-77.053466V305.264446a9.831383 9.831383 0 0 1-19.662766 0V0h114.633927v9.831383a9.173909 9.173909 0 0 0 18.347819 0V0h38.625047v9.831383a9.173909 9.173909 0 1 0 18.347818 0V0h152.632224v569.482868h-66.841116a9.167765 9.167765 0 0 0-6.451846 15.668767 9.069451 9.069451 0 0 0 6.439556 2.666763h66.853406v398.465958h-152.632224v-9.831383a9.167765 9.167765 0 0 0-18.335529 0zM352.22159 445.853225a9.831383 9.831383 0 0 1-9.831383-9.831383v-77.999736a9.831383 9.831383 0 0 1 19.662766 0v77.999736a9.831383 9.831383 0 0 1-9.831383 9.831383z" fill="#261D50" p-id="1834"></path></svg>