<?xml version="1.0" standalone="no"?><!DOCTYPE svg PUBLIC "-//W3C//DTD SVG 1.1//EN" "http://www.w3.org/Graphics/SVG/1.1/DTD/svg11.dtd"><svg t="1531984597742" class="icon" style="" viewBox="0 0 1024 1024" version="1.1" xmlns="http://www.w3.org/2000/svg" p-id="1406" xmlns:xlink="http://www.w3.org/1999/xlink" width="200" height="200"><defs><style type="text/css"></style></defs><path d="M32.698609 985.846655h33.384176a19.076672 19.076672 0 1 1 0 38.153345H32.698609a19.076672 19.076672 0 0 1 0-38.153345z m879.911509 0h78.691273a19.076672 19.076672 0 0 1 0 38.153345h-78.691273a19.076672 19.076672 0 0 1 0-38.153345z m-763.066892 0h689.144787a19.076672 19.076672 0 0 1 0 38.153345H149.543226a19.076672 19.076672 0 0 1 0-38.153345z" fill="#261D50" p-id="1407"></path><path d="M688.638063 418.983338c-73.922105 47.03592-276.611748 47.03592-350.533854 0A310.246306 310.246306 0 0 0 202.802911 675.433428c0 171.535053 139.057018 310.592071 310.592071 310.592071s310.592071-139.057018 310.59207-310.592071a310.246306 310.246306 0 0 0-135.348989-256.45009zM513.991128 783.335856a107.306282 107.306282 0 1 1 107.306281-107.306282 107.306282 107.306282 0 0 1-107.306281 107.306282z" fill="#00B7D6" p-id="1408"></path><path d="M513.394982 995.563835a320.130407 320.130407 0 1 1 163.2367-595.573709 321.847307 321.847307 0 0 1 115.163486 117.190383 9.538336 9.538336 0 0 1-16.572859 9.442953A300.946428 300.946428 0 0 0 513.394982 374.379694a301.053735 301.053735 0 1 0 301.053734 301.053734 9.538336 9.538336 0 0 1 19.076673 0A320.130407 320.130407 0 0 1 513.394982 995.563835z m305.107527-368.930919a9.538336 9.538336 0 0 1-9.359492-7.761821 299.432218 299.432218 0 0 0-18.671293-61.379193 9.538336 9.538336 0 1 1 17.550538-7.475671 318.568504 318.568504 0 0 1 19.863585 65.289911 9.538336 9.538336 0 0 1-9.383338 11.326774z" fill="#261D50" p-id="1409"></path><path d="M513.991128 780.450509A104.420935 104.420935 0 1 0 409.570193 676.029574a104.420935 104.420935 0 0 0 104.420935 104.420935z m0 48.192444a152.613378 152.613378 0 1 1 152.613378-152.613379 152.613378 152.613378 0 0 1-152.613378 152.613379z" fill="#FDD838" p-id="1410"></path><path d="M515.18342 676.029574m-107.306282 0a107.306282 107.306282 0 1 0 214.612563 0 107.306282 107.306282 0 1 0-214.612563 0Z" fill="#FFFFFF" p-id="1411"></path><path d="M512.798836 840.565873c-91.389183 0-165.728591-74.35133-165.728591-165.728591s74.339407-165.728591 165.728591-165.72859 165.728591 74.35133 165.72859 165.72859-74.35133 165.728591-165.72859 165.728591z m0-312.380509a146.651918 146.651918 0 1 0 146.651918 146.651918 146.818839 146.818839 0 0 0-146.651918-146.651918z" fill="#261D50" p-id="1412"></path><path d="M513.991128 792.874192a116.844618 116.844618 0 1 1 116.844617-116.844618 116.97577 116.97577 0 0 1-116.844617 116.844618z m0-214.612563a97.767946 97.767946 0 1 0 97.767945 97.767945 97.875252 97.875252 0 0 0-97.767945-97.767945z" fill="#261D50" p-id="1413"></path><path d="M716.680771 379.828468c0-101.034826-90.745346-182.945287-202.689643-182.945287s-202.689643 81.910462-202.689643 182.945287 405.379286 101.034826 405.379286 0z" fill="#FFFFFF" p-id="1414"></path><path d="M513.991128 463.801595c-54.094289 0-104.64747-6.903371-142.359667-19.43436-57.754625-19.195901-69.868312-46.427851-69.868313-65.886057 0-106.11399 95.204518-192.483623 212.22798-192.483623s212.227979 86.345788 212.227979 192.483623c0 58.934994-106.590906 85.320417-212.227979 85.320417z m0-258.727368c-106.507446 0-193.151307 77.797054-193.151307 173.406951 0 37.771811 83.043139 66.243745 193.151307 66.243745s193.151307-28.471933 193.151307-66.243745c0-95.609897-86.643861-173.406951-193.151307-173.406951z" fill="#261D50" p-id="1415"></path><path d="M573.248041 195.535891h-31.476509c-2.169971 0-3.934564-2.134203-3.934564-4.769168v-19.076672c0-2.634965 1.764592-4.769168 3.934564-4.769168h31.476509c2.169971 0 3.934564 2.134203 3.934564 4.769168v19.076672c0 2.634965-1.764592 4.769168-3.934564 4.769168z" fill="#FDD838" p-id="1416"></path><path d="M573.248041 205.074227h-31.476509c-7.427979 0-13.4729-6.414531-13.4729-14.307504v-19.076672c0-7.892973 6.044921-14.307504 13.4729-14.307505h31.476509c7.427979 0 13.4729 6.414531 13.4729 14.307505v19.076672c0 7.892973-6.044921 14.307504-13.4729 14.307504z m-25.872737-19.076672h20.268964v-9.538336h-20.268964z" fill="#261D50" p-id="1417"></path><path d="M568.693485 166.920883h-22.367398a4.101485 4.101485 0 0 1-3.719951-4.387635V87.848076a4.101485 4.101485 0 0 1 3.719951-4.387635h22.355476a4.101485 4.101485 0 0 1 3.719951 4.387635v74.673249a4.101485 4.101485 0 0 1-3.708029 4.399558z" fill="#FDD838" p-id="1418"></path><path d="M568.693485 176.459219H546.33801c-7.30875 0-13.27021-6.24761-13.27021-13.925971V87.848076c0-7.678361 5.96146-13.925971 13.27021-13.925971h22.355475c7.296827 0 13.258287 6.24761 13.258288 13.925971v74.673249c0 7.690284-5.96146 13.937894-13.258288 13.937894z m-16.549013-19.076673h10.730628V92.998777h-10.730628z" fill="#261D50" p-id="1419"></path><path d="M490.741433 195.535891h-17.88438a2.873424 2.873424 0 0 1-2.98073-2.766117v-46.928614a2.873424 2.873424 0 0 1 2.98073-2.766118h17.88438a2.873424 2.873424 0 0 1 2.98073 2.766118v46.940536a2.873424 2.873424 0 0 1-2.98073 2.754195z" fill="#FDD838" p-id="1420"></path><path d="M490.741433 205.074227h-17.88438a12.423683 12.423683 0 0 1-12.519066-12.304453v-46.928614a12.423683 12.423683 0 0 1 12.519066-12.304454h17.88438a12.423683 12.423683 0 0 1 12.519067 12.304454v46.940536a12.423683 12.423683 0 0 1-12.519067 12.292531z m-11.326774-19.076672h4.769168v-33.384177h-4.769168z" fill="#261D50" p-id="1421"></path><path d="M565.68891 83.770437h-15.607103a4.149176 4.149176 0 0 1-3.898795-4.363789V22.653548c0-7.22529 5.246085-13.115212 11.708308-13.115212s11.708308 5.878 11.708307 13.115212v56.765023a4.149176 4.149176 0 0 1-3.910717 4.351866z" fill="#FDD838" p-id="1422"></path><path d="M565.68891 93.308773h-15.607103a13.687512 13.687512 0 0 1-13.437131-13.914047V22.653548c0-12.483297 9.538336-22.653548 21.246644-22.653548s21.246644 10.158328 21.246644 22.653548v56.765023a13.699435 13.699435 0 0 1-13.449054 13.890202z m-9.967562-19.076672h4.32802V22.653548c0-2.146126-1.299598-3.576876-2.169971-3.576876s-2.169971 1.418828-2.169972 3.576876z" fill="#261D50" p-id="1423"></path><path d="M488.15416 149.036502h-12.709833c-1.752669 0-3.18342-2.193817-3.18342-4.912243V80.300867c0-8.119509 4.280328-14.724806 9.538336-14.724806s9.538336 6.605298 9.538336 14.724806v63.823392c0 2.718426-1.418828 4.912243-3.183419 4.912243z" fill="#FDD838" p-id="1424"></path><path d="M488.15416 158.574838h-12.709833c-7.153752 0-12.721756-6.342994-12.721756-14.450579V80.300867c0-13.604052 8.346044-24.263143 19.076672-24.263142s19.076672 10.659091 19.076672 24.263142v63.823392c0 8.107586-5.59185 14.450579-12.721755 14.450579z" fill="#261D50" p-id="1425"></path><path d="M513.394982 339.207079m-55.441579 0a55.441579 55.441579 0 1 0 110.883158 0 55.441579 55.441579 0 1 0-110.883158 0Z" fill="#FDD838" p-id="1426"></path><path d="M513.394982 404.186994a64.979915 64.979915 0 1 1 64.979915-64.979915 65.051453 65.051453 0 0 1-64.979915 64.979915z m0-110.883157a45.903243 45.903243 0 1 0 45.903242 45.903242 45.950934 45.950934 0 0 0-45.903242-45.903242z" fill="#261D50" p-id="1427"></path><path d="M608.182197 385.110322m-26.230424 0a26.230424 26.230424 0 1 0 52.460849 0 26.230424 26.230424 0 1 0-52.460849 0Z" fill="#FF6660" p-id="1428"></path><path d="M608.182197 420.879082a35.768761 35.768761 0 1 1 35.768761-35.76876 35.768761 35.768761 0 0 1-35.768761 35.76876z m0-52.460848a16.692088 16.692088 0 1 0 16.692088 16.692088 16.692088 16.692088 0 0 0-16.692088-16.692088z" fill="#261D50" p-id="1429"></path><path d="M513.394982 675.433428m-39.941783 0a39.941783 39.941783 0 1 0 79.883565 0 39.941783 39.941783 0 1 0-79.883565 0Z" fill="#72C69C" p-id="1430"></path><path d="M513.394982 724.913547a49.480119 49.480119 0 1 1 49.480118-49.480119 49.539733 49.539733 0 0 1-49.480118 49.480119z m0-79.883565a30.403446 30.403446 0 1 0 30.403446 30.403446 30.439215 30.439215 0 0 0-30.403446-30.403446z" fill="#261D50" p-id="1431"></path></svg>