<?xml version="1.0" standalone="no"?><!DOCTYPE svg PUBLIC "-//W3C//DTD SVG 1.1//EN" "http://www.w3.org/Graphics/SVG/1.1/DTD/svg11.dtd"><svg t="1531984630448" class="icon" style="" viewBox="0 0 1103 1024" version="1.1" xmlns="http://www.w3.org/2000/svg" p-id="3464" xmlns:xlink="http://www.w3.org/1999/xlink" width="215.4296875" height="200"><defs><style type="text/css"></style></defs><path d="M21.117484 981.765032h36.955597a21.117484 21.117484 0 1 1 0 42.234968H21.117484a21.117484 21.117484 0 0 1 0-42.234968z m974.043952 0h87.109622a21.117484 21.117484 0 0 1 0 42.234968h-87.109622a21.117484 21.117484 0 0 1 0-42.234968z m-844.699362 0h762.869111a21.117484 21.117484 0 0 1 0 42.234968H150.462074a21.117484 21.117484 0 0 1 0-42.234968z" fill="#261D50" p-id="3465"></path><path d="M1025.794986 918.610556H84.205968a16.194471 16.194471 0 0 1-16.234066-16.168074v-226.353032A16.194471 16.194471 0 0 1 84.205968 659.921377h941.57582a16.194471 16.194471 0 0 1 16.234066 16.168073v226.353032A16.194471 16.194471 0 0 1 1025.794986 918.610556zM338.764039 984.602694h-88.812218c-2.824463 0-5.12099-14.51827-5.12099-32.336148v-21.553032c0-5.952491 0.765509-10.783115 1.702597-10.783115h95.569814c0.950287 0 1.702597 4.830624 1.702597 10.783115v21.553032c0.013198 17.817877-2.283328 32.336147-5.0418 32.336148zM854.822556 984.602694h-88.812219c-2.824463 0-5.12099-14.51827-5.12099-32.336148v-21.553032c0-5.952491 0.765509-10.783115 1.702597-10.783115h95.569814c0.950287 0 1.702597 4.830624 1.702597 10.783115v21.553032c0.013198 17.817877-2.283328 32.336147-5.041799 32.336148z" fill="#FFFFFF" p-id="3466"></path><path d="M242.851067 789.925888a48.17426 48.17426 0 1 0-48.174261 48.17426 48.17426 48.17426 0 0 0 48.174261-48.17426" fill="#72C69C" p-id="3467"></path><path d="M407.831411 789.925888c0-26.60803-22.16016-48.17426-49.494104-48.174261S308.843204 763.317858 308.843204 789.925888s22.16016 48.17426 49.494103 48.17426 49.494103-21.566231 49.494104-48.17426" fill="#72C69C" p-id="3468"></path><path d="M1023.762428 929.169298H82.226204A26.792808 26.792808 0 0 1 55.433396 902.442482v-226.353032A26.792808 26.792808 0 0 1 82.226204 649.362635h941.536224a26.792808 26.792808 0 0 1 26.792808 26.726815v226.353032a26.753213 26.753213 0 0 1-26.792808 26.726816zM82.226204 670.480119a5.648927 5.648927 0 0 0-5.675324 5.609331v226.353032a5.648927 5.648927 0 0 0 5.675324 5.609332h941.536224a5.675324 5.675324 0 0 0 4.025521-1.649803 5.54334 5.54334 0 0 0 1.649803-3.959529v-226.353032a5.648927 5.648927 0 0 0-5.675324-5.609331z" fill="#261D50" p-id="3469"></path><path d="M336.718283 995.161436h-88.746227c-11.139473 0-13.198428-12.881665-14.043126-18.38541A164.59759 164.59759 0 0 1 232.292325 952.266546v-21.553032a62.032609 62.032609 0 0 1 0.633524-9.238899c1.728994-10.888703 8.710962-12.063363 11.641013-12.063363h95.51702c2.930051 0 9.912019 1.17466 11.641013 12.063363a62.032609 62.032609 0 0 1 0.633525 9.238899v21.553032a164.505201 164.505201 0 0 1-1.636605 24.50948c-0.818303 5.503744-2.864059 18.38541-14.003532 18.38541z m-81.830251-21.117484h74.940672a138.583489 138.583489 0 0 0 1.465025-21.777406v-21.553032-0.224373h-77.870722v21.777405a138.66268 138.66268 0 0 0 1.451827 21.777406zM852.7768 995.161436h-88.746227c-11.139473 0-13.198428-12.881665-14.043127-18.38541A164.59759 164.59759 0 0 1 748.350841 952.266546v-21.553032a62.032609 62.032609 0 0 1 0.633525-9.238899c1.728994-10.888703 8.710962-12.063363 11.641013-12.063363h95.51702c2.930051 0 9.912019 1.17466 11.641013 12.063363a62.032609 62.032609 0 0 1 0.633524 9.238899v21.553032a164.42601 164.42601 0 0 1-1.636605 24.50948c-0.818303 5.503744-2.864059 18.38541-14.003531 18.38541z m-81.830251-21.117484h74.940671a138.66268 138.66268 0 0 0 1.465026-21.777406V930.489141h-77.870723v21.777405a138.451505 138.451505 0 0 0 1.451828 21.777406z" fill="#261D50" p-id="3470"></path><path d="M915.970871 625.605465h-84.469937c-5.833705 0-10.558742-7.100754-10.558742-15.838113v-63.352452c0-8.737359 4.725037-15.838113 10.558742-15.838113h84.469937c5.833705 0 10.558742 7.100754 10.558742 15.838113v63.352452c0 8.737359-4.711839 15.838113-10.558742 15.838113z" fill="#FDD838" p-id="3471"></path><path d="M915.970871 636.164207h-84.469937c-11.878585 0-21.117484-11.601418-21.117484-26.396855v-63.352452c0-14.795437 9.238899-26.396855 21.117484-26.396855h84.469937c11.878585 0 21.117484 11.601418 21.117484 26.396855v63.352452c0 14.795437-9.265296 26.396855-21.117484 26.396855z m-83.150094-21.117484h81.935838a10.215583 10.215583 0 0 0 1.319843-5.279371v-63.352452a10.215583 10.215583 0 0 0-1.319843-5.279371h-81.988631a10.215583 10.215583 0 0 0-1.319843 5.279371v63.352452a10.215583 10.215583 0 0 0 1.319843 5.279371z" fill="#261D50" p-id="3472"></path><path d="M287.72572 625.605465h-84.469936c-5.833705 0-10.558742-7.100754-10.558742-15.838113v-63.352452c0-8.737359 4.725037-15.838113 10.558742-15.838113h84.469936c5.833705 0 10.558742 7.100754 10.558742 15.838113v63.352452c0 8.737359-4.711839 15.838113-10.558742 15.838113z" fill="#FDD838" p-id="3473"></path><path d="M287.72572 636.164207h-84.469936c-11.878585 0-21.117484-11.601418-21.117484-26.396855v-63.352452c0-14.795437 9.238899-26.396855 21.117484-26.396855h84.469936c11.878585 0 21.117484 11.601418 21.117484 26.396855v63.352452c0 14.795437-9.265296 26.396855-21.117484 26.396855z m-83.150093-21.117484h81.935838a10.215583 10.215583 0 0 0 1.319843-5.279371v-63.352452a10.215583 10.215583 0 0 0-1.319843-5.279371h-81.988632a10.215583 10.215583 0 0 0-1.319843 5.279371v63.352452a10.215583 10.215583 0 0 0 1.319843 5.279371z" fill="#261D50" p-id="3474"></path><path d="M904.263865 527.937101h-62.36257c-5.754514 0-10.387162-6.467229-10.387162-14.452278v-245.622736c0-7.919057 4.645846-14.452278 10.387162-14.452278h62.36257c5.754514 0 10.387162 6.467229 10.387163 14.452278v245.622736c0 7.985049-4.645846 14.452278-10.387163 14.452278zM276.018715 527.937101h-62.36257c-5.754514 0-10.387162-6.467229-10.387163-14.452278v-245.622736c0-7.919057 4.645846-14.452278 10.387163-14.452278h62.36257c5.741316 0 10.387162 6.467229 10.387162 14.452278v245.622736c0 7.985049-4.645846 14.452278-10.387162 14.452278z" fill="#FDD838" p-id="3475"></path><path d="M276.018715 538.495843h-62.36257c-11.746601 0-20.945904-10.981092-20.945905-25.01102v-245.622736c0-14.01673 9.238899-25.01102 20.945905-25.01102h62.36257c11.746601 0 20.959103 10.981092 20.959103 25.01102v245.622736C296.964619 527.514752 287.765315 538.495843 276.018715 538.495843z m-61.319894-21.117484h60.158432a7.602294 7.602294 0 0 0 0.937089-3.893536v-245.622736a7.589096 7.589096 0 0 0-0.937089-3.893536h-60.158432a7.589096 7.589096 0 0 0-0.937089 3.893536v245.622736a7.602294 7.602294 0 0 0 0.937089 3.893536z" fill="#261D50" p-id="3476"></path><path d="M894.523426 253.409809h-41.971c-5.807308 0-10.49275-6.401237-10.49275-14.280699V53.414036C842.059676 29.788851 856.181994 10.558742 873.537926 10.558742s31.438654 19.230109 31.438655 42.855294v185.715074c0 7.879461-4.659045 14.280699-10.453155 14.280699z" fill="#FDD838" p-id="3477"></path><path d="M894.523426 263.968551h-41.971c-11.799394 0-21.051492-10.9151-21.051492-24.839441V53.414036C831.500934 23.955146 850.361487 0 873.537926 0s41.997396 23.968344 41.997397 53.414036v185.715074c0 13.924341-9.238899 24.839441-21.011897 24.839441z m-40.915125-21.117484h39.964838a7.061159 7.061159 0 0 0 0.92389-3.721957V53.414036c0-17.501115-9.582058-32.296552-20.919508-32.296552s-20.919508 14.795437-20.919507 32.296552v185.715074a7.04796 7.04796 0 0 0 0.844699 3.721957z" fill="#261D50" p-id="3478"></path><path d="M266.278275 253.409809h-41.970999c-5.807308 0-10.49275-6.401237-10.49275-14.280699V53.414036C213.814526 29.788851 227.936843 10.558742 245.292776 10.558742s31.438654 19.230109 31.438654 42.855294v185.715074c0 7.879461-4.659045 14.280699-10.453155 14.280699z" fill="#FDD838" p-id="3479"></path><path d="M266.278275 263.968551h-41.970999c-11.799394 0-21.051492-10.9151-21.051492-24.839441V53.414036C203.255784 23.955146 222.116337 0 245.292776 0s41.997396 23.968344 41.997396 53.414036v185.715074c0 13.924341-9.238899 24.839441-21.011897 24.839441z m-40.915125-21.117484h39.964839a7.061159 7.061159 0 0 0 0.92389-3.721957V53.414036c0-17.501115-9.582058-32.296552-20.919508-32.296552s-20.919508 14.795437-20.919508 32.296552v185.715074a7.061159 7.061159 0 0 0 0.8447 3.721957z" fill="#261D50" p-id="3480"></path><path d="M983.282851 749.670684c0-14.51827-11.205465-26.396855-25.077012-26.396855s-25.077012 11.878585-25.077013 26.396855 11.205465 26.396855 25.077013 26.396855 25.077012-11.878585 25.077012-26.396855" fill="#FF6660" p-id="3481"></path><path d="M958.219037 786.626281c-19.652459 0-35.635754-16.577225-35.635754-36.955597s15.983296-36.955597 35.635754-36.955597 35.635754 16.577225 35.635755 36.955597a37.457137 37.457137 0 0 1-10.24198 25.93491 34.75146 34.75146 0 0 1-25.393775 11.020687z m0-52.79371c-8.011446 0-14.51827 7.100754-14.51827 15.838113s6.506825 15.838113 14.51827 15.838113a13.831952 13.831952 0 0 0 10.083599-4.44787 16.432042 16.432042 0 0 0 4.434671-11.390243c-0.013198-8.737359-6.520023-15.838113-14.531468-15.838113z" fill="#261D50" p-id="3482"></path><path d="M983.282851 852.618419c0-14.51827-11.205465-26.396855-25.077012-26.396856s-25.077012 11.878585-25.077013 26.396856 11.205465 26.396855 25.077013 26.396855 25.077012-11.878585 25.077012-26.396855" fill="#FF6660" p-id="3483"></path><path d="M958.205839 889.574016c-19.652459 0-35.635754-16.577225-35.635755-36.955597s15.983296-36.955597 35.635755-36.955598 35.635754 16.577225 35.635754 36.955598-15.983296 36.955597-35.635754 36.955597z m0-52.793711c-8.011446 0-14.51827 7.100754-14.518271 15.838114s6.506825 15.838113 14.518271 15.838113 14.51827-7.100754 14.51827-15.838113-6.506825-15.838113-14.51827-15.838114z" fill="#261D50" p-id="3484"></path><path d="M152.164671 579.410969h804.391364a65.992138 65.992138 0 0 1 60.85795 40.466378L1034.756718 661.241219H72.591351l19.362094-43.000477A65.992138 65.992138 0 0 1 152.164671 579.410969z" fill="#00B7D6" p-id="3485"></path><path d="M1050.634427 671.799961H56.2385l26.146085-57.901501A76.682864 76.682864 0 0 1 152.164671 568.852227h804.391364a76.3793 76.3793 0 0 1 70.598389 46.946806zM88.944203 650.682477h929.934807l-11.205465-26.713617A55.301411 55.301411 0 0 0 956.556035 589.969711H152.164671a55.525785 55.525785 0 0 0-50.523581 32.613314zM904.263865 538.495843h-62.36257c-11.746601 0-20.945904-10.981092-20.945904-25.01102v-245.622736c0-14.01673 9.238899-25.01102 20.959103-25.01102h62.36257c11.746601 0 20.945904 10.981092 20.945904 25.01102v56.172507a10.558742 10.558742 0 1 1-21.117484 0v-56.172507a7.602294 7.602294 0 0 0-0.937088-3.893536h-60.224425a7.589096 7.589096 0 0 0-0.937088 3.893536v245.622736a7.602294 7.602294 0 0 0 0.937088 3.893536h60.158433a7.602294 7.602294 0 0 0 0.937088-3.893536v-48.834182a10.558742 10.558742 0 0 1 21.117484 0v48.834182c0.052794 14.029928-9.14651 25.01102-20.893111 25.01102z m10.387163-103.766037a10.558742 10.558742 0 0 1-10.558742-10.558742V357.941355a10.558742 10.558742 0 0 1 21.117484 0v66.229709a10.558742 10.558742 0 0 1-10.558742 10.558742z" fill="#261D50" p-id="3486"></path></svg>