<?xml version="1.0" standalone="no"?><!DOCTYPE svg PUBLIC "-//W3C//DTD SVG 1.1//EN" "http://www.w3.org/Graphics/SVG/1.1/DTD/svg11.dtd"><svg t="1531984628563" class="icon" style="" viewBox="0 0 1240 1024" version="1.1" xmlns="http://www.w3.org/2000/svg" p-id="3336" xmlns:xlink="http://www.w3.org/1999/xlink" width="242.1875" height="200"><defs><style type="text/css"></style></defs><path d="M23.750084 976.499833h41.562646a23.750084 23.750084 0 1 1 0 47.500167H23.750084a23.750084 23.750084 0 0 1 0-47.500167z m1095.472611 0h97.969095a23.750084 23.750084 0 0 1 0 47.500167h-97.969095a23.750084 23.750084 0 0 1 0-47.500167z m-950.003349 0h857.971775a23.750084 23.750084 0 0 1 0 47.500167H169.219346a23.750084 23.750084 0 0 1 0-47.500167z" fill="#261D50" p-id="3337"></path><path d="M548.255839 11.875339h144.459884a26.718844 26.718844 0 0 1 26.377437 22.503204L745.158877 197.422868H495.782998l26.08056-163.044325A26.718844 26.718844 0 0 1 548.255839 11.875339z" fill="#FFFFFF" p-id="3338"></path><path d="M759.082363 209.29791H481.93373l28.203224-176.80453A38.430604 38.430604 0 0 1 548.255839 0.000297h144.459884a38.430604 38.430604 0 0 1 38.10404 32.493083z m-249.375879-23.750084h221.603125L707.351712 36.248862a14.843802 14.843802 0 0 0-14.635989-12.498481h-144.430197a14.843802 14.843802 0 0 0-14.650833 12.498481z" fill="#261D50" p-id="3339"></path><path d="M989.383956 198.907248h21.493826a74.219012 74.219012 0 0 1 74.219011 74.219012v359.220016a74.219012 74.219012 0 0 1-74.219011 74.219011h-293.907286l-96.484715-86.925306-95.000335 86.925306h-295.391666a74.219012 74.219012 0 0 1-74.219012-74.219011V273.12626a74.219012 74.219012 0 0 1 74.219012-74.219012h596.720853m43.418122 0h70.493217" fill="#FFFFFF" p-id="3340"></path><path d="M1010.862938 718.440329H712.398605l-91.853449-82.769042L530.087025 718.440329H230.078936a86.19796 86.19796 0 0 1-86.094053-86.094053V273.12626a86.19796 86.19796 0 0 1 86.094053-86.094054h596.720853a11.875042 11.875042 0 0 1 0 23.750084H230.078936a62.34397 62.34397 0 0 0-62.34397 62.34397v359.220016a62.34397 62.34397 0 0 0 62.34397 62.34397h290.790087l99.557383-91.096415L721.527543 694.690246H1010.862938a62.34397 62.34397 0 0 0 62.34397-62.34397V273.12626a62.34397 62.34397 0 0 0-62.34397-62.34397h-21.478982a11.875042 11.875042 0 1 1 0-23.750084h21.493826a86.19796 86.19796 0 0 1 86.094053 86.094054v359.220016A86.19796 86.19796 0 0 1 1010.862938 718.440329z m-70.15181-507.658039h-70.493217a11.875042 11.875042 0 0 1 0-23.750084h70.493217a11.875042 11.875042 0 0 1 0 23.750084z" fill="#261D50" p-id="3341"></path><path d="M225.625795 265.704358l789.690284 0 0 375.548199-789.690284 0 0-375.548199Z" fill="#FDD838" p-id="3342"></path><path d="M982.659714 653.127599H258.28216a44.531407 44.531407 0 0 1-44.531407-44.531407V298.360724a44.531407 44.531407 0 0 1 44.531407-44.531407h724.377554a44.531407 44.531407 0 0 1 44.531407 44.531407v310.235468a44.531407 44.531407 0 0 1-44.531407 44.531407zM258.28216 277.5794a20.781323 20.781323 0 0 0-20.781323 20.781324v310.235468a20.781323 20.781323 0 0 0 20.781323 20.781323h724.377554a20.781323 20.781323 0 0 0 20.781323-20.781323V298.360724a20.781323 20.781323 0 0 0-20.781323-20.781324z" fill="#261D50" p-id="3343"></path><path d="M463.868823 371.095355a92.773765 92.773765 0 1 1-92.773765 92.773764 92.773765 92.773765 0 0 1 92.773765-92.773764z" fill="#00B7D6" p-id="3344"></path><path d="M463.868823 568.517926a104.648806 104.648806 0 1 1 104.648806-104.648807 104.767557 104.767557 0 0 1-104.648806 104.648807z m0-185.547529a80.898723 80.898723 0 1 0 80.898722 80.898722 80.987785 80.987785 0 0 0-80.898722-80.898722z" fill="#261D50" p-id="3345"></path><path d="M777.073052 371.095355a92.773765 92.773765 0 1 1-92.773765 92.773764 92.773765 92.773765 0 0 1 92.773765-92.773764z" fill="#00B7D6" p-id="3346"></path><path d="M777.073052 568.517926a104.648806 104.648806 0 1 1 104.648806-104.648807 104.767557 104.767557 0 0 1-104.648806 104.648807z m0-185.547529a80.898723 80.898723 0 1 0 80.898722 80.898722 80.987785 80.987785 0 0 0-80.898722-80.898722z" fill="#261D50" p-id="3347"></path><path d="M1085.08195 304.298244h84.609673a29.687605 29.687605 0 0 1 29.687605 29.687605v259.766541a29.687605 29.687605 0 0 1-29.687605 29.687604h-84.609673z" fill="#72C69C" p-id="3348"></path><path d="M1169.691623 635.315036h-96.484715V292.423203h96.484715a41.562646 41.562646 0 0 1 41.562646 41.562646v259.766541a41.562646 41.562646 0 0 1-41.562646 41.562646z m-72.734631-23.750083h72.734631a17.812563 17.812563 0 0 0 17.812563-17.812563V333.985849a17.812563 17.812563 0 0 0-17.812563-17.812563h-72.734631z" fill="#261D50" p-id="3349"></path><path d="M155.859924 293.907583H71.250251a29.687605 29.687605 0 0 0-29.687605 29.687604v259.766541a29.687605 29.687605 0 0 0 29.687605 29.687605h84.609673z" fill="#72C69C" p-id="3350"></path><path d="M167.734966 624.924375H71.250251a41.562646 41.562646 0 0 1-41.562646-41.562647V323.595187a41.562646 41.562646 0 0 1 41.562646-41.562646h96.484715zM71.250251 305.782625a17.812563 17.812563 0 0 0-17.812563 17.812562v259.766541a17.812563 17.812563 0 0 0 17.812563 17.812563h72.734632V305.782625z" fill="#261D50" p-id="3351"></path></svg>