<?xml version="1.0" standalone="no"?><!DOCTYPE svg PUBLIC "-//W3C//DTD SVG 1.1//EN" "http://www.w3.org/Graphics/SVG/1.1/DTD/svg11.dtd"><svg t="1531984595996" class="icon" style="" viewBox="0 0 1040 1024" version="1.1" xmlns="http://www.w3.org/2000/svg" p-id="1276" xmlns:xlink="http://www.w3.org/1999/xlink" width="203.125" height="200"><defs><style type="text/css"></style></defs><path d="M19.911284 984.177432h34.844747a19.911284 19.911284 0 1 1 0 39.822568H19.911284a19.911284 19.911284 0 0 1 0-39.822568z m918.407972 0h82.134047a19.911284 19.911284 0 0 1 0 39.822568h-82.134047a19.911284 19.911284 0 0 1 0-39.822568z m-796.451358 0h719.295133a19.911284 19.911284 0 0 1 0 39.822568H141.867898a19.911284 19.911284 0 0 1 0-39.822568z" fill="#261D50" p-id="1277"></path><path d="M241.250094 9.719195h570.669843A68.681485 68.681485 0 0 1 880.588977 78.400681v691.917117H172.568609V78.400681a68.681485 68.681485 0 0 1 68.681485-68.681486z" fill="#FFFFFF" p-id="1278"></path><path d="M172.568609 763.908853h709.339491v187.912743a32.355836 32.355836 0 0 1-32.355837 32.355836h-644.627817a32.355836 32.355836 0 0 1-32.355837-32.355836z" fill="#FF6660" p-id="1279"></path><path d="M720.128918 412.972474h87.111867v87.111867h-87.111867z" fill="#72C69C" p-id="1280"></path><path d="M720.128918 86.925199h87.111867v326.047275h-87.111867z" fill="#FDD838" p-id="1281"></path><path d="M825.907614 516.262259h-119.467704v-439.292702h119.467704z m-99.55642-19.911284h79.645136v-399.470134h-79.645136z" fill="#261D50" p-id="1282"></path><path d="M565.816467 412.972474h87.111867v87.111867h-87.111867z" fill="#72C69C" p-id="1283"></path><path d="M565.816467 86.925199h87.111867v326.047275h-87.111867z" fill="#FDD838" p-id="1284"></path><path d="M671.595163 516.262259h-119.467704v-439.292702h119.467704z m-99.55642-19.911284h79.645136v-399.470134h-79.645136z" fill="#261D50" p-id="1285"></path><path d="M411.504017 412.972474h87.111867v87.111867h-87.111867z" fill="#72C69C" p-id="1286"></path><path d="M411.504017 86.925199h87.111867v326.047275h-87.111867z" fill="#FDD838" p-id="1287"></path><path d="M517.282713 516.262259h-119.467704v-439.292702h119.467704z m-99.55642-19.911284h79.645136v-399.470134h-79.645136z" fill="#261D50" p-id="1288"></path><path d="M257.191566 412.972474h87.111867v87.111867h-87.111867z" fill="#72C69C" p-id="1289"></path><path d="M257.191566 86.925199h87.111867v326.047275h-87.111867z" fill="#FDD838" p-id="1290"></path><path d="M362.970262 516.262259h-119.467704v-439.292702h119.467704z m-99.55642-19.911284h79.645136v-399.470134h-79.645136z" fill="#261D50" p-id="1291"></path><path d="M382.881546 848.94248v11.710324h28.398469l-28.112244 26.15845v12.481886h44.588831l4.156481-11.996549h-30.837601l28.834028-25.187774v-13.166337h-47.027964zM441.370942 850.186936v50.201324h42.622593l3.496919-10.428535h-32.306058v-9.843641h27.340681l2.999138-9.544971h-30.339819v-9.768974h28.809139l3.496919-10.615203h-46.119512zM496.126973 850.186936v50.089323h37.433214l4.193814-11.80988h-27.962909v-38.279443h-13.664119zM545.905183 850.186936h40.146126a16.513921 16.513921 0 0 1 6.55828 1.244455 11.088096 11.088096 0 0 1 4.504928 3.185805 17.721043 17.721043 0 0 1 2.613356 5.363602 19.525503 19.525503 0 0 1 1.132454 5.873829v16.551255a30.937157 30.937157 0 0 1-0.98312 8.113848 15.58058 15.58058 0 0 1-2.426687 5.463159 11.486322 11.486322 0 0 1-3.733366 3.06136 16.787701 16.787701 0 0 1-7.466732 1.244455h-40.345239z m13.689008 11.448988v27.303348h20.28462a5.301379 5.301379 0 0 0 3.870256-1.344012 7.466731 7.466731 0 0 0 1.792016-2.35202 18.567272 18.567272 0 0 0 0.398226-5.089822v-7.466731q0-3.733366-0.186669-5.57516a7.292508 7.292508 0 0 0-1.505791-3.733366 5.077377 5.077377 0 0 0-4.355593-1.792015zM632.083709 848.94248h17.210816l23.084645 50.201325h-15.543246l-4.442705-9.955642H628.947682l-4.704041 9.955642h-14.87124z m0.759118 30.812712h15.792137l-7.690734-17.422373z" fill="#FFFFFF" p-id="1292"></path><path d="M816.362642 1004.275384H231.468676a72.265516 72.265516 0 0 1-72.178404-72.178404V72.178404a72.265516 72.265516 0 0 1 72.178404-72.178404h584.893966a72.265516 72.265516 0 0 1 72.178404 72.178404v61.115198a9.955642 9.955642 0 0 1-19.911284 0V72.178404a52.26712 52.26712 0 0 0-52.26712-52.26712H231.468676a52.26712 52.26712 0 0 0-52.26712 52.26712v859.918576a52.26712 52.26712 0 0 0 52.26712 52.26712h584.893966a52.26712 52.26712 0 0 0 52.26712-52.26712V347.003901a9.955642 9.955642 0 0 1 19.911284 0V932.09698a72.265516 72.265516 0 0 1-72.178404 72.178404z m62.222762-705.45679a9.955642 9.955642 0 0 1-9.955642-9.955642v-96.432837a9.955642 9.955642 0 0 1 19.911284 0v96.432837a9.955642 9.955642 0 0 1-9.955642 9.955642z" fill="#261D50" p-id="1293"></path></svg>