<?xml version="1.0" standalone="no"?><!DOCTYPE svg PUBLIC "-//W3C//DTD SVG 1.1//EN" "http://www.w3.org/Graphics/SVG/1.1/DTD/svg11.dtd"><svg t="1531984599479" class="icon" style="" viewBox="0 0 1024 1024" version="1.1" xmlns="http://www.w3.org/2000/svg" p-id="1544" xmlns:xlink="http://www.w3.org/1999/xlink" width="200" height="200"><defs><style type="text/css"></style></defs><path d="M110 928h28a16 16 0 1 1 0 32h-28a16 16 0 0 1 0-32z m738 0h66a16 16 0 0 1 0 32h-66a16 16 0 0 1 0-32z m-640 0h578a16 16 0 0 1 0 32H208a16 16 0 0 1 0-32z" fill="#261D50" p-id="1545"></path><path d="M423.67 272.54a166.7 166.7 0 0 0-28-22.83q-6.71-4.36-13.9-8.13m-31.36-12.78a185.06 185.06 0 0 0-53.3-7.76c-57.54 0-108.3 26.09-139.05 66v177.6c30.75 39.87 81.51 66 139.05 66a182.73 182.73 0 0 0 77.25-17v357.5h92.7V375.8a142.23 142.23 0 0 0-10.95-54.65 149.29 149.29 0 0 0-15.75-28.59M729.95 221.04c57.54 0 108.3 26.09 139 66v177.6c-30.75 39.87-81.51 66-139 66a182.73 182.73 0 0 1-77.25-17v357.5H560V375.8c0-85.46 76.08-154.76 169.95-154.76z" fill="#FFFFFF" p-id="1546"></path><path d="M467 879.04h-92.7a8 8 0 0 1-8-8V525.65a189.8 189.8 0 0 1-69.25 12.91c-57.68 0-112-25.82-145.38-69.07a8 8 0 0 1-1.67-4.89V287a8 8 0 0 1 1.67-4.85c33.36-43.25 87.71-69.07 145.38-69.07a193 193 0 0 1 55.62 8.07 8 8 0 0 1-4.6 15.32 177.06 177.06 0 0 0-51-7.42c-51.8 0-100.57 22.65-131 60.73v172.06c30.48 38.08 79.25 60.73 131 60.73a173.76 173.76 0 0 0 73.87-16.28 8 8 0 0 1 11.38 7.25v349.5h76.7V375.8a134 134 0 0 0-10.35-51.58 141.6 141.6 0 0 0-14.86-27.07 8.001 8.001 0 0 1 13.1-9.19 157.62 157.62 0 0 1 16.59 30.12 150 150 0 0 1 11.51 57.71v495.25a8 8 0 0 1-8.01 8z m-43.33-598.5a8 8 0 0 1-5.7-2.39 159 159 0 0 0-26.69-21.74c-4.26-2.77-8.72-5.38-13.25-7.75a8 8 0 0 1 7.43-14.17c5 2.6 9.86 5.46 14.54 8.5a175 175 0 0 1 29.38 23.93 8 8 0 0 1-5.7 13.61z" fill="#261D50" p-id="1547"></path><path d="M373 523a8 8 0 0 1-8-8 39 39 0 0 0-39-39 8 8 0 0 1 0-16 55.06 55.06 0 0 1 55 55 8 8 0 0 1-8 8z" fill="#261D50" p-id="1548"></path><path d="M395.01 352a8 8 0 0 1-7.31-4.75c-9.38-21.08-26.76-38.1-48.94-47.94a8 8 0 1 1 6.49-14.62c25.8 11.45 46.06 31.36 57.06 56.06a8 8 0 0 1-7.3 11.26z" fill="#22BEE1" p-id="1549"></path><path d="M652 523a8 8 0 0 1-8-8 55.06 55.06 0 0 1 55-55 8 8 0 0 1 0 16 39 39 0 0 0-39 39 8 8 0 0 1-8 8z" fill="#261D50" p-id="1550"></path><path d="M652.67 879.04h-92.7a8 8 0 0 1-8-8V375.8c0-89.75 79.83-162.76 178-162.76 57.68 0 112 25.82 145.38 69.07a8 8 0 0 1 1.67 4.89v177.6a8 8 0 0 1-1.67 4.89c-33.36 43.25-87.71 69.07-145.38 69.07a189.8 189.8 0 0 1-69.3-12.91v345.39a8 8 0 0 1-8 8z m-84.7-16h76.7v-349.5a8 8 0 0 1 11.38-7.25 173.76 173.76 0 0 0 73.87 16.28c51.8 0 100.57-22.65 131-60.73V289.77c-30.48-38.08-79.25-60.73-131-60.73-89.3 0-162 65.84-162 146.76z" fill="#261D50" p-id="1551"></path><path d="M590 932h31a31 31 0 0 0 31-31v-31h-93v31a31 31 0 0 0 31 31zM404 932h31a31 31 0 0 0 31-31v-31h-93v31a31 31 0 0 0 31 31z" fill="#6FBE97" p-id="1552"></path><path d="M621 940h-31a39 39 0 0 1-39-39v-31a8 8 0 0 1 8-8h92.67a8 8 0 0 1 8 8v31A38.89 38.89 0 0 1 621 940z m-54-62v23a23 23 0 0 0 23 23h31a22.88 22.88 0 0 0 22.7-23v-23zM435 940h-31a38.89 38.89 0 0 1-38.7-39v-31a8 8 0 0 1 8-8H466a8 8 0 0 1 8 8v31a39 39 0 0 1-39 39z m-53.7-62v23a22.88 22.88 0 0 0 22.7 23h31a23 23 0 0 0 23-23v-23z" fill="#261D50" p-id="1553"></path><path d="M629 352a8 8 0 0 1-7.33-11.25c11-24.7 31.26-44.61 57.06-56.06a8 8 0 1 1 6.49 14.62c-22.14 9.84-39.55 26.84-48.91 47.95A8 8 0 0 1 629 352z" fill="#22BEE1" p-id="1554"></path><path d="M783.5 345a23.5 23.5 0 1 0 23.5 23.5 23.51 23.51 0 0 0-23.5-23.5M242.5 345a23.5 23.5 0 1 0 23.5 23.5 23.51 23.51 0 0 0-23.5-23.5" fill="#00B7D6" p-id="1555"></path></svg>