<?xml version="1.0" standalone="no"?><!DOCTYPE svg PUBLIC "-//W3C//DTD SVG 1.1//EN" "http://www.w3.org/Graphics/SVG/1.1/DTD/svg11.dtd"><svg t="1531984615931" class="icon" style="" viewBox="0 0 1103 1024" version="1.1" xmlns="http://www.w3.org/2000/svg" p-id="2570" xmlns:xlink="http://www.w3.org/1999/xlink" width="215.4296875" height="200"><defs><style type="text/css"></style></defs><path d="M21.117484 981.765032h36.955597a21.117484 21.117484 0 1 1 0 42.234968H21.117484a21.117484 21.117484 0 0 1 0-42.234968z m974.043952 0h87.109622a21.117484 21.117484 0 0 1 0 42.234968h-87.109622a21.117484 21.117484 0 0 1 0-42.234968z m-844.699362 0h762.869111a21.117484 21.117484 0 0 1 0 42.234968H150.462074a21.117484 21.117484 0 0 1 0-42.234968z" fill="#261D50" p-id="2571"></path><path d="M460.704311 803.573062h-51.988606a89.854895 89.854895 0 0 1-89.749307-89.749307v-397.272669a10.558742 10.558742 0 0 1 21.117484 0v397.272669a68.711014 68.711014 0 0 0 68.631823 68.631823h51.988606a68.711014 68.711014 0 0 0 68.631824-68.631823 10.558742 10.558742 0 0 1 21.117484 0 89.854895 89.854895 0 0 1-89.749308 89.749307z m348.266908-94.0124a10.558742 10.558742 0 0 1-10.558742-10.558742V374.835342a68.711014 68.711014 0 0 0-68.631824-68.631823h-110.695211a68.711014 68.711014 0 0 0-68.631823 68.631823v97.3648a10.558742 10.558742 0 0 1-21.117484 0V374.835342a89.854895 89.854895 0 0 1 89.749307-89.749307h110.695211a89.854895 89.854895 0 0 1 89.749308 89.749307v324.166578a10.558742 10.558742 0 0 1-10.558742 10.558742z m-269.076342-30.356383a10.558742 10.558742 0 0 1-10.558742-10.558742V539.815686a10.558742 10.558742 0 0 1 21.117484 0v128.803454a10.558742 10.558742 0 0 1-10.558742 10.598338z" fill="#261D50" p-id="2572"></path><path d="M299.168757 192.697042h64.672295v130.664433h-64.672295z" fill="#FDD838" p-id="2573"></path><path d="M374.399794 333.920217h-85.789779V182.1383h85.789779z m-64.672295-21.117485h43.554811v-109.546948h-43.554811z" fill="#261D50" p-id="2574"></path><path d="M258.253632 9.898821l151.121995 0 0 87.769543-151.121995 0 0-87.769543Z" fill="#FFFFFF" p-id="2575"></path><path d="M747.083792 723.93375l130.994393 0 0 130.994393-130.994393 0 0-130.994393Z" fill="#FFFFFF" p-id="2576"></path><path d="M387.598221 114.82632h-109.546948a34.315912 34.315912 0 0 1-34.315912-34.315912V34.315912a34.315912 34.315912 0 0 1 34.315912-34.315912h109.546948a34.315912 34.315912 0 0 1 34.315912 34.315912v46.194496a34.315912 34.315912 0 0 1-34.315912 34.315912z m-109.546948-93.708836a13.198428 13.198428 0 0 0-13.198428 13.198428v46.194496a13.198428 13.198428 0 0 0 13.198428 13.198427h109.546948a13.198428 13.198428 0 0 0 13.198428-13.198427V34.315912a13.198428 13.198428 0 0 0-13.198428-13.198428z" fill="#261D50" p-id="2577"></path><path d="M423.233976 146.502546a25.340981 25.340981 0 0 1-3.61637 11.878584l-44.874653 67.1536a13.633976 13.633976 0 0 1-10.109996 5.411355h-64.989057a13.620777 13.620777 0 0 1-10.109995-5.411355l-44.874654-67.1536a25.235393 25.235393 0 0 1-3.616369-11.878584V68.539434a6.520023 6.520023 0 0 1 6.506825-6.506825h169.177444a6.599214 6.599214 0 0 1 6.506825 6.506825z" fill="#00B7D6" p-id="2578"></path><path d="M364.685751 241.531224h-65.041851a23.941948 23.941948 0 0 1-18.952942-10.109996l-44.874653-67.153599a35.807334 35.807334 0 0 1-5.279371-17.765083V68.539434A17.078765 17.078765 0 0 1 247.6025 51.473867h169.124651a17.078765 17.078765 0 0 1 17.065567 17.065567V146.502546a35.92612 35.92612 0 0 1-5.384959 17.751885l-44.874653 67.166797a23.941948 23.941948 0 0 1-18.847355 10.109996z m-0.224373-21.117484z m-64.672295 0h64.672295a4.355481 4.355481 0 0 0 1.583811-0.8447l44.729471-67.021615a15.732526 15.732526 0 0 0 1.900574-6.044879V72.591351h-161.020816v73.911195a15.600541 15.600541 0 0 0 1.834581 6.031681l44.742669 67.034813a4.315886 4.315886 0 0 0 1.570613 0.8447z m-1.623407-0.884295z" fill="#261D50" p-id="2579"></path><path d="M208.099607 199.362248a6.599214 6.599214 0 0 0 6.599214 6.533221h26.396855a6.599214 6.599214 0 0 0 6.599213-6.533221V68.631823a6.599214 6.599214 0 0 0-6.599213-6.599214h-26.396855a6.599214 6.599214 0 0 0-6.599214 6.599214z" fill="#22BEE1" p-id="2580"></path><path d="M241.095676 216.454212h-26.396855a17.157956 17.157956 0 0 1-17.157956-17.091964V68.631823a17.157956 17.157956 0 0 1 17.157956-17.157956h26.396855a17.157956 17.157956 0 0 1 17.157956 17.157956v130.783219a17.157956 17.157956 0 0 1-17.157956 17.03917z m-22.437327-21.117485h18.477798V72.591351h-18.477798z" fill="#261D50" p-id="2581"></path><path d="M417.954605 199.362248a6.599214 6.599214 0 0 0 6.599213 6.533221h26.396855a6.599214 6.599214 0 0 0 6.599214-6.533221V68.631823a6.599214 6.599214 0 0 0-6.599214-6.599214h-26.396855a6.599214 6.599214 0 0 0-6.599213 6.599214z" fill="#00B7D6" p-id="2582"></path><path d="M450.950673 216.454212h-26.396855a17.157956 17.157956 0 0 1-17.157955-17.091964V68.631823a17.157956 17.157956 0 0 1 17.157955-17.157956h26.396855a17.157956 17.157956 0 0 1 17.157956 17.157956v130.783219a17.157956 17.157956 0 0 1-17.157956 17.03917z m-22.437326-21.117485h18.477798V72.591351h-18.477798zM860.101927 865.816846h-95.028678a29.036541 29.036541 0 0 1-29.036541-29.036541v-95.028678a29.036541 29.036541 0 0 1 29.036541-29.03654h95.028678a29.036541 29.036541 0 0 1 29.03654 29.03654v95.028678a29.036541 29.036541 0 0 1-29.03654 29.036541z m-95.028678-131.984275a7.919057 7.919057 0 0 0-7.919057 7.919056v95.028678a7.919057 7.919057 0 0 0 7.919057 7.919057h95.028678a7.919057 7.919057 0 0 0 7.919056-7.919057v-95.028678a7.919057 7.919057 0 0 0-7.919056-7.919056z" fill="#261D50" p-id="2583"></path><path d="M848.223342 692.917445v-125.385061h-72.591351v125.385061h72.591351z" fill="#FDD838" p-id="2584"></path><path d="M858.782084 703.476187h-93.708835V556.973642h93.708835z m-72.591351-21.117484h51.473867v-104.267577h-51.473867z" fill="#261D50" p-id="2585"></path><path d="M739.428704 783.986595h144.984726a6.031681 6.031681 0 0 0 6.04488-5.992086v-83.84961a23.08405 23.08405 0 0 0-3.3524-10.967893l-17.46152-25.974506a23.242431 23.242431 0 0 1-3.352401-10.981091v-11.970974a6.04488 6.04488 0 0 0-6.044879-6.005285h-96.652085a6.031681 6.031681 0 0 0-6.031682 6.005285v11.970974a23.229232 23.229232 0 0 1-3.339202 10.981091l-17.474718 25.974506a23.136843 23.136843 0 0 0-3.339202 10.967893v83.862809a6.018483 6.018483 0 0 0 6.018483 5.978887z" fill="#72C69C" p-id="2586"></path><path d="M884.41343 794.545337H739.428704a16.590423 16.590423 0 0 1-16.590423-16.550828v-83.84961a33.312831 33.312831 0 0 1 5.147386-16.854392l17.474718-25.974505a13.752761 13.752761 0 0 0 1.544216-5.094593v-11.970974A16.590423 16.590423 0 0 1 763.595025 617.686408h96.665283a16.603622 16.603622 0 0 1 16.603622 16.564027v11.970974a13.752761 13.752761 0 0 0 1.557414 5.107791l17.46152 25.961307a33.260037 33.260037 0 0 1 5.147387 16.854392v83.862809A16.590423 16.590423 0 0 1 884.41343 794.545337z m-140.457665-21.117484h135.943803v-79.282954a13.581182 13.581182 0 0 0-1.544216-5.068196l-17.474718-25.987704a33.40522 33.40522 0 0 1-5.147387-16.880789V638.803893h-87.62436v7.417516a33.40522 33.40522 0 0 1-5.134188 16.86759l-17.474718 25.987704a13.647174 13.647174 0 0 0-1.544216 5.081395z" fill="#261D50" p-id="2587"></path></svg>