<?xml version="1.0" standalone="no"?><!DOCTYPE svg PUBLIC "-//W3C//DTD SVG 1.1//EN" "http://www.w3.org/Graphics/SVG/1.1/DTD/svg11.dtd"><svg t="1531984601420" class="icon" style="" viewBox="0 0 1024 1024" version="1.1" xmlns="http://www.w3.org/2000/svg" p-id="1668" xmlns:xlink="http://www.w3.org/1999/xlink" width="200" height="200"><defs><style type="text/css"></style></defs><path d="M21.467433 984.957649h34.162058a19.521176 19.521176 0 1 1 0 39.042351H21.467433a19.521176 19.521176 0 0 1 0-39.042351z m900.414231 0h80.52485a19.521176 19.521176 0 0 1 0 39.042351h-80.52485a19.521176 19.521176 0 0 1 0-39.042351z m-780.847029 0h705.202473a19.521176 19.521176 0 0 1 0 39.042351H141.034635a19.521176 19.521176 0 0 1 0-39.042351z" fill="#261D50" p-id="1669"></path><path d="M191.057648 244.556055h409.94469a61.003674 61.003674 0 0 1 61.003674 61.003675v261.095725H130.053973v-261.095725a61.003674 61.003674 0 0 1 61.003675-61.003675z" fill="#72C69C" p-id="1670"></path><path d="M128.553283 560.042657H662.006012v358.079366a57.343454 57.343454 0 0 1-57.343454 57.343454H185.896737a57.343454 57.343454 0 0 1-57.343454-57.343454V560.042657z" fill="#FFFFFF" p-id="1671"></path><path d="M671.7666 576.416043H120.293386v-270.856313a70.849667 70.849667 0 0 1 70.764262-70.764262h409.94469a70.849667 70.849667 0 0 1 70.764262 70.764262z m-531.952039-19.521176h512.430863v-251.335137a51.243086 51.243086 0 0 0-51.243086-51.243087H191.057648a51.243086 51.243086 0 0 0-51.243087 51.243087z" fill="#261D50" p-id="1672"></path><path d="M602.222411 994.901247H191.057648a70.849667 70.849667 0 0 1-70.764262-70.764262v-616.137108a70.849667 70.849667 0 0 1 70.764262-70.764262h411.164763a70.849667 70.849667 0 0 1 70.764262 70.764262v616.137108a70.849667 70.849667 0 0 1-70.764262 70.764262z m-411.164763-738.144457a51.243086 51.243086 0 0 0-51.243087 51.243087v616.137108a51.243086 51.243086 0 0 0 51.243087 51.243087h411.164763a51.243086 51.243086 0 0 0 51.243087-51.243087v-616.137108a51.243086 51.243086 0 0 0-51.243087-51.243087z" fill="#261D50" p-id="1673"></path><path d="M668.106379 760.647139h23.181397a10.980661 10.980661 0 0 1 10.980661 10.980661v96.385805a10.980661 10.980661 0 0 1-10.980661 10.980662h-23.181397z" fill="#72C69C" p-id="1674"></path><path d="M691.287776 888.754854h-32.941984v-137.868303h32.941984a20.741249 20.741249 0 0 1 20.741249 20.741249v96.385805a20.741249 20.741249 0 0 1-20.741249 20.741249z m-13.420809-19.521175h13.420809a1.220073 1.220073 0 0 0 1.220073-1.220074v-96.385805a1.220073 1.220073 0 0 0-1.220073-1.220073h-13.420809z" fill="#261D50" p-id="1675"></path><path d="M200.818235 357.608064q98.752748-37.407453 195.821794-37.407453T592.461823 357.608064v163.904672a10.980661 10.980661 0 0 1-10.980661 10.980661H211.798897a10.980661 10.980661 0 0 1-10.980662-10.980661z" fill="#FFFFFF" p-id="1676"></path><path d="M408.425939 528.833177L588.801603 416.122789v-28.757132L362.404768 528.833177h46.021171zM509.801845 528.833177H588.801603v-49.364173l-78.999758 49.364173zM546.050228 382.424359H204.478456v146.408818h107.26886l234.302912-146.408818z" fill="#00B7D6" p-id="1677"></path><path d="M227.647651 670.861931c-11.810311 95.29994 71.581711 207.802916 88.565134 226.043014 17.703266 19.936001 55.488942 50.596447 80.890872 28.976745v-276.590658c0-61.455101-159.634415-60.784061-169.456006 21.570899z m91.505512 93.445428a46.362792 46.362792 0 1 1 46.362792-46.362792 46.362792 46.362792 0 0 1-46.350592 46.362792z" fill="#FDD838" p-id="1678"></path><path d="M377.094452 943.072526c-10.114409 0-19.850596-3.428406-27.707869-7.320441-19.118551-9.601978-34.564682-25.621543-40.396633-32.234341-7.405846-7.979281-33.356809-40.591845-56.562606-86.271396-19.338165-38.078493-41.01887-94.592297-34.467076-147.519085 2.976979-24.938302 17.886277-45.142719 43.105196-58.563527 20.741249-10.980661 47.375453-16.348985 73.204409-14.823893 44.069054 2.623158 72.55777 23.41321 72.55777 52.97559v281.104931l-3.428406 2.928176a39.566983 39.566983 0 0 1-26.304785 9.723986z m-51.657911-327.492124c-40.762655 0-83.623837 18.886738-88.101506 56.440599-5.953959 48.046494 14.384666 100.643862 32.502757 136.306609 20.619242 40.579644 44.959708 72.704179 53.524624 81.891333l0.15861 0.17081c11.712705 13.201195 34.747693 32.941984 53.341612 32.941984a21.326884 21.326884 0 0 0 10.480432-2.574355v-271.46635c0-20.912059-27.219839-31.88052-54.183464-33.491017-2.562154-0.146409-5.136509-0.219613-7.723065-0.219613z" fill="#261D50" p-id="1679"></path><path d="M697.217333 833.522128l-2.940377-19.301563c48.046494-7.320441 78.999758-19.948201 91.99354-37.566062 20.131212-33.137196 29.635585-99.533595 28.256902-197.346886l19.521176-0.280617c1.464088 103.328023-8.79673 171.420324-31.331487 208.156737l-0.414825 0.622237c-16.251379 22.485954-50.657451 37.431854-105.084929 45.716154z" fill="#261D50" p-id="1680"></path><path d="M824.275785 214.054218a98.825952 98.825952 0 0 1 98.825952 98.825952v162.269774a98.825952 98.825952 0 0 1-197.651904 0v-162.269774a98.825952 98.825952 0 0 1 98.825952-98.825952z" fill="#FF6660" p-id="1681"></path><path d="M763.272111 310.842648l119.567201 0 0 76.864629-119.567201 0 0-76.864629Z" fill="#FFFFFF" p-id="1682"></path><path d="M844.687615 384.864506H882.839312V361.02427l-38.151697 23.840236zM797.190154 384.864506l85.649158-53.524624v-7.247236l-97.252057 60.77186h11.602899zM880.874994 314.100244H765.712258v70.764262h1.915515l113.247221-70.764262z" fill="#00B7D6" p-id="1683"></path><path d="M868.198431 398.285314h-87.845291a28.06169 28.06169 0 0 1-28.06169-28.06169v-41.482498a28.06169 28.06169 0 0 1 28.06169-28.06169h87.845291a28.06169 28.06169 0 0 1 28.06169 28.06169v41.482498a28.06169 28.06169 0 0 1-28.06169 28.06169z m-87.845291-78.084703a8.540514 8.540514 0 0 0-8.540515 8.540515v41.482498a8.540514 8.540514 0 0 0 8.540515 8.540515h87.845291a8.540514 8.540514 0 0 0 8.540514-8.540515v-41.482498a8.540514 8.540514 0 0 0-8.540514-8.540515zM833.938767 211.797082l-19.325964-2.781767c8.259897-57.514264 1.220073-101.668723-20.741249-131.243305l-0.341621-0.488029c-17.239638-26.292584-68.629133-47.265647-134.17148-54.7813-63.443821-7.222835-125.789576-0.475829-158.816966 17.203037-28.305705 15.153313-25.084711 32.124535-20.180015 43.568824 5.31952 12.44475 11.968921 20.033607 20.314223 23.181396 17.849675 6.783609 44.703492-5.844152 73.131205-19.216157 46.765417-21.961323 104.92632-49.376374 149.568808 3.477209 15.77555 18.691526 20.033607 36.19958 12.676564 52.036134-12.408147 26.707409-58.258509 44.679091-140.174243 54.903307-61.796722 7.723065-131.194502 9.345763-178.533353 9.345763-68.604732 0-90.566055-8.259897-111.807534-16.26358-10.590238-3.98964-20.59484-7.747467-36.882821-10.212015l2.915976-19.301562c18.301102 2.769567 29.769793 7.076426 40.84806 11.236876 19.606581 7.320441 39.872001 15.006904 104.926319 15.006904 46.789818 0 115.321346-1.598296 176.117608-9.199354 96.581017-12.078727 119.701409-32.600363 124.898922-43.776236 5.844152-12.578958-6.002762-26.609803-9.894796-31.221681-15.690145-18.59392-34.04005-25.889959-57.733877-22.973984-22.132133 2.720764-45.764956 13.835633-68.604732 24.57228-32.283144 15.189915-62.784981 29.537979-88.382123 19.789592-13.567217-5.160911-23.803634-16.214777-31.319286-33.783835-11.883516-27.793274-1.610497-52.109338 28.915741-68.458323C528.188352 2.688688 593.413481-4.741559 661.578986 3.030309c33.088393 3.770027 63.700037 10.980661 88.516331 20.741249 28.415511 11.261278 48.461319 25.523937 59.588389 42.385353 25.096912 34.04005 33.259203 82.977198 24.255061 145.640171z" fill="#261D50" p-id="1684"></path><path d="M75.150667 128.893089c0-17.26404 7.540054-32.502758 19.069748-41.726513h51.291889c11.529694 9.223756 19.069749 24.40147 19.069749 41.726513a56.587008 56.587008 0 0 1-4.880294 23.181396H263.041983v27.817676H119.890761c-24.706488 0-44.740095-22.827575-44.740094-50.999072z" fill="#FDD838" p-id="1685"></path><path d="M263.041983 189.652749H119.890761C89.840351 189.652749 65.390079 162.396307 65.390079 128.893089c0-19.521176 8.540514-37.956486 22.729969-49.351972a9.760588 9.760588 0 0 1 6.100367-2.135129h51.291889a9.760588 9.760588 0 0 1 6.100368 2.135129c14.226057 11.395486 22.729969 29.842997 22.729969 49.351972a67.006436 67.006436 0 0 1-1.342081 13.420809h90.004821a9.760588 9.760588 0 0 1 9.760588 9.760587v27.817676a9.760588 9.760588 0 0 1-9.723986 9.760588z m-165.112544-92.725585c-8.162292 7.820671-12.95718 19.521176-12.957181 31.965925 0 22.74217 15.690145 41.238484 34.979507 41.238484H253.281395v-8.2965h-93.579636a9.760588 9.760588 0 0 1-8.906536-13.750228 46.570205 46.570205 0 0 0 4.062844-19.191756c0-12.44475-4.794889-24.145254-12.95718-31.965925z" fill="#261D50" p-id="1686"></path><path d="M561.093734 676.462068v39.359571a16.178174 16.178174 0 0 1-1.220073 6.429787 10.870855 10.870855 0 0 1-3.123388 4.416666 17.373846 17.373846 0 0 1-5.258517 2.562155 19.130752 19.130752 0 0 1-5.758747 1.110266h-16.226977a30.343228 30.343228 0 0 1-7.954879-0.963858 15.287521 15.287521 0 0 1-5.356123-2.379143 11.261278 11.261278 0 0 1-3.001381-3.66022 16.458791 16.458791 0 0 1-1.220073-7.320441v-39.554783z m-11.224676 13.420809h-26.780613v19.887197a5.209714 5.209714 0 0 0 1.31768 3.794429 7.320441 7.320441 0 0 0 2.305938 1.756906 18.301102 18.301102 0 0 0 4.990101 0.390423h7.320441q3.66022 0 5.465929-0.183011a7.161831 7.161831 0 0 0 3.660221-1.488489 4.9779 4.9779 0 0 0 1.756905-4.270258zM560.971727 760.488529v16.873616l-49.217764 22.620163V784.755791l9.760587-4.355663v-22.986184l-9.760587-4.611878v-14.640882z m-30.20902 0.756446v15.482732l17.081029-7.540054zM560.898522 857.032944l-11.46869-4.075046v-13.799031h-34.918503L510.7169 825.823464h38.712932v-17.300642h11.46869v48.510122z" fill="#FDD838" p-id="1687"></path><path d="M581.481162 542.253985H211.798897a20.741249 20.741249 0 0 1-20.741249-20.741249V350.861058l6.307779-2.440147c66.628213-25.182317 133.683452-37.980888 199.274602-37.980888s132.646389 12.798571 199.274602 38.041892l6.30778 2.440147v170.590674a20.741249 20.741249 0 0 1-20.741249 20.741249zM210.578823 364.379472v157.133264a1.220073 1.220073 0 0 0 1.220074 1.220074h369.682265a1.220073 1.220073 0 0 0 1.220074-1.220074V364.379472c-62.333554-22.839776-124.85012-34.418273-186.061207-34.418273s-123.727652 11.578497-186.061206 34.418273zM823.873161 585.615397a108.708547 108.708547 0 0 1-108.58654-108.58654v-162.269773a108.58654 108.58654 0 1 1 217.17308 0v21.302483a9.760588 9.760588 0 0 1-19.521176 0v-21.302483a89.065364 89.065364 0 1 0-178.130728 0v162.269773a89.065364 89.065364 0 1 0 178.130728 0v-33.796036a9.760588 9.760588 0 0 1 19.521176 0v33.796036a108.708547 108.708547 0 0 1-108.58654 108.58654z m98.825952-164.636716a9.760588 9.760588 0 0 1-9.760588-9.760588v-45.142719a9.760588 9.760588 0 1 1 19.521176 0v45.142719a9.760588 9.760588 0 0 1-9.760588 9.748387z" fill="#261D50" p-id="1688"></path></svg>