<?xml version="1.0" standalone="no"?><!DOCTYPE svg PUBLIC "-//W3C//DTD SVG 1.1//EN" "http://www.w3.org/Graphics/SVG/1.1/DTD/svg11.dtd"><svg t="1531984613147" class="icon" style="" viewBox="0 0 1504 1024" version="1.1" xmlns="http://www.w3.org/2000/svg" p-id="2447" xmlns:xlink="http://www.w3.org/1999/xlink" width="293.75" height="200"><defs><style type="text/css"></style></defs><path d="M39.434198 967.488833h49.447271a28.255583 28.255583 0 1 1 0 56.511167h-49.447271a28.255583 28.255583 0 0 1 0-56.511167z m1303.288782 0h116.554281a28.255583 28.255583 0 0 1 0 56.511167h-116.554281a28.255583 28.255583 0 0 1 0-56.511167z m-1130.223334 0h1020.732949a28.255583 28.255583 0 0 1 0 56.511167h-1020.732949a28.255583 28.255583 0 0 1 0-56.511167z" fill="#261D50" p-id="2448"></path><path d="M12.361818 14.127792l1476.354229 0 0 575.70751-1476.354229 0 0-575.70751Z" fill="#FF6660" p-id="2449"></path><path d="M1419.843063 603.963094H84.76675a84.855049 84.855049 0 0 1-84.76675-84.76675V84.76675A84.855049 84.855049 0 0 1 84.76675 0h123.176684a14.127792 14.127792 0 0 1 0 28.255583H84.76675a56.511167 56.511167 0 0 0-56.511167 56.511167v434.429594a56.511167 56.511167 0 0 0 56.511167 56.511167h1335.076313a56.511167 56.511167 0 0 0 56.511167-56.511167V84.76675a56.511167 56.511167 0 0 0-56.511167-56.511167H443.5067a14.127792 14.127792 0 0 1 0-28.255583H1419.843063a84.855049 84.855049 0 0 1 84.76675 84.76675v434.429594a84.855049 84.855049 0 0 1-84.76675 84.76675zM380.867604 28.255583h-109.8789a14.127792 14.127792 0 0 1 0-28.255583h109.8789a14.127792 14.127792 0 0 1 0 28.255583z" fill="#261D50" p-id="2450"></path><path d="M634.867638 226.044667h229.576615a76.819867 76.819867 0 0 1 0 153.639734h-229.576615a76.819867 76.819867 0 0 1 0-153.639734z" fill="#FDD838" p-id="2451"></path><path d="M259.598172 301.981547m-79.468828 0a79.468828 79.468828 0 1 0 158.937656 0 79.468828 79.468828 0 1 0-158.937656 0Z" fill="#72C69C" p-id="2452"></path><path d="M1241.479693 301.981547m-79.468828 0a79.468828 79.468828 0 1 0 158.937656 0 79.468828 79.468828 0 1 0-158.937656 0Z" fill="#72C69C" p-id="2453"></path><path d="M259.598172 475.046995a173.065448 173.065448 0 1 1 173.065448-173.065448 173.259705 173.259705 0 0 1-173.065448 173.065448z m0-317.875313a144.809865 144.809865 0 1 0 144.809865 144.809865 144.968802 144.968802 0 0 0-144.809865-144.809865z" fill="#261D50" p-id="2454"></path><path d="M259.598172 395.578167a93.59662 93.59662 0 1 1 93.59662-93.59662 93.702578 93.702578 0 0 1-93.59662 93.59662z m0-158.937657a65.341036 65.341036 0 1 0 65.341036 65.341037 65.341036 65.341036 0 0 0-65.341036-65.341037zM879.455031 436.195568H621.622833a134.214021 134.214021 0 0 1 0-268.428042h257.832198a134.214021 134.214021 0 0 1 0 268.428042zM621.622833 196.023109a105.958438 105.958438 0 0 0 0 211.916875h257.832198a105.958438 105.958438 0 0 0 0-211.916875z" fill="#261D50" p-id="2455"></path><path d="M864.444253 393.812193h-229.576615a90.947659 90.947659 0 0 1 0-181.895318h229.576615a90.947659 90.947659 0 0 1 0 181.895318z m-229.576615-153.639735a62.692076 62.692076 0 0 0 0 125.384151h229.576615a62.692076 62.692076 0 0 0 0-125.384151zM1241.479693 475.046995a173.065448 173.065448 0 1 1 173.065448-173.065448 173.259705 173.259705 0 0 1-173.065448 173.065448z m0-317.875313a144.809865 144.809865 0 1 0 144.809865 144.809865 144.968802 144.968802 0 0 0-144.809865-144.809865z" fill="#261D50" p-id="2456"></path><path d="M1241.479693 395.578167a93.59662 93.59662 0 1 1 93.59662-93.59662 93.702578 93.702578 0 0 1-93.59662 93.59662z m0-158.937657a65.341036 65.341036 0 1 0 65.341036 65.341037 65.341036 65.341036 0 0 0-65.341036-65.341037z" fill="#261D50" p-id="2457"></path></svg>