<?xml version="1.0" standalone="no"?><!DOCTYPE svg PUBLIC "-//W3C//DTD SVG 1.1//EN" "http://www.w3.org/Graphics/SVG/1.1/DTD/svg11.dtd"><svg t="1531990968565" class="icon" style="" viewBox="0 0 1024 1024" version="1.1" xmlns="http://www.w3.org/2000/svg" p-id="4616" xmlns:xlink="http://www.w3.org/1999/xlink" width="200" height="200"><defs><style type="text/css"></style></defs><path d="M512.45 958.2c3.07-107.93 82-194.91 178.28-194.94-98.21-0.06-178.3-90.47-178.39-201.36-0.08 110.86-80.18 201.3-178.34 201.36-0.08-2.17-0.11-4.34-0.11-6.52 0-111 80.13-201.49 178.39-201.52q0.09 2.69 0.09 5.48 0-2.79 0.1-5.48c98.26 0.06 178.39 90.57 178.39 201.52q0 3.26-0.09 6.52c0.06 2.14 0.09 4.31 0.09 6.48 0 85.91-48.05 159.57-115.38 188.46h384.85l-224-438.09L512.34 82l-224 438.09L64.33 958.2h384.88c-67.31-28.89-115.36-102.55-115.36-188.46 0-2.17 0-4.34 0.11-6.48 96.31 0 175.2 87 178.26 194.94h0.22z" fill="#BA893C" p-id="4617"></path></svg>