<?xml version="1.0" standalone="no"?><!DOCTYPE svg PUBLIC "-//W3C//DTD SVG 1.1//EN" "http://www.w3.org/Graphics/SVG/1.1/DTD/svg11.dtd"><svg t="1531990937596" class="icon" style="" viewBox="0 0 1024 1024" version="1.1" xmlns="http://www.w3.org/2000/svg" p-id="3007" xmlns:xlink="http://www.w3.org/1999/xlink" width="200" height="200"><defs><style type="text/css"></style></defs><path d="M944.67 636.08l4.07-14.98 3.53-14.97 3.02-15.26 2.43-14.98 1.11-7.63 0.79-7.9 0.84-7.63 0.8-7.6 0.26-7.9 0.58-7.9v-7.9l0.27-7.89-0.27-11.46-0.26-11.15-0.85-11.17-0.79-11.17-1.11-11.17-1.37-10.88-1.64-10.91-2.17-10.62-2.16-10.61-2.49-10.62-2.42-10.35-3.02-10.35-3.27-10.09-3.54-10.09-3.8-10.06-3.81-9.8-4.38-9.8-4.33-9.82-4.91-9.54-4.91-9.53-5.18-9.24-5.44-9.27-5.97-9.27-6.02-8.98-6.23-8.98-6.55-8.72-6.82-8.71-6.81-8.45-7.34-8.72-7.61-8.16-7.66-8.45-8.18-8.16-8.14-7.9-8.45-7.92-8.45-7.34-8.45-7.34-8.71-7.08-8.72-6.82-8.98-6.55-8.98-6.25-8.98-6-9.3-5.73-9.24-5.44-9.5-5.44-9.56-4.88-9.51-4.65-9.83-4.62-9.82-4.1-10.04-4.09-10.08-3.81-10.09-3.27-10.09-3.25-10.35-3.01-10.36-2.72-10.61-2.45-10.62-2.17-10.61-1.93-10.89-1.61-10.88-1.37-10.93-1.35-11.14-0.82-11.15-0.55-11.2-0.56h-22.87l-11.46 0.56-11.41 0.55-11.2 0.82-10.88 1.35-10.88 1.37-10.88 1.61-10.93 1.93-10.62 2.17-10.62 2.45-10.35 2.72-10.35 3.01-10.04 3.25-10.08 3.27-10.09 3.81-9.83 4.09-9.77 4.1-9.82 4.62-9.51 4.65-9.56 4.88-9.24 5.44-9.3 5.44-9.24 5.73-8.98 6-8.98 6.25-8.72 6.55-8.71 6.82-8.72 7.08-8.71 7.34-8.19 7.34-8.45 7.92-8.13 7.9-8.19 8.16-7.61 8.45-7.65 8.16-7.35 8.72-7.07 8.45-6.55 8.71-6.55 8.72-6.24 8.98-6.28 8.98-5.71 9.27-5.44 9.27-5.17 9.24-5.18 9.53-4.65 9.54-4.33 9.82-4.38 9.8-4.07 9.8-3.54 10.06-3.54 10.09-3.27 10.09-3.01 10.35-2.7 10.35-2.48 10.62-2.17 10.61-1.9 10.62-1.63 10.91-1.38 10.88-1.05 11.17-1.11 11.17-0.53 11.17-0.32 11.15-0.26 11.46 0.26 11.43 0.32 11.44 0.53 11.17 1.11 11.15 1.05 11.17 1.38 10.9 1.63 10.88 1.9 10.65 2.17 10.61 2.48 10.62 2.7 10.61 3.01 10.36 3.27 10.06 3.54 10.35 3.54 9.83 4.07 10.06 4.38 9.82 4.33 9.8 4.65 9.54 5.18 9.53 5.17 9.51 5.44 9.27 5.71 9.26 6.28 9.25 6.24 9 6.55 8.72 6.55 8.98 7.07 8.45 7.35 8.71 7.65 8.43 7.61 8.45 8.19 8.19 8.13 7.89 8.45 7.9 8.19 7.61 8.71 7.1 8.72 7.08 8.71 6.81 8.72 6.52 8.98 6.26 8.98 6 9.24 5.73 9.3 5.44 9.24 5.44 9.56 4.91 9.51 4.91 9.82 4.33 9.77 4.39 9.83 3.8 10.09 3.81 10.08 3.53 10.04 3.01 10.35 2.99 10.35 2.72 10.62 2.46 10.62 2.19 10.93 1.9 10.88 1.64 10.88 1.64 10.88 1.08 11.2 0.82 11.41 0.52 11.46 0.56h11.46l16.06-0.26 15.79-0.56 15.53-1.35 15.53-1.64 15.21-2.19 14.74-2.72 14.94-3.27 14.48-3.54 14.15-4.36 14.16-4.62 13.89-5.18 13.63-5.44 13.31-6.26 13.36-6.54 13.1-7.08 12.78-7.37 8.72-5.44 8.45-5.44 8.18-5.44 7.61-5.73 7.61-5.44 7.07-5.73 6.82-5.71 6.55-5.73 5.97-5.99 6.02-5.74 5.44-5.96 5.17-6 4.91-6.26 4.6-5.99 4.12-6.29 4.07-6.26 3.54-6.26 3.27-6.26 3.01-6.25 2.7-6.55 2.48-6.53 1.9-6.55 1.9-6.52 1.38-6.81 1.05-6.55 0.85-6.79 0.26-6.81 0.26-6.82-0.26-7.07-0.26-6.82-0.85-7.08-1.05-7.07-1.38-5.73-1.37-5.97-1.64-5.47-1.64-5.7-2.16-5.47-2.17-5.18-2.48-5.17-2.69-5.18-3.01-4.89-3.01-4.91-3.54-4.88-3.54-4.65-3.8-4.36-3.81-4.36-4.38-4.35-4.33-4.36-4.65-4.07-4.91-3.83-5.18-3.8-5.12-3.8-5.5-3.57-5.7-3.54-5.97-3.25-6.28-3.54-6.29-3.01-6.5-2.98-6.81-3.01-7.08-2.72-7.34-2.72-7.39-2.72-7.61-2.46-7.92-2.45-20.39-7.08 6.5-3.8 6.28-4.1 5.97-4.09 5.49-4.36 5.18-4.62 4.86-4.62 4.38-4.91 4.07-5.18 3.8-5.18 3.28-5.44 3.27-5.73 2.48-5.7 2.43-6 1.91-5.99 1.37-6.26 1.37-6.55 0.53-7.61 0.27-7.07-0.27-7.37-0.53-7.37-1.37-7.05-1.9-7.11-2.17-6.78-2.75-7.11-3.27-6.78-3.8-6.82-4.39-6.81-4.86-6.53-5.49-6.54-5.97-6.55-6.55-6.26-6.81-6.26-7.61-6.55-7.6-6.26-7.92-5.71-8.19-5.46-8.4-5.18-8.72-4.88-9.03-4.36-9.24-4.36-9.51-3.83-9.82-3.8-10.09-3.28-10.35-2.98-10.62-2.72-10.88-2.72-11.2-2.19-11.41-1.9-13.1-1.91-13.04-1.63-13.63-1.38-13.63-1.08-13.89-1.08-14.15-0.82-14.16-0.55-14.68-0.27-14.74-0.26-15 0.26h-15.21l-15.53 0.53-15.79 0.82-16.06 0.84-16.11 0.79-16.32 1.38V437l13.05-1.63 13.1-1.64 13.04-1.08 13.36-1.11 13.1-0.82 13.31-0.53 13.37-0.29h26.93l13.37 0.55 13.63 0.56 13.62 1.08 13.58 1.08 13.62 1.38 13.89 1.63 13.9 1.64 11.19 1.9 10.62 2.17 9.77 2.46 9.3 2.45 8.45 2.99 7.87 3.01 7.34 3.27 6.55 3.54 3.01 1.61 2.69 1.93 2.75 2.16 2.43 1.91 2.48 2.19 1.9 2.16 2.17 2.2 1.64 2.16 1.63 2.46 1.64 2.45 1.37 2.46 1.06 2.72 0.85 2.46 0.79 2.71 0.58 2.73 0.53 3.01V501.81l-0.53 2.46-0.58 2.72-2.17 5.99-3.01 6.82-1.9 2.72-2.16 2.72-2.43 2.45-3.01 1.9-3.01 1.91-3.28 1.63-3.54 1.38-3.8 1.08-4.07 0.82-4.65 0.82-4.65 0.26H590.57l-5.44-0.26-5.7-0.82-6.29-0.82-16.32-1.9-16.06-1.64-16.05-1.37-15.85-1.09-15.47-0.81-15.53-0.56-15.53-0.26-15.27-0.27-15 0.27-14.94 0.26-15 0.56-14.69 0.81-14.42 1.09-14.47 1.37-14.16 1.64-14.15 1.9v143.53l19.86-2.19 19.33-2.16 19.07-1.64 19.07-1.37 18.27-0.82 18.23-0.82 17.69-0.26h17.43l17.16 0.55 16.91 0.53 16.32 1.11 16.11 1.61 15.79 1.63 15.53 2.2 14.95 2.43 14.73 2.74 11.68 2.17 10.93 2.72 10.35 2.72 9.51 3.01 8.98 3.54 8.19 3.54 3.8 1.9 3.54 1.9 3.53 1.93 3.28 2.16 3.01 2.2 2.96 2.16 2.75 2.46 2.43 2.19 2.48 2.43 2.16 2.46 1.9 2.45 1.91 2.72 1.63 2.72 1.38 2.72 1.37 2.72 0.79 3.01 1.11 2.72 0.53 2.99 0.53 3.01 0.58 3.27v2.43l0.26 2.72-0.26 2.75v2.43l-0.58 2.72-0.53 2.45-0.79 2.75-0.85 2.43-1.05 2.75-1.38 2.43-1.37 2.72-1.64 2.74-3.54 5.45-4.33 5.43-2.74 3.28-3.28 2.98-3.28 3.01-3.53 2.72-3.54 2.72-3.8 2.73-3.81 2.45-4.12 2.46-4.07 2.43-4.32 2.19-4.65 2.19-4.65 2.17-4.91 1.9-5.13 1.9-5.17 1.64-5.5 1.64-5.44 1.63-5.7 1.38-5.71 1.34-6.28 1.08-12.52 2.2-13.1 1.9-13.89 1.34-14.68 1.11-15.27 0.56H508.33l-8.45-0.29-8.45-0.53-8.39-0.55-8.19-0.82-8.19-1.09-7.87-1.11-8.19-1.34-7.87-1.64-7.92-1.9-7.61-1.9-7.65-2.19-7.61-2.17-7.61-2.74-7.39-2.73-7.34-2.72-7.34-3.25-7.35-3.27-7.07-3.27-7.14-3.81-6.76-3.83-6.81-4.06-6.81-4.1-6.82-4.35-6.55-4.63-6.55-4.91-6.49-4.91-6.55-5.18-6.29-5.44-6.23-5.44-6.02-5.73-6.23-5.99-5.76-5.97-5.7-6.29-5.71-6.26-5.44-6.26-5.18-6.25-4.91-6.55-4.91-6.53-4.65-6.55-4.33-6.81-4.38-6.52-4.07-7.08-3.8-6.81-3.54-7.08-3.54-7.08-3.27-7.08-3.28-7.37-3.01-7.08-2.7-7.63-2.48-7.34-2.43-7.63-2.16-7.63-1.96-7.61-1.9-7.9-1.58-7.92-1.37-7.89-1.38-8.16-0.84-8.17-1.06-8.18-0.58-8.16-0.53-8.45-0.26-8.46V506.17l0.26-8.45 0.53-8.43 0.58-8.18 1.06-8.16 0.84-8.16 1.38-7.9 1.37-8.19 1.58-7.63 1.9-7.9 1.96-7.6 2.16-7.92 2.43-7.35 2.48-7.63 2.7-7.34 3.01-7.37 3.28-7.34 3.27-7.08 3.54-7.08 3.54-7.07 3.8-7.11 4.07-6.79 4.38-6.81 4.33-6.55 4.65-6.81 4.91-6.52 4.91-6.55 5.18-6.26 5.44-6.26 5.71-6.26 5.7-6.26 5.76-6 6.23-5.99 6.28-5.73 6.24-5.44 6.28-5.44 6.55-5.18 6.5-4.91 6.55-4.89 6.55-4.64 6.81-4.36 6.81-4.36 6.82-4.07 7.08-3.82 7.07-3.81 7.08-3.54 7.08-3.27 7.34-3.01 7.34-2.99 7.4-2.72 7.6-2.72 7.35-2.19 7.92-2.17 7.6-2.16 7.93-1.67 7.87-1.61 7.92-1.37 7.87-1.34 8.19-1.12 8.45-0.81 8.13-0.53 8.45-0.56 8.45-0.26 8.45-0.26 8.46 0.26 8.45 0.26 8.45 0.56 8.13 0.53 8.19 0.81 8.19 1.12 7.87 1.34 7.92 1.37 7.87 1.61 7.92 1.67 7.61 2.16 7.66 2.17 7.6 2.19 7.34 2.72 7.66 2.72 7.08 2.99 7.34 3.01 7.08 3.27 7.08 3.54 7.08 3.81 6.81 3.82 7.07 4.07 6.56 4.36 6.81 4.36 6.5 4.64 6.55 4.89 6.28 4.91 6.5 5.18 6.28 5.44 6.02 5.44 6.24 5.73 6.02 5.99 5.7 6 5.71 5.97 5.7 6.28 5.49 6.26 5.18 6.26 4.86 6.55 4.91 6.53 4.65 6.54 4.33 6.82 4.12 6.78 4.07 6.82 4.07 7.07 3.54 6.82 3.53 7.37 3.28 7.08 3.27 7.34 3.01 7.36 2.7 7.35 2.48 7.63 2.43 7.61 2.17 7.63 1.95 7.63 1.9 7.9 1.64 7.89 1.32 7.9 1.11 8.19 1.11 8.16 0.79 8.16 0.84 8.18 0.53 8.43 0.27 8.45v8.45l-1.64 35.94 7.08 4.36 7.08 4.09 7.07 4.63 6.82 4.62 6.54 4.91 6.56 4.91 6.55 4.89 6.23 5.46 6.28 5.45 6.24 5.44 5.75 5.73 5.97 5.7 5.71 6.26 5.44 5.99 5.49 6.55 5.44 6.53z" fill="#E8252A" p-id="3008"></path></svg>