<?xml version="1.0" standalone="no"?><!DOCTYPE svg PUBLIC "-//W3C//DTD SVG 1.1//EN" "http://www.w3.org/Graphics/SVG/1.1/DTD/svg11.dtd"><svg t="1531990962227" class="icon" style="" viewBox="0 0 1024 1024" version="1.1" xmlns="http://www.w3.org/2000/svg" p-id="4273" xmlns:xlink="http://www.w3.org/1999/xlink" width="200" height="200"><defs><style type="text/css"></style></defs><path d="M63.3 512.3C63.3 265.9 263 66.2 509.4 66.2s446.1 199.7 446.1 446.1-199.7 446.1-446.1 446.1S63.3 758.7 63.3 512.3z" fill="#C52A27" p-id="4274"></path><path d="M573.3 277.6c2.2 11.6 15 17.4 23.5 23.5 40.3 8.9 83.4 15.2 126.6 12.5 6.9 2.5 15.4 4.3 18.6 12.5-1.6 26.9-5.4 54.6-31.3 70.3-16.6 8-53.3-12.1-53 17.2 13 32.7 53 13.9 76.5 28 10.7 7.1-1.1 21.2 4.7 31.3 0 7.4-3.5 14.4-9.4 18.8-6.1 2.5-13.7 2.5-20.3 4.5-8.5 11.4-31.8 11.4-25.1 29.8 1.3 8.9 11 16.8 18.8 20.3 10.8 4 25.3-1.4 34.4 3.1 3.9 21.5 1.7 43.7-6.3 64-13 8.9-21.5 25.5-40.7 23.5-7.2 4.5-17.4 9.4-20.1 18.8 0 16.8 19.7 12.1 28.2 21.9 12.3 1.8 22.4-6.9 34.4-1.4 17.9 17 5.4 44.7 4.7 65.6l-14.1 17c-12.7 5.1-26 8.5-39.2 12.5v3.1h-18.6c0.7-9-9.4-5.2-14.1-8-11.4 5.6-20.8-2.9-31.3-4.5-54.2 7.8-91-26.6-145.2-18.8-19.7-14.6-48.8-10.8-73.4-9.2-24.2 17.2-53.9 21-82.8 26.6-16.3 2.7-20.3-17.4-31.3-23.5-0.7-16.5-21.2-26.8-12.5-45.4 13.2-15.6 11.9-37.3 25-53-0.7-17.2 3.3-36.3-9.2-48.5 3.6-23 5.1-46.8 11-68.9 7.2-8 15.9-24.1 29.7-15.6 15.4 24.6 62.9-4.9 63.8 31.3 0.5 28.2-2.9 58.9-29.7 71.8-13.9 23.1-50.3-8.1-54.6 25-4.5 14.6 12.7 21.7 20.3 29.7 15.7-5.6 32.9-8 45.4-21.9 18.1-0.9 24.4-20.3 42.1-21.9 13.7 5.8 30.6 7.4 39.1 21.9 8.1 2 9.9 9 17.2 12.5 19.7 15.7 44.7-9.9 60.9 14.1 10.3 2.3 21 2.3 31.3 0 8.1-4.9 15-13 12.5-23.5 1.4-6-1.8-10.1-6.3-13.7-6.3-4.3-12.5 1.1-18.8 1.4-24.4 2-42.1-12.7-65.5-14.1-16.5-10.5-36.2-20.6-39.1-42.1-7.8-6.5-4-17.7-9.4-25-1.4-9.4 7.6-15.6 14.1-20.4 19.3-5.6 33.6 10.7 49.9 3.3 10.5-7.6 27.1-2.9 32.9-18.8 6-9 2.7-21.9-3.1-29.7-4.8-3.1-10.9-3.1-15.7 0-11.2 11.9-30.2 9.8-45.2 7.8-8.1-3.6-17.7-6.3-21.9-15.6 2.4-14.6 0-30.9 14.1-40.7 1.4-10.7-8.1-18.1-15.6-23.5-20.3 7.6-32.9-34.5-48.6-6.1-1.3 20.3 9 37.4 3.1 57.9-18.3 11.2-38.5-1.1-57.7-1.6-19.9-9.2-43.9-22.8-53.2-45.2 4.2-16.6-8.1-32.4-1.6-49.9-9.4-21.7 9.9-35.6 10.8-54.6 10.7-9.6 22.2-21.3 37.6-14.3 9.2 8.7 22.2 7.8 29.7 20.3 15.7 3.3 30.4 13.4 47 9.4 13-5.2 17.5-21.5 32.7-21.9 23 0 53.5 9.4 68.7-14.1 8-3.6 18.6-7.4 21.9-15.7h32.7v-0.1z" fill="#FFFFFF" p-id="4275"></path></svg>