<?xml version="1.0" standalone="no"?><!DOCTYPE svg PUBLIC "-//W3C//DTD SVG 1.1//EN" "http://www.w3.org/Graphics/SVG/1.1/DTD/svg11.dtd"><svg t="1531990956078" class="icon" style="" viewBox="0 0 1024 1024" version="1.1" xmlns="http://www.w3.org/2000/svg" p-id="3929" xmlns:xlink="http://www.w3.org/1999/xlink" width="200" height="200"><defs><style type="text/css"></style></defs><path d="M490.1 63.9C715.8 60.4 856.2 182.5 922 339.6c22.8 54.6 53.1 158.6 23 228.5-47 108.8-218 182.5-355.9 202.8 81.7-119.6 114.3-285.7 44.5-444.1-10.3-23.3-24.7-65-45.9-77.1-24.5-10.8-56.8-8-86.1-12.9-74.3-12.3-177.5-15.6-255.4-2.9-33 4.8-66 9.5-99 14.3 0.5-1.4 1-2.9 1.4-4.3 21.5-23.3 43.1-46.7 64.6-70 36.3-28.9 76.2-56.5 122-75.7 30.1-12.6 64.5-21.5 99-28.6 18.6-1.9 37.2-3.8 55.9-5.7z" fill="#E46214" p-id="3930"></path><path d="M426.9 248.2h4.3c-81.7 119.6-114.3 285.7-44.5 444.1 10.3 23.3 24.7 65 45.9 77.1l73.2 11.4c104.3 17.8 274.3 16.4 367.3-11.4-6.5 15.4-20.4 25-30.1 37.1-70.8 87.8-238 180-414.7 141.4-81.2-17.7-145.6-49.6-200.9-92.8-96.6-75.5-237.1-308.4-119-455.6 51.9-64.7 146.8-103.9 235.3-131.4 27.7-6.6 55.5-13.3 83.2-19.9z" fill="#E46214" p-id="3931"></path><path d="M412.6 402.4c41.5 0.9 86.9 12.7 133.4 5.7 21-1.4 42.1-2.9 63.1-4.3l8.6 8.6c-2.4 34.7-4.8 69.5-7.2 104.2 1.9 30.5 3.8 60.9 5.7 91.4-2.9 2.4-5.7 4.8-8.6 7.1-20.1-1.4-40.2-2.9-60.3-4.3-45.4 1.4-90.9 2.9-136.3 4.3-2.4-2.9-4.8-5.7-7.2-8.6l5.7-88.5c5.6-37.7-11.9-79.5-4.3-111.4 2.6-1.4 5-2.8 7.4-4.2z" fill="#E46214" p-id="3932"></path></svg>