<?xml version="1.0" standalone="no"?><!DOCTYPE svg PUBLIC "-//W3C//DTD SVG 1.1//EN" "http://www.w3.org/Graphics/SVG/1.1/DTD/svg11.dtd"><svg t="1531990935566" class="icon" style="" viewBox="0 0 1024 1024" version="1.1" xmlns="http://www.w3.org/2000/svg" p-id="2891" xmlns:xlink="http://www.w3.org/1999/xlink" width="200" height="200"><defs><style type="text/css"></style></defs><path d="M66.07 958.94V63.87h895.07v895.07H66.07z" fill="#0068B2" p-id="2892"></path><path d="M513.12 956.02L68.01 510.92 513.12 65.81l445.11 445.11-445.11 445.1z" fill="#FFFFFF" p-id="2893"></path><path d="M380 252.41l1-3.89 1-1.94 1-1.94 2.92-2.91 2.91-1.94 14.58-5.83 14.58-5.83 7.78-1.94 7.78-2.92 15.45-3.91 15.55-2.91 8.75-1 7.78-1 16.52-1.94h33l8.75 1 8.75 1 15.55 1.94 16.52 2.91 15.55 3.89 15.55 4.86 14.58 5.83 14.58 6.8 2.91 1.94 2.92 2.92 1.94 2.91v1.94l1 1.94v2.92l-1 2.92-1 1.94-1 1.94-1.94 1.94-1.94 1-5.78 2.95-7.78 3.89-8.76 4.81-9.72 6.8-4.86 3.89-5.83 4.86-5.83 6.8-5.76 5.84-4.86 5.83-3.89 5.83-6.8 11.66-5.83 11.66-2.92 10.69-2.91 9.72-1.94 7.78-1 5.83v432.47l-10.69 1.94-10.69 1h-44.73l-11.66-1.94-10.69-1V371l-1-6.8-1.94-8.75-2.92-8.75-3.86-9.7-4.86-10.69-2.91-5.83-3.9-5.88-3.89-4.86-3.89-5.83-5.83-5.83-4.86-5.83-5.83-4.86-4.86-3.89-5.84-3.88-4.86-2.92-8.75-4.86-6.8-3.89-5.81-2.95-1.94-1-1.94-1.94-1.9-1.88-1-1.94v-5.83z m269.2 524.8L633.63 785l-16.52 6.8-17.49 5.83-16.52 3.89V375.83l1-10.69 2.92-9.72 2.92-8.75 2.91-7.78 4.86-7.78 3.89-6.8 4.86-5.83 4.86-5.83 5.83-4.86 4.86-4.86 9.72-6.8 4.86-2.92 4.86-1.94 3.89-1.94 3.89-1.94V777.2z m24.3-519l13.58 9.79 13.61 9.72 12.63 10.69L725 299.05l11.66 11.66 9.72 12.63 5.83 6.8 4.86 6.8 8.75 13.61 8.75 13.61 7.78 14.58 6.8 15.55 5.85 15.56 5.83 15.55 3.89 16.52 3.89 16.52 1 8.75 1 8.75-1 2.92-1.94 2.91-2.92 3.89-3.89 2.92-1.94 1.94-2.92 1-2.92 1-3.89 1h-3.89l-4.86-1-3.89-1-3.89-1-3.89-1.94-3.89-1.94-4.88-3.91-2.91-2.91-1.94-1.94-3.93-4.88-1.94-4.86-2.92-5.83-1-1-1-1.94-1.94-1h-3.89l-1.94 1-2.92 1.94-1.94 3.89-3.89 5.83-5.83 9.72-1.94 6.8-2.92 6.8-1 4.86v3.89l-1 9.72v5.83l1 5.83 1.94 6.8 2.92 6.8 2.92 6.8 1 3.89 1.94 2.92 4.86 5.83 3.89 4.86 1.94 1 1.94 1h2.91l1-1 1.94-1 1.94-2.92 2.92-6.8 3.89-4.86 3.9-5.8 2.92-1.94 2.91-2.91 2.92-1.94 3.89-1.94 3.89-1.94 3.89-1 4.86-1h4.86l3.89 1 3.89 1 3.89 2.92 3.89 1.94 2.92 2.92 1.94 2.92 1.94 1.94v1.94l-1.94 17.49-3.89 16.52-1.94 7.78-1.94 8.75L795 612l-5.83 15.55-6.8 15.55-7.78 14.58-8.75 13.61-8.75 13.61-9.72 13.61-5.83 5.83-4.86 6.8L725 722.78l-11.66 11.66-12.63 9.72-13.61 10.69-13.61 8.75V258.24zM354.71 763.6l-14.58-10.69-7.77-4.91-7.78-5.83-6.8-5.83-6.8-6.8-6.8-5.83-5.83-6.8-12.63-13.61-5.83-7.77-5.83-6.8-4.87-7.73-5.83-7.78-9.72-15.55-3.89-8.75-4.86-7.78-6.8-17.49-3.89-8.75-2.91-8.75-2.92-8.75-2.92-9.72-1.94-8.75-1.94-9.72-2.91-19.44-1.94-19.44-1-19.44v-9.69l1-9.72v-9.72l1.94-9.72 1-9.72 1.94-9.72 3.89-18.46 5.83-18.47 2.91-8.75 3.89-8.75 6.8-17.49 4.86-7.78 3.89-8.75 9.72-15.55L274 333.07l11.66-14.58 12.63-13.61L311 292.25l13.61-12.63 15.55-10.69 14.58-10.69V476.9l-1 2.92-1 2.91-2.92 2.92-2.92 2.92-3.9 1.94-1.94 1-2.92 1-2.91 1h-5.83l-3.89-1-3.89-1-4.86-1-2.92-1.94-3.84-1.95-5.83-3.89-1.94-2.91-1.94-1.94-3.89-4.88-1.94-4.86-2.92-5.83-1-1-1.94-1.94-1-1h-3.89l-1.94 1-2.92 1.94-2.85 3.93-3.89 5.83-4.86 9.72-2.91 6.8-1.94 6.8-1 4.86v3.89l-1 9.72v5.83l1 5.83 1.94 6.8 1.94 6.8 2.91 6.8 1.94 3.89 1.94 2.92 3.89 5.83 4.86 4.86 1.94 1 1.94 1h2.92l1-1 1-1 2.91-2.92 2.92-6.8 2.92-4.86 4.83-5.84 2.92-1.94 2.91-2.91 2.92-1.94 2.92-1.94 3.89-1.94 4.86-1 3.89-1h4.86l3.89 1 3.89 1 3.89 1.94 2.91 1.94 4.86 4.86 2.91 3.89V763.6z m90.38 37.9l-17.49-4.86-16.52-4.86-7.78-3.89-7.77-2.89-7.78-3.89-7.75-3.91V287.39l6.8 2.91 9.72 4.86 4.86 3.89 4.86 2.92 4.86 3.89 4.86 4.86 4.86 5.83 4.86 5.83 3.89 5.83 4.86 6.8 2.92 7.78 2.92 8.75 2.91 8.75 1.91 10.71v430.5z" fill="#E60012" p-id="2894"></path></svg>