<?xml version="1.0" standalone="no"?><!DOCTYPE svg PUBLIC "-//W3C//DTD SVG 1.1//EN" "http://www.w3.org/Graphics/SVG/1.1/DTD/svg11.dtd"><svg t="1531991527818" class="icon" style="" viewBox="0 0 1024 1024" version="1.1" xmlns="http://www.w3.org/2000/svg" p-id="5079" xmlns:xlink="http://www.w3.org/1999/xlink" width="200" height="200"><defs><style type="text/css"></style></defs><path d="M659.7 483.4l-81 84.5 198.2 189.9 81-84.4zM453.5 447.9l81-84.5L324.4 162l-80.9 84.4zM565.9 581.2L485 665.7l198.2 190 81-84.5zM472.2 679l-78.8 82.2 63.7 61.2-12.8 13.3-254.9-244.4 12.8-13.3 66 63.2L347 559 136.9 357.6l-78.3 81.7 81.3 78-86.5 90.1L424.3 963l86.4-90.2 81.4 77.9 78.3-81.7zM547.3 350l74.6-77.8-66-63.2 12.8-13.3L823.6 440l-12.8 13.4-63.7-61.1-74.6 77.8 198.2 190 76.9-80.3-81.3-77.9 77.9-81.3L573.3 65.1l-77.9 81.3-81.3-78-76.9 80.2zM359.8 545.6l80.9-84.4-210-201.4-81 84.5z" fill="#e70711" p-id="5080"></path></svg>