<?xml version="1.0" standalone="no"?><!DOCTYPE svg PUBLIC "-//W3C//DTD SVG 1.1//EN" "http://www.w3.org/Graphics/SVG/1.1/DTD/svg11.dtd"><svg t="1531990973307" class="icon" style="" viewBox="0 0 1024 1024" version="1.1" xmlns="http://www.w3.org/2000/svg" p-id="4846" xmlns:xlink="http://www.w3.org/1999/xlink" width="200" height="200"><defs><style type="text/css"></style></defs><path d="M512.53 149c199.7 0 362.56 162.84 362.56 362.54S712.22 874.07 512.53 874.07 150 711.18 150 511.53 312.88 149 512.53 149z m0-85.66C265.7 63.33 64.35 264.7 64.35 511.53s201.34 448.2 448.17 448.2 448.2-201.36 448.2-448.2-201.31-448.2-448.19-448.2zM313.64 297.13v90.35h40.8v-90.35z m182.58 436.34l41.34-0.14 0.09-157.92h23.79v61.53h32.75V575.5h24.2l-0.23 88.32-56.57 0.14v69.51h89.34l-0.38-266.37 72.38 0.22v-36.71H650.6l0.22-133.52h-39.66v67.48h-81.94v49l89.36-0.23 0.25 134.24-80.36 0.27-120.82-0.27 0.22-134.24 89.36 0.23v-49h-88.71v-67.44h-32.77l0.25 133.52h-72.36v36.72l72.4-0.22-0.41 266.37H475V664l-56.57-0.14-0.23-88.32h24.2v61.44h32.75v-61.53h23.8l0.05 157.88-2.73 0.14z m-182.58-241.7v241.7h40.8v-241.7z m363.62-194.64v90.35h48.29v-90.35z m0 194.64v241.7h48.29v-241.7zM448.09 297.13v42h57.24v-42z m81.94 0v42h49.57v-42z m-91.91 136.68v90.35h37.67v-90.35z m60.47 0v90.35h37.66v-90.35z m57.29 0v90.35h37.67v-90.35z" fill="#E50012" p-id="4847"></path></svg>