<?xml version="1.0" standalone="no"?><!DOCTYPE svg PUBLIC "-//W3C//DTD SVG 1.1//EN" "http://www.w3.org/Graphics/SVG/1.1/DTD/svg11.dtd"><svg t="1531990903968" class="icon" style="" viewBox="0 0 1024 1024" version="1.1" xmlns="http://www.w3.org/2000/svg" p-id="1393" xmlns:xlink="http://www.w3.org/1999/xlink" width="200" height="200"><defs><style type="text/css"></style></defs><path d="M70.65 491.3S100.53 55.5 553.79 68c0 0 371.08 22.47 403.45 425.89l-214.18-0.05s-127 5-231.61-196.73c0 0-117.05 179.52-244.07 194.46l-196.73-0.27z m-5 27.39l219.16 5s34.86 0 64.75 27.39l-278.93 0.16-5-32.53z m10 57.27H394.4s27.4 10 37.36 34.86l-348.66 2.5L75.63 576z m17.43 64.64l368.59 0.11s52.3 49.81 39.85 171.83c0 0 24.9 19.92 29.89-2.49 0 0-17.44-169.34 37.35-169.34l368.7-2.49-22.56 49.92-127-0.11s-44.83-10-42.34 64.75c0 0 1.91 230-226.68 206.58 0 0-239 12.57-236.54-194.13 0 0 10-89.65-52.3-69.72H110.55l-17.49-54.9z m498.09-29.78s10-39.84 64.75-29.88l291.38-2.49-5 29.89-351.15 2.49z m77.21-57.28s14.94-32.37 39.84-32.37l244.06 5-5 29.89-278.93-2.49z" fill="#004EA2" p-id="1394"></path></svg>