<?xml version="1.0" standalone="no"?><!DOCTYPE svg PUBLIC "-//W3C//DTD SVG 1.1//EN" "http://www.w3.org/Graphics/SVG/1.1/DTD/svg11.dtd"><svg t="1531990975400" class="icon" style="" viewBox="0 0 1024 1024" version="1.1" xmlns="http://www.w3.org/2000/svg" p-id="4960" xmlns:xlink="http://www.w3.org/1999/xlink" width="200" height="200"><defs><style type="text/css"></style></defs><path d="M140.61 498.18c-50.32 0.44-72.64 27.19-75.83 78.6-1.55 24.95-0.55 50.06-0.57 75.1v247.69c5.77 1.28 8.16 2.63 10.05 2.12q174.56-47.34 349.07-94.87V497.4q-141.33-0.2-282.72 0.78z" fill="#024770" p-id="4961"></path><path d="M954.67 466.68c7.6-63 7.56-62.85-45.64-80.71q-91.27-30.64-182.51-61.38v142.05c75.4 0.6 150.96 0.04 228.15 0.04z" fill="#E66711" p-id="4962"></path><path d="M937 297.34c-59.35-35.89-118-72.93-176.93-109.51-22.2-13.78-31.72-4.4-32.41 18.5-0.69 22.75-1.57 45.66 0.53 68.23 0.73 7.84 8.6 19 15.79 21.63 70.17 26.11 140.89 50.74 215 77.06-1.88-29.44 8.8-57.33-21.98-75.91z" fill="#BA2631" p-id="4963"></path><path d="M476.42 240.48c-32.77-11.06-47.48-9.26-53.1 12.78-1.78 7-2.67 15.93-2.9 27.2-1 47.81 1.87 95.79-1 143.45-0.71 11.87 0.53 20.11 3.87 25.77 5.56 9.43 17 11.71 35 11.7 80.74 0 161.46 4.11 242.21 5.08 8.67 0.1 17.36 0.12 26 0.19V324.59q-125.04-42.03-250.08-84.11z" fill="#DA251C" p-id="4964"></path><path d="M726.53 720.43V497.35l-33.34 0.68q-134.93-0.25-269.86-0.63v309.41q139.26-38 278.44-76.22l24.77-6.6v-3.57z" fill="#005E78" p-id="4965"></path><path d="M931 498.48c-59.06 0.8-118.15 0.95-177.2-0.06h-3.17l-26.56-1 2.41 206.48V724s92.77-27 155.73-45.46q26.83-7.51 53.24-15.41a13.35 13.35 0 0 0 2.75-1.21c14.43-4.69 16.81-25.18 16.81-25.18a24.74 24.74 0 0 0 0.58-3.72c2.55-36.17 0.34-72.65 1.37-109 0.61-19.35-6.96-25.8-25.96-25.54z" fill="#45916B" p-id="4966"></path></svg>