<?xml version="1.0" standalone="no"?><!DOCTYPE svg PUBLIC "-//W3C//DTD SVG 1.1//EN" "http://www.w3.org/Graphics/SVG/1.1/DTD/svg11.dtd"><svg t="1531990960259" class="icon" style="" viewBox="0 0 1024 1024" version="1.1" xmlns="http://www.w3.org/2000/svg" p-id="4159" xmlns:xlink="http://www.w3.org/1999/xlink" width="200" height="200"><defs><style type="text/css"></style></defs><path d="M493.9 506l14 11.9 14.8-4.3c41.4-11.7 82.6-24.7 133.2-40.1-32.3-29.3-56.3-51.8-81.3-73.1-1-0.8-2-1.7-3.2-2.5h-0.1c-2.2-1.6-4.7-3.2-7.3-4.5l-7.5-4.6-5.8 1.5c-0.2 0-0.4 0.1-0.6 0.1-1.3 0.3-2.5 0.7-3.8 1l-0.6 0.2c-42.7 11.5-85.1 25-137.5 40.8 33.4 28.8 59.4 52 85.7 73.6zM901.7 396.5C781.9 292.8 636.1 276.4 486.3 277.8l-31.5 2.1 41.1 37.2s26.7-5.4 46-2.6h0.1c39.6 6.3 80.2 7.5 119.1 16.4 50.7 11.6 99 31.1 132.6 74.6 28.7 37.1 28.3 76.5-0.4 113-6.3 8-12.7 16-21 26.3L889.8 635c6.1-1.8 12.1-6.6 19-13.2 71-67.8 70.8-157.9-7.1-225.3zM601.7 631.1l-28.2-26.6-44.9 2.7c-66.1 1.3-129.8-12.3-189.2-43.2-91.7-47.8-103.8-109.2-34.7-188.8-15.1-16.6-26-28.6-35.3-36.6h-0.1l-3.3-2.7-15.5-12.6c-2 0-6.9 1.2-7.2 1.3-9 2.7-18.1 6.7-18.1 6.7-10.1 4.3-22.4 11.7-39 21.9-29.1 17.8-57.3 38.9-80.8 63.5-48.4 50.9-53.7 118.7-11 174 22.9 29.6 52.8 56.9 85.2 75.3 163.9 93 339.1 93.9 526.1 58.9-36.4-32.6-67.9-58.6-96.9-87.3-2.3-2.3-4.6-4.5-7.1-6.5z" fill="#A72217" p-id="4160"></path></svg>