<?xml version="1.0" standalone="no"?><!DOCTYPE svg PUBLIC "-//W3C//DTD SVG 1.1//EN" "http://www.w3.org/Graphics/SVG/1.1/DTD/svg11.dtd"><svg t="1531990945569" class="icon" style="" viewBox="0 0 1024 1024" version="1.1" xmlns="http://www.w3.org/2000/svg" p-id="3470" xmlns:xlink="http://www.w3.org/1999/xlink" width="200" height="200"><defs><style type="text/css"></style></defs><path d="M167.27 630.2a380.13 380.13 0 0 1-98.4-47.8A445.49 445.49 0 0 0 151 777.87c0-1.44-0.08-2.88-0.08-4.33a633.22 633.22 0 0 1 16.35-143.34zM420.11 621.64a380.72 380.72 0 0 1-181.77 23.71 559.44 559.44 0 0 0-7.9 215.26A445.71 445.71 0 0 0 455.54 956a380.65 380.65 0 0 1-35.43-334.39zM258.63 420.74a164 164 0 0 1-140.84-123.33 445.34 445.34 0 0 0-54.16 196.86 314.66 314.66 0 0 0 121.78 73 629 629 0 0 1 73.22-146.53zM318.06 345.65a635.16 635.16 0 0 1 45.8-44.88 96.92 96.92 0 1 0-45.8 44.88zM865.64 785.2a96.93 96.93 0 1 0-52.49 57 450.43 450.43 0 0 0 52.49-57z" fill="#F2943A" p-id="3471"></path><path d="M764.55 142.46a445.47 445.47 0 0 0-156.36-68 378.68 378.68 0 0 1 36.63 82.79 632.6 632.6 0 0 1 119.73-14.79zM659.21 228.4a381.28 381.28 0 0 1-21.28 170.82A380.26 380.26 0 0 1 948.2 414 446.4 446.4 0 0 0 850 218.93a560.14 560.14 0 0 0-190.75 9.47zM958.64 497a313.75 313.75 0 0 0-394.04 24q-11.6 13-24.23 24.78a313.62 313.62 0 0 0-1 412.79A445.14 445.14 0 0 0 719.72 908C655.88 885.6 610 825 610 753.48a163.83 163.83 0 0 1 313.4-66.9 446.37 446.37 0 0 0 35.46-174.92q0.02-7.38-0.22-14.66zM517.73 475a313.17 313.17 0 0 0 77.93-207.18c0-7-0.25-14-0.71-20.86a558.67 558.67 0 0 0-195.24 119.37 164.86 164.86 0 0 1-16.89 16.55A559 559 0 0 0 257.5 581.31q11.79 0.89 23.81 0.91a313.21 313.21 0 0 0 212-82.29Q505 486.92 517.73 475zM440.09 242.89a628.76 628.76 0 0 1 141.49-68.1A314.26 314.26 0 0 0 520.32 64c-3.07-0.06-6.14-0.1-9.23-0.1a446.2 446.2 0 0 0-182.2 38.63c60.46 20.22 105.26 74.64 111.2 140.36z" fill="#F2943A" p-id="3472"></path><path d="M540.37 545.78Q553 534 564.6 521a313.75 313.75 0 0 1 394-24.08A448.4 448.4 0 0 0 948.2 414a380.26 380.26 0 0 0-310.27-14.81 381.28 381.28 0 0 0 21.28-170.79A560.14 560.14 0 0 1 850 218.93a450.27 450.27 0 0 0-85.41-76.47 632.6 632.6 0 0 0-119.73 14.76 378.68 378.68 0 0 0-36.63-82.79A448.78 448.78 0 0 0 520.32 64a314.26 314.26 0 0 1 61.27 110.82 628.76 628.76 0 0 0-141.49 68.1c-5.95-65.72-50.74-120.14-111.21-140.39a449.61 449.61 0 0 0-211.1 194.91 164 164 0 0 0 140.84 123.3 629 629 0 0 0-73.22 146.5 314.66 314.66 0 0 1-121.78-73q-0.33 8.65-0.33 17.39a451.06 451.06 0 0 0 5.56 70.74 380.13 380.13 0 0 0 98.4 47.8 633.22 633.22 0 0 0-16.35 143.35c0 1.45 0 2.9 0.08 4.33a450.42 450.42 0 0 0 79.44 82.74 559.44 559.44 0 0 1 7.9-215.26 380.72 380.72 0 0 0 181.77-23.71A380.65 380.65 0 0 0 455.54 956a452.22 452.22 0 0 0 55.55 3.42q14.22 0 28.23-0.88a313.62 313.62 0 0 1 1-412.79z m-360.5-288a97 97 0 1 1 184 42.94 635.16 635.16 0 0 0-45.8 44.88 97 97 0 0 1-138.19-87.82z m101.44 324.44q-12 0-23.81-0.91a559 559 0 0 1 125.32-198.43 164.86 164.86 0 0 0 16.89-16.55A558.67 558.67 0 0 1 595 247c0.45 6.9 0.71 13.85 0.71 20.86A313.17 313.17 0 0 1 517.73 475q-12.73 11.91-24.39 24.93a313.21 313.21 0 0 1-212.03 82.29z" fill="#FED966" p-id="3473"></path><path d="M773.95 589.59A163.89 163.89 0 0 0 610 753.48C610 825 655.88 885.6 719.72 908a448.93 448.93 0 0 0 93.44-65.76 96.88 96.88 0 1 1 52.49-57 447.42 447.42 0 0 0 57.79-98.62 163.7 163.7 0 0 0-149.49-97.03z" fill="#FED966" p-id="3474"></path></svg>