<?xml version="1.0" standalone="no"?><!DOCTYPE svg PUBLIC "-//W3C//DTD SVG 1.1//EN" "http://www.w3.org/Graphics/SVG/1.1/DTD/svg11.dtd"><svg t="1531990966442" class="icon" style="" viewBox="0 0 1024 1024" version="1.1" xmlns="http://www.w3.org/2000/svg" p-id="4502" xmlns:xlink="http://www.w3.org/1999/xlink" width="200" height="200"><defs><style type="text/css"></style></defs><path d="M588.38 121v91.88s74.94-24.21 72.52 60.4l2.42 224.88L557 558.53l2.42-147.44c0.77-47.53-95.94-47.59-95.15 0l2.42 147.44-106.41-65.21 2.42-220c-2.42-84.61 72.51-60.4 72.51-60.4V121zM62.54 764.76l79.58-45.93s-58.43-52.8 16.06-93L351.7 511.29l105.48 61.94-128.92 71.63c-41.54 23.09 6.78 106.87 47.58 82.4l126.49-75.81L499 776.17 307.27 884.09c-72.07 44.38-88.57-32.6-88.57-32.6l-79.58 45.93-76.58-132.66z m821.94 131.45l-79.58-45.92s-16.5 77-88.57 32.57l-196-110.33 0.9-122.28 126.49 75.81c40.75 24.44 89.16-59.31 47.58-82.4L566.42 572l109.66-59.51 189.36 112.14c74.48 40.2 16 93 16 93l79.58 46-76.54 132.58z" fill="#E50012" p-id="4503"></path></svg>