<?xml version="1.0" standalone="no"?><!DOCTYPE svg PUBLIC "-//W3C//DTD SVG 1.1//EN" "http://www.w3.org/Graphics/SVG/1.1/DTD/svg11.dtd"><svg t="1531990943625" class="icon" style="" viewBox="0 0 1024 1024" version="1.1" xmlns="http://www.w3.org/2000/svg" p-id="3356" xmlns:xlink="http://www.w3.org/1999/xlink" width="200" height="200"><defs><style type="text/css"></style></defs><path d="M70.6 352l244.1-241.2h340l252.8 238.3v319.6s-84.3 43.6-162.7 20.3c-78.5-23.2-116.2-55.2-116.2-55.2V349.1H340.8v340s139.5-66.8 226.6-31.9c87.2 34.9 180.1 110.4 284.8 84.2 104.6-26.1 107.5-69.7 107.5-69.7V910S858 970.9 756.3 962.2c-101.7-8.7-135.5-56-212.1-72.6-76.6-16.7-98.8-11.6-145.3 0-46.5 11.6-101.7 40.7-101.7 40.7L67.6 697.8l3-345.8z" fill="#D8353B" p-id="3357"></path></svg>