<?xml version="1.0" standalone="no"?><!DOCTYPE svg PUBLIC "-//W3C//DTD SVG 1.1//EN" "http://www.w3.org/Graphics/SVG/1.1/DTD/svg11.dtd"><svg t="1531990913143" class="icon" style="" viewBox="0 0 1024 1024" version="1.1" xmlns="http://www.w3.org/2000/svg" p-id="1736" xmlns:xlink="http://www.w3.org/1999/xlink" width="200" height="200"><defs><style type="text/css"></style></defs><path d="M951 811.93l0.13-638.88C944.28 45 813.38 68.16 813.38 68.16L197 70.75C68.87 68 74.32 209.83 74.32 209.83L73 825.55c1.32 149.85 141.77 134.86 141.77 134.86l613.6 1.78C972.91 960.83 951 811.93 951 811.93z m-156.72-34.06s-324.53-224.77-560.43 30c0 0 250.19-296.72 1.36-583 0 0 302.71 262.91 560.43-5.44 0.01-0.06-248.16 290.09-1.36 558.44z" fill="#0081CC" p-id="1737"></path></svg>