<?xml version="1.0" standalone="no"?><!DOCTYPE svg PUBLIC "-//W3C//DTD SVG 1.1//EN" "http://www.w3.org/Graphics/SVG/1.1/DTD/svg11.dtd"><svg t="1531990958112" class="icon" style="" viewBox="0 0 1024 1024" version="1.1" xmlns="http://www.w3.org/2000/svg" p-id="4045" xmlns:xlink="http://www.w3.org/1999/xlink" width="200" height="200"><defs><style type="text/css"></style></defs><path d="M672.8 641.5c0 16.6-13.5 30-30 30H533.6v285.6h334.6c49.8 0 90.1-40.4 90.1-90.1V532.4H672.8v109.1zM642.7 347.7c16.6 0 30 13.5 30 30.1v109.1h285.6V152.2c0-49.7-40.4-90.1-90.1-90.1H533.6v285.5h109.1zM348.9 377.8c0-16.6 13.4-30.1 30-30.1H488V62.1H153.5c-49.8 0-90.1 40.4-90.1 90.1v334.7H349V377.8zM379 671.6c-16.6 0-30-13.4-30-30V532.4H63.3V867c0 49.7 40.4 90.1 90.1 90.1H488V671.6H379z" fill="#E41F1F" p-id="4046"></path></svg>