<?xml version="1.0" standalone="no"?><!DOCTYPE svg PUBLIC "-//W3C//DTD SVG 1.1//EN" "http://www.w3.org/Graphics/SVG/1.1/DTD/svg11.dtd"><svg t="1531990947602" class="icon" style="" viewBox="0 0 1024 1024" version="1.1" xmlns="http://www.w3.org/2000/svg" p-id="3587" xmlns:xlink="http://www.w3.org/1999/xlink" width="200" height="200"><defs><style type="text/css"></style></defs><path d="M111.7 66h615.7c-58.1 30.2-180.1 102.9-240.2 206.6-159.5-2-208.4 2.8-208.4 2.8l-16.7 447.3c60.9-36.9 108-88.2 138.4-134.7 37-56.5 38.9-110.3 61.9-170.9C547.2 192.9 741.4 83.8 870.8 66h45.4c24.6 0 44.7 20.1 44.7 44.7v804.4c0 24.6-20.1 44.7-44.7 44.7H292.7c59.9-31.8 176.4-103.2 234.7-203.7 159.5 2 208.4-2.8 208.4-2.8L752.4 306c-60.8 36.9-107.9 88.2-138.3 134.7-36.9 56.5-38.9 110.3-61.9 171C471.1 826 290 935.2 161.2 959.9h-49.5c-24.6 0-44.7-20.1-44.7-44.7V110.7C67 86.1 87.1 66 111.7 66z" fill="#005BAB" p-id="3588"></path></svg>