<?xml version="1.0" standalone="no"?><!DOCTYPE svg PUBLIC "-//W3C//DTD SVG 1.1//EN" "http://www.w3.org/Graphics/SVG/1.1/DTD/svg11.dtd"><svg t="1531990953581" class="icon" style="" viewBox="0 0 1024 1024" version="1.1" xmlns="http://www.w3.org/2000/svg" p-id="3815" xmlns:xlink="http://www.w3.org/1999/xlink" width="200" height="200"><defs><style type="text/css"></style></defs><path d="M937.4 152.6c0.6-2.2 1.2-4.4 1.7-6.6 2.4-10.2-1.8-15-4.9-17-1.4-0.9-3-1.2-4.6-1.3-0.5 0-0.9-0.1-1.4-0.1H789.1c-6.9 0-13.6 0.4-19.4 4.4-6.1 4.3-9.5 10.7-11.9 17.7-7.9 22.3-13.8 45.4-19.3 68.4-3.8 15.8-6.9 31.8-9.6 47.8-1.5 9.2-3 18.5-4.3 27.7h-135c-0.3-12.2-0.2-24.5 0-36.7 0.2-11.1 0.7-22.2 1.4-33.3 0.6-9.7 1.3-19.3 2.2-28.9 0.7-7.9 1.6-15.8 2.5-23.7 0.8-6.6 4.6-28.7 5.7-33.2 2.8-11.1-7.8-10.2-7.8-10.2H427.5c-10-0.2-11.2 5.4-10.8 9.2 0.2 2.6 1 5.3 1.3 7.9 10.9 80.9 5.9 148.9 5.9 148.9H290c-3.1-44.1-24.1-114.9-31.3-138-1.3-4.3-2.4-8.7-4.1-12.9-2.4-6.3-5.7-10-8.9-12.2-5.7-3.8-15.1-2.6-21.5-2.6H91c-18.3 0-12.2 17.8-12.2 17.8 109.6 387.7 19.6 726.2 3.4 781.5-1.1 3.7-2.3 7.3-3.6 10.9-3.7 10.7-0.8 16.4 2.3 19.2 3.2 3 7.6 2.6 11.7 2.6 0 0 106.9 0.3 137.2-0.1 6-0.1 12.2-0.8 17.2-4.3 7.9-5.5 11.6-15 14.1-24.6 3.2-12.3 6.2-24.7 9.3-37 7.4-29 17.6-71.2 21.7-100h135.1c1.2 53.9-3.3 100.5-6.7 127.3-1.1 9-3.1 17.6-5.2 26.3-1 4-1.4 8.9 2.8 11.2 4.1 2.3 9.4 1.2 13.9 1.2h153c3.2 0 6.6 0.3 9.7-0.6 4.6-1.4 5.6-4.9 5.5-7.7-0.1-5.3-1.7-10.6-2.3-15.9-9.7-77.7-5-141.8-5-141.8h133.9c3.7 53.4 33.7 145.6 33.7 145.6 3.9 13.4 12.4 17.9 17.9 19.4 3.7 1 7.6 0.8 11.4 0.8h136.1c18.3 0 12.2-17.8 12.2-17.8-56.3-184.6-68.2-387.8-44.3-578.6 6.8-54.1 16.8-107.9 30-160.9 2-8.5 11.3-41.7 13.6-49.8zM307.2 626.3c4.7-91.6 3.9-165 3.9-165h398.5c-4.7 91.6-3.9 165-3.9 165H307.2z" fill="#023B94" p-id="3816"></path></svg>