<?xml version="1.0" standalone="no"?><!DOCTYPE svg PUBLIC "-//W3C//DTD SVG 1.1//EN" "http://www.w3.org/Graphics/SVG/1.1/DTD/svg11.dtd"><svg t="1532074940439" class="icon" style="" viewBox="0 0 1024 1024" version="1.1" xmlns="http://www.w3.org/2000/svg" p-id="15486" xmlns:xlink="http://www.w3.org/1999/xlink" width="200" height="200"><defs><style type="text/css"></style></defs><path d="M845.141333 615.936a178.005333 178.005333 0 1 0 65.194667 243.2 178.005333 178.005333 0 0 0-65.194667-243.2z m35.669334 226.133333a143.872 143.872 0 1 1-52.736-196.608 144.042667 144.042667 0 0 1 52.736 196.608z" fill="#3D3D63" p-id="15487"></path><path d="M686.762667 806.4a17.066667 17.066667 0 0 0-0.853334 34.133333 53.418667 53.418667 0 0 1 44.373334 25.770667 18.090667 18.090667 0 0 0 6.144 5.802667 17.066667 17.066667 0 0 0 23.04-23.722667 88.064 88.064 0 0 0-72.704-41.984zM749.056 686.08l-17.066667 4.437333-4.437333-17.066666a17.066667 17.066667 0 0 0-33.109333 8.874666L699.733333 699.733333l-17.066666 4.437334a17.066667 17.066667 0 1 0 8.874666 32.938666l17.066667-4.437333 4.437333 17.066667a17.066667 17.066667 0 0 0 33.109334-8.874667l-4.608-17.066667 17.066666-4.608a17.066667 17.066667 0 0 0 11.946667-20.821333 17.066667 17.066667 0 0 0-21.504-12.288zM853.333333 746.496L836.266667 750.933333l-4.437334-17.066666a17.066667 17.066667 0 1 0-32.938666 8.704l4.437333 17.066666-17.066667 4.437334a17.066667 17.066667 0 1 0 8.704 32.938666l17.066667-4.437333 4.437333 17.066667a17.066667 17.066667 0 1 0 32.938667-8.874667l-4.437333-17.066667 17.066666-4.437333a17.066667 17.066667 0 1 0-8.704-32.768zM242.176 202.752a20.309333 20.309333 0 1 0 20.309333 20.309333 20.309333 20.309333 0 0 0-20.309333-20.309333zM221.866667 563.2a132.096 132.096 0 1 0 132.266666 132.096A132.266667 132.266667 0 0 0 221.866667 563.2z m0 230.058667a97.962667 97.962667 0 1 1 98.133333-97.962667A98.133333 98.133333 0 0 1 221.866667 793.258667z" fill="#3D3D63" p-id="15488"></path><path d="M269.482667 704l-24.064-14.506667 14.506666-23.893333a17.066667 17.066667 0 0 0-5.973333-23.381333 17.066667 17.066667 0 0 0-23.381333 5.802666l-14.506667 24.234667-24.064-14.506667a17.066667 17.066667 0 0 0-23.552 5.802667 17.066667 17.066667 0 0 0 5.973333 23.381333l24.064 14.506667-14.506666 24.234667a17.066667 17.066667 0 0 0 5.802666 23.381333 17.066667 17.066667 0 0 0 23.210667-5.973333l14.506667-24.234667 24.064 14.506667a17.066667 17.066667 0 0 0 17.066666-29.354667zM571.392 542.378667h142.677333a62.634667 62.634667 0 0 0 62.634667-62.634667 61.269333 61.269333 0 0 0-11.434667-36.010667 62.122667 62.122667 0 0 0 0-110.592 62.634667 62.634667 0 0 0-17.066666-88.234666A62.464 62.464 0 0 0 699.733333 144.042667H448.853333a264.362667 264.362667 0 0 0-128.512 34.133333 47.616 47.616 0 0 0-45.226666-34.133333h-65.877334a47.786667 47.786667 0 0 0-47.616 47.616v4.096h-44.373333a17.066667 17.066667 0 0 0 0 34.133333h44.373333v164.352h-44.373333a17.066667 17.066667 0 0 0 0 34.133333h44.544v4.266667a47.616 47.616 0 0 0 47.616 47.445333h65.706667a47.445333 47.445333 0 0 0 44.714666-31.573333l68.266667 89.258667a228.181333 228.181333 0 0 1 34.133333 140.288l-1.024 11.605333a36.010667 36.010667 0 0 0 32.597334 38.912h9.216a103.765333 103.765333 0 0 0 102.4-94.549333l2.389333-28.330667a126.634667 126.634667 0 0 0-5.802667-51.2A9.557333 9.557333 0 0 1 563.2 546.133333a9.386667 9.386667 0 0 1 8.192-3.754666z m-296.277333-96.256h-65.706667a13.312 13.312 0 0 1-13.482667-13.312V191.829333a13.482667 13.482667 0 0 1 13.482667-13.482666h65.877333a13.482667 13.482667 0 0 1 13.482667 13.482666v240.298667a13.482667 13.482667 0 0 1-13.653333 13.994667z m260.437333 80.725333a43.861333 43.861333 0 0 0-5.461333 39.594667 95.402667 95.402667 0 0 1 4.096 36.693333L531.797333 631.466667a69.632 69.632 0 0 1-24.576 47.274666 68.266667 68.266667 0 0 1-51.2 15.872 1.706667 1.706667 0 0 1-1.706666-1.877333l1.024-11.434667a263.168 263.168 0 0 0-39.765334-162.816l-85.333333-112.298666-1.536-1.706667a20.650667 20.650667 0 0 1-5.973333-14.506667v-162.645333a20.992 20.992 0 0 1 10.069333-17.066667 230.741333 230.741333 0 0 1 116.053333-31.232H699.733333a28.501333 28.501333 0 0 1 0 57.002667h-43.349333a17.066667 17.066667 0 0 0-17.066667 17.066667 17.066667 17.066667 0 0 0 17.066667 17.066666h58.709333a28.501333 28.501333 0 0 1 0 56.832h-65.194666a17.066667 17.066667 0 0 0 0 34.133334h86.698666a28.501333 28.501333 0 1 1 0 56.832H658.773333a17.066667 17.066667 0 0 0 0 34.133333h55.296a28.501333 28.501333 0 0 1 0 57.002667h-142.677333a44.032 44.032 0 0 0-35.84 17.749333z" fill="#3D3D63" p-id="15489"></path></svg>