<?xml version="1.0" standalone="no"?><!DOCTYPE svg PUBLIC "-//W3C//DTD SVG 1.1//EN" "http://www.w3.org/Graphics/SVG/1.1/DTD/svg11.dtd"><svg t="1532074847857" class="icon" style="" viewBox="0 0 1024 1024" version="1.1" xmlns="http://www.w3.org/2000/svg" p-id="14939" xmlns:xlink="http://www.w3.org/1999/xlink" width="200" height="200"><defs><style type="text/css"></style></defs><path d="M944.298667 829.098667h-35.498667a61.269333 61.269333 0 0 0 7.168-28.501334V525.653333a107.861333 107.861333 0 0 0 11.264-47.786666v-109.568A39.765333 39.765333 0 0 0 887.466667 328.533333h-119.466667v-17.066666a165.205333 165.205333 0 0 0-165.034667-165.034667H421.034667A165.205333 165.205333 0 0 0 256 311.466667v17.066666H136.533333a39.765333 39.765333 0 0 0-39.765333 39.765334V477.866667a107.861333 107.861333 0 0 0 11.264 47.957333v274.773333a61.269333 61.269333 0 0 0 7.168 28.501334H79.701333a17.066667 17.066667 0 0 0 0 34.133333h327.68l-2.048 29.013333a17.066667 17.066667 0 0 0 5.290667 13.482667l89.429333 86.698667a17.066667 17.066667 0 0 0 23.893334 0l89.429333-86.698667a17.066667 17.066667 0 0 0 5.290667-13.482667l-2.048-29.013333h327.68a17.066667 17.066667 0 0 0 0-34.133333zM290.133333 311.466667a131.072 131.072 0 0 1 130.901334-130.901334h181.930666A131.072 131.072 0 0 1 733.866667 311.466667v17.066666h-34.133334v-17.066666a96.768 96.768 0 0 0-96.768-96.768H421.034667A96.768 96.768 0 0 0 324.266667 311.466667v17.066666h-34.133334z m375.466667 0v17.066666h-32.768a48.64 48.64 0 0 0-8.362667-14.336 51.2 51.2 0 0 0-38.912-18.090666h-147.114666a51.2 51.2 0 0 0-38.912 18.090666 48.64 48.64 0 0 0-8.362667 14.336H358.4v-17.066666a62.634667 62.634667 0 0 1 62.634667-62.634667h181.930666A62.634667 62.634667 0 0 1 665.6 311.466667zM409.6 829.098667H170.666667a28.501333 28.501333 0 0 1-28.501334-28.501334V565.589333A107.52 107.52 0 0 0 204.8 585.728h17.066667v21.504a62.634667 62.634667 0 1 0 125.098666 0v-21.504H426.666667z m-153.6-221.866667v-51.2h56.832v51.2a28.501333 28.501333 0 1 1-56.832 0z m172.373333-55.637333h-81.408v-1.194667a28.330667 28.330667 0 0 0-28.330666-28.501333h-68.266667A28.501333 28.501333 0 0 0 221.866667 550.4v1.194667h-17.066667A73.898667 73.898667 0 0 1 130.901333 477.866667v-109.568a5.632 5.632 0 0 1 5.632-5.632h252.586667l11.946667 70.826666a39.424 39.424 0 0 0 32.938666 32.768zM439.978667 887.466667l3.754666-56.832 131.413334-75.776 5.12 71.509333-126.634667 73.216z m120.490666-351.573334l4.778667 71.509334-110.762667 64 5.12-77.482667z m-97.962666 17.066667l5.802666-85.333333h87.381334l2.218666 31.061333z m105.301333 92.330667l4.778667 71.68-126.122667 72.704 5.290667-77.312zM512 955.733333l-33.28-32.085333 103.765333-59.904 1.536 22.186667z m71.68-523.776h-143.36a5.632 5.632 0 0 1-5.632-4.778666l-12.970667-77.824a17.066667 17.066667 0 0 1 3.754667-13.824 17.066667 17.066667 0 0 1 12.970667-5.973334h147.114666a17.066667 17.066667 0 0 1 12.970667 5.973334 17.066667 17.066667 0 0 1 3.754667 13.824l-12.970667 77.824a5.632 5.632 0 0 1-5.632 5.461333z m6.314667 34.133334a39.424 39.424 0 0 0 32.938666-32.597334l11.946667-70.826666H887.466667a5.632 5.632 0 0 1 5.632 5.632V477.866667A73.898667 73.898667 0 0 1 819.2 551.594667h-17.066667v-1.194667a28.501333 28.501333 0 0 0-28.501333-28.501333h-68.266667a28.330667 28.330667 0 0 0-28.330666 28.501333v1.194667H595.626667zM768 556.032v51.2a28.501333 28.501333 0 1 1-56.832 0v-51.2z m-153.6 273.066667l-17.066667-243.370667h79.018667v21.504a62.634667 62.634667 0 1 0 125.098667 0v-21.504h17.066666a107.52 107.52 0 0 0 62.634667-20.138667v235.008A28.501333 28.501333 0 0 1 853.333333 829.098667z" fill="#3D3D63" p-id="14940"></path></svg>