<?xml version="1.0" standalone="no"?><!DOCTYPE svg PUBLIC "-//W3C//DTD SVG 1.1//EN" "http://www.w3.org/Graphics/SVG/1.1/DTD/svg11.dtd"><svg t="1532074745296" class="icon" style="" viewBox="0 0 1024 1024" version="1.1" xmlns="http://www.w3.org/2000/svg" p-id="10440" xmlns:xlink="http://www.w3.org/1999/xlink" width="200" height="200"><defs><style type="text/css"></style></defs><path d="M957.098667 385.365333L757.930667 186.197333a51.2 51.2 0 0 0-71.68 0l-27.818667 27.818667a51.2 51.2 0 0 0-2.218667 69.12 116.736 116.736 0 0 1-89.429333 26.453333 150.698667 150.698667 0 0 0-86.698667 15.530667h-1.194666l-68.266667-8.704a34.133333 34.133333 0 0 1-20.138667-9.898667l-22.698666-22.698666a51.2 51.2 0 0 0-1.877334-69.461334l-27.818666-27.818666a51.2 51.2 0 0 0-71.68 0L66.901333 385.365333a51.2 51.2 0 0 0 0 71.68l27.818667 27.818667a51.2 51.2 0 0 0 69.461333 1.877333l43.690667 43.52A56.490667 56.490667 0 0 1 221.866667 554.666667a196.608 196.608 0 0 0 51.2 88.234666 56.661333 56.661333 0 0 0 50.005333 83.285334 56.490667 56.490667 0 0 0 56.832 56.832 57.514667 57.514667 0 0 0 17.066667 40.277333 56.32 56.32 0 0 0 66.730666 9.728l3.072 3.072a56.490667 56.490667 0 0 0 93.184-20.48l6.997334 6.997333a56.661333 56.661333 0 0 0 80.384 0 53.76 53.76 0 0 0 12.458666-20.48l8.362667 8.362667a56.832 56.832 0 0 0 80.384-80.384l-8.362667-8.362667a53.76 53.76 0 0 0 20.309334-12.970666 56.32 56.32 0 0 0 17.066666-40.106667 55.466667 55.466667 0 0 0-6.485333-25.770667l3.242667-3.413333a155.306667 155.306667 0 0 0 43.178666-80.725333 122.197333 122.197333 0 0 1 34.133334-63.829334l8.704-8.704a51.2 51.2 0 0 0 69.461333-1.877333l27.818667-27.818667a51.2 51.2 0 0 0-0.512-71.168zM118.272 460.8L90.453333 433.664a17.066667 17.066667 0 0 1 0-24.064L290.133333 209.749333a17.066667 17.066667 0 0 1 24.746667 0L341.333333 237.568a17.066667 17.066667 0 0 1 0 24.746667L143.018667 460.8a17.066667 17.066667 0 0 1-24.746667 0zM307.2 686.421333a23.722667 23.722667 0 0 1 0-34.133333 23.722667 23.722667 0 0 1 33.28 0 23.552 23.552 0 0 1-33.28 34.133333z m56.832 56.832a23.552 23.552 0 0 1 17.066667-40.277333 23.04 23.04 0 0 1 17.066666 6.826667 23.893333 23.893333 0 0 1 0 34.133333 24.064 24.064 0 0 1-34.986666-0.682667z m56.832 56.832a23.552 23.552 0 0 1 0-34.133333 24.064 24.064 0 0 1 17.066667-6.826667 23.552 23.552 0 1 1-17.066667 40.277334z m317.098667-114.176a24.405333 24.405333 0 0 1-34.133334 0L530.602667 512a17.066667 17.066667 0 1 0-23.552 23.552l217.941333 218.624a23.722667 23.722667 0 0 1 6.997333 17.066667 23.210667 23.210667 0 0 1-6.997333 17.066666 23.722667 23.722667 0 0 1-33.28 0L473.770667 569.514667a17.066667 17.066667 0 0 0-23.552 23.552l173.226666 173.056a23.722667 23.722667 0 0 1-34.133333 34.133333L416.938667 626.346667a17.066667 17.066667 0 0 0-23.552 23.552l129.706666 129.706666a23.552 23.552 0 1 1-34.133333 34.133334l-3.072-3.072a56.32 56.32 0 0 0-50.005333-83.114667 55.637333 55.637333 0 0 0-56.832-56.32 56.490667 56.490667 0 0 0-83.114667-51.2A163.157333 163.157333 0 0 1 253.952 546.133333a85.333333 85.333333 0 0 0-22.698667-39.253333L187.733333 463.530667 344.064 307.2l22.528 22.528a68.266667 68.266667 0 0 0 39.424 19.285333l35.157333 4.437334-83.968 83.968a64 64 0 1 0 90.453334 90.453333l56.490666-56.490667a47.274667 47.274667 0 0 1 38.741334-13.141333l194.218666 194.218667a23.552 23.552 0 0 1 6.826667 17.066666 23.722667 23.722667 0 0 1-6.826667 16.384z m47.104-133.12a124.074667 124.074667 0 0 1-34.133334 63.829334l-1.194666 1.194666-131.925334-131.584a225.962667 225.962667 0 0 0 51.2 7.168 15.872 15.872 0 0 0 17.066667-16.213333 17.066667 17.066667 0 0 0-17.066667-17.066667 201.216 201.216 0 0 1-92.330666-25.258666 81.237333 81.237333 0 0 0-96.768 12.8l-56.490667 56.490666a30.72 30.72 0 1 1-42.666667-43.349333l85.333334-85.333333A117.077333 117.077333 0 0 1 563.2 342.528 149.845333 149.845333 0 0 0 679.424 307.2L836.266667 463.530667l-8.533334 8.362666a156.16 156.16 0 0 0-42.666666 80.896z m148.992-119.466666L905.728 460.8a17.066667 17.066667 0 0 1-24.746667 0L682.666667 262.314667a17.066667 17.066667 0 0 1 0-24.746667l27.818666-27.818667a17.066667 17.066667 0 0 1 24.746667 0L933.546667 409.6a17.066667 17.066667 0 0 1 0 24.064z" fill="#3D3D63" p-id="10441"></path></svg>