<?xml version="1.0" standalone="no"?><!DOCTYPE svg PUBLIC "-//W3C//DTD SVG 1.1//EN" "http://www.w3.org/Graphics/SVG/1.1/DTD/svg11.dtd"><svg t="1532074832107" class="icon" style="" viewBox="0 0 1024 1024" version="1.1" xmlns="http://www.w3.org/2000/svg" p-id="13651" xmlns:xlink="http://www.w3.org/1999/xlink" width="200" height="200"><defs><style type="text/css"></style></defs><path d="M204.8 762.709333a82.944 82.944 0 0 0 0-69.461333 157.013333 157.013333 0 0 0-87.381333-80.554667 17.066667 17.066667 0 0 0-20.650667 24.405334 208.725333 208.725333 0 0 1 0 22.186666v2.389334a240.128 240.128 0 0 1-5.632 51.2c0 3.072-1.706667 6.485333-2.730667 9.728a53.589333 53.589333 0 0 0 4.778667 55.978666 68.266667 68.266667 0 0 0 51.2 22.186667 63.658667 63.658667 0 0 0 16.042667-2.048 65.706667 65.706667 0 0 0 44.373333-36.010667z m-85.333333-7.338666c-3.072-3.584-1.877333-9.728 2.218666-22.869334 1.365333-4.266667 2.730667-8.533333 3.754667-12.629333a291.498667 291.498667 0 0 0 6.314667-59.733333v-2.218667a119.466667 119.466667 0 0 1 42.496 48.981333 50.005333 50.005333 0 0 1 0 40.789334 31.573333 31.573333 0 0 1-21.504 17.066666A35.84 35.84 0 0 1 119.466667 755.370667zM725.333333 755.029333h-29.013333v-29.013333a17.066667 17.066667 0 0 0-34.133333 0v29.013333h-28.842667a17.066667 17.066667 0 0 0 0 34.133334h28.842667v29.013333a17.066667 17.066667 0 0 0 34.133333 0v-29.013333h29.013333a17.066667 17.066667 0 0 0 0-34.133334z" fill="#3D3D63" p-id="13652"></path><path d="M889.856 607.914667h-126.293333a17.066667 17.066667 0 0 0-16.042667-10.581334h-126.122667l185.344-186.197333 31.061334 31.061333a17.066667 17.066667 0 1 0 24.064-24.234666l-82.602667-82.773334 36.181333-36.181333 9.386667 9.557333a47.616 47.616 0 0 0 67.242667-67.242666l-94.72-94.890667a47.616 47.616 0 0 0-67.242667 67.242667l9.386667 9.557333-36.181334 36.181333-82.773333-82.773333a17.066667 17.066667 0 0 0-24.064 0 17.066667 17.066667 0 0 0 0 24.234667l31.061333 30.890666-308.736 308.736a51.2 51.2 0 0 0-8.533333 60.245334l-17.066667 17.066666a51.2 51.2 0 0 0 0 72.362667l15.530667 15.530667-157.354667 157.525333A17.066667 17.066667 0 0 0 175.445333 887.466667l157.184-157.184 15.530667 15.530666a51.2 51.2 0 0 0 72.362667 0l17.066666-17.066666a51.2 51.2 0 0 0 48.128 0v112.469333a47.445333 47.445333 0 0 0 3.242667 17.066667h-20.138667a17.066667 17.066667 0 0 0 0 34.133333h421.034667a51.2 51.2 0 0 0 51.2-51.2V659.114667a51.2 51.2 0 0 0-51.2-51.2zM628.053333 631.466667h102.4v22.698666h-102.4z m126.122667-460.8a13.312 13.312 0 0 1 18.944 0l94.890667 94.72a13.653333 13.653333 0 0 1 0 18.944 13.312 13.312 0 0 1-18.944 0l-94.890667-94.72a13.312 13.312 0 0 1 0-18.944z m9.557333 76.629333l27.477334 27.648-36.181334 36.181333-27.648-27.648zM453.290667 454.144l13.824 13.824a17.066667 17.066667 0 0 0 24.234666 0 17.066667 17.066667 0 0 0 0-24.064L477.866667 430.08l44.714666-44.885333 39.765334 39.765333a17.066667 17.066667 0 0 0 24.064 0 17.066667 17.066667 0 0 0 0-24.234667L546.133333 361.130667l44.885334-44.885334 13.653333 13.824a17.066667 17.066667 0 0 0 24.234667 0 17.066667 17.066667 0 0 0 0-24.064l-13.824-13.824L651.605333 256l131.072 130.901333-131.413333 131.413334-212.992-48.981334z m-56.832 267.264a17.066667 17.066667 0 0 1-24.064 0L317.098667 665.6a17.066667 17.066667 0 0 1 0-24.234667l15.530666-15.36 79.36 79.189334z m77.653333-25.770667a17.066667 17.066667 0 0 1-24.234667 0l-106.837333-107.008a17.066667 17.066667 0 0 1 0-24.064l41.301333-41.472L424.106667 563.2a17.066667 17.066667 0 0 0 24.064 0 17.066667 17.066667 0 0 0 0-24.234667l-39.594667-39.594666 1.194667-1.365334L622.762667 546.133333l-60.928 61.098667h-24.746667a51.2 51.2 0 0 0-51.2 51.2v24.576z m364.544 145.408a17.066667 17.066667 0 0 1-17.066667 17.066667H537.088a17.066667 17.066667 0 0 1-17.066667-17.066667V659.114667a17.066667 17.066667 0 0 1 17.066667-17.066667h56.832v28.330667a17.066667 17.066667 0 0 0 17.066667 17.066666h136.533333a17.066667 17.066667 0 0 0 17.066667-17.066666v-28.330667h57.002666a17.066667 17.066667 0 0 1 17.066667 17.066667z m68.266667 0a17.066667 17.066667 0 0 1-17.066667 17.066667H870.4a47.445333 47.445333 0 0 0 3.242667-17.066667V659.114667a46.762667 46.762667 0 0 0-3.242667-17.066667h20.309333a17.066667 17.066667 0 0 1 17.066667 17.066667z" fill="#3D3D63" p-id="13653"></path></svg>