<?xml version="1.0" standalone="no"?><!DOCTYPE svg PUBLIC "-//W3C//DTD SVG 1.1//EN" "http://www.w3.org/Graphics/SVG/1.1/DTD/svg11.dtd"><svg t="1532074840817" class="icon" style="" viewBox="0 0 1024 1024" version="1.1" xmlns="http://www.w3.org/2000/svg" p-id="14406" xmlns:xlink="http://www.w3.org/1999/xlink" width="200" height="200"><defs><style type="text/css"></style></defs><path d="M877.397333 910.165333h-55.296v-11.946666a153.6 153.6 0 0 0-80.042666-134.485334 17.066667 17.066667 0 0 0-9.898667-15.36 153.6 153.6 0 0 0-65.706667-14.506666H648.533333a17.066667 17.066667 0 0 0-12.117333 5.12A81.92 81.92 0 0 1 597.333333 705.877333a212.992 212.992 0 0 0 35.328-21.674666h95.402667a55.466667 55.466667 0 0 0 55.296-55.296V363.008a277.504 277.504 0 0 0-6.826667-60.757333c2.048-1.536 4.096-3.072 5.973334-4.778667a54.101333 54.101333 0 0 0-8.533334-83.456l-25.429333-17.066667a17.066667 17.066667 0 0 0-4.096-17.066666L699.733333 133.802667a17.066667 17.066667 0 0 0-17.066666-4.096l-17.066667-25.6a53.930667 53.930667 0 0 0-83.285333-8.704 38.058667 38.058667 0 0 0-3.242667 4.096 271.189333 271.189333 0 0 0-338.944 263.509333v265.898667a55.466667 55.466667 0 0 0 55.296 55.296h95.402667a199.509333 199.509333 0 0 0 38.570666 23.210666 80.042667 80.042667 0 0 1-41.472 32.597334A17.066667 17.066667 0 0 0 375.466667 733.866667h-17.066667a153.6 153.6 0 0 0-65.706667 14.677333 17.066667 17.066667 0 0 0-9.898666 15.530667v2.218666a145.408 145.408 0 0 0-80.042667 129.365334v14.677333H146.602667a17.066667 17.066667 0 0 0 0 34.133333h730.794666a17.066667 17.066667 0 0 0 0-34.133333z m-595.456 0h-47.786666v-14.677333a112.64 112.64 0 0 1 47.786666-91.818667z m473.770667-667.477333a18.944 18.944 0 0 1 8.874667 14.506667 20.48 20.48 0 0 1-21.674667 21.845333 20.309333 20.309333 0 0 1-14.677333-8.874667l-19.456-29.696 17.066666-17.066666z m-68.266667-72.533333l22.016 22.016-31.914666 31.232-22.016-22.016z m-64.682666-56.32a20.650667 20.650667 0 0 1 14.677333 8.874666l19.456 29.696-17.066667 17.066667L609.28 150.186667a18.944 18.944 0 0 1-8.874667-13.653334 20.309333 20.309333 0 0 1 21.674667-22.698666zM295.424 650.069333a21.162667 21.162667 0 0 1-21.162667-21.162666V363.008A238.933333 238.933333 0 0 1 512 125.098667a242.346667 242.346667 0 0 1 54.442667 6.485333 55.125333 55.125333 0 0 0 0 7.509333 53.418667 53.418667 0 0 0 24.064 39.594667l25.088 17.066667a17.066667 17.066667 0 0 0 3.754666 18.090666L665.6 259.584a17.066667 17.066667 0 0 0 17.066667 3.925333l17.066666 25.258667a53.248 53.248 0 0 0 39.594667 24.064 25.6 25.6 0 0 0 5.12 0 233.984 233.984 0 0 1 5.290667 50.176v265.898667a21.162667 21.162667 0 0 1-21.162667 21.162666h-60.586667a198.656 198.656 0 0 0 43.178667-123.562666V313.002667a17.066667 17.066667 0 0 0-8.704-14.677334 17.066667 17.066667 0 0 0-17.066667 0A114.005333 114.005333 0 0 1 529.066667 256a17.066667 17.066667 0 0 0-31.914667 8.874667 114.176 114.176 0 0 1-160.256 104.448 17.066667 17.066667 0 0 0-24.064 15.530666v141.141334a198.656 198.656 0 0 0 43.178667 123.562666z m51.2-123.562666V409.6a150.698667 150.698667 0 0 0 36.010667 4.437333A148.138667 148.138667 0 0 0 525.312 307.2a148.821333 148.821333 0 0 0 102.4 41.301333 144.896 144.896 0 0 0 48.981333-8.362666v187.733333a165.034667 165.034667 0 0 1-330.069333 0z m115.2 192.682666a199.338667 199.338667 0 0 0 49.834667 6.485334 191.829333 191.829333 0 0 0 53.589333-7.68 115.712 115.712 0 0 0 64.170667 54.613333c-11.093333 53.077333-62.634667 77.141333-113.834667 77.141333h-7.850667c-51.2 0-102.4-23.722667-113.493333-75.946666a115.029333 115.029333 0 0 0 67.925333-54.613334z m245.76 190.976h-392.533333v-134.826666A119.466667 119.466667 0 0 1 358.4 768c8.362667 68.266667 67.242667 116.053333 149.162667 116.053333h7.850666C597.333333 883.882667 656.725333 836.266667 665.6 768h1.365333a119.466667 119.466667 0 0 1 41.472 7.509333z m80.042667 0h-45.568v-105.813333a119.466667 119.466667 0 0 1 45.909333 93.866667z" fill="#3D3D63" p-id="14407"></path><path d="M587.776 586.581333a17.066667 17.066667 0 0 0-31.402667-13.824 48.298667 48.298667 0 0 1-88.746666 0 17.066667 17.066667 0 0 0-31.402667 13.824 82.773333 82.773333 0 0 0 151.552 0zM453.290667 454.826667v-19.797334a17.066667 17.066667 0 0 0-34.133334 0v19.797334a17.066667 17.066667 0 0 0 34.133334 0zM587.776 471.893333a17.066667 17.066667 0 0 0 17.066667-17.066666v-19.797334a17.066667 17.066667 0 1 0-34.133334 0v19.797334a17.066667 17.066667 0 0 0 17.066667 17.066666z" fill="#3D3D63" p-id="14408"></path></svg>