<?xml version="1.0" standalone="no"?><!DOCTYPE svg PUBLIC "-//W3C//DTD SVG 1.1//EN" "http://www.w3.org/Graphics/SVG/1.1/DTD/svg11.dtd"><svg t="1532074763753" class="icon" style="" viewBox="0 0 1024 1024" version="1.1" xmlns="http://www.w3.org/2000/svg" p-id="10911" xmlns:xlink="http://www.w3.org/1999/xlink" width="200" height="200"><defs><style type="text/css"></style></defs><path d="M789.674667 554.496h-0.853334l32.768-373.418667A39.936 39.936 0 0 0 785.066667 137.898667l-468.48-40.96A40.106667 40.106667 0 0 0 273.066667 133.12l-4.266667 49.664h-37.546667A39.765333 39.765333 0 0 0 191.488 221.866667v638.805333a39.765333 39.765333 0 0 0 39.765333 39.765333h68.266667a43.178667 43.178667 0 0 0 39.765333 26.794667h450.389334a43.008 43.008 0 0 0 42.837333-42.837333V597.333333a43.008 43.008 0 0 0-42.837333-42.837333zM307.2 136.533333a5.632 5.632 0 0 1 6.144-5.12l468.650667 40.96a5.632 5.632 0 0 1 5.12 6.144l-32.597334 375.978667h-12.970666V221.866667a39.765333 39.765333 0 0 0-39.765334-39.765334H303.445333z m-11.605333 538.794667v190.976h-64.341334a5.632 5.632 0 0 1-5.632-5.632V221.866667a5.632 5.632 0 0 1 5.632-5.632h470.528a5.632 5.632 0 0 1 5.632 5.632v332.629333h-80.384a68.266667 68.266667 0 0 0-42.666666 15.018667l-69.12 54.954666a34.133333 34.133333 0 0 1-21.504 7.509334h-154.965334a42.837333 42.837333 0 0 0-42.837333 42.837333z m502.784 209.066667a8.704 8.704 0 0 1-8.704 8.704H338.773333a8.704 8.704 0 0 1-8.704-8.704V674.816a8.704 8.704 0 0 1 8.704-8.704h154.965334a68.266667 68.266667 0 0 0 42.837333-15.018667l68.266667-54.954666a35.328 35.328 0 0 1 21.504-7.509334h162.645333a8.704 8.704 0 0 1 8.704 8.704z" fill="#3D3D63" p-id="10912"></path><path d="M744.789333 823.808h-64.341333a17.066667 17.066667 0 0 0 0 34.133333h64.341333a17.066667 17.066667 0 0 0 0-34.133333zM421.546667 309.248H512a17.066667 17.066667 0 0 0 0-34.133333h-90.453333a17.066667 17.066667 0 0 0 0 34.133333zM324.266667 406.016h283.989333a17.066667 17.066667 0 0 0 0-34.133333H324.266667a17.066667 17.066667 0 0 0 0 34.133333zM625.322667 474.965333a17.066667 17.066667 0 0 0-17.066667-17.066666H324.266667a17.066667 17.066667 0 0 0 0 34.133333h283.989333a17.066667 17.066667 0 0 0 17.066667-17.066667z" fill="#3D3D63" p-id="10913"></path></svg>