<?xml version="1.0" standalone="no"?><!DOCTYPE svg PUBLIC "-//W3C//DTD SVG 1.1//EN" "http://www.w3.org/Graphics/SVG/1.1/DTD/svg11.dtd"><svg t="1532074621719" class="icon" style="" viewBox="0 0 1024 1024" version="1.1" xmlns="http://www.w3.org/2000/svg" p-id="7993" xmlns:xlink="http://www.w3.org/1999/xlink" width="200" height="200"><defs><style type="text/css"></style></defs><path d="M944.298667 363.349333a17.066667 17.066667 0 0 0 17.066666-17.066666v-94.549334a17.066667 17.066667 0 0 0-17.066666-17.066666h-94.549334a17.066667 17.066667 0 1 0 0 34.133333h53.418667l-86.528 86.698667L733.866667 439.296a76.117333 76.117333 0 0 0-102.4 18.602667L564.224 426.666667a17.066667 17.066667 0 0 0-3.072-1.365334L486.4 392.533333a77.141333 77.141333 0 1 0-148.138667 8.874667l-196.096 119.466667V336.213333l7.68 7.509334a17.066667 17.066667 0 1 0 24.064-24.064L136.533333 282.965333a17.066667 17.066667 0 0 0-17.066666-3.754666 17.066667 17.066667 0 0 0-10.581334 15.872v589.824a17.066667 17.066667 0 0 0 17.066667 17.066666h819.2a17.066667 17.066667 0 0 0 10.581333-29.184L919.722667 836.266667a17.066667 17.066667 0 0 0-24.234667 24.234666l7.68 7.509334h-57.344V375.466667l81.408-81.578667v53.248a17.066667 17.066667 0 0 0 17.066667 16.213333zM692.394667 460.8a43.008 43.008 0 1 1-43.008 43.008A43.008 43.008 0 0 1 692.394667 460.8z m-281.429334-128a42.837333 42.837333 0 1 1-42.837333 42.837333 42.837333 42.837333 0 0 1 42.837333-42.154666z m-17.066666 117.76v62.976a17.066667 17.066667 0 0 0 34.133333 0v-62.293333a76.458667 76.458667 0 0 0 43.861333-28.330667l66.901334 30.378667v414.549333h-110.762667v-57.002667a17.066667 17.066667 0 0 0-34.133333 0v57.002667H300.373333V463.872l55.466667-34.133333a76.629333 76.629333 0 0 0 38.058667 21.504zM142.165333 560.64l124.074667-75.776v382.976H142.165333z m669.525334 307.2h-102.4v-57.002667a17.066667 17.066667 0 0 0-34.133334 0v57.002667h-102.4V468.821333l44.032 19.968a79.018667 79.018667 0 0 0-1.706666 15.701334A77.141333 77.141333 0 0 0 675.328 580.266667v62.976a17.066667 17.066667 0 0 0 34.133333 0V580.266667a76.629333 76.629333 0 0 0 47.786667-116.053334l54.442667-54.613333z" fill="#3D3D63" p-id="7994"></path><path d="M410.965333 729.088a17.066667 17.066667 0 0 0 17.066667-17.066667v-98.986666a17.066667 17.066667 0 0 0-34.133333 0v98.986666a17.066667 17.066667 0 0 0 17.066666 17.066667z" fill="#3D3D63" p-id="7995"></path></svg>