<?xml version="1.0" standalone="no"?><!DOCTYPE svg PUBLIC "-//W3C//DTD SVG 1.1//EN" "http://www.w3.org/Graphics/SVG/1.1/DTD/svg11.dtd"><svg t="1532074852250" class="icon" style="" viewBox="0 0 1024 1024" version="1.1" xmlns="http://www.w3.org/2000/svg" p-id="15304" xmlns:xlink="http://www.w3.org/1999/xlink" width="200" height="200"><defs><style type="text/css"></style></defs><path d="M762.538667 265.557333a17.066667 17.066667 0 0 0-17.066667-17.066666h-102.4a17.066667 17.066667 0 0 0 0 34.133333h102.4a17.066667 17.066667 0 0 0 17.066667-17.066667z" fill="#3D3D63" p-id="15305"></path><path d="M944.298667 866.645333h-27.136a45.056 45.056 0 0 0 1.024-17.92l-45.909334-298.325333a59.221333 59.221333 0 0 0-58.709333-50.346667h-102.4v-92.16h34.133333a17.066667 17.066667 0 0 0 12.117334-4.949333l73.386666-73.386667a17.066667 17.066667 0 0 0 5.12-12.117333v-103.765333a17.066667 17.066667 0 0 0-5.12-12.117334l-73.386666-73.386666a17.066667 17.066667 0 0 0-12.117334-4.949334h-102.741333a17.066667 17.066667 0 0 0-12.117333 4.949334l-73.386667 73.386666a17.066667 17.066667 0 0 0-4.949333 12.117334v103.765333a17.066667 17.066667 0 0 0 4.949333 12.117333l73.386667 73.386667a17.92 17.92 0 0 0 12.117333 4.949333h34.133333v92.16H406.698667a59.050667 59.050667 0 0 0-58.709334 50.346667L343.210667 580.266667h-55.808a17.066667 17.066667 0 0 0 0 34.133333h51.2L302.08 848.725333a42.154667 42.154667 0 0 0 1.024 17.92H273.066667l-34.133334-187.733333a31.914667 31.914667 0 0 0-31.232-26.282667v-7.68a55.978667 55.978667 0 1 0-34.133333 0v7.68a32.085333 32.085333 0 0 0-31.232 26.282667l-34.133333 187.733333H79.701333a17.066667 17.066667 0 0 0 0 34.133334h864.597334a17.066667 17.066667 0 0 0 0-34.133334zM168.789333 591.189333a22.016 22.016 0 0 1 43.861334 0 22.016 22.016 0 1 1-43.861334 0z m6.826667 95.061334h30.037333l7.850667 43.008-41.301333-23.893334z m-9.898667 54.784L221.866667 773.290667l7.68 42.496-70.144-40.277334zM153.6 811.178667l84.309333 48.64 1.365334 6.826666H142.848z m704-136.533334l18.602667 121.002667H344.576l18.773333-121.002667zM649.728 373.76l-63.488-63.317333v-89.770667l63.488-63.317333h89.6L802.133333 220.672v89.770667l-62.805333 63.317333z m-243.029333 160.426667h406.869333a25.088 25.088 0 0 1 24.917333 21.333333l13.141334 85.333333H368.469333l13.141334-85.333333a25.258667 25.258667 0 0 1 25.088-21.333333z m475.136 328.704a11.093333 11.093333 0 0 1-8.533334 3.754666H346.794667a11.776 11.776 0 0 1-8.533334-3.754666 11.434667 11.434667 0 0 1-2.56-9.045334l3.754667-23.552h541.354667l3.584 23.04a11.434667 11.434667 0 0 1-2.56 9.557334z" fill="#3D3D63" p-id="15306"></path><path d="M538.794667 736.426667l-12.458667 12.629333a17.066667 17.066667 0 0 0 24.064 24.064l24.576-24.576a17.066667 17.066667 0 0 0 0-24.064l-26.112-26.282667a17.066667 17.066667 0 1 0-24.234667 24.234667zM418.304 736.426667l-12.458667 12.629333a17.066667 17.066667 0 1 0 24.064 24.064l24.576-24.576a17.066667 17.066667 0 0 0 0-24.064l-26.112-26.282667a17.066667 17.066667 0 0 0-24.234666 24.234667zM659.285333 736.426667l-12.458666 12.629333a17.066667 17.066667 0 0 0 24.064 24.064l24.576-24.576a17.066667 17.066667 0 0 0 0-24.064l-26.112-26.282667a17.066667 17.066667 0 0 0-24.234667 24.234667zM779.776 736.426667l-12.458667 12.629333a17.066667 17.066667 0 0 0 24.064 24.064l24.576-24.576a17.066667 17.066667 0 0 0 0-24.064l-26.112-26.282667a17.066667 17.066667 0 0 0-24.234666 24.234667zM211.285333 504.832a17.066667 17.066667 0 0 0 17.066667-17.066667V469.333333H494.933333a17.066667 17.066667 0 1 0 0-34.133333h-25.258666l-52.053334-58.368a51.2 51.2 0 0 0-38.229333-17.066667 51.2 51.2 0 0 0-38.229333 17.066667l-10.24 11.434667a41.472 41.472 0 0 0-54.954667 4.096l-38.058667 42.837333h-26.624a17.066667 17.066667 0 0 0-17.066666 17.066667v35.498666a17.066667 17.066667 0 0 0 17.066666 17.066667z m155.477334-105.301333a17.066667 17.066667 0 0 1 12.629333-5.632 17.066667 17.066667 0 0 1 12.8 5.632l31.744 35.669333h-50.346667l-19.285333-21.674667z m-65.194667 15.530666c2.901333-3.242667 5.461333-3.242667 8.533333 0l17.066667 20.138667h-44.373333zM552.618667 469.333333h34.133333a17.066667 17.066667 0 0 0 0-34.133333h-34.133333a17.066667 17.066667 0 1 0 0 34.133333zM509.44 604.672h201.386667a17.066667 17.066667 0 0 0 0-34.133333h-201.386667a17.066667 17.066667 0 0 0 0 34.133333z" fill="#3D3D63" p-id="15307"></path></svg>