<?xml version="1.0" standalone="no"?><!DOCTYPE svg PUBLIC "-//W3C//DTD SVG 1.1//EN" "http://www.w3.org/Graphics/SVG/1.1/DTD/svg11.dtd"><svg t="1532074838868" class="icon" style="" viewBox="0 0 1024 1024" version="1.1" xmlns="http://www.w3.org/2000/svg" p-id="14219" xmlns:xlink="http://www.w3.org/1999/xlink" width="200" height="200"><defs><style type="text/css"></style></defs><path d="M888.490667 910.165333h-45.738667v-12.8a157.866667 157.866667 0 0 0-157.866667-157.696H665.6l5.973333-10.752a17.066667 17.066667 0 0 0 0-17.066666l-24.576-42.666667a199.509333 199.509333 0 0 0 69.802667-145.066667A83.626667 83.626667 0 0 0 786.944 443.733333v-21.674666a48.981333 48.981333 0 0 0-50.176-47.616H716.8v-18.602667h25.941333a53.76 53.76 0 0 0 0-107.349333H699.733333v-88.746667a80.042667 80.042667 0 0 0-105.984-75.776L538.282667 102.4a81.578667 81.578667 0 0 1-52.565334 0l-55.296-18.432A80.042667 80.042667 0 0 0 324.266667 159.744v88.746667h-42.837334a53.76 53.76 0 0 0 0 107.349333H307.2v18.602667h-19.968a48.981333 48.981333 0 0 0-50.176 47.616V443.733333A83.626667 83.626667 0 0 0 307.2 524.117333a199.509333 199.509333 0 0 0 69.632 144.896l-24.576 42.666667a17.066667 17.066667 0 0 0 0 17.066667l6.144 11.093333h-19.285333a157.866667 157.866667 0 0 0-157.866667 157.696v12.8H135.509333a17.066667 17.066667 0 1 0 0 34.133333h752.981334a17.066667 17.066667 0 0 0 0-34.133333zM307.2 488.789333A48.64 48.64 0 0 1 271.189333 443.733333v-21.674666a14.848 14.848 0 0 1 16.042667-13.482667H307.2z m329.728 231.594667l-52.736 96.597333-47.616-47.445333 83.968-77.312z m99.84-311.808a14.848 14.848 0 0 1 16.042667 13.482667V443.733333A48.64 48.64 0 0 1 716.8 488.789333v-80.213333zM358.4 159.744a45.226667 45.226667 0 0 1 19.285333-37.376 45.909333 45.909333 0 0 1 41.642667-6.144l55.125333 18.944a116.736 116.736 0 0 0 74.752 0l55.125334-18.944a45.909333 45.909333 0 0 1 41.642666 6.144A45.226667 45.226667 0 0 1 665.6 159.744v26.965333H358.4z m0 61.098667h307.2v27.648H358.4z m-77.141333 100.864a19.626667 19.626667 0 0 1 0-39.082667h460.8a19.626667 19.626667 0 0 1 0 39.082667zM341.333333 518.144v-162.304h341.333334v162.304a170.666667 170.666667 0 0 1-341.333334 0z m170.666667 201.045333a217.6 217.6 0 0 0 31.914667-2.389333L512 745.813333 480.085333 716.8a217.6 217.6 0 0 0 31.914667 2.389333z m-24.576 51.2l-47.616 47.445334-52.736-96.597334 17.066667-28.16z m-32.256 140.629334H215.381333v-12.8a123.733333 123.733333 0 0 1 123.733334-123.562667h18.090666a119.466667 119.466667 0 0 0 19.114667-1.706667L420.864 853.333333a17.066667 17.066667 0 0 0 12.458667 8.874667h2.56a17.066667 17.066667 0 0 0 11.946666-5.12l3.754667-3.584a17.066667 17.066667 0 0 0 16.213333 12.458667z m35.669333 0l13.141334-44.032h16.042666l13.141334 44.032z m51.2-78.165334h-59.733333l-1.365333-7.68L512 793.258667l31.232 31.061333z m266.752 78.165334H568.832l-13.141333-44.032a17.066667 17.066667 0 0 0 16.213333-12.458667l3.754667 3.584a17.066667 17.066667 0 0 0 11.946666 5.12h2.56a17.066667 17.066667 0 0 0 12.458667-8.874667L648.533333 771.242667a114.517333 114.517333 0 0 0 22.869334 2.56h13.824a123.733333 123.733333 0 0 1 123.733333 123.562666z" fill="#3D3D63" p-id="14220"></path><path d="M445.098667 554.666667a17.066667 17.066667 0 0 0-8.874667 22.528 82.602667 82.602667 0 0 0 151.552 0A17.066667 17.066667 0 0 0 556.373333 563.2a48.298667 48.298667 0 0 1-88.746666 0 17.066667 17.066667 0 0 0-22.528-8.533333zM436.224 453.973333a17.066667 17.066667 0 0 0 17.066667-17.066666v-19.626667a17.066667 17.066667 0 0 0-34.133334 0v19.626667a17.066667 17.066667 0 0 0 17.066667 17.066666zM587.776 453.973333a17.066667 17.066667 0 0 0 17.066667-17.066666v-19.626667a17.066667 17.066667 0 0 0-34.133334 0v19.626667a17.066667 17.066667 0 0 0 17.066667 17.066666z" fill="#3D3D63" p-id="14221"></path></svg>