<?xml version="1.0" standalone="no"?><!DOCTYPE svg PUBLIC "-//W3C//DTD SVG 1.1//EN" "http://www.w3.org/Graphics/SVG/1.1/DTD/svg11.dtd"><svg t="1532074760946" class="icon" style="" viewBox="0 0 1024 1024" version="1.1" xmlns="http://www.w3.org/2000/svg" p-id="10756" xmlns:xlink="http://www.w3.org/1999/xlink" width="200" height="200"><defs><style type="text/css"></style></defs><path d="M481.450667 316.586667a17.066667 17.066667 0 0 0 0-34.133334h-89.941334a17.066667 17.066667 0 0 0 0 34.133334zM578.218667 379.221333H294.741333a17.066667 17.066667 0 1 0 0 34.133334h283.477334a17.066667 17.066667 0 0 0 0-34.133334zM578.218667 465.237333H294.741333a17.066667 17.066667 0 0 0 0 34.133334h283.477334a17.066667 17.066667 0 0 0 0-34.133334zM925.866667 702.634667l-160.938667-160.938667a17.066667 17.066667 0 0 0-24.064 0L716.8 565.930667a51.2 51.2 0 0 0-9.898667 58.026666l-76.8 76.8a51.2 51.2 0 0 0-58.026666 9.898667l-24.234667 24.234667a17.066667 17.066667 0 0 0 0 24.064l68.266667 68.266666-68.266667 68.266667a17.066667 17.066667 0 1 0 24.234667 24.234667l68.266666-68.266667 68.266667 68.266667a17.066667 17.066667 0 0 0 24.064 0l24.234667-24.234667a51.2 51.2 0 0 0 9.898666-58.026667l76.8-76.8a51.2 51.2 0 0 0 58.026667-9.898666l24.234667-24.234667a17.066667 17.066667 0 0 0 0-23.893333z m-193.194667 168.96l-11.946667 12.117333-136.533333-136.533333 12.117333-11.946667a17.066667 17.066667 0 0 1 24.064 0l112.64 112.64a17.066667 17.066667 0 0 1-0.341333 23.722667z m12.117333-60.416l-88.405333-88.405334 72.362667-72.362666 88.405333 88.405333z m132.778667-85.333334a17.066667 17.066667 0 0 1-24.064 0L740.864 614.4a17.066667 17.066667 0 0 1 0-24.064l11.946667-12.117333 136.533333 136.533333z" fill="#3D3D63" p-id="10757"></path><path d="M467.626667 873.642667H201.216a5.632 5.632 0 0 1-5.632-5.632v-638.293334a5.632 5.632 0 0 1 5.632-5.632h470.528a5.632 5.632 0 0 1 5.632 5.632v251.050667a17.066667 17.066667 0 0 0 34.133333 0V229.717333a39.765333 39.765333 0 0 0-39.765333-39.765333H273.066667l4.096-46.592a5.632 5.632 0 0 1 6.144-5.12l468.650666 40.96a5.632 5.632 0 0 1 5.12 6.144l-23.893333 273.066667a17.066667 17.066667 0 1 0 34.133333 3.072l23.893334-273.066667a39.765333 39.765333 0 0 0-36.181334-43.178667l-468.48-40.96a39.594667 39.594667 0 0 0-43.008 36.181334l-4.608 49.493333h-37.717333a39.936 39.936 0 0 0-39.765333 39.765333v638.293334a39.936 39.936 0 0 0 39.765333 39.765333H467.626667a17.066667 17.066667 0 1 0 0-34.133333z" fill="#3D3D63" p-id="10758"></path></svg>