<?xml version="1.0" standalone="no"?><!DOCTYPE svg PUBLIC "-//W3C//DTD SVG 1.1//EN" "http://www.w3.org/Graphics/SVG/1.1/DTD/svg11.dtd"><svg t="1532074617448" class="icon" style="" viewBox="0 0 1024 1024" version="1.1" xmlns="http://www.w3.org/2000/svg" p-id="7852" xmlns:xlink="http://www.w3.org/1999/xlink" width="200" height="200"><defs><style type="text/css"></style></defs><path d="M580.266667 920.064H210.432a5.461333 5.461333 0 0 1-5.461333-5.632v-373.76a144.725333 144.725333 0 0 0 44.714666 12.288V870.4a17.066667 17.066667 0 0 0 17.066667 17.066667h209.237333a17.066667 17.066667 0 0 0 0-34.133334h-192.853333V552.96a150.698667 150.698667 0 0 0 97.962667-247.808h360.448v229.205333a17.066667 17.066667 0 0 0 34.133333 0V288.426667a17.066667 17.066667 0 0 0-17.066667-17.066667H341.333333a148.992 148.992 0 0 0-136.533333-5.973333v-66.389334a5.461333 5.461333 0 0 1 5.461333-5.632h173.568V221.866667a17.066667 17.066667 0 0 0 17.066667 17.066666h223.573333a17.066667 17.066667 0 0 0 17.066667-17.066666v-28.501334h172.714667a5.461333 5.461333 0 0 1 5.461333 5.632v351.402667a17.066667 17.066667 0 0 0 34.133333 0V198.997333a39.253333 39.253333 0 0 0-39.082666-39.082666H640.853333V153.6a17.066667 17.066667 0 0 0-17.066666-17.066667h-38.741334V119.466667a51.2 51.2 0 0 0-51.2-50.346667h-43.861333a51.2 51.2 0 0 0-50.346667 51.2v17.066667h-39.082666a17.066667 17.066667 0 0 0-17.066667 17.066666v5.632H210.432A39.253333 39.253333 0 0 0 170.666667 198.997333v86.869334a150.869333 150.869333 0 0 0 0 234.325333v394.24a39.253333 39.253333 0 0 0 39.082666 39.253333H580.266667a17.066667 17.066667 0 0 0 0-34.133333zM489.984 103.936h44.714667a17.066667 17.066667 0 0 1 17.066666 17.066667v17.066666h-78.506666v-17.066666a17.066667 17.066667 0 0 1 16.725333-17.066667zM417.28 170.666667h190.122667v34.133333H417.28zM148.992 403.114667a117.418667 117.418667 0 1 1 117.76 117.248 117.589333 117.589333 0 0 1-117.76-117.248z" fill="#3D3D63" p-id="7853"></path><path d="M773.12 610.816a174.592 174.592 0 0 0-71.509333 15.701333l-3.413334-5.802666a17.066667 17.066667 0 0 0-22.869333-6.314667 196.437333 196.437333 0 0 0-97.621333 169.472 17.066667 17.066667 0 0 0 17.066666 17.066667h6.314667A173.226667 173.226667 0 1 0 773.12 610.816z m-95.061333 41.984L744.106667 768h-131.925334a162.816 162.816 0 0 1 65.877334-115.2z m95.061333 271.018667a139.776 139.776 0 0 1-138.581333-123.050667h138.581333a17.066667 17.066667 0 0 0 14.506667-25.088l-69.290667-119.466667a139.776 139.776 0 1 1 54.784 267.605334zM415.232 588.629333a17.066667 17.066667 0 0 0-23.722667 0L341.333333 638.122667a17.066667 17.066667 0 0 0 0 23.722666 16.042667 16.042667 0 0 0 11.776 4.949334 17.066667 17.066667 0 0 0 11.946667-4.949334l37.546667-37.546666 34.133333 34.133333a17.066667 17.066667 0 0 0 23.722667 0l64.341333-64.512 29.354667 29.354667a17.066667 17.066667 0 0 0 23.722666 0L682.666667 520.021333a17.066667 17.066667 0 0 0 0-23.722666 17.066667 17.066667 0 0 0-23.722667 0l-91.818667 91.989333-29.354666-29.354667a17.066667 17.066667 0 0 0-23.722667 0l-64.512 64.512zM220.672 419.157333a44.202667 44.202667 0 0 0 34.133333 4.437334l32.426667-8.704a10.752 10.752 0 0 1 8.533333 1.194666 10.069333 10.069333 0 0 1 5.12 6.656 11.264 11.264 0 0 1-7.850666 13.824l-48.64 12.970667a17.066667 17.066667 0 0 0 4.437333 32.938667c1.365333 0 20.48-4.949333 20.48-4.949334l1.536 5.461334a17.066667 17.066667 0 0 0 16.042667 12.458666 13.312 13.312 0 0 0 4.437333 0 17.066667 17.066667 0 0 0 11.776-20.48l-1.365333-5.461333a44.714667 44.714667 0 1 0-23.210667-86.357333l-32.256 8.704a11.434667 11.434667 0 0 1-8.533333-1.024 11.776 11.776 0 0 1-5.290667-6.826667 11.264 11.264 0 0 1 8.021333-13.653333l48.469334-13.141334a17.066667 17.066667 0 0 0 11.946666-20.48A17.066667 17.066667 0 0 0 279.893333 324.266667l-16.042666 4.437333-1.536-5.461333a17.066667 17.066667 0 0 0-32.426667 8.704l1.536 5.461333a44.714667 44.714667 0 0 0-10.752 81.92zM671.232 358.4H470.016a17.066667 17.066667 0 1 0 0 34.133333h201.216a17.066667 17.066667 0 1 0 0-34.133333zM671.232 414.208h-123.050667a17.066667 17.066667 0 0 0 0 34.133333h123.050667a17.066667 17.066667 0 0 0 0-34.133333z" fill="#3D3D63" p-id="7854"></path></svg>