<?xml version="1.0" standalone="no"?><!DOCTYPE svg PUBLIC "-//W3C//DTD SVG 1.1//EN" "http://www.w3.org/Graphics/SVG/1.1/DTD/svg11.dtd"><svg t="1532074634478" class="icon" style="" viewBox="0 0 1024 1024" version="1.1" xmlns="http://www.w3.org/2000/svg" p-id="8595" xmlns:xlink="http://www.w3.org/1999/xlink" width="200" height="200"><defs><style type="text/css"></style></defs><path d="M812.032 131.754667H536.234667A41.813333 41.813333 0 0 0 494.933333 173.397333v49.322667a245.589333 245.589333 0 0 0-122.538666-7.509333l-4.778667-8.192a81.408 81.408 0 0 0-140.970667 81.408l4.949334 8.533333a248.661333 248.661333 0 0 0-27.477334 286.72L319.317333 785.066667l-7.509333 4.266666a55.637333 55.637333 0 0 0 55.637333 96.426667L477.866667 821.077333a132.778667 132.778667 0 0 0 224.426666-129.536l110.592-64a55.637333 55.637333 0 0 0-55.637333-96.256l-7.509333 4.266667L648.533333 360.618667h163.157334A41.813333 41.813333 0 0 0 853.333333 318.976v-145.578667a41.813333 41.813333 0 0 0-41.301333-41.642666zM273.066667 206.848a47.274667 47.274667 0 0 1 64.512 17.066667 265.386667 265.386667 0 0 0-43.349334 19.456A254.464 254.464 0 0 0 256 271.701333a47.104 47.104 0 0 1 17.066667-64.853333z m351.914666 609.621333a98.133333 98.133333 0 0 1-116.394666-12.970666l163.328-94.378667a97.962667 97.962667 0 0 1-46.933334 107.349333z m95.232-263.850666l-178.005333 102.4a17.066667 17.066667 0 0 0-6.314667 23.210666 17.066667 17.066667 0 0 0 23.381334 6.314667l215.210666-124.245333A21.504 21.504 0 1 1 795.989333 597.333333L350.378667 855.381333a21.504 21.504 0 0 1-21.504-37.376l69.12-39.936a17.066667 17.066667 0 1 0-17.066667-29.525333L348.842667 768l-115.712-201.386667a214.698667 214.698667 0 0 1 78.506666-293.546666A211.968 211.968 0 0 1 494.933333 259.072V392.533333a29.184 29.184 0 0 0 17.066667 26.624 28.672 28.672 0 0 0 32.085333-6.314666L597.333333 360.618667h12.8zM819.2 318.976a7.68 7.68 0 0 1-7.68 7.509333h-221.866667a17.066667 17.066667 0 0 0-12.117333 5.12L529.066667 380.586667V173.397333a7.68 7.68 0 0 1 7.68-7.509333h275.285333a7.68 7.68 0 0 1 7.68 7.509333z" fill="#3D3D63" p-id="8596"></path><path d="M591.530667 232.789333h51.2a17.066667 17.066667 0 0 0 0-34.133333h-51.2a17.066667 17.066667 0 0 0 0 34.133333zM738.304 259.584h-146.773333a17.066667 17.066667 0 0 0 0 34.133333h146.773333a17.066667 17.066667 0 0 0 0-34.133333zM451.754667 707.754667l-14.848 8.533333a17.066667 17.066667 0 1 0 17.066666 29.525333l14.848-8.533333a17.066667 17.066667 0 0 0 6.144-23.381333 17.066667 17.066667 0 0 0-23.210666-6.144z" fill="#3D3D63" p-id="8597"></path></svg>