<?xml version="1.0" standalone="no"?><!DOCTYPE svg PUBLIC "-//W3C//DTD SVG 1.1//EN" "http://www.w3.org/Graphics/SVG/1.1/DTD/svg11.dtd"><svg t="1532074738288" class="icon" style="" viewBox="0 0 1024 1024" version="1.1" xmlns="http://www.w3.org/2000/svg" p-id="10162" xmlns:xlink="http://www.w3.org/1999/xlink" width="200" height="200"><defs><style type="text/css"></style></defs><path d="M484.010667 85.333333a17.066667 17.066667 0 0 0-17.066667 17.066667v31.744A399.872 399.872 0 0 0 282.624 187.733333a17.066667 17.066667 0 0 0-6.144 23.210667l9.728 17.066667a367.616 367.616 0 0 0-168.106667 290.986666h-11.776a17.066667 17.066667 0 0 0-17.066666 17.066667v258.56a17.066667 17.066667 0 0 0 17.066666 17.066667h136.533334a373.418667 373.418667 0 0 0 71.168 48.810666l-8.362667 17.066667a17.066667 17.066667 0 0 0 8.192 22.698667 402.944 402.944 0 0 0 572.245333-347.136h31.573334a17.066667 17.066667 0 0 0 17.066666-17.066667A451.242667 451.242667 0 0 0 484.010667 85.333333z m-8.021334 433.664h-93.866666a103.424 103.424 0 1 1 110.933333 119.466667v-102.4a17.066667 17.066667 0 0 0-17.066667-17.066667z m-9.045333-350.890666v231.594666a131.072 131.072 0 0 0-36.522667 9.728l-115.712-200.533333a365.909333 365.909333 0 0 1 152.234667-40.789333z m-163.669333 89.258666L401.066667 426.666667a136.533333 136.533333 0 0 0-53.418667 92.330666H152.234667a333.312 333.312 0 0 1 151.04-261.632zM123.392 553.130667h335.530667v224.426666H123.392z m174.933333 258.56h38.229334l-8.192 17.066666a331.946667 331.946667 0 0 1-30.037334-17.066666zM484.010667 904.533333a365.568 365.568 0 0 1-140.117334-27.477333l30.378667-65.365333h102.4a17.066667 17.066667 0 0 0 17.066667-17.066667v-121.514667a137.557333 137.557333 0 0 0 127.317333-119.466666h230.912A368.810667 368.810667 0 0 1 484.010667 904.533333zM870.4 518.997333H620.373333a138.069333 138.069333 0 0 0-119.466666-119.466666V119.466667a417.28 417.28 0 0 1 399.36 399.530666z" fill="#3D3D63" p-id="10163"></path><path d="M173.056 647.168h105.813333a17.066667 17.066667 0 1 0 0-34.133333h-105.813333a17.066667 17.066667 0 0 0 0 34.133333zM363.349333 683.52H173.056a17.066667 17.066667 0 0 0 0 34.133333h190.293333a17.066667 17.066667 0 0 0 0-34.133333z" fill="#3D3D63" p-id="10164"></path></svg>