<?xml version="1.0" standalone="no"?><!DOCTYPE svg PUBLIC "-//W3C//DTD SVG 1.1//EN" "http://www.w3.org/Graphics/SVG/1.1/DTD/svg11.dtd"><svg t="1532074696139" class="icon" style="" viewBox="0 0 1024 1024" version="1.1" xmlns="http://www.w3.org/2000/svg" p-id="9685" xmlns:xlink="http://www.w3.org/1999/xlink" width="200" height="200"><defs><style type="text/css"></style></defs><path d="M727.04 281.941333a17.066667 17.066667 0 0 0 17.066667-17.066666v-17.066667a286.208 286.208 0 0 1-29.184 371.370667 17.066667 17.066667 0 0 0 0 24.234666 17.066667 17.066667 0 0 0 24.234666 0 320.682667 320.682667 0 0 0 25.429334-425.472h26.453333a17.066667 17.066667 0 0 0 0-34.133333H727.04a17.066667 17.066667 0 0 0-17.066667 17.066667v64a17.066667 17.066667 0 0 0 17.066667 17.066666zM314.197333 631.466667v-64.512a17.066667 17.066667 0 0 0-34.133333 0v17.066666a286.208 286.208 0 0 1 29.013333-371.541333 17.066667 17.066667 0 0 0-24.234666-24.234667A320.682667 320.682667 0 0 0 259.413333 614.4h-26.282666a17.066667 17.066667 0 1 0 0 34.133333h64a17.066667 17.066667 0 0 0 17.066666-17.066666z" fill="#3D3D63" p-id="9686"></path><path d="M733.866667 691.882667a60.586667 60.586667 0 0 0-27.136 6.485333 61.44 61.44 0 0 0-61.269334-59.392 60.416 60.416 0 0 0-27.136 6.314667v-38.570667a218.112 218.112 0 1 0-211.114666 0v150.869333a62.634667 62.634667 0 0 0-75.776-22.698666 60.757333 60.757333 0 0 0-27.648 85.333333l49.322666 85.333333a38.4 38.4 0 0 0 33.28 19.285334h370.346667a38.4 38.4 0 0 0 37.546667-37.376v-134.314667A61.269333 61.269333 0 0 0 733.866667 691.882667zM328.021333 415.914667a183.978667 183.978667 0 1 1 290.133334 150.698666v-148.821333a61.269333 61.269333 0 1 0-122.538667 0v33.109333a60.586667 60.586667 0 0 0-27.306667-6.314666 61.269333 61.269333 0 0 0-61.269333 61.269333v60.586667a182.442667 182.442667 0 0 1-79.018667-150.528zM760.149333 887.466667a4.266667 4.266667 0 0 1-4.266666 4.266666h-370.346667a3.925333 3.925333 0 0 1-3.584-2.218666l-49.493333-85.333334a26.282667 26.282667 0 0 1-2.218667-21.504 25.770667 25.770667 0 0 1 14.336-16.042666 25.088 25.088 0 0 1 9.898667-2.048 29.525333 29.525333 0 0 1 25.088 15.189333l29.013333 50.176a17.066667 17.066667 0 0 0 31.914667-8.533333V505.856a27.306667 27.306667 0 0 1 54.442666 0v268.117333a17.066667 17.066667 0 1 0 34.133334 0V417.792a27.136 27.136 0 1 1 54.272 0V699.733333a17.066667 17.066667 0 0 0 34.133333 0 27.136 27.136 0 1 1 54.272 0v52.906667a17.066667 17.066667 0 1 0 34.133333 0 27.136 27.136 0 1 1 54.272 0z" fill="#3D3D63" p-id="9687"></path></svg>