<?xml version="1.0" standalone="no"?><!DOCTYPE svg PUBLIC "-//W3C//DTD SVG 1.1//EN" "http://www.w3.org/Graphics/SVG/1.1/DTD/svg11.dtd"><svg t="1532074677813" class="icon" style="" viewBox="0 0 1024 1024" version="1.1" xmlns="http://www.w3.org/2000/svg" p-id="9066" xmlns:xlink="http://www.w3.org/1999/xlink" width="200" height="200"><defs><style type="text/css"></style></defs><path d="M394.410667 714.24h-153.6a17.066667 17.066667 0 1 0 0 34.133333h153.6a17.066667 17.066667 0 1 0 0-34.133333zM240.298667 684.544h87.381333a17.066667 17.066667 0 1 0 0-34.133333h-87.381333a17.066667 17.066667 0 1 0 0 34.133333z" fill="#3D3D63" p-id="9067"></path><path d="M936.106667 571.562667a17.066667 17.066667 0 0 0-17.92-2.218667l-74.410667 34.133333v-97.792a52.224 52.224 0 0 0-40.96-51.2l10.410667-118.442666a17.066667 17.066667 0 0 0-3.925334-12.458667 17.066667 17.066667 0 0 0-11.605333-5.973333l-34.133333-3.072-6.485334-123.221334a17.066667 17.066667 0 0 0-17.92-16.042666L153.6 206.336a17.066667 17.066667 0 0 0-17.066667 17.92l4.778667 89.770667a17.066667 17.066667 0 0 0 17.92 16.042666 17.066667 17.066667 0 0 0 16.213333-17.92L171.690667 238.933333l552.618666-29.013333 5.290667 102.4-516.949333-45.568a17.066667 17.066667 0 0 0-18.602667 15.530667L187.733333 348.501333h-8.533333a52.224 52.224 0 0 0-52.224 51.2v390.656a52.224 52.224 0 0 0 52.224 52.224h521.386667v34.133334a17.066667 17.066667 0 0 0 17.066666 17.066666 17.066667 17.066667 0 0 0 9.557334-2.901333l79.018666-52.565333 57.002667 20.992a17.066667 17.066667 0 0 0 14.165333-1.024 17.066667 17.066667 0 0 0 8.362667-11.264l56.32-258.730667a17.066667 17.066667 0 0 0-5.973333-16.725333zM713.557333 768l-81.066666-29.866667 210.432-96.768zM226.645333 302.250667l551.082667 48.128-9.045333 102.4h-37.205334l4.949334-57.173334a17.066667 17.066667 0 0 0-15.530667-18.432l-162.816-14.336a17.066667 17.066667 0 0 0-18.602667 15.530667l-4.608 52.394667-80.554666-64.170667a87.04 87.04 0 0 0-54.272-18.944H221.866667z m470.528 151.381333h-116.053333a52.906667 52.906667 0 0 1-13.653333-2.048l4.608-52.394667 128.853333 11.264zM179.2 808.448a18.261333 18.261333 0 0 1-18.090667-18.090667V400.554667a18.090667 18.090667 0 0 1 18.090667-17.066667h220.842667a53.589333 53.589333 0 0 1 32.938666 11.434667l93.866667 74.752a88.064 88.064 0 0 0 54.272 18.944h210.602667a17.066667 17.066667 0 0 1 17.066666 17.92v113.664L580.266667 724.650667a17.066667 17.066667 0 0 0-10.069334 16.213333 17.066667 17.066667 0 0 0 11.264 15.189333l118.613334 43.690667v8.704z m555.52 36.693333V812.373333l31.744 11.605334z m121.856-24.405333l-107.52-39.594667 147.626667-144.213333z" fill="#3D3D63" p-id="9068"></path></svg>