<?xml version="1.0" standalone="no"?><!DOCTYPE svg PUBLIC "-//W3C//DTD SVG 1.1//EN" "http://www.w3.org/Graphics/SVG/1.1/DTD/svg11.dtd"><svg t="1532074286842" class="icon" style="" viewBox="0 0 1024 1024" version="1.1" xmlns="http://www.w3.org/2000/svg" p-id="3908" xmlns:xlink="http://www.w3.org/1999/xlink" width="200" height="200"><defs><style type="text/css"></style></defs><path d="M564.736 326.144a132.949333 132.949333 0 0 0 110.592-37.888l5.461333-5.461333L860.501333 462.506667l-21.162666 21.162666a140.8 140.8 0 0 0-38.570667 72.362667 141.312 141.312 0 0 1-38.4 72.362667L584.362667 806.229333l-165.888-165.888-71.509334-71.338666-48.981333-48.981334 156.16-156.16a132.266667 132.266667 0 0 1 110.592-37.717333z" fill="#FFDEAD" p-id="3909"></path><path d="M794.965333 577.024c12.8-42.666667-132.437333-100.522667-132.437333-100.522667l-102.4-31.402666-13.994667 38.4 81.749334 82.944L682.666667 667.818667l34.133333 6.314666 45.909333-45.738666a141.653333 141.653333 0 0 0 32.256-51.370667z" fill="#FFC670" p-id="3910"></path><path d="M301.870951 173.8292l76.148801 76.1488-247.393093 247.393093-76.1488-76.148801 247.393092-247.393092Z" fill="#96DDFF" p-id="3911"></path><path d="M113.664 361.984l76.117333 76.117333-34.133333 34.133334a34.133333 34.133333 0 0 1-48.298667 0l-28.672-26.965334a34.133333 34.133333 0 0 1 0-48.298666z" fill="#69BAF9" p-id="3912"></path><path d="M530.090667 422.058667l-64.682667 64.512-66.901333-66.901334L476.842667 341.333333l-68.266667-8.533333a51.2 51.2 0 0 1-29.866667-14.677333l-35.157333-35.157334L163.498667 462.506667l55.978666 55.978666a70.826667 70.826667 0 0 1 18.432 31.914667A180.053333 180.053333 0 0 0 284.501333 631.466667l154.624 154.794666 155.989334-155.989333 71.509333-71.509333z" fill="#FFF6E6" p-id="3913"></path><path d="M969.512144 421.300556l-76.148801 76.148801-247.393092-247.393093 76.148801-76.1488 247.393092 247.393092Z" fill="#FFC670" p-id="3914"></path><path d="M910.336 361.984l-76.117333 76.117333 34.133333 34.133334a34.133333 34.133333 0 0 0 48.298667 0l27.818666-27.818667a34.133333 34.133333 0 0 0 0-48.298667z" fill="#FF9A42" p-id="3915"></path><path d="M575.658667 467.626667l173.226666 173.056a40.106667 40.106667 0 0 1 0 56.832 40.448 40.448 0 0 1-57.002666 0L518.826667 524.458667" fill="#FFF6E6" p-id="3916"></path><path d="M518.826667 524.458667L736.768 742.4a40.106667 40.106667 0 0 1 0 56.832 40.106667 40.106667 0 0 1-56.832 0L461.994667 581.290667" fill="#FFF6E6" p-id="3917"></path><path d="M461.994667 581.290667L635.050667 754.346667a40.448 40.448 0 0 1 0 57.002666 40.106667 40.106667 0 0 1-56.832 0L405.162667 638.122667M405.162667 638.122667L534.698667 768a40.106667 40.106667 0 0 1 0 56.832 40.106667 40.106667 0 0 1-56.832 0l-129.536-129.706667" fill="#FFF6E6" p-id="3918"></path><path d="M323.072 669.696m-40.277333 0a40.277333 40.277333 0 1 0 80.554666 0 40.277333 40.277333 0 1 0-80.554666 0Z" fill="#FFDEAD" p-id="3919"></path><path d="M379.904 726.528m-40.277333 0a40.277333 40.277333 0 1 0 80.554666 0 40.277333 40.277333 0 1 0-80.554666 0Z" fill="#FFDEAD" p-id="3920"></path><path d="M436.736 783.36m-40.277333 0a40.277333 40.277333 0 1 0 80.554666 0 40.277333 40.277333 0 1 0-80.554666 0Z" fill="#FFDEAD" p-id="3921"></path><path d="M669.525333 476.842667a215.722667 215.722667 0 0 1-100.181333-27.306667 64.341333 64.341333 0 0 0-76.970667 10.069333l-56.490666 56.490667a47.104 47.104 0 0 1-66.901334 0 47.104 47.104 0 0 1 0-66.901333l88.917334-89.088" fill="#FFDEAD" p-id="3922"></path><path d="M957.098667 385.365333L757.930667 186.197333a51.2 51.2 0 0 0-71.68 0l-27.818667 27.818667a51.2 51.2 0 0 0-2.218667 69.12 116.736 116.736 0 0 1-89.429333 26.453333 150.698667 150.698667 0 0 0-86.698667 15.530667h-1.194666l-68.266667-8.704a34.133333 34.133333 0 0 1-20.138667-9.898667l-22.698666-22.698666a51.2 51.2 0 0 0-1.877334-69.461334l-27.818666-27.818666a51.2 51.2 0 0 0-71.68 0L66.901333 385.365333a51.2 51.2 0 0 0 0 71.68l27.818667 27.818667a51.2 51.2 0 0 0 69.461333 1.877333l43.690667 43.52A56.490667 56.490667 0 0 1 221.866667 554.666667a196.608 196.608 0 0 0 51.2 88.234666 56.661333 56.661333 0 0 0 50.005333 83.285334 56.490667 56.490667 0 0 0 56.832 56.832 57.514667 57.514667 0 0 0 17.066667 40.277333 56.32 56.32 0 0 0 66.730666 9.728l3.072 3.072a56.490667 56.490667 0 0 0 93.184-20.48l6.997334 6.997333a56.661333 56.661333 0 0 0 80.384 0 53.76 53.76 0 0 0 12.458666-20.48l8.362667 8.362667a56.832 56.832 0 0 0 80.384-80.384l-8.362667-8.362667a53.76 53.76 0 0 0 20.309334-12.970666 56.32 56.32 0 0 0 17.066666-40.106667 55.466667 55.466667 0 0 0-6.485333-25.770667l3.242667-3.413333a155.306667 155.306667 0 0 0 43.178666-80.725333 122.197333 122.197333 0 0 1 34.133334-63.829334l8.704-8.704a51.2 51.2 0 0 0 69.461333-1.877333l27.818667-27.818667a51.2 51.2 0 0 0-0.512-71.168zM118.272 460.8L90.453333 433.664a17.066667 17.066667 0 0 1 0-24.064L290.133333 209.749333a17.066667 17.066667 0 0 1 24.746667 0L341.333333 237.568a17.066667 17.066667 0 0 1 0 24.746667L143.018667 460.8a17.066667 17.066667 0 0 1-24.746667 0zM307.2 686.421333a23.722667 23.722667 0 0 1 0-34.133333 23.722667 23.722667 0 0 1 33.28 0 23.552 23.552 0 0 1-33.28 34.133333z m56.832 56.832a23.552 23.552 0 0 1 17.066667-40.277333 23.04 23.04 0 0 1 17.066666 6.826667 23.893333 23.893333 0 0 1 0 34.133333 24.064 24.064 0 0 1-34.986666-0.682667z m56.832 56.832a23.552 23.552 0 0 1 0-34.133333 24.064 24.064 0 0 1 17.066667-6.826667 23.552 23.552 0 1 1-17.066667 40.277334z m317.098667-114.176a24.405333 24.405333 0 0 1-34.133334 0L530.602667 512a17.066667 17.066667 0 1 0-23.552 23.552l217.941333 218.624a23.722667 23.722667 0 0 1 6.997333 17.066667 23.210667 23.210667 0 0 1-6.997333 17.066666 23.722667 23.722667 0 0 1-33.28 0L473.770667 569.514667a17.066667 17.066667 0 0 0-23.552 23.552l173.226666 173.056a23.722667 23.722667 0 0 1-34.133333 34.133333L416.938667 626.346667a17.066667 17.066667 0 0 0-23.552 23.552l129.706666 129.706666a23.552 23.552 0 1 1-34.133333 34.133334l-3.072-3.072a56.32 56.32 0 0 0-50.005333-83.114667 55.637333 55.637333 0 0 0-56.832-56.32 56.490667 56.490667 0 0 0-83.114667-51.2A163.157333 163.157333 0 0 1 253.952 546.133333a85.333333 85.333333 0 0 0-22.698667-39.253333L187.733333 463.530667 344.064 307.2l22.528 22.528a68.266667 68.266667 0 0 0 39.424 19.285333l35.157333 4.437334-83.968 83.968a64 64 0 1 0 90.453334 90.453333l56.490666-56.490667a47.274667 47.274667 0 0 1 38.741334-13.141333l194.218666 194.218667a23.552 23.552 0 0 1 6.826667 17.066666 23.722667 23.722667 0 0 1-6.826667 16.384z m47.104-133.12a124.074667 124.074667 0 0 1-34.133334 63.829334l-1.194666 1.194666-131.925334-131.584a225.962667 225.962667 0 0 0 51.2 7.168 15.872 15.872 0 0 0 17.066667-16.213333 17.066667 17.066667 0 0 0-17.066667-17.066667 201.216 201.216 0 0 1-92.330666-25.258666 81.237333 81.237333 0 0 0-96.768 12.8l-56.490667 56.490666a30.72 30.72 0 1 1-42.666667-43.349333l85.333334-85.333333A117.077333 117.077333 0 0 1 563.2 342.528 149.845333 149.845333 0 0 0 679.424 307.2L836.266667 463.530667l-8.533334 8.362666a156.16 156.16 0 0 0-42.666666 80.896z m148.992-119.466666L905.728 460.8a17.066667 17.066667 0 0 1-24.746667 0L682.666667 262.314667a17.066667 17.066667 0 0 1 0-24.746667l27.818666-27.818667a17.066667 17.066667 0 0 1 24.746667 0L933.546667 409.6a17.066667 17.066667 0 0 1 0 24.064z" fill="#3D3D63" p-id="3923"></path></svg>