<?xml version="1.0" standalone="no"?><!DOCTYPE svg PUBLIC "-//W3C//DTD SVG 1.1//EN" "http://www.w3.org/Graphics/SVG/1.1/DTD/svg11.dtd"><svg t="1532074313890" class="icon" style="" viewBox="0 0 1024 1024" version="1.1" xmlns="http://www.w3.org/2000/svg" p-id="5741" xmlns:xlink="http://www.w3.org/1999/xlink" width="200" height="200"><defs><style type="text/css"></style></defs><path d="M335.460702 79.749095l532.135971 122.853269-179.173815 776.087056-532.135971-122.853269 179.173815-776.087056Z" fill="#FFC670" p-id="5742"></path><path d="M238.933333 130.901333l546.133334 0 0 796.501334-546.133334 0 0-796.501334Z" fill="#FFF6E6" p-id="5743"></path><path d="M438.442667 265.045333l-40.277334 40.277334L358.4 265.045333a56.832 56.832 0 1 0 97.109333 40.277334 57.344 57.344 0 0 0-17.066666-40.277334z" fill="#79DEB4" p-id="5744"></path><path d="M837.973333 178.176L802.133333 170.666667v-5.461334a51.2 51.2 0 0 0-51.2-51.2H559.445333L372.906667 70.656a51.2 51.2 0 0 0-61.781334 38.570667l-1.024 4.608H273.066667a51.2 51.2 0 0 0-51.2 51.2v330.922666L147.456 819.2a51.2 51.2 0 0 0 38.570667 61.610667l35.84 8.362666v4.608a51.2 51.2 0 0 0 51.2 51.2h193.194666l1.877334 0.853334 182.954666 42.325333a51.2 51.2 0 0 0 61.781334-38.570667l1.024-4.608H750.933333a51.2 51.2 0 0 0 51.2-51.2V562.176l74.410667-322.389333a51.2 51.2 0 0 0-38.570667-61.610667zM221.866667 853.333333l-28.16-6.656a17.066667 17.066667 0 0 1-12.970667-20.650666L221.866667 648.533333z m143.36-749.397333l42.496 9.898667h-61.952a17.066667 17.066667 0 0 1 19.456-9.898667z m293.546666 850.261333l-42.325333-9.898666h61.781333a17.066667 17.066667 0 0 1-19.456 9.898666z m109.226667-61.269333a17.066667 17.066667 0 0 1-17.066667 17.066667H273.066667a17.066667 17.066667 0 0 1-17.066667-17.066667V165.205333a17.066667 17.066667 0 0 1 17.066667-17.066666h477.866666a17.066667 17.066667 0 0 1 17.066667 17.066666z m75.264-660.821333L802.133333 410.453333V204.8l28.16 6.485333a17.066667 17.066667 0 0 1 12.970667 20.821334z" fill="#3D3D63" p-id="5745"></path><path d="M682.666667 816.298667H358.4V677.546667a17.066667 17.066667 0 0 0-34.133333 0v155.818666a17.066667 17.066667 0 0 0 17.066666 17.066667h341.333334a17.066667 17.066667 0 0 0 0-34.133333zM398.165333 379.221333a74.069333 74.069333 0 0 0 74.069334-73.898666 73.216 73.216 0 0 0-11.434667-38.741334l31.061333-30.890666a17.066667 17.066667 0 0 0-24.234666-24.234667l-69.632 69.632-38.741334-38.741333a17.066667 17.066667 0 0 0-24.064 0 17.066667 17.066667 0 0 0 0 24.064 73.045333 73.045333 0 0 0-10.922666 38.912 73.898667 73.898667 0 0 0 73.898666 73.898666z m-37.376-87.210666l25.429334 25.429333a17.066667 17.066667 0 0 0 11.946666 4.949333 17.066667 17.066667 0 0 0 11.434667-4.949333l25.429333-25.429333a43.690667 43.690667 0 0 1 2.389334 13.312 39.936 39.936 0 0 1-79.701334 0 39.082667 39.082667 0 0 1 3.072-13.312zM398.165333 566.272A74.069333 74.069333 0 1 0 324.266667 492.202667a74.24 74.24 0 0 0 73.898666 74.069333z m0-113.834667A39.936 39.936 0 1 1 358.4 492.202667a39.936 39.936 0 0 1 39.765333-39.765334z" fill="#3D3D63" p-id="5746"></path><path d="M682.666667 603.818667h-66.901334a17.066667 17.066667 0 0 0 0 34.133333h25.770667L546.133333 733.866667l-67.072-68.266667a17.066667 17.066667 0 0 0-24.064 0l-61.098666 61.269333A17.066667 17.066667 0 1 0 417.962667 750.933333l49.152-49.152 66.901333 67.072a17.066667 17.066667 0 0 0 24.234667 0L665.6 662.186667v25.6a17.066667 17.066667 0 0 0 34.133333 0v-66.901334a17.066667 17.066667 0 0 0-17.066666-17.066666zM534.698667 475.136h73.216a17.066667 17.066667 0 0 0 0-34.133333h-73.216a17.066667 17.066667 0 0 0 0 34.133333zM534.698667 543.573333h140.458666a17.066667 17.066667 0 0 0 0-34.133333h-140.458666a17.066667 17.066667 0 0 0 0 34.133333zM534.698667 288.256h73.216a17.066667 17.066667 0 0 0 0-34.133333h-73.216a17.066667 17.066667 0 0 0 0 34.133333zM534.698667 356.522667h140.458666a17.066667 17.066667 0 0 0 0-34.133334h-140.458666a17.066667 17.066667 0 0 0 0 34.133334z" fill="#3D3D63" p-id="5747"></path></svg>