<?xml version="1.0" standalone="no"?><!DOCTYPE svg PUBLIC "-//W3C//DTD SVG 1.1//EN" "http://www.w3.org/Graphics/SVG/1.1/DTD/svg11.dtd"><svg t="1532074343281" class="icon" style="" viewBox="0 0 1024 1024" version="1.1" xmlns="http://www.w3.org/2000/svg" p-id="7814" xmlns:xlink="http://www.w3.org/1999/xlink" width="200" height="200"><defs><style type="text/css"></style></defs><path d="M217.6 324.266667a114.858667 114.858667 0 0 0-52.394667 24.064A32.768 32.768 0 0 0 153.6 371.2l-4.266667 58.538667 169.472-29.866667-23.893333-53.589333a34.133333 34.133333 0 0 0-19.456-18.090667 112.469333 112.469333 0 0 0-57.856-3.925333zM610.986667 254.122667a112.469333 112.469333 0 0 1 57.514666 4.608 34.133333 34.133333 0 0 1 19.285334 18.261333l24.064 53.589333-169.472 29.866667 3.754666-58.538667a32.768 32.768 0 0 1 11.946667-23.722666 111.445333 111.445333 0 0 1 52.906667-24.064z" fill="#D8E3F0" p-id="7815"></path><path d="M245.1456 417.348267l372.1216-65.621334 37.461333 212.445867-372.1216 65.621333z" fill="#96DDFF" p-id="7816"></path><path d="M455.509333 522.752c-80.042667 13.994667-152.234667 11.264-192.512-4.437333l19.626667 111.616 372.053333-65.706667-19.626666-111.616c-32.597333 28.672-99.498667 55.978667-179.541334 70.144z" fill="#69BAF9" p-id="7817"></path><path d="M182.101333 887.466667A96.256 96.256 0 0 1 102.4 785.066667l19.285333-303.786667 254.976 45.056-85.333333 291.84a96.426667 96.426667 0 0 1-109.226667 69.290667z" fill="#96DDFF" p-id="7818"></path><path d="M198.656 795.136a130.901333 130.901333 0 0 1-92.330667-66.56L102.4 785.066667a96.256 96.256 0 0 0 79.701333 102.4 96.426667 96.426667 0 0 0 109.226667-68.266667l15.872-54.272a130.730667 130.730667 0 0 1-108.544 30.208z" fill="#69BAF9" p-id="7819"></path><path d="M249.514667 504.32m-129.365334 0a129.365333 129.365333 0 1 0 258.730667 0 129.365333 129.365333 0 1 0-258.730667 0Z" fill="#EDF4FF" p-id="7820"></path><path d="M260.778667 567.978667A129.194667 129.194667 0 0 1 120.661333 494.933333a131.584 131.584 0 0 0 1.365334 32.597334 129.536 129.536 0 0 0 254.976-45.056 134.656 134.656 0 0 0-9.898667-31.061334 129.194667 129.194667 0 0 1-106.325333 116.565334z" fill="#D8E3F0" p-id="7821"></path><path d="M836.266667 771.072A96.597333 96.597333 0 0 0 877.056 648.533333l-122.197333-278.357333-224.085334 129.536 180.394667 245.077333A96.426667 96.426667 0 0 0 836.266667 771.072z" fill="#96DDFF" p-id="7822"></path><path d="M587.093333 576.170667m-59.221333 0a59.221333 59.221333 0 1 0 118.442667 0 59.221333 59.221333 0 1 0-118.442667 0Z" fill="#69BAF9" p-id="7823"></path><path d="M790.186667 690.688A130.56 130.56 0 0 0 854.186667 597.333333l22.869333 51.2A96.597333 96.597333 0 0 1 836.266667 771.072a96.426667 96.426667 0 0 1-125.781334-26.282667l-34.133333-45.226666a130.56 130.56 0 0 0 113.834667-8.874667z" fill="#69BAF9" p-id="7824"></path><path d="M642.901333 434.858667m-129.365333 0a129.365333 129.365333 0 1 0 258.730667 0 129.365333 129.365333 0 1 0-258.730667 0Z" fill="#EDF4FF" p-id="7825"></path><path d="M654.165333 498.688a129.536 129.536 0 0 1-140.117333-73.898667 130.901333 130.901333 0 0 0 1.365333 32.597334 129.365333 129.365333 0 1 0 254.805334-44.885334 124.416 124.416 0 0 0-9.728-31.061333 129.536 129.536 0 0 1-106.325334 117.248z" fill="#D8E3F0" p-id="7826"></path><path d="M350.208 617.984m-59.221333 0a59.221333 59.221333 0 1 0 118.442666 0 59.221333 59.221333 0 1 0-118.442666 0Z" fill="#69BAF9" p-id="7827"></path><path d="M750.592 304.128m-159.232 0a159.232 159.232 0 1 0 318.464 0 159.232 159.232 0 1 0-318.464 0Z" fill="#FFDEAD" p-id="7828"></path><path d="M831.488 167.082667A156.330667 156.330667 0 0 1 614.4 385.536a159.232 159.232 0 1 0 217.088-218.453333z" fill="#FFC670" p-id="7829"></path><path d="M246.272 477.866667a17.066667 17.066667 0 0 0 13.824-19.797334L256 437.077333a17.066667 17.066667 0 1 0-34.133333 5.973334l3.754666 21.162666a17.066667 17.066667 0 0 0 20.650667 13.653334zM189.952 531.797333l21.333333-3.754666A17.066667 17.066667 0 1 0 204.8 494.933333l-21.162667 3.754667a17.066667 17.066667 0 0 0 5.802667 34.133333zM241.493333 549.205333l3.754667 21.162667a17.066667 17.066667 0 0 0 19.626667 13.824 17.066667 17.066667 0 0 0 13.994666-19.626667l-3.754666-21.333333A17.066667 17.066667 0 0 0 256 529.066667a17.066667 17.066667 0 0 0-14.506667 20.138666zM296.277333 513.024l21.162667-3.754667a17.066667 17.066667 0 1 0-5.973333-34.133333l-21.333334 4.266667a17.066667 17.066667 0 1 0 5.973334 34.133333zM598.698667 425.130667l-21.162667 3.754666a17.066667 17.066667 0 0 0-14.336 19.626667 17.066667 17.066667 0 0 0 19.797333 13.994667l21.333334-3.754667a17.066667 17.066667 0 0 0 13.824-19.797333 17.066667 17.066667 0 0 0-19.456-13.824zM648.533333 460.8a17.066667 17.066667 0 0 0-13.824 19.626667l3.754667 21.333333a17.066667 17.066667 0 0 0 19.626667 13.824 17.066667 17.066667 0 0 0 14.165333-20.650667l-3.754667-21.162666A17.066667 17.066667 0 0 0 648.533333 460.8zM826.026667 327.68a17.066667 17.066667 0 0 0-22.869334 7.68 51.2 51.2 0 0 1-96.768-20.650667 17.066667 17.066667 0 0 0-17.066666-17.066666 17.066667 17.066667 0 0 0-17.066667 17.066666 85.333333 85.333333 0 0 0 161.450667 34.133334 17.066667 17.066667 0 0 0-7.68-21.162667zM699.733333 265.386667a22.528 22.528 0 0 0 26.965334-17.066667 22.869333 22.869333 0 0 0-17.066667-27.136A23.04 23.04 0 0 0 682.666667 238.933333a22.869333 22.869333 0 0 0 17.066666 26.453334zM838.485333 248.32a22.698667 22.698667 0 1 0 17.066667 26.965333 22.869333 22.869333 0 0 0-17.066667-26.965333z" fill="#3D3D63" p-id="7830"></path><path d="M933.546667 332.458667a176.298667 176.298667 0 0 0-339.968-91.989334 130.901333 130.901333 0 0 0-44.544 23.893334 51.2 51.2 0 0 0-18.261334 35.84l-3.242666 45.909333-3.072 4.437333-48.981334 8.704c25.6-36.181333 54.613333-93.013333 32.768-146.261333C475.989333 134.997333 358.4 136.533333 323.242667 139.264a273.066667 273.066667 0 0 0-81.749334 17.066667c-30.72 12.117333-52.565333 13.824-70.826666 5.290666a31.232 31.232 0 0 1-17.066667-26.453333 17.066667 17.066667 0 1 0-34.133333 2.730667 65.194667 65.194667 0 0 0 37.034666 55.466666 123.904 123.904 0 0 0 97.792-4.608 236.202667 236.202667 0 0 1 71.509334-15.36c60.928-4.266667 132.266667 7.338667 151.04 52.565334 23.04 56.149333-37.205333 125.781333-52.736 142.336l-89.429334 15.701333-4.437333-3.242667-18.773333-41.984a50.176 50.176 0 0 0-29.354667-27.306666 132.949333 132.949333 0 0 0-126.293333 22.357333 51.2 51.2 0 0 0-18.261334 35.669333l-3.242666 45.909334a145.92 145.92 0 0 0-29.866667 88.405333v16.384l-17.066667 263.68a113.322667 113.322667 0 0 0 93.525334 119.466667 113.493333 113.493333 0 0 0 128.512-79.872l38.058666-129.706667a39.253333 39.253333 0 0 0 4.437334 0A76.288 76.288 0 0 0 426.666667 621.226667l90.624-15.872a76.8 76.8 0 0 0 70.485333 46.592 74.24 74.24 0 0 0 30.208-6.314667l80.042667 108.714667a113.493333 113.493333 0 0 0 195.242666-112.810667L815.786667 463.189333a176.469333 176.469333 0 0 0 117.76-130.730666z m-368.64-29.866667a17.066667 17.066667 0 0 1 5.802666-11.776 84.138667 84.138667 0 0 1 14.677334-9.728 192.853333 192.853333 0 0 0 0 19.797333 141.312 141.312 0 0 0-20.650667 11.264z m-59.733334 85.333333a144.725333 144.725333 0 0 0 25.088 137.557334A75.605333 75.605333 0 0 0 512 571.733333l-90.624 15.872a76.629333 76.629333 0 0 0-32.256-36.352 144.896 144.896 0 0 0-23.722667-138.069333z m-333.653333-17.066666a17.066667 17.066667 0 0 1 5.802667-11.776 97.962667 97.962667 0 0 1 93.354666-17.066667 17.066667 17.066667 0 0 1 9.557334 9.045333l3.754666 8.533334A142.506667 142.506667 0 0 0 170.666667 381.269333z m79.189333 19.456a112.469333 112.469333 0 0 1 112.298667 112.469333 110.933333 110.933333 0 0 1-6.656 37.717333 48.64 48.64 0 0 0-4.949333 0 76.288 76.288 0 0 0-75.946667 72.192 116.906667 116.906667 0 0 1-24.746667 2.901334 112.469333 112.469333 0 0 1 0-224.768z m25.429334 422.058666A79.189333 79.189333 0 0 1 121.002667 785.066667l12.458666-195.072a145.92 145.92 0 0 0 117.248 59.221333 149.333333 149.333333 0 0 0 30.378667-3.413333A76.458667 76.458667 0 0 0 314.197333 682.666667z m75.264-153.6a42.325333 42.325333 0 1 1 42.325333-42.325333 42.325333 42.325333 0 0 1-42.325333 43.178667z m237.056-40.96A42.325333 42.325333 0 0 1 546.133333 575.658667a40.96 40.96 0 0 1 8.704-25.429334A145.92 145.92 0 0 0 630.101333 580.266667a41.984 41.984 0 0 1-41.642666 37.546666z m-56.661334-183.466666a112.469333 112.469333 0 0 1 57.685334-97.962667 176.469333 176.469333 0 0 0 134.826666 131.925333 187.733333 187.733333 0 0 0 25.6 3.413334 112.298667 112.298667 0 0 1-218.112-37.376z m330.922667 220.842666a79.36 79.36 0 0 1-136.533333 78.848l-80.213334-108.885333A75.605333 75.605333 0 0 0 664.405333 580.266667a146.261333 146.261333 0 0 0 119.466667-102.4z m-131.242667-220.16a142.336 142.336 0 1 1 168.618667-109.568 142.336 142.336 0 0 1-168.618667 109.568z" fill="#3D3D63" p-id="7831"></path></svg>