<?xml version="1.0" standalone="no"?><!DOCTYPE svg PUBLIC "-//W3C//DTD SVG 1.1//EN" "http://www.w3.org/Graphics/SVG/1.1/DTD/svg11.dtd"><svg t="1532074320337" class="icon" style="" viewBox="0 0 1024 1024" version="1.1" xmlns="http://www.w3.org/2000/svg" p-id="6225" xmlns:xlink="http://www.w3.org/1999/xlink" width="200" height="200"><defs><style type="text/css"></style></defs><path d="M377.685333 693.248a303.957333 303.957333 0 1 1 268.117334 0" fill="#FFC670" p-id="6226"></path><path d="M412.672 640.682667a224.768 224.768 0 1 1 198.144 0 17.066667 17.066667 0 0 1-7.68 1.706666" fill="#FFA742" p-id="6227"></path><path d="M423.253333 595.626667a201.045333 201.045333 0 1 1 177.152 0" fill="#F6716F" p-id="6228"></path><path d="M512 523.605333a222.890667 222.890667 0 0 1-200.192-124.757333c0 5.461333-0.853333 10.752-0.853333 17.066667A200.874667 200.874667 0 0 0 423.253333 595.626667h177.152a201.216 201.216 0 0 0 112.64-180.565334c0-5.632 0-10.922667-0.853333-17.066666A222.890667 222.890667 0 0 1 512 523.605333z" fill="#F0504D" p-id="6229"></path><path d="M367.104 897.024a21.162667 21.162667 0 0 0 18.432 10.581333h370.346667a21.162667 21.162667 0 0 0 21.333333-21.333333v-132.949333A44.202667 44.202667 0 0 0 733.866667 709.12a44.373333 44.373333 0 0 0-44.202667 44.202667v-51.2a44.202667 44.202667 0 1 0-88.405333 0V423.424A44.202667 44.202667 0 0 0 546.133333 380.586667a45.568 45.568 0 0 0-34.133333 44.885333v85.333333a43.349333 43.349333 0 0 0-13.141333-31.402666 43.861333 43.861333 0 0 0-34.133334-12.8 45.397333 45.397333 0 0 0-40.96 46.08v307.2l-29.013333-51.2a45.397333 45.397333 0 0 0-56.832-20.138667 43.690667 43.690667 0 0 0-19.968 61.610667z" fill="#FFDEAD" p-id="6230"></path><path d="M727.04 281.258667a17.066667 17.066667 0 0 0 17.066667-17.066667v-17.066667a286.208 286.208 0 0 1-29.184 371.370667 17.066667 17.066667 0 1 0 24.234666 24.064 320.512 320.512 0 0 0 25.429334-424.96h26.453333a17.066667 17.066667 0 0 0 0-34.133333H727.04a17.066667 17.066667 0 0 0-17.066667 17.066666v64a17.066667 17.066667 0 0 0 17.066667 16.725334zM314.197333 630.272v-64a17.066667 17.066667 0 0 0-34.133333 0v17.066667a286.208 286.208 0 0 1 29.013333-371.541334 17.066667 17.066667 0 0 0 0-24.064 17.066667 17.066667 0 0 0-24.234666 0 320.682667 320.682667 0 0 0-25.429334 425.472h-26.282666a17.066667 17.066667 0 0 0 0 34.133334h64a17.066667 17.066667 0 0 0 17.066666-17.066667z" fill="#3D3D63" p-id="6231"></path><path d="M733.866667 691.2a60.416 60.416 0 0 0-27.136 6.314667 61.44 61.44 0 0 0-61.269334-59.221334 60.416 60.416 0 0 0-27.136 6.314667v-38.570667a218.112 218.112 0 1 0-211.114666 0v151.04A62.634667 62.634667 0 0 0 330.581333 733.866667a60.586667 60.586667 0 0 0-27.648 85.333333l49.322667 85.333333a38.741333 38.741333 0 0 0 33.28 19.285334h370.346667a38.4 38.4 0 0 0 38.4-38.4v-132.949334A61.269333 61.269333 0 0 0 733.866667 691.2zM328.021333 415.232a183.978667 183.978667 0 1 1 290.133334 150.698667v-148.821334a61.269333 61.269333 0 1 0-122.538667 0v33.109334A60.586667 60.586667 0 0 0 467.626667 443.733333a61.269333 61.269333 0 0 0-61.269334 61.269334v60.586666a182.442667 182.442667 0 0 1-78.336-150.357333z m432.128 471.210667a4.266667 4.266667 0 0 1-4.266666 4.266666h-370.346667a3.925333 3.925333 0 0 1-3.584-2.218666l-49.493333-85.333334a25.941333 25.941333 0 0 1-2.218667-21.333333 26.453333 26.453333 0 0 1 14.336-16.213333 25.088 25.088 0 0 1 9.898667-2.048 29.525333 29.525333 0 0 1 25.088 15.189333l29.013333 51.2a17.066667 17.066667 0 0 0 31.914667-8.533333V505.173333a27.306667 27.306667 0 0 1 54.442666 0v267.946667a17.066667 17.066667 0 1 0 34.133334 0V417.109333a27.136 27.136 0 1 1 54.272 0V699.733333a17.066667 17.066667 0 0 0 34.133333 0 27.136 27.136 0 1 1 54.272 0v52.906667a17.066667 17.066667 0 0 0 34.133333 0 27.136 27.136 0 1 1 54.272 0z" fill="#3D3D63" p-id="6232"></path></svg>