<?xml version="1.0" standalone="no"?><!DOCTYPE svg PUBLIC "-//W3C//DTD SVG 1.1//EN" "http://www.w3.org/Graphics/SVG/1.1/DTD/svg11.dtd"><svg t="1531989102169" class="icon" style="" viewBox="0 0 1024 1024" version="1.1" xmlns="http://www.w3.org/2000/svg" p-id="1817" xmlns:xlink="http://www.w3.org/1999/xlink" width="200" height="200"><defs><style type="text/css"></style></defs><path d="M97.9 685.2V552.4l324.5 96.1V683c0 8.2 6.5 14.8 14.5 14.8h150.2c8 0 14.5-6.6 14.5-14.8v-34l309.9-96.5v356H97.9V685.2z" fill="#FFFFFF" p-id="1818"></path><path d="M97.9 653.5V523.4l324.5 94.1v33.8c0 8 6.5 14.5 14.5 14.5h150.2c8 0 14.5-6.5 14.5-14.5V618l309.9-94.6v348.9H97.9V653.5z" fill="#65D5EF" p-id="1819"></path><path d="M445.3 594.2h133.5v81.5H445.3z" fill="#E87A66" p-id="1820"></path><path d="M588.2 573.7H438c-8 0-14.5 6.5-14.5 14.5v29l-329.3-100V267.4h837.9v249.8L602.7 617.8v-29.6c0-8-6.5-14.5-14.5-14.5z" fill="#F7DF8A" p-id="1821"></path><path d="M97.9 794c8 0 14.5-6.7 14.5-15v-32c0-8.3-6.5-15-14.5-15s-14.5 6.7-14.5 15v32c0 8.3 6.5 15 14.5 15z" fill="#274359" p-id="1822"></path><path d="M945.5 238.4H663.3V133.8c0-22.8-18.5-41.3-41.3-41.3H402c-22.8 0-41.3 18.5-41.3 41.3v104.6H78.5c-8 0-14.5 6.5-14.5 14.5v275c0 6.4 4.2 12 10.3 13.9l9.1 2.8v138.9c0 8 6.5 14.5 14.5 14.5s14.5-6.5 14.5-14.5V553.4l309.9 94.1v33.8c0 8 6.5 14.5 14.5 14.5H587c8 0 14.5-6.5 14.5-14.5V648l309.9-94.6v348.9h-799v-70c0-8-6.5-14.5-14.5-14.5s-14.5 6.5-14.5 14.5v84.5c0 8 6.5 14.5 14.5 14.5h828.2c8 0 14.5-6.5 14.5-14.5V544.7l9.1-2.8c6.1-1.9 10.3-7.5 10.3-13.9V253c0-8.1-6.5-14.6-14.5-14.6zM389.7 133.8c0-6.8 5.5-12.3 12.3-12.3h220c6.8 0 12.3 5.5 12.3 12.3v104.6H389.7V133.8z m182.9 533.1H451.4v-64.2h121.2v64.2z m14.5-93.2H436.9c-8 0-14.5 6.5-14.5 14.5v29L93 517.2V267.4h838v249.8L601.6 617.8v-29.6c0-8-6.5-14.5-14.5-14.5z" fill="#274359" p-id="1823"></path></svg>