<?xml version="1.0" standalone="no"?><!DOCTYPE svg PUBLIC "-//W3C//DTD SVG 1.1//EN" "http://www.w3.org/Graphics/SVG/1.1/DTD/svg11.dtd"><svg t="1531989133414" class="icon" style="" viewBox="0 0 1024 1024" version="1.1" xmlns="http://www.w3.org/2000/svg" p-id="3024" xmlns:xlink="http://www.w3.org/1999/xlink" width="200" height="200"><defs><style type="text/css"></style></defs><path d="M101.1 419.2h636.5c4.5 0 8.1 3.6 8.1 8.1v72.5H93v-72.5c0-4.5 3.7-8.1 8.1-8.1zM93 528.8h652.7v56.3H93v-56.3z m644.6 306.1H101.1c-4.5 0-8.1-3.6-8.1-8.1V614.2h652.7v174.4c-0.4 2-0.4 4 0 5.9v32.4c0 4.4-3.6 8-8.1 8z" fill="#FFFFFF" p-id="3025"></path><path d="M101.1 419.2h636.5c4.5 0 8.1 3.6 8.1 8.1v72.5H93v-72.5c0-4.5 3.7-8.1 8.1-8.1zM93 528.8h652.7v56.3H93v-56.3z m644.6 276.1H101.1c-4.5 0-8.1-3.6-8.1-8.1V614.2h652.7v174.4c-0.4 2-0.4 4 0 5.9v2.4c0 4.4-3.6 8-8.1 8z" fill="#65D5EF" p-id="3026"></path><path d="M93 528.8h652.7v56.3H93v-56.3z" fill="#F7DF8A" p-id="3027"></path><path d="M930.5 403.5L802.6 782.1c-0.7 2-2.1 3.7-4.1 4.7-1.9 1-4.1 1.1-6.2 0.4l-17.6-6v-354c0-20.5-16.6-37.1-37.1-37.1H468.9l29.9-88.4c2.6-7.6-1.5-15.8-9.1-18.4l-132.8-44.9c-7.6-2.6-15.8 1.5-18.4 9.1L296 373.2c-2.2 6.5 0.5 13.5 6.1 17h-56l66.1-195.6c1.4-4.2 6-6.5 10.2-5.1l603 203.8c2 0.7 3.7 2.1 4.7 4.1 1 1.9 1.1 4.1 0.4 6.1z" fill="#FFFFFF" p-id="3028"></path><path d="M956.1 384.5c-4.4-8.9-12-15.5-21.4-18.7L331.8 162c-19.4-6.6-40.5 3.9-47 23.3l-69.2 204.9H101.1c-20.5 0-37.1 16.6-37.1 37.1V827c0 20.5 16.6 37.1 37.1 37.1h636.5c20.5 0 37.1-16.6 37.1-37.1v-15l8.3 2.8c3.9 1.3 7.9 2 11.9 2 5.6 0 11.2-1.3 16.4-3.9 8.9-4.4 15.5-12 18.7-21.4l128-378.7c3.2-9.4 2.5-19.4-1.9-28.3z m-855 34.7h636.5c4.5 0 8.1 3.6 8.1 8.1v72.5H93v-72.5c0-4.5 3.7-8.1 8.1-8.1z m227.1-50.4l33.2-98.2 105.3 35.6-28.4 83.9h-47.7l-62.4-21.3zM93 528.8h652.7v56.3H93v-56.3z m644.6 306.1H101.1c-4.5 0-8.1-3.6-8.1-8.1V614.2h652.7v174.4c-0.4 2-0.4 4 0 5.9v32.4c0 4.4-3.6 8-8.1 8z m192.9-431.4L802.6 782.1c-0.7 2-2.1 3.7-4.1 4.7-1.9 1-4.1 1.1-6.2 0.4l-17.6-6v-354c0-20.5-16.6-37.1-37.1-37.1H468.9l29.9-88.4c2.6-7.6-1.5-15.8-9.1-18.4l-132.8-44.9c-7.6-2.6-15.8 1.5-18.4 9.1L296 373.2c-2.2 6.5 0.5 13.5 6.1 17h-56l66.1-195.6c1.4-4.2 6-6.5 10.2-5.1l603 203.8c2 0.7 3.7 2.1 4.7 4.1s1.1 4.1 0.4 6.1z" fill="#274359" p-id="3029"></path><path d="M320.8 703.5H151.1c-8 0-14.5 6.5-14.5 14.5s6.5 14.5 14.5 14.5h169.7c8 0 14.5-6.5 14.5-14.5s-6.5-14.5-14.5-14.5zM413.4 703.5h-31.2c-8 0-14.5 6.5-14.5 14.5s6.5 14.5 14.5 14.5h31.2c8 0 14.5-6.5 14.5-14.5s-6.5-14.5-14.5-14.5z" fill="#274359" p-id="3030"></path><path d="M328.2 368.8l33.2-98.2 105.3 35.6-28.4 83.9h-47.7l-62.4-21.3z" fill="#F7DF8A" p-id="3031"></path><path d="M930.5 403.5L802.6 782.1c-0.7 2-2.1 3.7-4.1 4.7-1.9 1-4.1 1.1-6.2 0.4l-17.6-6v-354c0-20.5-16.6-37.1-37.1-37.1H468.9l29.9-88.4c2.6-7.6-1.5-15.8-9.1-18.4l-132.8-44.9c-7.6-2.6-15.8 1.5-18.4 9.1L296 373.2c-2.2 6.5 0.5 13.5 6.1 17h-56l66.1-195.6c1.4-4.2 6-6.5 10.2-5.1l603 203.8c2 0.7 3.7 2.1 4.7 4.1 1 1.9 1.1 4.1 0.4 6.1z" fill="#E87A66" p-id="3032"></path></svg>