<?xml version="1.0" standalone="no"?><!DOCTYPE svg PUBLIC "-//W3C//DTD SVG 1.1//EN" "http://www.w3.org/Graphics/SVG/1.1/DTD/svg11.dtd"><svg t="1531989117871" class="icon" style="" viewBox="0 0 1024 1024" version="1.1" xmlns="http://www.w3.org/2000/svg" p-id="2414" xmlns:xlink="http://www.w3.org/1999/xlink" width="200" height="200"><defs><style type="text/css"></style></defs><path d="M104 501.1c0-225 183-408 408-408s408 183 408 408V931H104V501.1z" fill="#FFFFFF" p-id="2415"></path><path d="M74.9 501.1c0-225 182.8-408 407.5-408s407.5 183 407.5 408V931h-815V501.1z" fill="#E87A66" p-id="2416"></path><path d="M512 787.8c-152.1 0-275.8-123.7-275.8-275.8S359.9 236.2 512 236.2 787.8 359.9 787.8 512 664.1 787.8 512 787.8z" fill="#F7DF8A" p-id="2417"></path><path d="M512 536.2c-13.3 0-24.2-10.9-24.2-24.2s10.9-24.2 24.2-24.2 24.2 10.9 24.2 24.2-10.9 24.2-24.2 24.2z" fill="#65D5EF" p-id="2418"></path><path d="M512 207.2c-81.4 0-158 31.7-215.5 89.3S207.2 430.6 207.2 512s31.7 158 89.3 215.5c57.6 57.6 134.1 89.3 215.5 89.3s158-31.7 215.5-89.3c57.6-57.6 89.3-134.1 89.3-215.5s-31.7-158-89.3-215.5C670 238.9 593.4 207.2 512 207.2z m0 580.6c-152.1 0-275.8-123.7-275.8-275.8S359.9 236.2 512 236.2 787.8 359.9 787.8 512 664.1 787.8 512 787.8z" fill="#274359" p-id="2419"></path><path d="M914.7 330.9c-22-52-53.5-98.8-93.7-138.9-40.1-40.1-86.9-71.6-138.9-93.7C628.2 75.6 571 64 512 64S395.8 75.6 341.9 98.4c-52 22-98.8 53.5-138.9 93.7-40.1 40.1-71.6 86.9-93.7 138.9-22.8 53.9-34.4 111.1-34.4 170.1v444.4c0 8 6.5 14.5 14.5 14.5h845.1c8 0 14.5-6.5 14.5-14.5V501.1c0.1-59-11.5-116.3-34.3-170.2zM920 931H104v-33.2h388.3c8 0 14.5-6.5 14.5-14.5s-6.5-14.5-14.5-14.5H104V501.1c0-225 183-408 408-408s408 183 408 408V931z" fill="#274359" p-id="2420"></path><path d="M588.7 868.7h-33.1c-8 0-14.5 6.5-14.5 14.5s6.5 14.5 14.5 14.5h33.1c8 0 14.5-6.5 14.5-14.5s-6.5-14.5-14.5-14.5zM647.9 497.5h-84.7c-5-17.7-19-31.7-36.7-36.7V292.4c0-8-6.5-14.5-14.5-14.5s-14.5 6.5-14.5 14.5v168.4c-22.3 6.3-38.7 26.9-38.7 51.2 0 29.3 23.9 53.2 53.2 53.2 24.3 0 44.9-16.4 51.2-38.7h84.7c8 0 14.5-6.5 14.5-14.5s-6.5-14.5-14.5-14.5zM512 536.2c-13.3 0-24.2-10.9-24.2-24.2s10.9-24.2 24.2-24.2 24.2 10.9 24.2 24.2-10.9 24.2-24.2 24.2z" fill="#274359" p-id="2421"></path></svg>