<?xml version="1.0" standalone="no"?><!DOCTYPE svg PUBLIC "-//W3C//DTD SVG 1.1//EN" "http://www.w3.org/Graphics/SVG/1.1/DTD/svg11.dtd"><svg t="1531989113267" class="icon" style="" viewBox="0 0 1024 1024" version="1.1" xmlns="http://www.w3.org/2000/svg" p-id="2176" xmlns:xlink="http://www.w3.org/1999/xlink" width="200" height="200"><defs><style type="text/css"></style></defs><path d="M97.3 356h715.3v435.5H97.3zM662.7 839.3c-1.5 1.6-5.4 3.4-10.4 3.4H264.4c-5 0-8.9-1.7-10.4-3.4l-51-32.8h510.6l-50.9 32.8z" fill="#FFFFFF" p-id="2177"></path><path d="M622.5 839.3c-1.5 1.6-5.3 3.4-10.2 3.4H233c-4.9 0-8.7-1.7-10.2-3.4L173 806.5h499.3l-49.8 32.8z" fill="#65D5EF" p-id="2178"></path><path d="M97.3 366h664v68h-664z" fill="#F7DF8A" p-id="2179"></path><path d="M97.3 430.6h664v360.9h-664z" fill="#E87A66" p-id="2180"></path><path d="M124.1 806.5h38.8l69.1 53.8c7.7 8.4 20.1 13.4 33.1 13.4h379.3c13 0 25.4-5 33.1-13.4l69.1-53.8h38.8c22.4 0 40.6-18.2 40.6-40.6v-81.7c29.6-2.2 57.6-17.1 79.5-42.7 22.2-25.9 34.9-59.3 34.9-91.7 0-32.7-12.4-59-35.9-76.2-19.6-14.3-46-21.9-78.5-22.5v-90.6c0-14.2-11.5-25.7-25.7-25.7h-691c-14.2 0-25.7 11.5-25.7 25.7V766c0 22.4 18.1 40.5 40.5 40.5z m785.2-256.6c0 45.5-35.8 98.1-83.2 103.2V482.3c39 0.8 83.2 13.6 83.2 67.6zM654.7 839.3c-1.5 1.6-5.3 3.4-10.2 3.4H265.2c-4.9 0-8.7-1.7-10.2-3.4l-49.8-32.8h499.3l-49.8 32.8zM795 366v400c0 5.2-4.2 9.5-9.5 9.5H124.1c-5.2 0-9.5-4.2-9.5-9.5V449.6h341.5c9.2 0 16.5-7.9 15.5-17.3-0.9-7.9-7.9-13.8-15.9-13.8h-341V366H795z" fill="#274359" p-id="2181"></path><path d="M524.4 449.6h35.4c9.2 0 16.5-7.9 15.5-17.3-0.9-7.9-7.9-13.8-15.9-13.8H524c-9.2 0-16.5 7.9-15.5 17.3 0.9 7.9 7.9 13.8 15.9 13.8zM467.3 284.7s0.1 0.1 0.2 0.3c-0.1-0.1-7.5-11.4-7.5-36.6 0-13.8 5-32.3 9.8-50.1 5.4-20 10.9-51.3 10.9-69.5 0-8.3-0.6-15.5-1.6-21.8-2.7-17.2-22.8-25.2-36.8-14.8 0 0-0.1-0.1-0.2-0.3 0.1 0.1 7.5 11.4 7.5 36.9 0 14.1-5 43.4-9.9 61.4-5.3 19.8-10.9 40.3-10.9 58.2 0 8.1 0.6 15.3 1.6 21.5 2.8 17.2 22.9 25.2 36.9 14.8zM259.9 284.7s0.1 0.1 0.2 0.3c-0.1-0.1-7.5-11.4-7.5-36.6 0-13.8 5-32.3 9.8-50.1 5.4-20 10.9-51.3 10.9-69.5 0-8.3-0.6-15.5-1.6-21.8-2.7-17.2-22.8-25.2-36.8-14.8 0 0-0.1-0.1-0.2-0.3 0.1 0.1 7.5 11.4 7.5 36.9 0 14.1-5 43.4-9.9 61.4-5.3 19.8-10.9 40.3-10.9 58.2 0 8.1 0.6 15.3 1.6 21.5 2.8 17.2 22.9 25.2 36.9 14.8zM674.7 284.7s0.1 0.1 0.2 0.3c-0.1-0.1-7.5-11.4-7.5-36.6 0-13.8 5-32.3 9.8-50.1 5.4-20 10.9-51.3 10.9-69.5 0-8.3-0.6-15.5-1.6-21.8-2.7-17.2-22.8-25.2-36.8-14.8 0 0-0.1-0.1-0.2-0.3 0.1 0.1 7.5 11.4 7.5 36.9 0 14.1-5 43.4-9.9 61.4-5.3 19.8-10.9 40.3-10.9 58.2 0 8.1 0.6 15.3 1.6 21.5 2.8 17.2 23 25.2 36.9 14.8zM959.9 919.2c-0.9-7.9-7.9-13.8-15.9-13.8H79.6c-9.2 0-16.5 7.9-15.5 17.3 0.9 7.9 7.9 13.8 15.9 13.8h864.5c9.1 0 16.4-7.9 15.4-17.3z" fill="#274359" p-id="2182"></path></svg>