<?xml version="1.0" standalone="no"?><!DOCTYPE svg PUBLIC "-//W3C//DTD SVG 1.1//EN" "http://www.w3.org/Graphics/SVG/1.1/DTD/svg11.dtd"><svg t="1531989095322" class="icon" style="" viewBox="0 0 1024 1024" version="1.1" xmlns="http://www.w3.org/2000/svg" p-id="1457" xmlns:xlink="http://www.w3.org/1999/xlink" width="200" height="200"><defs><style type="text/css"></style></defs><path d="M931 498.9c0 4.8-3.9 8.7-8.7 8.7h-104c-4.2 0-8.2 1.8-10.9 5-2.8 3.2-4 7.3-3.4 11.5l14.7 107.7-99.5-119c-2.7-3.3-6.8-5.2-11.1-5.2l-67.4-0.2V324c0-10.1-3.9-19.6-11.1-26.7-7.1-7.1-16.6-11-26.7-11l-121.6 0.1v-87.8c0-2.3 0.9-4.5 2.6-6.2 1.6-1.6 3.8-2.5 6.2-2.5l432.3 0.5c4.8 0 8.7 3.9 8.7 8.7v299.8z" fill="#FFFFFF" p-id="1458"></path><path d="M611.6 673.5c0 4.8-3.9 8.7-8.7 8.7l-252.8 0.6c-4.3 0-8.4 1.9-11.1 5.2L220.5 829.6l17.9-130.4c0.6-4.1-0.7-8.3-3.4-11.5-2.8-3.2-6.7-5-10.9-5H101.7c-4.8 0-8.7-3.9-8.7-8.7V324.6c0-4.8 3.9-8.7 8.7-8.7l501.2-0.6c2.3 0 4.5 0.9 6.2 2.5 1.6 1.6 2.6 3.8 2.6 6.2v349.5z" fill="#FFFFFF" p-id="1459"></path><path d="M163.9 524.9c-16 0-29-13-29-29s13-29 29-29 29 13 29 29-13 29-29 29zM322.2 524.9c-16 0-29-13-29-29s13-29 29-29 29 13 29 29-13 29-29 29zM480.4 524.9c-16 0-29-13-29-29s13-29 29-29 29 13 29 29-13 29-29 29z" fill="#F7DF8A" p-id="1460"></path><path d="M88.5 345.9c-4.8 0-8.7 3.9-8.7 8.7V674c0 4.8 3.9 8.7 8.7 8.7H224c4.2 0 8.2 1.8 10.9 5 2.8 3.2 4 7.3 3.4 11.5l-22.7 146.6L339 704.2c2.7-3.3 6.8-5.2 11.1-5.2l252.8-0.6h-30c4.8 0 8.7-3.9 8.7-8.7V354c0-2.3-0.9-4.5-2.6-6.2-1.6-1.6-3.8-2.5-6.2-2.5l-484.3 0.6z m105.6 208c-32 0-58-26-58-58s26-58 58-58 58 26 58 58-26 58-58 58z m158.2 0c-32 0-58-26-58-58s26-58 58-58 58 26 58 58-26 58-58 58z m158.3 0c-32 0-58-26-58-58s26-58 58-58 58 26 58 58-26 58-58 58z" fill="#E87A66" p-id="1461"></path><path d="M892.3 220.5c4.8 0 8.7 3.9 8.7 8.7v269.7c0 4.8-3.9 8.7-8.7 8.7h-73.9c-4.2 0-8.2 1.8-10.9 5-2.8 3.2-4 7.3-3.4 11.5l14.7 107.7-99.5-119c-2.7-3.3-6.8-5.2-11.1-5.2l-67.4-0.2V324c0-10.1-3.9-19.6-11.1-26.7-7.1-7.1-16.6-11-26.7-11l-121.6 0.1v-57.8c0-2.3 0.9-4.5 2.6-6.2 1.6-1.6 3.8-2.5 6.2-2.5l402.1 0.6z" fill="#65D5EF" p-id="1462"></path><path d="M194.1 553.9c32 0 58-26 58-58s-26-58-58-58-58 26-58 58 26 58 58 58z m0-87c16 0 29 13 29 29s-13 29-29 29-29-13-29-29 13-29 29-29zM352.3 553.9c32 0 58-26 58-58s-26-58-58-58-58 26-58 58 26.1 58 58 58z m0-87c16 0 29 13 29 29s-13 29-29 29-29-13-29-29 13-29 29-29zM510.6 553.9c32 0 58-26 58-58s-26-58-58-58-58 26-58 58 26 58 58 58z m0-87c16 0 29 13 29 29s-13 29-29 29-29-13-29-29 13-29 29-29zM64 491.7v0.2-0.5 0.3z" fill="#274359" p-id="1463"></path><path d="M497.9 682.2l-33.5 0.2h-0.1c-8 0-14.5 6.5-14.5 14.5s6.5 14.5 14.5 14.5h0.1l33.5-0.2c8 0 14.5-6.5 14.5-14.5s-6.5-14.5-14.5-14.5z" fill="#274359" p-id="1464"></path><path d="M922.3 161.5L490 161c-10.1 0-19.5 3.9-26.7 11-7.1 7.1-11.1 16.6-11.1 26.7v87.8l-350.5 0.4c-20.8 0.1-37.7 17-37.7 37.7v349.5c0 20.8 16.9 37.7 37.7 37.7h105.6l-16.5 120.4c-1.7 12.1 4.7 23.5 15.9 28.5 3.6 1.6 7.4 2.4 11.1 2.4 7.8 0 15.4-3.4 20.7-9.8L357 711.8l44.6-0.1c8 0 14.5-6.5 14.5-14.5s-6.5-14.5-14.5-14.5l-51.4 0.2c-4.3 0-8.4 1.9-11.1 5.2L220.5 829.6l17.9-130.4c0.6-4.1-0.7-8.3-3.4-11.5-2.8-3.2-6.7-5-10.9-5H101.7c-4.8 0-8.7-3.9-8.7-8.7V496.5 324.6c0-4.8 3.9-8.7 8.7-8.7l501.2-0.6c2.3 0 4.5 0.9 6.2 2.5 1.6 1.6 2.6 3.8 2.6 6.2v349.4c0 4.8-3.9 8.7-8.7 8.7l-43.9 0.1h-0.4c-8 0-14.5 6.5-14.5 14.5s6.5 14.5 14.5 14.5l44.4-0.1c20.8 0 37.6-17 37.6-37.7v-137l60.6 0.1 99.5 119c5.3 6.3 12.9 9.7 20.7 9.7 3.7 0 7.5-0.8 11-2.4 11.2-4.9 17.5-16.3 15.9-28.4L835 536.6h87.3c20.8 0 37.7-16.9 37.7-37.7V199.2c0-20.7-16.9-37.7-37.7-37.7z m8.7 337.4c0 4.8-3.9 8.7-8.7 8.7h-104c-4.2 0-8.2 1.8-10.9 5-2.8 3.2-4 7.3-3.4 11.5l14.7 107.7-99.5-119c-2.7-3.3-6.8-5.2-11.1-5.2l-67.4-0.2V324c0-10.1-3.9-19.6-11.1-26.7-7.1-7.1-16.6-11-26.7-11l-121.6 0.1v-87.8c0-2.3 0.9-4.5 2.6-6.2 1.6-1.6 3.8-2.5 6.2-2.5l432.3 0.5c4.8 0 8.7 3.9 8.7 8.7v299.8z" fill="#274359" p-id="1465"></path></svg>