<?xml version="1.0" standalone="no"?><!DOCTYPE svg PUBLIC "-//W3C//DTD SVG 1.1//EN" "http://www.w3.org/Graphics/SVG/1.1/DTD/svg11.dtd"><svg t="1531989123848" class="icon" style="" viewBox="0 0 1024 1024" version="1.1" xmlns="http://www.w3.org/2000/svg" p-id="2655" xmlns:xlink="http://www.w3.org/1999/xlink" width="200" height="200"><defs><style type="text/css"></style></defs><path d="M906.3 929.9c-0.7 0.9-2.3 1.1-3.1 1.1H121c-0.8 0-2.4-0.1-3.1-1.1-0.6-0.7-0.8-2-0.4-3.6l9.3-45.9c0.9-4.6 6.4-9 11.3-9h748.1c4.9 0 10.3 4.4 11.3 9l9.3 45.8c0.2 1.7 0.1 3-0.5 3.7zM189.7 406.9H834v435.8h-54.1V528.1c0-38.9-31.6-70.5-70.5-70.5s-70.5 31.6-70.5 70.5v314.6h-56.6V528.1c0-38.9-31.6-70.5-70.5-70.5s-70.5 31.6-70.5 70.5v314.6h-56.6V528.1c0-38.9-31.6-70.5-70.5-70.5s-70.5 31.6-70.5 70.5v314.6h-54.1V406.9z" fill="#FFFFFF" p-id="2656"></path><path d="M189.7 406.9H804v435.8h-24.1V528.1c0-38.9-31.6-70.5-70.5-70.5s-70.5 31.6-70.5 70.5v314.6h-56.6V528.1c0-38.9-31.6-70.5-70.5-70.5s-70.5 31.6-70.5 70.5v314.6h-56.6V528.1c0-38.9-31.6-70.5-70.5-70.5s-70.5 31.6-70.5 70.5v314.6h-54.1V406.9z" fill="#F7DF8A" p-id="2657"></path><path d="M513 97.1l348.5 280.6h-697L513 97.1z" fill="#FFFFFF" p-id="2658"></path><path d="M473 97.1l348.5 280.6h-657L473 97.1z" fill="#F7DF8A" p-id="2659"></path><path d="M876.3 929.9c-0.7 0.9-2.2 1.1-3.1 1.1H101.7c-0.8 0-2.3-0.1-3.1-1.1-0.6-0.7-0.7-2-0.4-3.6l9.2-45.9c0.9-4.6 6.3-9 11.1-9h738c4.8 0 10.2 4.4 11.1 9l9.2 45.8c0.2 1.7 0.1 3-0.5 3.7z" fill="#65D5EF" p-id="2660"></path><path d="M545.4 335.3h31.3c8 0 14.5-6.5 14.5-14.5s-6.5-14.5-14.5-14.5h-31.3c-8 0-14.5 6.5-14.5 14.5s6.5 14.5 14.5 14.5z" fill="#274359" p-id="2661"></path><path d="M935.1 920.6l-9.3-45.9c-3.7-18.1-21.1-32.2-39.7-32.2h-22.9V406.7h38.5c6.2 0 11.6-3.9 13.7-9.7 2-5.8 0.2-12.3-4.6-16.1L521.1 67.2c-5.3-4.3-12.9-4.3-18.2 0L113.2 380.9c-4.8 3.9-6.6 10.3-4.6 16.1 2 5.8 7.5 9.7 13.7 9.7h38.5v435.8H138c-18.6 0-36 14.1-39.7 32.2L89 920.6c-2.1 10.1 0.3 20.2 6.4 27.7 6.1 7.4 15.4 11.7 25.6 11.7h782.1c10.2 0 19.5-4.3 25.6-11.7 6.1-7.5 8.4-17.6 6.4-27.7z m-719-585.3h266.6c8 0 14.5-6.5 14.5-14.5s-6.5-14.5-14.5-14.5H252.2L512 97.1l348.5 280.6h-697l52.6-42.4z m-26.2 71.4h644.3v435.8H780V527.9c0-38.9-31.6-70.5-70.5-70.5S639 489 639 527.9v314.6h-56.6V527.9c0-38.9-31.6-70.5-70.5-70.5s-70.5 31.6-70.5 70.5v314.6h-56.6V527.9c0-38.9-31.6-70.5-70.5-70.5S244 489 244 527.9v314.6h-54.1V406.7zM751 842.5h-82.9V527.9c0-22.8 18.6-41.4 41.4-41.4 22.8 0 41.4 18.6 41.4 41.4v314.6z m-197.6 0h-82.9V527.9c0-22.8 18.6-41.4 41.4-41.4 22.8 0 41.4 18.6 41.4 41.4v314.6z m-197.5 0H273V527.9c0-22.8 18.6-41.4 41.4-41.4s41.4 18.6 41.4 41.4v314.6z m550.3 87.4c-0.7 0.9-2.3 1.1-3.1 1.1H120.9c-0.8 0-2.4-0.1-3.1-1.1-0.6-0.7-0.8-2-0.4-3.6l9.3-45.9c0.9-4.6 6.4-9 11.3-9h748c4.9 0 10.3 4.4 11.3 9l9.3 45.8c0.3 1.7 0.2 3-0.4 3.7z" fill="#274359" p-id="2662"></path><path d="M750.8 842.5h-82.9V527.9c0-22.8 18.6-41.4 41.4-41.4 22.8 0 41.4 18.6 41.4 41.4v314.6zM553.3 842.5h-82.9V527.9c0-22.8 18.6-41.4 41.4-41.4 22.8 0 41.4 18.6 41.4 41.4v314.6zM355.7 842.5h-82.9V527.9c0-22.8 18.6-41.4 41.4-41.4s41.4 18.6 41.4 41.4v314.6z" fill="#E87A66" p-id="2663"></path></svg>