<?xml version="1.0" standalone="no"?><!DOCTYPE svg PUBLIC "-//W3C//DTD SVG 1.1//EN" "http://www.w3.org/Graphics/SVG/1.1/DTD/svg11.dtd"><svg t="1531989097757" class="icon" style="" viewBox="0 0 1024 1024" version="1.1" xmlns="http://www.w3.org/2000/svg" p-id="1578" xmlns:xlink="http://www.w3.org/1999/xlink" width="200" height="200"><defs><style type="text/css"></style></defs><path d="M172.7 85h674.6v857.4H172.7z" fill="#FFFFFF" p-id="1579"></path><path d="M169 81h138.3v819.6H169z" fill="#F7DF8A" p-id="1580"></path><path d="M308 81h539.3v819.6H308z" fill="#65D5EF" p-id="1581"></path><path d="M567 93h138.2v266.5l-61.8-35.8c-4.5-2.6-10-2.6-14.5 0L567 359.6V93z" fill="#E87A66" p-id="1582"></path><path d="M825.3 64H198.7c-20.9 0-38 17-38 38v820c0 20.9 17 38 38 38h626.6c20.9 0 38-17 38-38V102c0-21-17.1-38-38-38zM567.9 93h138.2v266.5l-61.8-35.8c-4.5-2.6-10-2.6-14.5 0L568 359.5V93zM294.3 931h-95.6c-4.9 0-8.9-4-8.9-8.9V102c0-4.9 4-8.9 8.9-8.9h95.6m29.1-0.1h215.5v291.7c0 5.2 2.8 10 7.3 12.6 2.2 1.3 4.7 1.9 7.3 1.9 2.5 0 5-0.7 7.3-2l76.3-44.2 76.3 44.2c4.5 2.6 10 2.6 14.5 0s7.3-7.4 7.3-12.6V93h90.2c4.9 0 8.9 4 8.9 8.9V922c0 4.9-4 8.9-8.9 8.9h-502" fill="#274359" p-id="1583"></path><path d="M763.5 696.1H514.2c-8 0-14.5 6.5-14.5 14.5s6.5 14.5 14.5 14.5h249.3c8 0 14.5-6.5 14.5-14.5s-6.5-14.5-14.5-14.5zM763.5 775.5H514.2c-8 0-14.5 6.5-14.5 14.5s6.5 14.5 14.5 14.5h249.3c8 0 14.5-6.5 14.5-14.5s-6.5-14.5-14.5-14.5zM659.7 617.2H514.2c-8 0-14.5 6.5-14.5 14.5s6.5 14.5 14.5 14.5h145.5c8 0 14.5-6.5 14.5-14.5s-6.5-14.5-14.5-14.5zM756.3 617.2h-33.9c-8 0-14.5 6.5-14.5 14.5s6.5 14.5 14.5 14.5h33.9c8 0 14.5-6.5 14.5-14.5s-6.5-14.5-14.5-14.5z" fill="#274359" p-id="1584"></path></svg>