<?xml version="1.0" standalone="no"?><!DOCTYPE svg PUBLIC "-//W3C//DTD SVG 1.1//EN" "http://www.w3.org/Graphics/SVG/1.1/DTD/svg11.dtd"><svg t="1531989131198" class="icon" style="" viewBox="0 0 1024 1024" version="1.1" xmlns="http://www.w3.org/2000/svg" p-id="2901" xmlns:xlink="http://www.w3.org/1999/xlink" width="200" height="200"><defs><style type="text/css"></style></defs><path d="M322.2 305.5c0-11.5 9.3-20.8 20.8-20.8h338.2c11.5 0 20.8 9.3 20.8 20.8v1.8c0 11.5-9.3 20.8-20.8 20.8H343c-11.5 0-20.8-9.3-20.8-20.8v-1.8z" fill="#FFFFFF" p-id="2902"></path><path d="M307.2 305.5c0-11.5 9-20.8 20-20.8H652c11 0 20 9.3 20 20.8v1.8c0 11.5-9 20.8-20 20.8H327.2c-11 0-20-9.3-20-20.8v-1.8z" fill="#65D5EF" p-id="2903"></path><path d="M814.1 931H208.5V628.2c0-115.8 64.2-219.4 167.7-271h83.4L440.5 407c-2.9 7.5 0.9 15.9 8.3 18.8 1.7 0.7 3.5 1 5.2 1 5.8 0 11.3-3.5 13.6-9.3l23.2-60.3H532l23.2 60.3c2.2 5.8 7.7 9.3 13.6 9.3 1.7 0 3.5-0.3 5.2-1 7.5-2.9 11.2-11.3 8.3-18.8L563 357.1h83.4c103.5 51.7 167.7 155.2 167.7 271V931z" fill="#FFFFFF" p-id="2904"></path><path d="M784.9 931H209.3V628.2c0-115.8 64.2-219.4 167.7-271h83.4L441.2 407c-2.9 7.5 0.9 15.9 8.3 18.8 1.7 0.7 3.5 1 5.2 1 5.8 0 11.3-3.5 13.6-9.3l23.2-60.3h41.2l23.2 60.3c2.2 5.8 7.7 9.3 13.6 9.3 1.7 0 3.5-0.3 5.2-1 7.5-2.9 11.2-11.3 8.3-18.8l-19.2-49.9h53.4c103.5 51.7 167.7 155.2 167.7 271V931z" fill="#E87A66" p-id="2905"></path><path d="M512 788c-79.4 0-144-64.6-144-144s64.6-144 144-144 144 64.6 144 144-64.6 144-144 144z" fill="#F7DF8A" p-id="2906"></path><path d="M435.7 255.4l-70.5-158 145.5 25.1c1.6 0.3 3.3 0.3 5 0l143.2-25.1-70.5 157.9c0 0.1-0.1 0.2-0.1 0.3h-24.5l19.2-49.9c2.9-7.5-0.9-15.9-8.3-18.8-7.5-2.9-15.9 0.9-18.8 8.3l-23.2 60.3h-41.2l-23.2-60.3c-2.9-7.5-11.3-11.2-18.8-8.3-7.5 2.9-11.2 11.3-8.3 18.8l19.2 49.9h-24.5c-0.1 0-0.2-0.1-0.2-0.2z" fill="#FFFFFF" p-id="2907"></path><path d="M512 565.3c28.6 0 52.8 15.2 52.8 33.3 0 6.7 5.5 12.2 12.2 12.2 6.7 0 12.2-5.5 12.2-12.2 0-29.2-27.7-52.7-65-57v-14.5c0-6.7-5.4-12.2-12.2-12.2-6.7 0-12.2 5.5-12.2 12.2v14.5c-37.3 4.2-65 27.7-65 57 0 32.3 33.9 57.7 77.2 57.7 28.6 0 52.8 15.2 52.8 33.3 0 18.1-24.2 33.3-52.8 33.3-28.6 0-52.8-15.2-52.8-33.3 0-6.7-5.4-12.2-12.2-12.2-6.7 0-12.2 5.5-12.2 12.2 0 29.2 27.7 52.7 65 57V761c0 6.7 5.5 12.2 12.2 12.2 6.7 0 12.2-5.5 12.2-12.2v-14.5c37.3-4.3 65-27.7 65-57 0-32.3-33.9-57.7-77.1-57.7-28.6 0-52.8-15.3-52.8-33.3-0.1-18 24.1-33.2 52.7-33.2z" fill="#274359" p-id="2908"></path><path d="M791.8 449.8c-24.3-38.1-56-70.7-93-95.9 18.8-7.1 32.2-25.3 32.2-46.6v-1.8c0-27.5-22.4-49.8-49.8-49.8H620l76.5-171.3c2.2-4.9 1.5-10.6-1.8-14.8-3.3-4.2-8.7-6.3-13.9-5.4L513.1 93.5 343.3 64.2c-5.3-0.9-10.6 1.2-13.9 5.4-3.3 4.2-4 9.9-1.8 14.8L404 255.7h-61.1c-27.5 0-49.8 22.4-49.8 49.8v1.8c0 21.3 13.4 39.4 32.2 46.6-37 25.2-68.7 57.8-93 95.9-34 53.2-52 114.9-52 178.4v317.3c0 8 6.5 14.5 14.5 14.5h634.6c8 0 14.5-6.5 14.5-14.5V628.2c-0.1-63.5-18.1-125.2-52.1-178.4zM435.7 255.4l-70.5-158 145.5 25.1c1.6 0.3 3.3 0.3 5 0l143.2-25.1-70.5 157.9c0 0.1-0.1 0.2-0.1 0.3h-24.5l19.2-49.9c2.9-7.5-0.9-15.9-8.3-18.8-7.5-2.9-15.9 0.9-18.8 8.3l-23.2 60.3h-41.2l-23.2-60.3c-2.9-7.5-11.3-11.2-18.8-8.3-7.5 2.9-11.2 11.3-8.3 18.8l19.2 49.9h-24.5c-0.2 0-0.2-0.1-0.2-0.2z m-113.6 50.1c0-11.5 9.3-20.8 20.8-20.8h338.2c11.5 0 20.8 9.3 20.8 20.8v1.8c0 11.5-9.3 20.8-20.8 20.8H342.9c-11.5 0-20.8-9.3-20.8-20.8v-1.8zM814.8 931H209.2V628.2c0-115.8 64.2-219.4 167.7-271h83.4L441.1 407c-2.9 7.5 0.9 15.9 8.3 18.8 1.7 0.7 3.5 1 5.2 1 5.8 0 11.3-3.5 13.6-9.3l23.2-60.3h41.2l23.2 60.3c2.2 5.8 7.7 9.3 13.6 9.3 1.7 0 3.5-0.3 5.2-1 7.5-2.9 11.2-11.3 8.3-18.8l-19.2-49.9h83.4c103.5 51.7 167.7 155.2 167.7 271V931z" fill="#274359" p-id="2909"></path><path d="M512 471c-95.4 0-173 77.6-173 173s77.6 173 173 173 173-77.6 173-173-77.6-173-173-173z m0 317c-79.4 0-144-64.6-144-144s64.6-144 144-144 144 64.6 144 144-64.6 144-144 144zM757.1 760c8 0 14.5-6.5 14.5-14.5V609.6c0-8-6.5-14.5-14.5-14.5s-14.5 6.5-14.5 14.5v135.8c0 8.1 6.5 14.6 14.5 14.6zM757.1 853.2c8 0 14.5-6.5 14.5-14.5v-31.3c0-8-6.5-14.5-14.5-14.5s-14.5 6.5-14.5 14.5v31.3c0 8 6.5 14.5 14.5 14.5z" fill="#274359" p-id="2910"></path><path d="M435.7 255.4l-70.5-158 145.5 25.1c1.6 0.3 3.3 0.3 5 0l143.2-25.1-70.5 157.9c0 0.1-0.1 0.2-0.1 0.3h-24.5l19.2-49.9c2.9-7.5-0.9-15.9-8.3-18.8-7.5-2.9-15.9 0.9-18.8 8.3l-23.2 60.3h-41.2l-23.2-60.3c-2.9-7.5-11.3-11.2-18.8-8.3-7.5 2.9-11.2 11.3-8.3 18.8l19.2 49.9h-24.5c-0.1 0-0.2-0.1-0.2-0.2z" fill="#E87A66" p-id="2911"></path></svg>