<?xml version="1.0" standalone="no"?><!DOCTYPE svg PUBLIC "-//W3C//DTD SVG 1.1//EN" "http://www.w3.org/Graphics/SVG/1.1/DTD/svg11.dtd"><svg t="1531989106499" class="icon" style="" viewBox="0 0 1024 1024" version="1.1" xmlns="http://www.w3.org/2000/svg" p-id="2055" xmlns:xlink="http://www.w3.org/1999/xlink" width="200" height="200"><defs><style type="text/css"></style></defs><path d="M942.6 786.2c0 5-4 9.1-8.9 9.1H91.4c-4.9 0-8.9-4.1-8.9-9.1V120.7c0-5 4-9.1 8.9-9.1h842.2c4.9 0 8.9 4.1 8.9 9.1v665.5zM883 894.6c0 6.6-6.2 11.9-13.9 11.9H728c-7.6 0-13.9-5.3-13.9-11.9v-85.1H883v85.1z" fill="#FFFFFF" p-id="2056"></path><path d="M301.8 886c0 5.9-4.8 10.7-10.7 10.7H172.5c-5.9 0-10.7-4.8-10.7-10.7v-76.5h140V886zM844.2 886c0 5.9-4.8 10.7-10.7 10.7H724.9c-5.9 0-10.7-4.8-10.7-10.7v-76.5h130V886zM901 786.8c0 4.7-3.8 8.5-8.5 8.5H91c-4.7 0-8.5-3.8-8.5-8.5V165.9c0-4.7 3.8-8.5 8.5-8.5h801.5c4.7 0 8.5 3.8 8.5 8.5v620.9z" fill="#65D5EF" p-id="2057"></path><path d="M812.6 678.6c0 4.8-3.9 8.7-8.7 8.7H220.1c-4.8 0-8.7-3.9-8.7-8.7V229.2c0-4.8 3.9-8.7 8.7-8.7h583.8c4.8 0 8.7 3.9 8.7 8.7v449.4z" fill="#E87A66" p-id="2058"></path><path d="M512 573.6c-66 0-119.7-53.7-119.7-119.7S446 334.2 512 334.2s119.7 53.7 119.7 119.7S578 573.6 512 573.6z" fill="#F7DF8A" p-id="2059"></path><path d="M922.3 98.3H101.7C80.9 98.3 64 115.2 64 136v635.7c0 20.8 16.9 37.7 37.7 37.7h31V886c0 21.9 17.8 39.7 39.7 39.7h118.7c21.9 0 39.7-17.8 39.7-39.7v-76.5h374.3V886c0 21.9 17.8 39.7 39.7 39.7h118.7c21.9 0 39.7-17.8 39.7-39.7v-76.5h19.1c20.8 0 37.7-16.9 37.7-37.7V136.1c0-20.8-16.9-37.8-37.7-37.8zM301.8 886c0 5.9-4.8 10.7-10.7 10.7H172.4c-5.9 0-10.7-4.8-10.7-10.7v-76.5h140V886z m572.4 0c0 5.9-4.8 10.7-10.7 10.7H744.8c-5.9 0-10.7-4.8-10.7-10.7v-76.5h140V886zM931 771.8c0 4.8-3.9 8.7-8.7 8.7H101.7c-4.8 0-8.7-3.9-8.7-8.7V136.1c0-4.8 3.9-8.7 8.7-8.7h820.5c4.8 0 8.7 3.9 8.7 8.7v635.7z" fill="#274359" p-id="2060"></path><path d="M803.9 191.4H220.1c-20.8 0-37.7 16.9-37.7 37.7v449.5c0 20.8 16.9 37.7 37.7 37.7h583.8c20.8 0 37.7-16.9 37.7-37.7V229.2c0-20.8-16.9-37.8-37.7-37.8z m8.7 487.2c0 4.8-3.9 8.7-8.7 8.7H220.1c-4.8 0-8.7-3.9-8.7-8.7V229.2c0-4.8 3.9-8.7 8.7-8.7h583.8c4.8 0 8.7 3.9 8.7 8.7v449.4z" fill="#274359" p-id="2061"></path><path d="M746 294.7c-8 0-14.5 6.5-14.5 14.5v33.6c0 8 6.5 14.5 14.5 14.5s14.5-6.5 14.5-14.5v-33.6c0.1-8-6.4-14.5-14.5-14.5zM746 391.6c-8 0-14.5 6.5-14.5 14.5v192.5c0 8 6.5 14.5 14.5 14.5s14.5-6.5 14.5-14.5V406.1c0.1-8-6.4-14.5-14.5-14.5zM512 305.2c-82 0-148.7 66.7-148.7 148.7S430 602.6 512 602.6c82 0 148.7-66.7 148.7-148.7S594 305.2 512 305.2z m0 268.4c-66 0-119.7-53.7-119.7-119.7S446 334.2 512 334.2s119.7 53.7 119.7 119.7S578 573.6 512 573.6z" fill="#274359" p-id="2062"></path><path d="M512 379.9c-40.8 0-74 33.2-74 74s33.2 74 74 74 74-33.2 74-74-33.2-74-74-74z m0 119c-24.8 0-45-20.2-45-45s20.2-45 45-45 45 20.2 45 45-20.2 45-45 45z" fill="#274359" p-id="2063"></path></svg>