<?xml version="1.0" standalone="no"?><!DOCTYPE svg PUBLIC "-//W3C//DTD SVG 1.1//EN" "http://www.w3.org/Graphics/SVG/1.1/DTD/svg11.dtd"><svg t="1531989115579" class="icon" style="" viewBox="0 0 1024 1024" version="1.1" xmlns="http://www.w3.org/2000/svg" p-id="2295" xmlns:xlink="http://www.w3.org/1999/xlink" width="200" height="200"><defs><style type="text/css"></style></defs><path d="M804.6 931H219.4v-23.4h585.3V931zM143.9 659.3c0.4-11 9.5-19.8 20.6-19.8H859.6c11.1 0 20.2 8.8 20.6 19.8l-26.8 219.2H170.6l-26.7-219.2zM302.1 291.7C302.8 182 396.8 93 512.1 93c115.4 0 209.3 89 210 198.7l-54.8 318.8H357l-54.9-318.8z" fill="#FFFFFF" p-id="2296"></path><path d="M775.6 931H194v-23.4h581.7V931z" fill="#E87A66" p-id="2297"></path><path d="M124.3 659.3c0.4-11 9.4-19.8 20.3-19.8h686.1c11 0 19.9 8.8 20.3 19.8l-26.4 219.2H150.7l-26.4-219.2z" fill="#F7DF8A" p-id="2298"></path><path d="M294.3 291.7C294.9 182 381.8 93 488.6 93c106.7 0 193.6 89 194.3 198.7l-50.7 318.8H345l-50.7-318.8z" fill="#65D5EF" p-id="2299"></path><path d="M859.5 610.5H689.1l51.6-315.3 0.2-1.2v-1.2c0-61.1-23.8-118.6-67-161.8C630.6 87.8 573.1 64 512 64c-61.1 0-118.6 23.8-161.8 67s-67 100.7-67 161.8v1.2L335 610.4H164.5c-27.4 0-49.6 22.3-49.6 49.6 0 0.6 0 1.2 0.1 1.8l28.4 233c0.9 7.3 7.1 12.8 14.4 12.8h32.5v37.9c0 8 6.5 14.5 14.5 14.5h614.3c8 0 14.5-6.5 14.5-14.5v-37.9h32.5c7.3 0 13.5-5.5 14.4-12.8l28.4-233c0.1-0.6 0.1-1.2 0.1-1.8 0.1-27.3-22.1-49.5-49.5-49.5zM312.2 291.7C312.8 182 402.2 93 512 93c109.8 0 199.2 89 199.8 198.7l-52.2 318.8H364.3l-52.1-318.8zM804.6 931H219.4v-23.4h585.3V931z m48.7-52.5H170.6l-3.4-27.9h387.3c8 0 14.5-6.5 14.5-14.5s-6.5-14.5-14.5-14.5H163.7l-19.8-162.3c0.4-11 9.5-19.8 20.6-19.8H859.6c11.1 0 20.2 8.8 20.6 19.8l-26.9 219.2z" fill="#274359" p-id="2300"></path><path d="M648.1 821.6h-31.3c-8 0-14.5 6.5-14.5 14.5s6.5 14.5 14.5 14.5h31.3c8 0 14.5-6.5 14.5-14.5s-6.5-14.5-14.5-14.5z" fill="#274359" p-id="2301"></path></svg>