<?xml version="1.0" standalone="no"?><!DOCTYPE svg PUBLIC "-//W3C//DTD SVG 1.1//EN" "http://www.w3.org/Graphics/SVG/1.1/DTD/svg11.dtd"><svg t="1531989104371" class="icon" style="" viewBox="0 0 1024 1024" version="1.1" xmlns="http://www.w3.org/2000/svg" p-id="1936" xmlns:xlink="http://www.w3.org/1999/xlink" width="200" height="200"><defs><style type="text/css"></style></defs><path d="M76.5 195.2c0-5.2 4.4-9.4 9.7-9.4h846.1c5.4 0 9.7 4.2 9.7 9.4v176.4H76.5V195.2zM928.5 886.2h-827c-5.2 0-9.5-4.2-9.5-9.4V401h846v475.8c0 5.1-4.3 9.4-9.5 9.4z" fill="#FFFFFF" p-id="1937"></path><path d="M896.7 856.2H85.3c-5.1 0-9.3-4.2-9.3-9.4V371h830v475.8c0 5.1-4.2 9.4-9.3 9.4z" fill="#F7DF8A" p-id="1938"></path><path d="M76.5 195.2c0-5.2 4.2-9.4 9.3-9.4H897c5.1 0 9.3 4.2 9.3 9.4v176.4H76.5V195.2z" fill="#65D5EF" p-id="1939"></path><path d="M264 266c-19.8 0-35.8-16-35.8-35.8v-109c0-19.8 16-35.8 35.8-35.8 19.8 0 35.8 16 35.8 35.8v109c0 19.8-16 35.8-35.8 35.8zM774.6 266c-19.8 0-35.8-16-35.8-35.8v-109c0-19.8 16-35.8 35.8-35.8 19.8 0 35.8 16 35.8 35.8v109c0 19.8-16 35.8-35.8 35.8z" fill="#E87A66" p-id="1940"></path><path d="M926.9 156.4h-96.8v-31.7c0-31.8-25.9-57.8-57.8-57.8s-57.8 25.9-57.8 57.8v31.7H322.2v-31.7c0-31.8-25.9-57.8-57.8-57.8s-57.8 25.9-57.8 57.8v31.7h-98.3c-21.4 0-38.8 17.4-38.8 38.8v681.6c0 21.4 17.4 38.8 38.8 38.8h818.5c21.4 0 38.8-17.4 38.8-38.8V195.2c0-21.4-17.4-38.8-38.7-38.8z m-183-31.7c0-15.7 12.7-28.4 28.4-28.4s28.4 12.7 28.4 28.4v101.8c0 15.7-12.7 28.4-28.4 28.4s-28.4-12.7-28.4-28.4V124.7z m-507.9 0c0-15.7 12.7-28.4 28.4-28.4s28.4 12.7 28.4 28.4v101.8c0 15.7-12.7 28.4-28.4 28.4S236 242.2 236 226.5V124.7z m-127.6 61.1h98.3v40.7c0 31.8 25.9 57.8 57.8 57.8s57.8-25.9 57.8-57.8v-40.7h392.4v40.7c0 31.8 25.9 57.8 57.8 57.8 31.8 0 57.8-25.9 57.8-57.8v-40.7h96.8c5.2 0 9.4 4.2 9.4 9.4v176.4H99v-28.3h431c8.1 0 14.7-6.6 14.7-14.7s-6.6-14.7-14.7-14.7H99V195.2c0-5.2 4.2-9.4 9.4-9.4z m818.5 700.4H108.4c-5.2 0-9.4-4.2-9.4-9.4V401h837.3v475.8c0 5.1-4.3 9.4-9.4 9.4z" fill="#274359" p-id="1941"></path><path d="M605.7 343.3h33.6c8.1 0 14.7-6.6 14.7-14.7s-6.6-14.7-14.7-14.7h-33.6c-8.1 0-14.7 6.6-14.7 14.7s6.6 14.7 14.7 14.7zM778.5 514.6H256.8c-8.1 0-14.7 6.6-14.7 14.7s6.6 14.7 14.7 14.7h521.7c8.1 0 14.7-6.6 14.7-14.7s-6.6-14.7-14.7-14.7zM778.5 621.9H256.8c-8.1 0-14.7 6.6-14.7 14.7s6.6 14.7 14.7 14.7h521.7c8.1 0 14.7-6.6 14.7-14.7s-6.6-14.7-14.7-14.7zM541.7 729.3H256.8c-8.1 0-14.7 6.6-14.7 14.7s6.6 14.7 14.7 14.7h284.9c8.1 0 14.7-6.6 14.7-14.7s-6.6-14.7-14.7-14.7z" fill="#274359" p-id="1942"></path></svg>