<?xml version="1.0" standalone="no"?><!DOCTYPE svg PUBLIC "-//W3C//DTD SVG 1.1//EN" "http://www.w3.org/Graphics/SVG/1.1/DTD/svg11.dtd"><svg t="1531987981048" class="icon" style="" viewBox="0 0 1024 1024" version="1.1" xmlns="http://www.w3.org/2000/svg" p-id="1204" xmlns:xlink="http://www.w3.org/1999/xlink" width="200" height="200"><defs><style type="text/css"></style></defs><path d="M230.1 655.8h543.7v165.5H230.1z" fill="#FCDC30" p-id="1205"></path><path d="M175.7 936c0 15 12.2 27.1 27.1 27.1S230 951 230 936V565.7h-54.3V936zM773.7 565.7V936c0 15 12.2 27.1 27.1 27.1 15 0 27.1-12.2 27.1-27.1V565.7h-54.2z" fill="#323948" p-id="1206"></path><path d="M773.7 565.7h54.4v27.1h-54.4zM175.7 565.7h54.4v27.1h-54.4z" fill="" p-id="1207"></path><path d="M244.8 676.2h-8.1M153.8 676.2H137" fill="#838F99" p-id="1208"></path><path d="M138.8 193.7h744.6c20.9 0 40.3 5.9 55.7 21.2 15.3 15.3 21.2 34.6 21.2 55.4v228.8c0 20.3-6.6 39.2-21.2 53.8-14.7 14.7-33.7 21.2-54 21.2H138.9c-21.9 0-43-8.5-57.4-25-12.5-14.4-17.7-32-17.6-50.6V269c0-3.4 0-6.7 0.4-10.1 3.4-34.5 31.5-62.3 66.3-65 2.7-0.2 5.4-0.2 8.2-0.2z" fill="#FCDC30" p-id="1209"></path><path d="M741.5 199.2L370 568.8H175.1L546.8 199l194.7 0.2z m213.4 175.6L760 568.8H565l360.3-358.4c17.8 10.5 29.7 32.8 29.7 55.5l-0.1 108.9zM351.5 199.2L69 480.2v-194l87.7-87.4 194.8 0.4zM641.1 659.8L415.8 818.6H297.5L523 659.7l118.1 0.1z m129.4 75.5l-118.3 83.3H534L770.8 659c0.2 13-0.2 19.9-0.2 29.7l-0.1 46.6z m-365.9-75.5L233.3 780.6v-83.3l53.3-37.5h118z" fill="#FF930E" p-id="1210"></path></svg>