<?xml version="1.0" standalone="no"?><!DOCTYPE svg PUBLIC "-//W3C//DTD SVG 1.1//EN" "http://www.w3.org/Graphics/SVG/1.1/DTD/svg11.dtd"><svg t="1531988022565" class="icon" style="" viewBox="0 0 1024 1024" version="1.1" xmlns="http://www.w3.org/2000/svg" p-id="3437" xmlns:xlink="http://www.w3.org/1999/xlink" width="200" height="200"><defs><style type="text/css"></style></defs><path d="M201.4 462.4h3.4v343.4h-3.4zM228.1 462.4h3.4v343.4h-3.4z" fill="#DFDFDF" p-id="3438"></path><path d="M143.315 790.18L261.101 467.72l3.194 1.166L146.51 791.347zM168.408 799.552L286.4 477.065l3.193 1.169L171.601 800.72z" fill="#DFDFDF" p-id="3439"></path><path d="M317.9 495.1l-2.6-2.2-220.7 263 2.6 2.3zM338.3 512.4l-2.6-2.2-220.7 263 2.6 2.1z" fill="#DFDFDF" p-id="3440"></path><path d="M60.221 707.055l297.453-171.597 1.7 2.945L61.92 710zM372.8 561.5l-1.8-3.1L73.5 730.2l1.8 2.9z" fill="#DFDFDF" p-id="3441"></path><path d="M44.69 648.92l338.214-59.408 0.589 3.35-338.215 59.407zM388.2 619.2l-0.7-3.4-338.1 59.7 0.6 3.3z" fill="#DFDFDF" p-id="3442"></path><path d="M387.5 652.6l0.7-3.5L50 589.5l-0.6 3.5zM382.9 678.8l0.6-3.3-338.2-59.7-0.6 3.4z" fill="#DFDFDF" p-id="3443"></path><path d="M371 710l1.8-3L75.3 535.2l-1.8 3zM60.181 561.266l1.701-2.944 297.35 171.769-1.7 2.944z" fill="#DFDFDF" p-id="3444"></path><path d="M115.296 495.05l2.61-2.18 220.222 263.491-2.61 2.18zM315.3 775.3l2.6-2.1-220.7-263-2.6 2.2z" fill="#DFDFDF" p-id="3445"></path><path d="M168.635 468.836l3.195-1.162 117.34 322.728-3.195 1.161zM261 800.7l3.3-1.2-117.5-322.7-3.2 1.2z" fill="#DFDFDF" p-id="3446"></path><path d="M216.4 830.6c-108.3 0-196.6-88.1-196.6-196.5S108 437.7 216.3 437.7s196.5 88.1 196.5 196.5c0.1 108.3-88 196.4-196.4 196.4z m0-362.6c-91.6 0-166.2 74.5-166.2 166.2 0 91.6 74.5 166.2 166.2 166.2 91.6 0 166.2-74.5 166.2-166.2C382.5 542.5 308 468 216.4 468z" fill="#5F7B88" p-id="3447"></path><path d="M216.4 467.6c91.9 0 166.4 74.6 166.4 166.4 0 91.9-74.6 166.4-166.4 166.4-91.9 0.1-166.4-74.5-166.4-166.3-0.1-91.9 74.5-166.5 166.4-166.5m0 335.6c93.4 0 169.2-75.7 169.2-169.2 0-93.4-75.7-169.2-169.2-169.2-93.4 0-169.2 75.7-169.2 169.2S123 803.2 216.4 803.2m0-339.5c-45.5 0-88.3 17.7-120.5 49.9S46 588.6 46 634.1s17.8 88.2 50 120.4 75 49.9 120.5 49.9 88.3-17.7 120.5-49.9 49.9-75 49.9-120.5-17.7-88.3-49.9-120.5c-32.2-32-75.1-49.8-120.6-49.8z m0 333.6c-43.6 0-84.6-17-115.3-47.8-30.8-30.8-47.8-71.7-47.8-115.3 0-43.6 17-84.6 47.8-115.3 30.8-30.8 71.7-47.8 115.3-47.8s84.6 17 115.3 47.8 47.8 71.7 47.8 115.3c0 43.6-17 84.6-47.8 115.3-30.7 30.8-71.7 47.8-115.3 47.8z" fill="" p-id="3448"></path><path d="M-40.6 707.5" fill="#5E413A" p-id="3449"></path><path d="M207.1 635h20" fill="#FFBF06" p-id="3450"></path><path d="M216.4 650.9c-9.3 0-16.9-7.6-16.9-16.9s7.6-16.7 16.9-16.7 16.7 7.6 16.7 16.7c0.1 9.4-7.4 16.9-16.7 16.9z" fill="#5E413A" p-id="3451"></path><path d="M243.4 625c5 14.8-3 31-17.8 36s-31-3-36-17.8 3-31 17.8-36c14.9-5 31 3 36 17.8z" fill="#424242" p-id="3452"></path><path d="M198 640.3c3.4 10.2 14.5 15.7 24.7 12.2 10.2-3.4 15.7-14.5 12.4-24.7-3.4-10.2-14.5-15.7-24.7-12.2-10.4 3.5-15.8 14.5-12.4 24.7z" fill="#FFFFFF" p-id="3453"></path><path d="M443.4 606.1h-33c-2.6 0-4.8 3-4.8 6.5 0 3.6 2.1 6.5 4.8 6.5h33c2.6 0 4.8-3 4.8-6.5s-2.1-6.5-4.8-6.5z" fill="#5E413A" p-id="3454"></path><path d="M421.9 618.6h-6.1l47 43.4h6.1z" fill="#5E413A" p-id="3455"></path><path d="M783.2 461.5h3.4v343.4h-3.4zM809.9 461.5h3.4v343.4h-3.4z" fill="#DFDFDF" p-id="3456"></path><path d="M725.159 789.262l117.786-322.461 3.193 1.166L728.352 790.43zM750.132 798.385l117.992-322.487 3.193 1.168-117.992 322.487z" fill="#DFDFDF" p-id="3457"></path><path d="M899.7 494.1L897 492 676.3 755l2.6 2.2zM920.1 511.3l-2.6-2.1-220.8 263 2.7 2.1z" fill="#DFDFDF" p-id="3458"></path><path d="M642.105 705.92l297.453-171.596 1.699 2.945-297.453 171.597zM954.5 560.4l-1.7-3-297.4 171.7 1.7 3z" fill="#DFDFDF" p-id="3459"></path><path d="M626.468 647.925l338.215-59.408 0.588 3.349-338.214 59.408zM969.9 618.3l-0.6-3.5-338.2 59.6 0.6 3.5z" fill="#DFDFDF" p-id="3460"></path><path d="M969.3 651.5l0.6-3.3-338.2-59.6-0.6 3.3zM964.7 677.9l0.6-3.5-338.2-59.6-0.6 3.5z" fill="#DFDFDF" p-id="3461"></path><path d="M952.8 709l1.7-3.1-297.4-171.7-1.7 3zM641.916 560.11l1.701-2.944 297.35 171.768-1.7 2.945z" fill="#DFDFDF" p-id="3462"></path><path d="M697.107 493.969l2.608-2.18 220.223 263.49-2.61 2.18zM897 774.3l2.7-2.1-220.8-263-2.6 2.1z" fill="#DFDFDF" p-id="3463"></path><path d="M750.517 467.711l3.195-1.161 117.34 322.727-3.195 1.162zM842.8 799.6l3.2-1.1-117.3-322.7-3.4 1.2z" fill="#DFDFDF" p-id="3464"></path><path d="M798.3 823c-104.7 0-189.9-85.2-189.9-189.8s85.2-189.8 189.8-189.8S988 528.6 988 633.2c0.1 104.7-85.1 189.8-189.7 189.8z m0-351.9c-89.3 0-162.1 72.7-162.1 162.1 0 89.3 72.7 162.1 162.1 162.1 89.3 0 162.1-72.7 162.1-162.1-0.1-89.4-72.8-162.1-162.1-162.1z" fill="#5F7B88" p-id="3465"></path><path d="M798.3 466.6c91.9 0 166.4 74.6 166.4 166.4 0 91.9-74.6 166.4-166.4 166.4-91.9 0-166.4-74.6-166.4-166.4-0.2-91.8 74.3-166.4 166.4-166.4m0 335.7c93.4 0 169.2-75.7 169.2-169.2 0-93.4-75.7-169.2-169.2-169.2-93.4 0-169.2 75.7-169.2 169.2 0 93.5 75.7 169.2 169.2 169.2m0-339.5c-45.5 0-88.3 17.7-120.5 49.9s-49.9 75-49.9 120.5 17.7 88.3 49.9 120.5 75 49.9 120.5 49.9 88.3-17.7 120.5-49.9 49.9-75 49.9-120.5-17.7-88.3-49.9-120.5c-32.3-32.1-75-49.9-120.5-49.9z m0 333.5c-43.6 0-84.6-17-115.3-47.8-30.8-30.8-47.8-71.7-47.8-115.3 0-43.6 17-84.6 47.8-115.3 30.8-30.8 71.7-47.8 115.3-47.8 43.6 0 84.6 17 115.3 47.8 30.8 30.8 47.8 71.7 47.8 115.3 0 43.6-17 84.6-47.8 115.3-30.8 30.8-71.7 47.8-115.3 47.8z" fill="" p-id="3466"></path><path d="M536.5 699.3h-33c-2.6 0-4.8 3.2-4.8 7.1 0 3.9 2.1 7.1 4.8 7.1h33c2.6 0 4.8-3.2 4.8-7.1-0.1-3.9-2.2-7.1-4.8-7.1z" fill="#5E413A" p-id="3467"></path><path d="M357.8 291.5h-9.7l43.4 143.7h9.8zM698.4 351.6l90.5 282.5h20l-86.6-269.5c-0.8-2.6 1-6.5 5-6.5l58.9-15.4c12.8 0 23.4 10.6 23.4 23.4 0 12.8-10.6 23.4-23.4 23.4h-36.9c-5 0-9.1 4.2-9.1 9.1 0 5 4.2 9.1 9.1 9.1h37.4c22.7-0.2 41.2-18.9 41.2-41.7 0-22.9-18.8-41.7-41.7-41.7l-79.6 15.4c-7.3 0-9.5 7.2-8.2 11.9z" fill="#FFBF06" p-id="3468"></path><path d="M422.3 293.8L293.7 289c-12.5 0-11.8 12.2-6.3 17.7l24.7 15.7c8.1 8.1 45.5-10 66.2-10l43.4 1.2c14 0.1 14.7-19.8 0.6-19.8z" fill="#5E413A" p-id="3469"></path><path d="M465.3 671l-251-30.4v-15l251 30.4z" fill="#FFBF06" p-id="3470"></path><path d="M481.9 661.4l249-250.9-6.2-11h1.4l-2.7-14H396.3l-2.4-7.8h-28.3l7.8 25.5-185.5 250.5 14.5 8.9 177.3-239L459 682.2l8.3-6.8 0.2 0.5 3.1-3.1 11.9-9.6-0.6-1.8z m232.9-262L475.5 640.6l-74.8-241.1h314.1z" fill="#FFBF06" p-id="3471"></path><path d="M216.2 673c-22 0-39.8-17.9-39.8-39.8 0-22 17.9-39.8 39.8-39.8 22 0 39.8 17.9 39.8 39.8 0.1 21.9-17.8 39.8-39.8 39.8zM798.3 650c-9.3 0-16.9-7.6-16.9-16.9s7.6-16.7 16.9-16.7c9.3 0 16.7 7.6 16.7 16.7 0 9.4-7.5 16.9-16.7 16.9z" fill="#5E413A" p-id="3472"></path><path d="M465.4 624.8c-20.6 0-37.2 16.6-37.2 37.2s16.6 37.2 37.2 37.2 37.2-16.6 37.2-37.2-16.6-37.2-37.2-37.2z m0 84.1c-25.9 0-46.9-21-46.9-46.9s21-46.9 46.9-46.9 46.9 21 46.9 46.9-21 46.9-46.9 46.9z" fill="#424242" p-id="3473"></path><path d="M465.4 682.4c-11.3 0-20.4-9.1-20.4-20.4s9.1-20.4 20.4-20.4 20.4 9.1 20.4 20.4-9.1 20.4-20.4 20.4z" fill="#5E413A" p-id="3474"></path><path d="M471.4 662.6h-6.1l41 37.7h6z" fill="#5E413A" p-id="3475"></path><path d="M719.9 385.4h50.8c29.9 0-2 6.3-2 14s32 14 2 14h-50.8c-7.7 0-14-6.3-14-14-0.1-7.7 6.2-14 14-14z" fill="#5E413A" p-id="3476"></path><path d="M267.6 615.8c9.6 28.4-5.7 59.3-34.1 68.9-28.5 9.6-59.3-5.7-68.9-34.2-9.6-28.5 5.7-59.3 34.1-68.9 28.6-9.7 59.3 5.7 68.9 34.2z" fill="#424242" p-id="3477"></path><path d="M178.3 645.8c7 20.8 29.6 32.1 50.5 25.1s32.2-29.6 25.2-50.4v-0.1c-7-20.8-29.7-32.2-50.5-25.1-20.9 7-32.2 29.6-25.2 50.5z" fill="#FFFFFF" p-id="3478"></path><path d="M825.1 624.1c5 14.8-3 31-17.8 36s-31-3-36-17.8 3-31 17.8-36c15-5.2 31 2.8 36 17.8 0-0.1 0-0.1 0 0z" fill="#424242" p-id="3479"></path><path d="M779.7 639.3c3.4 10.2 14.5 15.7 24.7 12.2 10.2-3.4 15.7-14.5 12.4-24.7-3.4-10.2-14.5-15.7-24.7-12.2-10.3 3.4-15.8 14.5-12.4 24.7z" fill="#FFFFFF" p-id="3480"></path></svg>