<?xml version="1.0" standalone="no"?><!DOCTYPE svg PUBLIC "-//W3C//DTD SVG 1.1//EN" "http://www.w3.org/Graphics/SVG/1.1/DTD/svg11.dtd"><svg t="1531988010803" class="icon" style="" viewBox="0 0 1024 1024" version="1.1" xmlns="http://www.w3.org/2000/svg" p-id="2743" xmlns:xlink="http://www.w3.org/1999/xlink" width="200" height="200"><defs><style type="text/css"></style></defs><path d="M159.5 665c53.7 0 98.5 38.4 108.3 89.3h4c9.9-50.9 54.6-89.3 108.3-89.3 34 0 64.4 15.4 84.7 39.6V293.3c0-6.9-5.7-12.6-12.6-12.6H45.9c-6.9 0-12.6 5.7-12.6 12.6v448.3c0 6.9 5.7 12.6 12.6 12.6h5.2c9.8-50.7 54.6-89.2 108.4-89.2z" fill="#CC320E" p-id="2744"></path><path d="M247.3 610.3H111.2c-6.8 0-12.5-8.8-12.5-19.3V364.3c0-10.3 5.4-18.7 12.1-18.7h135c6.2 0 11.3 8 11.3 17.5V595c-0.1 8.5-4.5 15.3-9.8 15.3zM410 585H291.1c-6 0-10.9-6.2-10.9-13.6v-160c0-7.2 4.7-13.1 10.5-13.1h117.8c5.4 0 9.9 5.6 9.9 12.4v163.7c0.1 5.8-3.8 10.6-8.4 10.6z" fill="#A5E1EF" p-id="2745"></path><path d="M382.2 775.3m-96.5 0a96.5 96.5 0 1 0 193 0 96.5 96.5 0 1 0-193 0Z" fill="#3E4A5E" p-id="2746"></path><path d="M160.7 775.3m-96.5 0a96.5 96.5 0 1 0 193 0 96.5 96.5 0 1 0-193 0Z" fill="#3E4A5E" p-id="2747"></path><path d="M382.2 775.3m-79.1 0a79.1 79.1 0 1 0 158.2 0 79.1 79.1 0 1 0-158.2 0Z" fill="#303030" p-id="2748"></path><path d="M160.7 775.3m-79.1 0a79.1 79.1 0 1 0 158.2 0 79.1 79.1 0 1 0-158.2 0Z" fill="#303030" p-id="2749"></path><path d="M890.5 533.1v179.1c20.6 0 51.4-40.1 51.4-89.5 0-49.6-31-89.6-51.4-89.6z" fill="#3E4A5E" p-id="2750"></path><path d="M632.7 360.9h26v156.5h-26z" fill="#424242" p-id="2751"></path><path d="M624.5 428.4h40.4c2.6 0 4.7-2.1 4.7-4.7v-68c0-2.6-2.1-4.7-4.7-4.7l-43.5-52.5c-2.6 0-1.6 54.6-1.6 57.2v68c0 2.6 2.2 4.7 4.7 4.7z" fill="#303030" p-id="2752"></path><path d="M876.6 662.7H476.9v-152c0-12.5 10.2-22.8 22.8-22.8H854c12.5 0 22.8 10.2 22.8 22.8v152h-0.2z" fill="#CC320E" p-id="2753"></path><path d="M469.3 296.6H28.8c-12.1 0-21.8-9.8-21.8-21.8v-26.9c0-12.1 9.8-21.8 21.8-21.8h440.4c12.1 0 21.8 9.8 21.8 21.8v26.9c0 12-9.7 21.8-21.7 21.8z" fill="#3E4A5E" p-id="2754"></path><path d="M854.4 835.1h154l-118-113.5h-36z" fill="#282828" p-id="2755"></path><path d="M736.5 799.6m-72.3 0a72.3 72.3 0 1 0 144.6 0 72.3 72.3 0 1 0-144.6 0Z" fill="#3E4A5E" p-id="2756"></path><path d="M736.5 799.6m-59.3 0a59.3 59.3 0 1 0 118.6 0 59.3 59.3 0 1 0-118.6 0Z" fill="#303030" p-id="2757"></path><path d="M588.5 799.6m-72.3 0a72.3 72.3 0 1 0 144.6 0 72.3 72.3 0 1 0-144.6 0Z" fill="#3E4A5E" p-id="2758"></path><path d="M588.5 799.6m-59.3 0a59.3 59.3 0 1 0 118.6 0 59.3 59.3 0 1 0-118.6 0Z" fill="#303030" p-id="2759"></path><path d="M568.7 799.6h187.7c1.3 0 2.2-1 2.2-2.2v-6.5c0-1.3-1-2.2-2.2-2.2H568.7c-1.3 0-2.2 1-2.2 2.2v6.5c0 1.1 0.9 2.2 2.2 2.2zM568.7 821.4h187.7c1.3 0 2.2-1 2.2-2.2v-6.5c0-1.3-1-2.2-2.2-2.2H568.7c-1.3 0-2.2 1-2.2 2.2v6.5c0 1.2 0.9 2.2 2.2 2.2zM153.5 762.3H380c1.3 0 2.2-1 2.2-2.2v-6.5c0-1.3-1-2.2-2.2-2.2H153.5c-1.3 0-2.2 1-2.2 2.2v6.5c0 1.2 0.9 2.2 2.2 2.2zM153.5 786.2H380c1.3 0 2.2-1 2.2-2.2v-6.5c0-1.3-1-2.2-2.2-2.2H153.5c-1.3 0-2.2 1-2.2 2.2v6.5c0 1.3 0.9 2.2 2.2 2.2z" fill="#424242" p-id="2760"></path><path d="M219.8 492.8c4.9-1.9 7.3-7.4 5.5-12.4l-34.4-89.2c-1.9-4.9-7.4-7.3-12.4-5.5-4.9 1.9-7.3 7.4-5.5 12.4l34.4 89.2c1.9 4.8 7.5 7.4 12.4 5.5zM219.8 586.6c4.9-1.9 7.3-7.4 5.5-12.4L190.8 485c-1.9-4.9-7.4-7.3-12.4-5.5-4.9 1.9-7.3 7.4-5.5 12.4l34.4 89.2c2 4.8 7.6 7.4 12.5 5.5z" fill="#E1FEFF" p-id="2761"></path><path d="M632.7 565.5m-29 0a29 29 0 1 0 58 0 29 29 0 1 0-58 0Z" fill="#3E4A5E" p-id="2762"></path><path d="M708.8 565.5m-29 0a29 29 0 1 0 58 0 29 29 0 1 0-58 0Z" fill="#3E4A5E" p-id="2763"></path><path d="M783.5 565.5m-29 0a29 29 0 1 0 58 0 29 29 0 1 0-58 0Z" fill="#3E4A5E" p-id="2764"></path><path d="M476.9 674.9v87.4h39.8c13.5-25.9 40.6-43.8 71.9-43.8s58.3 17.7 71.9 43.8h4.4c13.5-25.9 40.6-43.8 71.9-43.8 31.3 0 58.4 17.7 71.9 43.8h68.2v-87.4h-400z" fill="#282828" p-id="2765"></path></svg>