<?xml version="1.0" standalone="no"?><!DOCTYPE svg PUBLIC "-//W3C//DTD SVG 1.1//EN" "http://www.w3.org/Graphics/SVG/1.1/DTD/svg11.dtd"><svg t="1531988015356" class="icon" style="" viewBox="0 0 1024 1024" version="1.1" xmlns="http://www.w3.org/2000/svg" p-id="3013" xmlns:xlink="http://www.w3.org/1999/xlink" width="200" height="200"><defs><style type="text/css"></style></defs><path d="M535.2 590.2h11.1v144.4h-11.1zM749.2 590.2h11.1v144.4h-11.1z" fill="#CCCCCC" p-id="3014"></path><path d="M845.3 691.7c-4.2 0-7.7 3.4-7.7 7.7 0 24.8-36.9 25.2-38.5 25.2H458.7c-4.2 0-7.7 3.4-7.7 7.7 0 4.2 3.4 7.7 7.7 7.7h340.5c18.6 0 53.8-8.5 53.8-40.6 0-4.2-3.5-7.7-7.7-7.7z" fill="#454C54" p-id="3015"></path><path d="M613.9 434.3h-33.5" fill="#CCCCCC" p-id="3016"></path><path d="M624.9 434.3h72.7" fill="#E5E5E5" p-id="3017"></path><path d="M697.6 434.3h-33.5" fill="#CCCCCC" p-id="3018"></path><path d="M605.9 310.9h15v76.8h-15z" fill="#CCCCCC" p-id="3019"></path><path d="M637.3 417.9h-48.2c-13.2 0-23.9-10.7-23.9-23.9v-7c0-13.2 10.7-23.9 23.9-23.9h48.2c13.2 0 23.9 10.7 23.9 23.9v7c0.1 13.2-10.7 23.9-23.9 23.9z" fill="#4CBAF2" p-id="3020"></path><path d="M622.4 318.3h-17.7c-3.4 0-6.2-2.8-6.2-6.2v-37.5h30v37.6c-0.1 3.4-2.8 6.1-6.1 6.1z" fill="#4CBAF2" p-id="3021"></path><path d="M576.82 286.641v-14h73.3v14z" fill="#369CD0" p-id="3022"></path><path d="M962.1 605l-74.5-181.2c-9-25.3-32.9-32-59.7-32l-464.5 7L69.5 404l-12.9-46.4c-0.1-0.3-0.6-0.5-1.2-0.5h-20c-0.7 0-1.2 0.3-1.2 0.6V434.4l295 62.6c27.6 5.9 53.2 25.3 73.2 56.1l39.2 58.1c14 19.8 21.5 29.8 43.1 38.3 1.6 0.6 2.5 0.9 4.9 0.9h437.5c21.1 0 41.1-22.4 35-45.4z" fill="#E84E2F" p-id="3023"></path><path d="M614.4 276l-363.9 5.6v-14.1l363.9 5.6zM91.3 426.8l42.3 35.8 7.5-10.8-48.3-27.3z" fill="#454C54" p-id="3024"></path><path d="M91.3 426.8l-48.2-27.3 7.5-10.8 42.2 35.8z" fill="#454C54" p-id="3025"></path><path d="M91 424.9l-35.8 42.2 10.7 7.5 27.3-48.2z" fill="#454C54" p-id="3026"></path><path d="M91 424.9l27.2-48.3 10.8 7.6-35.8 42.2zM614.4 276l363.9 5.6v-14.1l-363.9 5.6z" fill="#454C54" p-id="3027"></path><path d="M888.6 541.1h-91.9c-3.4 0-6.3-2.4-6.9-5.8l-17.6-100.4c-0.7-4.3 2.5-8.2 6.9-8.2h67.2c2.8 0 5.3 1.7 6.4 4.2l42.7 99.7c2.2 5-1.5 10.5-6.8 10.5zM766.6 542.6H639.7c-6 0-10.8-4.8-10.8-10.8v-94.4c0-6 4.8-10.8 10.8-10.8h110.6c5.3 0 9.7 3.8 10.6 9l16.3 94.4c1.2 6.6-3.9 12.6-10.6 12.6z" fill="#A5E0EF" p-id="3028"></path><path d="M764.2 540.6H641.7c-5.8 0-10.4-4.7-10.4-10.4V439c0-5.8 4.7-10.4 10.4-10.4" fill="#E1FEFF" p-id="3029"></path></svg>