<?xml version="1.0" standalone="no"?><!DOCTYPE svg PUBLIC "-//W3C//DTD SVG 1.1//EN" "http://www.w3.org/Graphics/SVG/1.1/DTD/svg11.dtd"><svg t="1531987999214" class="icon" style="" viewBox="0 0 1024 1024" version="1.1" xmlns="http://www.w3.org/2000/svg" p-id="2108" xmlns:xlink="http://www.w3.org/1999/xlink" width="200" height="200"><defs><style type="text/css"></style></defs><path d="M134.1 217h30.7v101.5h-30.7zM352.5 217h30.7v101.5h-30.7z" fill="#3F5770" p-id="2109"></path><path d="M87.9 330.7h858.9v581.8H87.9z" fill="#5C96BE" p-id="2110"></path><path d="M87.9 811.4h858.9v101.1H87.9z" fill="#426587" p-id="2111"></path><path d="M498 744.8h414.7v30.7H498z" fill="#426587" p-id="2112"></path><path d="M240.2 627.9c0 32.4 26.3 58.6 58.6 58.6s58.6-26.3 58.6-58.6c0-32.4-26.3-58.6-58.6-58.6s-58.6 26.2-58.6 58.6z" fill="#FFFFFF" p-id="2113"></path><path d="M302.5 654.5c-2-0.7-5.1-0.7-7.1 0l-15.1 5.3c-2 0.7-3.5-0.4-3.4-2.5l0.4-16c0-2.1-0.9-5.1-2.2-6.8l-9.8-12.6c-1.3-1.7-0.7-3.4 1.3-4l15.4-4.5c2-0.6 4.5-2.4 5.8-4.2l9.1-13.2c1.2-1.7 3.1-1.7 4.2 0l9.1 13.2c1.2 1.7 3.8 3.7 5.8 4.2l15.4 4.5c2 0.6 2.5 2.4 1.3 4l-9.8 12.6c-1.3 1.7-2.2 4.7-2.2 6.8l0.4 16c0 2.1-1.4 3.2-3.4 2.5-0.2 0.1-15.2-5.3-15.2-5.3z" fill="#FFB819" p-id="2114"></path><path d="M972.2 940.4H46c-7.8 0-14-6.2-14-14s6.2-14 14-14h926.2c7.8 0 14 6.2 14 14 0 7.7-6.2 14-14 14zM972.2 335.2H46c-7.8 0-14-6.2-14-14s6.2-14 14-14h926.2c7.8 0 14 6.2 14 14s-6.2 14-14 14z" fill="#3E5571" p-id="2115"></path><path d="M180.2 744.8h96.9v164.6h-96.9zM309.9 744.8h96.9v164.6h-96.9z" fill="#3F5770" p-id="2116"></path><path d="M248.3 838.2m-11.2 0a11.2 11.2 0 1 0 22.4 0 11.2 11.2 0 1 0-22.4 0Z" fill="#EDCFBB" p-id="2117"></path><path d="M333.6 838.2m-11.2 0a11.2 11.2 0 1 0 22.4 0 11.2 11.2 0 1 0-22.4 0Z" fill="#EDCFBB" p-id="2118"></path><path d="M861.6 744.8H557.4V487.9c0-26 21.2-47.2 47.2-47.2H814c26.3 0 47.6 21.3 47.6 47.6v256.5z" fill="#A5E1EF" p-id="2119"></path><path d="M811.8 641.8c-5.2 2-11.1-0.6-13.1-5.8L750 509.8c-2-5.2 0.6-11.1 5.8-13.1s11.1 0.6 13.1 5.8l48.8 126.3c2 5.2-0.7 11-5.9 13zM800.7 719.4c-5.2 2-11.1-0.6-13.1-5.8l-48.8-126.3c-2-5.2 0.6-11.1 5.8-13.1s11.1 0.6 13.1 5.8l48.8 126.3c2.1 5.3-0.6 11.1-5.8 13.1z" fill="#E1FEFF" p-id="2120"></path><path d="M96.7 164.7h325.8v96.7H96.7z" fill="#3F5770" p-id="2121"></path></svg>