<?xml version="1.0" standalone="no"?><!DOCTYPE svg PUBLIC "-//W3C//DTD SVG 1.1//EN" "http://www.w3.org/Graphics/SVG/1.1/DTD/svg11.dtd"><svg t="1531988008855" class="icon" style="" viewBox="0 0 1024 1024" version="1.1" xmlns="http://www.w3.org/2000/svg" p-id="2626" xmlns:xlink="http://www.w3.org/1999/xlink" width="200" height="200"><defs><style type="text/css"></style></defs><path d="M487.5 719.2v241.5c0 17.6 14.3 31.9 31.9 31.9 17.6 0 31.9-14.3 31.9-31.9V719.2h-63.8z" fill="#323948" p-id="2627"></path><path d="M487.5 719.2h63.8v31.9h-63.8z" fill="" p-id="2628"></path><path d="M826.5 215.9L679.7 69.2s-21-21-41.9-21H386.2c-21 0-41.9 21-41.9 21L197.5 215.9s-21 21-21 41.9v251.6c0 21 21 41.9 21 41.9l146.8 146.8s21 21 41.9 21h251.6c21 0 41.9-21 41.9-21l146.8-146.8s21-21 21-41.9V257.8c0-20.8-21-41.9-21-41.9z" fill="#E84E2F" p-id="2629"></path><path d="M268.5 352.7c0 3.8 1.1 7.1 3.3 9.8 2.2 2.7 5.1 5.1 8.7 7.1s7.7 3.9 12.4 5.7c4.7 1.8 9.5 3.5 14.4 5.3 6.5 2.3 12.2 4.7 17.3 7.1 5.1 2.4 9.4 5.2 13 8.4 3.6 3.1 6.3 6.7 8.2 10.8 1.9 4.1 2.8 8.8 2.8 14.3 0 6-1.4 11.5-4.1 16.6-2.7 5.1-6.5 9.5-11.5 13.2-4.9 3.7-10.8 6.7-17.7 8.8-6.9 2.1-14.4 3.2-22.5 3.4-6.5 0.1-12.8-0.4-19-1.7-6.2-1.3-11.8-2.9-16.7-4.8-7.3-3-12.1-6.1-14.3-9.4-2.2-3.3-2.2-6.1 0-8.6 1.9-1.9 4-2.8 6.5-2.6 2.5 0.1 5.1 1 8 2.4 5.1 2.7 10.7 5.1 16.7 7 6 2 12.6 3 19.7 3 4.4 0 8.7-0.7 12.9-2 4.2-1.4 7.9-3.2 11.1-5.5 3.2-2.3 5.8-5.1 7.8-8.4 2-3.3 2.9-6.8 2.9-10.6s-0.9-7.2-2.8-10.3c-1.9-3.1-4.3-5.8-7.4-8.2-3.1-2.4-6.5-4.4-10.3-6.1-3.8-1.7-7.6-3.2-11.3-4.4-7-2.2-13.4-4.4-19.4-6.7-5.9-2.3-11.1-5-15.4-7.9-4.3-3-7.7-6.6-10.1-10.7-2.4-4.1-3.6-9.2-3.6-15.2 0-5.4 1.4-10.4 4.1-14.8 2.7-4.4 6.3-8.2 10.8-11.2 4.5-3.1 9.7-5.4 15.5-6.9 5.9-1.6 12-2.3 18.5-2.3s12.7 0.7 18.9 2.1 11.3 3.2 15.7 5.3c4.3 2.1 7.4 4.5 9.3 7.1 1.9 2.6 1.9 5.3 0 7.8-1.5 2-3.8 3-6.9 3-3.1-0.1-5.9-0.8-8.4-2.3-3.4-1.9-7.6-3.8-12.7-5.8s-10.4-2.9-15.8-2.8c-8.7 0-15.6 2-20.8 5.9-5.2 4-7.8 9-7.8 15.1zM442.5 335.4V454c0 2.7-0.7 4.8-2 6.1-1.4 1.4-4 2-7.9 2-3.9 0-6.5-0.7-7.9-2.1-1.4-1.4-2-3.4-2-6V335.4h-41c-3.1 0-5.5-0.5-7.3-1.6-1.8-1.1-2.7-3-2.7-5.7 0-2.6 0.9-4.4 2.8-5.6 1.9-1.2 4.2-1.7 7.1-1.7h101.9c2.9 0 5.3 0.6 7.1 1.9 1.9 1.3 2.8 3.2 2.8 5.6 0 2.7-1.1 4.6-3.2 5.6s-4.4 1.5-6.8 1.5h-40.9zM587.7 316.4c12.9 0 24.2 2 33.8 5.9 9.6 3.9 17.6 9.3 23.9 16 6.4 6.7 11.2 14.6 14.4 23.5 3.2 9 4.8 18.4 4.8 28.3 0 10.1-1.6 19.5-4.7 28.4-3.1 8.9-7.9 16.7-14.3 23.5-6.4 6.8-14.4 12.2-23.9 16.1-9.6 3.9-20.9 5.9-34 5.9-12.7 0-23.9-2-33.6-5.9-9.7-3.9-17.7-9.3-24.1-16-6.4-6.7-11.2-14.6-14.4-23.5-3.2-9-4.8-18.5-4.8-28.5 0-9.9 1.5-19.4 4.6-28.3 3.1-9 7.8-16.8 14.1-23.5 6.4-6.7 14.4-12.1 24.1-16 9.6-3.9 21-5.9 34.1-5.9z m0 133.1c9.5 0 17.8-1.4 25-4.3 7.1-2.9 13.1-6.9 17.8-12 4.8-5.2 8.3-11.3 10.7-18.5 2.4-7.2 3.6-15.1 3.6-23.8 0-7.9-1.1-15.4-3.3-22.6-2.2-7.2-5.6-13.6-10.3-19.2-4.7-5.6-10.6-10-17.8-13.3-7.2-3.3-15.8-5-25.6-5-9.9 0-18.4 1.7-25.6 5-7.2 3.3-13.2 7.7-17.8 13.2-4.7 5.5-8.1 11.8-10.3 19-2.2 7.1-3.3 14.6-3.3 22.3 0 7.6 1.1 14.9 3.3 22 2.2 7.1 5.6 13.4 10.2 19s10.5 10 17.7 13.3c7 3.3 15.6 4.9 25.7 4.9zM693.9 330.5c0-3.9 0.9-6.6 2.7-7.8 1.8-1.3 5.7-1.9 11.8-1.9h40.3c19.2 0 33.4 3.4 42.5 10.3 9.2 6.9 13.8 17.7 13.8 32.5 0 29.1-18.8 43.6-56.3 43.6H714V454c0 2.6-0.8 4.6-2.3 6-1.5 1.4-4.1 2.1-7.6 2.1-3.7 0-6.4-0.8-7.9-2.3-1.5-1.6-2.3-3.5-2.3-5.8V330.5z m20.1 62.8h34.6c13.1 0 22.4-2.4 28-7.1 5.6-4.8 8.4-12.2 8.4-22.4s-3.1-17.5-9.4-22c-6.3-4.5-15.3-6.7-27-6.7H714v58.2z" fill="#FFFFFF" p-id="2630"></path></svg>