<?xml version="1.0" standalone="no"?><!DOCTYPE svg PUBLIC "-//W3C//DTD SVG 1.1//EN" "http://www.w3.org/Graphics/SVG/1.1/DTD/svg11.dtd"><svg t="1531987989482" class="icon" style="" viewBox="0 0 1024 1024" version="1.1" xmlns="http://www.w3.org/2000/svg" p-id="1567" xmlns:xlink="http://www.w3.org/1999/xlink" width="200" height="200"><defs><style type="text/css"></style></defs><path d="M170.8 701.5c-23 0-41.7-18.7-41.7-41.7s18.7-41.7 41.7-41.7 41.7 18.7 41.7 41.7-18.7 41.7-41.7 41.7z" fill="#FFF0D2" p-id="1568"></path><path d="M170.8 628.1c17.5 0 31.7 14.2 31.7 31.7s-14.2 31.7-31.7 31.7-31.7-14.2-31.7-31.7 14.2-31.7 31.7-31.7m0-20c-28.6 0-51.7 23.1-51.7 51.7s23.1 51.7 51.7 51.7 51.7-23.1 51.7-51.7-23.1-51.7-51.7-51.7z" fill="" p-id="1569"></path><path d="M170.8 659.8m-7.8 0a7.8 7.8 0 1 0 15.6 0 7.8 7.8 0 1 0-15.6 0Z" fill="#FFF0D2" p-id="1570"></path><path d="M170.8 655c2.7 0 4.8 2.2 4.8 4.8s-2.2 4.8-4.8 4.8-4.8-2.2-4.8-4.8 2.1-4.8 4.8-4.8m0-6c-6 0-10.8 4.8-10.8 10.8s4.8 10.8 10.8 10.8 10.8-4.8 10.8-10.8-4.8-10.8-10.8-10.8z" fill="" p-id="1571"></path><path d="M303.9 659.8m-7.8 0a7.8 7.8 0 1 0 15.6 0 7.8 7.8 0 1 0-15.6 0Z" fill="#FFF0D2" p-id="1572"></path><path d="M303.9 655c2.7 0 4.8 2.2 4.8 4.8s-2.2 4.8-4.8 4.8c-2.7 0-4.8-2.2-4.8-4.8s2.1-4.8 4.8-4.8m0-6c-6 0-10.8 4.8-10.8 10.8s4.8 10.8 10.8 10.8 10.8-4.8 10.8-10.8-4.8-10.8-10.8-10.8z" fill="" p-id="1573"></path><path d="M303.9 659.8m-7.8 0a7.8 7.8 0 1 0 15.6 0 7.8 7.8 0 1 0-15.6 0Z" fill="#FFF0D2" p-id="1574"></path><path d="M303.9 655c2.7 0 4.8 2.2 4.8 4.8s-2.2 4.8-4.8 4.8c-2.7 0-4.8-2.2-4.8-4.8s2.1-4.8 4.8-4.8m0-6c-6 0-10.8 4.8-10.8 10.8s4.8 10.8 10.8 10.8 10.8-4.8 10.8-10.8-4.8-10.8-10.8-10.8z" fill="" p-id="1575"></path><path d="M303.9 701.5c-23 0-41.7-18.7-41.7-41.7s18.7-41.7 41.7-41.7 41.7 18.7 41.7 41.7-18.7 41.7-41.7 41.7z" fill="#FFF0D2" p-id="1576"></path><path d="M303.9 628.1c17.5 0 31.7 14.2 31.7 31.7s-14.2 31.7-31.7 31.7-31.7-14.2-31.7-31.7 14.2-31.7 31.7-31.7m0-20c-28.6 0-51.7 23.1-51.7 51.7s23.1 51.7 51.7 51.7 51.7-23.1 51.7-51.7-23.1-51.7-51.7-51.7z" fill="" p-id="1577"></path><path d="M798.6 701.5c-23 0-41.7-18.7-41.7-41.7s18.7-41.7 41.7-41.7 41.7 18.7 41.7 41.7-18.7 41.7-41.7 41.7z" fill="#FFF0D2" p-id="1578"></path><path d="M798.6 628.1c17.5 0 31.7 14.2 31.7 31.7s-14.2 31.7-31.7 31.7-31.7-14.2-31.7-31.7 14.2-31.7 31.7-31.7m0-20c-28.6 0-51.7 23.1-51.7 51.7s23.1 51.7 51.7 51.7 51.7-23.1 51.7-51.7-23.1-51.7-51.7-51.7z" fill="" p-id="1579"></path><path d="M948.1 401.4h-16.6V281.7h16.6c6.6 0 12 5.4 12 14v95.7c0 4.6-5.4 10-12 10z" fill="#CC320E" p-id="1580"></path><path d="M964.5 658.1h-25V548.4h25c2 0 3.6 1.6 3.6 3.6v102.5c0 1.9-1.6 3.6-3.6 3.6z" fill="#7C7C7C" p-id="1581"></path><path d="M983.6 632.1H968v-59.7h15.6c6.6 0 12 5.4 12 12v35.7c0 6.6-5.4 12-12 12z" fill="#D3D3D3" p-id="1582"></path><path d="M931.9 489.8V283.9c0-19.2-15.5-34.7-34.7-34.7H72c-21.7 0-39.5 17.8-39.5 39.5v201.1h899.4z" fill="#FFF0D2" p-id="1583"></path><path d="M883.8 225.3v-5.9c0-17.1-12.3-15.4-28.5-7.8-4.3 2-9.1 3.1-13.9 3.1H553.3c-5.6 0-11.2-1-16.5-3-18.4-7.2-32.4-6.8-32.4 12.5v1.1h379.4z" fill="" p-id="1584"></path><path d="M32.5 509.8v156h78.7c-0.3-3.3-0.4-6.7-0.2-10.2 2.1-31.3 28.5-55.9 59.8-55.9 33 0 59.8 26.8 59.8 59.9 0 2.1-0.1 4.1-0.3 6.2h13.6c-0.2-2.1-0.4-4.3-0.4-6.5 0-33.1 26.8-59.9 59.9-59.9s59.9 26.8 59.9 59.9c0 2.2-0.1 4.4-0.4 6.5h375.7c-0.3-3.3-0.4-6.7-0.2-10.2 2.1-31.3 28.5-55.9 59.8-55.9 33 0 59.8 26.8 59.8 59.9 0 2.1-0.1 4.1-0.3 6.2h74.1v-156H32.5z" fill="#CC320E" p-id="1585"></path><path d="M933.3 509.9H30.4c-3.8 0-6-2.2-6-5v-10c0-2.8 2.2-5 5-5h902.9c2.8 0 5 2.2 5 5v10c0 2.7-2.3 5-4 5z" fill="#A5E1EF" p-id="1586"></path><path d="M902.6 537.7H591.9c-1.3 0-2.1-1.5-2.1-3.5v-7c0-2 0.8-3.5 1.7-3.5h310.8c1 0 1.7 1.5 1.7 3.5v7c0 1.9-0.8 3.5-1.4 3.5zM373.5 537.7h-330c-1.4 0-2.2-1.5-2.2-3.5v-7c0-2 0.8-3.5 1.8-3.5h330c1 0 1.8 1.5 1.8 3.5v7c0.1 1.9-0.7 3.5-1.4 3.5z" fill="#FF6D00" p-id="1587"></path><path d="M162.8 471.8H92.6c-19.5 0-35.4-15.9-35.4-35.4V317.1c0-19.5 15.9-35.4 35.4-35.4h68.5c6.9 0 12.6 5.7 12.6 12.6v166.6c0.1 6-4.9 10.9-10.9 10.9zM364 471.7H212.4c-7.6 0-13.9-6.3-13.9-13.9V295.1c0-7.4 6-13.4 13.4-13.4h150.4c6.9 0 12.6 5.7 12.6 12.6v166.5c0.1 6-4.9 10.9-10.9 10.9z" fill="#A5E1EF" p-id="1588"></path><path d="M565.8 649H414.1c-7.6 0-13.9-12.2-13.9-26.9V307.6c0-14.3 6-25.9 13.4-25.9h150.5c6.9 0 12.6 11 12.6 24.3v321.9c0.1 11.6-4.9 21.1-10.9 21.1z" fill="#C6B18F" p-id="1589"></path><path d="M765.1 471.8H613.4c-7.6 0-13.9-6.3-13.9-13.9V295.1c0-7.4 6-13.4 13.4-13.4h150.5c6.9 0 12.6 5.7 12.6 12.6v166.6c0 6-4.9 10.9-10.9 10.9z" fill="#A5E1EF" p-id="1590"></path><path d="M476.6 491h-58.8c-2.9 0-5.4-6.3-5.4-13.9V314.3c0-7.4 2.3-13.4 5.2-13.4H476c2.7 0 4.9 5.7 4.9 12.6v166.6c0 6-1.9 10.9-4.3 10.9zM560.3 491h-58.8c-2.9 0-5.4-6.3-5.4-13.9V314.3c0-7.4 2.3-13.4 5.2-13.4h58.3c2.7 0 4.9 5.7 4.9 12.6v166.6c0.1 6-1.8 10.9-4.2 10.9z" fill="#B2EFF9" p-id="1591"></path><path d="M806.8 281.7H877c19.5 0 35.4 15.9 35.4 35.4v119.3c0 19.5-15.9 35.4-35.4 35.4h-68.5c-6.9 0-12.6-5.7-12.6-12.6V292.7c-0.1-6.1 4.8-11 10.9-11z" fill="#A5E1EF" p-id="1592"></path><path d="M303.9 659.8m-7.8 0a7.8 7.8 0 1 0 15.6 0 7.8 7.8 0 1 0-15.6 0Z" fill="#FFF0D2" p-id="1593"></path><path d="M303.9 655c2.7 0 4.8 2.2 4.8 4.8s-2.2 4.8-4.8 4.8-4.8-2.2-4.8-4.8 2.1-4.8 4.8-4.8m0-6c-6 0-10.8 4.8-10.8 10.8s4.8 10.8 10.8 10.8 10.8-4.8 10.8-10.8-4.8-10.8-10.8-10.8z" fill="" p-id="1594"></path><path d="M798.6 659.8m-7.8 0a7.8 7.8 0 1 0 15.6 0 7.8 7.8 0 1 0-15.6 0Z" fill="#FFF0D2" p-id="1595"></path><path d="M798.6 655c2.7 0 4.8 2.2 4.8 4.8s-2.2 4.8-4.8 4.8c-2.7 0-4.8-2.2-4.8-4.8s2.1-4.8 4.8-4.8m0-6c-6 0-10.8 4.8-10.8 10.8s4.8 10.8 10.8 10.8 10.8-4.8 10.8-10.8-4.8-10.8-10.8-10.8z" fill="" p-id="1596"></path><path d="M879.4 455.4c-4.7 1.8-10-0.5-11.8-5.2l-44-113.9c-1.8-4.7 0.5-10 5.2-11.8 4.7-1.8 10 0.5 11.8 5.2l44 113.9c1.9 4.7-0.5 10-5.2 11.8zM889.9 400.8c4.7-1.8 7-7.1 5.2-11.8l-32.8-85c-1.8-4.7-7.1-7-11.8-5.2-4.7 1.8-7 7.1-5.2 11.8l32.8 85c1.8 4.6 7.1 7 11.8 5.2zM549.5 400.1c-2.3 0.7-4.8-0.7-5.5-3l-22.5-76.5c-0.7-2.3 0.7-4.8 3-5.5 2.3-0.7 4.8 0.7 5.5 3l22.5 76.5c0.7 2.4-0.7 4.9-3 5.5zM543.9 438.5c-2.3 0.7-4.8-0.7-5.5-3L515.8 359c-0.7-2.3 0.7-4.8 3-5.5 2.3-0.7 4.8 0.7 5.5 3l22.5 76.5c0.8 2.3-0.6 4.8-2.9 5.5z" fill="#E1FEFF" p-id="1597"></path><path d="M595.2 145.2H335.8c-2.6 0-4.6-2.1-4.6-4.6 0-2.6 2.1-4.6 4.6-4.6h259.4c2.6 0 4.6 2.1 4.6 4.6 0 2.5-2.1 4.6-4.6 4.6z" fill="" p-id="1598"></path><path d="M731.2 220.7l-155.1-68c-2.3-1-3.4-3.8-2.4-6.1s3.8-3.4 6.1-2.4l155.1 68c2.3 1 3.4 3.8 2.4 6.1-1 2.4-3.7 3.5-6.1 2.4z" fill="" p-id="1599"></path><path d="M355.1 460.8H220.9c-6.7 0-12.3-5.6-12.3-12.3v-144c0-6.5 5.3-11.9 11.9-11.9h133.2c6.1 0 11.1 5 11.1 11.1v147.4c0.1 5.4-4.3 9.7-9.7 9.7z" fill="#A5E1EF" p-id="1600"></path><path d="M291 340.5l-13.8-24c-0.9-1.5-0.3-3.4 1.1-4.2 1.5-0.9 3.4-0.3 4.2 1.1l13.8 24c0.9 1.5 0.3 3.4-1.1 4.2-1.5 0.9-3.4 0.4-4.2-1.1zM315.9 377.5l-13.8-24c-0.9-1.5-0.3-3.4 1.1-4.2 1.5-0.9 3.4-0.3 4.2 1.1l13.8 24c0.9 1.5 0.3 3.4-1.1 4.2-1.4 0.9-3.3 0.4-4.2-1.1z" fill="#E1FEFF" p-id="1601"></path></svg>