<?xml version="1.0" standalone="no"?><!DOCTYPE svg PUBLIC "-//W3C//DTD SVG 1.1//EN" "http://www.w3.org/Graphics/SVG/1.1/DTD/svg11.dtd"><svg t="1531988001840" class="icon" style="" viewBox="0 0 1024 1024" version="1.1" xmlns="http://www.w3.org/2000/svg" p-id="2234" xmlns:xlink="http://www.w3.org/1999/xlink" width="200" height="200"><defs><style type="text/css"></style></defs><path d="M910.2 851.8V568.1c0-1.6-0.3-3.1-0.9-4.5V422.3C743 428.6 800.6 112.7 800.6 112.7s-56.5-25.1-119.2-37.6C656.3 225.7 512 231.9 512 231.9S367.7 225.6 342.6 75c-62.7 12.6-119.2 37.6-119.2 37.6s67.6 315.9-98.6 309.6l-0.9 500.6c0 27.2 2.2 49.4 29.4 49.4h725.8c17.1 0 31-14 31-31v-89.4c0.1 0.1 0.1 0.1 0.1 0z" fill="#3E5571" p-id="2235"></path><path d="M124.4 576.1h783.5v104.6H124.4zM124.4 786.2h783.5v104.6H124.4z" fill="#5C96BE" p-id="2236"></path><path d="M256.8 576.1h66.9v104.6h-66.9zM478.5 576.1h66.9v104.6h-66.9zM478.5 786.2h66.9v104.6h-66.9zM696.1 576.1H763v104.6h-66.9zM258.9 786.2h66.9v104.6h-66.9zM698.2 786.2h66.9v104.6h-66.9z" fill="#FFB819" p-id="2237"></path><path d="M305.1 347.5h413.7v122.8H305.1z" fill="#5C96BE" p-id="2238"></path><path d="M123.8 786.6v104.6" fill="#5C96BE" p-id="2239"></path></svg>