<?xml version="1.0" standalone="no"?><!DOCTYPE svg PUBLIC "-//W3C//DTD SVG 1.1//EN" "http://www.w3.org/Graphics/SVG/1.1/DTD/svg11.dtd"><svg t="1531988017773" class="icon" style="" viewBox="0 0 1024 1024" version="1.1" xmlns="http://www.w3.org/2000/svg" p-id="3142" xmlns:xlink="http://www.w3.org/1999/xlink" width="200" height="200"><defs><style type="text/css"></style></defs><path d="M92.7 575.2H75.2c-7.3 0-13.3-6-13.3-13.3v-17.4c0-7.3 6-13.3 13.3-13.3h17.4c7.3 0 13.3 6 13.3 13.3v17.4c0.1 7.3-5.9 13.3-13.2 13.3z" fill="#F42222" p-id="3143"></path><path d="M908.7 194.8c0-11.4-9.2-31.8-20.7-31.8H418.8c-11.4 0-20.7 20.3-20.7 31.8h57.6l-41.9 250.3H146.6c-33.5 0-60.5 27.1-60.5 60.5v75.2c5.4-0.9 11-1.3 16.7-1.3 54.3 0 99.1 40.3 106.3 92.7h438.6c-4.3-16.3-6.6-33.5-6.2-51.2 1.7-101.6 85-183.8 186.6-184.1 28.1-0.1 54.7 6 78.7 17.1l-18-259.3h20l-0.1 0.1zM260 628.2h-12.9V487H260v141.2z m40.2 0h-12.9V487h12.9v141.2z m39.8 0h-12.9V487H340v141.2z m39.3 0h-12.9V487h12.9v141.2z" fill="#F68720" p-id="3144"></path><path d="M524.5 347.4c5.1 2.3 11.1-0.1 13.3-5.2l41-92.6c2.3-5.1-0.1-11.1-5.2-13.3-5.1-2.3-11.1 0.1-13.3 5.2l-41 92.6c-2.3 5 0.1 11.1 5.2 13.3z" fill="#E1FEFF" p-id="3145"></path><path d="M824.2 452h11.7c1.7 0 2.7 1.3 2.7 2.8v6c0 1.7-1.1 2.8-2.7 2.8h-11.7c-1.7 0-2.7-1.1-2.7-2.8v-6c0.1-1.3 1.2-2.8 2.7-2.8z m30.5 1.7l11.4 2.2c1.7 0.2 2.7 1.7 2.4 3l-1.1 6c-0.2 1.3-1.7 2.4-3.2 2.2l-11.3-1.9c-1.7-0.3-2.4-1.9-2.2-3.3l0.8-6c0.2-1.3 1.8-2.4 3.2-2.2z m29.6 7.1l11.1 3.8c1.3 0.6 2.2 2.2 1.7 3.6l-2.2 5.8c-0.6 1.3-1.9 2.2-3.6 1.7l-10.9-4.1c-1.3-0.6-2.2-2.2-1.7-3.6l1.9-5.4c0.7-1.8 2.2-2.3 3.7-1.8z m28.2 12l10 5.8c1.3 0.8 1.7 2.4 1.1 3.8l-3 5.2c-0.8 1.3-2.4 1.7-3.8 1.1l-10-6c-1.3-0.8-1.9-2.4-1.1-3.8l3-5.2c0.8-1.4 2.3-1.7 3.8-0.9z m25.4 16.7l9 7.3c1.1 1.1 1.1 2.8 0.2 4.1l-3.8 4.7c-1.1 1.1-2.7 1.1-3.8 0.2l-9-7.7c-1.3-0.8-1.3-2.8-0.6-3.8l3.8-4.7c1.2-0.9 2.9-1.2 4.2-0.1z m22.3 20.8l7.3 9c1.1 1.3 0.8 3-0.2 4.1l-4.7 3.8c-1.1 0.8-2.7 0.8-3.8-0.2l-7.6-9c-0.8-1.3-0.8-3 0.6-4.1l4.3-3.8c1.4-0.9 3-0.9 4.1 0.2z m18.2 24.5l6 10.1c0.6 1.3 0.2 3.2-1.1 3.8l-5.1 3c-1.3 0.8-3 0.2-3.8-0.8l-5.7-10.3c-0.8-1.3-0.6-3 0.8-3.8l5.1-3c1.4-0.5 2.9-0.3 3.8 1z m13.8 27.4l4.1 11.2c0.3 1.3-0.2 3-1.7 3.6l-5.7 1.9c-1.3 0.6-3-0.2-3.6-1.7l-4.1-10.9c-0.6-1.7 0.2-3 1.7-3.6l5.7-2.2c1.5-0.4 3 0.3 3.6 1.7z m9 29.5l1.9 11.4c0.2 1.7-0.8 3-2.2 3.2l-6 1.1c-1.3 0.3-3-0.8-3.2-2.4l-1.9-11.4c-0.2-1.7 0.8-3 2.2-3.2l6-1.1c1.3-0.3 2.9 0.8 3.2 2.4z m2.7 30.4v11.8c0 1.7-1.1 2.8-2.7 2.8h-6c-1.3 0-2.7-1.1-2.7-2.8v-11.8c0-1.7 1.3-2.8 2.7-2.8h6c1.5 0 2.7 1.1 2.7 2.8z m-0.8 30.5l-1.9 11.8c-0.2 1.3-1.9 2.4-3.2 2.2l-6-1.1c-1.3-0.2-2.4-1.7-2.2-3.2l1.9-11.4c0.2-1.7 1.9-2.4 3.2-2.2l6 0.8c1.4 0.1 2.4 1.8 2.2 3.1z m-6.8 29.8l-4.1 11.2c-0.6 1.3-2.2 2.2-3.6 1.7l-5.7-2.2c-1.3-0.2-2.2-1.9-1.7-3.6l4.1-10.9c0.6-1.3 2.2-2.2 3.6-1.7l5.7 1.9c1.4 0.6 1.9 2.3 1.7 3.6z" fill="" p-id="3146"></path><path d="M984.3 710.9l-6 10.1c-0.8 1.3-2.4 1.7-3.8 1.1l-5.1-3c-1.3-0.8-1.7-2.4-0.8-3.8l5.7-10.1c0.8-1.3 2.4-1.9 3.8-1.1l5.1 3c1.4 0.8 1.6 2.5 1.1 3.8z" fill="" p-id="3147"></path><path d="M967.5 736.6l-7.3 9c-1.1 1.1-2.7 1.1-4.1 0.2l-4.3-3.8c-1.3-1.1-1.3-2.8-0.6-3.8l7.6-9c1.1-1.3 2.7-1.3 3.8-0.6l4.7 3.8c1 1.2 1.3 2.8 0.2 4.2zM946.9 759l-9 7.3c-1.3 1.1-3 0.8-4.1-0.2l-3.8-4.7c-0.8-1.1-0.8-2.8 0.6-3.8l9-7.7c1.1-0.8 2.7-0.8 3.8 0.6l3.8 4.3c0.7 1.4 0.7 3.1-0.3 4.2z m-24.4 18.2l-10 6c-1.3 0.6-3 0.2-3.8-1.1l-3-5.2c-0.8-1.3-0.3-3 1.1-3.8l10-5.8c1.3-0.8 3-0.6 3.8 0.8l3 5.2c0.5 1.5 0.2 3.2-1.1 3.9z m-27.1 14l-11.1 4.1c-1.3 0.2-3-0.2-3.6-1.7l-1.9-5.8c-0.6-1.3 0.2-3 1.7-3.6l10.9-4.1c1.7-0.6 3 0.2 3.6 1.7l2.2 5.8c0.3 1.4-0.5 3.1-1.8 3.6z m-29.4 9l-11.4 1.9c-1.3 0.2-3-0.8-3.2-2.2l-0.8-6c-0.2-1.3 0.6-3 2.2-3.3l11.4-1.9c1.7-0.2 3 0.8 3.2 2.2l1.1 6c0.3 1.5-0.8 3-2.5 3.3z m-30.1 3.6h-11.7c-1.7 0-2.7-1.3-2.7-2.8v-6c0-1.7 1.1-2.8 2.7-2.8h11.7c1.7 0 2.7 1.1 2.7 2.8v6c0.1 1.5-1 2.8-2.7 2.8z m-30.3-1.7l-11.4-1.9c-1.7-0.2-2.7-1.9-2.4-3.2l1.1-6c0.2-1.3 1.7-2.4 3.2-2.2l11.4 1.9c1.7 0.2 2.7 1.9 2.4 3.3l-1.1 6c-0.2 1.4-1.7 2.5-3.2 2.1z m-29.6-6.7l-11.1-4.1c-1.3-0.6-2.2-2.2-1.7-3.6l2.2-5.8c0.6-1.3 1.9-2.2 3.6-1.7l10.9 4.1c1.3 0.6 2.2 2.2 1.7 3.6l-1.9 5.8c-0.7 1.3-2.4 1.9-3.7 1.7z m-28.2-12.2l-10-6c-1.3-0.8-1.7-2.4-1.1-3.8l3-5.2c0.8-1.3 2.4-1.7 3.8-0.8l10.3 5.8c1.1 0.8 1.7 2.4 0.8 3.8l-3 5.2c-0.6 1.4-2.5 1.6-3.8 1z m-25.6-16.9l-9-7.3c-1.1-1.1-1.1-2.8-0.2-4.1l3.8-4.3c1.1-1.3 2.7-1.3 4.1-0.6l8.9 7.7c1.1 1.1 1.1 2.8 0.2 3.8l-3.8 4.7c-1 0.9-2.5 1.3-4 0.1zM700 745.6l-7.3-9c-1.1-1.3-0.8-3 0.3-4.1l4.6-3.8c1.1-0.8 3-0.8 3.8 0.6l7.6 9c0.8 1.1 0.8 2.8-0.2 3.8l-4.6 3.8c-1.4 0.8-3.1 0.8-4.2-0.3zM681.9 721l-5.7-10.1c-0.8-1.3-0.6-3 0.8-3.8l5.1-3c1.3-0.8 3-0.2 3.8 1.1l6 10.1c0.6 1.3 0.2 3-1.1 3.8l-5.1 3c-1.4 0.6-3.1 0.2-3.8-1.1zM668 693.7l-3.8-11.2c-0.6-1.3 0-3 1.7-3.6l5.4-1.9c1.3-0.6 3 0.2 3.6 1.7l4.1 10.9c0.6 1.7-0.2 3.2-1.7 3.6l-5.7 2.2c-1.4 0.5-3.1-0.4-3.6-1.7z m-8.7-29.3l-2.1-11.8c-0.2-1.3 0.8-3 2.1-3.2l6-0.8c1.3-0.3 3 0.6 3.2 2.2l1.9 11.4c0.3 1.7-0.8 3-2.2 3.2l-6 1.1c-1.2 0.4-2.6-0.7-2.9-2.1z m-3.8-30.6V622c0-1.7 1.3-2.8 2.7-2.8h6c1.7 0 2.7 1.1 2.7 2.8v11.8c0 1.7-1.1 2.8-2.7 2.8h-6c-1.3-0.1-2.7-1.2-2.7-2.8z m1.7-30.6l2.1-11.4c0.2-1.7 1.7-2.8 3-2.4l6 1.1c1.3 0.2 2.4 1.7 2.2 3.2l-1.9 11.4c-0.2 1.7-1.9 2.8-3.2 2.4l-6-1.1c-1.4-0.2-2.5-1.5-2.2-3.2z m7-29.8l3.8-11.2c0.6-1.3 2.2-2.2 3.6-1.7l5.7 2.2c1.3 0.6 2.1 1.9 1.7 3.6l-4.1 10.9c-0.6 1.3-2.2 2.2-3.6 1.7l-5.4-1.9c-1.7-0.6-2.3-2.3-1.7-3.6z m11.9-28.5l5.7-10.1c0.8-1.3 2.4-1.7 3.8-1.1l5.1 3c1.3 0.8 1.7 2.4 1.1 3.8l-6 10.3c-0.8 1.1-2.4 1.7-3.8 0.8l-5.1-3c-1.3-0.3-1.6-2.2-0.8-3.7z m16.5-25.6l7.3-9c1.1-1.1 2.7-1.1 4.1-0.2l4.6 3.8c1.1 1.1 1.1 2.8 0.2 4.1l-7.6 9c-0.8 1.1-2.7 1.1-3.8 0.2l-4.6-3.8c-0.9-1.1-1.2-2.7-0.2-4.1z m20.7-22.4l9-7.3c1.3-1.1 3-0.8 4.1 0.2l3.8 4.7c0.8 1.1 0.8 3-0.2 3.8l-8.9 7.7c-1.3 0.8-3 0.8-4.1-0.2l-3.8-4.7c-1-1.5-1-3.1 0.1-4.2z m24.5-18.3l10-5.8c1.3-0.8 3.2-0.6 3.8 0.8l3 5.2c0.8 1.3 0.3 3-0.8 3.8l-10.3 6c-1.3 0.6-3 0.2-3.8-1.1l-3-5.2c-0.6-1.3-0.4-2.9 1.1-3.7z m27.1-13.9l11.1-3.8c1.3-0.6 3 0 3.6 1.7l1.9 5.4c0.6 1.3-0.2 3-1.7 3.6l-10.9 4.1c-1.7 0.6-3-0.2-3.6-1.7l-2.2-5.8c-0.4-1.4 0.3-2.9 1.8-3.5z m29.2-8.8l11.4-2.2c1.7-0.2 3 0.8 3.2 2.2l1.1 6c0.2 1.3-0.8 3-2.4 3.3l-11.4 1.9c-1.7 0.2-3-0.8-3.2-2.2l-1.1-6c-0.2-1.3 0.9-2.8 2.4-3z" fill="" p-id="3148"></path><path d="M830.1 628.2m-92.6 0a92.6 92.6 0 1 0 185.2 0 92.6 92.6 0 1 0-185.2 0Z" fill="#F68720" p-id="3149"></path><path d="M830.1 628.2m-71.2 0a71.2 71.2 0 1 0 142.4 0 71.2 71.2 0 1 0-142.4 0Z" fill="#F68720" p-id="3150"></path><path d="M830.1 628.2m-17.2 0a17.2 17.2 0 1 0 34.4 0 17.2 17.2 0 1 0-34.4 0Z" fill="" p-id="3151"></path><path d="M830.1 594.9m-4.9 0a4.9 4.9 0 1 0 9.8 0 4.9 4.9 0 1 0-9.8 0Z" fill="#FCFCFC" p-id="3152"></path><path d="M863.5 621.5m-4.9 0a4.9 4.9 0 1 0 9.8 0 4.9 4.9 0 1 0-9.8 0Z" fill="#FCFCFC" p-id="3153"></path><path d="M796.8 620.4m-4.9 0a4.9 4.9 0 1 0 9.8 0 4.9 4.9 0 1 0-9.8 0Z" fill="#FCFCFC" p-id="3154"></path><path d="M812.4 657.1m-4.9 0a4.9 4.9 0 1 0 9.8 0 4.9 4.9 0 1 0-9.8 0Z" fill="#FCFCFC" p-id="3155"></path><path d="M850.1 657.1m-4.9 0a4.9 4.9 0 1 0 9.8 0 4.9 4.9 0 1 0-9.8 0Z" fill="#FCFCFC" p-id="3156"></path><path d="M829 525.5c56.6 0 102.7 46 102.7 102.7 0 56.6-46 102.7-102.7 102.7s-102.7-46-102.7-102.7 46-102.7 102.7-102.7m0-66.7c-93.6 0-169.4 75.8-169.4 169.4S735.4 797.6 829 797.6s169.4-75.8 169.4-169.4S922.5 458.8 829 458.8zM99.1 591.5h6.7c0.9 0 1.6 0.8 1.6 1.6v3.4c0 0.9-0.7 1.6-1.6 1.6h-6.7c-0.9 0-1.6-0.7-1.6-1.6v-3.4c0.1-0.8 0.7-1.6 1.6-1.6z m17.3 1l6.4 1.2c0.9 0.1 1.6 0.9 1.3 1.7l-0.7 3.4c-0.1 0.8-0.9 1.4-1.9 1.2l-6.4-1.1c-0.9-0.1-1.3-1.1-1.2-1.9l0.4-3.4c0.4-0.6 1.4-1.3 2.1-1.1z m16.9 4l6.3 2.2c0.8 0.3 1.2 1.2 0.9 2l-1.2 3.2c-0.3 0.8-1.1 1.2-2 0.9l-6.2-2.3c-0.8-0.3-1.2-1.2-0.9-2l1.1-3.1c0.3-0.9 1.2-1.2 2-0.9z m16 6.8l5.7 3.2c0.8 0.4 0.9 1.4 0.7 2.2l-1.7 3c-0.4 0.8-1.3 0.9-2.1 0.7l-5.7-3.4c-0.8-0.4-1.1-1.4-0.7-2.2l1.7-3c0.4-0.7 1.3-0.9 2.1-0.5z m14.5 9.6l5.1 4.2c0.7 0.7 0.7 1.6 0.1 2.3l-2.1 2.7c-0.7 0.7-1.6 0.7-2.1 0.1l-5.1-4.3c-0.8-0.4-0.8-1.6-0.3-2.2l2.1-2.7c0.5-0.6 1.5-0.8 2.3-0.1z m12.7 11.7l4.2 5.1c0.7 0.8 0.4 1.7-0.1 2.3l-2.7 2.2c-0.7 0.4-1.6 0.4-2.1-0.1l-4.3-5.1c-0.4-0.8-0.4-1.7 0.3-2.3l2.4-2.2c0.7-0.5 1.6-0.5 2.3 0.1z m10.3 14l3.4 5.8c0.3 0.8 0.1 1.9-0.7 2.2l-2.9 1.7c-0.8 0.4-1.7 0.1-2.1-0.4l-3.2-5.9c-0.4-0.8-0.3-1.7 0.4-2.2l2.9-1.7c0.8-0.3 1.7-0.2 2.2 0.5z m7.8 15.6l2.3 6.3c0.1 0.8-0.1 1.7-0.9 2l-3.2 1.1c-0.8 0.3-1.7-0.1-2-0.9l-2.3-6.2c-0.3-0.9 0.1-1.7 0.9-2l3.2-1.2c0.8-0.3 1.8 0.1 2 0.9z m5.1 16.8l1.1 6.6c0.1 0.9-0.4 1.7-1.2 1.9l-3.4 0.7c-0.8 0.1-1.7-0.4-1.9-1.4l-1.1-6.6c-0.1-0.9 0.4-1.7 1.2-1.9l3.4-0.7c0.9-0.2 1.8 0.4 1.9 1.4z m1.6 17.2v6.7c0 0.9-0.7 1.6-1.6 1.6h-3.4c-0.8 0-1.6-0.7-1.6-1.6v-6.7c0-0.9 0.8-1.6 1.6-1.6h3.4c1 0.1 1.6 0.7 1.6 1.6z m-0.5 17.5l-1.1 6.7c-0.1 0.8-1.1 1.4-1.9 1.2l-3.4-0.7c-0.8-0.1-1.3-0.9-1.2-1.9l1.1-6.6c0.1-0.9 1.1-1.4 1.9-1.2l3.4 0.4c0.8 0.3 1.3 1.3 1.2 2.1z m-3.9 16.9l-2.3 6.3c-0.3 0.8-1.2 1.2-2 0.9l-3.2-1.2c-0.8-0.1-1.2-1.1-0.9-2l2.3-6.2c0.3-0.8 1.2-1.2 2-0.9l3.2 1.1c0.8 0.3 1.2 1.2 0.9 2zM190.2 738.8l-3.4 5.8c-0.4 0.8-1.4 0.9-2.1 0.7l-2.9-1.7c-0.8-0.4-0.9-1.4-0.4-2.2l3.2-5.8c0.4-0.8 1.3-1.1 2.1-0.7l2.9 1.7c0.8 0.4 0.9 1.4 0.6 2.2zM180.6 753.3l-4.2 5.1c-0.7 0.7-1.6 0.7-2.3 0.1l-2.4-2.2c-0.8-0.7-0.8-1.6-0.3-2.2l4.3-5.1c0.7-0.8 1.6-0.8 2.1-0.3l2.7 2.2c0.6 0.8 0.8 1.7 0.1 2.4z m-11.7 12.8l-5.1 4.2c-0.8 0.7-1.7 0.4-2.3-0.1l-2.1-2.7c-0.4-0.7-0.4-1.6 0.3-2.2l5.1-4.3c0.7-0.4 1.6-0.4 2.1 0.3l2.1 2.4c0.5 0.9 0.5 1.8-0.1 2.4zM155 776.6l-5.7 3.4c-0.8 0.3-1.7 0.1-2.1-0.7l-1.7-3c-0.4-0.8-0.1-1.7 0.7-2.2l5.7-3.2c0.8-0.4 1.7-0.3 2.1 0.4l1.7 3c0.2 0.8 0.1 1.7-0.7 2.3z m-15.4 7.9l-6.3 2.3c-0.8 0.1-1.7-0.1-2-0.9l-1.1-3.2c-0.3-0.8 0.1-1.7 0.9-2l6.2-2.3c0.9-0.3 1.7 0.1 2 0.9l1.2 3.2c0.3 0.7-0.1 1.6-0.9 2z m-16.7 5.1l-6.4 1.1c-0.8 0.1-1.7-0.4-1.9-1.2l-0.4-3.4c-0.1-0.8 0.3-1.7 1.2-1.9l6.4-1.1c0.9-0.1 1.7 0.4 1.9 1.2l0.7 3.4c0.1 0.8-0.6 1.8-1.5 1.9z m-17.1 2h-6.7c-0.9 0-1.6-0.8-1.6-1.6v-3.4c0-0.9 0.7-1.6 1.6-1.6h6.7c0.9 0 1.6 0.7 1.6 1.6v3.4c0 0.8-0.7 1.6-1.6 1.6z m-17.3-0.9l-6.4-1.1c-0.9-0.1-1.6-1.1-1.3-1.9l0.7-3.4c0.1-0.8 0.9-1.4 1.9-1.2l6.4 1.1c0.9 0.1 1.6 1.1 1.3 1.9l-0.7 3.4c-0.3 0.7-1 1.3-1.9 1.2z m-16.8-3.9l-6.3-2.3c-0.8-0.3-1.2-1.2-0.9-2l1.2-3.2c0.3-0.8 1.1-1.2 2-0.9l6.2 2.3c0.8 0.3 1.2 1.2 0.9 2l-1.1 3.2c-0.3 0.7-1.2 1-2 0.9z m-16.1-6.9l-5.7-3.4c-0.8-0.4-0.9-1.4-0.7-2.2l1.7-3c0.4-0.8 1.4-0.9 2.1-0.4l5.9 3.2c0.7 0.4 0.9 1.4 0.4 2.2l-1.7 3c-0.1 0.8-1.3 0.9-2 0.6z m-14.5-9.6l-5.1-4.2c-0.7-0.7-0.7-1.6-0.1-2.3l2.1-2.4c0.7-0.8 1.6-0.8 2.3-0.3l5.1 4.3c0.7 0.7 0.7 1.6 0.1 2.2l-2.1 2.7c-0.6 0.5-1.5 0.6-2.3 0z m-12.7-11.8l-4.1-5.1c-0.7-0.8-0.4-1.7 0.1-2.3l2.7-2.2c0.7-0.4 1.7-0.4 2.1 0.3l4.3 5.1c0.4 0.7 0.4 1.6-0.1 2.2l-2.7 2.2c-0.7 0.4-1.6 0.4-2.3-0.2z m-10.3-14l-3.2-5.8c-0.4-0.8-0.3-1.7 0.4-2.2l2.9-1.7c0.8-0.4 1.7-0.1 2.1 0.7l3.4 5.8c0.3 0.8 0.1 1.7-0.7 2.2l-2.9 1.7c-0.7 0.3-1.5 0-2-0.7zM10.2 729l-2.1-6.3c-0.3-0.8 0-1.7 0.9-2l3.1-1.1c0.8-0.3 1.7 0.1 2 0.9l2.3 6.2c0.3 0.9-0.1 1.9-0.9 2l-3.2 1.2c-0.9 0.3-1.7-0.1-2.1-0.9z m-4.9-16.7l-1.2-6.7c-0.1-0.8 0.4-1.7 1.2-1.9l3.4-0.4c0.8-0.1 1.7 0.3 1.9 1.2l1.1 6.6c0.1 0.9-0.4 1.7-1.2 1.9l-3.4 0.7c-0.9 0-1.7-0.6-1.8-1.4z m-2.2-17.4v-6.7c0-0.9 0.8-1.6 1.6-1.6h3.4c0.9 0 1.6 0.7 1.6 1.6v6.7c0 0.9-0.7 1.6-1.6 1.6H4.7c-0.8-0.1-1.6-0.6-1.6-1.6z m1-17.4l1.2-6.6c0.1-0.9 0.9-1.6 1.7-1.4l3.4 0.7c0.8 0.1 1.4 0.9 1.2 1.9l-1.1 6.6c-0.1 0.9-1.1 1.6-1.9 1.4l-3.4-0.7c-0.6-0.2-1.3-1-1.1-1.9z m4-17l2.1-6.3c0.3-0.8 1.2-1.2 2-0.9l3.2 1.2c0.8 0.3 1.2 1.1 0.9 2l-2.3 6.2c-0.3 0.8-1.2 1.2-2 0.9l-3.1-1.1c-0.8-0.2-1.1-1.2-0.8-2z m6.8-16.1l3.2-5.8c0.4-0.8 1.3-0.9 2.1-0.7l2.9 1.7c0.8 0.4 0.9 1.4 0.7 2.2l-3.4 5.9c-0.4 0.7-1.3 0.9-2.1 0.4l-2.9-1.7c-0.8-0.2-1-1.2-0.5-2z m9.3-14.7l4.1-5.1c0.7-0.7 1.6-0.7 2.3-0.1l2.7 2.2c0.7 0.7 0.7 1.6 0.1 2.3l-4.3 5.1c-0.4 0.7-1.6 0.7-2.1 0.1l-2.7-2.2c-0.5-0.5-0.6-1.5-0.1-2.3zM36 617.1l5.1-4.2c0.8-0.7 1.7-0.4 2.3 0.1l2.1 2.7c0.4 0.7 0.4 1.7-0.1 2.2l-5.1 4.3c-0.8 0.4-1.7 0.4-2.3-0.1l-2.1-2.7c-0.6-0.8-0.6-1.8 0.1-2.3z m13.9-10.5l5.7-3.2c0.8-0.4 1.9-0.3 2.1 0.4l1.7 3c0.4 0.8 0.1 1.7-0.4 2.2l-5.9 3.4c-0.8 0.3-1.7 0.1-2.1-0.7l-1.7-3c-0.3-0.7-0.2-1.6 0.6-2.1z m15.4-7.9l6.3-2.2c0.8-0.3 1.7 0 2 0.9l1.1 3.1c0.3 0.8-0.1 1.7-0.9 2l-6.2 2.3c-0.9 0.3-1.7-0.1-2-0.9l-1.2-3.2c-0.3-0.7 0.2-1.7 0.9-2z m16.7-5l6.4-1.2c0.9-0.1 1.7 0.4 1.9 1.2l0.7 3.4c0.1 0.8-0.4 1.7-1.3 1.9l-6.4 1.1c-0.9 0.1-1.7-0.4-1.9-1.2l-0.7-3.4c-0.2-0.9 0.3-1.7 1.3-1.8z" fill="" p-id="3157"></path><path d="M102.5 691.7m-52.7 0a52.7 52.7 0 1 0 105.4 0 52.7 52.7 0 1 0-105.4 0Z" fill="#F68720" p-id="3158"></path><path d="M102.5 691.7m-40.6 0a40.6 40.6 0 1 0 81.2 0 40.6 40.6 0 1 0-81.2 0Z" fill="#F68720" p-id="3159"></path><path d="M102.5 691.7m-16.3 0a16.3 16.3 0 1 0 32.6 0 16.3 16.3 0 1 0-32.6 0Z" fill="" p-id="3160"></path><path d="M101.8 634.3c31.7 0 57.5 25.8 57.5 57.5s-25.8 57.5-57.5 57.5-57.5-25.8-57.5-57.5c0-31.8 25.8-57.5 57.5-57.5m0-38.9c-53.2 0-96.4 43.1-96.4 96.4 0 53.2 43.1 96.4 96.4 96.4s96.4-43.1 96.4-96.4c0-53.3-43.2-96.4-96.4-96.4z" fill="" p-id="3161"></path><path d="M659.3 447.7H436.8l36.2-223c2.8-17.2 17.7-29.9 35.1-29.9h151.2v252.9zM709.2 446.6c32.2-24.6 72.4-38.1 116-38.1 21.1 0 41.3 3.4 60.4 9.8l-14.7-195.7c-1.1-15.6-14.2-27.7-29.8-27.7H676.4l1.1 251.7h31.7z" fill="#A5E1EF" p-id="3162"></path><path d="M409.9 194.8h5.3v77h-5.3z" fill="" p-id="3163"></path><path d="M419.7 245.7h3.1v25.9h-3.1z" fill="" p-id="3164"></path><path d="M426.1 242.4h-9.8V275h9.8z" fill="" p-id="3165"></path><path d="M494.6 376.6c-4.2-1.9-6.2-6.8-4.3-11L535.7 263c1.9-4.2 6.8-6.2 11-4.3 4.2 1.9 6.2 6.8 4.3 11l-45.5 102.6c-1.7 4.3-6.7 6.2-10.9 4.3zM511.3 433.5c-4.4-2-6.4-7.1-4.4-11.4l47.2-106.7c2-4.4 7.1-6.4 11.4-4.4 4.4 2 6.4 7.1 4.4 11.4L522.7 429c-1.9 4.5-7.1 6.5-11.4 4.5z" fill="#E1FEFF" p-id="3166"></path><path d="M615.3 633c0-47.7 16.2-91.2 45-124.8V459H436.9v165.4c0 15.4 12.6 28 28 28h151.4c-0.7-6.5-1-13-1-19.4z" fill="#A5E1EF" p-id="3167"></path><path d="M260.1 334.8h36.7v110h-36.7z" fill="#444444" p-id="3168"></path></svg>