<?xml version="1.0" standalone="no"?><!DOCTYPE svg PUBLIC "-//W3C//DTD SVG 1.1//EN" "http://www.w3.org/Graphics/SVG/1.1/DTD/svg11.dtd"><svg t="1531984145719" class="icon" style="" viewBox="0 0 1024 1024" version="1.1" xmlns="http://www.w3.org/2000/svg" p-id="1333" xmlns:xlink="http://www.w3.org/1999/xlink" width="200" height="200"><defs><style type="text/css"></style></defs><path d="M639.5 248.413H448.15c-41.803 0-75.676 33.873-75.676 75.676v456.68c0 41.825 33.873 75.697 75.676 75.697h330.533c36.674-32.59 30.395-39.674 30.395-81.477l4.716-350.066L639.5 248.413z" fill="#F7E946" p-id="1334"></path><path d="M720.216 881.234H389.682c-54.013 0-97.945-43.933-97.945-97.945V488.888c0-12.297 9.951-22.249 22.249-22.249 12.297 0 22.248 9.952 22.248 22.249v294.401c0 29.461 23.986 53.448 53.448 53.448h330.534c29.461 0 53.448-23.987 53.448-53.448V426.271l-153.893-153.11H389.682c-29.462 0-53.448 23.987-53.448 53.47v9.776c0 12.298-9.951 22.249-22.248 22.249-12.298 0-22.249-9.951-22.249-22.249v-9.776c0-54.013 43.932-97.968 97.945-97.968h239.28a22.22 22.22 0 0 1 15.688 6.475l166.949 166.103a22.281 22.281 0 0 1 6.563 15.774v366.273c-0.001 54.014-43.933 97.946-97.946 97.946z" fill="#213847" p-id="1335"></path><path d="M313.986 444.978c-12.298 0-22.249-9.951-22.249-22.249V400.48c0-12.297 9.951-22.248 22.249-22.248 12.297 0 22.248 9.951 22.248 22.248v22.249c0 12.298-9.951 22.249-22.248 22.249z" fill="#213847" p-id="1336"></path><path d="M232.01 559.109c-12.297 0-22.249-9.951-22.249-22.248v-292.25c0-53.992 43.932-97.924 97.923-97.924H433.44c12.297 0 22.249 9.951 22.249 22.249 0 12.297-9.952 22.248-22.249 22.248H307.685c-29.462 0-53.427 23.965-53.427 53.427v292.25c0 12.297-9.951 22.248-22.248 22.248z" fill="#213847" p-id="1337"></path><path d="M795.283 419.145H627.071V250.934z" fill="#FFFFFF" p-id="1338"></path><path d="M795.717 441.393c-0.13 0-0.305-0.022-0.434 0H627.071c-12.297 0-22.248-9.951-22.248-22.248v-168.21c0-8.995 5.41-17.121 13.731-20.554a22.137 22.137 0 0 1 24.247 4.824l165.8 165.775c5.671 4.042 9.365 10.668 9.365 18.164 0 12.298-9.951 22.249-22.249 22.249z m-146.398-44.497h92.255l-92.255-92.252v92.252z" fill="#213847" p-id="1339"></path></svg>