<?xml version="1.0" standalone="no"?><!DOCTYPE svg PUBLIC "-//W3C//DTD SVG 1.1//EN" "http://www.w3.org/Graphics/SVG/1.1/DTD/svg11.dtd"><svg t="1531984142868" class="icon" style="" viewBox="0 0 1024 1024" version="1.1" xmlns="http://www.w3.org/2000/svg" p-id="1216" xmlns:xlink="http://www.w3.org/1999/xlink" width="200" height="200"><defs><style type="text/css"></style></defs><path d="M926.081 523.397c0 211.863-171.796 383.589-383.604 383.589-211.862 0-383.616-171.726-383.616-383.589 0-211.862 171.753-383.587 383.616-383.587 211.808 0 383.604 171.725 383.604 383.587" fill="#FC607B" p-id="1217"></path><path d="M513.962 67.83c-39.334 0-78.381 5.17-116.065 15.332-0.419 0.095-0.839 0.196-1.258 0.311-34.223 9.352-67.346 22.879-98.438 40.193-13.75 7.654-18.705 25.009-11.036 38.76 5.205 9.366 14.919 14.641 24.926 14.641 4.69 0 9.449-1.155 13.833-3.604 26.993-15.014 55.726-26.753 85.401-34.891 0.115-0.029 0.229-0.052 0.344-0.083 33.179-9.06 67.597-13.653 102.292-13.653 213.463 0 387.151 173.674 387.151 387.151 0 213.492-173.688 387.179-387.151 387.179-213.477 0-387.151-173.688-387.151-387.179 0-57.798 12.414-113.383 36.88-165.212 6.722-14.223 0.626-31.216-13.611-37.938-14.154-6.652-31.203-0.64-37.939 13.611-28.085 59.483-42.336 123.266-42.336 189.54 0 244.931 199.254 444.184 444.156 444.184 244.916 0 444.156-199.253 444.156-444.184 0.002-244.905-199.238-444.158-444.154-444.158z" fill="#213847" p-id="1218"></path><path d="M176.314 297.98c-5.762 0-11.58-1.74-16.617-5.372-12.776-9.2-15.685-27-6.486-39.775a446.475 446.475 0 0 1 69.475-76.155c11.886-10.313 29.922-9.019 40.208 2.825 10.327 11.871 9.06 29.88-2.825 40.207a390.35 390.35 0 0 0-60.596 66.413c-5.567 7.737-14.293 11.857-23.159 11.857zM382.582 682.807a28.412 28.412 0 0 1-20.152-8.35c-11.134-11.135-11.134-29.171 0-40.305l267.044-267.045c11.135-11.133 29.171-11.133 40.306 0 11.133 11.134 11.133 29.171 0 40.305L402.735 674.457a28.415 28.415 0 0 1-20.153 8.35z" fill="#213847" p-id="1219"></path><path d="M649.627 682.807a28.41 28.41 0 0 1-20.152-8.35L362.43 407.412c-11.134-11.134-11.134-29.171 0-40.305 11.134-11.133 29.171-11.133 40.305 0L669.78 634.152c11.133 11.134 11.133 29.17 0 40.305a28.415 28.415 0 0 1-20.153 8.35z" fill="#213847" p-id="1220"></path></svg>