<?xml version="1.0" standalone="no"?><!DOCTYPE svg PUBLIC "-//W3C//DTD SVG 1.1//EN" "http://www.w3.org/Graphics/SVG/1.1/DTD/svg11.dtd"><svg t="1531984178809" class="icon" style="" viewBox="0 0 1024 1024" version="1.1" xmlns="http://www.w3.org/2000/svg" p-id="2866" xmlns:xlink="http://www.w3.org/1999/xlink" width="200" height="200"><defs><style type="text/css"></style></defs><path d="M579.705 205.679c0 40.162 18.515 25.528-21.647 25.528s-73.289 19.146-73.289-21.017c0-40.185 32.565-72.727 72.75-72.727 40.163 0.001 22.186 28.031 22.186 68.216" fill="#31D3FF" p-id="2867"></path><path d="M464.127 259.704c-5.33 0-21.039-0.07-33.125-11.922-8.93-8.743-13.255-21.04-13.255-37.591 0-53.323 43.366-96.688 96.665-96.688 53.324 0 96.688 43.365 96.688 96.688 0 31.466-16.737 49.513-45.912 49.513-6.732 0-14.588-0.958-23.237-2.151-17.439-2.314-36.421-2.408-54.095 0-8.767 1.169-16.762 2.151-23.634 2.151h-0.095z m50.284-98.325c-26.906 0-48.788 21.904-48.788 48.812 0 0.584 0 1.122 0.023 1.613 4.699-0.14 10.029-0.935 15.849-1.707 19.825-2.688 47.246-2.618 66.906 0.024 5.423 0.725 10.379 1.473 14.799 1.66 0.022-0.468 0.022-1.005 0.022-1.59 0.002-26.907-21.903-48.812-48.811-48.812z" fill="#213847" p-id="2868"></path><path d="M813.104 766.219L756.25 640.543c0.117-27.866-23.938-39.928-23.938-59.846l8.977-134.653c0-122.31-48.976-205.276-171.262-205.276-122.287 0-221.429 99.143-221.429 221.429v118.5c0 19.918 0.514 36.609 0.631 54.517L240.781 767.411l572.323-1.192z" fill="#31D3FF" p-id="2869"></path><path d="M844.194 781.788H185.728a23.96 23.96 0 0 1-21.647-13.698 23.944 23.944 0 0 1 3.132-25.412l102.883-125.466-0.187-10.449c-0.187-13.231 10.379-24.102 23.588-24.289 12.272-0.911 24.078 10.38 24.289 23.588l0.304 19.427a23.997 23.997 0 0 1-5.423 15.313l-76.351 93.11h557.29l-76.35-93.11a23.918 23.918 0 0 1-5.423-15.266c0.069-14.33 0.21-23.144 0.35-30.976 0.141-7.363 0.258-13.839 0.258-23.446V452.636c0-108.891-88.6-197.491-197.491-197.491-104.028 0-190.595 81.212-197.07 184.914-0.818 13.185-12.553 22.886-25.387 22.396-13.185-0.818-23.213-12.18-22.396-25.388 8.042-128.855 115.601-229.798 244.853-229.798 135.309 0 245.368 110.06 245.368 245.367v118.477c0 9.959-0.117 16.69-0.258 24.312-0.116 5.961-0.232 12.507-0.303 21.718L862.71 742.678a23.944 23.944 0 0 1 3.132 25.412 23.962 23.962 0 0 1-21.648 13.698z" fill="#213847" p-id="2870"></path><path d="M293.543 559.751c-13.231 0-23.938-10.707-23.938-23.938v-38.899c0-13.231 10.707-23.938 23.938-23.938s23.938 10.707 23.938 23.938v38.899c0.001 13.231-10.706 23.938-23.938 23.938zM514.974 914.642c-67.514 0-120.394-37.778-120.394-86.028 0-13.231 10.707-23.938 23.938-23.938s23.938 10.707 23.938 23.938c0 18 31.021 38.151 72.517 38.151 41.494 0 72.515-20.151 72.515-38.151 0-13.231 10.707-23.938 23.938-23.938 13.232 0 23.938 10.707 23.938 23.938 0.001 48.249-52.878 86.028-120.39 86.028z" fill="#213847" p-id="2871"></path></svg>