<?xml version="1.0" standalone="no"?><!DOCTYPE svg PUBLIC "-//W3C//DTD SVG 1.1//EN" "http://www.w3.org/Graphics/SVG/1.1/DTD/svg11.dtd"><svg t="1531984198267" class="icon" style="" viewBox="0 0 1024 1024" version="1.1" xmlns="http://www.w3.org/2000/svg" p-id="3805" xmlns:xlink="http://www.w3.org/1999/xlink" width="200" height="200"><defs><style type="text/css"></style></defs><path d="M902.327 532.997c0 203.304-164.814 368.118-368.118 368.118-203.305 0-368.091-164.814-368.091-368.118 0-203.333 164.786-368.133 368.091-368.133 203.304 0 368.118 164.801 368.118 368.133" fill="#59CE9B" p-id="3806"></path><path d="M815.057 877.576c-5.822 44.708-51.773 75.575-102.608 68.955-50.836-6.62-87.348-48.227-81.525-92.935 5.815-44.653 51.769-75.548 102.604-68.927 50.834 6.621 87.344 48.255 81.529 92.907" fill="#59CE9B" p-id="3807"></path><path d="M954.646 651.357c-8.321-63.895-64.6-90.786-94.074-96.14-7.693-1.479-15.69 0.454-22.026 5.13a28.477 28.477 0 0 0-11.354 19.516l-0.901 7.51a28.502 28.502 0 0 0-2.533 8.517l-24.79 185.581c-17.157-13.009-38.282-22.004-61.76-25.062-66.345-8.64-126.706 33.315-134.545 93.508-7.843 60.218 39.761 116.233 106.104 124.874 66.346 8.64 126.707-33.316 134.55-93.534 0.316-2.431 0.533-4.854 0.671-7.269 0.192-0.843 0.354-1.7 0.47-2.574l25.419-190.288 53.326 6.945 0.553 0.071c15.619 2.034 29.906-8.96 31.94-24.58 0.554-4.249 0.164-8.37-1.05-12.205zM716.129 918.271c-35.187-4.582-60.729-31.933-56.945-60.993 3.781-29.033 35.477-48.93 70.663-44.348 35.188 4.583 60.73 31.934 56.949 60.967-3.784 29.059-35.481 48.957-70.667 44.374zM268.897 521.586c-15.752 0-28.499-12.746-28.499-28.499 0-138.013 112.297-250.311 250.338-250.311 15.753 0 28.5 12.747 28.5 28.499 0 15.753-12.747 28.499-28.5 28.499-106.62 0-193.341 86.721-193.341 193.313 0.001 15.753-12.746 28.499-28.498 28.499zM513.947 650.638c-75.253 0-136.454-61.228-136.454-136.482s61.201-136.482 136.454-136.482c75.255 0 136.482 61.228 136.482 136.482s-61.227 136.482-136.482 136.482z m0-215.968c-43.805 0-79.456 35.651-79.456 79.485 0 43.834 35.651 79.485 79.456 79.485 43.835 0 79.485-35.651 79.485-79.485 0.001-43.833-35.65-79.485-79.485-79.485zM928.294 542.626c-15.753 0-28.499-12.746-28.499-28.498 0-212.739-173.08-385.805-385.848-385.805-31.644 0-63.036 3.827-93.316 11.355-15.251 3.813-30.753-5.497-34.539-20.762-3.784-15.28 5.511-30.739 20.79-34.538 34.761-8.669 70.801-13.053 107.065-13.053 244.188 0 442.845 198.643 442.845 442.803 0 15.752-12.747 28.498-28.498 28.498zM262.385 213.443c-8.572 0-17.032-3.841-22.654-11.174-9.574-12.482-7.208-30.377 5.288-39.951 22.71-17.395 47.201-32.646 72.806-45.309 14.194-6.958 31.198-1.169 38.184 12.914 6.986 14.096 1.197 31.198-12.914 38.184a384.67 384.67 0 0 0-63.398 39.464 28.467 28.467 0 0 1-17.312 5.872z" fill="#213847" p-id="3808"></path><path d="M513.976 956.972c-244.188 0-442.845-198.656-442.845-442.844 0-108.012 39.354-212.071 110.795-293.004 10.492-11.786 28.442-12.885 40.243-2.491 11.8 10.423 12.913 28.429 2.505 40.23-62.258 70.496-96.545 161.141-96.545 255.265 0 212.767 173.08 385.847 385.846 385.847 15.753 0 28.499 12.746 28.499 28.499 0.001 15.751-12.745 28.498-28.498 28.498z" fill="#213847" p-id="3809"></path></svg>